<svg width="104" height="98" viewBox="0 0 104 98" fill="none" xmlns="http://www.w3.org/2000/svg">
    <g id="icon">
        <path d="M103.88 66.9673C103.435 64.7142 101.79 63.3244 99.4123 63.1981C98.4122 63.1349 96.2119 63.3666 89.2333 65.3248V44.7312H95.6119C96.2342 44.7312 96.7898 44.4153 97.0787 43.9099C97.3676 43.4046 97.3454 42.7729 97.012 42.2886L86.9441 27.8224C86.433 27.0855 85.4106 26.8959 84.6327 27.3803C83.8549 27.8646 83.6548 28.8332 84.166 29.5702L92.5448 41.5726H43.6721L29.4259 17.9257H56.0514C56.9626 17.9257 57.7183 17.2098 57.7183 16.3464C57.7183 15.4831 56.9626 14.7672 56.0514 14.7672H26.5589C26.4922 14.7672 26.4477 14.7672 26.3811 14.7672C26.3144 14.7672 26.2477 14.7882 26.181 14.7882C26.1588 14.7882 26.1588 14.7882 26.1366 14.8093C26.0921 14.8303 26.0477 14.8303 26.0032 14.8514C25.981 14.8514 25.981 14.8724 25.9588 14.8724C25.9143 14.8935 25.8477 14.9146 25.8032 14.9356H25.781C25.7143 14.9567 25.6699 14.9988 25.6032 15.0409C25.581 15.0409 25.581 15.0619 25.5587 15.0619C25.5143 15.083 25.4698 15.1251 25.4476 15.1462C25.4254 15.1672 25.4254 15.1672 25.4032 15.1883C25.3587 15.2304 25.3365 15.2515 25.292 15.2936L25.2698 15.3146C25.2254 15.3567 25.1809 15.4199 25.1587 15.462L6.93419 42.2675C6.60082 42.7518 6.57859 43.3625 6.86752 43.8889C7.15644 44.3943 7.71207 44.7101 8.33437 44.7101H17.3355V54.4174C16.5576 53.6593 15.4686 53.1961 14.2684 53.1961H4.33387C1.93357 53.2171 0 55.0701 0 57.3232V92.5515C0 94.8256 1.93357 96.6576 4.33387 96.6576H14.2684C15.9798 96.6576 17.4688 95.71 18.1578 94.3413C18.4023 94.4887 18.6912 94.5519 19.0024 94.5519H60.1852C62.8078 94.5519 65.3859 93.8781 67.6528 92.6146L100.368 74.1688C103.035 72.6737 104.435 69.7679 103.88 66.9673ZM15.2686 92.5725C15.2686 93.0779 14.8018 93.5201 14.2684 93.5201H4.33387C3.80047 93.5201 3.33375 93.0779 3.33375 92.5725V57.3232C3.33375 56.8178 3.80047 56.3756 4.33387 56.3756H14.2684C14.8018 56.3756 15.2686 56.8178 15.2686 57.3232V92.5725ZM85.8996 66.2724C83.7437 66.9041 81.2545 67.6622 78.3431 68.5676C70.5643 71.0102 63.1856 73.4949 61.6966 74.0003H59.8741C60.4519 72.9264 61.0298 71.6209 61.2521 70.3575C61.541 68.6729 60.8742 66.7146 59.4518 65.1353C58.0294 63.535 56.0736 62.5243 53.8511 62.1874V44.7312H85.8773V66.2724H85.8996ZM42.7164 44.7312H50.5396V62.1031C47.0281 62.1874 38.4937 62.2295 35.2044 59.6395C30.5816 55.9966 21.7805 55.407 20.6692 55.3439V43.3414L31.3595 27.5277L41.2496 43.9521C41.5607 44.4364 42.1163 44.7312 42.7164 44.7312ZM26.47 19.3786L29.4926 24.4112L17.8911 41.5726H11.4014L26.47 19.3786ZM98.6567 71.4524L65.9415 89.8983C64.208 90.888 62.2077 91.3933 60.1852 91.3933H19.0024C18.869 91.3933 18.7357 91.4144 18.6023 91.4354V58.4392C18.7357 58.4603 18.869 58.4813 19.0024 58.4813C19.2691 58.4813 19.5135 58.4182 19.7358 58.3129C19.9358 58.3971 20.1581 58.4603 20.4025 58.4813C22.8028 58.5866 29.7593 59.45 33.0485 62.04C37.4935 65.5354 47.0725 65.3248 51.1619 65.2406C51.6064 65.2406 51.9398 65.2196 52.2065 65.2196C54.7846 65.2196 56.2737 66.4409 56.9182 67.1779C57.8516 68.2307 58.0739 69.2625 57.9628 69.831C57.7183 71.2208 56.7182 72.9475 56.0514 73.9793H48.895C45.5612 73.9793 42.3164 74.5688 39.2049 75.7059L36.7601 76.6114C35.8933 76.9272 35.4711 77.8537 35.8044 78.6539C36.1378 79.4751 37.1157 79.8752 37.9603 79.5593L40.405 78.6539C43.1165 77.6432 45.9613 77.1378 48.8727 77.1378H56.9182H61.9632C62.1633 77.1378 62.3411 77.1167 62.5189 77.0536C74.9871 72.8001 95.9897 66.1461 99.1901 66.3356C100.057 66.3777 100.412 66.6935 100.59 67.5569C100.901 69.073 100.124 70.6312 98.6567 71.4524Z" fill="currentColor"/>
        <path d="M64.5671 18.6466C64.5888 18.6466 67.5206 19.6932 70.3872 22.1922C74.1225 25.4815 76.0335 29.6679 76.0335 34.6446C76.0335 35.5204 76.7719 36.2466 77.6623 36.2466C78.5527 36.2466 79.291 35.5204 79.291 34.6446C79.291 29.6679 81.1804 25.4815 84.9374 22.1922C87.804 19.6718 90.7358 18.6466 90.7575 18.6466C91.409 18.433 91.8433 17.8349 91.8433 17.1514C91.8651 16.4679 91.4307 15.8699 90.8009 15.6349C90.6923 15.5922 79.291 11.1709 79.291 1.60194C79.291 0.726213 78.5527 0 77.6623 0C76.7719 0 76.0335 0.726213 76.0335 1.60194C76.0335 11.1709 64.6322 15.5922 64.5236 15.6349C63.8939 15.8699 63.4595 16.4893 63.4812 17.1514C63.503 17.8349 63.9373 18.433 64.5671 18.6466ZM77.6623 8.45824C79.834 12.7514 83.7647 15.5709 86.5227 17.1514C85.4152 17.7922 84.1556 18.6466 82.8743 19.7573C80.5723 21.765 78.8133 24.1145 77.684 26.7204C76.533 24.1145 74.7957 21.765 72.4937 19.7573C71.2124 18.6466 69.9311 17.7922 68.8453 17.1514C71.5816 15.5709 75.4906 12.7514 77.6623 8.45824Z" fill="currentColor"/>
    </g>
</svg>
