<svg width="119" height="91" viewBox="0 0 119 91" fill="none" xmlns="http://www.w3.org/2000/svg">
    <g id="icon">
        <g clip-path="url(#clip0_3434_15728)">
            <path d="M3.47231 27.9591H4.43903L13.4748 3.57892C14.264 1.44343 16.3158 0 18.6043 0H82.4074C84.6762 0 86.7478 1.44343 87.5369 3.57892L96.5727 27.9591H97.5394C99.4531 27.9591 101.012 29.5211 101.012 31.4391V34.2271C101.012 36.1451 99.4531 37.7072 97.5394 37.7072H97.0265V70.214C97.0265 71.0247 96.3557 71.697 95.5468 71.697C94.7379 71.697 94.0672 71.0247 94.0672 70.214V37.7269H70.8266C69.5245 37.7269 68.3013 37.2128 67.3938 36.3033L50.5059 19.3776L33.618 36.3033C32.6907 37.2326 31.4675 37.7269 30.1852 37.7269H6.9446V41.6618C6.9446 42.4725 6.27381 43.1447 5.46493 43.1447C4.65604 43.1447 3.98527 42.4725 3.98527 41.6618V37.7269H3.47231C1.55862 37.7269 3.05176e-05 36.1649 3.05176e-05 34.2469V31.4391C3.05176e-05 29.5211 1.55862 27.9591 3.47231 27.9591ZM84.7551 4.60711C84.4 3.61846 83.453 2.96595 82.4074 2.96595H18.6043C17.5587 2.96595 16.6117 3.61846 16.2566 4.60711L7.59564 27.9591H28.1531L47.0533 9.0165C47.9806 8.08717 49.2038 7.59284 50.4861 7.59284C51.7882 7.59284 53.0114 8.10694 53.919 9.0165L72.8192 27.9591H93.4161L84.7551 4.60711ZM2.95936 34.2469C2.95936 34.5237 3.19611 34.761 3.47231 34.761H30.1852C30.6981 34.761 31.1716 34.5632 31.5267 34.2073L49.4603 16.2139C49.7365 15.9371 50.1113 15.7789 50.5059 15.7789C50.9005 15.7789 51.2753 15.9371 51.5515 16.2139L69.485 34.1876C69.8401 34.5435 70.3334 34.7412 70.8266 34.7412H97.5394C97.8156 34.7412 98.0524 34.5039 98.0524 34.2271V31.4391C98.0524 31.1623 97.8156 30.925 97.5394 30.925H72.2471C71.8525 30.925 71.4776 30.7668 71.2014 30.49L51.8672 11.1124C51.512 10.7565 51.0188 10.5588 50.5256 10.5588C50.0127 10.5588 49.5392 10.7565 49.184 11.1124L29.8498 30.49C29.5736 30.7668 29.1987 30.925 28.8041 30.925H3.51176C3.23556 30.925 2.99883 31.1623 2.99883 31.4391L2.95936 34.2469Z" fill="currentColor"/>
            <path d="M11.2071 78.5909C10.3757 78.5909 9.6862 77.9275 9.6862 77.1276V51.0997C9.6862 50.2997 10.3757 49.6364 11.2071 49.6364H31.6886C32.52 49.6364 33.2095 50.2997 33.2095 51.0997V77.1081C33.2095 77.908 32.52 78.5714 31.6886 78.5714H11.2071V78.5909ZM12.728 69.3426H19.9269V62.4162H12.728V69.3426ZM22.9687 69.3426H30.1677V62.4162H22.9687V69.3426ZM12.728 75.6642H30.1677V72.2888H12.728V75.6642ZM12.728 59.4895H19.9269V52.563H12.728V59.4895ZM22.9687 52.563V59.4895H30.1677V52.563H22.9687Z" fill="currentColor"/>
            <path d="M45.7498 56.5303H55.2615C56.0656 56.5303 56.7324 57.224 56.7324 58.0606V64.6514C56.7324 65.488 56.0656 66.1818 55.2615 66.1818H45.7498C44.9457 66.1818 44.2789 65.488 44.2789 64.6514V58.0606C44.2789 57.224 44.9261 56.5303 45.7498 56.5303ZM47.2207 63.1415H53.7907V59.6114H47.2207V63.1415Z" fill="currentColor"/>
            <path d="M42.8953 36.5379C42.8953 32.3461 46.3181 28.9546 50.5057 28.9546C54.6934 28.9546 58.1162 32.3652 58.1162 36.5379C58.1162 40.7107 54.6934 44.1213 50.5057 44.1213C46.3181 44.1213 42.8953 40.7297 42.8953 36.5379ZM55.2479 36.5379C55.2479 33.9276 53.1254 31.8126 50.5057 31.8126C47.886 31.8126 45.7635 33.9276 45.7635 36.5379C45.7635 39.1483 47.886 41.2632 50.5057 41.2632C53.1254 41.2632 55.2479 39.1483 55.2479 36.5379Z" fill="currentColor"/>
            <path d="M1.47969 81.151H3.98526V48.3741C3.98526 47.5567 4.65604 46.8788 5.46492 46.8788C6.2738 46.8788 6.94459 47.5567 6.94459 48.3741V81.151H37.8597V50.8264C37.8597 50.0089 38.5305 49.3311 39.3393 49.3311H61.6724C62.4813 49.3311 63.1521 50.0089 63.1521 50.8264V81.151H94.0672V77.1835C94.0672 76.366 94.7379 75.6882 95.5468 75.6882C96.3557 75.6882 97.0265 76.366 97.0265 77.1835V81.151H99.5321C100.341 81.151 101.012 81.8289 101.012 82.6463V89.5047C101.012 90.3221 100.341 91 99.5321 91H1.47969C0.670815 91 3.05176e-05 90.3221 3.05176e-05 89.5047V82.6662C3.05176e-05 81.8289 0.670815 81.151 1.47969 81.151ZM60.1927 70.2453H58.0817C57.2729 70.2453 56.6021 69.5674 56.6021 68.75C56.6021 67.9326 57.2729 67.2547 58.0817 67.2547H60.1927V52.3217H40.8387V81.151H60.1927V70.2453ZM2.95936 88.0094H98.0524V84.1615H2.95936V88.0094Z" fill="currentColor"/>
        </g>
        <path class="fillMe" d="M117.5 57.2194C117.5 69.7118 107.335 79.8481 94.785 79.8481C82.2347 79.8481 72.0698 69.7118 72.0698 57.2194C72.0698 44.7269 82.2347 34.5906 94.785 34.5906C107.335 34.5906 117.5 44.7269 117.5 57.2194Z" fill="white" stroke="#194FB9" stroke-width="3"/>
        <path class="colorMe" d="M88.4427 60.8627C88.0776 60.8627 87.7893 60.7469 87.5395 60.5345C87.3088 60.3222 87.1743 60.0327 87.1743 59.6852C87.1743 59.3184 87.2896 59.0289 87.5395 58.8166C87.7701 58.5849 88.0776 58.4884 88.4427 58.4884H91.9405V60.8627H88.4427ZM88.4427 64.2986C88.0776 64.2986 87.7893 64.2021 87.5395 64.0091C87.3088 63.8161 87.1743 63.5844 87.1743 63.3142C87.1743 63.0246 87.2896 62.7737 87.5395 62.6C87.7701 62.4262 88.0776 62.3297 88.4427 62.3297H95.6304C96.0148 62.3297 96.3222 62.4262 96.5529 62.6C96.7835 62.7737 96.918 63.0246 96.918 63.3142C96.918 63.6037 96.8027 63.8354 96.5529 64.0091C96.3222 64.2021 96.0148 64.2986 95.6304 64.2986H88.4427ZM91.1717 67.5608C90.8066 67.5608 90.4991 67.445 90.2685 67.1941C90.0186 66.9431 89.9033 66.6343 89.9033 66.2868V49.5511C89.9033 49.1651 90.0186 48.8562 90.2685 48.6246C90.5183 48.3929 90.8258 48.2578 91.1717 48.2578H96.0916C97.3216 48.2578 98.4171 48.5281 99.3588 49.0685C100.3 49.609 101.05 50.3618 101.588 51.327C102.126 52.2921 102.395 53.3924 102.395 54.6471C102.395 55.8439 102.126 56.9249 101.588 57.8514C101.05 58.7973 100.32 59.5308 99.3588 60.052C98.3978 60.5731 97.3216 60.8434 96.0916 60.8434H92.4594V66.2482C92.4594 66.615 92.3441 66.9238 92.0942 67.1555C91.8636 67.445 91.5561 67.5608 91.1717 67.5608ZM92.4594 58.5077H96.0916C96.8411 58.5077 97.5138 58.334 98.0903 58.0058C98.6669 57.6777 99.1089 57.2144 99.4356 56.6546C99.7623 56.0755 99.9353 55.4192 99.9353 54.6857C99.9353 53.8943 99.7623 53.1994 99.4356 52.601C99.1089 52.0026 98.6477 51.52 98.0903 51.1726C97.5138 50.8251 96.8604 50.6514 96.0916 50.6514H92.4594V58.5077Z" fill="#194FB9"/>
        <path class="colorMe" d="M80.9881 62.5662C80.7381 61.9186 80.0216 61.6031 79.3717 61.8522C78.7219 62.1013 78.4053 62.8152 78.6552 63.4628C79.905 66.6673 82.0712 69.407 84.9039 71.3662C87.82 73.3919 91.236 74.4546 94.7853 74.4546C104.333 74.4546 112.082 66.7171 112.082 57.2197C112.082 47.7223 104.317 39.9849 94.7853 39.9849C85.2539 39.9849 77.4888 47.7389 77.4888 57.2363C77.4888 57.9171 78.0553 58.4816 78.7385 58.4816C79.4217 58.4816 79.9883 57.9171 79.9883 57.2363C79.9883 49.1004 86.6369 42.4921 94.7853 42.4921C102.934 42.4921 109.582 49.1004 109.582 57.2363C109.582 65.3722 102.967 71.9806 94.802 71.9806C91.7526 71.9806 88.8365 71.0674 86.3537 69.3406C83.9041 67.647 82.0545 65.3058 80.9881 62.5662Z" fill="#194FB9"/>
        <defs>
            <clipPath id="clip0_3434_15728">
                <rect width="101.012" height="91" fill="white" transform="matrix(-1 0 0 1 101.012 0)"/>
            </clipPath>
        </defs>
    </g>
</svg>
