<?xml version="1.0" encoding="UTF-8" standalone="no"?>
<svg
   xmlns:dc="http://purl.org/dc/elements/1.1/"
   xmlns:cc="http://creativecommons.org/ns#"
   xmlns:rdf="http://www.w3.org/1999/02/22-rdf-syntax-ns#"
   xmlns:svg="http://www.w3.org/2000/svg"
   xmlns="http://www.w3.org/2000/svg"
   xmlns:sodipodi="http://sodipodi.sourceforge.net/DTD/sodipodi-0.dtd"
   xmlns:inkscape="http://www.inkscape.org/namespaces/inkscape"
   version="1.1"
   id="svg2"
   xml:space="preserve"
   width="4000"
   height="2666.6667"
   viewBox="0 0 4000 2666.6667"
   sodipodi:docname="Список.eps"><metadata
     id="metadata8"><rdf:RDF><cc:Work
         rdf:about=""><dc:format>image/svg+xml</dc:format><dc:type
           rdf:resource="http://purl.org/dc/dcmitype/StillImage" /></cc:Work></rdf:RDF></metadata><defs
     id="defs6" /><sodipodi:namedview
     pagecolor="#ffffff"
     bordercolor="#666666"
     borderopacity="1"
     objecttolerance="10"
     gridtolerance="10"
     guidetolerance="10"
     inkscape:pageopacity="0"
     inkscape:pageshadow="2"
     inkscape:window-width="640"
     inkscape:window-height="480"
     id="namedview4" /><g
     id="g10"
     inkscape:groupmode="layer"
     inkscape:label="ink_ext_XXXXXX"
     transform="matrix(1.3333333,0,0,-1.3333333,0,2666.6667)"><g
       id="g12"
       transform="scale(0.1)"><path
         d="M 0,20000 V 0 H 30000 V 20000 H 0"
         style="fill:#ffffff;fill-opacity:1;fill-rule:nonzero;stroke:none"
         id="path14" /><path
         d="m 24533.4,1966.7 c 0,0 1845,-437.4 2753.2,1544.9 1178.3,2571.7 -475.5,5014.7 -3328.3,5190.7 -4114.6,253.7 -1834.2,6822.9 -8327,5040.5 C 13805.6,13241.6 9834.67,15828.9 7497.09,11445.1 7099.61,10699.6 5911.39,10736.2 4328.32,9464.6 1535.74,7221.3 2541.04,1942.9 4893.98,1918.9 7246.91,1895 24533.4,1966.7 24533.4,1966.7"
         style="fill:#eaf4fa;fill-opacity:1;fill-rule:nonzero;stroke:none"
         id="path16" /><path
         d="m 5305.31,1928.5 c 0,0 85.76,562 1180.13,713.2 1094.38,151.2 2111.96,1363.4 3916.76,1187.5 1804.7,-176 3302.3,-1279.9 5356.6,-941.7 2054.4,338.3 3340.7,-92.9 3801.5,-432.9 460.8,-340.1 2367.8,79.8 2508.7,-543.3 l -16763.69,17.2"
         style="fill:#729bd7;fill-opacity:1;fill-rule:nonzero;stroke:none"
         id="path18" /><path
         d="m 9803.9,15319.7 c 0,0 -1235.15,60.5 -579.92,-3704 0,0 440.81,-1277.8 -115.65,-2101.4 h 8191.27 v 5805.4 H 9803.9"
         style="fill:#729bd7;fill-opacity:1;fill-rule:nonzero;stroke:none"
         id="path20" /><path
         d="m 10645.2,5532.6 c 0,0 -572.3,667.7 -35.3,1091.7 0,0 392.2,237.5 712.1,218.2 0,0 -453.2,-759.9 -306.6,-835.5 146.6,-75.6 443.9,883.2 443.9,883.2 0,0 892.6,86.5 1179.7,-51.5 0,0 -763,-624.4 -602.3,-661.6 160.7,-37.2 984.9,575.7 984.9,575.7 0,0 830.7,-141.4 786.4,-648.1 -44.3,-506.8 -330.5,-663.3 -456.3,-649.8 -125.8,13.4 -861.8,294.4 -877.8,191.3 -16,-103.1 427,-440 737.2,-455.7 0,0 -585.7,-645.9 -975,-459.5 -389.2,186.4 -422.4,481.9 -665.1,592.7 -242.6,110.8 -449.8,110.6 -349.6,-2.5 100.2,-113 539.3,-222.9 678.1,-468.3 138.8,-245.5 263.3,-411 -139.5,-350.4 -402.7,60.6 -1057.3,355.3 -1086.1,692.7 -28.7,337.4 -28.7,337.4 -28.7,337.4"
         style="fill:#92bbe7;fill-opacity:1;fill-rule:nonzero;stroke:none"
         id="path22" /><path
         d="m 13399.8,6091 c 0,0 -2256.3,86.9 -2754.6,-558.4 0,0 -110.2,-330 -449.3,-630.5 L 10143,4758 c 0,0 391,412.3 530.9,437.2 0,0 -218.7,799.5 2725.9,895.8"
         style="fill:#92bbe7;fill-opacity:1;fill-rule:nonzero;stroke:none"
         id="path24" /><path
         d="m 10195.9,4902.1 c 0,0 -484.29,-358.2 -517.93,-998.2 l 87.89,-7.8 c 0,0 154.69,661.7 434.24,920.5 279.6,258.7 -4.2,85.5 -4.2,85.5"
         style="fill:#92bbe7;fill-opacity:1;fill-rule:nonzero;stroke:none"
         id="path26" /><path
         d="m 8644.39,6372.3 c 0,0 910.32,509.7 485.5,1201.6 0,0 -339.85,424.8 -703.97,534 0,0 194.2,-1031.7 0,-1055.9 -194.21,-24.3 -133.51,1165.2 -133.51,1165.2 0,0 -958.88,461.2 -1335.14,424.8 0,0 594.73,-1007.4 400.53,-983.2 -194.2,24.3 -861.77,1043.9 -861.77,1043.9 0,0 -983.14,182 -1140.93,-400.6 -157.8,-582.6 97.1,-873.9 242.75,-910.3 145.64,-36.4 1080.25,-24.3 1055.97,-145.6 -24.27,-121.4 -655.44,-315.6 -1007.42,-206.4 0,0 388.4,-958.8 898.18,-910.3 509.78,48.6 667.57,364.1 983.15,388.4 315.58,24.3 546.19,-60.7 388.4,-145.6 -157.79,-85 -691.84,-27.9 -946.74,-244.6 -254.87,-216.7 -461.23,-350.2 12.14,-447.3 473.37,-97.1 1323,-36.4 1492.93,327.7 169.93,364.2 169.93,364.2 169.93,364.2"
         style="fill:#3256ae;fill-opacity:1;fill-rule:nonzero;stroke:none"
         id="path28" /><path
         d="m 5804.19,8120.1 c 0,0 2548.9,-825.4 2840.2,-1747.8 0,0 -12.14,-412.7 242.75,-886.1 v -182 c 0,0 -267.02,619 -412.68,703.9 0,0 570.47,801.1 -2670.27,2112"
         style="fill:#729bd7;fill-opacity:1;fill-rule:nonzero;stroke:none"
         id="path30" /><path
         d="m 8887.14,5486.2 c 0,0 393.08,-596.9 168.99,-1323.5 L 8955,4189.9 c 0,0 98.16,800.3 -107.5,1202.8 -205.64,402.5 39.64,93.5 39.64,93.5"
         style="fill:#729bd7;fill-opacity:1;fill-rule:nonzero;stroke:none"
         id="path32" /><path
         d="m 10092.6,7075.3 c 0,0 -1199.94,672 -639.94,1584 0,0 447.98,560 927.94,704 0,0 -256,-1360 0,-1392 256,-32 176,1536 176,1536 0,0 1264,607.9 1760,560 0,0 -784,-1328 -528,-1296 256,32 1136,1376 1136,1376 0,0 1295.9,240 1503.9,-528 208,-768 -128,-1152 -320,-1200 -192,-48 -1423.9,-32 -1391.9,-192 32,-160 864,-416 1328,-272 0,0 -512,-1264 -1184,-1200 -672,64 -880,480 -1296,512 -416,32 -720,-80 -512,-192 208,-112 912,-36.7 1248,-322.3 336,-285.7 608,-461.7 -16,-589.7 -624,-127.9 -1744,-48 -1968,432 -224,480 -224,480 -224,480"
         style="fill:#92bbe7;fill-opacity:1;fill-rule:nonzero;stroke:none"
         id="path34" /><path
         d="m 13836.6,9379.3 c 0,0 -3360,-1088 -3744,-2304 0,0 16,-544 -319.95,-1168 v -240 c 0,0 351.95,816 543.95,928 0,0 -751.96,1056 3520,2784"
         style="fill:#92bbe7;fill-opacity:1;fill-rule:nonzero;stroke:none"
         id="path36" /><path
         d="m 9772.65,5907.3 c 0,0 -518.16,-786.8 -222.77,-1744.6 l 133.31,35.8 c 0,0 -129.41,1055 141.7,1585.6 271.11,530.5 -52.24,123.2 -52.24,123.2"
         style="fill:#92bbe7;fill-opacity:1;fill-rule:nonzero;stroke:none"
         id="path38" /><path
         d="m 10052.2,2085.6 c 1298.2,0 2350.6,1052.4 2350.6,2350.6 H 7701.65 c 0,-1298.2 1052.37,-2350.6 2350.55,-2350.6"
         style="fill:#fcca23;fill-opacity:1;fill-rule:nonzero;stroke:none"
         id="path40" /><path
         d="m 10630.6,2103.6 c -95.6,-11.9 -193.1,-18 -292,-18 -1298.18,0 -2350.48,1052.5 -2350.48,2350.6 h 583.96 c 0,-1199.3 898.14,-2188.8 2058.52,-2332.6"
         style="fill:#f79034;fill-opacity:1;fill-rule:nonzero;stroke:none"
         id="path42" /><path
         d="M 12435.2,1966 H 7669.19 v 0 c 0,160.2 129.83,290 289.99,290 h 4186.02 c 160.2,0 290,-129.8 290,-290 v 0"
         style="fill:#fcca23;fill-opacity:1;fill-rule:nonzero;stroke:none"
         id="path44" /><path
         d="M 12456.2,4364.1 H 7624.35 v 72.1 h 4831.85 v -72.1"
         style="fill:#fcca23;fill-opacity:1;fill-rule:nonzero;stroke:none"
         id="path46" /><path
         d="m 18557.9,13373.6 c 0,0 -411.8,776.9 205.1,1072.8 0,0 434.8,145.6 742.6,56.5 0,0 -608.9,-641.9 -482.5,-747.8 126.5,-105.9 627,764.2 627,764.2 0,0 889.8,-111.5 1139.6,-309.2 0,0 -881.5,-441.7 -732.8,-513.2 148.6,-71.6 1087.2,345.5 1087.2,345.5 0,0 779.5,-320.3 625,-805 -154.5,-484.7 -468.1,-574.5 -587.8,-533.7 -119.8,40.7 -776.2,476.3 -814.4,379.3 -38.3,-97.1 319.9,-523 619.1,-606.5 0,0 -713.1,-501.6 -1052,-234.2 -338.8,267.3 -306.4,562.8 -518.8,724.2 -212.4,161.4 -414.5,206.6 -341.6,74.3 72.9,-132.2 477.2,-335.8 558.8,-605.7 81.5,-269.9 166.6,-458.8 -213,-311.3 -379.6,147.6 -953.6,578.7 -907.6,914.2 46.1,335.6 46.1,335.6 46.1,335.6"
         style="fill:#3256ae;fill-opacity:1;fill-rule:nonzero;stroke:none"
         id="path48" /><path
         d="m 21367.9,13313.7 c 0,0 -2182.3,580.1 -2810,59.9 0,0 -180,-297.8 -576.8,-516.6 l -83.2,-128.9 c 0,0 472,316.3 613.9,309.9 0,0 -38,828 2856.1,275.7"
         style="fill:#3256ae;fill-opacity:1;fill-rule:nonzero;stroke:none"
         id="path50" /><path
         d="m 17981.1,12857 c 0,0 -551.1,-243.2 -724.4,-860.1 l 84,-27 c 0,0 296.2,611.6 625.7,802.7 329.6,191.1 14.7,84.4 14.7,84.4"
         style="fill:#3256ae;fill-opacity:1;fill-rule:nonzero;stroke:none"
         id="path52" /><path
         d="m 15846.6,14775 c 0,0 -1219.4,635.9 -686.8,1564.2 0,0 431.1,573 906.6,731.3 0,0 -215.4,-1367 41.4,-1391.4 256.8,-24.4 130.2,1540.5 130.2,1540.5 0,0 1245.3,645.4 1742.5,612.2 0,0 -744.1,-1350.8 -489.2,-1311.1 255,39.6 1094.5,1409.1 1094.5,1409.1 0,0 1288.3,278.5 1519.1,-483 230.7,-761.4 -93.7,-1155.2 -284.2,-1208.9 -190.4,-53.7 -1422.3,-74.4 -1385.6,-233.4 36.8,-158.9 876,-390.1 1335.5,-232.3 0,0 -474.2,-1278.7 -1147.7,-1234.7 -673.6,44 -893.9,453.6 -1310.7,473.2 -416.8,19.6 -717.3,-101.4 -506,-207.2 211.2,-105.7 912.6,-9.5 1257,-285 344.3,-275.5 621.4,-443.4 1.5,-589.9 -619.8,-146.5 -1741.7,-99.9 -1979.9,373.2 -238.2,473.2 -238.2,473.2 -238.2,473.2"
         style="fill:#92bbe7;fill-opacity:1;fill-rule:nonzero;stroke:none"
         id="path54" /><path
         d="m 19520.3,17189.3 c 0,0 -3326.1,-1187.5 -3673.7,-2414.3 0,0 32.2,-543.3 -285.1,-1177 l 7.2,-239.9 c 0,0 327.5,826.1 516.1,943.7 0,0 -783.1,1033.2 3435.5,2887.5"
         style="fill:#92bbe7;fill-opacity:1;fill-rule:nonzero;stroke:none"
         id="path56" /><path
         d="m 15561.5,13598 c 0,0 -494.5,-801.9 -170.7,-1750.5 l 132.2,39.7 c 0,0 -160.7,1050.7 94.4,1589.1 255.2,538.4 -55.9,121.7 -55.9,121.7"
         style="fill:#92bbe7;fill-opacity:1;fill-rule:nonzero;stroke:none"
         id="path58" /><path
         d="m 10323.3,13091.6 v -11153 h 8552 v 11153 h -8552"
         style="fill:#3256ae;fill-opacity:1;fill-rule:nonzero;stroke:none"
         id="path60" /><path
         d="m 10602.9,13091.6 v -11153 h 8408.2 v 11153 h -8408.2"
         style="fill:#e0f2fc;fill-opacity:1;fill-rule:nonzero;stroke:none"
         id="path62" /><path
         d="m 24939.9,1965.9 h -1694.3 c -90.8,77.1 62.8,252 223.3,263.7 69.7,5.3 157.9,-9.3 258.6,-30.6 23.3,309.7 156.5,1701.9 658.3,1645.9 564.2,-62.6 0,-613.1 -159.5,-939 -118.2,-241.3 -242.8,-587.5 -299.7,-750.9 45.8,-9.9 93.2,-19.6 141.6,-28.5 74.8,229.6 353.1,1002 706.9,957 415.5,-52.7 248.5,-362.4 -46,-546.2 -216,-135.2 -481.3,-327.3 -607.4,-420.2 106.8,-17.4 218.3,-29.1 331.4,-26.5 290.2,6.9 431.9,-78.6 486.8,-124.7"
         style="fill:#729bd7;fill-opacity:1;fill-rule:nonzero;stroke:none"
         id="path64" /><path
         d="m 19011.2,13091.7 c -0.1,-0.1 -0.1,-0.1 -0.1,-0.1 h -8408.2 c 46.5,635.8 -23.6,1097.6 -135.9,1429.6 -215.6,638.4 -587.25,798.6 -587.25,798.6 h 7929.75 c 676.8,0 1201.6,-407.7 1344.5,-948.9 5.3,-20.4 10.3,-40.7 14.6,-61 135.6,-619.1 -151.8,-1206.8 -157.4,-1218.2"
         style="fill:#e0f2fc;fill-opacity:1;fill-rule:nonzero;stroke:none"
         id="path66" /><path
         d="m 19011.2,13091.7 c -0.1,-0.1 -0.1,-0.1 -0.1,-0.1 h -8408.2 c 46.5,635.8 -23.6,1097.6 -135.9,1429.6 859.3,-157.4 2987.5,-492.7 5265.5,-436.2 1473.7,36.6 2638.3,135.2 3436.1,224.9 135.6,-619.1 -151.8,-1206.8 -157.4,-1218.2"
         style="fill:#b5dbf4;fill-opacity:1;fill-rule:nonzero;stroke:none"
         id="path68" /><path
         d="m 16857.6,10519.8 h -4594.1 c -8.7,0 -15.7,7.1 -15.7,15.7 v 177.8 c 0,8.6 7,15.7 15.7,15.7 h 4594.1 c 8.6,0 15.7,-7.1 15.7,-15.7 v -177.8 c 0,-8.6 -7.1,-15.7 -15.7,-15.7"
         style="fill:#729bd7;fill-opacity:1;fill-rule:nonzero;stroke:none"
         id="path70" /><path
         d="m 15114.2,10167.9 h -2850.7 c -8.7,0 -15.7,7.1 -15.7,15.7 v 177.8 c 0,8.7 7,15.7 15.7,15.7 h 2850.7 c 8.7,0 15.7,-7 15.7,-15.7 v -177.8 c 0,-8.6 -7,-15.7 -15.7,-15.7"
         style="fill:#729bd7;fill-opacity:1;fill-rule:nonzero;stroke:none"
         id="path72" /><path
         d="m 11818.3,10201.8 v 427.2 h -56.4 c -34.2,0 -51.3,14.3 -51.3,42.8 0,20.5 13.4,35 40.2,43.5 13.7,4.6 35.5,8 65.4,10.3 29.9,2.3 53.9,3.4 72.2,3.4 17.6,0 28.7,-3.6 33.3,-10.7 4.6,-7.1 6.8,-25.2 6.8,-54.2 v -462.3 h 58.1 c 37.6,0 56.4,-16.2 56.4,-48.7 0,-34.2 -18.8,-51.2 -56.4,-51.2 h -234.1 c -16.5,0 -30.3,4.4 -41.4,13.2 -11.1,8.8 -16.7,21.2 -16.7,37.2 0,33 19.1,49.5 57.3,49.5 h 66.6"
         style="fill:#729bd7;fill-opacity:1;fill-rule:nonzero;stroke:none"
         id="path74" /><path
         d="m 16857.6,8317.2 h -4594.1 c -8.7,0 -15.7,7 -15.7,15.7 v 177.7 c 0,8.7 7,15.7 15.7,15.7 h 4594.1 c 8.6,0 15.7,-7 15.7,-15.7 v -177.7 c 0,-8.7 -7.1,-15.7 -15.7,-15.7"
         style="fill:#729bd7;fill-opacity:1;fill-rule:nonzero;stroke:none"
         id="path76" /><path
         d="m 15114.2,7965.3 h -2850.7 c -8.7,0 -15.7,7 -15.7,15.7 v 177.7 c 0,8.7 7,15.7 15.7,15.7 h 2850.7 c 8.7,0 15.7,-7 15.7,-15.7 V 7981 c 0,-8.7 -7,-15.7 -15.7,-15.7"
         style="fill:#729bd7;fill-opacity:1;fill-rule:nonzero;stroke:none"
         id="path78" /><path
         d="m 12051.9,8007.9 c 0,-28.4 -19.9,-42.6 -59.7,-42.6 h -247.7 c -35.7,0 -53.6,14.3 -53.6,43 0,9.1 4.8,19.6 14.4,31.7 14,16.1 34.7,40.3 61.9,72.5 41.2,51.9 75.7,96.7 103.4,134.4 9.6,12.6 23.2,31.7 40.8,57.4 14.6,25.7 21.9,47.3 21.9,65 0,19.6 -6.3,35.8 -18.9,48.7 -12.6,12.8 -28.7,19.2 -48.3,19.2 -19.1,0 -35.8,-6 -49.9,-18.1 -9.5,-8.1 -17.1,-23.2 -22.6,-45.3 -7.1,-28.7 -11.6,-45.3 -13.6,-49.9 -7.5,-16.1 -19.9,-24.1 -37,-24.1 -15.1,0 -26.9,5.5 -35.5,16.6 -8,9.6 -12.1,22.1 -12.1,37.7 0,17.7 2.8,35.5 8.3,53.7 12.1,38.7 33.5,68.4 64.2,89.1 29.2,19.6 64.7,29.4 106.5,29.4 45.8,0 84.1,-13.9 114.8,-41.6 31.7,-29.2 47.5,-66.5 47.5,-111.9 0,-33.8 -11.3,-68.6 -33.9,-104.4 -12.6,-19.7 -38.5,-54.5 -77.8,-104.4 -20.2,-25.7 -51.9,-63 -95.2,-111.9 h 163.2 c 39.2,0 58.9,-14.7 58.9,-44.2"
         style="fill:#729bd7;fill-opacity:1;fill-rule:nonzero;stroke:none"
         id="path80" /><path
         d="m 16857.6,6479.7 h -4594.1 c -8.7,0 -15.7,7.1 -15.7,15.7 v 177.8 c 0,8.6 7,15.7 15.7,15.7 h 4594.1 c 8.6,0 15.7,-7.1 15.7,-15.7 v -177.8 c 0,-8.6 -7.1,-15.7 -15.7,-15.7"
         style="fill:#729bd7;fill-opacity:1;fill-rule:nonzero;stroke:none"
         id="path82" /><path
         d="m 15114.2,6127.8 h -2850.7 c -8.7,0 -15.7,7.1 -15.7,15.7 v 177.8 c 0,8.6 7,15.7 15.7,15.7 h 2850.7 c 8.7,0 15.7,-7.1 15.7,-15.7 v -177.8 c 0,-8.6 -7,-15.7 -15.7,-15.7"
         style="fill:#729bd7;fill-opacity:1;fill-rule:nonzero;stroke:none"
         id="path84" /><path
         d="m 12051.9,6303 c 0,-53.5 -18.8,-96.4 -56.4,-128.9 -35.5,-30.8 -80.5,-46.3 -135.1,-46.3 -42.2,0 -78.2,10.1 -108,30.1 -47.4,31.9 -71,70.3 -71,115 0,12.9 4.1,24 12.3,33.2 8.2,9.3 18.8,13.9 31.7,13.9 13.3,0 25.9,-9 37.8,-27 19,-29.8 30.1,-46.3 33.2,-49.4 16.9,-18 38.8,-27 65.6,-27 36,0 61.7,13.4 77.2,40.1 7.2,13.4 10.8,30.4 10.8,51 0,50.4 -29.6,78.4 -88.8,84.1 -33.5,3.1 -50.2,17.2 -50.2,42.5 0,18.5 9.7,31.6 29.2,39.3 36.2,13.4 54.6,20.3 55.1,20.9 19.5,12.8 29.2,35.2 29.2,67.1 0,19 -5.7,34.1 -16.9,45.2 -11.3,11 -26.4,16.5 -45.4,16.5 -23.6,0 -42.1,-5.6 -55.4,-16.9 -11.3,-9.8 -20.8,-26.5 -28.5,-50.2 -6.1,-18 -17.9,-27 -35.3,-27 -12.4,0 -22.5,5.4 -30.4,16.2 -8,10.8 -12,22.6 -12,35.5 0,15.9 4.4,31.9 13.2,47.9 14.4,26.7 36.5,47.5 66.4,62.5 27.2,13.9 57.1,20.8 89.5,20.8 43.7,0 80.1,-13.2 109.2,-39.7 29.1,-26.5 43.6,-61.4 43.6,-104.6 0,-52 -21.6,-93.2 -64.8,-123.5 62.8,-25.2 94.2,-72.3 94.2,-141.3"
         style="fill:#729bd7;fill-opacity:1;fill-rule:nonzero;stroke:none"
         id="path86" /><path
         d="m 16338.9,12350.8 h -2914.3 c -10,0 -18.2,8.2 -18.2,18.2 v 206.6 c 0,10 8.2,18.2 18.3,18.2 h 2914.2 c 10,0 18.2,-8.2 18.2,-18.2 V 12369 c 0,-10 -8.2,-18.2 -18.2,-18.2"
         style="fill:#729bd7;fill-opacity:1;fill-rule:nonzero;stroke:none"
         id="path88" /><path
         d="m 17082.8,11976.2 h -4402.1 c -10,0 -18.2,8.2 -18.2,18.2 v 206.5 c 0,10.1 8.2,18.3 18.2,18.3 h 4402.1 c 10,0 18.2,-8.2 18.2,-18.3 v -206.5 c 0,-10 -8.2,-18.2 -18.2,-18.2"
         style="fill:#729bd7;fill-opacity:1;fill-rule:nonzero;stroke:none"
         id="path90" /><path
         d="m 14556,9392 c -916,0 -1785.2,115 -2433.2,279.3 -654.7,165.9 -1007.3,437.2 -1007.3,677.8 0,218.1 287.4,418.7 831.1,580.1 v 0 c -521.1,-154.7 -799.7,-381.8 -799.7,-580.1 0,-220 361.2,-437.7 991,-597.4 645.7,-163.7 1504.4,-253.9 2418.1,-253.9 913.6,0 1772.3,90.2 2418,253.9 629.8,159.7 991,377.4 991,597.4 0,233 -380.3,522.6 -992.6,755.7 -696.1,265.1 -1554.3,363.5 -2416.4,363.5 -1618.6,0 -2284.8,-189 -2862.9,-425.7 v 0 c 580.6,237.8 1238.6,507.3 2862.9,507.3 865.5,0 1727.4,-146.7 2426.8,-413 625.2,-238.1 1013.6,-539.9 1013.6,-787.8 0,-240.6 -360.5,-464.5 -1015.2,-630.5 C 16333.2,9554.3 15471.9,9392 14556,9392"
         style="fill:#3256ae;fill-opacity:1;fill-rule:nonzero;stroke:none"
         id="path92" /><path
         d="m 20118.2,7244.7 c 0,0 -30.1,-293.2 -63.2,-348.6 -33.1,-55.5 -174,-232.8 -234,-267.5 -60.1,-34.8 36.6,233.5 24.4,285.7 -12.3,52.2 -49.4,-95.3 -75.9,-98.7 -26.4,-3.5 -19.6,129.3 -20.6,177.6 -0.9,48.3 128.7,167.5 174.5,270.4 45.7,102.9 194.8,-18.9 194.8,-18.9"
         style="fill:#f7996e;fill-opacity:1;fill-rule:nonzero;stroke:none"
         id="path94" /><path
         d="m 16515.6,9949.3 -67.4,127.1 c 0,0 33.5,226.6 -250.4,369.9 0,0 -103.8,42.3 -162.4,-42.4 -53.9,-77.9 102.9,-63.8 94.5,-197.2 -8.5,-133.3 54.8,-211.6 142.9,-255 l 72.9,-84.4 169.9,82"
         style="fill:#f7996e;fill-opacity:1;fill-rule:nonzero;stroke:none"
         id="path96" /><path
         d="m 19198.7,10253.2 c 0,0 -243.8,-1196.6 -1585.5,-1587.6 -418.8,-122.1 -1370.3,1256.8 -1370.3,1256.8 0,0 33.4,127.1 243,97.9 0,0 926.5,-613.3 1043.1,-679.9 103.5,-59.2 784.1,760 1094.4,892.1 310.3,132.1 575.3,20.7 575.3,20.7"
         style="fill:#7b0f44;fill-opacity:1;fill-rule:nonzero;stroke:none"
         id="path98" /><path
         d="m 16874.5,10297.2 -38.1,-247.7 -1245.9,191.4 38,247.7 1246,-191.4"
         style="fill:#f7cc2c;fill-opacity:1;fill-rule:nonzero;stroke:none"
         id="path100" /><path
         d="m 15319.8,10409.2 270.7,-168.3 38,247.7 z"
         style="fill:#f7996e;fill-opacity:1;fill-rule:nonzero;stroke:none"
         id="path102" /><path
         d="m 17006.7,10192.8 -12,-78.3 c -7.4,-48.2 -52.5,-81.2 -100.6,-73.8 l -57.7,8.8 38.1,247.7 62.6,-9.6 c 45.4,-7 76.6,-49.4 69.6,-94.8"
         style="fill:#f7996e;fill-opacity:1;fill-rule:nonzero;stroke:none"
         id="path104" /><path
         d="m 20800.6,2730.6 c 0,0 166.4,-151.9 133.9,-259.8 -32.4,-108 -182.7,-179.9 -203,-311.8 -20.2,-131.9 -101.4,-203.9 -174.5,-203.9 -73.1,0 -348.4,0 -348.4,0 0,0 -53.8,92.8 76.1,120.8 129.9,28 178.9,183 170.8,326.9 -8.1,143.9 12.2,335.8 12.2,335.8 l 276,63.9 56.9,-71.9"
         style="fill:#1c2f53;fill-opacity:1;fill-rule:nonzero;stroke:none"
         id="path106" /><path
         d="m 18758.5,2337.7 c 0,0 29.9,-345.7 -43.2,-381.6 l -935.1,1.9 c 0,0 0,107.9 150.2,131.9 150.2,24 414.1,111.9 458.7,307.8 44.7,195.9 369.4,-60 369.4,-60"
         style="fill:#0a4b4b;fill-opacity:1;fill-rule:nonzero;stroke:none"
         id="path108" /><path
         d="m 17969,7220.9 c 0,0 49.3,-605.9 107.3,-1334.3 78.8,-989.5 173.5,-2204.9 182.9,-2435.1 16.2,-399.8 81.3,-1039.4 81.3,-1039.4 0,0 154.1,-151.9 462.8,-87.9 0,0 275,913 353.5,1878.9 1.2,15.9 2.4,31.8 3.7,47.8 73,983.3 186.7,3054 186.7,3054 l -1378.2,-84"
         style="fill:#3256ae;fill-opacity:1;fill-rule:nonzero;stroke:none"
         id="path110" /><path
         d="m 17969,7220.9 c 0,0 49.3,-605.9 107.3,-1334.3 l 1080.5,-1683.5 c 1.2,15.9 2.4,31.8 3.7,47.8 73,983.3 186.7,3054 186.7,3054 l -1378.2,-84"
         style="fill:#264899;fill-opacity:1;fill-rule:nonzero;stroke:none"
         id="path112" /><path
         d="m 18194.2,7149 c 0,0 889.1,-2194.6 1473.7,-3225.9 584.6,-1031.3 767.3,-1319.1 767.3,-1319.1 0,0 334.9,131.9 365.4,221.8 0,0 -223.6,1991 -615.1,2476.4 -221.2,274.3 -481.1,1097.3 -493.2,1385.1 -12.2,287.8 -79.2,857.4 -79.2,857.4 L 18194.2,7149"
         style="fill:#3256ae;fill-opacity:1;fill-rule:nonzero;stroke:none"
         id="path114" /><path
         d="m 19364,10531 c 0,0 -601.5,-290.3 -948.3,-182.6 0,0 85.3,107.7 234.7,187.8 -12,69.6 -21.3,130.1 -26.7,181.3 -14.6,118.2 -14.6,185.2 -14.6,185.2 l 232,182.5 220.1,174.7 c -17.3,-491.2 302.8,-728.9 302.8,-728.9"
         style="fill:#f7996e;fill-opacity:1;fill-rule:nonzero;stroke:none"
         id="path116" /><path
         d="m 19681,7432.3 c 1.3,-36.8 -77.3,-78.8 -112,-94.5 -257.5,-113 -497.5,-191.8 -769.6,-218.1 -321.5,-32.8 -701.6,39.5 -832.3,36.8 -13.4,0 -25.4,5.3 -36.1,14.5 -9.3,6.5 -16,394 -9.3,881.2 0,19.7 0,39.4 1.3,59.1 v 6.6 c 2.7,190.4 9.4,390 18.7,589.7 18.7,438.7 53.3,861.6 112,1095.3 70.7,275.8 230.8,458.4 376.2,591 l 120,105.1 c 120.1,-23.6 246.8,-17.1 373.5,44.7 138.7,67 288.1,139.2 312.1,120.8 181.4,-132.6 304.1,-430.8 369.5,-811.7 37.3,-219.3 56,-464.9 54.7,-722.3 0,-94.6 -2.7,-191.8 -8,-287.6 -32,-520.1 0,-971.9 18.6,-1233.3 5.4,-76.2 9.4,-135.2 10.7,-177.3"
         style="fill:#a21156;fill-opacity:1;fill-rule:nonzero;stroke:none"
         id="path118" /><path
         d="m 19670.3,7456.2 c -2106.4,4.2 -388.5,2285.8 -388.5,2285.8 l 341.3,110.8 c 27,-234.3 40.5,-496.7 39.5,-771.7 0,-101 -1.9,-204.9 -5.8,-307.3 -23.1,-555.7 0,-1038.3 13.5,-1317.6"
         style="fill:#7b0f44;fill-opacity:1;fill-rule:nonzero;stroke:none"
         id="path120" /><path
         d="m 19065.2,11072.1 c 0,0 -152,-277.1 -441.5,-354.6 -14.6,118.2 -14.6,185.2 -14.6,185.2 l 232,182.5 224.1,-13.1"
         style="fill:#f68352;fill-opacity:1;fill-rule:nonzero;stroke:none"
         id="path122" /><path
         d="m 18503.2,10910.7 c 0,0 573.9,-93.9 627.8,258.9 53.8,352.8 164.2,578.3 -199.9,653.1 -364.2,74.8 -456.1,-49.2 -503.1,-162.6 -47.1,-113.5 -72.6,-715.9 75.2,-749.4"
         style="fill:#f7996e;fill-opacity:1;fill-rule:nonzero;stroke:none"
         id="path124" /><path
         d="m 19339.6,11864.9 c 5.2,6 17.2,10.8 43.9,12.3 0,0 -21.4,13.4 -49.9,14.1 -5.6,37.1 -25.4,103 -89.4,119 0,0 34.4,-18.4 38.9,-57.9 -74.2,76.1 -233,131.5 -672.8,96.8 -579.6,-45.7 -388.6,-416.8 -313.5,-461.1 75,-44.2 263.9,77.1 403.7,66 139.8,-11.1 166.4,-213.2 213.8,-240.9 47.4,-27.7 28.8,21.3 93,50.3 64.1,29 70.2,-77.3 51.7,-146.4 -18.5,-69.2 69.6,-160.4 69.6,-160.4 0,0 0,0 89.1,96 89.1,96 173.1,502.4 132.6,589 -3.6,7.7 -7.1,15.5 -10.7,23.2"
         style="fill:#1c2f53;fill-opacity:1;fill-rule:nonzero;stroke:none"
         id="path126" /><path
         d="m 19235.3,10667.4 c 0,0 363.1,-171.9 537.1,-436.2 270.1,-410 583.1,-1904.3 588.9,-2042.7 5.8,-138.4 -228.5,-1115.3 -228.5,-1115.3 0,0 -237.6,15.7 -298.8,135.6 0,0 47.4,1003.7 17.3,1068.3 -30,64.5 -990.4,1346.4 -882.4,1619.9 108,273.5 266.4,770.4 266.4,770.4"
         style="fill:#a21156;fill-opacity:1;fill-rule:nonzero;stroke:none"
         id="path128" /><path
         d="m 16447,10082.4 c 0,0 19.8,78 -34.3,113.1 -54.2,35.1 -103.9,130.4 -126.7,117.5 -47.3,-26.8 25.8,-110 12.5,-213.7 -4.7,-36.4 79.9,-131.6 148.5,-16.9"
         style="fill:#f7996e;fill-opacity:1;fill-rule:nonzero;stroke:none"
         id="path130" /><path
         d="m 7624.35,2696.3 c 0,0 -852.89,2183.9 -1451.03,1836.2 -598.14,-347.8 1451.03,-1836.2 1451.03,-1836.2"
         style="fill:#729bd7;fill-opacity:1;fill-rule:nonzero;stroke:none"
         id="path132" /><path
         d="m 7202.68,2696.3 c 0,0 -1126.73,973.7 -1641.41,792.9 -514.69,-180.8 1641.41,-792.9 1641.41,-792.9"
         style="fill:#729bd7;fill-opacity:1;fill-rule:nonzero;stroke:none"
         id="path134" /><path
         d="m 19132.9,2381.8 c 0,0 259.6,902.8 564.2,796.3 304.6,-106.6 -564.2,-796.3 -564.2,-796.3"
         style="fill:#729bd7;fill-opacity:1;fill-rule:nonzero;stroke:none"
         id="path136" /><path
         d="m 19369.8,2431 c 0,0 662.8,435.1 808.5,300.6 145.7,-134.5 -808.5,-300.6 -808.5,-300.6"
         style="fill:#729bd7;fill-opacity:1;fill-rule:nonzero;stroke:none"
         id="path138" /><path
         d="m 17104.7,4364.1 h -5170.4 c -34.6,0 -62.9,28.3 -62.9,62.9 v 0 c 0,34.6 28.3,62.9 62.9,62.9 h 5170.4 c 34.6,0 62.9,-28.3 62.9,-62.9 v 0 c 0,-34.6 -28.3,-62.9 -62.9,-62.9"
         style="fill:#729bd7;fill-opacity:1;fill-rule:nonzero;stroke:none"
         id="path140" /><path
         d="m 17104.7,4112.2 h -5170.4 c -34.6,0 -62.9,28.4 -62.9,63 v 0 c 0,34.6 28.3,62.9 62.9,62.9 h 5170.4 c 34.6,0 62.9,-28.3 62.9,-62.9 v 0 c 0,-34.6 -28.3,-63 -62.9,-63"
         style="fill:#729bd7;fill-opacity:1;fill-rule:nonzero;stroke:none"
         id="path142" /><path
         d="m 17104.7,3833.2 h -5170.4 c -34.6,0 -62.9,28.3 -62.9,62.9 v 0 c 0,34.6 28.3,62.9 62.9,62.9 h 5170.4 c 34.6,0 62.9,-28.3 62.9,-62.9 v 0 c 0,-34.6 -28.3,-62.9 -62.9,-62.9"
         style="fill:#729bd7;fill-opacity:1;fill-rule:nonzero;stroke:none"
         id="path144" /><path
         d="m 16475.2,3554.1 h -4594.4 c -5.2,0 -9.4,4.2 -9.4,9.4 v 107 c 0,5.2 4.2,9.4 9.4,9.4 h 4594.4 c 5.2,0 9.4,-4.2 9.4,-9.4 v -107 c 0,-5.2 -4.2,-9.4 -9.4,-9.4"
         style="fill:#729bd7;fill-opacity:1;fill-rule:nonzero;stroke:none"
         id="path146" /><path
         d="M 28053.1,1911.3 H 2371.41 c -2.25,0 -4.1,1.8 -4.1,4.1 v 46.4 c 0,2.3 1.85,4.1 4.1,4.1 H 28053.1 c 2.3,0 4.1,-1.8 4.1,-4.1 v -46.4 c 0,-2.3 -1.8,-4.1 -4.1,-4.1"
         style="fill:#1c2f53;fill-opacity:1;fill-rule:nonzero;stroke:none"
         id="path148" /></g></g></svg>
