<svg xmlns="http://www.w3.org/2000/svg" viewBox="0 0 1803.44 1632.86"><defs><style>.cls-1{fill:#f7e9f1;}.cls-2,.cls-5{fill:#f8fbff;}.cls-2{opacity:0.5;}.cls-3{fill:#ebf1f7;}.cls-4{fill:#ead3e5;}.cls-17,.cls-6{fill:#fff;}.cls-6{opacity:0.8;}.cls-7{fill:#d7e4f8;}.cls-8{fill:#d09ece;}.cls-9{fill:#f3b484;}.cls-10{fill:#f2cc56;}.cls-11{fill:#ea9e4b;}.cls-12{fill:#e19a69;}.cls-13{fill:#562850;}.cls-14{fill:#7f457c;}.cls-15{fill:#4a9881;}.cls-16{fill:#dc9665;}.cls-18{fill:#80457c;}.cls-19{fill:#a0609b;}</style></defs><g id="Layer_2" data-name="Layer 2"><g id="_лой_1" data-name="‘лой_1"><path class="cls-1" d="M1790.7,1550.23c-15.64,77.39-227.1,88.58-432.93,80.34-19.32-.77-38.6-1.71-57.66-2.78-98.34-5.56-190.92-14.64-254.83-21.94-145.6-16.63-472.66-8.52-689-3.87-30.26.65-58.34,1.23-83.47,1.66-52.17.92-91.59,1.2-111.09.17a282.51,282.51,0,0,1-31.2-3.29C61,1589,44.9,1555.34,44.9,1555.34a565.53,565.53,0,0,1-29.2-90.85c-17.08-73.87-19.87-151-10.09-227.79,7.77-61.41,23.72-123.5,43.1-177.32,10.46-29.68,24.21-60,41-116.64C201.11,566.42,48.17,318.12,363.07,207.32,701.42,88.26,849.26,351.78,1118.35,307c255.37-42.47,533.34,67.92,536.17,269.09a229.32,229.32,0,0,1-2,33.18q-2.76,21.13-5.8,42.39c-12.88,91.45-27.67,184.29-27.63,273.65.06,54.72,5.76,111.14,21.88,163.18,31.59,103.59,97.39,165.07,97.39,165.07,32.81,39.27,54.68,88.09,62.42,148C1806.77,1450.56,1802.22,1502.48,1790.7,1550.23Z"/><path class="cls-1" d="M184,309.77s-25.39,79.18-28.22,128S195.05,458,195.05,458l25.78-119.26Z"/><path class="cls-2" d="M1300.11,1627.79c19.06,1.07,38.34,2,57.66,2.78,205.83,8.24,417.29-3,432.93-80.34,11.52-47.75,16.07-99.67,10.12-148.63-7.74-59.93-29.61-108.75-62.42-148,0,0-43.18-40.35-76.38-110.75-16.39.24-29.82.5-33.77.75-142.33,9-171.12,118.51-171.12,118.51s-8.39-21-38.9-21-45.11,27.31-45.11,27.31c-104.11-20.58-163,62.28-163,62.28-77.22-23.38-133.84,40.85-133.84,40.85l-80.19-40.85s-235.66-116.23-295.15-105-74.36,72.56-74.36,72.56S601.4,1183,476.71,1182.78s-153.3,75.56-153.3,75.56-6.87-42.75-45.76-56.25-69.79,9-69.79,9c-35.49-42.42-114.09-67.62-181.15-81.06A818.63,818.63,0,0,0,5.61,1236.7c-9.78,76.83-7,153.92,10.09,227.79a565.53,565.53,0,0,0,29.2,90.85S61,1589,130.47,1600.52a282.51,282.51,0,0,0,31.2,3.29c19.5,1,58.92.75,111.09-.17,25.13-.43,53.21-1,83.47-1.66,216.39-4.65,543.45-12.76,689.05,3.87C1109.19,1613.15,1201.77,1622.23,1300.11,1627.79Z"/><path class="cls-1" d="M1348.94,261.68S1576.23,336,1628.25,477.16H1383.42L1251.29,354.39Z"/><path class="cls-3" d="M44.9,1555.34l-.63-1.48c-.11-.29-.24-.59-.35-.88l.36.88Z"/><path class="cls-4" d="M1300.11,1589.73v38.06c-98.34-5.56-190.92-14.64-254.83-21.94-145.6-16.63-472.66-8.52-689-3.87-30.26.65-58.34,1.23-83.47,1.66-52.17.92-91.59,1.2-111.09.17a282.51,282.51,0,0,1-31.2-3.29V1491.06h26.62v-56.3h4v56.3H225v-105.5h6.25v105.5h42.25v-1.48h0v-13.39h0v-12.65h0v-21.09h0V1429h0V1407.9h0v-13.47h0v-21.06h0v-14.54h0v-21.09h0v-18.51h0v-21.09h0v-14h12.61v-15.78h2v15.78h93.31v-15.78h2v15.78h17v110.24l12,.11v-.11h-.1v-21.06h.1v-14.54h-.1v-21.09h.1v-14.51h-.1v-21.06h.1v-.07H525.63v.07h19.46l3,2.95v119.07h82.72v158H697.6V1378.73H916.39v184h73.85v-44.12l87.11.39v-71.49h17.53V1433.4h2.32v14.14h80.67V1433.4h2.33v14.15h16.21v142.18Z"/><path class="cls-4" d="M1693.14,1394.43h.11v.11h-.18l-11.82-.11V1284.19h-17v-15.78h-2v15.78h-93.28v-15.78h-2v15.78h-12.59v206.87h-42.27v-105.5h-6.28v105.5h-63.89v-56.3h-4v56.3H1411.2v120.62h-53.43v18.89c205.83,8.24,417.29-3,432.93-80.34,11.52-47.75,16.07-99.67,10.12-148.63-4.83-37.36-15.14-70.4-30.18-99.5h-77.39v.07h-.11Z"/><rect class="cls-1" x="1554.53" y="1284.18" width="77.88" height="28.08"/><rect class="cls-1" x="1554.53" y="1327.41" width="77.88" height="28.08"/><rect class="cls-1" x="1554.53" y="1371.54" width="77.88" height="28.08"/><rect class="cls-1" x="1554.53" y="1416.36" width="77.88" height="28.08"/><rect class="cls-1" x="1554.53" y="1459.62" width="77.88" height="28.08"/><rect class="cls-1" x="1554.53" y="1507.23" width="77.88" height="28.08"/><rect class="cls-1" x="1554.53" y="1550.45" width="77.88" height="28.08"/><rect class="cls-1" x="1554.53" y="1594.57" width="77.88" height="28.08"/><rect class="cls-1" x="272.77" y="1284.18" width="83.46" height="28.08"/><rect class="cls-1" x="272.77" y="1327.41" width="83.46" height="28.08"/><rect class="cls-1" x="272.77" y="1371.54" width="83.46" height="28.08"/><rect class="cls-1" x="272.77" y="1416.36" width="83.46" height="28.08"/><rect class="cls-1" x="272.77" y="1459.62" width="83.46" height="28.08"/><rect class="cls-1" x="272.77" y="1507.23" width="83.46" height="28.08"/><rect class="cls-1" x="272.77" y="1550.45" width="83.46" height="28.08"/><path class="cls-1" d="M356.23,1594.58v7.4c-30.26.65-58.34,1.23-83.47,1.66v-9.06Z"/><rect class="cls-1" x="414.1" y="1302.6" width="94.86" height="28.08"/><rect class="cls-1" x="414.1" y="1345.82" width="94.86" height="28.08"/><rect class="cls-1" x="414.1" y="1389.95" width="94.86" height="28.08"/><rect class="cls-1" x="414.1" y="1434.78" width="94.86" height="28.08"/><rect class="cls-1" x="414.1" y="1478.03" width="94.86" height="28.08"/><rect class="cls-1" x="414.1" y="1523.13" width="94.86" height="28.08"/><rect class="cls-1" x="414.1" y="1566.35" width="94.86" height="28.08"/><path class="cls-5" d="M241.78,388.68s27.3-43.16,92.6-38.36c0,0,94.8-71.93,195.89-9.59,0,0,107.46-15.45,187,13.37,53.06,19.22,70.59,39.38,70.59,39.38Z"/><path class="cls-6" d="M195.05,709.52s16.29-32.89,55.24-29.24c0,0,56.56-54.82,116.87-7.31,0,0,64.11-11.77,111.59,10.19,31.66,14.65,42.11,30,42.11,30Z"/><path class="cls-6" d="M133.39,1073.69S171,997.87,260.76,1006.3c0,0,130.39-126.38,269.43-16.86,0,0,147.8-27.13,257.26,23.5,73,33.76,97.08,69.18,97.08,69.18Z"/><path class="cls-6" d="M1143.34,808.43s17.17-36.86,58.25-32.76c0,0,59.63-61.44,123.22-8.19,0,0,67.6-13.2,117.66,11.42,33.38,16.41,44.4,33.62,44.4,33.62Z"/><path class="cls-2" d="M568,499.59s17.86-28.23,60.57-25.09c0,0,62-47.05,128.12-6.27,0,0,70.29-10.11,122.34,8.75,34.7,12.56,46.17,25.75,46.17,25.75Z"/><path class="cls-6" d="M1652.55,609.29q-2.76,21.13-5.79,42.39l-448-3.93s38.11-60.26,129.27-53.57c0,0,132.35-100.41,273.48-13.39,0,0,21-3,53-4.68A227.91,227.91,0,0,1,1652.55,609.29Z"/><path class="cls-7" d="M44.28,1553.86l.62,1.48-.63-1.48c-.11-.29-.24-.59-.35-.88Z"/><path class="cls-8" d="M718.16,1010.82,708,1028.17l-.05.22c1.3-7.33,17.4-150.21,27.9-244.45l21.87,2.43C751.41,842.58,719.57,1004.39,718.16,1010.82Z"/><path class="cls-8" d="M1002.21,1004.18c-2.72-6-61.19-181.56-79.05-235.23L944,762c29.94,90,75.5,226.37,78.3,233.28,0-.09-.08-.16-.1-.22Z"/><rect class="cls-8" x="719.11" y="755.99" width="241.52" height="32.9" transform="translate(-76.25 92.17) rotate(-6.01)"/><polygon class="cls-8" points="741.77 784.52 646.22 672.35 650.93 668.34 746.49 780.51 741.77 784.52"/><rect class="cls-8" x="900.86" y="694.06" width="147.32" height="6.19" transform="translate(-101.76 1223.77) rotate(-61.65)"/><path class="cls-9" d="M500.25,787.29s6.05-19.9-4.87-21.25-14.74,3-14.3,7.1,8.4,19,8.4,19Z"/><path class="cls-10" d="M518,902a339.38,339.38,0,0,0,51.81-6.1,291.52,291.52,0,0,0,38.53-10.35c3-1,5.84-2.06,8.56-3.1,28.81-11.06,43.47-22.59,43.47-22.59s-40.1-50.06-61.62-43c-25.24,8.25-63.78,40.73-69.59,35.31-6.55-6.12-24.79-67-24.79-67-13.22-5.18-18.19,4.47-18.19,4.47S488.71,903.25,518,902Z"/><path class="cls-11" d="M518,902a339.38,339.38,0,0,0,51.81-6.1,291.52,291.52,0,0,0,38.53-10.35c1.95-23,1.87-46-8.92-29.76C580.4,884.53,518,902,518,902Z"/><path class="cls-9" d="M841.86,955.19s15.84,11.71,17.89,15.48,7.36,17.8,7.29,22.38-12.18-10-15.62-11.13,3.78,6.05,3.06,7.67-8.13-3.3-10.94-4.9-5.19-13-9.53-19.1S841.86,955.19,841.86,955.19Z"/><path class="cls-10" d="M643.79,1020.87s33,12.49,73.12,1.76c17.62-4.71,51.79-17.49,54.3-32.68.59-3.56-1.34-7.49-4.81-13.41-9-15.4-28.35-44.22-40.69-114.89A115.46,115.46,0,0,0,721,843.42c-11.7-33.57-36.42-49.5-57.33-51.87-51-5.77-61.59,20.23-61.59,20.23s-17.17,20.9-12.54,55.58C598.85,936.71,643.79,1020.87,643.79,1020.87Z"/><path class="cls-9" d="M649,790.72S630.25,808.49,605.88,810c0,0-4.91-.14-3.86-6a71.54,71.54,0,0,1-3.73-6.7,111,111,0,0,1-5.37-11.09l10.19-16.76,9.63-16C623.45,784.24,649,790.72,649,790.72Z"/><path class="cls-12" d="M617.5,765s-2.89,20.7-19.21,32.33c-3.76-7-6.88-14.41-6.88-14.41l11.7-13.44Z"/><path class="cls-9" d="M577.79,788.89s42.57-4.08,39.74-29.75.77-43.47-26.53-41.95-31.49,11.9-32.69,20.7S566.65,789.29,577.79,788.89Z"/><path class="cls-13" d="M619.24,706.66c.26-.51,1-1.07,2.9-1.67a8.11,8.11,0,0,0-3.82-.06c-1.1-2.5-3.74-6.73-8.59-6.66a5.86,5.86,0,0,1,3.85,3.32c-6.7-3.94-19-4.87-49.65,5.71-40.34,14-19.76,36.36-13.59,38.06s17.31-10.29,27.45-12.1,15.85,11.81,19.75,12.87,1.64-2,5.66-5.24,6.45,4.1,6.44,9.28,8,9.92,8,9.92l4.52-8.37c4.53-8.36,2.83-38.33-1.68-43.64Z"/><polygon class="cls-14" points="501.96 774.6 564.78 760.98 562.88 750.48 499.19 759.33 501.96 774.6"/><polygon class="cls-14" points="449.3 788.09 526.07 772.23 522.61 753.13 444.98 764.22 449.3 788.09"/><polygon class="cls-13" points="398.04 801.01 462.59 786.79 457.92 761.01 392.34 769.49 398.04 801.01"/><path class="cls-13" d="M398.11,805.52h0a3.7,3.7,0,0,1-4.29-2.94l-6-33.13a3.64,3.64,0,0,1,3-4.21h0a3.69,3.69,0,0,1,4.29,2.94l6,33.12A3.64,3.64,0,0,1,398.11,805.52Z"/><path class="cls-14" d="M563.81,765h0a4,4,0,0,0,3.25-4.59l-1.9-10.52a4,4,0,0,0-4.66-3.2h0a4,4,0,0,0-3.26,4.59l1.9,10.51A4,4,0,0,0,563.81,765Z"/><path class="cls-11" d="M751.43,949.13c-8.12-18.4-10.81-27.07-25.72-87.48-1.6-6.49-2.73-12.65-4.67-18.23h0c-15.86,2.13-35.85,23.94-35.85,23.94S705,924.51,751.43,949.13Z"/><path class="cls-10" d="M649,790.72s41.43-2.1,68,18.27,68.06,48.18,78.79,58.76,51.93,89.64,51.93,89.64-.83,3-6.53,5.93a14.87,14.87,0,0,1-10.2,1.39S790.59,922.18,774,900.14c-6.88-9.16-94.8-32-123.43-21.26C639.36,883.09,649,790.72,649,790.72Z"/><path class="cls-9" d="M498.23,756.41s-7.4,7.06-13,6-5.64-3.14-5.64-3.14S494.1,751.61,498.23,756.41Z"/><path class="cls-9" d="M1072.55,861.71s106.68,35.45,131.91,38.28,78.57,8.06,78.57,8.06v17.38s-64.88,5-97.32,3.62-87.21-17-87.21-17Z"/><path class="cls-13" d="M1076.68,746.77s-18-22.07-56.59-10.62S988.18,789.33,960,777s-56.53-14.06-61.54,10.45c-7.41,36.35-23.64,20.76-38.46,52.63-13.36,28.73-2.8,43.08,20,36.19,32.52-9.83,5.27,20.43,48.88,30.76s100.82-21.9,111.48-46.85,24.58-37.71,35.18-47.34S1102,770.17,1076.68,746.77Z"/><path class="cls-15" d="M1068.45,943.32c-31.34,63.44-26.27,97.08-37.33,103.59s-127.32-33.45-127.31-33.46c11.72-15,28.73-36,44.23-68.63,7.72-16.25,24.39-82.48,34.52-87.32,52.28-25,86.55-6.6,103,6.36,9.94,7.84,13.37,9.45,13.22,29.65C1098.55,918.93,1078.3,923.38,1068.45,943.32Z"/><path class="cls-15" d="M1114.59,924.11s-29.55-16.51-34.38,26c-3,26.2-26.3-102.21-26.3-102.21s24.1-.57,74.86,25.56C1128.77,873.43,1127.34,913.09,1114.59,924.11Z"/><path class="cls-9" d="M1020.21,847.29c3.62-7,7.15-17.59,8.88-31.19l1.94.64,32.72,10.83s-2.13,10.35-3.44,20.19l0,.24C1056.16,878.26,1017.21,853.1,1020.21,847.29Z"/><path class="cls-16" d="M1063.75,827.57l-1.92,10.35c-18.72-2.91-27.95-11.27-30.8-21.18Z"/><path class="cls-9" d="M1071.76,828.11s-44.34,6.6-48-20.75-11.92-44.92,16.23-50.29,35.08,4.33,38.56,13.16S1083.2,825.69,1071.76,828.11Z"/><path class="cls-13" d="M1060.1,753.72s-7.86,33.7-25.89,40.92-26.8,3.34-26.8,3.34,12.81-13.14,13.15-33.16C1020.56,764.82,1048.87,739.66,1060.1,753.72Z"/><path class="cls-13" d="M1057.43,756.73s9.47,2.14,14.06,8.15a44.31,44.31,0,0,1,9.38,24.32s6.24-23-5.72-34C1062.47,743.56,1057.43,756.73,1057.43,756.73Z"/><path class="cls-17" d="M1060.9,813s1.2,3.12,9.25,1.55c0,0,6.76-1.32,6.07-4.83C1076.22,809.74,1069.28,808.09,1060.9,813Z"/><path class="cls-9" d="M1283,908.05s22.34-.11,31,0,31.24,2.83,29.08,5.43-20.67,2.13-21.39,4.49,1.2,8-7.21,9.69-31.47-2.23-31.47-2.23Z"/><path class="cls-10" d="M1348.42,261.61c-19.64,40-48.78,76.42-83.87,115.75-115.39,129.31-229.67,239.34-244.14,253.21l-1.55,1.46-8.53.74-4.75.41-3.89.33h0L972.5,636h0l-59,5.09L795.38,651.28l-99,8.54h0l-13,1.11h0l-29.52,2.55-15.71,1.35C539,590.32,372.92,500.66,286.18,408.71c-49.51-52.5-77.19-95.55-91.13-120.8a201.23,201.23,0,0,1,17.58-26c30.27-37.85,69.7-57.29,113.11-67.31,26.39-6.08,54.24-8.7,82.41-9.83h.19c58.11-2.33,117.6,1.54,168.32-6,19.36-2.87,37.44-7.43,53.69-14.65a126.69,126.69,0,0,0,32.41-20.37q5.13-4.49,10.14-8.78C744.1,73.88,801.78,36.76,850.07,17.31,893.49-.19,929.34-3.4,960.59,3.12a147.2,147.2,0,0,1,18.53,5.14c60.16,20.92,103.8,78.36,156.39,133.47,5.48,5.73,11.06,11.45,16.75,17.1,7.65,7.57,15.53,15,23.71,22.23a389.42,389.42,0,0,0,43,33.3C1254.79,238.05,1296.63,255.79,1348.42,261.61Z"/><path class="cls-11" d="M915.65,633.46c-.86,3.09-1.6,5.66-2.18,7.65-1,3.34-1.48,5.09-1.48,5.09L795.6,651.65l-.22-.37c-.43-.78-1.57-2.78-3.3-5.92C769,603.82,640.14,364.24,630.35,164.12a126.69,126.69,0,0,0,32.41-20.37q5.13-4.49,10.14-8.78C744.1,73.88,801.78,36.76,850.07,17.31,893.49-.19,929.34-3.4,960.59,3.12a147.2,147.2,0,0,1,18.53,5.14C1023.1,231.22,935,564.55,915.65,633.46Z"/><path class="cls-11" d="M657.36,666.08c3.15,2.31,4.84,3.5,4.84,3.5l-9.38,1-5.13.54h0L635,672.44h0l-4.24,3.37C358.13,552.22,237.3,409.37,184,309.77a237.17,237.17,0,0,1,11-21.86,201.23,201.23,0,0,1,17.58-26c30.27-37.85,69.7-57.29,113.11-67.31,26.39-6.08,54.24-8.7,82.41-9.83h.19c40,283.6,238.36,438,286.76,474.08l1.24.93h0c1.06.78-24.86,3.81-35,5.39C658.72,665.62,657.15,665.93,657.36,666.08Z"/><path class="cls-11" d="M1348.94,261.68c-36.61,87.44-122,215.72-318.59,371.61h0l-.65.52-17.78-.19h0l-6.53-.06-3.69,0h0L962.2,646.2s5.5-5.29,7.82-7.69c.7-.72,1.53-1.55,2.47-2.49h0l6-6c42.74-42.26,191.39-194,197.44-449a389.42,389.42,0,0,0,43,33.3c35.79,23.69,77.63,41.43,129.42,47.25Z"/><path class="cls-13" d="M1030.51,633.72c.78,7.48-88.07,23-198.47,34.58s-200.54,15-201.33,7.51,88.07-23,198.47-34.58S1029.72,626.24,1030.51,633.72Z"/><path class="cls-11" d="M691,659.74c-4.13,14-14.81,41.43-37.61,56,0,0,6.9,15.17,28.15,14.6,0,0,22.34-29.64,13.92-70.44A2.31,2.31,0,0,0,691,659.74Z"/><path class="cls-11" d="M792.7,642.24c-4.88,15.66-16.52,43.74-40.28,59,0,0,7.49,16.49,30.59,15.86,0,0,23.52-31.21,15.53-74.49A3,3,0,0,0,792.7,642.24Z"/><path class="cls-11" d="M908.71,632c-4.88,15.65-16.52,43.73-40.29,59,0,0,7.5,16.49,30.6,15.87,0,0,23.52-31.21,15.53-74.49A3,3,0,0,0,908.71,632Z"/><path class="cls-11" d="M1027.84,627.77c-3.84,12.34-13,34.48-31.76,46.5,0,0,5.9,13,24.12,12.51,0,0,18.55-24.61,12.25-58.74A2.39,2.39,0,0,0,1027.84,627.77Z"/><path class="cls-18" d="M1146.4,984.65l-2.27,83.08-8,290.31a41.38,41.38,0,0,1-37.05,40L729,1437a44.08,44.08,0,0,1-47.51-33.65l-51-215.1-15.38-64.92-19.14-80.74-.68-6.47-3-28a24.49,24.49,0,0,1,21.81-26.91l138-14.53a23.9,23.9,0,0,1,26.26,21.24A28.85,28.85,0,0,0,810,1013.53l71.44-7.52,49.48-5.22a27.32,27.32,0,0,0,24.33-30,25.37,25.37,0,0,1,22.6-27.88l137.07-14.43A25.41,25.41,0,0,1,1142.86,951l2.86,27.16Z"/><path class="cls-19" d="M1146.4,984.65l-2.27,83.08-528,56.6-1.12-1-19.14-80.74-.68-6.47-3-28a24.49,24.49,0,0,1,21.81-26.91l138-14.53a23.9,23.9,0,0,1,26.26,21.24A28.85,28.85,0,0,0,810,1013.53l71.44-7.52,49.48-5.22a27.32,27.32,0,0,0,24.33-30,25.37,25.37,0,0,1,22.6-27.88l137.07-14.43A25.41,25.41,0,0,1,1142.86,951l2.86,27.16Z"/><path class="cls-9" d="M939,878.62s-54.95,25.59-69.76,51.26c-8,13.88,43.56,74.3,43.56,74.3s-2.48-9.11,10.76-12.44c0,0-23-53.11-19-56.86,7-6.61,82.17-34.82,82.17-34.82Z"/><path class="cls-9" d="M923.59,991.74s13.82,3,18.17,7.12,3.61,14.4-.27,14.58c-4.35.21-7.53-6.54-13.94-6.18s-16.42.75-16-7.76S923.59,991.74,923.59,991.74Z"/><path class="cls-9" d="M918.1,992.32s12.49-1.31,16-1.82-.93,4.92-9.13,5.55C921.64,996.3,918.1,992.32,918.1,992.32Z"/><path class="cls-15" d="M1021,845.72s-18.17-.66-48.78,11.81c-19.36,7.89-46.68,28-46.68,28s-7.44,28.3,13.92,39.84l65.21-14.91Z"/><path class="cls-13" d="M653.92,1290.94l-.13-7.87c1.15,0,115.67-2.59,175.71-68,27.93-30.45,40-70,35.78-117.5l7.9-1.2c.08.37,9.14,38.33,46.23,73.37,21.76,20.56,48.79,36.14,80.36,46.31,39.63,12.76,86.57,17,139.5,12.56l.68,7.85c-54.16,4.53-102.27.14-143-13-32.75-10.59-60.83-26.86-83.44-48.34A184,184,0,0,1,874,1121.22c-1.11,39.11-14,72.37-38.6,99.12-18,19.66-52.56,46.22-114.55,61.15C684,1290.38,655.13,1290.92,653.92,1290.94Z"/><path class="cls-13" d="M751.21,1268.41s-2,21.63-18.41,34.19,23.62,19.31,29.91,11.43S759.17,1281.86,751.21,1268.41Z"/><path class="cls-13" d="M845,1200.91s-2,21.63-18.42,34.19,23.63,19.31,29.92,11.43S853,1214.35,845,1200.91Z"/><path class="cls-13" d="M941.69,1192.1s-2,21.63-18.42,34.19,23.63,19.31,29.92,11.43S949.64,1205.54,941.69,1192.1Z"/><path class="cls-13" d="M1044.54,1228s-2,21.63-18.42,34.19,23.63,19.31,29.92,11.43S1052.49,1241.44,1044.54,1228Z"/><path class="cls-19" d="M864.29,1387.57l-55.53,6.13a11.79,11.79,0,0,1-13.09-10.27l-1.87-16.36a11.69,11.69,0,0,1,10.45-12.87l55.53-6.13a11.79,11.79,0,0,1,13.09,10.27l1.87,16.36A11.69,11.69,0,0,1,864.29,1387.57Z"/><path class="cls-19" d="M1020.52,1370.33,965,1376.46a11.81,11.81,0,0,1-13.09-10.28L950,1349.82A11.69,11.69,0,0,1,960.48,1337l55.53-6.13a11.79,11.79,0,0,1,13.09,10.27l1.87,16.36A11.7,11.7,0,0,1,1020.52,1370.33Z"/></g></g></svg>