<svg xmlns="http://www.w3.org/2000/svg" xmlns:xlink="http://www.w3.org/1999/xlink" viewBox="0 0 2670 1408.98"><defs><style>.cls-1{fill:none;}.cls-2{fill:#f7e9f1;}.cls-3{fill:#529887;}.cls-4{fill:#89c3ba;}.cls-10,.cls-5{fill:#a0609b;}.cls-6{fill:#d7b4d1;}.cls-25,.cls-7{fill:#fff;}.cls-8{fill:#ca6d2e;}.cls-9{fill:#e5a55e;}.cls-10,.cls-25{opacity:0.4;}.cls-11{fill:#eaf2fc;}.cls-12{fill:#562750;}.cls-13{fill:#80457c;}.cls-14{fill:#f3b484;}.cls-15{fill:#562850;}.cls-16{fill:#ead3e5;}.cls-17{clip-path:url(#clip-path);}.cls-18{fill:#d99b6c;}.cls-19{fill:#f2cc56;}.cls-20{fill:#1d355d;}.cls-21{fill:#cb8f65;}.cls-22{fill:#ea9e4b;}.cls-23{fill:#e8f0fb;}.cls-24{fill:#b85b4d;}</style><clipPath id="clip-path"><polygon class="cls-1" points="926.42 260.89 772.8 260.89 820.89 67.9 974.52 67.9 926.42 260.89"/></clipPath></defs><g id="Layer_2" data-name="Layer 2"><g id="_лой_1" data-name="‘лой_1"><path class="cls-2" d="M415.3,1402.59s-291,53.44-383.6-148.72C-88.47,991.59,158.42,792.72,347.77,829.77,760.37,910.51,661,19.82,1323.19,201.6c186.2,51.11,689.27-252.53,829.58,234.33,33.36,115.77,151.57,128.52,323.17,202,335.83,143.76,182.28,767.1-57.69,769.54S415.3,1402.59,415.3,1402.59Z"/><rect class="cls-3" x="1858.29" y="767.48" width="171.37" height="638.59" transform="translate(3887.95 2173.56) rotate(180)"/><rect class="cls-4" x="1778.27" y="767.48" width="125.92" height="638.59" transform="translate(3682.47 2173.56) rotate(180)"/><circle class="cls-3" cx="1843.35" cy="1338.42" r="28.11"/><rect class="cls-5" x="2109.67" y="767.48" width="171.37" height="638.59" transform="translate(4390.72 2173.56) rotate(180)"/><rect class="cls-6" x="2029.66" y="767.48" width="125.92" height="638.59" transform="translate(4185.24 2173.56) rotate(180)"/><circle class="cls-5" cx="2094.74" cy="1338.42" r="28.11"/><rect class="cls-7" x="2066.63" y="832.47" width="56.22" height="335.18"/><rect class="cls-8" x="2358.11" y="767.48" width="171.37" height="638.59" transform="translate(4887.6 2173.56) rotate(180)"/><rect class="cls-9" x="2278.1" y="767.48" width="125.92" height="638.59" transform="translate(4682.12 2173.56) rotate(180)"/><circle class="cls-8" cx="2343.18" cy="1338.42" r="28.11"/><rect class="cls-7" x="2315.07" y="832.47" width="56.22" height="335.18"/><rect class="cls-7" x="1813.13" y="836.76" width="56.22" height="335.18"/><path class="cls-5" d="M1446.89,643.74l60.43,718.43s6.33,43.55-26.07,43.63c-53.26.13-265.1,0-265.1,0s40.09-9.07,39.6-29.46c-.57-24-70.62-739.4-70.62-739.4Z"/><path class="cls-6" d="M1199,1392.76c10.48,0,212.81.67,264.68,0,22.61-.28,26.57-20.09,26.76-32.92a64.34,64.34,0,0,0-.69-10.69l-1.57-18.68-4-47.59-3.53-42.05-4.55-54-3.83-45.61L1429.29,630.7l-261.76-6.79s29.5,299.37,50.37,517.28c2.33,24.28,4.54,47.56,6.59,69.3.67,6.93,1.3,13.72,1.93,20.32,1.93,20.62,3.7,39.55,5.24,56.27.81,8.81,1.56,17,2.24,24.5,2.66,29.39,4.22,48.16,4.24,51.72a30.53,30.53,0,0,1-.51,5.82C1233.33,1392,1202.9,1392.76,1199,1392.76Z"/><polygon class="cls-6" points="825.87 252.8 2082.6 252.8 1935.42 843.98 1915.27 924.94 1846.73 1200.3 573.22 1200.3 825.87 252.8"/><polygon class="cls-5" points="2082.6 252.8 2103 259.6 1873.84 1220.86 1846.72 1200.3 2082.6 252.8"/><polygon class="cls-5" points="1873.84 1220.86 608.17 1220.86 573.22 1200.3 1846.72 1200.3 1873.84 1220.86"/><rect class="cls-6" x="1155.34" y="1393.05" width="274.04" height="13.02"/><polygon class="cls-5" points="1225 1220.86 1226.42 1230.81 1484.13 1282.88 1480.6 1240.83 1478.91 1220.86 1225 1220.86"/><path class="cls-5" d="M1199,1392.76c10.48,0,212.81.67,264.68,0,22.61-.28,26.57-20.09,26.76-32.92l-256.5-48.26c2.66,29.39,4.22,48.16,4.24,51.72a30.53,30.53,0,0,1-.51,5.82C1233.33,1392,1202.9,1392.76,1199,1392.76Z"/><polygon class="cls-10" points="1303.84 1014.16 1846.72 1200.3 1893.09 1014.05 1303.84 1014.16"/><polygon class="cls-6" points="825.87 252.8 2082.6 252.8 1893.2 1014.05 621.97 1014.29 825.87 252.8"/><path class="cls-5" d="M1176.21,1110.55c3.63-18.68,21.71-33.81,40.39-33.81s30.87,15.13,27.24,33.81-21.71,33.81-40.39,33.81S1172.58,1129.22,1176.21,1110.55Z"/><polygon class="cls-2" points="681.24 981.29 1857.92 981.29 1991.18 450.44 2001.39 409.73 2010.11 375 2030.55 293.58 870.82 293.58 848.38 375 838.81 409.73 827.59 450.44 681.24 981.29"/><polygon class="cls-4" points="870.82 293.58 2030.55 293.58 2010.11 375 848.38 375 870.82 293.58"/><path class="cls-11" d="M1974.93,320.2c5.62,0,9,4.56,7.64,10.18s-7.1,10.18-12.72,10.18-9-4.56-7.64-10.18S1969.31,320.2,1974.93,320.2Z"/><path class="cls-11" d="M1941.11,320.2c5.62,0,9,4.56,7.64,10.18s-7.09,10.18-12.72,10.18-9-4.56-7.64-10.18S1935.49,320.2,1941.11,320.2Z"/><path class="cls-11" d="M1892,330.38c1.4-5.62,7.09-10.18,12.71-10.18s9,4.56,7.65,10.18-7.1,10.18-12.72,10.18S1890.58,336,1892,330.38Z"/><path class="cls-12" d="M256.45,1332.88s-15,13.88-12,23.75,16.44,16.44,18.26,28.49,9.14,18.63,15.71,18.63h31.35s4.84-8.48-6.85-11-16.1-16.72-15.37-29.87-1.09-30.69-1.09-30.69l-24.84-5.85Z"/><path class="cls-12" d="M528,1403.73H444.76a6.89,6.89,0,0,1-1.62-.49c-5.55-2.77-3.82-24-3.15-30.58.13-1.22.22-1.93.22-1.93s29.23-23.38,33.25-5.48c.12.56.27,1.11.43,1.65,5.06,16.75,27.75,24.36,40.85,26.48C524.73,1395,527.33,1400.81,528,1403.73Z"/><path class="cls-5" d="M511.26,924.44s-4.44,55.38-9.65,122c-7.09,90.43-15.62,201.51-16.46,222.55-1.46,36.54-7.31,95-7.31,95s-13.88,13.89-41.65,8c0,0-24.75-83.44-31.82-171.72l-.33-4.36c-6.57-89.88-16.8-279.12-16.8-279.12Z"/><path class="cls-13" d="M511.26,924.44s-4.44,55.38-9.65,122l-97.24,153.86-.33-4.36c-6.57-89.88-16.8-279.12-16.8-279.12Z"/><path class="cls-5" d="M491,931s-80,200.56-132.61,294.82-69.05,120.56-69.05,120.56-30.14-12.06-32.88-20.28c0,0,20.12-182,55.35-226.32,19.91-25.06,43.29-100.28,44.39-126.59s7.12-78.36,7.12-78.36Z"/><path class="cls-14" d="M571.9,875.65l4.58,9.11s23.25,3.25,16.85,27.5c0,0-3.45,10-9.86,6.81s-3.26-2.89-12.45-7.13-14.51-12.41-12.45-19.9l-1.47-7.93Z"/><path class="cls-14" d="M450,621.43c3.56-21,3.67-33.46,3.67-33.46L413,555.26c1.51,45-27.32,66.61-27.32,66.61s54.1,26.63,85.37,16.77A74.86,74.86,0,0,0,450,621.43Z"/><path class="cls-14" d="M463.19,587.23s-51.64,8.58-56.49-23.66-14.78-52.85,18-59.69,41,4.5,45.27,14.86S476.5,584.17,463.19,587.23Z"/><path class="cls-15" d="M407,565.79s1-43.19,48.09-50.12c32.23-4.74,12.72-31.68,9-35.94,0,0-24.64,4.7-49.85,10.23C361.38,501.58,401.44,559.37,407,565.79Z"/><path class="cls-3" d="M566.48,888.32a87.87,87.87,0,0,0,12-16.31s-58.67-72.89-63.44-80.45-40.41-128.82-40.41-128.82l-90.11-18.26s75.22,155.19,87.68,174.1c20.59,31.26,82.19,77.79,82.19,77.79A37.1,37.1,0,0,0,566.48,888.32Z"/><path class="cls-4" d="M514.71,929.06a5.05,5.05,0,0,1-3.28,1.25c-11.74-.16-46,6.36-74.95,3.38-24.42-2.34-46-9.57-69.25-20-3.08-1.38-10.18-5.17-10-8.61.11-3.78.48-9.25,1-16.14,1.65-24,4.51-65.17,1.72-112.71-.5-8.86-.77-17.64-.8-26.28-.24-64.44,12.32-121.44,38-140.62,2.2-1.57,15.88,5.33,28.25,11.43,11.43,5.64,19.42,5.51,30.22,3.32l14.24,10.3c13.15,12.21,27.55,28.81,33.81,54,5.33,21.44,8.46,60.12,10.18,100.2.78,18.16,1.41,36.48,1.57,53.86v.62c.15,1.72.15,3.6.15,5.33C516.13,893,515.49,928.43,514.71,929.06Z"/><path class="cls-3" d="M358.16,889c1.65-24,4.51-65.17,1.72-112.71-.5-8.86-.77-17.64-.8-26.28,10.7-26,19.44-44.77,19.44-44.77h27S425.24,840.2,358.16,889Z"/><path class="cls-14" d="M305.71,897.35l-5.11,8.82s10,21.24-13.76,29.17c0,0-10.24,2.58-11.11-4.51s.63-4.31-.85-14.32,2.42-18.94,9.81-21.32l5.83-5.58Z"/><path class="cls-4" d="M292.15,899.76a88,88,0,0,0,20.23,1.13s28.82-89,32.53-97.16,85.6-104.4,85.6-104.4L396.4,614s-88.58,148-97.58,168.76c-14.86,34.35-20,111.38-20,111.38A37,37,0,0,0,292.15,899.76Z"/><polygon class="cls-16" points="1326.25 861.32 776.92 861.32 964.71 101.58 1514.04 101.58 1326.25 861.32"/><polygon class="cls-16" points="1244.2 813.92 694.87 813.92 882.66 54.17 1431.99 54.17 1244.2 813.92"/><polygon class="cls-16" points="1155.29 759.75 605.96 759.75 793.75 0 1343.08 0 1155.29 759.75"/><polygon class="cls-5" points="1420.8 101.58 1247 809.38 790.31 813.92 1260.79 824.27 1420.8 101.58"/><polygon class="cls-5" points="1329.56 54.17 1164.44 755.2 707.75 759.75 1172.19 771.22 1329.56 54.17"/><polygon class="cls-6" points="926.42 263.29 772.8 263.29 820.89 70.3 974.52 70.3 926.42 263.29"/><polygon class="cls-6" points="1277.15 96.97 1001.9 96.97 1008.67 70.3 1283.92 70.3 1277.15 96.97"/><polygon class="cls-6" points="1264.74 151.71 989.48 151.71 996.25 125.04 1271.51 125.04 1264.74 151.71"/><polygon class="cls-1" points="1251.76 206.44 976.5 206.44 983.28 179.78 1258.53 179.78 1251.76 206.44"/><polygon class="cls-6" points="1236.52 261.18 961.27 261.18 968.04 234.52 1243.29 234.52 1236.52 261.18"/><polygon class="cls-6" points="1236.52 318.18 732.64 318.18 739.42 291.52 1243.29 291.52 1236.52 318.18"/><polygon class="cls-6" points="1223.07 375.18 719.19 375.18 725.97 348.51 1229.84 348.51 1223.07 375.18"/><polygon class="cls-6" points="1204.45 439.36 700.57 439.36 707.34 412.7 1211.22 412.7 1204.45 439.36"/><polygon class="cls-6" points="1187.52 494.78 683.64 494.78 690.41 468.12 1194.29 468.12 1187.52 494.78"/><g class="cls-17"><path class="cls-18" d="M939.84,280.09s9-4.11,12.52-2.85,13.06,5.37,12.85,9.5-15.53,8.7-25.75,3.7S939.84,280.09,939.84,280.09Z"/><path class="cls-19" d="M942.51,291.4a6.37,6.37,0,0,1-.64,1.43c-3,4.88-53,5.13-58.67,1-2.55-1.83-3.33-27.1-3.41-54.47-.1-33.84.87-70.91.87-70.91s19.53,9.06,20.49,20.22-7.27,78.24-1.56,82.33,32,4.64,40.81,7.21C940.4,278.24,944.13,286.27,942.51,291.4Z"/><path class="cls-20" d="M892,91.53c-3.42-3.56-9-3.89-12.6-4.14a6.07,6.07,0,0,1,2.89-.94c-2.16-.62-7.38.94-7.38.94s-17.45-12-29.28,11.42c0,0,1.73-1.66,4-3.49-6.83,13.46-4.55,35.47,10.72,41.32C870.31,140.43,927,128,892,91.53Z"/><path class="cls-18" d="M881.42,174.07c.09.06-10.56,4-17.8.92-6.82-2.84-10.24-12.6-10.14-12.61,3.06-.2,4.46-4.2,6.69-21.87l1.31.44,22.15,7.45s-1.44,7.09-2.33,13.83C880.55,167.88,880.2,173.3,881.42,174.07Z"/><path class="cls-21" d="M883.63,148.4s-1.44,7.09-2.33,13.83c-12.68-2-17.9-14.49-19.82-21.28Z"/><path class="cls-20" d="M859.46,138.17s-5.31-11.4-5.74-20.61c-.31-6.58,6.06-30,29.57-23.45A32.66,32.66,0,0,1,896.12,101c4.75,4.18,11.27,12.74.18,32.45l-3.09,6.75Z"/><path class="cls-18" d="M887.05,155.33s-30.16-3.4-27.75-22.15.14-31.83,19.5-30.44,22.18,9,22.9,15.47S895,155.74,887.05,155.33Z"/><path class="cls-22" d="M889,197.8c-.25-2.2,4.46-3.23,5.32-1.18,1.6,3.83,1.43,8.38,1.79,12.07,1,10.53-3.14,24.22-3.14,24.22Z"/><path class="cls-20" d="M902.15,107.67c-3.91-6.24-7.58-5.47-9.78-4-5.24-10.56-27.62.83-27.62.83a36.13,36.13,0,0,1-14.46,19.64s5.05,4.1,18.12,2.49c10.28-1.27,19.34-14.5,22.74-20.08,1.58,1.82,4.88,6,5.55,9.73.88,5,.28,14.89,3.19,14.93C899.89,131.18,908,117,902.15,107.67Z"/><path class="cls-7" d="M881.84,143.1s.25,2.45,6.22,2.86c0,0,5,.33,5.2-2.3C893.26,143.66,888.68,141.17,881.84,143.1Z"/><path class="cls-22" d="M942.51,291.4a6.37,6.37,0,0,1-.64,1.43c-3,4.88-53,5.13-58.67,1-2.55-1.83-3.38-33.23,3.65-60.31,1.67,16.23-1.39,48.66,7.11,51.31C903.59,287.86,929.87,287.92,942.51,291.4Z"/><path class="cls-19" d="M894.69,234.41C874.87,291.64,883.9,302,876.82,307c0,0-6,1.71-6,1.74-7.35,4.87-6.61-2.09-28.54,4.22-10.45,3-23.87,7-35.38,9A68.94,68.94,0,0,1,795,323c-6.78-.08-11.6-1.89-12.64-6.6-3-13.71,24.14-45.56,21.55-70l-.06-.63a26,26,0,0,1,.65-7.11c2.77-13.11,13.63-31.27,24.42-46.58,11.92-16.88,23.75-30.3,24.57-29.66,23.29,18.25,27.19,6.1,27.19,6.1S901.45,214.89,894.69,234.41Z"/><path class="cls-22" d="M872.94,308.13h0c-7.34,4.87-8.72-1.53-30.65,4.78-10.45,3-23.87,7-35.38,9-5.78.25-10.11.57-11.93,1.1-6.78-.08-11.6-1.89-12.64-6.6-3-13.71,24.14-45.56,21.55-70l-.06-.63a22.15,22.15,0,0,1,.65-7.11c2.49-9.91,11.31-19.86,21.75-34.68,4.84,6.65,47.83,5.24,30.29,62.47C851.14,284,872.13,293.87,872.94,308.13Z"/><path class="cls-18" d="M870.51,310.85s9.57-1,13.59,1.28,11.95,7.79,10.86,10.05-11.33,2.21-15.27-.7-7.47-.33-12.44-2.74S870.51,310.85,870.51,310.85Z"/><path class="cls-19" d="M853.48,162.38s-34.3-4-42.57,11.75-13.92,74-7.21,92.63,54.61,48.83,60.15,50.5,10.21-6.59,10.1-7.56-47.85-51.07-47-55.52S853.48,162.38,853.48,162.38Z"/></g><polygon class="cls-18" points="1999.02 1313.69 1986.78 1365.28 1968.43 1365.17 1967.76 1313.69 1999.02 1313.69"/><polygon class="cls-18" points="1844.7 1315.89 1809.85 1365.28 1796.27 1347.84 1817.24 1309.1 1844.7 1315.89"/><path class="cls-15" d="M1935.31,635.8c6.33-3.6,13.92-4,19.23-3.68a9,9,0,0,0-4.06-1.92c3.29-.49,10.64,2.77,10.64,2.77,45.8-17.64,53,49.78,52,65.45s15.39,20.78,39.21,33.12c45.46,23.55,49.45,55.08,49.45,55.08q-.53.32-1.11.72c-2.26-3.82-6.9-11-10.82-12.08.15.35,4.63,9.88,6.3,15.34-13.41,10.2-38.5,32.81-56,48.83.08-3.13,0-7.58-1.19-9.92l-2.16,13c-9.36,8.6-15.81,14.66-15.81,14.66,1.15-12.66-57.25-79.47-87.72-99.47-7.42-10.92-10.06-30.21-10.26-31.73,1.28,15.29,3.9,23.87,6.24,28.71C1903.5,730.93,1918.52,645.34,1935.31,635.8Z"/><path class="cls-18" d="M1935.12,758.69c-.15.07,14.71,7.79,25.89,4.73,10.52-2.86,17.39-16.5,17.25-16.53-4.46-.89-5.74-7-5.65-33.31l-2,.4-33.86,6.7s.77,10.66.8,20.69C1937.56,749.8,1937.05,757.79,1935.12,758.69Z"/><path class="cls-21" d="M1936.74,720.68s.77,10.66.8,20.69c18.94-.53,29-17.82,33.06-27.39Z"/><path class="cls-15" d="M1974.1,710.29s9.93-15.69,12.31-29.1c1.7-9.58-3.18-45.08-38.85-40a48.45,48.45,0,0,0-20.1,7.6c-7.75,5.23-18.92,16.53-6.42,47.5l3.24,10.47Z"/><path class="cls-13" d="M1801.8,1334.3l17.94.55,19.43.6s44.87-50,70-130q.88-2.79,1.86-5.65c13.78-40.17,42.33-90.58,57.38-136.22,2.4-7.27,4.55-14.11,6.48-20.58.62-2.08,1.22-4.11,1.79-6.12C1987.81,998.3,1991,973,1994,946l-108.66.87S1867.77,1131.41,1801.8,1334.3Z"/><path class="cls-23" d="M1900.53,884.39c.27,51.71-7.59,73.9-7.59,73.9s46.53,23.64,101.83,6.24c.65-.21,41.59-8.42,41.59-8.42-.93-2.09-12.22-37.87-13.12-39.79-11.68-25.07-13.28-37.23-14.67-44.93-2.57-14.39-2.62-29.28-1.34-43.33a347.27,347.27,0,0,1,13.41-68c-15.07-3.43-29.18-9.45-44.86-15.33-3.61,4.49-14.64,9.19-24.2,9-11-.24-14.59-4.95-14-10.1-11.74,6.53-21.1,12.7-21.1,12.7-10,17.33-30.21,34.16-31.68,60.74C1884.42,823.55,1900.52,883,1900.53,884.39Z"/><path class="cls-19" d="M1837.44,807.57c16-18.63,57.28-59,99.93-64l-36.8,71.7s-2.07,12.28-13,19.44C1860.91,852.26,1827,860,1827,860s-23-10-54.4-33c-9.87-7.23-27.2-34.79-27.2-34.79l4.68-15.64S1779.46,793,1790,797.72c6,2.71,19.78,9.16,29.5,13.73A15.17,15.17,0,0,0,1837.44,807.57Z"/><path class="cls-18" d="M1930.42,730.18s44.82.74,44.85-27.18,5.84-46.63-22.78-48.28-34.19,9-36.47,18.31S1918.76,729.27,1930.42,730.18Z"/><path class="cls-15" d="M1932.08,654s12.27,32.76,31.1,37.6,27-.2,27-.2a53.35,53.35,0,0,1-17.45-31.51S1941.33,638.44,1932.08,654Z"/><path class="cls-15" d="M1935.12,656.69s-9.17,7.31-11.4,14.43-3.24,21.74-7.51,21.25c0,0-9.25-22.27,1.15-34.87C1928.38,644.15,1935.12,656.69,1935.12,656.69Z"/><path class="cls-18" d="M1750,776.53s-6.32-22.78-31.36-19.56c-2.87.9-11.27,4.25-5.9,13.24,4,6.62,5.67,3.2,11.89,12.11s13,10.91,20.69,9.85Z"/><path class="cls-18" d="M1987.39,1362.4a49.64,49.64,0,0,0,2.34,21.15s3,13.68-10.47,13.93-16.78-1-15.26-9.41,4.43-22.9,4.43-22.9Z"/><path class="cls-22" d="M1962.73,1403.32s.29.18.84.45H1990a6.25,6.25,0,0,0,.75-.45c1.52-6.86-1-19.78-1-19.78-15.26,14-24.81-.34-24.81-.34C1962.44,1389.17,1962.73,1403.32,1962.73,1403.32Z"/><path class="cls-18" d="M1763.8,1389.44s24.84-27.57,32.47-41.6l18.47,9.46-41.29,38.78-9.67-1.27Z"/><path class="cls-22" d="M1748.38,1403.77h34c3.27-2.44,6.33-8.11,10.13-15.71,2-4,6.58-6.29,11.25-7.51v23h7l6.68-24.41c4.39-8.09.35-15.42-2.75-21.8-3.6,0-13.28,2.46-31.63,23.14-6,6.79-12.7,9.21-19.31,9l-.27.15C1752.45,1394.56,1749.29,1400.75,1748.38,1403.77Z"/><path class="cls-19" d="M1937.56,743.57s-25.93,64.07-26.7,77-3,212-3,212,1.53,9.16-16,5.34-22.12-7.63-22.12-7.63,16.78-122.79,12.2-165.51S1917,752.47,1917,752.47Z"/><path class="cls-15" d="M1819.74,1334.85l19.43.6s44.87-50,70-130q.88-2.79,1.86-5.65c13.78-40.17,42.33-90.58,57.38-136.22,2.4-7.27,4.55-14.11,6.48-20.58.62-2.08,1.22-4.11,1.79-6.12l-16-12.14s-48,77.79-62.92,151C1884.88,1239.3,1833.14,1315.82,1819.74,1334.85Z"/><path class="cls-13" d="M1959.05,1182.52c-.28,35.6,1.52,117.46,6.16,151.35h17.21c9.51,0,14.25-.14,14.25-.14,11.64-58.92,19.91-107.68,25.94-149.69,4.94-34.47,9.33-64,12.71-89.47,3.4-25.61,5.77-47,6.61-65.16.13-2.85.23-5.63.29-8.32s.06-5.34,0-7.9l-93.89-9.15C1949.55,1066.42,1959.2,1161.83,1959.05,1182.52Z"/><path class="cls-15" d="M1982.42,1333.87c9.51,0,14.25-.14,14.25-.14,11.64-58.92,19.91-107.68,25.94-149.69,4.94-34.47,9.33-64,12.71-89.47,3.4-25.61,5.77-47,6.61-65.16l-34.45,20.26s22,7.76,13.6,66.49S1994.1,1325.55,1982.42,1333.87Z"/><path class="cls-19" d="M1978,1028.83s6.62,23.9,29.5,20.85,55.42-16.78,55.42-16.78-9.78-30.9-21.94-71.5C2026.24,912.26,2008,848.91,1999.43,809a247.6,247.6,0,0,1-4.67-27.24l-19-36.84s-28.3,63.53-29.83,79.55S1978,1028.83,1978,1028.83Z"/><path class="cls-22" d="M1979,858c1,25.93,7.12,76.27,61.53,103.22l.43.2C2026.24,912.26,2008,848.91,1999.43,809,1989.44,823.88,1978.44,843.7,1979,858Z"/><rect class="cls-15" x="1686.44" y="641.02" width="24.27" height="96.5" transform="translate(10.11 1402.96) rotate(-45)"/><rect class="cls-24" x="1874.42" y="633.23" width="68.78" height="532.53" rx="30.16" transform="translate(-76.97 1613.18) rotate(-45)"/><path class="cls-24" d="M1260.37,251.07c-111.45,111.44-111.45,292.14,0,403.59s292.14,111.44,403.59,0,111.45-292.15,0-403.59S1371.82,139.62,1260.37,251.07Zm381.36,381.36c-99.17,99.17-260,99.17-359.13,0s-99.17-260,0-359.13,260-99.18,359.13,0S1740.9,533.25,1641.73,632.43Z"/><path class="cls-18" d="M2000.83,822l-25-77.16c.07,0,31.64,9.4,47.53,17.42,0,0,9.92,12.8,16.07,42.33,0,0,6.49,70.9-8,96.83,0,0-45.77,9.16-119-16V868.66s80.09,4.19,96.49,6.1Z"/><path class="cls-19" d="M1975.78,744.87s46.44,3.28,57.63,28.19,14.75,107.8.51,132.21c0,0-19.6,5.58-54.27-.9l-1.28-.25s-11.06-27.07-1.15-32.41c0,0,29.24,1.52,26.19-8.14S1975.78,744.87,1975.78,744.87Z"/><path class="cls-18" d="M1920.6,873.12s-6.38-7.73-7.74-15.63-5.58-13.75-16.6-15.19-15.74-1.61-15.71,1.5,9,24.77,24.8,37.72S1920.6,873.12,1920.6,873.12Z"/><path class="cls-25" d="M1574.62,223.35l-340.1,340.1a254.93,254.93,0,0,0,19,32.22l353.33-353.33A253.68,253.68,0,0,0,1574.62,223.35Z"/><path class="cls-25" d="M1551.29,213.26a253.34,253.34,0,0,0-89-16c-140.25,0-253.94,113.7-253.94,254a253.56,253.56,0,0,0,16,89Z"/><path class="cls-25" d="M1349.85,678.88a252.87,252.87,0,0,0,112.48,26.23c140.25,0,254-113.69,254-253.94a252.91,252.91,0,0,0-26.23-112.49Z"/><path class="cls-12" d="M46.3,1408.37H2623.7a2.3,2.3,0,0,0,2.3-2.3h0a2.31,2.31,0,0,0-2.3-2.3H46.3a2.31,2.31,0,0,0-2.3,2.3h0A2.3,2.3,0,0,0,46.3,1408.37Z"/></g></g></svg>