<svg xmlns="http://www.w3.org/2000/svg" viewBox="0 0 1750.4 1654.47"><defs><style>.cls-1{isolation:isolate;}.cls-2{fill:#efd4f0;}.cls-3{fill:#414647;mix-blend-mode:screen;}.cls-4{fill:#f3b484;}.cls-5{fill:#9d4b41;}.cls-6{fill:#e19967;}.cls-7{fill:#7f457c;}.cls-8{fill:#f8e8f3;}.cls-9{fill:#562850;}.cls-10{fill:#439782;}.cls-11{fill:#2c6a6c;}.cls-12{fill:#e19a69;}.cls-13{fill:#d4af92;}.cls-14{fill:#e9cbae;}.cls-15{fill:#ebf2f8;}.cls-16{fill:#b6c0cd;}.cls-17{fill:#f2cc56;}</style></defs><g class="cls-1"><g id="Layer_2" data-name="Layer 2"><g id="_лой_1" data-name="‘лой_1"><path class="cls-2" d="M113.14,1650.22S-109,1043.44,75.11,648.43C614.83-509.26,1702.68,74.74,1576.43,912.76c-54.76,363.51,184.23,375.78,59.51,738.23Z"/><path class="cls-3" d="M275.69,321.58c-72.13,88.3-139.83,196.54-200.58,326.85C47.27,708.13,28.74,772.67,17.3,839.21l1484.81-427a781.92,781.92,0,0,0-130.9-189.3Z"/><path class="cls-3" d="M2.52,1064.51,1583,858a882.46,882.46,0,0,0,3.33-98.25,756,756,0,0,0-7.31-80.9L2.37,1057.87Z"/><path class="cls-4" d="M831.11,1624.22l0-9.6s-44.41-49.29-58-74.37L735.55,1471l-49.08,12.14,62.3,88.29Z"/><path class="cls-5" d="M557.17,353.73c8.58-35.27-3.85-51.69-15.07-60.44-5.32-13-11.39-22.34-17.6-25.87-11.32-6.43-24.89-7.14-34.38-6.57,2.45-2.53,7.25-3.45,7.25-3.45-5.88-.87-19,5-19,5-81.85-31.55-94.72,89-93,117s1.48,61-41.11,83c-81.26,42.09,27,200.73,27,200.73-2.07-22.63,102.34-142,156.81-177.81,13.26-19.52,18-54,18.33-56.72-2.29,27.34-7,42.68-11.15,51.32C560.07,457.07,563.74,402.2,557.17,353.73Z"/><path class="cls-4" d="M524.84,487.1c.27.12-26.3,13.92-46.29,8.46-18.8-5.13-31.09-29.51-30.83-29.57,8-1.58,10.26-12.52,10.09-59.54l3.6.71,60.52,12s-1.37,19-1.42,37C520.47,471.2,521.39,485.49,524.84,487.1Z"/><path class="cls-6" d="M521.93,419.15s-1.37,19-1.42,37c-33.86-1-51.77-31.85-59.1-49Z"/><path class="cls-7" d="M763.16,1516.05l-32.08,1-34.73,1.07s-80.21-89.31-125.2-232.47q-1.57-5-3.33-10.1c-24.62-71.8-75.67-161.93-102.57-243.5-4.28-13-8.13-25.23-11.58-36.8-1.1-3.71-2.18-7.35-3.2-10.94-19.82-68.88-25.56-114.1-30.85-162.42l194.25,1.55S645.23,1153.38,763.16,1516.05Z"/><path class="cls-8" d="M586.67,711.8c-.49,92.44,13.56,132.1,13.56,132.1s-83.17,42.25-182,11.15c-1.16-.37-63.6-17.07-63.6-17.07,1.65-3.74,16.36-66,18-69.47,20.88-44.81,18.48-66.18,20.95-80,4.6-25.72,4.7-52.34,2.41-77.44a621.46,621.46,0,0,0-24-121.62c26.93-6.13,52.15-16.89,80.19-27.41,6.45,8,26.16,16.43,43.26,16.05,19.69-.44,26.07-8.86,25.05-18.07,21,11.68,37.73,22.71,37.73,22.71,17.83,31,54,61.06,56.62,108.58C615.46,603,586.69,709.21,586.67,711.8Z"/><path class="cls-4" d="M533.24,436.14s-80.13,1.32-80.18-48.59-10.44-83.36,40.72-86.32S554.9,317.31,559,334,554.09,434.51,533.24,436.14Z"/><path class="cls-5" d="M530.28,300s-21.94,58.56-55.61,67.22-48.28-.37-48.28-.37,5.28-30.12,10.63-65.93C437,300.93,513.73,272.14,530.28,300Z"/><path class="cls-5" d="M524.84,304.76s16.38,13.08,20.38,25.79,5.79,38.87,13.42,38c0,0,16.53-39.8-2-62.32C536.89,282.34,524.84,304.76,524.84,304.76Z"/><path class="cls-4" d="M473.21,1612.18c-2.73-15-7.92-40.94-7.92-40.94l1.21-92H410.6l20.92,88.09a89.68,89.68,0,0,1-4.3,36.78s-5.37,24.46,18.72,24.91S475.93,1627.17,473.21,1612.18Z"/><path class="cls-9" d="M427.22,1604.08s-4.54,29.25-1.81,41.52c0,0,7.11.48,24.61.48,16.59,0,25.46-.48,25.46-.48s.51-31.46-3.92-42.15C471.56,1603.45,454.49,1629.08,427.22,1604.08Z"/><polygon class="cls-4" points="659.33 775.96 697.17 891.35 675.59 900.01 613.01 798.06 659.33 775.96"/><path class="cls-9" d="M859.67,1645.6s-48.36.92-56.54,0-14.5-15.72-23.36-33.44c-3.63-7.26-11.77-11.25-20.11-13.45l.39,46.89H747.78l-12.66-49.46c-7.87-14.46-1.9-27.49,3.64-38.9,6.43,0,25,4.32,57.82,41.28,10.79,12.14,22.69,16.47,34.51,16.1a2.33,2.33,0,0,0,.49.26C858.85,1627.15,859.67,1645.6,859.67,1645.6Z"/><path class="cls-7" d="M668.73,787.18s-5.85-15-13.64-34.07S627.74,548.9,614.83,521.29,557.29,476,557.29,476l-36.82-15.91s46.36,114.53,47.72,137.71,5.46,379,5.46,379-2.73,16.36,28.63,9.55,39.54-13.64,39.54-13.64-11.39-83.34-18.21-165.18C646.23,806.14,668.73,787.18,668.73,787.18Z"/><path class="cls-9" d="M731.08,1517l-34.73,1.07s-80.21-89.31-125.2-232.47q-1.57-5-3.33-10.1c-24.62-71.8-75.67-161.93-102.57-243.5-4.28-13-8.13-25.23-11.58-36.8-1.1-3.71-2.18-7.35-3.2-10.94l28.61-21.7S565,1101.66,591.55,1232.54C614.64,1346.22,707.14,1483,731.08,1517Z"/><path class="cls-7" d="M482.06,1244.73c.49,63.64-2.73,210-11,270.54H440.29c-17,0-25.49-.24-25.49-.24-20.79-105.33-35.58-192.48-46.35-267.58-8.84-61.63-16.69-114.46-22.73-159.94-6.08-45.77-10.31-84.1-11.82-116.48q-.36-7.65-.51-14.88T333.31,942l167.84-16.36C499,1037.19,481.79,1207.73,482.06,1244.73Z"/><path class="cls-9" d="M440.29,1515.27c-17,0-25.49-.24-25.49-.24-20.79-105.33-35.58-192.48-46.35-267.58-8.84-61.63-16.69-114.46-22.73-159.94-6.08-45.77-10.31-84.1-11.82-116.48l61.58,36.22s-39.31,13.87-24.31,118.86S419.41,1500.41,440.29,1515.27Z"/><path class="cls-7" d="M448.21,970s-11.82,42.72-52.72,37.27-99.07-30-99.07-30S313.9,922,335.63,849.47c26.32-87.85,58.89-201.1,74.24-272.53,4.31-20,7.25-36.73,8.35-48.7l33.93-65.84S502.75,576,505.48,604.59,448.21,970,448.21,970Z"/><path class="cls-4" d="M407.37,600.32,452.16,462.4c-.12.05-56.57,16.79-85,31.14,0,0-17.75,22.88-28.73,75.67,0,0-11.61,126.73,14.3,173.09,0,0,81.81,16.36,212.7-28.63v-30S422.31,691.17,393,694.58Z"/><path class="cls-9" d="M446.4,664.58c-1.83,46.36-12.74,136.35-110,184.52-.26.12-.52.26-.78.37,26.32-87.85,58.89-201.1,74.24-272.53C427.73,603.64,447.39,639.06,446.4,664.58Z"/><path class="cls-7" d="M452.16,462.4s-83,5.84-103,50.38-26.36,192.7-.9,236.34c0,0,35,10,97-1.61l2.29-.44s19.77-48.4,2-58c0,0-52.26,2.73-46.81-14.54S452.16,462.4,452.16,462.4Z"/><path class="cls-10" d="M660.32,702.2l-2.45,7.86L521.64,667.68a5.22,5.22,0,0,1-.92-4.82c1-3,3.36-3,3.36-3Z"/><polygon class="cls-10" points="670.17 709.63 660.32 702.2 657.87 710.06 670.17 709.63"/><path class="cls-4" d="M691.8,888.19s34.56,19.1,39.1,33.66,1.43,45-4.06,44.56-13.67-32.74-18.22-35-10.91-9.1-10.91-4.1,4.55,14.1,2.27,15.46S690.43,930,685.43,927.3s-7.1-25.21-12-31.25S691.8,888.19,691.8,888.19Z"/><path class="cls-4" d="M565.47,683.67s30.9-19,43.87-16.11,46,26.86,30.12,32.05-28.77-.26-34.88,3.5S594,713.76,565.47,713.67,565.47,683.67,565.47,683.67Z"/><path class="cls-4" d="M875.36,681.69s-36.44-6.53-43.47-12-2.49-8.32-.27-17.61c4.32-18.1,1.57-8.39,8.91-9.19s1.65-5.42,1.62-9.09-1.6-7.51,5-6.83,22.49,21.69,35.79,29.67S875.36,681.69,875.36,681.69Z"/><path class="cls-7" d="M1218.12,469.92S1257,633.57,1112,760.12c-45.26,39.51-242.65-76.88-242.65-76.88s.43-19.53,19.11-27.7c0,0,155.51,23.58,173.94,25.15,16.36,1.39,49.46-132,89.6-176.59C1183,469.59,1218.12,469.92,1218.12,469.92Z"/><path class="cls-9" d="M1498.87,1538.83s22.93,20.92,18.45,35.79-25.15,24.77-28,42.94-14,28.07-24,28.07h-48s-7.41-12.78,10.48-16.63,24.64-25.21,23.52-45,1.68-46.25,1.68-46.25l38-8.8Z"/><path class="cls-9" d="M1218.54,1593.39s4.12,47.61-6,52.56l-128,.13s-.8-15.26,19.89-18.56,57-15.42,63.18-42.39S1218.54,1593.39,1218.54,1593.39Z"/><path class="cls-10" d="M1108.92,920s6.79,83.45,14.77,183.77c10.86,136.27,23.9,303.65,25.2,335.36,2.23,55.06,11.18,143.14,11.18,143.14s21.24,20.93,63.74,12.11c0,0,37.87-125.74,48.69-258.77q.26-3.27.5-6.57c10.07-135.43,25.72-420.6,25.72-420.6Z"/><path class="cls-11" d="M1108.92,920s6.79,83.45,14.77,183.77l148.81,231.84q.26-3.27.5-6.57c10.07-135.43,25.72-420.6,25.72-420.6Z"/><path class="cls-10" d="M1139.94,929.89s122.44,302.23,203,444.27,105.67,181.67,105.67,181.67,46.12-18.17,50.31-30.56c0,0-30.78-274.2-84.7-341-30.46-37.77-66.25-151.12-67.93-190.75s-10.9-118.09-10.9-118.09Z"/><path class="cls-4" d="M1301,464.13s-82.84,40-130.6,25.14a112.7,112.7,0,0,1,32.33-25.86c-1.65-9.59-2.94-17.91-3.68-25a230.69,230.69,0,0,1-2-25.51l32-25.14,30.31-24.05C1257,431.39,1301,464.13,1301,464.13Z"/><path class="cls-7" d="M1103.69,926.87a7.46,7.46,0,0,0,5,2c18-.37,70.35,9.57,114.6,5,37.48-3.61,70.54-14.46,106-30,4.78-2.17,15.63-8,15.43-13-.19-5.79-.73-13.92-1.46-24.43-1.49-20.66-3.58-50-4.24-84.79-1.25-65.28,2.75-80.24,2.75-124.66.34-61.63-8.92-175-58.4-211.26-3.31-2.54-23.89,7.41-43,16.64-17.46,8.51-34.9,9.41-51.43,6.16L1172.4,483c-20,18.26-42.09,43.4-51.82,81.4-8.07,32.2-12.85,90.43-15.43,150.85-2.23,48.28-2.76,89.26-2.76,90.26C1101.49,872.61,1102.39,926,1103.69,926.87Z"/><path class="cls-12" d="M1259.89,389.61s-20.94,38.16-60.81,48.84a230.69,230.69,0,0,1-2-25.51l32-25.14Z"/><path class="cls-4" d="M1182.49,411.84s79,12.93,86.45-35.66,22.62-79.64-27.53-89.94-62.8,6.77-69.29,22.4S1162.12,407.22,1182.49,411.84Z"/><path class="cls-9" d="M1297.66,280.42c.72-.82,2.38-1.49,6.06-1.69a14.87,14.87,0,0,0-6.88-1.93c-.77-5.13-3.49-14.19-12.31-16.39a11,11,0,0,1,5.36,8c-10.21-10.48-32.08-18.11-92.65-13.33-79.83,6.3-53.52,57.41-43.18,63.5s36.34-10.61,55.59-9.08,22.92,29.35,29.45,33.17,4-2.94,12.8-6.93,9.68,10.65,7.13,20.17,9.59,22.08,9.59,22.08l12.27-13.21c12.27-13.22,23.84-69.19,18.26-81.13C1298.65,282.56,1298.17,281.49,1297.66,280.42Z"/><path class="cls-9" d="M1339,781.66c-.5-25.79-.22-54.57,1.65-85,.11-2.05.22-4.11.31-6.18-7.52-37.22-18.88-70.24-35.61-71.32C1305.34,619.11,1255.51,697.43,1339,781.66Z"/><path class="cls-4" d="M1404.9,916.71s-4.15,40.38-8.71,48-24,32-32.23,36.83,5-32.16,3.37-39.35-6.81,13.12-10.45,13.6-2.7-17.8-2.83-24.46,17.72-23.07,24-37.24S1404.9,916.71,1404.9,916.71Z"/><path class="cls-7" d="M1283.3,445.34s50,23.68,74,60.08c37.19,56.47,80.3,262.26,81.1,281.31s-31.47,153.6-31.47,153.6-32.72-2.16-41.15-18.67c0,0,6.53-138.24,2.39-147.12s-136.4-185.43-121.53-223.1S1283.3,445.34,1283.3,445.34Z"/><rect class="cls-13" x="831.54" y="556.76" width="165.19" height="227.83" transform="translate(178.39 -191.95) rotate(13.27)"/><rect class="cls-14" x="827.4" y="555.79" width="165.19" height="227.83" transform="translate(178.06 -191.03) rotate(13.27)"/><rect class="cls-15" x="838.73" y="571.41" width="142.53" height="196.58" transform="translate(178.06 -191.03) rotate(13.27)"/><path class="cls-16" d="M981.59,616.25a2.76,2.76,0,0,1-.57-.06L874.35,591a2.47,2.47,0,1,1,1.13-4.8l106.67,25.16a2.47,2.47,0,0,1-.56,4.87Z"/><path class="cls-16" d="M977.2,631.3a2.76,2.76,0,0,1-.57-.06L870,606.08a2.47,2.47,0,1,1,1.13-4.81l106.67,25.16a2.47,2.47,0,0,1-.56,4.87Z"/><path class="cls-16" d="M972.54,646.35a2.76,2.76,0,0,1-.57-.06L865.3,621.13a2.47,2.47,0,1,1,1.13-4.81L973.1,641.48a2.47,2.47,0,0,1-.56,4.87Z"/><path class="cls-16" d="M968.15,661.4a2.76,2.76,0,0,1-.57-.06L860.91,636.18a2.47,2.47,0,1,1,1.13-4.81l106.67,25.16a2.47,2.47,0,0,1-.56,4.87Z"/><path class="cls-17" d="M958.57,587.08l-55.1-13a3.07,3.07,0,0,1-2.28-3.69L905.52,552a3.09,3.09,0,0,1,3.7-2.29l55.09,13a3.08,3.08,0,0,1,2.29,3.69l-4.34,18.39A3.08,3.08,0,0,1,958.57,587.08Z"/><path class="cls-4" d="M844.79,652c1.88-6.61-5.39-25.6-9-27.91s-7.76,7.76-11.26,20.26-1.68,23.42,1.14,23.87S843.05,658,844.79,652Z"/><path class="cls-9" d="M1745.76,1654.47H4.64A4.66,4.66,0,0,1,0,1649.83H0a4.65,4.65,0,0,1,4.64-4.64H1745.76a4.66,4.66,0,0,1,4.64,4.64h0A4.66,4.66,0,0,1,1745.76,1654.47Z"/></g></g></g></svg>