<svg xmlns="http://www.w3.org/2000/svg" viewBox="0 0 3565.73 1554.08"><defs><style>.cls-1{fill:#e1f2f9;}.cls-2{fill:#bbe7f9;}.cls-3{fill:#c4d9ed;}.cls-4{fill:#d5e7f7;}.cls-5{fill:#51bbfc;}.cls-6{fill:#88d5fc;}.cls-7{fill:#cdeef9;}.cls-8{fill:#dceaf9;}.cls-9{fill:#adc9e0;}.cls-10{fill:#0a95fa;}.cls-11{fill:#9c5f33;}.cls-12{fill:#d0112f;}.cls-13{fill:#133263;}.cls-14{fill:#f9cd35;}.cls-15{fill:#f79c33;}.cls-16{fill:#ab7041;}.cls-17{fill:#961b33;}.cls-18{fill:#66172a;}.cls-19{fill:#1d60cc;}.cls-20{fill:#ffa436;}.cls-21{fill:#ffd334;}.cls-22{fill:#d3671e;opacity:0.4;}</style></defs><g id="Layer_2" data-name="Layer 2"><g id="Layer_1-2" data-name="Layer 1"><path class="cls-1" d="M3442.38,1547.94l.65-3.31L407.46,1545s-2.43-5.15-3-6.13l-.71-1.22c-.39-.67-.84-1.46-1.36-2.38l-.57-1c-.7-1.24-1.48-2.64-2.36-4.24-1.07-2-2.26-4.17-3.59-6.64h0c-4.91-9.22-11.44-22-18.85-37.89q-3.64-7.82-7.56-16.64l-3.13-7.16h0c-1-2.36-2.05-4.76-3.07-7.22a2.44,2.44,0,0,1-.1-.24c-.71-1.68-1.43-3.39-2.14-5.13s-1.49-3.58-2.25-5.4c-3.82-9.4-7.74-19.39-11.63-29.92-.1-.27-.21-.55-.31-.83h0q-3.82-10.34-7.6-21.33-2.09-6-4.12-12.28c-.08-.24-.17-.5-.25-.77-.61-1.84-1.2-3.69-1.8-5.55-.5-1.58-1-3.15-1.49-4.73q-1.55-4.87-3.07-9.87c-1.29-4.27-2.58-8.6-3.84-13q-2.56-8.92-5-18.17c-.49-1.84-1-3.7-1.46-5.55-1.43-5.57-2.85-11.2-4.21-16.91-.45-1.83-.88-3.66-1.3-5.51-.27-1.14-.53-2.27-.8-3.41q-3.09-13.54-5.84-27.6-3-15.46-5.53-31.52-2.31-14.81-4.12-30.06-1.71-14.4-2.89-29.13c-1.87-23-2.72-46.59-2.36-70.62a657.44,657.44,0,0,1,14.45-128.74q.51-2.39,1.05-4.77,3.5-15.61,7.86-31.26,3.33-11.94,7.21-23.9,2.82-8.65,5.92-17.33,7-19.65,15.65-39.27,2.37-5.43,4.9-10.86c31.26-67.45,77.34-134.26,142.92-197.46,1.23-1.19,2.46-2.36,3.68-3.53a1009.46,1009.46,0,0,1,96.42-81.64l3.5-2.57c348.25-255.33,642.63-82.07,798.84-91.66,30.74-1.88,57.73-14.1,84.27-33.43,48.62-35.44,95.66-94.84,161.28-158.6,98.4-95.57,238.52-200.95,488.25-250.2,309-60.93,733.54-43.85,917.2,139.3,111.09,110.79,134,282.33-10,534.14q-13.12,23-28.15,46.84-12.63,20.06-22,38.3c-15.85,30.59-25.23,57.57-29.19,81.62-9.51,57.77,12.33,98.69,51.45,132.33a316.59,316.59,0,0,0,35.28,25.92l2.46,1.57c45.72,28.89,103.49,53.7,161.09,82.78,31.8,16.08,63.55,33.42,93.19,53.51,27.53,18.65,53.24,39.63,75.48,64.08a302.58,302.58,0,0,1,38.68,52.64c.64,1.08,1.25,2.16,1.86,3.24a293.5,293.5,0,0,1,31.76,86.91c.33,1.65.65,3.31.94,5C3456,1427.14,3455.38,1482.48,3442.38,1547.94Z"/><path class="cls-2" d="M3034.52,705.11,1298.74,1000.27,1174.21,851,3044.53,171C3155.63,281.75,3178.58,453.31,3034.52,705.11Z"/><path class="cls-2" d="M2382.48,142,1477.8,440.47c48.62-35.44,95.66-94.84,161.29-158.59Z"/><path class="cls-2" d="M2354.56,241.57a39.78,39.78,0,1,0,39.78,39.78A39.78,39.78,0,0,0,2354.56,241.57Z"/><rect class="cls-3" x="1646.16" y="389.29" width="206.56" height="1004.49"/><rect class="cls-4" x="1692.56" y="389.29" width="206.56" height="1004.49"/><rect class="cls-3" x="1692.61" y="389.02" width="206.51" height="58.05" transform="translate(3591.73 836.09) rotate(180)"/><rect class="cls-3" x="1692.61" y="514.91" width="206.51" height="58.04" transform="translate(3591.73 1087.87) rotate(180)"/><rect class="cls-3" x="1692.61" y="640.8" width="206.51" height="58.05" transform="translate(3591.73 1339.65) rotate(180)"/><rect class="cls-3" x="1692.61" y="766.7" width="206.51" height="58.04" transform="translate(3591.73 1591.43) rotate(180)"/><rect class="cls-3" x="1692.61" y="892.59" width="206.51" height="58.05" transform="translate(3591.73 1843.22) rotate(180)"/><rect class="cls-3" x="1692.61" y="1018.48" width="206.51" height="58.04" transform="translate(3591.73 2095) rotate(180)"/><rect class="cls-3" x="1692.61" y="1144.37" width="206.51" height="58.04" transform="translate(3591.73 2346.78) rotate(180)"/><rect class="cls-3" x="1692.61" y="1270.26" width="206.51" height="58.04" transform="translate(3591.73 2598.56) rotate(180)"/><rect class="cls-5" x="1976.37" y="531.42" width="206.56" height="862.35"/><rect class="cls-6" x="2022.77" y="531.42" width="206.56" height="862.35"/><rect class="cls-7" x="2022.82" y="531.2" width="206.51" height="49.83" transform="translate(4252.15 1112.22) rotate(180)"/><rect class="cls-7" x="2022.82" y="639.27" width="206.51" height="49.83" transform="translate(4252.15 1328.38) rotate(180)"/><rect class="cls-7" x="2022.82" y="747.35" width="206.51" height="49.83" transform="translate(4252.15 1544.53) rotate(180)"/><rect class="cls-7" x="2022.82" y="855.43" width="206.51" height="49.83" transform="translate(4252.15 1760.69) rotate(180)"/><rect class="cls-7" x="2022.82" y="963.51" width="206.51" height="49.83" transform="translate(4252.15 1976.84) rotate(180)"/><rect class="cls-7" x="2022.82" y="1071.58" width="206.51" height="49.83" transform="translate(4252.15 2193) rotate(180)"/><rect class="cls-7" x="2022.82" y="1179.66" width="206.51" height="49.83" transform="translate(4252.15 2409.15) rotate(180)"/><rect class="cls-3" x="2022.82" y="1287.74" width="206.51" height="49.83" transform="translate(4252.15 2625.31) rotate(180)"/><rect class="cls-8" x="1534.37" y="1362.97" width="86.5" height="126.13" transform="translate(3155.24 2852.07) rotate(180)"/><path class="cls-6" d="M1560.78,1190.89v350.2H644.52l-6.23-.06-233.84-2.2-.71-1.22c-.39-.67-.84-1.46-1.36-2.38l-.57-1c-.7-1.24-1.48-2.64-2.36-4.24-1.07-2-2.26-4.17-3.59-6.64h0c-4.91-9.22-11.44-22-18.85-37.89q-3.64-7.82-7.56-16.64l-3.13-7.16h0c-1-2.36-2.05-4.76-3.07-7.22a2.44,2.44,0,0,1-.1-.24c-.71-1.68-1.43-3.39-2.14-5.13s-1.49-3.58-2.25-5.4c-3.82-9.4-7.74-19.39-11.63-29.92-.1-.27-.21-.55-.31-.83h0q-3.82-10.34-7.6-21.33-2.09-6-4.12-12.28c-.08-.24-.17-.5-.25-.77-.61-1.84-1.2-3.69-1.8-5.55-.5-1.58-1-3.15-1.49-4.73q-1.55-4.87-3.07-9.87c-1.29-4.27-2.58-8.6-3.84-13q-2.56-8.92-5-18.17c-.49-1.84-1-3.7-1.46-5.55-1.43-5.57-2.85-11.2-4.21-16.91-.45-1.83-.88-3.66-1.3-5.51-.27-1.14-.53-2.27-.8-3.41q-3.09-13.54-5.84-27.6-3-15.46-5.53-31.52-2.31-14.81-4.12-30.06-1.71-14.4-2.89-29.13c-1.87-23-2.72-46.59-2.36-70.62a657.44,657.44,0,0,1,14.45-128.74q.51-2.39,1.05-4.77,3.5-15.61,7.86-31.26,3.33-11.94,7.21-23.9,2.82-8.65,5.92-17.33,7-19.65,15.65-39.27h4.9V850.76c31.26-67.45,77.34-134.26,142.92-197.46,1.23-1.19,2.46-2.36,3.68-3.53h3.83v134H617.16V565.45H748V707.14H777.8V538H908.61V855.14h165.44v184.95h61.82v46.59h142v-80.23h81.52v-218h100.7v402.45Z"/><rect class="cls-7" x="777.8" y="559.39" width="130.89" height="32.32" transform="translate(1686.48 1151.09) rotate(180)"/><rect class="cls-7" x="777.8" y="620.1" width="130.89" height="32.32" transform="translate(1686.48 1272.51) rotate(180)"/><rect class="cls-3" x="777.8" y="674.71" width="130.89" height="32.32" transform="translate(1686.48 1381.75) rotate(180)"/><rect class="cls-7" x="617.19" y="674.71" width="130.89" height="32.32" transform="translate(1365.27 1381.75) rotate(180)"/><rect class="cls-7" x="617.19" y="620.1" width="130.89" height="32.32" transform="translate(1365.27 1272.51) rotate(180)"/><rect class="cls-7" x="617.19" y="565.56" width="130.89" height="32.32" transform="translate(1365.27 1163.44) rotate(180)"/><rect class="cls-7" x="617.15" y="727.67" width="291.53" height="32.31" transform="translate(1525.84 1487.66) rotate(180)"/><rect class="cls-7" x="617.15" y="780.63" width="291.53" height="32.32" transform="translate(1525.84 1593.58) rotate(180)"/><rect class="cls-3" x="1358.45" y="788.46" width="101.59" height="49.88" transform="translate(2818.48 1626.8) rotate(180)"/><rect class="cls-3" x="1358.45" y="862.64" width="101.59" height="49.88" transform="translate(2818.48 1775.17) rotate(180)"/><rect class="cls-3" x="1358.45" y="936.83" width="101.59" height="49.88" transform="translate(2818.48 1923.54) rotate(180)"/><rect class="cls-3" x="1358.45" y="1014.59" width="101.59" height="49.88" transform="translate(2818.48 2079.06) rotate(180)"/><rect class="cls-3" x="1358.45" y="1089.94" width="101.59" height="49.88" transform="translate(2818.48 2229.77) rotate(180)"/><rect class="cls-3" x="1358.45" y="1165.3" width="101.59" height="49.88" transform="translate(2818.48 2380.47) rotate(180)"/><rect class="cls-3" x="1358.45" y="1244.13" width="101.59" height="49.88" transform="translate(2818.48 2538.14) rotate(180)"/><rect class="cls-7" x="617.15" y="832.39" width="291.53" height="20.52" transform="translate(1525.84 1685.29) rotate(180)"/><rect class="cls-3" x="1322.4" y="788.46" width="37.46" height="217.99"/><rect class="cls-3" x="1202.51" y="1006.45" width="75.35" height="80.23"/><path class="cls-7" d="M617.19,565.56v32.32l0,129.79v56.05h-26V568.13l3.5-2.57Z"/><rect class="cls-7" x="761.84" y="537.98" width="15.96" height="169.06"/><rect class="cls-1" x="1024.84" y="886.97" width="22.18" height="31.26" transform="translate(2071.86 1805.19) rotate(180)"/><rect class="cls-1" x="983.37" y="886.97" width="22.18" height="31.26" transform="translate(1988.92 1805.19) rotate(180)"/><rect class="cls-1" x="942.83" y="886.97" width="22.18" height="31.26" transform="translate(1907.84 1805.19) rotate(180)"/><rect class="cls-1" x="904.39" y="886.97" width="22.18" height="31.26" transform="translate(1830.96 1805.19) rotate(180)"/><rect class="cls-1" x="865.22" y="886.97" width="22.18" height="31.26" transform="translate(1752.61 1805.19) rotate(180)"/><rect class="cls-1" x="825.59" y="886.97" width="22.18" height="31.26" transform="translate(1673.36 1805.19) rotate(180)"/><rect class="cls-1" x="784.12" y="886.97" width="22.18" height="31.26" transform="translate(1590.42 1805.19) rotate(180)"/><rect class="cls-1" x="743.58" y="886.97" width="22.18" height="31.26" transform="translate(1509.34 1805.19) rotate(180)"/><rect class="cls-1" x="705.14" y="886.97" width="22.18" height="31.26" transform="translate(1432.46 1805.19) rotate(180)"/><rect class="cls-1" x="665.96" y="886.97" width="22.18" height="31.26" transform="translate(1354.1 1805.19) rotate(180)"/><rect class="cls-1" x="625.14" y="886.97" width="22.18" height="31.26" transform="translate(1272.45 1805.19) rotate(180)"/><rect class="cls-1" x="583.67" y="886.97" width="22.18" height="31.26" transform="translate(1189.51 1805.19) rotate(180)"/><rect class="cls-1" x="543.13" y="886.97" width="22.18" height="31.26" transform="translate(1108.43 1805.19) rotate(180)"/><rect class="cls-1" x="504.69" y="886.97" width="22.18" height="31.26" transform="translate(1031.55 1805.19) rotate(180)"/><rect class="cls-1" x="465.51" y="886.97" width="22.18" height="31.26" transform="translate(953.2 1805.19) rotate(180)"/><rect class="cls-1" x="425.89" y="886.97" width="22.18" height="31.26" transform="translate(873.95 1805.19) rotate(180)"/><rect class="cls-1" x="384.42" y="886.97" width="22.18" height="31.26" transform="translate(791.01 1805.19) rotate(180)"/><rect class="cls-1" x="343.87" y="886.97" width="22.18" height="31.26" transform="translate(709.93 1805.19) rotate(180)"/><path class="cls-1" d="M327.62,900.89v17.33H321.7Q324.52,909.57,327.62,900.89Z"/><rect class="cls-1" x="1024.84" y="942.12" width="22.18" height="31.26" transform="translate(2071.86 1915.5) rotate(180)"/><rect class="cls-1" x="983.37" y="942.12" width="22.18" height="31.26" transform="translate(1988.92 1915.5) rotate(180)"/><rect class="cls-1" x="942.83" y="942.12" width="22.18" height="31.26" transform="translate(1907.84 1915.5) rotate(180)"/><rect class="cls-1" x="904.39" y="942.12" width="22.18" height="31.26" transform="translate(1830.96 1915.5) rotate(180)"/><rect class="cls-1" x="865.22" y="942.12" width="22.18" height="31.26" transform="translate(1752.61 1915.5) rotate(180)"/><rect class="cls-1" x="825.59" y="942.12" width="22.18" height="31.26" transform="translate(1673.36 1915.5) rotate(180)"/><rect class="cls-1" x="784.12" y="942.12" width="22.18" height="31.26" transform="translate(1590.42 1915.5) rotate(180)"/><rect class="cls-1" x="743.58" y="942.12" width="22.18" height="31.26" transform="translate(1509.34 1915.5) rotate(180)"/><rect class="cls-1" x="705.14" y="942.12" width="22.18" height="31.26" transform="translate(1432.46 1915.5) rotate(180)"/><rect class="cls-1" x="665.96" y="942.12" width="22.18" height="31.26" transform="translate(1354.1 1915.5) rotate(180)"/><rect class="cls-1" x="625.14" y="942.12" width="22.18" height="31.26" transform="translate(1272.45 1915.5) rotate(180)"/><rect class="cls-1" x="583.67" y="942.12" width="22.18" height="31.26" transform="translate(1189.51 1915.5) rotate(180)"/><rect class="cls-1" x="543.13" y="942.12" width="22.18" height="31.26" transform="translate(1108.43 1915.5) rotate(180)"/><rect class="cls-1" x="504.69" y="942.12" width="22.18" height="31.26" transform="translate(1031.55 1915.5) rotate(180)"/><rect class="cls-1" x="465.51" y="942.12" width="22.18" height="31.26" transform="translate(953.2 1915.5) rotate(180)"/><rect class="cls-1" x="425.89" y="942.12" width="22.18" height="31.26" transform="translate(873.95 1915.5) rotate(180)"/><rect class="cls-1" x="384.42" y="942.12" width="22.18" height="31.26" transform="translate(791.01 1915.5) rotate(180)"/><rect class="cls-1" x="343.87" y="942.12" width="22.18" height="31.26" transform="translate(709.93 1915.5) rotate(180)"/><path class="cls-1" d="M327.62,942.12v31.26h-21q3.5-15.61,7.86-31.26Z"/><rect class="cls-1" x="1024.84" y="996.44" width="22.18" height="31.26" transform="translate(2071.86 2024.13) rotate(180)"/><rect class="cls-1" x="983.37" y="996.44" width="22.18" height="31.26" transform="translate(1988.92 2024.13) rotate(180)"/><rect class="cls-1" x="942.83" y="996.44" width="22.18" height="31.26" transform="translate(1907.84 2024.13) rotate(180)"/><rect class="cls-1" x="904.39" y="996.44" width="22.18" height="31.26" transform="translate(1830.96 2024.13) rotate(180)"/><rect class="cls-1" x="865.22" y="996.44" width="22.18" height="31.26" transform="translate(1752.61 2024.13) rotate(180)"/><rect class="cls-1" x="825.59" y="996.44" width="22.18" height="31.26" transform="translate(1673.36 2024.13) rotate(180)"/><rect class="cls-1" x="784.12" y="996.44" width="22.18" height="31.26" transform="translate(1590.42 2024.13) rotate(180)"/><rect class="cls-1" x="743.58" y="996.44" width="22.18" height="31.26" transform="translate(1509.34 2024.13) rotate(180)"/><rect class="cls-1" x="705.14" y="996.44" width="22.18" height="31.26" transform="translate(1432.46 2024.13) rotate(180)"/><rect class="cls-1" x="665.96" y="996.44" width="22.18" height="31.26" transform="translate(1354.1 2024.13) rotate(180)"/><rect class="cls-1" x="625.14" y="996.44" width="22.18" height="31.26" transform="translate(1272.45 2024.13) rotate(180)"/><rect class="cls-1" x="583.67" y="996.44" width="22.18" height="31.26" transform="translate(1189.51 2024.13) rotate(180)"/><rect class="cls-1" x="543.13" y="996.44" width="22.18" height="31.26" transform="translate(1108.43 2024.13) rotate(180)"/><rect class="cls-1" x="504.69" y="996.44" width="22.18" height="31.26" transform="translate(1031.55 2024.13) rotate(180)"/><rect class="cls-1" x="465.51" y="996.44" width="22.18" height="31.26" transform="translate(953.2 2024.13) rotate(180)"/><rect class="cls-1" x="425.89" y="996.44" width="22.18" height="31.26" transform="translate(873.95 2024.13) rotate(180)"/><rect class="cls-1" x="384.42" y="996.44" width="22.18" height="31.26" transform="translate(791.01 2024.13) rotate(180)"/><rect class="cls-1" x="343.87" y="996.44" width="22.18" height="31.26" transform="translate(709.93 2024.13) rotate(180)"/><rect class="cls-1" x="305.44" y="996.44" width="22.18" height="31.26" transform="translate(633.05 2024.13) rotate(180)"/><rect class="cls-1" x="1024.84" y="1054.14" width="22.18" height="31.26" transform="translate(2071.86 2139.54) rotate(180)"/><rect class="cls-1" x="983.37" y="1054.14" width="22.18" height="31.26" transform="translate(1988.92 2139.54) rotate(180)"/><rect class="cls-1" x="942.83" y="1054.14" width="22.18" height="31.26" transform="translate(1907.84 2139.54) rotate(180)"/><rect class="cls-1" x="904.39" y="1054.14" width="22.18" height="31.26" transform="translate(1830.96 2139.54) rotate(180)"/><rect class="cls-1" x="865.22" y="1054.14" width="22.18" height="31.26" transform="translate(1752.61 2139.54) rotate(180)"/><rect class="cls-1" x="825.59" y="1054.14" width="22.18" height="31.26" transform="translate(1673.36 2139.54) rotate(180)"/><rect class="cls-1" x="784.12" y="1054.14" width="22.18" height="31.26" transform="translate(1590.42 2139.54) rotate(180)"/><rect class="cls-1" x="743.58" y="1054.14" width="22.18" height="31.26" transform="translate(1509.34 2139.54) rotate(180)"/><rect class="cls-1" x="705.14" y="1054.14" width="22.18" height="31.26" transform="translate(1432.46 2139.54) rotate(180)"/><rect class="cls-1" x="665.96" y="1054.14" width="22.18" height="31.26" transform="translate(1354.1 2139.54) rotate(180)"/><rect class="cls-1" x="625.14" y="1054.14" width="22.18" height="31.26" transform="translate(1272.45 2139.54) rotate(180)"/><rect class="cls-1" x="583.67" y="1054.14" width="22.18" height="31.26" transform="translate(1189.51 2139.54) rotate(180)"/><rect class="cls-1" x="543.13" y="1054.14" width="22.18" height="31.26" transform="translate(1108.43 2139.54) rotate(180)"/><rect class="cls-1" x="504.69" y="1054.14" width="22.18" height="31.26" transform="translate(1031.55 2139.54) rotate(180)"/><rect class="cls-1" x="465.51" y="1054.14" width="22.18" height="31.26" transform="translate(953.2 2139.54) rotate(180)"/><rect class="cls-1" x="425.89" y="1054.14" width="22.18" height="31.26" transform="translate(873.95 2139.54) rotate(180)"/><rect class="cls-1" x="384.42" y="1054.14" width="22.18" height="31.26" transform="translate(791.01 2139.54) rotate(180)"/><rect class="cls-1" x="343.87" y="1054.14" width="22.18" height="31.26" transform="translate(709.93 2139.54) rotate(180)"/><rect class="cls-1" x="305.44" y="1054.14" width="22.18" height="31.26" transform="translate(633.05 2139.54) rotate(180)"/><rect class="cls-1" x="1024.84" y="1109.3" width="22.18" height="31.26" transform="translate(2071.86 2249.86) rotate(180)"/><rect class="cls-1" x="983.37" y="1109.3" width="22.18" height="31.26" transform="translate(1988.92 2249.86) rotate(180)"/><rect class="cls-1" x="942.83" y="1109.3" width="22.18" height="31.26" transform="translate(1907.84 2249.86) rotate(180)"/><rect class="cls-1" x="904.39" y="1109.3" width="22.18" height="31.26" transform="translate(1830.96 2249.86) rotate(180)"/><rect class="cls-1" x="865.22" y="1109.3" width="22.18" height="31.26" transform="translate(1752.61 2249.86) rotate(180)"/><rect class="cls-1" x="825.59" y="1109.3" width="22.18" height="31.26" transform="translate(1673.36 2249.86) rotate(180)"/><rect class="cls-1" x="784.12" y="1109.3" width="22.18" height="31.26" transform="translate(1590.42 2249.86) rotate(180)"/><rect class="cls-1" x="743.58" y="1109.3" width="22.18" height="31.26" transform="translate(1509.34 2249.86) rotate(180)"/><rect class="cls-1" x="705.14" y="1109.3" width="22.18" height="31.26" transform="translate(1432.46 2249.86) rotate(180)"/><rect class="cls-1" x="665.96" y="1109.3" width="22.18" height="31.26" transform="translate(1354.1 2249.86) rotate(180)"/><rect class="cls-1" x="625.14" y="1109.3" width="22.18" height="31.26" transform="translate(1272.45 2249.86) rotate(180)"/><rect class="cls-1" x="583.67" y="1109.3" width="22.18" height="31.26" transform="translate(1189.51 2249.86) rotate(180)"/><rect class="cls-1" x="543.13" y="1109.3" width="22.18" height="31.26" transform="translate(1108.43 2249.86) rotate(180)"/><rect class="cls-1" x="504.69" y="1109.3" width="22.18" height="31.26" transform="translate(1031.55 2249.86) rotate(180)"/><rect class="cls-1" x="465.51" y="1109.3" width="22.18" height="31.26" transform="translate(953.2 2249.86) rotate(180)"/><rect class="cls-1" x="425.89" y="1109.3" width="22.18" height="31.26" transform="translate(873.95 2249.86) rotate(180)"/><rect class="cls-1" x="384.42" y="1109.3" width="22.18" height="31.26" transform="translate(791.01 2249.86) rotate(180)"/><rect class="cls-1" x="343.87" y="1109.3" width="22.18" height="31.26" transform="translate(709.93 2249.86) rotate(180)"/><rect class="cls-1" x="305.44" y="1109.3" width="22.18" height="31.26" transform="translate(633.05 2249.86) rotate(180)"/><rect class="cls-1" x="1024.84" y="1163.61" width="22.18" height="31.26" transform="translate(2071.86 2358.48) rotate(180)"/><rect class="cls-1" x="983.37" y="1163.61" width="22.18" height="31.26" transform="translate(1988.92 2358.48) rotate(180)"/><rect class="cls-1" x="942.83" y="1163.61" width="22.18" height="31.26" transform="translate(1907.84 2358.48) rotate(180)"/><rect class="cls-1" x="904.39" y="1163.61" width="22.18" height="31.26" transform="translate(1830.96 2358.48) rotate(180)"/><rect class="cls-1" x="865.22" y="1163.61" width="22.18" height="31.26" transform="translate(1752.61 2358.48) rotate(180)"/><rect class="cls-1" x="825.59" y="1163.61" width="22.18" height="31.26" transform="translate(1673.36 2358.48) rotate(180)"/><rect class="cls-1" x="784.12" y="1163.61" width="22.18" height="31.26" transform="translate(1590.42 2358.48) rotate(180)"/><rect class="cls-1" x="743.58" y="1163.61" width="22.18" height="31.26" transform="translate(1509.34 2358.48) rotate(180)"/><rect class="cls-1" x="705.14" y="1163.61" width="22.18" height="31.26" transform="translate(1432.46 2358.48) rotate(180)"/><rect class="cls-1" x="665.96" y="1163.61" width="22.18" height="31.26" transform="translate(1354.1 2358.48) rotate(180)"/><rect class="cls-1" x="625.14" y="1163.61" width="22.18" height="31.26" transform="translate(1272.45 2358.48) rotate(180)"/><rect class="cls-1" x="583.67" y="1163.61" width="22.18" height="31.26" transform="translate(1189.51 2358.48) rotate(180)"/><rect class="cls-1" x="543.13" y="1163.61" width="22.18" height="31.26" transform="translate(1108.43 2358.48) rotate(180)"/><rect class="cls-1" x="504.69" y="1163.61" width="22.18" height="31.26" transform="translate(1031.55 2358.48) rotate(180)"/><rect class="cls-1" x="465.51" y="1163.61" width="22.18" height="31.26" transform="translate(953.2 2358.48) rotate(180)"/><rect class="cls-1" x="425.89" y="1163.61" width="22.18" height="31.26" transform="translate(873.95 2358.48) rotate(180)"/><rect class="cls-1" x="384.42" y="1163.61" width="22.18" height="31.26" transform="translate(791.01 2358.48) rotate(180)"/><rect class="cls-1" x="343.87" y="1163.61" width="22.18" height="31.26" transform="translate(709.93 2358.48) rotate(180)"/><rect class="cls-1" x="305.44" y="1163.61" width="22.18" height="31.26" transform="translate(633.05 2358.48) rotate(180)"/><polygon class="cls-6" points="687.8 1544.63 1202.51 1544.88 1202.51 1261.54 688.52 1261.54 687.8 1544.63"/><rect class="cls-3" x="1078.27" y="1400.18" width="513.99" height="138.65" transform="translate(2670.53 2939.01) rotate(180)"/><path class="cls-6" d="M647.31,1304.74v239.89l-239.85.33c-.19-.34-3.45-6.88-3.72-7.35-.39-.67-.84-1.46-1.36-2.38l-.57-1c-.7-1.24-1.48-2.64-2.36-4.24-1.07-2-2.26-4.17-3.59-6.64h0c-4.91-9.22-11.44-22-18.85-37.89q-3.64-7.82-7.56-16.64l-3.13-7.16h0c-1-2.36-2.05-4.76-3.07-7.22a2.44,2.44,0,0,1-.1-.24c-.71-1.68-1.43-3.39-2.14-5.13s-1.49-3.58-2.25-5.4c-3.82-9.4-7.74-19.39-11.63-29.92-.1-.27-.21-.55-.31-.83h0q-3.82-10.34-7.6-21.33-2.09-6-4.12-12.28c-.08-.24-.17-.5-.25-.77-.61-1.84-1.2-3.69-1.8-5.55-.5-1.58-1-3.15-1.49-4.73q-1.55-4.87-3.07-9.87c-1.29-4.27-2.58-8.6-3.84-13q-2.56-8.92-5-18.17c-.49-1.84-1-3.7-1.46-5.55-1.43-5.57-2.85-11.2-4.21-16.91Z"/><rect class="cls-4" x="1072.41" y="1294.01" width="95.76" height="51.36" transform="translate(2240.59 2639.38) rotate(180)"/><rect class="cls-4" x="949.48" y="1294.01" width="95.77" height="51.36" transform="translate(1994.73 2639.38) rotate(180)"/><rect class="cls-4" x="828.9" y="1294.01" width="95.76" height="51.36" transform="translate(1753.56 2639.38) rotate(180)"/><rect class="cls-4" x="710.63" y="1294.01" width="95.76" height="51.36" transform="translate(1517.02 2639.38) rotate(180)"/><rect class="cls-6" x="644.53" y="1261.54" width="49.33" height="283.09"/><rect class="cls-8" x="1437.14" y="766.75" width="2.67" height="21.71" transform="translate(2876.96 1555.21) rotate(180)"/><rect class="cls-8" x="1341.16" y="766.75" width="2.67" height="21.71" transform="translate(2684.98 1555.21) rotate(180)"/><path class="cls-6" d="M296.38,1206.64q1.8,15.24,4.12,30.06,2.49,16,5.53,31.52,2.75,14.05,5.84,27.6c.27,1.14.53,2.27.8,3.41.42,1.85.85,3.68,1.3,5.51,1.36,5.71,2.78,11.34,4.21,16.91.48,1.85,1,3.71,1.46,5.55q2.43,9.24,5,18.17c1.26,4.39,2.55,8.72,3.84,13q1.53,5,3.07,9.87c.49,1.58,1,3.15,1.49,4.73.6,1.86,1.19,3.71,1.8,5.55.08.27.17.53.25.77q2,6.24,4.12,12.28,3.76,11,7.6,21.33h0c.1.28.21.56.31.83,3.89,10.53,7.81,20.52,11.63,29.92.76,1.82,1.5,3.62,2.25,5.4s1.43,3.45,2.14,5.13a2.44,2.44,0,0,0,.1.24V1206.64Z"/><path class="cls-4" d="M363.25,1299.23v155.19a2.44,2.44,0,0,1-.1-.24c-.71-1.68-1.43-3.39-2.14-5.13s-1.49-3.58-2.25-5.4c-3.82-9.4-7.74-19.39-11.63-29.92-.1-.27-.21-.55-.31-.83h0q-3.82-10.34-7.6-21.33-2.09-6-4.12-12.28c-.08-.24-.17-.5-.25-.77-.61-1.84-1.2-3.69-1.8-5.55-.5-1.58-1-3.15-1.49-4.73q-1.55-4.87-3.07-9.87c-1.29-4.27-2.58-8.6-3.84-13q-2.56-8.92-5-18.17c-.49-1.84-1-3.7-1.46-5.55-1.43-5.57-2.85-11.2-4.21-16.91-.45-1.83-.88-3.66-1.3-5.51Z"/><path class="cls-3" d="M363.25,1268.22v77.15h-38.6q-2.56-8.92-5-18.17c-.49-1.84-1-3.7-1.46-5.55-1.43-5.57-2.85-11.2-4.21-16.91-.45-1.83-.88-3.66-1.3-5.51-.27-1.14-.53-2.27-.8-3.41q-3.09-13.54-5.84-27.6Z"/><path class="cls-3" d="M339.22,1368.23v23.33q-2.09-6-4.12-12.28c-.08-.24-.17-.5-.25-.77-.61-1.84-1.2-3.69-1.8-5.55-.5-1.58-1-3.15-1.49-4.73Z"/><rect class="cls-9" x="321.1" y="1289.9" width="15.23" height="26.35" transform="translate(657.43 2606.15) rotate(180)"/><rect class="cls-4" x="1494.96" y="1299.24" width="352.91" height="237.34" transform="translate(3342.84 2835.81) rotate(180)"/><rect class="cls-3" x="1494.96" y="1268.23" width="352.91" height="77.14" transform="translate(3342.84 2613.59) rotate(180)"/><rect class="cls-3" x="1805.72" y="1368.23" width="18.13" height="25.55" transform="translate(3629.57 2762.01) rotate(180)"/><rect class="cls-3" x="1771.83" y="1368.23" width="18.13" height="25.55" transform="translate(3561.78 2762.01) rotate(180)"/><rect class="cls-3" x="1738.69" y="1368.23" width="18.13" height="25.55" transform="translate(3495.51 2762.01) rotate(180)"/><rect class="cls-3" x="1707.28" y="1368.23" width="18.13" height="25.55" transform="translate(3432.68 2762.01) rotate(180)"/><rect class="cls-3" x="1675.26" y="1368.23" width="18.13" height="25.55" transform="translate(3368.64 2762.01) rotate(180)"/><rect class="cls-3" x="1642.87" y="1368.23" width="18.13" height="25.55" transform="translate(3303.86 2762.01) rotate(180)"/><rect class="cls-3" x="1608.97" y="1368.23" width="18.13" height="25.55" transform="translate(3236.07 2762.01) rotate(180)"/><rect class="cls-3" x="1575.84" y="1368.23" width="18.13" height="25.55" transform="translate(3169.8 2762.01) rotate(180)"/><rect class="cls-3" x="1544.42" y="1368.23" width="18.13" height="25.55" transform="translate(3106.97 2762.01) rotate(180)"/><rect class="cls-3" x="1512.4" y="1368.23" width="18.13" height="25.55" transform="translate(3042.93 2762.01) rotate(180)"/><rect class="cls-3" x="1805.72" y="1413.31" width="18.13" height="25.55" transform="translate(3629.57 2852.17) rotate(180)"/><rect class="cls-3" x="1771.83" y="1413.31" width="18.13" height="25.55" transform="translate(3561.78 2852.17) rotate(180)"/><rect class="cls-3" x="1738.69" y="1413.31" width="18.13" height="25.55" transform="translate(3495.51 2852.17) rotate(180)"/><rect class="cls-3" x="1707.28" y="1413.31" width="18.13" height="25.55" transform="translate(3432.68 2852.17) rotate(180)"/><rect class="cls-3" x="1675.26" y="1413.31" width="18.13" height="25.55" transform="translate(3368.64 2852.17) rotate(180)"/><rect class="cls-3" x="1642.87" y="1413.31" width="18.13" height="25.55" transform="translate(3303.86 2852.17) rotate(180)"/><rect class="cls-3" x="1608.97" y="1413.31" width="18.13" height="25.55" transform="translate(3236.07 2852.17) rotate(180)"/><rect class="cls-3" x="1575.84" y="1413.31" width="18.13" height="25.55" transform="translate(3169.8 2852.17) rotate(180)"/><rect class="cls-3" x="1544.42" y="1413.31" width="18.13" height="25.55" transform="translate(3106.97 2852.17) rotate(180)"/><rect class="cls-3" x="1512.4" y="1413.31" width="18.13" height="25.55" transform="translate(3042.93 2852.17) rotate(180)"/><rect class="cls-3" x="1805.72" y="1457.7" width="18.13" height="25.55" transform="translate(3629.57 2940.95) rotate(180)"/><rect class="cls-3" x="1771.83" y="1457.7" width="18.13" height="25.55" transform="translate(3561.78 2940.95) rotate(180)"/><rect class="cls-3" x="1738.69" y="1457.7" width="18.13" height="25.55" transform="translate(3495.51 2940.95) rotate(180)"/><rect class="cls-3" x="1707.28" y="1457.7" width="18.13" height="25.55" transform="translate(3432.68 2940.95) rotate(180)"/><rect class="cls-3" x="1675.26" y="1457.7" width="18.13" height="25.55" transform="translate(3368.64 2940.95) rotate(180)"/><rect class="cls-3" x="1642.87" y="1457.7" width="18.13" height="25.55" transform="translate(3303.86 2940.95) rotate(180)"/><rect class="cls-3" x="1608.97" y="1457.7" width="18.13" height="25.55" transform="translate(3236.07 2940.95) rotate(180)"/><rect class="cls-3" x="1575.84" y="1457.7" width="18.13" height="25.55" transform="translate(3169.8 2940.95) rotate(180)"/><rect class="cls-3" x="1544.42" y="1457.7" width="18.13" height="25.55" transform="translate(3106.97 2940.95) rotate(180)"/><rect class="cls-3" x="1512.4" y="1457.7" width="18.13" height="25.55" transform="translate(3042.93 2940.95) rotate(180)"/><rect class="cls-9" x="1805.72" y="1289.9" width="15.23" height="26.35" transform="translate(3626.67 2606.15) rotate(180)"/><rect class="cls-9" x="1654.51" y="1289.9" width="15.23" height="26.35" transform="translate(3324.26 2606.15) rotate(180)"/><rect class="cls-9" x="1534.23" y="1289.9" width="15.23" height="26.35" transform="translate(3083.68 2606.15) rotate(180)"/><rect class="cls-5" x="1870.04" y="1299.24" width="352.92" height="237.34" transform="translate(4093 2835.81) rotate(180)"/><rect class="cls-5" x="1870.04" y="1268.23" width="352.92" height="77.14" transform="translate(4093 2613.59) rotate(180)"/><rect class="cls-5" x="2180.8" y="1368.23" width="18.13" height="25.55" transform="translate(4379.73 2762.01) rotate(180)"/><rect class="cls-5" x="2146.91" y="1368.23" width="18.13" height="25.55" transform="translate(4311.94 2762.01) rotate(180)"/><rect class="cls-5" x="2113.77" y="1368.23" width="18.13" height="25.55" transform="translate(4245.67 2762.01) rotate(180)"/><rect class="cls-5" x="2082.35" y="1368.23" width="18.13" height="25.55" transform="translate(4182.83 2762.01) rotate(180)"/><rect class="cls-5" x="2050.33" y="1368.23" width="18.13" height="25.55" transform="translate(4118.79 2762.01) rotate(180)"/><rect class="cls-5" x="2017.95" y="1368.23" width="18.13" height="25.55" transform="translate(4054.02 2762.01) rotate(180)"/><rect class="cls-5" x="1984.05" y="1368.23" width="18.13" height="25.55" transform="translate(3986.23 2762.01) rotate(180)"/><rect class="cls-5" x="1950.92" y="1368.23" width="18.13" height="25.55" transform="translate(3919.96 2762.01) rotate(180)"/><rect class="cls-5" x="1919.5" y="1368.23" width="18.13" height="25.55" transform="translate(3857.13 2762.01) rotate(180)"/><rect class="cls-5" x="1887.48" y="1368.23" width="18.13" height="25.55" transform="translate(3793.09 2762.01) rotate(180)"/><rect class="cls-5" x="2180.8" y="1413.31" width="18.13" height="25.55" transform="translate(4379.73 2852.17) rotate(180)"/><rect class="cls-5" x="2146.91" y="1413.31" width="18.13" height="25.55" transform="translate(4311.94 2852.17) rotate(180)"/><rect class="cls-5" x="2113.77" y="1413.31" width="18.13" height="25.55" transform="translate(4245.67 2852.17) rotate(180)"/><rect class="cls-5" x="2082.35" y="1413.31" width="18.13" height="25.55" transform="translate(4182.83 2852.17) rotate(180)"/><rect class="cls-5" x="2050.33" y="1413.31" width="18.13" height="25.55" transform="translate(4118.79 2852.17) rotate(180)"/><rect class="cls-5" x="2017.95" y="1413.31" width="18.13" height="25.55" transform="translate(4054.02 2852.17) rotate(180)"/><rect class="cls-5" x="1984.05" y="1413.31" width="18.13" height="25.55" transform="translate(3986.23 2852.17) rotate(180)"/><rect class="cls-5" x="1950.92" y="1413.31" width="18.13" height="25.55" transform="translate(3919.96 2852.17) rotate(180)"/><rect class="cls-5" x="1919.5" y="1413.31" width="18.13" height="25.55" transform="translate(3857.13 2852.17) rotate(180)"/><rect class="cls-5" x="1887.48" y="1413.31" width="18.13" height="25.55" transform="translate(3793.09 2852.17) rotate(180)"/><rect class="cls-5" x="2180.8" y="1457.7" width="18.13" height="25.55" transform="translate(4379.73 2940.95) rotate(180)"/><rect class="cls-5" x="2146.91" y="1457.7" width="18.13" height="25.55" transform="translate(4311.94 2940.95) rotate(180)"/><rect class="cls-5" x="2113.77" y="1457.7" width="18.13" height="25.55" transform="translate(4245.67 2940.95) rotate(180)"/><rect class="cls-5" x="2082.35" y="1457.7" width="18.13" height="25.55" transform="translate(4182.83 2940.95) rotate(180)"/><rect class="cls-5" x="2050.33" y="1457.7" width="18.13" height="25.55" transform="translate(4118.79 2940.95) rotate(180)"/><rect class="cls-5" x="2017.95" y="1457.7" width="18.13" height="25.55" transform="translate(4054.02 2940.95) rotate(180)"/><rect class="cls-5" x="1984.05" y="1457.7" width="18.13" height="25.55" transform="translate(3986.23 2940.95) rotate(180)"/><rect class="cls-5" x="1950.92" y="1457.7" width="18.13" height="25.55" transform="translate(3919.96 2940.95) rotate(180)"/><rect class="cls-5" x="1919.5" y="1457.7" width="18.13" height="25.55" transform="translate(3857.13 2940.95) rotate(180)"/><rect class="cls-5" x="1887.48" y="1457.7" width="18.13" height="25.55" transform="translate(3793.09 2940.95) rotate(180)"/><rect class="cls-5" x="2180.8" y="1289.9" width="15.23" height="26.35" transform="translate(4376.83 2606.15) rotate(180)"/><rect class="cls-5" x="2029.59" y="1289.9" width="15.23" height="26.35" transform="translate(4074.41 2606.15) rotate(180)"/><rect class="cls-5" x="1909.31" y="1289.9" width="15.23" height="26.35" transform="translate(3833.84 2606.15) rotate(180)"/><rect class="cls-6" x="2245.95" y="1299.24" width="352.92" height="245.33"/><rect class="cls-5" x="2245.95" y="1268.23" width="352.92" height="77.14" transform="translate(4844.82 2613.59) rotate(180)"/><rect class="cls-2" x="2556.71" y="1368.23" width="18.13" height="25.55" transform="translate(5131.55 2762.01) rotate(180)"/><rect class="cls-2" x="2522.82" y="1368.23" width="18.13" height="25.55" transform="translate(5063.76 2762.01) rotate(180)"/><rect class="cls-2" x="2489.68" y="1368.23" width="18.13" height="25.55" transform="translate(4997.49 2762.01) rotate(180)"/><rect class="cls-2" x="2458.26" y="1368.23" width="18.13" height="25.55" transform="translate(4934.65 2762.01) rotate(180)"/><rect class="cls-2" x="2426.24" y="1368.23" width="18.13" height="25.55" transform="translate(4870.61 2762.01) rotate(180)"/><rect class="cls-2" x="2393.86" y="1368.23" width="18.13" height="25.55" transform="translate(4805.84 2762.01) rotate(180)"/><rect class="cls-2" x="2359.96" y="1368.23" width="18.13" height="25.55" transform="translate(4738.05 2762.01) rotate(180)"/><rect class="cls-2" x="2326.83" y="1368.23" width="18.13" height="25.55" transform="translate(4671.78 2762.01) rotate(180)"/><rect class="cls-2" x="2295.41" y="1368.23" width="18.13" height="25.55" transform="translate(4608.95 2762.01) rotate(180)"/><rect class="cls-2" x="2263.39" y="1368.23" width="18.13" height="25.55" transform="translate(4544.9 2762.01) rotate(180)"/><rect class="cls-2" x="2556.71" y="1413.31" width="18.13" height="25.55" transform="translate(5131.55 2852.17) rotate(180)"/><rect class="cls-2" x="2522.82" y="1413.31" width="18.13" height="25.55" transform="translate(5063.76 2852.17) rotate(180)"/><rect class="cls-2" x="2489.68" y="1413.31" width="18.13" height="25.55" transform="translate(4997.49 2852.17) rotate(180)"/><rect class="cls-2" x="2458.26" y="1413.31" width="18.13" height="25.55" transform="translate(4934.65 2852.17) rotate(180)"/><rect class="cls-2" x="2426.24" y="1413.31" width="18.13" height="25.55" transform="translate(4870.61 2852.17) rotate(180)"/><rect class="cls-2" x="2393.86" y="1413.31" width="18.13" height="25.55" transform="translate(4805.84 2852.17) rotate(180)"/><rect class="cls-2" x="2359.96" y="1413.31" width="18.13" height="25.55" transform="translate(4738.05 2852.17) rotate(180)"/><rect class="cls-2" x="2326.83" y="1413.31" width="18.13" height="25.55" transform="translate(4671.78 2852.17) rotate(180)"/><rect class="cls-2" x="2295.41" y="1413.31" width="18.13" height="25.55" transform="translate(4608.95 2852.17) rotate(180)"/><rect class="cls-2" x="2263.39" y="1413.31" width="18.13" height="25.55" transform="translate(4544.9 2852.17) rotate(180)"/><rect class="cls-2" x="2556.71" y="1457.7" width="18.13" height="25.55" transform="translate(5131.55 2940.95) rotate(180)"/><rect class="cls-2" x="2522.82" y="1457.7" width="18.13" height="25.55" transform="translate(5063.76 2940.95) rotate(180)"/><rect class="cls-2" x="2489.68" y="1457.7" width="18.13" height="25.55" transform="translate(4997.49 2940.95) rotate(180)"/><rect class="cls-2" x="2458.26" y="1457.7" width="18.13" height="25.55" transform="translate(4934.65 2940.95) rotate(180)"/><rect class="cls-2" x="2426.24" y="1457.7" width="18.13" height="25.55" transform="translate(4870.61 2940.95) rotate(180)"/><rect class="cls-2" x="2393.86" y="1457.7" width="18.13" height="25.55" transform="translate(4805.84 2940.95) rotate(180)"/><rect class="cls-2" x="2359.96" y="1457.7" width="18.13" height="25.55" transform="translate(4738.05 2940.95) rotate(180)"/><rect class="cls-2" x="2326.83" y="1457.7" width="18.13" height="25.55" transform="translate(4671.78 2940.95) rotate(180)"/><rect class="cls-2" x="2295.41" y="1457.7" width="18.13" height="25.55" transform="translate(4608.95 2940.95) rotate(180)"/><rect class="cls-2" x="2263.39" y="1457.7" width="18.13" height="25.55" transform="translate(4544.9 2940.95) rotate(180)"/><rect class="cls-1" x="2556.71" y="1289.9" width="15.23" height="26.35" transform="translate(5128.65 2606.15) rotate(180)"/><rect class="cls-1" x="2405.5" y="1289.9" width="15.23" height="26.35" transform="translate(4826.23 2606.15) rotate(180)"/><rect class="cls-1" x="2285.21" y="1289.9" width="15.23" height="26.35" transform="translate(4585.66 2606.15) rotate(180)"/><path class="cls-10" d="M3379.52,1543.92H3189.73c-10.17-8.62,7-28.22,25-29.53,7.81-.59,17.68,1,29,3.43,2.61-34.69,17.52-190.63,73.73-184.37,63.2,7,0,68.68-17.87,105.18-13.23,27-27.19,65.81-33.57,84.11,5.13,1.11,10.44,2.2,15.87,3.2,8.37-25.72,39.54-112.23,79.18-107.2,46.54,5.91,27.83,40.59-5.15,61.19-24.2,15.14-53.92,36.66-68,47.06a201.43,201.43,0,0,0,37.12,3C3357.5,1529.19,3373.36,1538.77,3379.52,1543.92Z"/><path class="cls-11" d="M2525,505.5s-6.1-29.29-21.35-36-24.41-33.55-30.51-26.23,1.84,56.13,13.43,62.23,17.08,12.4,17.08,12.4Z"/><path class="cls-12" d="M2786.8,389s-97.22,169.58-132.5,200.78L2525,493.31s-18.77,5.75-27,24.59c0,0,78.53,160,155.86,166.8s185.86-191.79,185.86-191.79Z"/><path class="cls-13" d="M3087.68,1438.19s22.48,20.84,18.1,35.64-24.68,24.67-27.42,42.76-13.7,28-23.57,28h-47.05s-7.27-12.74,10.28-16.57,24.16-25.1,23.06-44.84,1.64-46.05,1.64-46.05l37.29-8.77Z"/><path class="cls-13" d="M2807.52,1543.8a13.69,13.69,0,0,1-3.34.9H2680.1c1-4.33,4.78-13.25,20-15.72,19.65-3.19,53.71-14.6,61.3-39.73.24-.81.46-1.64.65-2.47,6-26.87,49.89,8.22,49.89,8.22s.13,1.06.32,2.89C2813.24,1507.76,2815.85,1539.63,2807.52,1543.8Z"/><path class="cls-14" d="M2705.28,825.24s6.66,83.11,14.49,183c10.64,135.71,23.44,302.41,24.7,334,2.19,54.84,11,142.56,11,142.56s20.83,20.83,62.51,12c0,0,37.14-125.22,47.74-257.7.17-2.17.33-4.36.5-6.55,9.87-134.87,25.21-418.87,25.21-418.87Z"/><path class="cls-15" d="M2705.28,825.24s6.66,83.11,14.49,183l145.92,230.9c.17-2.17.33-4.36.5-6.55,9.87-134.87,25.21-418.87,25.21-418.87Z"/><path class="cls-14" d="M2735.7,835.11s120.07,301,199,442.44,103.62,180.93,103.62,180.93,45.23-18.09,49.34-30.43c0,0-30.19-273.08-83.06-339.65-29.87-37.61-65-150.49-66.61-190s-10.69-117.6-10.69-117.6Z"/><path class="cls-11" d="M2797.28,370.49c-5.34-31.52-5.5-50.2-5.5-50.2l60.92-49.09c-2.27,67.51,41,100,41,100s-81.18,40-128.1,25.16A112.36,112.36,0,0,1,2797.28,370.49Z"/><path class="cls-16" d="M2777.43,319.18s77.5,12.87,84.77-35.51,22.18-79.32-27-89.58-61.59,6.75-67.95,22.31S2757.46,314.58,2777.43,319.18Z"/><path class="cls-12" d="M2700.1,832.16A7.54,7.54,0,0,0,2705,834c17.62-.24,69,9.55,112.48,5.08,36.65-3.52,69.09-14.37,103.92-30,4.63-2.07,15.28-7.75,15-12.92-.16-5.67-.72-13.88-1.43-24.22-2.46-36-6.76-97.8-2.57-169.15.75-13.29,1.15-26.47,1.2-39.44.35-96.71-18.82-181.76-57.35-210.55-3.29-2.36-23.5,7.52-42.06,16.67-17.16,8.47-34.31,9.4-50.51,6.12L2767.54,390c-19.74,18.32-41.36,43.23-50.75,81.06-8,32.18-12.69,90.22-15.28,150.37-1.17,27.26-2.11,54.75-2.35,80.83v.94c-.23,2.58-.23,5.41-.23,8C2698,778.12,2698.93,831.22,2700.1,832.16Z"/><path class="cls-17" d="M2935,772c-2.46-36-6.76-97.8-2.57-169.15.75-13.29,1.15-26.47,1.2-39.44-16.06-38.94-29.17-67.18-29.17-67.18H2864S2834.38,698.82,2935,772Z"/><path class="cls-13" d="M3200.16,952.53l-10.78-75.64a41.51,41.51,0,0,0-46.83-35.14l-59.3,8.45L3081,834.07a13.69,13.69,0,0,0-15.46-11.6L3014,829.81a13.69,13.69,0,0,0-11.6,15.46l2.3,16.12-34.36,4.9a40.58,40.58,0,0,0-4,.78l-18.86,2.68a41.38,41.38,0,0,0-35,46.65l10.66,74.78a41.36,41.36,0,0,0,46.65,35l14.09-2a40.72,40.72,0,0,0,8.94-.28L3165,999.35A41.52,41.52,0,0,0,3200.16,952.53Zm-185-114.24,51.53-7.34a4.9,4.9,0,0,1,1.53,0,5.11,5.11,0,0,1,4.24,4.31l2.3,16.13-61.64,8.79-2.3-16.13A5.11,5.11,0,0,1,3015.18,838.29Z"/><path class="cls-16" d="M3013.75,784.59l7.68,13.23s-15,31.87,20.65,43.77c0,0,15.36,3.88,16.67-6.77s-.95-6.46,1.28-21.49-3.64-28.42-14.73-32l-8.75-8.37Z"/><path class="cls-12" d="M3034.12,788.2c-14.57,2.84-30.37,1.7-30.37,1.7s-43.25-133.62-48.81-145.82-128.48-156.67-128.48-156.67l51.2-128.13S3010.6,581.33,3024.1,612.53c22.3,51.56,30,167.16,30,167.16A55.66,55.66,0,0,1,3034.12,788.2Z"/><path class="cls-13" d="M2862.27,279s-8-1.33-6.67-12.28,1.26-25.28-7.64-22.61-9.35,9.8-13,5.64-3.73-21.71-30.23-22.93-37.27,8-49.59,2.58-13-24.07-13-24.07,3.51,6.66,8.8,8.78c0,0-20.56-28.12,3.25-47.4s48.07-6.66,61.85-5.83c30.35,1.84,49.95,3.66,59.87,23.6S2881.74,259.81,2862.27,279Z"/><path class="cls-13" d="M2519.79,479.78l-31.53-64a2.51,2.51,0,0,0-3.36-1.14l-17.55,8.65a2.51,2.51,0,0,0-1.14,3.36l31.53,64a2.51,2.51,0,0,0,3.36,1.14l17.55-8.65A2.51,2.51,0,0,0,2519.79,479.78Z"/><path class="cls-13" d="M2503.45,488.5l-32-65a1.91,1.91,0,0,0-2.56-.86l-10.29,5.07a1.91,1.91,0,0,0-.87,2.56l32.06,65a1.9,1.9,0,0,0,2.56.87l10.28-5.07A1.91,1.91,0,0,0,2503.45,488.5Z"/><path class="cls-10" d="M2378.78,1078.24c-136.83,33.24-246.27,194.44-308.45,309a198,198,0,0,1-21-28.06c26.24-59.38,77.12-187,27.85-182.7-42.87,3.7-46.94,92.39-44.93,154.1-34.83-60.43-74.18-130.46-185.73-126-184.57,7.38-241.5,199.33-369.69,195.6S957,1347.49,879.93,1544.63h1349.4c-4.41-12.11-12.17-60.93-48.23-96.36q9.92-3.36,20.58-6.85c114.35-37.24,71.61-75.77,71.61-75.77-53.64,0-102.7,24.09-141.85,52.39a149.11,149.11,0,0,0-17.67-4.73,71.3,71.3,0,0,1-19.42-7c67.68-77.77,165.24-176.93,241.54-202,52.21-17.15,78.4-40.63,90.86-63C2445.15,1108.15,2415.61,1069.28,2378.78,1078.24Z"/><path class="cls-12" d="M795.62,380.83a178,178,0,0,0-178,178c0,98.29,178,316.81,178,316.81s178-218.52,178-316.81A178,178,0,0,0,795.62,380.83Zm0,259.36A83.19,83.19,0,1,1,878.8,557,83.19,83.19,0,0,1,795.62,640.19Z"/><path class="cls-13" d="M443.23,1338.51c-38.23,0-112.74,46.92-112.74,104.8s31,104.8,69.22,104.8h43.52c38.23,0,69.22-46.93,69.22-104.8S481.46,1338.51,443.23,1338.51Z"/><path class="cls-18" d="M1263.68,1464.25H884.81a202,202,0,0,0,2.78-33.88c0-85.72-51.46-155.24-114.86-155.24S658,1344.65,658,1430.37a200.93,200.93,0,0,0,2.79,33.88H499.33s-50.19-124.77,0-167.9,330.31-72.52,330.31-72.52,106.28-138.36,171.3-181.36c11.12-7.35,31.41-12.65,57.6-16.6,136,17.69,140.93,160.55,218.58,184.36C1358.25,1235.13,1263.68,1464.25,1263.68,1464.25Z"/><path class="cls-13" d="M902.78,1415.53c0,63-32.51,132.57-32.51,132.57h-55c-48.36,0-87.57-59.35-87.57-132.57S821.9,1283,870.27,1283,902.78,1342.32,902.78,1415.53Z"/><ellipse class="cls-19" cx="870.27" cy="1415.53" rx="87.57" ry="132.57"/><path class="cls-13" d="M935.12,1415.53c0,55.16-29.53,99.86-66,99.86s-66-44.7-66-99.86,29.53-99.85,66-99.85S935.12,1360.39,935.12,1415.53Z"/><path class="cls-12" d="M1371.41,1464.25H992.54a200.94,200.94,0,0,0,2.78-33.88c0-85.72-51.46-155.24-114.85-155.24s-114.74,69.52-114.74,155.24a202,202,0,0,0,2.78,33.88H195s-50.3-124.77,0-167.9,342-84.9,342-84.9,133-98.68,198.14-141.68,412.14-45.53,412.14-45.53c6.6.27,13,.82,19,1.63,136,17.69,140.94,160.55,218.59,184.36C1466,1235.13,1371.41,1464.25,1371.41,1464.25Z"/><path class="cls-17" d="M1371.41,1464.25H992.54a200.94,200.94,0,0,0,2.78-33.88c0-85.72-51.46-155.24-114.85-155.24s-114.74,69.52-114.74,155.24a202,202,0,0,0,2.78,33.88H607.06s-50.18-124.77,0-167.9,330.31-72.52,330.31-72.52,106.28-138.36,171.3-181.36c11.13-7.35,31.41-12.65,57.6-16.6,136,17.69,140.94,160.55,218.59,184.36C1466,1235.13,1371.41,1464.25,1371.41,1464.25Z"/><path class="cls-2" d="M993.5,1210.23s110.18-166.27,178.55-156.89c111.56,15.3,147.79,136.17,147.79,136.17S1222.4,1195.77,993.5,1210.23Z"/><path class="cls-1" d="M1079.66,1046.51a9,9,0,0,1-.82.69c-8.84,6.93-89.11,70.74-145,143.81l-349,6c9.93-7.89,22-17.42,35.1-27.75,52.38-41.09,121-93.75,133.88-98,15-4.75,72.38-14.15,126.13-18.36,4.49-.41,9.11-.69,13.74-1.09,49.66-3.4,101-4.62,137-5h3.4C1061.7,1046.38,1079.66,1046.51,1079.66,1046.51Z"/><path class="cls-6" d="M555.46,1348.69v4.36a25.93,25.93,0,0,1-25.72,26.12H398.59a26,26,0,0,1-25.71-26.12v-4.36a26,26,0,0,1,25.71-26.12H529.74A25.93,25.93,0,0,1,555.46,1348.69Z"/><path class="cls-1" d="M555.46,1348.69v4.36a25.93,25.93,0,0,1-25.72,26.12H413.46a25.94,25.94,0,0,1-25.72-26.12v-4.36a25.94,25.94,0,0,1,25.72-26.12H529.74A25.93,25.93,0,0,1,555.46,1348.69Z"/><path class="cls-6" d="M291.05,1348.69v4.36c0,14.42-6.41,26.12-14.31,26.12h-73c-7.83,0-14.31-11.7-14.31-26.12v-4.36c0-14.42,6.48-26.12,14.31-26.12h73C284.64,1322.57,291.05,1334.27,291.05,1348.69Z"/><path class="cls-1" d="M291.05,1348.69v4.36c0,14.42-6.41,26.12-14.31,26.12H212.05c-7.9,0-14.31-11.7-14.31-26.12v-4.36c0-14.42,6.41-26.12,14.31-26.12h64.69C284.64,1322.57,291.05,1334.27,291.05,1348.69Z"/><path class="cls-2" d="M1078.84,1047.2c-8.84,6.93-89.11,70.74-145,143.81l-349,6c9.93-7.89,22-17.42,35.1-27.75,79.19-19.87,207-59,273.75-117.42,49.66-3.4,101-4.62,137-5h3.4Z"/><rect class="cls-20" x="1126.21" y="67.31" width="778.54" height="1477.25" rx="31.87"/><rect class="cls-21" x="1201.68" y="67.31" width="778.54" height="1477.25" rx="31.87"/><path class="cls-22" d="M1705.05,123.23H1502.67a7.88,7.88,0,1,0,0,15.75h202.38a7.88,7.88,0,0,0,0-15.75Z"/><path class="cls-22" d="M1466.72,123.23a7.88,7.88,0,1,0,7.87,7.88A7.9,7.9,0,0,0,1466.72,123.23Z"/><path class="cls-20" d="M1549.81,1462.94a50.79,50.79,0,1,1,50.78,50.79A50.79,50.79,0,0,1,1549.81,1462.94Z"/><rect class="cls-1" x="1266.48" y="184.45" width="647.29" height="1194.86"/><rect class="cls-1" x="1266.48" y="1240.7" width="647.29" height="138.71"/><path class="cls-21" d="M1933.1,1005.32,1798.73,785.11c30-20.6,49.55-48.77,58.1-84,24.69-101.78-51.73-232.6-77.14-272.32a90.83,90.83,0,1,0-150.06-38.3c-97.75,56.65-203.28,116.24-240.58,134.84l-111.8-186.54a18.85,18.85,0,0,0-32.33,19.38L1412.45,637.7a67.26,67.26,0,0,0,89.73,24.68L1608.78,605a32.35,32.35,0,0,1,43,11.63l94.53,154.91C1556.14,872.28,1283,1016,1262,1024.22a18.85,18.85,0,0,0,5.43,36.9,19.11,19.11,0,0,0,4.34-.51c4.79-1.13,12-2.83,263-134.78,97.24-51.13,194.27-102.5,231.26-122.09l135,221.21a18.84,18.84,0,0,0,32.17-19.63ZM1716.45,310.44a53.19,53.19,0,1,1-53.19,53.19A53.25,53.25,0,0,1,1716.45,310.44ZM1590.9,571.77l-106.6,57.42a29.62,29.62,0,0,1-39.52-10.87l-36.33-60.61c19-9.57,54.9-28.92,125.19-68.76,46.89-26.57,92.82-53.06,114.41-65.56a90.82,90.82,0,0,0,99.72,25.55,641.83,641.83,0,0,1,43,79.66c20.47,45.7,42.19,111.2,29.42,163.69-6.18,25.44-19.69,45.38-41.12,60.58L1683.92,597A70.05,70.05,0,0,0,1590.9,571.77Z"/><path class="cls-21" d="M1775.67,334.52a5.55,5.55,0,0,1-2.71-10.39l149.68-83.61a5.54,5.54,0,1,1,5.4,9.68l-149.67,83.61A5.51,5.51,0,0,1,1775.67,334.52Z"/><path class="cls-21" d="M1678.2,309.66a5.56,5.56,0,0,1-4.61-2.44l-54.75-81.31a5.54,5.54,0,0,1,9.2-6.19l54.75,81.3a5.54,5.54,0,0,1-4.59,8.64Z"/><path class="cls-21" d="M1664,1251.61a5.53,5.53,0,0,1-4.73-2.65L1472.06,943a5.54,5.54,0,0,1,9.45-5.79l187.17,306a5.54,5.54,0,0,1-4.73,8.43Z"/><circle class="cls-21" cx="1716.45" cy="363.63" r="26.27" transform="translate(968.19 1950.61) rotate(-76.72)"/><path class="cls-5" d="M1589.05,1239.27l-83.53-136.91a79.78,79.78,0,0,0-104.89-29.23l-133.24,69.27v98.85Z"/><path class="cls-5" d="M1267.39,956.76c-.74-6.68,260.66-141.61,354.31-189.72a33.36,33.36,0,0,0,12.71-47.86l-5-7.73A24.33,24.33,0,0,0,1598,703l-126,63.49a54.15,54.15,0,0,1-70.09-19.35L1266.48,522.91Z"/><path class="cls-5" d="M1335.12,299.13,1397.67,406a46.69,46.69,0,0,0,63,17.18l65.86-36.78a46.76,46.76,0,0,0,23.75-36.76c1.35-15.08,5-34.86,14.31-51.69a46.45,46.45,0,0,0-1.17-46.72l0,0a46.67,46.67,0,0,0-39.81-22.31H1375.41C1339.35,228.86,1316.91,268,1335.12,299.13Z"/><path class="cls-5" d="M1913.78,341.25V598.11c-14.63-53.76-40.24-102.17-56.35-129.45a50.88,50.88,0,0,1-3.31-44.52,158,158,0,0,0,9.37-40.06,42.82,42.82,0,0,1,29.38-36Z"/><path class="cls-5" d="M1889.59,780.75a145.47,145.47,0,0,0,24.19-41.1V883.84l-29.41-61.6A38.74,38.74,0,0,1,1889.59,780.75Z"/><path class="cls-5" d="M1913.78,1125.64v115.61H1776.71l-145.92-224a59.33,59.33,0,0,1,20.72-84.14l41.1-23a76.82,76.82,0,0,1,102.67,26.27Z"/><path class="cls-5" d="M1479.33,555.29l136.93-73.82a25,25,0,0,1,21.81-.92c17.61,7.66,53.23,21.42,81.5,21.27a25,25,0,0,1,22.61,14.07c10.25,21.09,28,60.24,37.6,97.29,7,26.75-28.34,43.26-44.47,20.82l-61.43-85.46a25,25,0,0,0-30-8.44l-143,60.2a25,25,0,0,1-31.45-10.77h0A25,25,0,0,1,1479.33,555.29Z"/><path class="cls-10" d="M1758,1275.58H1423.92a7,7,0,0,0-7,7h0a7,7,0,0,0,7,7H1758a7,7,0,0,0,7-7h0A7,7,0,0,0,1758,1275.58Z"/><path class="cls-10" d="M1758,1306.34H1423.92a7,7,0,1,0,0,14H1758a7,7,0,1,0,0-14Z"/><path class="cls-10" d="M1333.9,1255.6a29.89,29.89,0,0,0-29.88,29.89c0,16.5,29.88,53.19,29.88,53.19s29.88-36.69,29.88-53.19A29.88,29.88,0,0,0,1333.9,1255.6Zm0,43.55a14,14,0,1,1,14-14A14,14,0,0,1,1333.9,1299.15Z"/><path class="cls-12" d="M1555.11,693.52a29.88,29.88,0,0,0-29.88,29.88c0,16.51,29.88,53.2,29.88,53.2S1585,739.91,1585,723.4A29.88,29.88,0,0,0,1555.11,693.52Zm0,43.54a14,14,0,1,1,14-14A14,14,0,0,1,1555.11,737.06Z"/><path class="cls-12" d="M1585,673.15a3.33,3.33,0,0,1-2.48-5.54q1.65-1.85,3.3-3.66a3.32,3.32,0,1,1,4.93,4.46l-3.27,3.64A3.33,3.33,0,0,1,1585,673.15Zm14.6-16a3.33,3.33,0,0,1-2.44-5.6c3.82-4.1,7.7-8.2,11.53-12.2a3.32,3.32,0,1,1,4.8,4.6c-3.81,4-7.66,8.06-11.46,12.14A3.31,3.31,0,0,1,1599.59,657.17ZM1622.75,633a3.33,3.33,0,0,1-2.37-5.66c3.94-4,7.94-8,11.89-11.86a3.33,3.33,0,0,1,4.66,4.75c-3.93,3.85-7.91,7.82-11.82,11.78A3.31,3.31,0,0,1,1622.75,633Zm23.88-23.45a3.32,3.32,0,0,1-2.29-5.73c4.06-3.87,8.18-7.73,12.26-11.48a3.33,3.33,0,0,1,4.5,4.9c-4,3.72-8.14,7.56-12.18,11.4A3.31,3.31,0,0,1,1646.63,609.55Zm24.62-22.67a3.33,3.33,0,0,1-2.21-5.81c4.18-3.72,8.43-7.44,12.63-11.06a3.33,3.33,0,1,1,4.34,5c-4.18,3.6-8.4,7.29-12.55,11A3.32,3.32,0,0,1,1671.25,586.88Zm25.37-21.83a3.32,3.32,0,0,1-2.12-5.88c4.29-3.58,8.67-7.15,13-10.62a3.33,3.33,0,0,1,4.16,5.19c-4.31,3.45-8.65,7-12.92,10.54A3.31,3.31,0,0,1,1696.62,565.05Zm26.12-20.93a3.33,3.33,0,0,1-2-6c4.43-3.42,8.94-6.83,13.39-10.14a3.32,3.32,0,0,1,4,5.34c-4.41,3.28-8.89,6.67-13.29,10.07A3.34,3.34,0,0,1,1722.74,544.12Zm26.87-20a3.33,3.33,0,0,1-1.93-6c4.55-3.24,9.18-6.49,13.76-9.63a3.33,3.33,0,1,1,3.76,5.49c-4.55,3.12-9.15,6.33-13.66,9.56A3.38,3.38,0,0,1,1749.61,524.17Zm27.61-18.92a3.33,3.33,0,0,1-1.83-6.11c4.68-3.06,9.43-6.12,14.14-9.08a3.33,3.33,0,0,1,3.54,5.64c-4.67,2.93-9.39,6-14,9A3.34,3.34,0,0,1,1777.22,505.25Zm28.34-17.8a3.33,3.33,0,0,1-1.71-6.18c4.79-2.88,9.67-5.74,14.5-8.5a3.33,3.33,0,1,1,3.3,5.78c-4.78,2.73-9.62,5.57-14.38,8.42A3.3,3.3,0,0,1,1805.56,487.45Zm29-16.62a3.33,3.33,0,0,1-1.59-6.25c4.91-2.67,9.9-5.32,14.85-7.88a3.33,3.33,0,0,1,3.05,5.91c-4.9,2.53-9.85,5.16-14.72,7.81A3.25,3.25,0,0,1,1834.61,470.83Zm29.74-15.37a3.33,3.33,0,0,1-1.47-6.31c5-2.46,10.12-4.89,15.18-7.23a3.33,3.33,0,0,1,2.79,6c-5,2.32-10.07,4.73-15,7.16A3.32,3.32,0,0,1,1864.35,455.46Zm30.37-14a3.32,3.32,0,0,1-1.33-6.37c5.14-2.24,10.35-4.44,15.49-6.54a3.32,3.32,0,1,1,2.52,6.15c-5.1,2.09-10.26,4.27-15.35,6.48A3.28,3.28,0,0,1,1894.72,441.41Zm537.65-9a3.28,3.28,0,0,1-1.45-.34c-.05,0-5.39-2.6-15.2-6.52a3.32,3.32,0,1,1,2.47-6.17c10.06,4,15.41,6.6,15.64,6.71a3.33,3.33,0,0,1-1.46,6.32Zm-506.67-3.67a3.32,3.32,0,0,1-1.18-6.43c5.22-2,10.53-4,15.77-5.82a3.32,3.32,0,1,1,2.23,6.26c-5.19,1.85-10.45,3.79-15.63,5.77A3.3,3.3,0,0,1,1925.7,428.74Zm475.58-8.86a3.38,3.38,0,0,1-1.12-.19c-5.1-1.83-10.41-3.63-15.76-5.37a3.33,3.33,0,1,1,2-6.33c5.42,1.76,10.78,3.58,16,5.43a3.33,3.33,0,0,1-1.12,6.46Zm-444.05-2.36a3.33,3.33,0,0,1-1-6.49c5.31-1.75,10.7-3.46,16-5.08a3.32,3.32,0,1,1,1.94,6.36c-5.28,1.61-10.62,3.3-15.88,5A3.49,3.49,0,0,1,1957.23,417.52Zm412.19-8a3.38,3.38,0,0,1-.94-.13c-5.28-1.55-10.68-3.05-16.05-4.47a3.33,3.33,0,0,1,1.7-6.44c5.43,1.44,10.89,3,16.22,4.52a3.33,3.33,0,0,1-.93,6.52Zm-380.17-1.77a3.33,3.33,0,0,1-.89-6.53c5.38-1.5,10.85-2.95,16.26-4.32a3.33,3.33,0,0,1,1.63,6.45c-5.36,1.35-10.78,2.79-16.1,4.28A3.48,3.48,0,0,1,1989.25,407.78ZM2337,401a3.44,3.44,0,0,1-.77-.09c-5.37-1.28-10.84-2.51-16.26-3.66a3.32,3.32,0,0,1,1.38-6.5c5.47,1.15,11,2.4,16.42,3.68A3.33,3.33,0,0,1,2337,401Zm-315.34-1.41A3.33,3.33,0,0,1,2021,393c5.44-1.24,11-2.43,16.44-3.54a3.33,3.33,0,1,1,1.32,6.52c-5.41,1.1-10.89,2.28-16.28,3.51A3.82,3.82,0,0,1,2021.7,399.57ZM2304.28,394a3.15,3.15,0,0,1-.61-.06c-5.42-1-11-2-16.42-2.85a3.33,3.33,0,0,1,1.06-6.57c5.53.9,11.1,1.86,16.58,2.89a3.32,3.32,0,0,1-.61,6.59Zm-249.77-1.12a3.33,3.33,0,0,1-.58-6.6c5.5-1,11.08-1.9,16.59-2.74a3.33,3.33,0,0,1,1,6.58c-5.46.83-11,1.74-16.44,2.71A2.84,2.84,0,0,1,2054.51,392.92Zm216.71-4.22-.45,0c-5.48-.75-11-1.44-16.54-2.06A3.33,3.33,0,1,1,2255,380c5.54.62,11.16,1.32,16.69,2.08a3.33,3.33,0,0,1-.45,6.62Zm-183.62-.83a3.33,3.33,0,0,1-.42-6.63c5.54-.71,11.16-1.36,16.7-1.94a3.33,3.33,0,1,1,.69,6.62c-5.49.57-11.05,1.21-16.55,1.92A3,3,0,0,1,2087.6,387.87ZM2238,385h-.3c-5.51-.49-11.1-.92-16.61-1.27a3.33,3.33,0,1,1,.43-6.64c5.56.36,11.2.79,16.77,1.28A3.33,3.33,0,0,1,2238,385Zm-117.06-.54a3.33,3.33,0,0,1-.26-6.64c5.57-.45,11.22-.83,16.79-1.14a3.33,3.33,0,0,1,.36,6.65c-5.51.3-11.1.68-16.62,1.12Zm83.65-1.61h-.14c-5.52-.22-11.12-.38-16.66-.47a3.33,3.33,0,0,1,.06-6.66h.06c5.58.09,11.24.25,16.81.48a3.33,3.33,0,0,1-.13,6.65Zm-50.22-.24a3.33,3.33,0,0,1-.1-6.65c5.57-.17,11.22-.28,16.82-.33a3.33,3.33,0,0,1,.05,6.66c-5.54,0-11.15.15-16.66.32Z"/><path class="cls-12" d="M844.43,869.56a3.33,3.33,0,0,1-2-6c.19-.15,4.87-3.77,13.74-10a3.32,3.32,0,0,1,3.82,5.44c-8.72,6.12-13.44,9.77-13.49,9.8A3.31,3.31,0,0,1,844.43,869.56ZM871.9,850.2a3.32,3.32,0,0,1-1.85-6.09c4.57-3,9.32-6.13,14.11-9.19a3.33,3.33,0,0,1,3.58,5.61c-4.76,3-9.47,6.1-14,9.12A3.35,3.35,0,0,1,871.9,850.2Zm28.28-18a3.32,3.32,0,0,1-1.74-6.16c4.73-2.9,9.59-5.81,14.42-8.65a3.32,3.32,0,1,1,3.37,5.73c-4.8,2.82-9.62,5.71-14.32,8.59A3.32,3.32,0,0,1,900.18,832.16Zm28.89-17a3.32,3.32,0,0,1-1.64-6.22c4.84-2.74,9.78-5.48,14.7-8.16a3.33,3.33,0,0,1,3.18,5.85c-4.89,2.65-9.8,5.38-14.61,8.1A3.31,3.31,0,0,1,929.07,815.16Zm29.44-16a3.33,3.33,0,0,1-1.55-6.27c4.93-2.57,10-5.15,15-7.66a3.33,3.33,0,1,1,3,5.94c-5,2.49-10,5.06-14.86,7.62A3.42,3.42,0,0,1,958.51,799.14Zm29.94-15a3.32,3.32,0,0,1-1.44-6.32c5-2.42,10.12-4.83,15.2-7.17a3.33,3.33,0,0,1,2.79,6c-5,2.32-10.13,4.72-15.11,7.12A3.33,3.33,0,0,1,988.45,784.11Zm30.42-14a3.33,3.33,0,0,1-1.34-6.37c5.09-2.24,10.28-4.48,15.43-6.65a3.33,3.33,0,0,1,2.58,6.13c-5.11,2.15-10.27,4.38-15.33,6.61A3.32,3.32,0,0,1,1018.87,770.07Zm30.87-13a3.32,3.32,0,0,1-1.24-6.41c5.17-2.08,10.43-4.14,15.65-6.13a3.33,3.33,0,1,1,2.37,6.22c-5.18,2-10.41,4-15.54,6.08A3.41,3.41,0,0,1,1049.74,757.07Zm31.3-11.93a3.32,3.32,0,0,1-1.13-6.45c5.25-1.9,10.58-3.77,15.86-5.57a3.33,3.33,0,0,1,2.14,6.3c-5.24,1.79-10.53,3.64-15.74,5.52A3.17,3.17,0,0,1,1081,745.14Zm31.7-10.8a3.32,3.32,0,0,1-1-6.49c5.33-1.71,10.73-3.38,16-5a3.33,3.33,0,1,1,1.91,6.37c-5.28,1.59-10.64,3.25-15.93,4.94A3.29,3.29,0,0,1,1112.74,734.34Zm32.08-9.61a3.33,3.33,0,0,1-.89-6.53c5.39-1.51,10.86-3,16.24-4.36a3.33,3.33,0,0,1,1.66,6.44c-5.34,1.38-10.76,2.83-16.11,4.33A3.48,3.48,0,0,1,1144.82,724.73Zm32.43-8.37a3.32,3.32,0,0,1-.77-6.56c5.45-1.29,11-2.54,16.4-3.71a3.33,3.33,0,0,1,1.4,6.51c-5.39,1.16-10.86,2.4-16.26,3.67A2.94,2.94,0,0,1,1177.25,716.36Zm315.18-4.46a3.33,3.33,0,0,1-.76-.08c-5.37-1.25-10.84-2.44-16.26-3.54a3.33,3.33,0,0,1,1.32-6.52c5.48,1.12,11,2.32,16.44,3.58a3.32,3.32,0,0,1-.74,6.56ZM1210,709.32a3.33,3.33,0,0,1-.63-6.59c5.51-1.07,11.07-2.09,16.54-3a3.33,3.33,0,0,1,1.13,6.56c-5.43.93-10.94,1.94-16.4,3A3.55,3.55,0,0,1,1210,709.32Zm249.65-4.08a3.9,3.9,0,0,1-.58,0c-5.43-1-11-1.85-16.43-2.66a3.33,3.33,0,0,1,1-6.58c5.53.82,11.12,1.72,16.61,2.69a3.33,3.33,0,0,1-.57,6.6ZM1243,703.66a3.33,3.33,0,0,1-.49-6.62c5.54-.83,11.15-1.6,16.66-2.3a3.33,3.33,0,1,1,.83,6.6c-5.46.69-11,1.46-16.51,2.28A2.7,2.7,0,0,1,1243,703.66Zm183.54-3.32-.4,0c-5.48-.67-11-1.26-16.55-1.78a3.33,3.33,0,0,1,.62-6.63c5.56.53,11.19,1.13,16.73,1.8a3.33,3.33,0,0,1-.4,6.63Zm-150.33-.88a3.33,3.33,0,0,1-.34-6.64c5.57-.58,11.21-1.09,16.75-1.54a3.33,3.33,0,1,1,.53,6.63c-5.49.44-11.07,1-16.59,1.53Zm117-2.26H1393c-5.5-.38-11.09-.68-16.62-.92a3.32,3.32,0,0,1-3.18-3.46,3.28,3.28,0,0,1,3.46-3.18c5.59.23,11.24.54,16.8.92a3.33,3.33,0,0,1-.23,6.65Zm-83.64-.42a3.33,3.33,0,0,1-.18-6.65c5.58-.31,11.24-.56,16.8-.74a3.33,3.33,0,0,1,.22,6.65c-5.52.17-11.12.42-16.64.74Zm50.2-1h-.06c-5.51-.1-11.12-.12-16.65-.08h0a3.33,3.33,0,0,1,0-6.65c5.59,0,11.24,0,16.82.08a3.33,3.33,0,0,1-.06,6.65Z"/><path class="cls-11" d="M2477.47,491s22.17-28.05,10.61-44.29c-2.54-3.58-17.08,12.67-17.08,12.67S2475.24,485.47,2477.47,491Z"/><rect class="cls-13" y="1544.63" width="3565.73" height="9.46" rx="0.53"/></g></g></svg>