<?xml version="1.0" encoding="UTF-8" standalone="no"?>
<svg
   xmlns:dc="http://purl.org/dc/elements/1.1/"
   xmlns:cc="http://creativecommons.org/ns#"
   xmlns:rdf="http://www.w3.org/1999/02/22-rdf-syntax-ns#"
   xmlns:svg="http://www.w3.org/2000/svg"
   xmlns="http://www.w3.org/2000/svg"
   xmlns:sodipodi="http://sodipodi.sourceforge.net/DTD/sodipodi-0.dtd"
   xmlns:inkscape="http://www.inkscape.org/namespaces/inkscape"
   version="1.1"
   id="svg2"
   xml:space="preserve"
   width="4266.6665"
   height="2666.6667"
   viewBox="0 0 4266.6665 2666.6667"
   sodipodi:docname="Магнит.eps"><metadata
     id="metadata8"><rdf:RDF><cc:Work
         rdf:about=""><dc:format>image/svg+xml</dc:format><dc:type
           rdf:resource="http://purl.org/dc/dcmitype/StillImage" /></cc:Work></rdf:RDF></metadata><defs
     id="defs6" /><sodipodi:namedview
     pagecolor="#ffffff"
     bordercolor="#666666"
     borderopacity="1"
     objecttolerance="10"
     gridtolerance="10"
     guidetolerance="10"
     inkscape:pageopacity="0"
     inkscape:pageshadow="2"
     inkscape:window-width="640"
     inkscape:window-height="480"
     id="namedview4" /><g
     id="g10"
     inkscape:groupmode="layer"
     inkscape:label="ink_ext_XXXXXX"
     transform="matrix(1.3333333,0,0,-1.3333333,0,2666.6667)"><g
       id="g12"
       transform="scale(0.1)"><path
         d="M 0,0 H 32000 V 20000 H 0 Z"
         style="fill:#ffffff;fill-opacity:1;fill-rule:nonzero;stroke:none"
         id="path14" /><path
         d="m 3622.81,2703.6 c 1.29,-1 25116.69,3.4 25116.69,3.4 0,0 670.7,1186.2 919.5,3917.1 548.1,6016.6 -3689,6944.5 -4921.9,7195.5 -3775.1,768.5 -2056.9,4571 -11894.2,3857.6 -901.6,-65.4 -3027.44,-593.3 -3760.08,-935.3 -513.85,-239.6 -2449.85,-1312.1 -3017.87,-3126.3 -179.41,-572.6 -222.45,-1219 -41.57,-1936.5 640.21,-2539 -1028.87,-2393 -2248.51,-3603 C 2147.03,6461.4 2317.19,3820.6 3622.81,2703.6"
         style="fill:#ebf5fb;fill-opacity:1;fill-rule:nonzero;stroke:none"
         id="path16" /><path
         d="m 14840.6,10873.2 -1880.7,-2234.4 -2978.67,2507.3 -0.04,0.1 -1255.07,1056.4 1880.68,2234.2 2343.4,-1972.5 1890.4,-1591.1"
         style="fill:#d0e7f8;fill-opacity:1;fill-rule:nonzero;stroke:none"
         id="path18" /><path
         d="m 13054.5,9349.8 1101.1,1308.1 c 74.7,88.9 63.3,221.4 -25.5,296.2 l -3375.3,2841 c -90.3,76.1 -225.3,64.5 -301.4,-25.9 L 9356.71,12466.3 c -75.46,-89.6 -63.95,-223.4 25.69,-298.9 l 3377.4,-2842.9 c 88.4,-74.4 220.3,-63 294.7,25.3 z m 1333.7,1477.3 -1460,-1734.6 -3805.45,3203.1 1460.05,1734.6 3805.4,-3203.1"
         style="fill:#93bbe7;fill-opacity:1;fill-rule:nonzero;stroke:none"
         id="path20" /><path
         d="m 11362.6,11094.7 c -257.7,216.9 -290.8,601.7 -73.8,859.5 216.9,257.7 601.7,290.8 859.5,73.8 257.7,-216.9 290.8,-601.7 73.8,-859.5 -216.9,-257.7 -601.7,-290.8 -859.5,-73.8"
         style="fill:#93bbe7;fill-opacity:1;fill-rule:nonzero;stroke:none"
         id="path22" /><path
         d="m 16596.9,12459.2 -2331.2,-1322.9 -1763.5,3108 v 0 l -743.1,1309.5 2331.2,1322.8 1387.4,-2445.1 1119.2,-1972.3"
         style="fill:#d0e7f8;fill-opacity:1;fill-rule:nonzero;stroke:none"
         id="path24" /><path
         d="m 14573.9,11718 1364.9,774.5 c 92.6,52.6 125.1,170.3 72.5,262.9 L 14013,16277.1 c -53.5,94.3 -173.3,127.4 -267.7,73.9 l -1359.4,-771.4 c -93.5,-53.1 -126.3,-171.9 -73.2,-265.4 l 1999.6,-3524 c 52.3,-92.2 169.4,-124.5 261.6,-72.2 z m 1619.1,845.8 -1809.9,-1026.9 -2253,3970.5 1809.9,1026.9 2253,-3970.5"
         style="fill:#93bbe7;fill-opacity:1;fill-rule:nonzero;stroke:none"
         id="path26" /><path
         d="m 13674.6,13759.3 c -152.6,268.9 -58.3,610.6 210.6,763.2 268.9,152.6 610.6,58.3 763.2,-210.6 152.6,-269 58.3,-610.7 -210.6,-763.3 -268.9,-152.6 -610.6,-58.2 -763.2,210.7"
         style="fill:#93bbe7;fill-opacity:1;fill-rule:nonzero;stroke:none"
         id="path28" /><path
         d="m 27636.6,9065.8 c -235.2,994.6 -1909.2,740.2 -1909.2,740.2 0,0 -1185.5,-1689.1 -1515.6,-1719.5 -330,-30.5 731.7,1642 731.7,1642 -634.8,82.2 -2282.9,-646 -2282.9,-646 0,0 37.7,-2016.5 -289.7,-1964.8 -327.4,51.7 57.7,1787.3 57.7,1787.3 -622.2,-165 -1220.7,-865.4 -1220.7,-865.4 -756.8,-1147.7 756.1,-2060.3 756.1,-2060.3 0,0 -2.1,-699.1 -459.3,-1486.3 l -0.1,-0.1 c 0,0 -102.1,-144.8 -209.2,-393 l 168,-5.4 c 15.2,44.6 31.8,87.7 49.8,128.9 l 0.4,0.8 0.8,1.8 c 12.3,25.6 30.1,62 52.1,106.3 l 0.1,0.2 0.1,0.2 c 54.6,98.8 91.7,171.9 115.4,224.8 l 0.1,0.5 c 164,310.5 398.9,714.3 549.5,795.7 0,0 -17.8,26.8 -33.5,78.2 10.7,-24.9 21.8,-50.9 33.5,-78.2 267.7,-625.6 1702.3,-774.7 2508.8,-636.3 806.5,138.5 464.5,375.8 45,756.4 -419.6,380.7 -1326.6,313.2 -1589,465.7 -262.4,152.4 132.6,283.6 665.4,225.2 532.7,-58.3 782.6,-601 1642.7,-711.1 860.1,-110 1569.9,1491.6 1569.9,1491.6 -601.7,-165.6 -1659.3,197.6 -1693.7,404.3 -34.5,206.8 1546.6,135.1 1795.1,188.8 248.6,53.7 695.9,532.8 460.7,1527.5"
         style="fill:#d0e7f8;fill-opacity:1;fill-rule:nonzero;stroke:none"
         id="path30" /><path
         d="m 22243.3,7671 c 28,525.2 185.3,1234 185.3,1234 -264.2,-70.1 -524.2,-236.7 -735.8,-405.3 -28,64.6 -186.1,159.5 -398.9,220.8 -51.8,14.9 -102.3,20.9 -152.8,20.9 -96,0 -191.9,-21.3 -296.4,-42.6 -104.4,-21.4 -217.4,-42.7 -347.5,-42.7 -95.9,0 -201,11.6 -318.8,43.2 -522,140.2 -552.2,1231.7 -552.2,1231.7 200.8,-155.2 566.9,-226.6 816.1,-226.6 132.8,0 232.4,20.2 256.3,58.8 68.8,111.1 -859.9,444.1 -990.5,533.8 -130.6,89.8 -275.1,471.9 96,989.8 119.8,167.2 295.4,223.8 478,223.8 383.2,0 798,-248.8 798,-248.8 0,0 283.9,-1254.6 466.9,-1350.3 7,-3.7 13.3,-5.4 19.1,-5.4 148,0 -52.3,1125.4 -52.3,1125.4 385.5,-102.9 1163.5,-912.9 1163.5,-912.9 0,0 -499.1,-1153.8 -298.1,-1201.5 4.3,-1 8.6,-1.5 12.9,-1.5 196.1,0 376.9,1045.7 376.9,1045.7 219.2,-166.2 372.4,-474.8 447,-652.5 -323.4,-123.7 -555.4,-226.3 -555.4,-226.3 0,0 7.4,-396.5 -12.9,-833.3 -168,-64 -303.3,-84.9 -303.3,-84.9 0,0 -77.8,-191 -101.1,-493.3 m -1156.1,145.9 c -240.4,68.7 -474.1,171.6 -642.5,277.1 -432.2,270.7 -178.9,326.6 153.1,446.8 64.2,23.2 135.1,32.5 208.8,32.5 144.4,0 300.2,-35.5 440.5,-71 140.3,-35.5 265,-71 347.4,-71 5.3,0 10.5,0.1 15.5,0.4 -241.4,-204.1 -402.1,-392.1 -402.1,-392.1 -49.6,-75.3 -89.5,-149.6 -120.7,-222.7"
         style="fill:#ddedf9;fill-opacity:1;fill-rule:nonzero;stroke:none"
         id="path32" /><path
         d="m 22285,6922.4 -98.1,36.7 c 1.8,29.3 2.4,58 1.8,86.1 l -0.1,0.5 v 1.2 c -1.1,17.7 -2.7,42.9 -4.9,73.7 v 0.1 0.2 c -8.1,69.9 -12.2,120.8 -13.3,156.9 v 0.3 c -21.1,217.9 -60.9,506.3 -128.4,588.9 v 0 c -96.6,-94.9 -250.2,-133.7 -428.7,-133.7 -162.8,0 -346.3,32.3 -526.1,83.6 31.2,73.1 71.1,147.4 120.7,222.7 0,0 160.7,188 402.1,392.1 4.9,0.4 9.7,0.8 14.3,1.4 63.2,8.7 82.7,33.7 68.5,66.6 211.6,168.6 471.6,335.2 735.8,405.3 0,0 -157.3,-708.8 -185.3,-1234 -10.6,-137.1 -10,-297 14.1,-472.4 v 0 c 0,0 24.6,-107.7 27.6,-276.2 m -205.2,981.8 c -12.1,-11.9 -24.7,-24.2 -37.8,-37.2 0,0 16.5,11.2 37.8,37.2 m 567.9,345 c 20.3,436.8 12.9,833.3 12.9,833.3 0,0 232,102.6 555.4,226.3 34.3,-81.5 52,-135.4 52,-135.4 106.7,-544.4 -311.9,-806.9 -620.3,-924.2"
         style="fill:#d0e7f8;fill-opacity:1;fill-rule:nonzero;stroke:none"
         id="path34" /><path
         d="m 18072,11175.7 c -562.1,637.2 -1689.7,-205 -1689.7,-205 0,0 -207.6,-1702.8 -437.6,-1854.4 -230,-151.6 -106.8,1490.5 -106.8,1490.5 -497.6,-188.4 -1420.7,-1367.8 -1420.7,-1367.8 0,0 817.5,-1463.7 557.2,-1554 -260.2,-90.3 -657.7,1332.9 -657.7,1332.9 -391.6,-364.7 -556,-1112.6 -556,-1112.6 -105.3,-1137.9 1361.3,-1214.4 1361.3,-1214.4 0,0 272.4,-513.3 245.5,-1269.6 v 0 c 0,0 -18.2,-146.2 0.5,-370.1 l 125.3,61.8 c -6.3,38.7 -11.1,76.7 -14,114.1 v 0.6 l -0.1,1.7 c -1,23.6 -2.3,57.2 -3.5,98.4 v 0.1 0.2 c 1.3,93.8 -0.1,162 -3.5,210 v 0.4 c -1.4,291.9 12.6,680 91.1,798.6 0,0 -23.5,12.7 -55.2,44.3 17.6,-14.1 36,-28.8 55.2,-44.3 441.3,-353.8 1551.6,98.8 2088.6,516.2 537,417.5 193.4,457.5 -263.3,572.2 -456.7,114.8 -1095.2,-289.9 -1347.3,-281 -252.1,9 -13.9,259.9 399.5,425.8 413.5,165.9 809.2,-134.1 1482.9,122.1 673.8,256.2 566.8,1708.5 566.8,1708.5 -376.3,-357.1 -1293.9,-505.1 -1400.2,-367 -106.2,138.1 1081.1,704.9 1242.2,841.5 161.2,136.7 301.5,663.2 -260.5,1300.3"
         style="fill:#d0e7f8;fill-opacity:1;fill-rule:nonzero;stroke:none"
         id="path36" /><path
         d="m 27029.3,10556 c 0,0 694.2,-719.8 727,-990.7 32.8,-270.9 -332.6,-693.8 -332.6,-693.8 l -394.4,1684.5"
         style="fill:#f9cd2c;fill-opacity:1;fill-rule:nonzero;stroke:none"
         id="path38" /><path
         d="m 26715.6,3096.6 c 0,0 -24.5,-381.8 -98.4,-387.1 -9.8,-0.7 -374.7,0.1 -374.7,0.1 l -465.7,3.7 c 0,0 3.3,112.2 139.5,135.6 136.2,23.5 364.2,118.6 447.1,298.4 87.2,189.1 352.2,-50.7 352.2,-50.7"
         style="fill:#213765;fill-opacity:1;fill-rule:nonzero;stroke:none"
         id="path40" /><path
         d="m 27753,3094.3 c 0,0 -24.5,-381.8 -98.4,-387.1 -9.8,-0.7 -374.7,0.1 -374.7,0.1 l -465.7,3.7 c 0,0 3.3,112.3 139.5,135.7 136.1,23.4 364.2,118.6 447.1,298.3 87.1,189.2 352.2,-50.7 352.2,-50.7"
         style="fill:#213765;fill-opacity:1;fill-rule:nonzero;stroke:none"
         id="path42" /><path
         d="m 26208.7,7201.4 c 0,0 120.1,-779.4 571.5,-2163.3 451.4,-1384 512.1,-1983 512.1,-1983 l 487.5,12.6 c 0,0 7.4,1511.4 -200.5,2207.3 -207.9,695.9 -39.7,2507.3 -39.7,2507.3 l -1330.9,-580.9"
         style="fill:#7a0f44;fill-opacity:1;fill-rule:nonzero;stroke:none"
         id="path44" /><path
         d="m 25972.7,7743 c 0,0 -19.8,-1174 180.1,-2615.9 200,-1441.9 129.9,-2053.6 129.9,-2053.6 l 486.4,-17.3 c 0,0 293.9,1441.4 212.1,2163.1 -81.8,721.7 403.5,2474.9 403.5,2474.9 l -1412,48.8"
         style="fill:#a31156;fill-opacity:1;fill-rule:nonzero;stroke:none"
         id="path46" /><path
         d="m 26920.4,10488.3 -259.6,-169.4 -374.4,70.7 c 5.2,30.2 30.2,155.5 53,269 1.4,6.7 2.7,13.3 4,19.9 19.5,96.6 36.4,179.5 36.4,179.5 l 350.2,153.6 130.6,57.3 c -0.4,-2 -10.4,-107.2 -11.8,-122.5 -25,-272.6 71.6,-458.1 71.6,-458.1"
         style="fill:#f89f6b;fill-opacity:1;fill-rule:nonzero;stroke:none"
         id="path48" /><path
         d="m 26382.7,10575.3 c 7.3,3 451.4,133 499.6,117 48.2,-16 76.5,-109.4 76.5,-109.4 l -726.3,-162.5 c 0,0 57.4,116 150.2,154.9"
         style="fill:#f7912f;fill-opacity:1;fill-rule:nonzero;stroke:none"
         id="path50" /><path
         d="m 27571.4,7594.6 c -76,-343 -1328.1,-381 -1650.2,-68.8 -36.6,35.6 -38.1,200.8 -23.7,423.6 28,435.1 116.4,1089.6 120.5,1424.1 2,161.5 24.5,326.7 54.4,476.6 63.6,319.6 160.1,570.3 160.1,570.3 0,0 612,196.4 726.3,162.5 551,-163.2 688.6,-2645.2 612.6,-2988.3"
         style="fill:#f9cd2c;fill-opacity:1;fill-rule:nonzero;stroke:none"
         id="path52" /><path
         d="m 25897.5,7949.4 c 28,435.1 116.4,1089.6 120.5,1424.1 2,161.5 24.5,326.7 54.4,476.6 l 368.1,64.1 c 0,0 356.5,-1469.9 -543,-1964.8"
         style="fill:#f7912f;fill-opacity:1;fill-rule:nonzero;stroke:none"
         id="path54" /><path
         d="m 26098,8555.6 c 0,0 24.9,-60 -27.8,-100.2 -52.8,-40.1 -87.1,-105.2 -75.1,-152.9 12,-47.7 127.3,-125.6 167.4,-113.2 40,12.4 121.7,75 113,100.2 -8.8,25.1 55.3,220.4 -42.2,295.9 -97.5,75.4 -135.3,-29.8 -135.3,-29.8"
         style="fill:#f89f6b;fill-opacity:1;fill-rule:nonzero;stroke:none"
         id="path56" /><path
         d="m 26513.6,10507.8 c 0,0 -358.9,-66.3 -645.7,-487 -286.8,-420.7 -475.6,-733.5 -423.3,-885.4 52.4,-152 531.3,-679.7 614,-679.8 82.8,-0.2 216.5,59.7 224.3,195.1 0,0 -336.9,507.2 -270.1,583 28.5,32.3 439.5,364.5 497.8,213.9 96.4,-249.1 3,1060.2 3,1060.2"
         style="fill:#f9cd2c;fill-opacity:1;fill-rule:nonzero;stroke:none"
         id="path58" /><path
         d="m 26822.6,10941.6 c -77.2,-130 -363.7,-241.9 -483.2,-283 1.4,6.7 2.7,13.3 4,19.9 19.5,96.6 36.4,179.5 36.4,179.5 l 350.2,153.6 c 77.3,0.9 124.4,-16.5 92.6,-70"
         style="fill:#f7915b;fill-opacity:1;fill-rule:nonzero;stroke:none"
         id="path60" /><path
         d="m 26247.9,10879.6 c 0,0 563.3,-177.1 668.1,175.4 104.8,352.4 248.2,566.9 -107,694.8 -355.2,128 -465.4,14.4 -529,-94.7 -63.6,-109.2 -175.9,-720.4 -32.1,-775.5"
         style="fill:#f89f6b;fill-opacity:1;fill-rule:nonzero;stroke:none"
         id="path62" /><path
         d="m 26302.2,11689 c 0,0 35.1,-410.5 120,-392.9 84.9,17.7 161.9,30.7 149.2,-93 -12.7,-123.6 -130.7,-266.2 130.8,-288.7 261.5,-22.4 639,651.3 567.4,779.2 -206.5,368.9 -1266,445.6 -967.4,-4.6"
         style="fill:#1e3760;fill-opacity:1;fill-rule:nonzero;stroke:none"
         id="path64" /><path
         d="m 9978.39,8741.7 c 0,0 214.31,-363 410.71,-368.1 196.4,-5 495.3,168.3 495.3,168.3 0,0 180.3,483.7 58,673 0,0 -122.7,64.8 -251,-49.6 -22,-19.8 -44.4,-44.6 -66.4,-76.6 -31.1,-45 -66,-70.6 -103.1,-84.1 -140.2,-51.3 -306.5,69.4 -368.7,-47.1 -36.4,-67.7 -75.9,-118.6 -108.4,-154.4 -38.4,-41.2 -66.41,-61.4 -66.41,-61.4"
         style="fill:#f6d3ac;fill-opacity:1;fill-rule:nonzero;stroke:none"
         id="path66" /><path
         d="m 13051.9,3433.9 c 0,0 526.1,4615.6 -2400.7,4939.7 0,0 -2271.01,-540.8 -1704.63,-4939.7 h 4105.33"
         style="fill:#f6d3ac;fill-opacity:1;fill-rule:nonzero;stroke:none"
         id="path68" /><path
         d="m 11024.7,8306.2 c 0,0 -546.4,-146.2 -715,-60.3 0,0 -25.5,275 204.6,236.4 157.5,-26.4 260.1,64.7 320.4,101.7 85.4,52.3 212.7,-162.8 190,-277.8"
         style="fill:#a31156;fill-opacity:1;fill-rule:nonzero;stroke:none"
         id="path70" /><path
         d="m 10549.2,8720.7 c 34.9,-31.6 142.2,444.6 142.2,444.6 -22,-19.8 -44.4,-44.6 -66.4,-76.6 -31.1,-45 -66,-70.6 -103.1,-84.1 -0.3,-13.9 -6.6,-253.2 27.3,-283.9"
         style="fill:#deb38e;fill-opacity:1;fill-rule:nonzero;stroke:none"
         id="path72" /><path
         d="m 10044.8,8803.1 c 7.7,-5.5 260.4,-187.6 294.7,-187.6 34.9,0 -186.3,342 -186.3,342 -36.4,-67.7 -75.9,-118.6 -108.4,-154.4"
         style="fill:#deb38e;fill-opacity:1;fill-rule:nonzero;stroke:none"
         id="path74" /><path
         d="m 18398.5,12965.6 c -183,539.1 105.6,1124.5 644.7,1307.5 539.1,183 1124.5,-105.6 1307.5,-644.7 183,-539.1 -105.7,-1124.5 -644.7,-1307.5 -539.1,-183 -1124.5,105.6 -1307.5,644.7"
         style="fill:#e2771a;fill-opacity:1;fill-rule:nonzero;stroke:none"
         id="path76" /><path
         d="m 18313.3,12936.7 c -183,539.1 105.7,1124.5 644.8,1307.5 539,183 1124.4,-105.6 1307.4,-644.7 183,-539.1 -105.6,-1124.5 -644.7,-1307.5 -539.1,-183 -1124.5,105.6 -1307.5,644.7"
         style="fill:#f9ad33;fill-opacity:1;fill-rule:nonzero;stroke:none"
         id="path78" /><path
         d="m 19009.4,14092.8 c -461.1,-156.5 -708.9,-659 -552.3,-1120.1 156.5,-461.2 659,-709 1120.2,-552.4 461.1,156.5 708.9,659.1 552.3,1120.2 -156.5,461.1 -659,708.9 -1120.2,552.3 z m 585.9,-1725.6 c -237.6,-80.6 -492.3,-63.9 -717.3,47 -225,111 -393.3,302.9 -474,540.4 -80.6,237.6 -63.9,492.3 47,717.3 111,225 302.9,393.3 540.4,474 237.6,80.6 492.3,63.9 717.3,-47 225,-111 393.3,-302.9 474,-540.4 80.6,-237.6 63.9,-492.3 -47,-717.3 -111,-225 -302.9,-393.3 -540.4,-474"
         style="fill:#f79620;fill-opacity:1;fill-rule:nonzero;stroke:none"
         id="path80" /><path
         d="m 19503.4,13040 c -4.2,20 -10.8,36.9 -19.6,50.9 -8.9,14 -21,25.9 -36.4,35.5 -15.4,9.6 -34.3,17.5 -56.8,23.7 -22.4,6.2 -49.2,11.2 -80.5,14.9 -53.8,7 -103.3,15.7 -148.2,26.3 -45.1,10.5 -84.8,25.3 -119.3,44.3 -34.5,19 -63.4,43.6 -86.6,73.9 -23.3,30.3 -39.9,68.8 -49.8,115.3 -8.5,40.4 -9.2,78.7 -1.9,115 7.2,36.3 21.5,69.6 42.9,100 21.3,30.3 48.9,57.2 82.7,80.5 33.8,23.3 73.3,42 118.4,56 l -32.4,152.5 122.8,26.1 32.8,-154.7 c 45.2,3.7 87.5,0.5 127,-9.5 39.6,-9.9 74.8,-26.3 105.9,-49 31,-22.7 57.3,-51.8 79,-87.1 21.6,-35.4 37.5,-76.8 47.6,-124.3 l -221.7,-47.1 c -12.1,57 -33.8,97 -65.1,119.9 -31.3,22.8 -68.2,29.8 -110.6,20.8 -23.1,-4.9 -42.2,-12.3 -57.4,-22.2 -15.3,-10 -27.1,-21.7 -35.5,-35.1 -8.4,-13.5 -13.5,-28.3 -15.4,-44.6 -1.9,-16.3 -0.9,-33.2 2.8,-50.8 3.7,-17.6 9.7,-33 17.8,-46.1 8.1,-13.2 19.7,-24.5 34.9,-34 15,-9.4 34.1,-17.3 57.1,-23.6 22.9,-6.3 51,-11.9 84.1,-16.7 53.5,-8 102.7,-17.5 147.5,-28.3 44.8,-10.9 84.5,-25.9 119,-45.1 34.5,-19.2 63.4,-44 86.7,-74.3 23.3,-30.3 39.8,-68.5 49.6,-114.6 8.9,-41.8 9.6,-80.9 2,-117.2 -7.5,-36.4 -22,-69.5 -43.4,-99.4 -21.5,-29.8 -49.4,-56.1 -83.9,-78.8 -34.4,-22.7 -74.2,-41.1 -119.4,-55.2 l 30.1,-141.7 -121.9,-25.9 -30,141.1 c -43.3,-4.8 -86.3,-4.2 -129,1.6 -42.6,5.8 -82.2,18.9 -118.5,39.2 -36.4,20.4 -68.2,49 -95.2,86 -27.1,36.9 -46.7,83.9 -58.8,140.9 l 221.7,47 c 7.1,-33.7 17.8,-60.8 32.1,-81.4 14.2,-20.5 30.7,-35.9 49.4,-46.1 18.8,-10.2 38.8,-15.8 60.2,-17 21.3,-1.2 42.5,0.5 63.5,4.9 24,5.1 44.4,12.7 61.3,22.7 16.8,10 30.2,21.8 40.2,35.4 9.9,13.5 16.4,28.4 19.4,44.7 2.9,16.2 2.5,33.1 -1.2,50.7"
         style="fill:#f79620;fill-opacity:1;fill-rule:nonzero;stroke:none"
         id="path82" /><path
         d="m 20906,14759.6 c -144.2,424.7 83.2,885.8 507.9,1030 424.7,144.2 885.8,-83.2 1030,-507.9 144.1,-424.6 -83.2,-885.8 -507.9,-1030 -424.7,-144.1 -885.8,83.3 -1030,507.9"
         style="fill:#e2771a;fill-opacity:1;fill-rule:nonzero;stroke:none"
         id="path84" /><path
         d="m 20838.9,14736.9 c -144.2,424.6 83.2,885.8 507.9,1029.9 424.7,144.2 885.8,-83.2 1030,-507.9 144.2,-424.6 -83.2,-885.8 -507.9,-1029.9 -424.7,-144.2 -885.8,83.2 -1030,507.9"
         style="fill:#f9ad33;fill-opacity:1;fill-rule:nonzero;stroke:none"
         id="path86" /><path
         d="m 21387.3,15647.6 c -363.3,-123.3 -558.5,-519.2 -435.2,-882.4 123.4,-363.3 519.2,-558.5 882.5,-435.2 363.3,123.4 558.4,519.2 435.1,882.5 -123.3,363.2 -519.2,558.4 -882.4,435.1 z m 461.5,-1359.4 c -187.1,-63.5 -387.8,-50.3 -565.1,37.1 -177.2,87.4 -309.8,238.6 -373.3,425.7 -63.6,187.1 -50.4,387.8 37,565 87.4,177.3 238.6,309.9 425.7,373.4 187.1,63.5 387.8,50.4 565,-37 177.3,-87.4 309.9,-238.6 373.4,-425.7 63.5,-187.2 50.4,-387.8 -37,-565.1 -87.4,-177.2 -238.6,-309.8 -425.7,-373.4"
         style="fill:#f79620;fill-opacity:1;fill-rule:nonzero;stroke:none"
         id="path88" /><path
         d="m 21776.4,14818.2 c -3.3,15.7 -8.5,29.1 -15.5,40.2 -6.9,11 -16.5,20.3 -28.6,27.9 -12.2,7.6 -27.1,13.8 -44.7,18.7 -17.7,4.8 -38.8,8.7 -63.4,11.7 -42.5,5.5 -81.4,12.4 -116.8,20.7 -35.5,8.3 -66.8,19.9 -94,34.9 -27.1,15 -49.9,34.4 -68.2,58.3 -18.4,23.8 -31.4,54.1 -39.2,90.8 -6.8,31.8 -7.3,62 -1.6,90.6 5.8,28.6 17,54.8 33.8,78.7 16.9,23.9 38.6,45.1 65.2,63.4 26.6,18.4 57.7,33.1 93.3,44.2 l -25.5,120.1 96.7,20.5 25.8,-121.8 c 35.6,2.9 69,0.4 100.1,-7.5 31.1,-7.8 58.9,-20.7 83.4,-38.6 24.4,-17.9 45.1,-40.8 62.2,-68.6 17.1,-27.9 29.6,-60.5 37.5,-98 l -174.6,-37 c -9.5,44.9 -26.6,76.4 -51.3,94.4 -24.7,18 -53.7,23.5 -87.2,16.4 -18.1,-3.9 -33.2,-9.7 -45.2,-17.5 -12,-7.9 -21.3,-17.1 -27.9,-27.7 -6.6,-10.6 -10.6,-22.3 -12.1,-35.1 -1.5,-12.8 -0.8,-26.2 2.2,-40 2.9,-13.9 7.6,-26 14,-36.3 6.4,-10.4 15.5,-19.3 27.4,-26.8 11.9,-7.4 26.9,-13.6 45,-18.6 18.1,-4.9 40.2,-9.3 66.3,-13.2 42.2,-6.3 80.9,-13.7 116.2,-22.2 35.3,-8.6 66.5,-20.4 93.7,-35.6 27.3,-15.1 50,-34.6 68.4,-58.5 18.3,-23.9 31.3,-54 39,-90.3 7,-32.9 7.5,-63.7 1.6,-92.3 -5.9,-28.7 -17.3,-54.7 -34.2,-78.3 -16.9,-23.5 -38.9,-44.2 -66.1,-62.1 -27.1,-17.9 -58.5,-32.4 -94,-43.4 l 23.7,-111.7 -96.1,-20.4 -23.6,111.1 c -34.1,-3.7 -68,-3.3 -101.6,1.3 -33.6,4.6 -64.7,14.9 -93.4,30.9 -28.7,16 -53.7,38.6 -75,67.7 -21.3,29.1 -36.8,66.1 -46.3,111 l 174.6,37.1 c 5.7,-26.6 14.1,-48 25.3,-64.1 11.3,-16.2 24.3,-28.3 39,-36.4 14.8,-8 30.6,-12.4 47.4,-13.4 16.8,-0.9 33.5,0.4 50,3.9 18.9,4 35,10 48.3,17.9 13.3,7.9 23.8,17.2 31.7,27.8 7.8,10.7 12.9,22.4 15.2,35.2 2.4,12.9 2.1,26.2 -0.9,40"
         style="fill:#f79620;fill-opacity:1;fill-rule:nonzero;stroke:none"
         id="path90" /><path
         d="m 12339.1,7728.1 c 0,0 -131.3,-184.9 -251.8,-187.5 -120.4,-2.6 -303.6,85.7 -303.6,85.7 0,0 -110.5,246.4 -35.5,342.8 0,0 75.2,33 153.8,-25.3 13.5,-10 27.2,-22.7 40.7,-39 19.1,-22.9 40.5,-36 63.2,-42.8 85.9,-26.2 187.9,35.3 226.1,-24 22.3,-34.5 46.5,-60.4 66.4,-78.7 23.6,-21 40.7,-31.2 40.7,-31.2"
         style="fill:#fde6d0;fill-opacity:1;fill-rule:nonzero;stroke:none"
         id="path92" /><path
         d="m 10626.8,6394.3 c 0,0 464.2,1124.9 1299.8,1146.3 0,0 771.4,-85.7 814.2,-1146.3 h -2114"
         style="fill:#fde6d0;fill-opacity:1;fill-rule:nonzero;stroke:none"
         id="path94" /><path
         d="m 11697.7,7506.2 c 0,0 335,-74.5 438.3,-30.7 0,0 15.6,140.1 -125.4,120.4 -96.6,-13.4 -159.5,33 -196.4,51.8 -52.4,26.7 -130.4,-82.9 -116.5,-141.5"
         style="fill:#a31156;fill-opacity:1;fill-rule:nonzero;stroke:none"
         id="path96" /><path
         d="m 11989.2,7717.3 c -21.4,-16 -87.2,226.5 -87.2,226.5 13.5,-10 27.2,-22.7 40.7,-39 19.1,-22.9 40.5,-36 63.2,-42.8 0.2,-7.1 4.1,-129 -16.7,-144.7"
         style="fill:#deb38e;fill-opacity:1;fill-rule:nonzero;stroke:none"
         id="path98" /><path
         d="m 12298.4,7759.3 c -4.7,-2.7 -159.6,-95.5 -180.6,-95.5 -21.5,0 114.2,174.2 114.2,174.2 22.3,-34.5 46.5,-60.4 66.4,-78.7"
         style="fill:#deb38e;fill-opacity:1;fill-rule:nonzero;stroke:none"
         id="path100" /><path
         d="m 11080.3,6708.5 c -8.6,7.4 328.5,496.4 421.4,500 92.8,3.5 301.4,-107.2 452.5,-121.4 151,-14.3 297.4,28.5 326,-60.8 28.6,-89.2 107.1,-405.7 58.9,-456.4 -48.2,-50.7 -1073.4,-19.7 -1258.8,138.6"
         style="fill:#f6d3ac;fill-opacity:1;fill-rule:nonzero;stroke:none"
         id="path102" /><path
         d="M 23804.5,9103.8 22847,6255.4 c -220.7,-656.5 -565.2,-1251.5 -1023.7,-1768 -441.5,-497.3 -968.7,-900.2 -1567.2,-1197.4 -598.5,-297.4 -1238,-474.2 -1900.9,-525.7 -688.8,-53.4 -1370.9,31.4 -2027.5,252.1 -656.7,220.7 -1251.5,565.2 -1768.1,1023.8 -497.2,441.5 -900.1,968.7 -1197.4,1567.2 -297.4,598.4 -474.2,1238 -525.7,1900.9 -53.4,688.7 31.4,1370.9 252.1,2027.5 l 957.6,2848.4 2403.3,-807.9 -957.5,-2848.4 c -221,-657.2 -171,-1364.8 140.8,-1992.4 311.9,-627.5 845.5,-1094.9 1502.8,-1315.8 657.2,-221 1364.8,-170.9 1992.3,140.9 627.6,311.8 1094.9,845.5 1315.8,1502.7 l 957.5,2848.4 2403.3,-807.9"
         style="fill:#446bbd;fill-opacity:1;fill-rule:nonzero;stroke:none"
         id="path104" /><path
         d="m 17366.2,14297.9 -2405,808.4 -915.1,-2722.2 2405,-808.4 915.1,2722.2"
         style="fill:#ffffff;fill-opacity:1;fill-rule:nonzero;stroke:none"
         id="path106" /><path
         d="m 24719.6,11825.9 -2404.9,808.5 -915.1,-2722.2 2404.9,-808.4 915.1,2722.1"
         style="fill:#ffffff;fill-opacity:1;fill-rule:nonzero;stroke:none"
         id="path108" /><path
         d="m 17135.6,5419.7 -807.9,-2403.3 c -656.7,220.7 -1251.5,565.2 -1768.1,1023.8 -497.2,441.5 -900.1,968.7 -1197.4,1567.2 -297.4,598.4 -474.2,1238 -525.7,1900.9 -53.4,688.7 31.4,1370.9 252.1,2027.5 l 957.6,2848.4 2403.3,-807.9 -957.5,-2848.4 c -221,-657.2 -171,-1364.8 140.8,-1992.4 311.9,-627.5 845.5,-1094.9 1502.8,-1315.8"
         style="fill:#ef2c63;fill-opacity:1;fill-rule:nonzero;stroke:none"
         id="path110" /><path
         d="m 19539.2,3429.6 c -22.8,-26 -25.7,-55.1 -14.4,-86.2 l 0.2,-0.4 c 20.8,-57.5 89.5,-121.6 169.3,-185.7 10.2,-8.3 19.3,-15.7 27.2,-22.7 2.1,-1.8 4.1,-3.6 6.1,-5.4 1.6,-1.5 3.1,-2.9 4.7,-4.3 74.4,-68.6 46.4,-84.3 180.1,-223.5 152.5,-158.6 257.4,-161.5 287.3,-147 25.2,12.3 -26.1,96.4 -83,191 -2.7,4.5 -5.4,9.1 -8.2,13.8 -7.6,12.5 -15.2,25.3 -22.7,37.9 -66.6,113.8 -49.5,167.2 -33.7,336.6 12.8,137.6 214.1,768.9 214.1,768.9 l -292.1,50.3 c 0,0 -88,-502.7 -185,-580.1 -51.8,-41.2 -109.8,-41.8 -159.6,-72.4 -3.6,-2.1 -7,-4.3 -10.4,-6.5 -28.3,-18.8 -57.2,-38.1 -79.9,-64.3"
         style="fill:#f89f6b;fill-opacity:1;fill-rule:nonzero;stroke:none"
         id="path112" /><path
         d="m 19539.2,3429.6 c -22.8,-26 -25.7,-55.1 -14.4,-86.2 l 0.2,-0.4 c 25.5,-57.4 92.4,-121.3 169.6,-185.1 10.1,-8.4 19,-16.1 26.9,-23.3 2.1,-1.8 4.1,-3.6 6.1,-5.4 1.6,-1.5 3.1,-2.9 4.7,-4.3 74.4,-68.6 46.4,-84.3 180.1,-223.5 152.5,-158.6 257.4,-161.5 287.3,-147 25.2,12.3 -26.1,96.4 -83,191 -29.6,10.8 -167.5,66.8 -271.7,200.2 -91.8,117.1 -153,267.7 -215.5,354.8 -3.6,-2.1 -7,-4.3 -10.4,-6.5 -28.3,-18.8 -57.2,-38.1 -79.9,-64.3"
         style="fill:#233964;fill-opacity:1;fill-rule:nonzero;stroke:none"
         id="path114" /><path
         d="m 21894.9,3612.1 c 18.1,-90.2 146.6,-75.1 290.2,-40 143.7,35.1 109.5,-6.7 313.9,16 204.4,22.6 266.3,98.8 272.6,129.2 5.5,27 -95.4,36.5 -203.8,49 -13.6,1.5 -27.3,3.2 -41,4.9 -122.3,15.3 -211.8,94.2 -323,159.1 -105.2,61.4 -262.2,311.5 -262.2,311.5 l -280.3,-22.2 c 0,0 147.1,-223.4 204,-320.6 33.4,-57.1 31.6,-132.7 27.5,-191 -2.2,-31.7 -4.3,-64.1 2.1,-95.9"
         style="fill:#f89f6b;fill-opacity:1;fill-rule:nonzero;stroke:none"
         id="path116" /><path
         d="m 22185.1,3572.1 c 143.7,35.1 109.5,-6.7 313.9,16 204.4,22.6 266.3,98.8 272.6,129.2 5.5,27 -95.4,36.5 -203.8,49 l -1,-2.1 c 0,0 -122.6,-86.9 -292.7,-91 -138.7,-3.4 -285.6,36.4 -381.3,34.8 -2.2,-31.7 -4.3,-64.1 2.1,-95.9 18.1,-90.2 146.6,-75.1 290.2,-40"
         style="fill:#233964;fill-opacity:1;fill-rule:nonzero;stroke:none"
         id="path118" /><path
         d="m 20820.7,5404.5 -262.1,-705.1 -342.1,-920.7 c 0,0 -92.8,-9 -181.7,16.6 -81.9,23.7 -175.8,85.6 -175.8,85.6 0,0 95,988.5 272.2,1556 45.4,145.7 96.3,263.5 152.5,329.8 274.7,324.7 537,-362.2 537,-362.2"
         style="fill:#f7912f;fill-opacity:1;fill-rule:nonzero;stroke:none"
         id="path120" /><path
         d="m 20554.3,6524.3 c -171.7,55.4 -661.4,-15.7 -1153.2,-112 l -103,169.9 -1062.4,83 c 0,0 -350.6,-777.5 -158.6,-1272.8 28.2,-72.8 84.2,-119.5 179.8,-121.1 h 15.5 c 0,0 632.3,0.4 837.6,0.4 528.4,0 1118.2,363.2 1194.5,378.4 124.9,25 174.8,-224.8 299.7,-487 124.9,-262.3 1174,-1161.5 1174,-1161.5 0,0 161.2,-1.6 227.8,23.4 71.6,26.9 97.8,61.8 97.8,61.8 0,0 -1162.4,2312.7 -1549.5,2437.5"
         style="fill:#f9cd2c;fill-opacity:1;fill-rule:nonzero;stroke:none"
         id="path122" /><path
         d="m 19256.3,9675.7 c -136.1,71.5 -343.2,81.1 -376.8,85.7 -402.6,54.1 -644.9,-530.9 -659.1,-708.2 -26.3,-326.7 -199.1,-376.5 -442.4,-581.1 -487.8,-410.3 -344.8,-887 -78,-1064.2 160,-106.3 442.1,0 442.1,0 4,-2.8 771.5,429.1 1149.8,637.4 567.1,80.6 311.2,1448.3 -35.6,1630.4"
         style="fill:#213765;fill-opacity:1;fill-rule:nonzero;stroke:none"
         id="path124" /><path
         d="m 18974.8,8222.6 c 1.6,-1.1 -186.2,-65.2 -311.7,-9.6 -118.2,52.2 -207.7,246.6 -205.9,246.7 53.7,2.5 112.7,49.4 158.2,357.7 l 22.9,-8.2 384.7,-138.4 c 0,0 -27.9,-123.5 -45.9,-241 -15.2,-98.7 -23.3,-193.3 -2.3,-207.2"
         style="fill:#f89f6b;fill-opacity:1;fill-rule:nonzero;stroke:none"
         id="path126" /><path
         d="m 19023,8670.8 c 0,0 -27.9,-123.5 -45.9,-241 -221,39.8 -307.7,259.9 -338.8,379.4 l 384.7,-138.4"
         style="fill:#ee8650;fill-opacity:1;fill-rule:nonzero;stroke:none"
         id="path128" /><path
         d="m 19080.3,8548.2 c 0,0 -526.4,70.7 -477.4,397.8 49.1,327.2 14.2,556.7 352.4,525.4 338.1,-31.3 384.6,-165.9 394.8,-279.1 10.2,-113.2 -131.6,-654 -269.8,-644.1"
         style="fill:#f89f6b;fill-opacity:1;fill-rule:nonzero;stroke:none"
         id="path130" /><path
         d="m 19330.9,9371.6 c 0,0 -337,-290.4 -566.2,-313.8 -229.3,-23.4 -316,50.2 -316,50.2 0,0 135.1,112.2 216.4,293.2 23.9,53.4 74.6,90 132.8,95 163.7,14.1 474,20.6 533,-124.6"
         style="fill:#213765;fill-opacity:1;fill-rule:nonzero;stroke:none"
         id="path132" /><path
         d="m 19120.2,9397.6 c 0,0 112.8,-109 148.3,-189.8 34.2,-78 44.5,-264.6 17.2,-338.7 0,0 175.7,341.5 76.2,507.4 -105.4,176 -241.7,21.1 -241.7,21.1"
         style="fill:#233964;fill-opacity:1;fill-rule:nonzero;stroke:none"
         id="path134" /><path
         d="m 19418.1,7447.1 c -16,-1065.6 -4.4,-842.9 -121,-944.1 -28.1,-24.3 -107,-38.8 -210.9,-45.7 -326.8,-21.7 -901.2,32.2 -923,92.5 -75.4,209 -22.2,273.9 -85.1,593.8 -6.5,34 -14.7,70.8 -24.2,110.9 -52.4,219.7 -103.4,294.5 82.6,647.5 168.7,319.7 343.9,579.2 359.7,569.8 445,-264.1 480.9,-42.1 480.9,-42.1 0,0 448.8,-462.8 441,-982.6"
         style="fill:#ffffff;fill-opacity:1;fill-rule:nonzero;stroke:none"
         id="path136" /><path
         d="m 20558.6,4699.4 -342.1,-920.7 c 0,0 -92.8,-9 -181.7,16.6 -81.9,23.7 -175.8,85.6 -175.8,85.6 0,0 95,988.5 272.2,1556 l 427.4,-737.5"
         style="fill:#f9cd2c;fill-opacity:1;fill-rule:nonzero;stroke:none"
         id="path138" /><path
         d="m 18977.1,8429.8 c 0,0 457.9,-77.7 511.7,-274.8 53.8,-197.2 370.2,-1356.3 370.2,-1356.3 0,0 -232.8,-41.8 -340.3,65.8 -107.6,107.5 -374.2,997.7 -374.2,997.7 l -167.4,567.6"
         style="fill:#ffffff;fill-opacity:1;fill-rule:nonzero;stroke:none"
         id="path140" /><path
         d="m 19086.2,6457.3 c -326.8,-21.7 -901.2,32.2 -923,92.5 -75.4,209 -22.2,273.9 -85.1,593.8 l 157.6,443.8 c 0,0 -26,-494.2 119.7,-624.2 145.6,-130 596.7,-250.9 667.6,-359.5 34.1,-52.1 56.6,-104.4 63.2,-146.4"
         style="fill:#e7f0fa;fill-opacity:1;fill-rule:nonzero;stroke:none"
         id="path142" /><path
         d="m 18711.8,6665.2 c 0,0 322.3,71.7 374.4,43.1 52,-28.6 179.1,-132.8 195,-169 15.9,-36.3 -115.8,27.5 -158.6,39 -27.8,7.4 -100.8,-17.9 -137,-30 -152.1,-50.7 -245.3,-24.6 -245.3,-24.6 l -28.5,141.5"
         style="fill:#f89f6b;fill-opacity:1;fill-rule:nonzero;stroke:none"
         id="path144" /><path
         d="m 18495.9,8472.1 c 0,0 -432.9,-26.7 -582.7,-235.7 -210.9,-294.2 -629.4,-1548 -389.6,-1715.2 270.1,-188.3 1229.2,-49.2 1229.2,-49.2 0,0 31.9,149.1 -12.5,221.3 -44.4,72.2 -766.1,188.7 -799.4,222 -33.3,33.3 416.4,649.5 416.4,749.4 0,99.9 138.6,807.4 138.6,807.4"
         style="fill:#ffffff;fill-opacity:1;fill-rule:nonzero;stroke:none"
         id="path146" /><path
         d="m 19101.8,6618.6 c 0,0 67.5,-87.1 89.7,-97.5 22.1,-10.4 36.4,-7.8 36.4,-7.8 l -45.5,81.9 -80.6,23.4"
         style="fill:#f89f6b;fill-opacity:1;fill-rule:nonzero;stroke:none"
         id="path148" /><path
         d="m 19086.2,6708.3 196.3,-95.3 c 0,0 -8.3,-13.7 -32.5,-12.6 -24.2,1.1 -85.2,23.4 -85.2,23.4 l -78.6,84.5"
         style="fill:#f89f6b;fill-opacity:1;fill-rule:nonzero;stroke:none"
         id="path150" /><path
         d="m 19191.5,6387.6 h 1553.4 l 467.3,1162.1 h -1551.1 l -469.6,-1162.1"
         style="fill:#a31156;fill-opacity:1;fill-rule:nonzero;stroke:none"
         id="path152" /><path
         d="m 20763.1,6432.9 h -2051.3 v -45.3 h 2033.1 l 18.2,45.3"
         style="fill:#a31156;fill-opacity:1;fill-rule:nonzero;stroke:none"
         id="path154" /><path
         d="m 20352.7,6968.6 c 11.8,40.9 -11.9,74 -52.7,74 -40.9,0 -83.5,-33.1 -95.2,-74 -11.7,-40.8 11.9,-73.9 52.8,-73.9 40.8,0 83.4,33.1 95.1,73.9"
         style="fill:#ffffff;fill-opacity:1;fill-rule:nonzero;stroke:none"
         id="path156" /><path
         d="M 30102.4,2663.7 H 1195.84 c -18.06,0 -32.83,14.8 -32.83,32.9 v 11.2 c 0,18 14.77,32.8 32.83,32.8 H 30102.4 c 18.1,0 32.8,-14.8 32.8,-32.8 v -11.2 c 0,-18.1 -14.7,-32.9 -32.8,-32.9"
         style="fill:#213765;fill-opacity:1;fill-rule:nonzero;stroke:none"
         id="path158" /><path
         d="m 14259.7,2943.8 v -192.3 c 0,-15.3 -5.5,-29.5 -15.1,-41.4 -10.1,-12.4 -24.5,-22.2 -41.4,-27.7 -5.2,-1.7 -10.6,-3 -16.2,-3.8 -5,-0.8 -10.2,-1.2 -15.5,-1.2 h -3647.4 c -47,0 -85.8,31.3 -88.1,70.3 -0.1,1.3 -0.1,2.5 -0.1,3.8 v 192.3 c 0,1.3 0,2.5 0.1,3.8 2.3,39 41.1,70.3 88.1,70.3 h 3647.4 c 5.3,0 10.5,-0.4 15.5,-1.2 5.6,-0.8 11,-2.1 16.2,-3.8 16.9,-5.5 31.3,-15.3 41.4,-27.7 9.6,-11.9 15.1,-26.1 15.1,-41.4"
         style="fill:#f9ad33;fill-opacity:1;fill-rule:nonzero;stroke:none"
         id="path160" /><path
         d="m 12468.7,2677.4 h -1954.1 c -41.9,0 -76.5,31.3 -78.6,70.3 -0.1,1.3 -0.1,2.5 -0.1,3.8 v 192.3 c 0,1.3 0,2.5 0.1,3.8 2.1,39 36.7,70.3 78.6,70.3 h 1714.1 c 27.4,-100.2 91.2,-238.9 240,-340.5"
         style="fill:#f79620;fill-opacity:1;fill-rule:nonzero;stroke:none"
         id="path162" /><path
         d="m 13815.9,2677.4 h -41.5 v 340.5 h 41.5 v -340.5"
         style="fill:#f79620;fill-opacity:1;fill-rule:nonzero;stroke:none"
         id="path164" /><path
         d="m 13675.6,2677.4 h -41.5 v 340.5 h 41.5 v -340.5"
         style="fill:#f79620;fill-opacity:1;fill-rule:nonzero;stroke:none"
         id="path166" /><path
         d="m 13507.3,2677.4 h -41.5 v 340.5 h 41.5 v -340.5"
         style="fill:#f79620;fill-opacity:1;fill-rule:nonzero;stroke:none"
         id="path168" /><path
         d="m 13249.4,2677.4 h -41.5 v 340.5 h 41.5 v -340.5"
         style="fill:#f79620;fill-opacity:1;fill-rule:nonzero;stroke:none"
         id="path170" /><path
         d="m 12976.6,2677.4 h -41.4 v 340.5 h 41.4 v -340.5"
         style="fill:#f79620;fill-opacity:1;fill-rule:nonzero;stroke:none"
         id="path172" /><path
         d="m 12558.5,2677.4 h -41.5 v 340.5 h 41.5 v -340.5"
         style="fill:#f79620;fill-opacity:1;fill-rule:nonzero;stroke:none"
         id="path174" /><path
         d="m 12167,2677.4 h -41.5 v 340.5 h 41.5 v -340.5"
         style="fill:#f79620;fill-opacity:1;fill-rule:nonzero;stroke:none"
         id="path176" /><path
         d="m 11817.4,2677.4 h -41.4 v 340.5 h 41.4 v -340.5"
         style="fill:#f79620;fill-opacity:1;fill-rule:nonzero;stroke:none"
         id="path178" /><path
         d="m 13949.5,2677.4 h -41.5 v 340.5 h 41.5 v -340.5"
         style="fill:#f79620;fill-opacity:1;fill-rule:nonzero;stroke:none"
         id="path180" /><path
         d="m 14037.7,2677.4 h -41.4 v 340.5 h 41.4 v -340.5"
         style="fill:#f79620;fill-opacity:1;fill-rule:nonzero;stroke:none"
         id="path182" /><path
         d="m 14122.9,2677.4 h -41.4 v 340.5 h 41.4 v -340.5"
         style="fill:#f79620;fill-opacity:1;fill-rule:nonzero;stroke:none"
         id="path184" /><path
         d="m 14187,3016.7 v -338.1 c -5,-0.8 -10.2,-1.2 -15.5,-1.2 h -25.9 v 340.5 h 25.9 c 5.3,0 10.5,-0.4 15.5,-1.2"
         style="fill:#f79620;fill-opacity:1;fill-rule:nonzero;stroke:none"
         id="path186" /><path
         d="m 14244.6,2985.2 v -275.1 c -10.1,-12.4 -24.5,-22.2 -41.4,-27.7 v 330.5 c 16.9,-5.5 31.3,-15.3 41.4,-27.7"
         style="fill:#f79620;fill-opacity:1;fill-rule:nonzero;stroke:none"
         id="path188" /><path
         d="M 13869.8,3284.3 V 3092 c 0,-15.3 -5.6,-29.5 -15.2,-41.4 -10,-12.4 -24.5,-22.2 -41.4,-27.7 -5.2,-1.7 -10.6,-3 -16.1,-3.8 -5.1,-0.8 -10.3,-1.2 -15.6,-1.2 h -3647.4 c -47,0 -85.7,31.3 -88.1,70.3 -0.1,1.3 -0.1,2.5 -0.1,3.8 v 192.3 c 0,1.3 0,2.5 0.1,3.8 2.4,39 41.1,70.3 88.1,70.3 h 3647.4 c 2.3,0 4.7,-0.1 7,-0.2 1,-0.1 2,-0.2 3,-0.3 1,-0.1 2.2,-0.2 3.2,-0.4 l 2.4,-0.3 c 5.5,-0.8 10.9,-2.1 16.1,-3.8 l 2.3,-0.8 2.2,-0.8 c 1.5,-0.6 3,-1.2 4.5,-1.8 l 2.5,-1.2 2.3,-1.1 c 1.4,-0.7 2.8,-1.4 4.1,-2.2 1.6,-0.9 3.1,-1.8 4.6,-2.8 1.1,-0.8 2.2,-1.5 3.4,-2.4 l 0.2,-0.1 2.2,-1.7 c 2.3,-1.7 4.4,-3.6 6.4,-5.5 l 1.8,-1.8 1.7,-1.8 c 1.1,-1.2 2.2,-2.5 3.2,-3.7 9.6,-11.9 15.2,-26.1 15.2,-41.4"
         style="fill:#f9ad33;fill-opacity:1;fill-rule:nonzero;stroke:none"
         id="path190" /><path
         d="m 12078.7,3017.9 h -1954 c -42,0 -76.6,31.3 -78.7,70.3 -0.1,1.3 -0.1,2.5 -0.1,3.8 v 192.3 c 0,1.3 0,2.5 0.1,3.8 2.1,39 36.7,70.3 78.7,70.3 h 1714 c 0.8,-2.8 1.6,-5.6 2.4,-8.4 28.6,-99.5 92.9,-233.3 237.6,-332.1"
         style="fill:#f79620;fill-opacity:1;fill-rule:nonzero;stroke:none"
         id="path192" /><path
         d="m 13425.9,3017.9 h -41.4 v 340.5 h 41.4 v -340.5"
         style="fill:#f79620;fill-opacity:1;fill-rule:nonzero;stroke:none"
         id="path194" /><path
         d="m 13285.6,3017.9 h -41.4 v 340.5 h 41.4 v -340.5"
         style="fill:#f79620;fill-opacity:1;fill-rule:nonzero;stroke:none"
         id="path196" /><path
         d="m 13117.3,3017.9 h -41.4 v 340.5 h 41.4 v -340.5"
         style="fill:#f79620;fill-opacity:1;fill-rule:nonzero;stroke:none"
         id="path198" /><path
         d="m 12859.4,3017.9 h -41.5 v 340.5 h 41.5 v -340.5"
         style="fill:#f79620;fill-opacity:1;fill-rule:nonzero;stroke:none"
         id="path200" /><path
         d="m 12586.7,3017.9 h -41.5 v 340.5 h 41.5 v -340.5"
         style="fill:#f79620;fill-opacity:1;fill-rule:nonzero;stroke:none"
         id="path202" /><path
         d="m 12168.5,3017.9 h -41.4 v 340.5 h 41.4 v -340.5"
         style="fill:#f79620;fill-opacity:1;fill-rule:nonzero;stroke:none"
         id="path204" /><path
         d="m 11777,3017.9 h -41.4 v 340.5 h 41.4 v -340.5"
         style="fill:#f79620;fill-opacity:1;fill-rule:nonzero;stroke:none"
         id="path206" /><path
         d="m 11427.4,3017.9 h -41.4 v 340.5 h 41.4 v -340.5"
         style="fill:#f79620;fill-opacity:1;fill-rule:nonzero;stroke:none"
         id="path208" /><path
         d="m 13559.5,3017.9 h -41.5 v 340.5 h 41.5 v -340.5"
         style="fill:#f79620;fill-opacity:1;fill-rule:nonzero;stroke:none"
         id="path210" /><path
         d="m 13647.7,3017.9 h -41.4 v 340.5 h 41.4 v -340.5"
         style="fill:#f79620;fill-opacity:1;fill-rule:nonzero;stroke:none"
         id="path212" /><path
         d="m 13732.9,3017.9 h -41.4 v 340.5 h 41.4 v -340.5"
         style="fill:#f79620;fill-opacity:1;fill-rule:nonzero;stroke:none"
         id="path214" /><path
         d="m 13797.1,3357.2 v -338.1 c -5.1,-0.8 -10.3,-1.2 -15.6,-1.2 h -25.9 v 340.5 h 25.9 c 5.3,0 10.5,-0.4 15.6,-1.2"
         style="fill:#f79620;fill-opacity:1;fill-rule:nonzero;stroke:none"
         id="path216" /><path
         d="m 13854.6,3325.7 v -275.1 c -10,-12.4 -24.5,-22.2 -41.4,-27.7 v 330.5 c 16.9,-5.5 31.4,-15.3 41.4,-27.7"
         style="fill:#f79620;fill-opacity:1;fill-rule:nonzero;stroke:none"
         id="path218" /><path
         d="m 14058.2,3616.4 v -192.3 c 0,-15.3 -5.6,-29.5 -15.1,-41.4 -10.1,-12.4 -24.5,-22.2 -41.4,-27.7 -5.2,-1.7 -10.6,-3 -16.2,-3.8 -5.1,-0.8 -10.2,-1.2 -15.5,-1.2 h -3647.4 c -14.7,0 -28.5,3 -40.7,8.4 -25.8,11.4 -44.2,33.2 -47.2,58.6 -0.1,1.1 -0.2,2.2 -0.3,3.3 0,1.3 -0.1,2.6 -0.1,3.8 v 192.3 c 0,1.3 0.1,2.5 0.1,3.8 2.4,39 41.2,70.3 88.2,70.3 H 13970 c 5.3,0 10.4,-0.4 15.5,-1.2 5.6,-0.8 11,-2.1 16.2,-3.8 16.9,-5.5 31.3,-15.3 41.4,-27.7 9.5,-11.9 15.1,-26.1 15.1,-41.4"
         style="fill:#f9ad33;fill-opacity:1;fill-rule:nonzero;stroke:none"
         id="path220" /><path
         d="m 12267.1,3350 h -1954 c -13.1,0 -25.4,3 -36.3,8.4 -23,11.4 -39.5,33.2 -42.1,58.6 -0.1,1.1 -0.2,2.2 -0.3,3.3 0,1.3 -0.1,2.6 -0.1,3.8 v 192.3 c 0,1.3 0.1,2.5 0.1,3.8 2.2,39 36.8,70.3 78.7,70.3 h 1714.1 c 26.6,-97.5 87.7,-231.3 227.9,-332.1 4,-2.8 8,-5.6 12,-8.4"
         style="fill:#f79620;fill-opacity:1;fill-rule:nonzero;stroke:none"
         id="path222" /><path
         d="m 13614.4,3350 h -41.5 v 340.5 h 41.5 V 3350"
         style="fill:#f79620;fill-opacity:1;fill-rule:nonzero;stroke:none"
         id="path224" /><path
         d="m 13474.1,3350 h -41.5 v 340.5 h 41.5 V 3350"
         style="fill:#f79620;fill-opacity:1;fill-rule:nonzero;stroke:none"
         id="path226" /><path
         d="m 13305.8,3350 h -41.5 v 340.5 h 41.5 V 3350"
         style="fill:#f79620;fill-opacity:1;fill-rule:nonzero;stroke:none"
         id="path228" /><path
         d="m 13047.9,3350 h -41.5 v 340.5 h 41.5 V 3350"
         style="fill:#f79620;fill-opacity:1;fill-rule:nonzero;stroke:none"
         id="path230" /><path
         d="m 12775.1,3350 h -41.4 v 340.5 h 41.4 V 3350"
         style="fill:#f79620;fill-opacity:1;fill-rule:nonzero;stroke:none"
         id="path232" /><path
         d="m 12357,3350 h -41.5 v 340.5 h 41.5 V 3350"
         style="fill:#f79620;fill-opacity:1;fill-rule:nonzero;stroke:none"
         id="path234" /><path
         d="m 11965.5,3350 h -41.5 v 340.5 h 41.5 V 3350"
         style="fill:#f79620;fill-opacity:1;fill-rule:nonzero;stroke:none"
         id="path236" /><path
         d="m 11615.9,3350 h -41.5 v 340.5 h 41.5 V 3350"
         style="fill:#f79620;fill-opacity:1;fill-rule:nonzero;stroke:none"
         id="path238" /><path
         d="m 13747.9,3350 h -41.4 v 340.5 h 41.4 V 3350"
         style="fill:#f79620;fill-opacity:1;fill-rule:nonzero;stroke:none"
         id="path240" /><path
         d="m 13836.2,3350 h -41.5 v 340.5 h 41.5 V 3350"
         style="fill:#f79620;fill-opacity:1;fill-rule:nonzero;stroke:none"
         id="path242" /><path
         d="m 13921.4,3350 h -41.4 v 340.5 h 41.4 V 3350"
         style="fill:#f79620;fill-opacity:1;fill-rule:nonzero;stroke:none"
         id="path244" /><path
         d="m 13985.5,3689.3 v -338.1 c -5.1,-0.8 -10.2,-1.2 -15.5,-1.2 h -25.9 v 340.5 h 25.9 c 5.3,0 10.4,-0.4 15.5,-1.2"
         style="fill:#f79620;fill-opacity:1;fill-rule:nonzero;stroke:none"
         id="path246" /><path
         d="m 14043.1,3657.8 v -275.1 c -10.1,-12.4 -24.5,-22.2 -41.4,-27.7 v 330.5 c 16.9,-5.5 31.3,-15.3 41.4,-27.7"
         style="fill:#f79620;fill-opacity:1;fill-rule:nonzero;stroke:none"
         id="path248" /><path
         d="m 14145.6,3956.9 v -192.3 c 0,-15.3 -5.6,-29.5 -15.2,-41.4 -10,-12.4 -24.4,-22.2 -41.4,-27.7 -5.1,-1.7 -10.6,-3 -16.1,-3.8 -5.1,-0.8 -10.3,-1.2 -15.6,-1.2 H 10410 c -47.1,0 -85.8,31.3 -88.2,70.3 -0.1,1.3 -0.1,2.5 -0.1,3.8 v 192.3 c 0,1.3 0,2.6 0.1,3.8 2.2,36.1 35.5,65.6 77.7,69.8 3.4,0.4 6.9,0.5 10.5,0.5 h 3647.3 c 5.3,0 10.5,-0.4 15.6,-1.2 5.5,-0.8 11,-2.1 16.1,-3.8 17,-5.5 31.4,-15.3 41.4,-27.7 9.6,-11.9 15.2,-26.1 15.2,-41.4"
         style="fill:#f9ad33;fill-opacity:1;fill-rule:nonzero;stroke:none"
         id="path250" /><path
         d="m 12354.5,3690.5 h -1954 c -42,0 -76.6,31.3 -78.7,70.3 -0.1,1.3 -0.1,2.5 -0.1,3.8 v 192.3 c 0,1.3 0,2.6 0.1,3.8 2,36.1 31.7,65.6 69.4,69.8 3,0.4 6.1,0.5 9.3,0.5 h 1714.1 l 0.1,-0.5 c 27.5,-100.2 91.3,-238.5 239.8,-340"
         style="fill:#f79620;fill-opacity:1;fill-rule:nonzero;stroke:none"
         id="path252" /><path
         d="m 13701.7,3690.5 h -41.4 V 4031 h 41.4 v -340.5"
         style="fill:#f79620;fill-opacity:1;fill-rule:nonzero;stroke:none"
         id="path254" /><path
         d="M 13561.4,3690.5 H 13520 V 4031 h 41.4 v -340.5"
         style="fill:#f79620;fill-opacity:1;fill-rule:nonzero;stroke:none"
         id="path256" /><path
         d="m 13393.2,3690.5 h -41.5 V 4031 h 41.5 v -340.5"
         style="fill:#f79620;fill-opacity:1;fill-rule:nonzero;stroke:none"
         id="path258" /><path
         d="m 13135.2,3690.5 h -41.4 V 4031 h 41.4 v -340.5"
         style="fill:#f79620;fill-opacity:1;fill-rule:nonzero;stroke:none"
         id="path260" /><path
         d="M 12862.5,3690.5 H 12821 V 4031 h 41.5 v -340.5"
         style="fill:#f79620;fill-opacity:1;fill-rule:nonzero;stroke:none"
         id="path262" /><path
         d="m 12444.3,3690.5 h -41.4 V 4031 h 41.4 v -340.5"
         style="fill:#f79620;fill-opacity:1;fill-rule:nonzero;stroke:none"
         id="path264" /><path
         d="m 12052.8,3690.5 h -41.4 V 4031 h 41.4 v -340.5"
         style="fill:#f79620;fill-opacity:1;fill-rule:nonzero;stroke:none"
         id="path266" /><path
         d="m 11703.3,3690.5 h -41.5 V 4031 h 41.5 v -340.5"
         style="fill:#f79620;fill-opacity:1;fill-rule:nonzero;stroke:none"
         id="path268" /><path
         d="m 13835.3,3690.5 h -41.4 V 4031 h 41.4 v -340.5"
         style="fill:#f79620;fill-opacity:1;fill-rule:nonzero;stroke:none"
         id="path270" /><path
         d="m 13923.6,3690.5 h -41.5 V 4031 h 41.5 v -340.5"
         style="fill:#f79620;fill-opacity:1;fill-rule:nonzero;stroke:none"
         id="path272" /><path
         d="m 14008.8,3690.5 h -41.5 V 4031 h 41.5 v -340.5"
         style="fill:#f79620;fill-opacity:1;fill-rule:nonzero;stroke:none"
         id="path274" /><path
         d="m 14072.9,4029.8 v -338.1 c -5.1,-0.8 -10.3,-1.2 -15.6,-1.2 h -25.9 V 4031 h 25.9 c 5.3,0 10.5,-0.4 15.6,-1.2"
         style="fill:#f79620;fill-opacity:1;fill-rule:nonzero;stroke:none"
         id="path276" /><path
         d="m 14130.4,3998.3 v -275 c -10,-12.5 -24.4,-22.3 -41.4,-27.8 V 4026 c 17,-5.5 31.4,-15.2 41.4,-27.7"
         style="fill:#f79620;fill-opacity:1;fill-rule:nonzero;stroke:none"
         id="path278" /><path
         d="m 13877.4,4296.9 v -192.3 c 0,-15.3 -5.5,-29.5 -15.1,-41.4 -10.1,-12.4 -24.5,-22.2 -41.4,-27.7 -5.2,-1.7 -10.6,-3 -16.2,-3.8 -1.7,-0.3 -3.4,-0.5 -5.1,-0.7 -0.9,-0.1 -1.9,-0.1 -2.9,-0.2 -0.9,-0.1 -1.9,-0.2 -2.9,-0.2 -1.5,-0.1 -3.1,-0.1 -4.6,-0.1 h -3647.4 c -47,0 -85.8,31.3 -88.2,70.3 0,1.3 -0.1,2.5 -0.1,3.8 v 192.3 c 0,1.3 0.1,2.5 0.1,3.8 0.1,1.1 0.2,2.1 0.3,3.1 3.5,31.4 30.6,57.3 66.1,64.9 l 2.7,0.5 c 6.2,1.2 12.6,1.8 19.1,1.8 h 3647.4 c 2.6,0 5.3,-0.1 7.9,-0.3 1.1,-0.1 2.3,-0.2 3.5,-0.3 v 0 c 1.4,-0.2 2.8,-0.4 4.1,-0.6 5.6,-0.8 11,-2.1 16.2,-3.8 16.9,-5.5 31.3,-15.3 41.4,-27.7 9.6,-11.9 15.1,-26.1 15.1,-41.4"
         style="fill:#f9ad33;fill-opacity:1;fill-rule:nonzero;stroke:none"
         id="path280" /><path
         d="m 12086.4,4030.5 h -1954.1 c -41.9,0 -76.5,31.3 -78.7,70.3 0,1.3 -0.1,2.5 -0.1,3.8 v 192.3 c 0,1.3 0.1,2.5 0.1,3.8 0.1,1.1 0.2,2.1 0.3,3.1 3.2,32.1 28.4,58.4 61.1,65.3 1.1,0.3 2.3,0.5 3.4,0.7 4.5,0.8 9.1,1.2 13.9,1.2 h 1714.1 l 0.7,-2.4 c 27.6,-99.9 91.4,-236.8 238.5,-337.6 l 0.8,-0.5"
         style="fill:#f79620;fill-opacity:1;fill-rule:nonzero;stroke:none"
         id="path282" /><path
         d="m 13433.6,4030.5 h -41.5 V 4371 h 41.5 v -340.5"
         style="fill:#f79620;fill-opacity:1;fill-rule:nonzero;stroke:none"
         id="path284" /><path
         d="m 13293.3,4030.5 h -41.5 V 4371 h 41.5 v -340.5"
         style="fill:#f79620;fill-opacity:1;fill-rule:nonzero;stroke:none"
         id="path286" /><path
         d="m 13125,4030.5 h -41.5 V 4371 h 41.5 v -340.5"
         style="fill:#f79620;fill-opacity:1;fill-rule:nonzero;stroke:none"
         id="path288" /><path
         d="m 12867.1,4030.5 h -41.5 V 4371 h 41.5 v -340.5"
         style="fill:#f79620;fill-opacity:1;fill-rule:nonzero;stroke:none"
         id="path290" /><path
         d="m 12594.3,4030.5 h -41.4 V 4371 h 41.4 v -340.5"
         style="fill:#f79620;fill-opacity:1;fill-rule:nonzero;stroke:none"
         id="path292" /><path
         d="m 12176.2,4030.5 h -41.5 V 4371 h 41.5 v -340.5"
         style="fill:#f79620;fill-opacity:1;fill-rule:nonzero;stroke:none"
         id="path294" /><path
         d="m 11784.7,4030.5 h -41.5 V 4371 h 41.5 v -340.5"
         style="fill:#f79620;fill-opacity:1;fill-rule:nonzero;stroke:none"
         id="path296" /><path
         d="m 11435.1,4030.5 h -41.4 V 4371 h 41.4 v -340.5"
         style="fill:#f79620;fill-opacity:1;fill-rule:nonzero;stroke:none"
         id="path298" /><path
         d="m 13567.2,4030.5 h -41.5 V 4371 h 41.5 v -340.5"
         style="fill:#f79620;fill-opacity:1;fill-rule:nonzero;stroke:none"
         id="path300" /><path
         d="M 13655.4,4030.5 H 13614 V 4371 h 41.4 v -340.5"
         style="fill:#f79620;fill-opacity:1;fill-rule:nonzero;stroke:none"
         id="path302" /><path
         d="m 13740.6,4030.5 h -41.4 V 4371 h 41.4 v -340.5"
         style="fill:#f79620;fill-opacity:1;fill-rule:nonzero;stroke:none"
         id="path304" /><path
         d="m 13804.7,4369.8 v -338.1 c -5,-0.8 -10.2,-1.2 -15.5,-1.2 h -25.9 V 4371 h 25.9 c 5.3,0 10.5,-0.4 15.5,-1.2"
         style="fill:#f79620;fill-opacity:1;fill-rule:nonzero;stroke:none"
         id="path306" /><path
         d="m 13862.3,4338.3 v -275.1 c -10.1,-12.4 -24.5,-22.2 -41.4,-27.7 V 4366 c 16.9,-5.5 31.3,-15.3 41.4,-27.7"
         style="fill:#f79620;fill-opacity:1;fill-rule:nonzero;stroke:none"
         id="path308" /><path
         d="m 13869.8,4635 v -192.3 c 0,-15.3 -5.6,-29.6 -15.2,-41.4 -10,-12.5 -24.5,-22.2 -41.4,-27.7 -4,-1.4 -8.3,-2.4 -12.6,-3.2 h -0.1 c -1.1,-0.3 -2.3,-0.5 -3.4,-0.6 -5.1,-0.8 -10.3,-1.2 -15.6,-1.2 h -3647.4 c -3.8,0 -7.7,0.2 -11.4,0.6 -1.4,0.2 -2.9,0.4 -4.3,0.6 -39.7,6 -70.3,34.5 -72.4,69.1 -0.1,1.2 -0.1,2.5 -0.1,3.8 V 4635 c 0,1.2 0,2.5 0.1,3.8 2.4,39 41.1,70.3 88.1,70.3 h 3647.4 c 2.3,0 4.7,-0.1 7,-0.3 1,-0.1 2,-0.1 3,-0.2 1,-0.1 2.2,-0.2 3.2,-0.4 l 2.4,-0.3 c 5.5,-0.8 10.9,-2.1 16.1,-3.8 l 2.3,-0.8 2.2,-0.8 c 1.6,-0.6 3,-1.2 4.5,-1.8 1.6,-0.8 3.2,-1.5 4.8,-2.3 1.4,-0.7 2.8,-1.4 4.1,-2.2 1.6,-0.9 3.1,-1.9 4.6,-2.9 1.1,-0.7 2.2,-1.5 3.4,-2.3 l 0.2,-0.2 2.2,-1.6 c 2.3,-1.7 4.4,-3.6 6.4,-5.6 l 1.8,-1.7 1.7,-1.8 c 1.1,-1.2 2.2,-2.5 3.2,-3.8 9.6,-11.8 15.2,-26 15.2,-41.3"
         style="fill:#f9ad33;fill-opacity:1;fill-rule:nonzero;stroke:none"
         id="path310" /><path
         d="m 12078.7,4368.6 h -1954 c -1.6,0 -3.2,0 -4.7,0.1 -1.7,0.1 -3.3,0.2 -5,0.4 -37.5,4.4 -67.1,33.8 -69,69.8 -0.1,1.2 -0.1,2.5 -0.1,3.8 V 4635 c 0,1.2 0,2.5 0.1,3.8 2.1,39 36.7,70.3 78.7,70.3 h 1714 c 0.8,-2.8 1.6,-5.6 2.4,-8.4 28.4,-98.7 91.8,-231.1 234.1,-329.7 1.2,-0.8 2.3,-1.6 3.5,-2.4"
         style="fill:#f79620;fill-opacity:1;fill-rule:nonzero;stroke:none"
         id="path312" /><path
         d="m 13425.9,4368.6 h -41.4 v 340.5 h 41.4 v -340.5"
         style="fill:#f79620;fill-opacity:1;fill-rule:nonzero;stroke:none"
         id="path314" /><path
         d="m 13285.6,4368.6 h -41.4 v 340.5 h 41.4 v -340.5"
         style="fill:#f79620;fill-opacity:1;fill-rule:nonzero;stroke:none"
         id="path316" /><path
         d="m 13117.3,4368.6 h -41.4 v 340.5 h 41.4 v -340.5"
         style="fill:#f79620;fill-opacity:1;fill-rule:nonzero;stroke:none"
         id="path318" /><path
         d="m 12859.4,4368.6 h -41.5 v 340.5 h 41.5 v -340.5"
         style="fill:#f79620;fill-opacity:1;fill-rule:nonzero;stroke:none"
         id="path320" /><path
         d="m 12586.7,4368.6 h -41.5 v 340.5 h 41.5 v -340.5"
         style="fill:#f79620;fill-opacity:1;fill-rule:nonzero;stroke:none"
         id="path322" /><path
         d="m 12168.5,4368.6 h -41.4 v 340.5 h 41.4 v -340.5"
         style="fill:#f79620;fill-opacity:1;fill-rule:nonzero;stroke:none"
         id="path324" /><path
         d="m 11777,4368.6 h -41.4 v 340.5 h 41.4 v -340.5"
         style="fill:#f79620;fill-opacity:1;fill-rule:nonzero;stroke:none"
         id="path326" /><path
         d="m 11427.4,4368.6 h -41.4 v 340.5 h 41.4 v -340.5"
         style="fill:#f79620;fill-opacity:1;fill-rule:nonzero;stroke:none"
         id="path328" /><path
         d="m 13559.5,4368.6 h -41.5 v 340.5 h 41.5 v -340.5"
         style="fill:#f79620;fill-opacity:1;fill-rule:nonzero;stroke:none"
         id="path330" /><path
         d="m 13647.7,4368.6 h -41.4 v 340.5 h 41.4 v -340.5"
         style="fill:#f79620;fill-opacity:1;fill-rule:nonzero;stroke:none"
         id="path332" /><path
         d="m 13732.9,4368.6 h -41.4 v 340.5 h 41.4 v -340.5"
         style="fill:#f79620;fill-opacity:1;fill-rule:nonzero;stroke:none"
         id="path334" /><path
         d="m 13797.1,4707.9 v -338.1 c -5.1,-0.8 -10.3,-1.2 -15.6,-1.2 h -25.9 v 340.5 h 25.9 c 5.3,0 10.5,-0.4 15.6,-1.2"
         style="fill:#f79620;fill-opacity:1;fill-rule:nonzero;stroke:none"
         id="path336" /><path
         d="m 13854.6,4676.3 v -275 c -10,-12.5 -24.5,-22.2 -41.4,-27.7 v 330.5 c 16.9,-5.5 31.4,-15.3 41.4,-27.8"
         style="fill:#f79620;fill-opacity:1;fill-rule:nonzero;stroke:none"
         id="path338" /><path
         d="m 14058.2,4967.1 v -192.3 c 0,-15.3 -5.6,-29.5 -15.1,-41.4 -10.1,-12.4 -24.5,-22.2 -41.4,-27.7 -5.2,-1.7 -10.6,-3 -16.2,-3.8 -5.1,-0.8 -10.2,-1.2 -15.5,-1.2 h -3647.4 c -14.7,0 -28.5,3 -40.7,8.4 -25.8,11.3 -44.2,33.1 -47.2,58.6 -0.1,1.1 -0.2,2.2 -0.3,3.3 0,1.2 -0.1,2.5 -0.1,3.8 v 192.3 c 0,1.2 0.1,2.5 0.1,3.8 2.4,39 41.2,70.3 88.2,70.3 H 13970 c 5.3,0 10.4,-0.4 15.5,-1.2 5.6,-0.8 11,-2.1 16.2,-3.8 16.9,-5.5 31.3,-15.3 41.4,-27.7 9.5,-11.9 15.1,-26.1 15.1,-41.4"
         style="fill:#f9ad33;fill-opacity:1;fill-rule:nonzero;stroke:none"
         id="path340" /><path
         d="m 12267.1,4700.7 h -1954 c -13.1,0 -25.4,3 -36.3,8.4 -23,11.3 -39.5,33.1 -42.1,58.6 -0.1,1.1 -0.2,2.2 -0.3,3.3 0,1.2 -0.1,2.5 -0.1,3.8 v 192.3 c 0,1.2 0.1,2.5 0.1,3.8 2.2,39 36.8,70.3 78.7,70.3 h 1714.1 c 26.6,-97.5 87.7,-231.3 227.9,-332.1 4,-2.9 8,-5.6 12,-8.4"
         style="fill:#f79620;fill-opacity:1;fill-rule:nonzero;stroke:none"
         id="path342" /><path
         d="m 13614.4,4700.7 h -41.5 v 340.5 h 41.5 v -340.5"
         style="fill:#f79620;fill-opacity:1;fill-rule:nonzero;stroke:none"
         id="path344" /><path
         d="m 13474.1,4700.7 h -41.5 v 340.5 h 41.5 v -340.5"
         style="fill:#f79620;fill-opacity:1;fill-rule:nonzero;stroke:none"
         id="path346" /><path
         d="m 13305.8,4700.7 h -41.5 v 340.5 h 41.5 v -340.5"
         style="fill:#f79620;fill-opacity:1;fill-rule:nonzero;stroke:none"
         id="path348" /><path
         d="m 13047.9,4700.7 h -41.5 v 340.5 h 41.5 v -340.5"
         style="fill:#f79620;fill-opacity:1;fill-rule:nonzero;stroke:none"
         id="path350" /><path
         d="m 12775.1,4700.7 h -41.4 v 340.5 h 41.4 v -340.5"
         style="fill:#f79620;fill-opacity:1;fill-rule:nonzero;stroke:none"
         id="path352" /><path
         d="m 12357,4700.7 h -41.5 v 340.5 h 41.5 v -340.5"
         style="fill:#f79620;fill-opacity:1;fill-rule:nonzero;stroke:none"
         id="path354" /><path
         d="m 11965.5,4700.7 h -41.5 v 340.5 h 41.5 v -340.5"
         style="fill:#f79620;fill-opacity:1;fill-rule:nonzero;stroke:none"
         id="path356" /><path
         d="m 11615.9,4700.7 h -41.5 v 340.5 h 41.5 v -340.5"
         style="fill:#f79620;fill-opacity:1;fill-rule:nonzero;stroke:none"
         id="path358" /><path
         d="m 13747.9,4700.7 h -41.4 v 340.5 h 41.4 v -340.5"
         style="fill:#f79620;fill-opacity:1;fill-rule:nonzero;stroke:none"
         id="path360" /><path
         d="m 13836.2,4700.7 h -41.5 v 340.5 h 41.5 v -340.5"
         style="fill:#f79620;fill-opacity:1;fill-rule:nonzero;stroke:none"
         id="path362" /><path
         d="m 13921.4,4700.7 h -41.4 v 340.5 h 41.4 v -340.5"
         style="fill:#f79620;fill-opacity:1;fill-rule:nonzero;stroke:none"
         id="path364" /><path
         d="m 13985.5,5040 v -338.1 c -5.1,-0.8 -10.2,-1.2 -15.5,-1.2 h -25.9 v 340.5 h 25.9 c 5.3,0 10.4,-0.4 15.5,-1.2"
         style="fill:#f79620;fill-opacity:1;fill-rule:nonzero;stroke:none"
         id="path366" /><path
         d="m 14043.1,5008.4 v -275 c -10.1,-12.5 -24.5,-22.2 -41.4,-27.7 v 330.5 c 16.9,-5.5 31.3,-15.3 41.4,-27.8"
         style="fill:#f79620;fill-opacity:1;fill-rule:nonzero;stroke:none"
         id="path368" /><path
         d="m 14356.3,5307.6 v -192.3 c 0,-15.3 -5.6,-29.5 -15.2,-41.4 -10,-12.4 -24.4,-22.2 -41.4,-27.7 -5.1,-1.7 -10.6,-3 -16.1,-3.8 -5.1,-0.8 -10.3,-1.2 -15.6,-1.2 h -3647.4 c -47,0 -85.7,31.3 -88.1,70.3 -0.1,1.3 -0.1,2.5 -0.1,3.8 v 192.3 c 0,1.2 0,2.5 0.1,3.8 2.2,36 35.5,65.5 77.7,69.8 3.4,0.3 6.9,0.5 10.4,0.5 H 14268 c 5.3,0 10.5,-0.4 15.6,-1.2 5.5,-0.8 11,-2.1 16.1,-3.8 17,-5.5 31.4,-15.3 41.4,-27.7 9.6,-11.9 15.2,-26.1 15.2,-41.4"
         style="fill:#f9ad33;fill-opacity:1;fill-rule:nonzero;stroke:none"
         id="path370" /><path
         d="m 12565.2,5041.2 h -1954 c -42,0 -76.6,31.3 -78.7,70.3 -0.1,1.3 -0.1,2.5 -0.1,3.8 v 192.3 c 0,1.2 0,2.5 0.1,3.8 1.9,36 31.7,65.5 69.4,69.8 3,0.3 6.1,0.5 9.3,0.5 h 1714 l 0.2,-0.5 c 27.5,-100.2 91.3,-238.5 239.8,-340"
         style="fill:#f79620;fill-opacity:1;fill-rule:nonzero;stroke:none"
         id="path372" /><path
         d="m 13912.5,5041.2 h -41.5 v 340.5 h 41.5 v -340.5"
         style="fill:#f79620;fill-opacity:1;fill-rule:nonzero;stroke:none"
         id="path374" /><path
         d="m 13772.1,5041.2 h -41.4 v 340.5 h 41.4 v -340.5"
         style="fill:#f79620;fill-opacity:1;fill-rule:nonzero;stroke:none"
         id="path376" /><path
         d="m 13603.9,5041.2 h -41.5 v 340.5 h 41.5 v -340.5"
         style="fill:#f79620;fill-opacity:1;fill-rule:nonzero;stroke:none"
         id="path378" /><path
         d="m 13345.9,5041.2 h -41.4 v 340.5 h 41.4 v -340.5"
         style="fill:#f79620;fill-opacity:1;fill-rule:nonzero;stroke:none"
         id="path380" /><path
         d="m 13073.2,5041.2 h -41.5 v 340.5 h 41.5 v -340.5"
         style="fill:#f79620;fill-opacity:1;fill-rule:nonzero;stroke:none"
         id="path382" /><path
         d="m 12655.1,5041.2 h -41.5 v 340.5 h 41.5 v -340.5"
         style="fill:#f79620;fill-opacity:1;fill-rule:nonzero;stroke:none"
         id="path384" /><path
         d="m 12263.6,5041.2 h -41.5 v 340.5 h 41.5 v -340.5"
         style="fill:#f79620;fill-opacity:1;fill-rule:nonzero;stroke:none"
         id="path386" /><path
         d="m 11914,5041.2 h -41.5 v 340.5 h 41.5 v -340.5"
         style="fill:#f79620;fill-opacity:1;fill-rule:nonzero;stroke:none"
         id="path388" /><path
         d="m 14046,5041.2 h -41.4 v 340.5 h 41.4 v -340.5"
         style="fill:#f79620;fill-opacity:1;fill-rule:nonzero;stroke:none"
         id="path390" /><path
         d="m 14134.3,5041.2 h -41.5 v 340.5 h 41.5 v -340.5"
         style="fill:#f79620;fill-opacity:1;fill-rule:nonzero;stroke:none"
         id="path392" /><path
         d="m 14219.5,5041.2 h -41.5 v 340.5 h 41.5 v -340.5"
         style="fill:#f79620;fill-opacity:1;fill-rule:nonzero;stroke:none"
         id="path394" /><path
         d="m 14283.6,5380.5 v -338.1 c -5.1,-0.8 -10.3,-1.2 -15.6,-1.2 h -25.9 v 340.5 h 25.9 c 5.3,0 10.5,-0.4 15.6,-1.2"
         style="fill:#f79620;fill-opacity:1;fill-rule:nonzero;stroke:none"
         id="path396" /><path
         d="m 14341.2,5349 v -275.1 c -10.1,-12.4 -24.5,-22.2 -41.5,-27.7 v 330.5 c 17,-5.5 31.4,-15.3 41.5,-27.7"
         style="fill:#f79620;fill-opacity:1;fill-rule:nonzero;stroke:none"
         id="path398" /><path
         d="m 13877.4,5647.5 v -192.2 c 0,-15.4 -5.5,-29.6 -15.1,-41.4 -10.1,-12.5 -24.5,-22.3 -41.4,-27.7 -5.2,-1.8 -10.6,-3 -16.2,-3.9 -1.7,-0.2 -3.4,-0.4 -5.1,-0.6 -1.4,-0.2 -2.7,-0.3 -4.1,-0.3 l -2,-0.2 c -1.5,0 -2.9,0 -4.3,0 h -3647.4 c -47,0 -85.8,31.3 -88.2,70.3 0,1.2 -0.1,2.5 -0.1,3.8 v 192.2 c 0,1.3 0.1,2.6 0.1,3.9 2.4,39 41.2,70.3 88.2,70.3 h 3647.4 c 1.5,0 3.1,-0.1 4.6,-0.2 3.8,-0.1 7.4,-0.5 10.9,-1 5.6,-0.9 11,-2.1 16.2,-3.8 2.6,-0.9 5.2,-1.8 7.6,-2.9 1.6,-0.7 3.1,-1.3 4.6,-2.1 l 0.5,-0.2 c 1.5,-0.7 2.9,-1.5 4.4,-2.3 l 0.7,-0.5 c 1.4,-0.7 2.7,-1.5 4,-2.4 3.1,-1.9 6,-4.1 8.8,-6.4 l 2.4,-2.2 0.5,-0.4 1.5,-1.4 0.3,-0.3 c 0.9,-0.8 1.7,-1.7 2.6,-2.7 1.2,-1.3 2.4,-2.6 3.5,-4 9.6,-11.8 15.1,-26 15.1,-41.4"
         style="fill:#f9ad33;fill-opacity:1;fill-rule:nonzero;stroke:none"
         id="path400" /><path
         d="m 12086.4,5381.2 h -1954.1 c -41.9,0 -76.5,31.3 -78.7,70.3 0,1.2 -0.1,2.5 -0.1,3.8 v 192.2 c 0,1.3 0.1,2.6 0.1,3.9 2.2,39 36.8,70.3 78.7,70.3 h 1714.1 c 0.7,-2.6 1.4,-5.2 2.2,-7.9 28.5,-99.3 92.6,-233.1 237,-332.1 l 0.8,-0.5"
         style="fill:#f79620;fill-opacity:1;fill-rule:nonzero;stroke:none"
         id="path402" /><path
         d="m 13433.6,5381.1 h -41.5 v 340.6 h 41.5 v -340.6"
         style="fill:#f79620;fill-opacity:1;fill-rule:nonzero;stroke:none"
         id="path404" /><path
         d="m 13293.3,5381.1 h -41.5 v 340.6 h 41.5 v -340.6"
         style="fill:#f79620;fill-opacity:1;fill-rule:nonzero;stroke:none"
         id="path406" /><path
         d="m 13125,5381.1 h -41.5 v 340.6 h 41.5 v -340.6"
         style="fill:#f79620;fill-opacity:1;fill-rule:nonzero;stroke:none"
         id="path408" /><path
         d="m 12867.1,5381.1 h -41.5 v 340.6 h 41.5 v -340.6"
         style="fill:#f79620;fill-opacity:1;fill-rule:nonzero;stroke:none"
         id="path410" /><path
         d="m 12594.3,5381.1 h -41.4 v 340.6 h 41.4 v -340.6"
         style="fill:#f79620;fill-opacity:1;fill-rule:nonzero;stroke:none"
         id="path412" /><path
         d="m 12176.2,5381.1 h -41.5 v 340.6 h 41.5 v -340.6"
         style="fill:#f79620;fill-opacity:1;fill-rule:nonzero;stroke:none"
         id="path414" /><path
         d="m 11784.7,5381.1 h -41.5 v 340.6 h 41.5 v -340.6"
         style="fill:#f79620;fill-opacity:1;fill-rule:nonzero;stroke:none"
         id="path416" /><path
         d="m 11435.1,5381.1 h -41.4 v 340.6 h 41.4 v -340.6"
         style="fill:#f79620;fill-opacity:1;fill-rule:nonzero;stroke:none"
         id="path418" /><path
         d="m 13567.2,5381.1 h -41.5 v 340.6 h 41.5 v -340.6"
         style="fill:#f79620;fill-opacity:1;fill-rule:nonzero;stroke:none"
         id="path420" /><path
         d="m 13655.4,5381.1 h -41.4 v 340.6 h 41.4 v -340.6"
         style="fill:#f79620;fill-opacity:1;fill-rule:nonzero;stroke:none"
         id="path422" /><path
         d="m 13740.6,5381.1 h -41.4 v 340.6 h 41.4 v -340.6"
         style="fill:#f79620;fill-opacity:1;fill-rule:nonzero;stroke:none"
         id="path424" /><path
         d="m 13804.7,5720.5 v -338.2 c -5,-0.7 -10.2,-1.1 -15.5,-1.1 h -25.9 v 340.5 h 25.9 c 5.3,0 10.5,-0.5 15.5,-1.2"
         style="fill:#f79620;fill-opacity:1;fill-rule:nonzero;stroke:none"
         id="path426" /><path
         d="m 13862.3,5688.9 v -275 c -10.1,-12.5 -24.5,-22.3 -41.4,-27.7 v 330.5 c 16.9,-5.5 31.3,-15.3 41.4,-27.8"
         style="fill:#f79620;fill-opacity:1;fill-rule:nonzero;stroke:none"
         id="path428" /><path
         d="m 14145.6,5980.2 v -192.3 c 0,-15.3 -5.6,-29.5 -15.2,-41.4 -10,-12.4 -24.4,-22.2 -41.4,-27.7 -5.1,-1.7 -10.6,-3 -16.1,-3.8 -5.1,-0.8 -10.3,-1.2 -15.6,-1.2 H 10410 c -14.2,0 -27.6,2.8 -39.5,7.9 -26.6,11.1 -45.6,33.4 -48.5,59.4 -0.1,0.9 -0.2,2 -0.2,3 -0.1,1.3 -0.1,2.5 -0.1,3.8 v 192.3 c 0,1.3 0,2.5 0.1,3.8 2.2,36.1 35.5,65.5 77.7,69.8 3.4,0.3 6.9,0.5 10.5,0.5 h 3647.3 c 5.3,0 10.5,-0.4 15.6,-1.2 5.5,-0.8 11,-2.1 16.1,-3.8 17,-5.5 31.4,-15.3 41.4,-27.7 9.6,-11.9 15.2,-26.1 15.2,-41.4"
         style="fill:#f9ad33;fill-opacity:1;fill-rule:nonzero;stroke:none"
         id="path430" /><path
         d="m 12354.5,5713.8 h -1954 c -12.6,0 -24.6,2.8 -35.2,7.9 -23.7,11.1 -40.7,33.4 -43.3,59.4 -0.1,0.9 -0.2,2 -0.2,3 -0.1,1.3 -0.1,2.5 -0.1,3.8 v 192.3 c 0,1.3 0,2.5 0.1,3.8 2,36 31.7,65.5 69.4,69.8 3,0.3 6.1,0.5 9.3,0.5 h 1714.1 l 0.1,-0.5 c 26.7,-97.7 88.1,-231.5 228.6,-332.1 3.7,-2.7 7.4,-5.3 11.2,-7.9"
         style="fill:#f79620;fill-opacity:1;fill-rule:nonzero;stroke:none"
         id="path432" /><path
         d="m 13701.7,5713.8 h -41.4 v 340.5 h 41.4 v -340.5"
         style="fill:#f79620;fill-opacity:1;fill-rule:nonzero;stroke:none"
         id="path434" /><path
         d="m 13561.4,5713.8 h -41.4 v 340.5 h 41.4 v -340.5"
         style="fill:#f79620;fill-opacity:1;fill-rule:nonzero;stroke:none"
         id="path436" /><path
         d="m 13393.2,5713.8 h -41.5 v 340.5 h 41.5 v -340.5"
         style="fill:#f79620;fill-opacity:1;fill-rule:nonzero;stroke:none"
         id="path438" /><path
         d="m 13135.2,5713.8 h -41.4 v 340.5 h 41.4 v -340.5"
         style="fill:#f79620;fill-opacity:1;fill-rule:nonzero;stroke:none"
         id="path440" /><path
         d="m 12862.5,5713.8 h -41.5 v 340.5 h 41.5 v -340.5"
         style="fill:#f79620;fill-opacity:1;fill-rule:nonzero;stroke:none"
         id="path442" /><path
         d="m 12444.3,5713.8 h -41.4 v 340.5 h 41.4 v -340.5"
         style="fill:#f79620;fill-opacity:1;fill-rule:nonzero;stroke:none"
         id="path444" /><path
         d="m 12052.8,5713.8 h -41.4 v 340.5 h 41.4 v -340.5"
         style="fill:#f79620;fill-opacity:1;fill-rule:nonzero;stroke:none"
         id="path446" /><path
         d="m 11703.3,5713.8 h -41.5 v 340.5 h 41.5 v -340.5"
         style="fill:#f79620;fill-opacity:1;fill-rule:nonzero;stroke:none"
         id="path448" /><path
         d="m 13835.3,5713.8 h -41.4 v 340.5 h 41.4 v -340.5"
         style="fill:#f79620;fill-opacity:1;fill-rule:nonzero;stroke:none"
         id="path450" /><path
         d="m 13923.6,5713.8 h -41.5 v 340.5 h 41.5 v -340.5"
         style="fill:#f79620;fill-opacity:1;fill-rule:nonzero;stroke:none"
         id="path452" /><path
         d="m 14008.8,5713.8 h -41.5 v 340.5 h 41.5 v -340.5"
         style="fill:#f79620;fill-opacity:1;fill-rule:nonzero;stroke:none"
         id="path454" /><path
         d="M 14072.9,6053.1 V 5715 c -5.1,-0.8 -10.3,-1.2 -15.6,-1.2 h -25.9 v 340.5 h 25.9 c 5.3,0 10.5,-0.4 15.6,-1.2"
         style="fill:#f79620;fill-opacity:1;fill-rule:nonzero;stroke:none"
         id="path456" /><path
         d="m 14130.4,6021.6 v -275.1 c -10,-12.4 -24.4,-22.2 -41.4,-27.7 v 330.5 c 17,-5.5 31.4,-15.3 41.4,-27.7"
         style="fill:#f79620;fill-opacity:1;fill-rule:nonzero;stroke:none"
         id="path458" /><path
         d="m 14259.7,6320.2 v -192.3 c 0,-15.4 -5.5,-29.6 -15.1,-41.4 -10.1,-12.5 -24.5,-22.3 -41.4,-27.7 -5.2,-1.8 -10.6,-3 -16.2,-3.8 -1.7,-0.3 -3.4,-0.5 -5.1,-0.7 -0.9,-0.1 -1.9,-0.2 -2.9,-0.2 -0.9,-0.1 -1.9,-0.2 -2.8,-0.2 -1.6,-0.1 -3.2,-0.1 -4.7,-0.1 h -3647.4 c -47,0 -85.8,31.3 -88.1,70.3 -0.1,1.2 -0.1,2.5 -0.1,3.8 v 192.3 c 0,1.2 0,2.5 0.1,3.8 2.3,39 41.1,70.3 88.1,70.3 h 3647.4 c 5.3,0 10.5,-0.4 15.5,-1.2 5.6,-0.8 11,-2.1 16.2,-3.8 16.9,-5.5 31.3,-15.3 41.4,-27.8 9.6,-11.8 15.1,-26 15.1,-41.3"
         style="fill:#f9ad33;fill-opacity:1;fill-rule:nonzero;stroke:none"
         id="path460" /><path
         d="m 12468.7,6053.8 h -1954.1 c -41.9,0 -76.5,31.3 -78.6,70.3 -0.1,1.2 -0.1,2.5 -0.1,3.8 v 192.3 c 0,1.2 0,2.5 0.1,3.8 2.1,39 36.7,70.3 78.6,70.3 h 1714.1 c 27.3,-100.1 90.9,-238.4 239.2,-340 l 0.8,-0.5"
         style="fill:#f79620;fill-opacity:1;fill-rule:nonzero;stroke:none"
         id="path462" /><path
         d="m 13815.9,6053.8 h -41.5 v 340.5 h 41.5 v -340.5"
         style="fill:#f79620;fill-opacity:1;fill-rule:nonzero;stroke:none"
         id="path464" /><path
         d="m 13675.6,6053.8 h -41.5 v 340.5 h 41.5 v -340.5"
         style="fill:#f79620;fill-opacity:1;fill-rule:nonzero;stroke:none"
         id="path466" /><path
         d="m 13507.3,6053.8 h -41.4 v 340.5 h 41.4 v -340.5"
         style="fill:#f79620;fill-opacity:1;fill-rule:nonzero;stroke:none"
         id="path468" /><path
         d="m 13249.4,6053.8 h -41.5 v 340.5 h 41.5 v -340.5"
         style="fill:#f79620;fill-opacity:1;fill-rule:nonzero;stroke:none"
         id="path470" /><path
         d="m 12976.6,6053.8 h -41.4 v 340.5 h 41.4 v -340.5"
         style="fill:#f79620;fill-opacity:1;fill-rule:nonzero;stroke:none"
         id="path472" /><path
         d="m 12558.5,6053.8 h -41.5 v 340.5 h 41.5 v -340.5"
         style="fill:#f79620;fill-opacity:1;fill-rule:nonzero;stroke:none"
         id="path474" /><path
         d="m 12167,6053.8 h -41.5 v 340.5 h 41.5 v -340.5"
         style="fill:#f79620;fill-opacity:1;fill-rule:nonzero;stroke:none"
         id="path476" /><path
         d="m 11817.4,6394.3 v -340.5 h -41.4 v 340.5 h 41.4"
         style="fill:#f79620;fill-opacity:1;fill-rule:nonzero;stroke:none"
         id="path478" /><path
         d="m 13949.5,6053.8 h -41.5 v 340.5 h 41.5 v -340.5"
         style="fill:#f79620;fill-opacity:1;fill-rule:nonzero;stroke:none"
         id="path480" /><path
         d="m 14037.7,6053.8 h -41.4 v 340.5 h 41.4 v -340.5"
         style="fill:#f79620;fill-opacity:1;fill-rule:nonzero;stroke:none"
         id="path482" /><path
         d="m 14122.9,6053.8 h -41.4 v 340.5 h 41.4 v -340.5"
         style="fill:#f79620;fill-opacity:1;fill-rule:nonzero;stroke:none"
         id="path484" /><path
         d="M 14187,6393.1 V 6055 c -5,-0.8 -10.2,-1.2 -15.5,-1.2 h -25.9 v 340.5 h 25.9 c 5.3,0 10.5,-0.4 15.5,-1.2"
         style="fill:#f79620;fill-opacity:1;fill-rule:nonzero;stroke:none"
         id="path486" /><path
         d="m 14244.6,6361.5 v -275 c -10,-12.4 -24.5,-22.2 -41.4,-27.7 v 330.5 c 16.9,-5.5 31.4,-15.3 41.4,-27.8"
         style="fill:#f79620;fill-opacity:1;fill-rule:nonzero;stroke:none"
         id="path488" /><path
         d="m 8490.9,4410 c 0,957.4 776.09,1733.4 1733.5,1733.4 957.3,0 1733.4,-776 1733.4,-1733.4 0,-957.4 -776.1,-1733.5 -1733.4,-1733.5 -957.41,0 -1733.5,776.1 -1733.5,1733.5"
         style="fill:#e2771a;fill-opacity:1;fill-rule:nonzero;stroke:none"
         id="path490" /><path
         d="m 8339.68,4410 c 0,957.4 776.09,1733.4 1733.42,1733.4 957.4,0 1733.5,-776 1733.5,-1733.4 0,-957.4 -776.1,-1733.5 -1733.5,-1733.5 -957.33,0 -1733.42,776.1 -1733.42,1733.5"
         style="fill:#f9ad33;fill-opacity:1;fill-rule:nonzero;stroke:none"
         id="path492" /><path
         d="m 10073.1,5874.7 c -818.88,0 -1485.11,-666.3 -1485.11,-1485.2 0,-818.9 666.23,-1485.1 1485.11,-1485.1 818.9,0 1485.2,666.2 1485.2,1485.1 0,818.9 -666.3,1485.2 -1485.2,1485.2 z m 0,-3064.6 c -421.83,0 -818.45,164.3 -1116.75,462.6 -298.3,298.3 -462.59,695 -462.59,1116.8 0,421.9 164.29,818.5 462.59,1116.8 298.3,298.3 694.92,462.6 1116.75,462.6 421.9,0 818.5,-164.3 1116.8,-462.6 298.3,-298.3 462.6,-694.9 462.6,-1116.8 0,-421.8 -164.3,-818.5 -462.6,-1116.8 -298.3,-298.3 -694.9,-462.6 -1116.8,-462.6"
         style="fill:#f79620;fill-opacity:1;fill-rule:nonzero;stroke:none"
         id="path494" /><path
         d="m 10290.6,3931.1 c 4,34.1 2.7,64.6 -3.8,91.7 -6.5,27.1 -19.4,52.5 -38.7,76.2 -19.4,23.7 -45.2,46.5 -77.6,68.4 -32.4,21.9 -72.4,44.4 -120.1,67.3 -82.05,40.2 -156.02,80.8 -221.94,121.9 -65.97,41.2 -121.26,86.2 -165.92,135.1 -44.66,48.9 -77.33,103.7 -97.99,164.5 -20.67,60.9 -26.29,131.1 -16.86,210.5 8.17,68.9 27.85,130.4 59.04,184.2 31.17,53.9 71.96,99.2 122.37,136 50.39,36.8 108.8,64.6 175.23,83.5 66.42,18.8 139.37,27.2 218.77,25.2 l 30.9,260.3 209.5,-24.9 -31.3,-263.9 c 73.9,-18.7 139.7,-46.6 197.2,-83.9 57.6,-37.2 104.9,-82.3 142,-135.2 37.1,-53 63.3,-113.4 78.7,-181.5 15.4,-68 18.3,-142.6 8.7,-223.7 l -378.5,45 c 11.6,97.3 -1.4,172.6 -38.9,226 -37.5,53.3 -92.4,84.4 -164.9,93 -39.3,4.6 -73.8,3.2 -103.4,-4.4 -29.7,-7.6 -54.8,-19.8 -75.44,-36.7 -20.59,-16.9 -36.81,-37.8 -48.61,-62.7 -11.81,-24.9 -19.49,-52.4 -23.05,-82.4 -3.56,-30 -2.43,-57.7 3.42,-83 5.83,-25.4 18.23,-49.7 37.17,-72.9 18.93,-23.2 45.01,-46.1 78.21,-68.5 33.2,-22.5 74.8,-46.5 124.9,-72.2 80.9,-41.7 154.1,-83.3 219.6,-124.7 65.4,-41.5 120.5,-86.9 165.1,-136.2 44.6,-49.3 77.2,-104.4 97.9,-165.2 20.7,-60.8 26.3,-130.6 17,-209.3 -8.5,-71.3 -28.5,-133.9 -60.1,-187.7 -31.6,-53.8 -72.6,-98.7 -122.9,-134.7 -50.3,-36 -109,-62.7 -176.2,-80.3 -67.1,-17.5 -140.4,-25.2 -219.9,-23.2 l -28.7,-242.1 -208.21,24.7 28.58,240.9 c -71.62,15.9 -139.79,40 -204.55,72.4 -64.78,32.3 -120.63,74.5 -167.58,126.5 -46.94,52.1 -81.99,114.8 -105.14,188.3 -23.15,73.5 -28.97,158.9 -17.42,256.2 l 378.46,-44.9 c -6.83,-57.6 -4.47,-106.6 7.12,-147 11.58,-40.5 29.52,-73.9 53.85,-100.2 24.32,-26.3 53.16,-46.2 86.55,-59.6 33.37,-13.4 67.95,-22.2 103.74,-26.5 41,-4.8 77.7,-3.9 109.9,3 32.3,6.9 60,18.4 83.1,34.6 23.2,16.1 41.6,36.4 55.1,60.7 13.5,24.3 22,51.4 25.6,81.4"
         style="fill:#f79620;fill-opacity:1;fill-rule:nonzero;stroke:none"
         id="path496" /><path
         d="m 8666.23,10398.2 c 5.19,20.8 -452.87,-207 -476.09,-232.8 -214.83,-238.3 -153.58,-549.2 -30.65,-552.2 78.83,-2 63.56,-133 63.56,-133 l 878.25,371.5 c 0,0 -105.74,616.6 -435.07,546.5"
         style="fill:#25499b;fill-opacity:1;fill-rule:nonzero;stroke:none"
         id="path498" /><path
         d="m 8774.38,10350.1 c 0,0 31.38,342.1 -350.89,342.1 0,0 115.84,-31.4 175.76,-94.2 0,0 -243.82,143.1 -509.15,-76.8 -265.32,-220 -100.46,-771.6 -181.15,-876.3 -80.68,-104.8 -394.89,-125.7 -356.49,-464.4 38.4,-338.6 997.21,-762.7 935.64,-1042.9 0,0 375.74,552.3 107.06,804.4 0,0 130.96,-123.4 144.3,-270 0,0 35.54,286.3 -146.63,377.8 -161.2,81.1 -293.25,377.4 -279.29,430.4 13.96,53 460.84,869.9 460.84,869.9"
         style="fill:#25499b;fill-opacity:1;fill-rule:nonzero;stroke:none"
         id="path500" /><path
         d="m 8427.27,8740.5 c -58.94,283.8 -427,371.9 -601.14,140.1 -31.31,-41.7 -53.36,-91 -60.53,-149.2 -39.76,-322.2 475.41,-1634.6 549.19,-1753.4 134.31,-216.3 925.22,-957.9 925.22,-957.9 l 145.77,88.3 c 0,0 -560.99,949.8 -647.86,1038.6 -100.44,102.8 -198.74,1054.5 -310.65,1593.5"
         style="fill:#ee8751;fill-opacity:1;fill-rule:nonzero;stroke:none"
         id="path502" /><path
         d="m 9184.58,6108 c 0,0 212.74,139.7 293.28,130.7 80.53,-9 313.62,-76.1 316.47,-110.3 2.84,-34.3 -259.72,-55.7 -277.35,-74.4 -17.62,-18.7 -195.91,-137.8 -260.54,-100.4 -64.63,37.3 -71.86,154.4 -71.86,154.4"
         style="fill:#ee8751;fill-opacity:1;fill-rule:nonzero;stroke:none"
         id="path504" /><path
         d="m 7700.63,2952.3 -190.06,27.9 c 0,0 -639.03,507.8 -734.19,1455.4 -9.71,96.5 -11.74,194.3 -4.54,293 0.84,11.4 -0.42,22.8 -6.63,32.3 l -0.21,0.3 c -20.46,31.4 -71.37,109.9 -140.28,221.6 -67.94,110.1 -184.19,318.1 -312.11,551.6 -230.42,420.5 -498.68,923.4 -590.71,1083.5 -293.18,510.5 -151.87,853.8 -151.87,853.8 0,0 817.92,80.8 1042.05,276.9 l 80.72,-124.4 c 0,0 177.21,-784.6 168.83,-788.2 8.73,-26.7 17.6,-53.8 26.6,-81.5 139.86,-431.6 300.73,-971.2 388.43,-1410.5 49.3,-247.3 75.41,-462.7 61.38,-609.5 -4.82,-50.3 1.04,-127.7 14.45,-223.2 79.18,-563 348.14,-1559 348.14,-1559"
         style="fill:#3256ae;fill-opacity:1;fill-rule:nonzero;stroke:none"
         id="path506" /><path
         d="m 8099.29,2711.8 h -792.91 c 0,0 -19.01,120.9 22.41,212.6 39.68,87.9 96.24,90.7 7.22,228.6 50.39,-51.8 212.35,-73.3 326.98,-57.9 14.05,-22.8 90.55,-175.5 137.47,-209.2 51.82,-37.3 282.87,-24 298.83,-174.1"
         style="fill:#213765;fill-opacity:1;fill-rule:nonzero;stroke:none"
         id="path508" /><path
         d="m 6888.23,6754.5 c -69.26,-382 -232.86,-1017.7 -575.62,-1220.1 -230.42,420.5 -498.68,923.4 -590.71,1083.5 -293.18,510.5 -151.87,853.8 -151.87,853.8 0,0 817.92,80.8 1042.05,276.9 l 80.72,-124.4 c 0,0 177.21,-784.6 168.83,-788.2 8.73,-26.7 17.6,-53.8 26.6,-81.5"
         style="fill:#25499b;fill-opacity:1;fill-rule:nonzero;stroke:none"
         id="path510" /><path
         d="m 8342.44,8916.6 c 0,0 112.12,-116.6 163.32,-256.2 0,0 -178.85,-513.6 -596.81,-578 0,0 330.69,834.4 433.49,834.2"
         style="fill:#f9cd2c;fill-opacity:1;fill-rule:nonzero;stroke:none"
         id="path512" /><path
         d="m 6332.13,7412.7 2.68,148.3 c -295.46,-37.3 -1018.78,353.1 -1018.78,353.1 0,0 -309.11,-205.6 -351.43,-792.8 -20.65,-286.5 -151.31,-1498.5 -165.77,-1860.4 -5.27,-131.2 -7.01,-224.8 -7.62,-262.2 l 0.04,-0.4 c -0.18,-11.4 -5.53,-21.5 -12.56,-30.5 -61.13,-77.7 -114.17,-160 -160.1,-245.4 C 4167.72,3883.5 4403.5,2743.7 4403.5,2743.7 l 104.7,26.6 c 0,0 381.23,1181.6 630.39,1692.8 42.29,86.6 80.7,154.1 112.84,193.1 93.69,113.8 192.47,307 289.84,539.6 184.06,439.6 362.75,1019.8 490.19,1469 8.99,-1.6 300.67,747.9 300.67,747.9"
         style="fill:#3256ae;fill-opacity:1;fill-rule:nonzero;stroke:none"
         id="path514" /><path
         d="m 8061.21,8402.5 c -483.03,110.8 -174.44,789.6 -146.45,777.6 66.92,13.7 213.91,131.2 345.4,360.7 l 17.76,-15.4 296.67,-260.1 c 0,0 -68.58,-101.2 -126.26,-200.3 -45.08,-77.5 -83.41,-154 -77.31,-180.2 23.88,-18.8 -180.98,-511.9 -309.81,-482.3"
         style="fill:#f89f6b;fill-opacity:1;fill-rule:nonzero;stroke:none"
         id="path516" /><path
         d="m 8574.58,9265.2 c 0,0 -68.59,-101 -126.26,-200.2 -184.45,113.7 -184.65,342 -170.44,460.3 l 296.7,-260.1"
         style="fill:#ee8751;fill-opacity:1;fill-rule:nonzero;stroke:none"
         id="path518" /><path
         d="m 8582.81,9134.9 c 0,0 -447.85,249.2 -288.37,525.7 159.49,276.6 209.1,495 501.78,347.5 292.69,-147.4 286.9,-284.7 256.11,-389.9 -30.78,-105.3 -348.91,-541 -469.52,-483.3"
         style="fill:#f89f6b;fill-opacity:1;fill-rule:nonzero;stroke:none"
         id="path520" /><path
         d="m 9127.99,9779.5 c -20.51,122.7 -82.88,134.5 -126.37,126.3 -165.39,273.5 -435.6,166.7 -435.6,166.7 -144.33,-181.1 -352.99,-212 -352.99,-212 0,0 51.97,-96.7 266.1,-156.5 65.41,-18.3 139.65,-7.3 211.24,16.8 -148.56,-82.8 -303.92,-114.5 -303.92,-114.5 282.18,-25.9 550.66,232.1 578.51,259.7 13.02,-39.9 35.85,-123.6 22.18,-184.8 -18.58,-83.2 -92.39,-233.8 -47.32,-253.3 0,0 218.93,167.4 188.17,351.6"
         style="fill:#25499b;fill-opacity:1;fill-rule:nonzero;stroke:none"
         id="path522" /><path
         d="m 5034.04,2711.8 h -792.91 c 0,0 -19.01,120.9 22.41,212.6 39.68,87.9 101.84,127.9 86.96,234.4 50.38,-51.9 132.5,-110 247.13,-94.6 14.04,-22.8 90.67,-144.6 137.58,-178.3 51.82,-37.3 282.88,-24 298.83,-174.1"
         style="fill:#213765;fill-opacity:1;fill-rule:nonzero;stroke:none"
         id="path524" /><path
         d="m 8118.03,7864.4 c -102.01,-35.6 -245.22,-55.1 -391.71,-71 -208.49,-22.8 -423.75,-38.4 -536.52,-83.3 -41.13,-16.4 -68.64,-36.7 -77.22,-62.6 -48.88,-147 -264.28,-373.8 -264.28,-373.8 -1380.69,62.9 -1532.28,640.4 -1532.28,640.4 928.93,1080.2 2501.77,1392.8 2501.77,1392.8 0,0 112.35,47.6 395.27,-177.2 188.81,-150.1 163.95,-207.7 163.95,-207.7 0,0 41.26,-952.9 -258.98,-1057.6"
         style="fill:#f9cd2c;fill-opacity:1;fill-rule:nonzero;stroke:none"
         id="path526" /><path
         d="m 7726.32,7793.4 c -208.49,-22.8 -423.75,-38.4 -536.52,-83.3 -46.08,688.6 278.88,1206.5 278.88,1206.5 0,0 211.98,-862.7 257.64,-1123.2"
         style="fill:#f7912f;fill-opacity:1;fill-rule:nonzero;stroke:none"
         id="path528" /><path
         d="m 7940.91,9049.8 c 0,0 -522.54,-51.6 -564.44,-391.1 -41.89,-339.6 500.99,-1722.5 578.74,-1847.7 141.53,-228 974.98,-1009.5 974.98,-1009.5 l 153.61,93.1 c 0,0 -591.17,1000.8 -682.71,1094.5 -143.7,147 -283.24,1943.1 -460.18,2060.7"
         style="fill:#f89f6b;fill-opacity:1;fill-rule:nonzero;stroke:none"
         id="path530" /><path
         d="m 7391.56,8454.4 c 1.36,-7.7 482.25,-157.1 791.72,0 0,0 66.23,714 -303.24,675.3 -369.47,-38.8 -588.25,-155.1 -597.56,-332 -9.31,-176.9 109.08,-343.3 109.08,-343.3"
         style="fill:#f9cd2c;fill-opacity:1;fill-rule:nonzero;stroke:none"
         id="path532" /><path
         d="m 8882.7,5900.8 c 0,0 187.45,172.1 268.38,176.2 80.93,4.1 321.79,-24.5 330.12,-57.9 8.32,-33.3 -247.36,-96.8 -261.74,-118.1 -14.37,-21.3 -171.15,-167.5 -240.95,-141.1 -69.8,26.4 -95.81,140.9 -95.81,140.9"
         style="fill:#f89f6b;fill-opacity:1;fill-rule:nonzero;stroke:none"
         id="path534" /></g></g></svg>
