<svg xmlns="http://www.w3.org/2000/svg" viewBox="0 0 691 324.3">
  <path fill='#f4f4f4' d="M597.58,192.76V126a31.39,31.39,0,0,0-62.78,0v66.73H321.86A162.3,162.3,0,0,0,162.44,61.85C72.71,61.85,0,134.43,0,224S72.71,386.15,162.44,386.15A162.3,162.3,0,0,0,321.86,255.24H659.61a31.34,31.34,0,1,0,0-62.67C659.7,192.76,597.58,192.76,597.58,192.76Z" transform="translate(0 -61.85)"/>
  <path fill='white' d="M161.62,318.32c52.39,0,94.86-42.23,94.86-94.32S214,129.68,161.62,129.68,66.77,171.91,66.77,224,109.24,318.32,161.62,318.32Z" transform="translate(0 -61.85)"/>
</svg>
