<svg width="715" height="41" viewBox="0 0 715 41" fill="none" xmlns="http://www.w3.org/2000/svg">
<path d="M2 11.534C4.18688 7.29321 7.71571 3.90886 12 2L6.00596 14L2 11.534Z" fill="url(#paint0_linear)"/>
<path d="M2.48344 30C0.903973 27.0746 0 23.7299 0 20.1755C0 16.8807 0.774834 13.7656 2.14569 11L9 15.0836C8.31457 16.6411 7.93709 18.3684 7.93709 20.1755C7.93709 20.7546 7.97682 21.3237 8.05629 21.8928L2.48344 30Z" fill="url(#paint1_linear)"/>
<path d="M8.33145 37C6.17913 35.3518 4.36248 33.2814 3 30.8995L8.3512 23C9.27927 27.593 12.6361 31.2814 17 32.6181L8.33145 37Z" fill="url(#paint2_linear)"/>
<path d="M31 37.7444C27.9298 39.8032 24.2935 41 20.3886 41C16.1478 41 12.2141 39.5903 9 37.1866L17.7501 32.5923C18.604 32.7951 19.4867 32.8966 20.3982 32.8966C22.7296 32.8966 24.9075 32.2069 26.7497 31L31 37.7444Z" fill="url(#paint3_linear)"/>
<path d="M40 24.8474H39.9409C38.8863 30.3033 35.7324 34.9856 31.376 38L27 31.3383C30.2919 29.0474 32.4503 25.199 32.4503 20.8282C32.4503 20.1148 32.3912 19.4215 32.2828 18.7483L39.9901 17V24.8474H40Z" fill="url(#paint4_linear)"/>
<path d="M74.9423 17H81.1538C83.2788 17 85 18.7922 85 21.005C85 23.2178 83.2788 25 81.1538 25H63.8942L63 22.8673L74.9423 17Z" fill="url(#paint5_linear)"/>
<path d="M66 15.2108L66.01 9.8864C66.01 7.73916 67.8 6 70 6C72.2 6 74 7.73916 74 9.8864L73.99 16.1921L67.85 19L66 15.2108Z" fill="url(#paint6_linear)"/>
<path d="M60 17H65.6816L67 19.7589L62.21 22L60 17Z" fill="#496AB3"/>
<path d="M54.4705 17H60.5184L64 25H47L54.4705 17Z" fill="url(#paint7_linear)"/>
<path d="M41.1529 17H53L45.8344 25H41V17.03L41.1529 17Z" fill="url(#paint8_linear)"/>
<path d="M37.0012 9C38.4176 11.164 39.453 13.6112 40 16.2506L32.3907 18C32.293 17.5045 32.1563 17.0191 32 16.5438L37.0012 9Z" fill="url(#paint9_linear)"/>
<path d="M25 1C29.9027 2.138 34.1309 4.97319 37 8.83846L31.9564 16C30.6678 12.9294 28.151 10.467 25 9.20144V1Z" fill="url(#paint10_linear)"/>
<path d="M20.7617 0C22.2114 0 23.6309 0.1501 25 0.430287V8.7058C23.6711 8.23549 22.2416 7.98532 20.7617 7.98532C15.7685 7.98532 11.4497 10.8472 9.35571 15L7 13.6091L13.4027 1.32088C15.6879 0.470314 18.1745 0 20.7617 0Z" fill="url(#paint11_linear)"/>
<path d="M117.824 27.2637C117.824 28.0568 117.672 28.801 117.367 29.4963C117.074 30.1916 116.667 30.8 116.145 31.3215C115.624 31.843 115.01 32.2558 114.304 32.56C113.608 32.8533 112.864 33 112.071 33H104.673V9.63098H112.071C112.864 9.63098 113.608 9.78308 114.304 10.0873C115.01 10.3806 115.624 10.788 116.145 11.3095C116.667 11.831 117.074 12.4448 117.367 13.151C117.672 13.8463 117.824 14.5905 117.824 15.3836V27.2637ZM115.722 15.3836C115.722 14.8621 115.624 14.3787 115.428 13.9332C115.233 13.4769 114.961 13.0804 114.613 12.7436C114.277 12.3959 113.88 12.1243 113.424 11.9288C112.978 11.7332 112.495 11.6354 111.973 11.6354H106.775V30.9955H111.973C112.495 30.9955 112.978 30.8978 113.424 30.7022C113.88 30.5067 114.277 30.2405 114.613 29.9037C114.961 29.5669 115.233 29.1758 115.428 28.7303C115.624 28.274 115.722 27.7852 115.722 27.2637V15.3836ZM143.081 33L136.742 23.0266H133.858V33H131.755V9.63098H139.17C139.963 9.63098 140.708 9.78308 141.403 10.0873C142.098 10.3806 142.707 10.788 143.228 11.3095C143.75 11.831 144.157 12.4448 144.45 13.151C144.754 13.8463 144.907 14.5905 144.907 15.3836V17.274C144.907 18.0671 144.754 18.8167 144.45 19.5229C144.157 20.2182 143.75 20.8266 143.228 21.3481C142.707 21.8696 142.098 22.2824 141.403 22.5866C140.708 22.8799 139.963 23.0266 139.17 23.0266L145.51 33H143.081ZM142.804 15.3836C142.804 14.8621 142.707 14.3787 142.511 13.9332C142.315 13.4769 142.049 13.0804 141.712 12.7436C141.376 12.3959 140.979 12.1243 140.523 11.9288C140.077 11.7332 139.594 11.6354 139.072 11.6354H133.858V21.0222H139.072C139.594 21.0222 140.077 20.9244 140.523 20.7288C140.979 20.5333 141.376 20.2671 141.712 19.9303C142.049 19.5826 142.315 19.1861 142.511 18.7407C142.707 18.2844 142.804 17.7955 142.804 17.274V15.3836ZM158.806 33V9.63098H171.957V11.6354H160.908V20.3214H169.855V22.3259H160.908V30.9955H171.957V33H158.806ZM194.02 27.557H186.622L185.09 33H182.906L189.751 9.63098H190.859L197.736 33H195.568L194.02 27.557ZM187.192 25.5526H193.466L190.386 14.7806L190.321 13.9169L190.256 14.7806L187.192 25.5526ZM224.395 33V16.9807L224.248 17.9747L218.822 33H217.713L212.238 17.9747L212.107 16.9807V33H210.005V9.63098H211.097L218.186 28.7955L218.251 29.6592L218.316 28.7955L225.389 9.63098H226.497V33H224.395ZM269.06 33L262.72 23.0266H259.836V33H257.734V9.63098H265.149C265.942 9.63098 266.686 9.78308 267.381 10.0873C268.076 10.3806 268.685 10.788 269.206 11.3095C269.728 11.831 270.135 12.4448 270.429 13.151C270.733 13.8463 270.885 14.5905 270.885 15.3836V17.274C270.885 18.0671 270.733 18.8167 270.429 19.5229C270.135 20.2182 269.728 20.8266 269.206 21.3481C268.685 21.8696 268.076 22.2824 267.381 22.5866C266.686 22.8799 265.942 23.0266 265.149 23.0266L271.488 33H269.06ZM268.783 15.3836C268.783 14.8621 268.685 14.3787 268.489 13.9332C268.294 13.4769 268.028 13.0804 267.691 12.7436C267.354 12.3959 266.957 12.1243 266.501 11.9288C266.056 11.7332 265.572 11.6354 265.051 11.6354H259.836V21.0222H265.051C265.572 21.0222 266.056 20.9244 266.501 20.7288C266.957 20.5333 267.354 20.2671 267.691 19.9303C268.028 19.5826 268.294 19.1861 268.489 18.7407C268.685 18.2844 268.783 17.7955 268.783 17.274V15.3836ZM284.784 33V9.63098H297.935V11.6354H286.886V20.3214H295.833V22.3259H286.886V30.9955H297.935V33H284.784ZM319.999 27.557H312.6L311.068 33H308.884L315.729 9.63098H316.837L323.714 33H321.547L319.999 27.557ZM313.17 25.5526H319.444L316.364 14.7806L316.299 13.9169L316.234 14.7806L313.17 25.5526ZM335.641 33V9.63098H337.744V30.9955H346.69V33H335.641ZM364.093 11.6354V33H361.991V11.6354H356.417V9.63098H369.666V11.6354H364.093ZM388.438 21.8207V33H386.336V21.8533L380.29 9.63098H382.555L387.362 19.3436L392.17 9.63098H394.435L388.438 21.8207ZM440.628 9.17025V30.33H443.665V39.2745H440.794V33H424.407V39.2745H421.537V30.33H423.373C424.174 28.9505 424.93 27.4041 425.642 25.6909C426.376 23.9776 427.022 22.1865 427.578 20.3175C428.134 18.4262 428.59 16.535 428.946 14.6437C429.302 12.7525 429.525 10.928 429.614 9.17025H440.628ZM432.25 11.8736C432.161 13.1641 431.939 14.6215 431.583 16.2457C431.249 17.87 430.815 19.5387 430.281 21.252C429.77 22.943 429.191 24.5784 428.546 26.1581C427.923 27.7379 427.255 29.1285 426.543 30.33H437.657V11.8736H432.25ZM474.075 33H471.072V11.8069H463.529C463.329 13.4534 463.106 15.1889 462.861 17.0134C462.617 18.8156 462.372 20.54 462.127 22.1865C461.882 23.833 461.638 25.2347 461.393 26.3917C461.104 27.8825 460.748 29.1507 460.325 30.1965C459.902 31.2422 459.335 32.0321 458.623 32.5661C457.933 33.1001 457.021 33.3671 455.886 33.3671C455.508 33.3671 455.118 33.3226 454.718 33.2336C454.34 33.1669 454.006 33.0779 453.717 32.9666V30.4635C453.961 30.5747 454.24 30.6749 454.551 30.7639C454.863 30.8306 455.196 30.864 455.552 30.864C456.22 30.864 456.743 30.597 457.121 30.063C457.521 29.5067 457.833 28.8281 458.055 28.0271C458.278 27.2039 458.467 26.3917 458.623 25.5907C458.801 24.7452 459.012 23.5104 459.257 21.8861C459.524 20.2396 459.802 18.3261 460.091 16.1456C460.403 13.9651 460.714 11.64 461.026 9.17025H474.075V33ZM496.997 23.121L490.822 33H487.318L493.993 22.587C493.148 22.2977 492.347 21.8972 491.59 21.3855C490.856 20.8737 490.255 20.1729 489.788 19.2829C489.321 18.3929 489.087 17.247 489.087 15.8453C489.087 13.687 489.832 12.0405 491.323 10.9057C492.814 9.74875 495.039 9.17025 497.998 9.17025H504.673V33H501.669V23.121H496.997ZM498.065 11.7401C496.174 11.7401 494.716 12.0739 493.693 12.7414C492.691 13.3866 492.191 14.4657 492.191 15.9787C492.191 17.4472 492.68 18.582 493.659 19.383C494.638 20.184 496.151 20.5845 498.198 20.5845H501.669V11.7401H498.065ZM544.913 33H541.909V11.8069H534.467V9.17025H552.322V11.8069H544.913V33ZM578.503 33H565.187V9.17025H578.503V11.8069H568.19V19.2495H577.902V21.8527H568.19V30.3634H578.503V33ZM609.19 33H605.785L599.477 22.6537L593.069 33H589.899L597.809 20.5845L590.399 9.17025H593.737L599.578 18.5152L605.452 9.17025H608.622L601.246 20.5177L609.19 33Z" fill="#3F3653"/>
<defs>
<linearGradient id="paint0_linear" x1="5.59216" y1="10.281" x2="11.8733" y2="-0.614573" gradientUnits="userSpaceOnUse">
<stop stop-color="#E5524D"/>
<stop offset="1" stop-color="#E23235"/>
</linearGradient>
<linearGradient id="paint1_linear" x1="4.23146" y1="28.1653" x2="6.11699" y2="11.2006" gradientUnits="userSpaceOnUse">
<stop stop-color="#A91F23"/>
<stop offset="1" stop-color="#D52A27"/>
</linearGradient>
<linearGradient id="paint2_linear" x1="10.7722" y1="34.7845" x2="8.05934" y2="24.1154" gradientUnits="userSpaceOnUse">
<stop stop-color="#E86724"/>
<stop offset="1" stop-color="#E54A25"/>
</linearGradient>
<linearGradient id="paint3_linear" x1="31.2751" y1="35.851" x2="14.1468" y2="37.5694" gradientUnits="userSpaceOnUse">
<stop stop-color="#EF9921"/>
<stop offset="1" stop-color="#F9D408"/>
</linearGradient>
<linearGradient id="paint4_linear" x1="33.4471" y1="19.156" x2="33.8858" y2="33.4029" gradientUnits="userSpaceOnUse">
<stop stop-color="#4BB248"/>
<stop offset="1" stop-color="#82C141"/>
</linearGradient>
<linearGradient id="paint5_linear" x1="63.004" y1="21.002" x2="84.9959" y2="21.002" gradientUnits="userSpaceOnUse">
<stop stop-color="#4F409A"/>
<stop offset="1" stop-color="#7650A1"/>
</linearGradient>
<linearGradient id="paint6_linear" x1="70.4193" y1="7.0319" x2="68.6572" y2="16.4973" gradientUnits="userSpaceOnUse">
<stop stop-color="#6556A4"/>
<stop offset="1" stop-color="#4954A4"/>
</linearGradient>
<linearGradient id="paint7_linear" x1="46.9982" y1="20.9979" x2="64.001" y2="20.9979" gradientUnits="userSpaceOnUse">
<stop stop-color="#4F7CBE"/>
<stop offset="1" stop-color="#59A8DD"/>
</linearGradient>
<linearGradient id="paint8_linear" x1="49.1672" y1="21.6025" x2="42.179" y2="17.2104" gradientUnits="userSpaceOnUse">
<stop stop-color="#44B46C"/>
<stop offset="1" stop-color="#48B98D"/>
</linearGradient>
<linearGradient id="paint9_linear" x1="38.1764" y1="12.9463" x2="32.9685" y2="17.0443" gradientUnits="userSpaceOnUse">
<stop stop-color="#FADA07"/>
<stop offset="1" stop-color="#F7C314"/>
</linearGradient>
<linearGradient id="paint10_linear" x1="29.4028" y1="3.49914" x2="34.3446" y2="14.4185" gradientUnits="userSpaceOnUse">
<stop stop-color="#FAD00C"/>
<stop offset="1" stop-color="#E86E24"/>
</linearGradient>
<linearGradient id="paint11_linear" x1="9.67552" y1="9.34437" x2="20.7175" y2="2.13231" gradientUnits="userSpaceOnUse">
<stop stop-color="#EF9321"/>
<stop offset="1" stop-color="#EA7224"/>
</linearGradient>
</defs>
</svg>
