<svg width="687" height="432" viewBox="0 0 687 432" fill="none" xmlns="http://www.w3.org/2000/svg">
<g clip-path="url(#clip0_3434_15917)">
<path d="M457.579 161.242C457.579 161.242 448.899 92.6452 473.156 44.382C476.386 37.9626 485.907 39.1725 487.489 46.1633C487.522 46.2641 487.556 46.3986 487.556 46.533C490.113 58.5316 464.375 118.188 457.579 161.242Z" fill="#61CEF9"/>
<path d="M458.185 181.34C458.185 181.34 471.441 89.6202 520.393 38.2986C523.387 35.173 528.4 34.8033 531.63 37.6601C533.749 39.5086 535.297 42.8695 534.96 48.7848C533.985 64.5812 481.433 130.052 458.185 181.34Z" fill="#61CEF9"/>
<g opacity="0.4">
<path opacity="0.4" d="M19.5022 205.707H48.5369C51.0939 205.707 53.1798 203.623 53.1798 201.069V78.9661C53.1798 76.4118 51.0939 74.328 48.5369 74.328H19.5022C16.9453 74.328 14.8594 76.4118 14.8594 78.9661V201.103C14.893 203.657 16.9453 205.707 19.5022 205.707Z" fill="#8C9DF4"/>
</g>
<g opacity="0.4">
<path opacity="0.4" d="M34.0366 186.348C38.9977 186.348 43.0195 182.33 43.0195 177.374C43.0195 172.418 38.9977 168.401 34.0366 168.401C29.0755 168.401 25.0537 172.418 25.0537 177.374C25.0537 182.33 29.0755 186.348 34.0366 186.348Z" fill="#505ABA"/>
</g>
<g opacity="0.4">
<path opacity="0.4" d="M34.0363 187.357C28.5523 187.357 24.1113 182.92 24.1113 177.442C24.1113 171.963 28.5523 167.527 34.0363 167.527C39.5202 167.527 43.9612 171.963 43.9612 177.442C43.9612 182.886 39.5202 187.357 34.0363 187.357ZM34.0363 169.409C29.5953 169.409 25.9954 173.005 25.9954 177.442C25.9954 181.878 29.5953 185.474 34.0363 185.474C38.4772 185.474 42.0771 181.878 42.0771 177.442C42.0771 173.005 38.4436 169.409 34.0363 169.409Z" fill="white"/>
</g>
<g opacity="0.4">
<path opacity="0.4" d="M24.5152 154.184H43.524C44.466 154.184 45.2398 153.411 45.2398 152.47V82.0581C45.2398 81.1171 44.466 80.344 43.524 80.344H24.5152C23.5731 80.344 22.7993 81.1171 22.7993 82.0581V152.47C22.7993 153.445 23.5731 154.184 24.5152 154.184Z" fill="#AEC3FF"/>
</g>
<g opacity="0.4">
<path opacity="0.4" d="M26.8033 85.9905H40.7991C41.5393 85.9905 42.1449 85.3855 42.1449 84.6461V84.4108C42.1449 83.6714 41.5393 83.0664 40.7991 83.0664H26.8033C26.0631 83.0664 25.4575 83.6714 25.4575 84.4108V84.6461C25.4575 85.3855 26.0631 85.9905 26.8033 85.9905Z" fill="#F99746"/>
</g>
<g opacity="0.4">
<path opacity="0.4" d="M36.896 130.22V145.445C36.896 145.849 37.2324 146.185 37.6362 146.185C38.0399 146.185 38.3763 145.849 38.3763 145.445V130.22C38.3763 129.817 38.0399 129.481 37.6362 129.481C37.2324 129.481 36.896 129.817 36.896 130.22Z" fill="#505ABA"/>
<path opacity="0.4" d="M36.896 109.282V124.507C36.896 124.91 37.2324 125.246 37.6362 125.246C38.0399 125.246 38.3763 124.91 38.3763 124.507V109.282C38.3763 108.878 38.0399 108.542 37.6362 108.542C37.2324 108.542 36.896 108.878 36.896 109.282Z" fill="#505ABA"/>
<path opacity="0.4" d="M28.3843 130.22V145.445C28.3843 145.849 28.7207 146.185 29.1244 146.185C29.5282 146.185 29.8646 145.849 29.8646 145.445V130.22C29.8646 129.817 29.5282 129.481 29.1244 129.481C28.7207 129.481 28.3843 129.817 28.3843 130.22Z" fill="#505ABA"/>
<path opacity="0.4" d="M28.3843 109.282V124.507C28.3843 124.91 28.7207 125.246 29.1244 125.246C29.5282 125.246 29.8646 124.91 29.8646 124.507V109.282C29.8646 108.878 29.5282 108.542 29.1244 108.542C28.7207 108.542 28.3843 108.878 28.3843 109.282Z" fill="#505ABA"/>
<path opacity="0.4" d="M32.8252 125.918V145.446C32.8252 145.849 33.1616 146.185 33.5654 146.185C33.9691 146.185 34.3056 145.849 34.3056 145.446V125.918C34.3056 125.515 33.9691 125.179 33.5654 125.179C33.1616 125.179 32.8252 125.515 32.8252 125.918Z" fill="#505ABA"/>
<path opacity="0.4" d="M32.8252 99.6022V119.129C32.8252 119.533 33.1616 119.869 33.5654 119.869C33.9691 119.869 34.3056 119.533 34.3056 119.129V99.6022C34.3056 99.1989 33.9691 98.8628 33.5654 98.8628C33.1616 98.8628 32.8252 99.1989 32.8252 99.6022Z" fill="#505ABA"/>
</g>
<g opacity="0.4">
<path opacity="0.4" d="M67.2766 205.707H96.3113C98.8682 205.707 100.954 203.623 100.954 201.069V78.9661C100.954 76.4118 98.8682 74.328 96.3113 74.328H67.2766C64.7197 74.328 62.6338 76.4118 62.6338 78.9661V201.103C62.6674 203.657 64.7197 205.707 67.2766 205.707Z" fill="#8C9DF4"/>
</g>
<g opacity="0.4">
<path opacity="0.4" d="M81.811 186.348C86.7722 186.348 90.7939 182.33 90.7939 177.374C90.7939 172.418 86.7722 168.401 81.811 168.401C76.8499 168.401 72.8281 172.418 72.8281 177.374C72.8281 182.33 76.8499 186.348 81.811 186.348Z" fill="#505ABA"/>
</g>
<g opacity="0.4">
<path opacity="0.4" d="M81.8107 187.357C76.3267 187.357 71.8857 182.92 71.8857 177.442C71.8857 171.963 76.3267 167.527 81.8107 167.527C87.2947 167.527 91.7356 171.963 91.7356 177.442C91.7356 182.886 87.261 187.357 81.8107 187.357ZM81.8107 169.409C77.3697 169.409 73.7698 173.005 73.7698 177.442C73.7698 181.878 77.3697 185.474 81.8107 185.474C86.2517 185.474 89.8516 181.878 89.8516 177.442C89.8179 173.005 86.218 169.409 81.8107 169.409Z" fill="white"/>
</g>
<g opacity="0.4">
<path opacity="0.4" d="M72.2896 154.184H91.2984C92.2404 154.184 93.0142 153.411 93.0142 152.47V82.0581C93.0142 81.1171 92.2404 80.344 91.2984 80.344H72.2896C71.3475 80.344 70.5737 81.1171 70.5737 82.0581V152.47C70.5737 153.445 71.3475 154.184 72.2896 154.184Z" fill="#AEC3FF"/>
</g>
<g opacity="0.4">
<path opacity="0.4" d="M74.5776 85.9905H88.5734C89.3136 85.9905 89.9192 85.3855 89.9192 84.6461V84.4108C89.9192 83.6714 89.3136 83.0664 88.5734 83.0664H74.5776C73.8374 83.0664 73.2318 83.6714 73.2318 84.4108V84.6461C73.1982 85.3855 73.8038 85.9905 74.5776 85.9905Z" fill="#F99746"/>
</g>
<g opacity="0.4">
<g opacity="0.4">
<path opacity="0.4" d="M84.6709 130.22V145.445C84.6709 145.849 85.0073 146.185 85.4111 146.185C85.8148 146.185 86.1512 145.849 86.1512 145.445V130.22C86.1512 129.817 85.8148 129.481 85.4111 129.481C85.0073 129.481 84.6709 129.817 84.6709 130.22Z" fill="#505ABA"/>
</g>
<g opacity="0.4">
<path opacity="0.4" d="M84.6709 109.282V124.507C84.6709 124.91 85.0073 125.246 85.4111 125.246C85.8148 125.246 86.1512 124.91 86.1512 124.507V109.282C86.1512 108.878 85.8148 108.542 85.4111 108.542C85.0073 108.542 84.6709 108.878 84.6709 109.282Z" fill="#505ABA"/>
</g>
<g opacity="0.4">
<path opacity="0.4" d="M76.1587 130.22V145.445C76.1587 145.849 76.4951 146.185 76.8989 146.185C77.3026 146.185 77.639 145.849 77.639 145.445V130.22C77.639 129.817 77.3026 129.481 76.8989 129.481C76.4951 129.481 76.1587 129.817 76.1587 130.22Z" fill="#505ABA"/>
</g>
<g opacity="0.4">
<path opacity="0.4" d="M76.1587 109.282V124.507C76.1587 124.91 76.4951 125.246 76.8989 125.246C77.3026 125.246 77.639 124.91 77.639 124.507V109.282C77.639 108.878 77.3026 108.542 76.8989 108.542C76.4951 108.542 76.1587 108.878 76.1587 109.282Z" fill="#505ABA"/>
</g>
<g opacity="0.4">
<path opacity="0.4" d="M80.5996 125.918V145.446C80.5996 145.849 80.936 146.185 81.3398 146.185C81.7435 146.185 82.0799 145.849 82.0799 145.446V125.918C82.0799 125.515 81.7435 125.179 81.3398 125.179C80.9024 125.179 80.5996 125.515 80.5996 125.918Z" fill="#505ABA"/>
</g>
<g opacity="0.4">
<path opacity="0.4" d="M80.5996 99.6022V119.129C80.5996 119.533 80.936 119.869 81.3398 119.869C81.7435 119.869 82.0799 119.533 82.0799 119.129V99.6022C82.0799 99.1989 81.7435 98.8628 81.3398 98.8628C80.9024 98.8628 80.5996 99.1989 80.5996 99.6022Z" fill="#505ABA"/>
</g>
</g>
<g opacity="0.4">
<path opacity="0.4" d="M115.959 205.707H144.994C147.551 205.707 149.637 203.623 149.637 201.069V78.9661C149.637 76.4118 147.551 74.328 144.994 74.328H115.959C113.402 74.328 111.316 76.4118 111.316 78.9661V201.103C111.316 203.657 113.402 205.707 115.959 205.707Z" fill="#8C9DF4"/>
</g>
<g opacity="0.4">
<path opacity="0.4" d="M130.494 186.348C135.455 186.348 139.477 182.33 139.477 177.374C139.477 172.418 135.455 168.401 130.494 168.401C125.533 168.401 121.511 172.418 121.511 177.374C121.511 182.33 125.533 186.348 130.494 186.348Z" fill="#505ABA"/>
</g>
<g opacity="0.4">
<path opacity="0.4" d="M130.493 187.357C125.009 187.357 120.568 182.92 120.568 177.442C120.568 171.963 125.009 167.527 130.493 167.527C135.977 167.527 140.418 171.963 140.418 177.442C140.418 182.886 135.944 187.357 130.493 187.357ZM130.493 169.409C126.052 169.409 122.452 173.005 122.452 177.442C122.452 181.878 126.052 185.474 130.493 185.474C134.934 185.474 138.534 181.878 138.534 177.442C138.501 173.005 134.901 169.409 130.493 169.409Z" fill="white"/>
</g>
<g opacity="0.4">
<path opacity="0.4" d="M120.972 154.184H139.981C140.923 154.184 141.697 153.411 141.697 152.47V82.0581C141.697 81.1171 140.923 80.344 139.981 80.344H120.972C120.03 80.344 119.256 81.1171 119.256 82.0581V152.47C119.256 153.445 120.03 154.184 120.972 154.184Z" fill="#AEC3FF"/>
</g>
<g opacity="0.4">
<path opacity="0.4" d="M123.26 85.9905H137.256C137.996 85.9905 138.602 85.3855 138.602 84.6461V84.4108C138.602 83.6714 137.996 83.0664 137.256 83.0664H123.26C122.52 83.0664 121.914 83.6714 121.914 84.4108V84.6461C121.881 85.3855 122.486 85.9905 123.26 85.9905Z" fill="#F99746"/>
</g>
<g opacity="0.4">
<g opacity="0.4">
<path opacity="0.4" d="M133.354 130.22V145.445C133.354 145.849 133.69 146.185 134.094 146.185C134.497 146.185 134.834 145.849 134.834 145.445V130.22C134.834 129.817 134.497 129.481 134.094 129.481C133.69 129.481 133.354 129.817 133.354 130.22Z" fill="#505ABA"/>
</g>
<g opacity="0.4">
<path opacity="0.4" d="M133.354 109.282V124.507C133.354 124.91 133.69 125.246 134.094 125.246C134.497 125.246 134.834 124.91 134.834 124.507V109.282C134.834 108.878 134.497 108.542 134.094 108.542C133.69 108.542 133.354 108.878 133.354 109.282Z" fill="#505ABA"/>
</g>
<g opacity="0.4">
<path opacity="0.4" d="M124.841 130.22V145.445C124.841 145.849 125.178 146.185 125.581 146.185C125.985 146.185 126.322 145.849 126.322 145.445V130.22C126.322 129.817 125.985 129.481 125.581 129.481C125.178 129.481 124.841 129.817 124.841 130.22Z" fill="#505ABA"/>
</g>
<g opacity="0.4">
<path opacity="0.4" d="M124.841 109.282V124.507C124.841 124.91 125.178 125.246 125.581 125.246C125.985 125.246 126.322 124.91 126.322 124.507V109.282C126.322 108.878 125.985 108.542 125.581 108.542C125.178 108.542 124.841 108.878 124.841 109.282Z" fill="#505ABA"/>
</g>
<g opacity="0.4">
<path opacity="0.4" d="M129.282 125.918V145.446C129.282 145.849 129.619 146.185 130.022 146.185C130.426 146.185 130.763 145.849 130.763 145.446V125.918C130.763 125.515 130.426 125.179 130.022 125.179C129.585 125.179 129.282 125.515 129.282 125.918Z" fill="#505ABA"/>
</g>
<g opacity="0.4">
<path opacity="0.4" d="M129.282 99.6022V119.129C129.282 119.533 129.619 119.869 130.022 119.869C130.426 119.869 130.763 119.533 130.763 119.129V99.6022C130.763 99.1989 130.426 98.8628 130.022 98.8628C129.585 98.8628 129.282 99.1989 129.282 99.6022Z" fill="#505ABA"/>
</g>
</g>
<g opacity="0.4">
<path opacity="0.4" d="M166.089 205.707H195.123C197.68 205.707 199.766 203.623 199.766 201.069V78.9661C199.766 76.4118 197.68 74.328 195.123 74.328H166.089C163.532 74.328 161.446 76.4118 161.446 78.9661V201.103C161.479 203.657 163.532 205.707 166.089 205.707Z" fill="#8C9DF4"/>
</g>
<g opacity="0.4">
<path opacity="0.4" d="M171.102 154.184H190.11C191.052 154.184 191.826 153.411 191.826 152.47V82.0581C191.826 81.1171 191.052 80.344 190.11 80.344H171.102C170.16 80.344 169.386 81.1171 169.386 82.0581V152.47C169.386 153.445 170.16 154.184 171.102 154.184Z" fill="#AEC3FF"/>
</g>
<g opacity="0.4">
<path opacity="0.4" d="M173.39 85.9905H187.385C188.126 85.9905 188.731 85.3855 188.731 84.6461V84.4108C188.731 83.6714 188.126 83.0664 187.385 83.0664H173.39C172.649 83.0664 172.044 83.6714 172.044 84.4108V84.6461C172.01 85.3855 172.616 85.9905 173.39 85.9905Z" fill="#F99746"/>
</g>
<g opacity="0.4">
<path opacity="0.4" d="M214.469 205.707H243.503C246.06 205.707 248.146 203.623 248.146 201.069V78.9661C248.146 76.4118 246.06 74.328 243.503 74.328H214.469C211.912 74.328 209.826 76.4118 209.826 78.9661V201.103C209.859 203.657 211.912 205.707 214.469 205.707Z" fill="#8C9DF4"/>
</g>
<g opacity="0.4">
<path opacity="0.4" d="M219.481 154.184H238.49C239.432 154.184 240.206 153.411 240.206 152.47V82.0581C240.206 81.1171 239.432 80.344 238.49 80.344H219.481C218.539 80.344 217.766 81.1171 217.766 82.0581V152.47C217.766 153.445 218.539 154.184 219.481 154.184Z" fill="#AEC3FF"/>
</g>
<g opacity="0.4">
<path opacity="0.4" d="M221.769 85.9905H235.765C236.505 85.9905 237.111 85.3855 237.111 84.6461V84.4108C237.111 83.6714 236.505 83.0664 235.765 83.0664H221.769C221.029 83.0664 220.423 83.6714 220.423 84.4108V84.6461C220.39 85.3855 220.995 85.9905 221.769 85.9905Z" fill="#F99746"/>
</g>
<g opacity="0.4">
<path opacity="0.4" d="M19.5022 354.294H48.5369C51.0939 354.294 53.1798 352.211 53.1798 349.656V227.553C53.1798 224.999 51.0939 222.915 48.5369 222.915H19.5022C16.9453 222.915 14.8594 224.999 14.8594 227.553V349.69C14.893 352.244 16.9453 354.294 19.5022 354.294Z" fill="#8C9DF4"/>
</g>
<g opacity="0.4">
<path opacity="0.4" d="M34.0366 334.936C38.9977 334.936 43.0195 330.918 43.0195 325.962C43.0195 321.006 38.9977 316.988 34.0366 316.988C29.0755 316.988 25.0537 321.006 25.0537 325.962C25.0537 330.918 29.0755 334.936 34.0366 334.936Z" fill="#505ABA"/>
</g>
<g opacity="0.4">
<path opacity="0.4" d="M34.0363 335.944C28.5523 335.944 24.1113 331.507 24.1113 326.029C24.1113 320.55 28.5523 316.114 34.0363 316.114C39.5202 316.114 43.9612 320.55 43.9612 326.029C43.9612 331.473 39.5202 335.944 34.0363 335.944ZM34.0363 317.996C29.5953 317.996 25.9954 321.592 25.9954 326.029C25.9954 330.465 29.5953 334.061 34.0363 334.061C38.4772 334.061 42.0771 330.465 42.0771 326.029C42.0771 321.592 38.4436 317.996 34.0363 317.996Z" fill="white"/>
</g>
<g opacity="0.4">
<path opacity="0.4" d="M24.5152 302.771H43.524C44.466 302.771 45.2398 301.998 45.2398 301.057V230.645C45.2398 229.704 44.466 228.931 43.524 228.931H24.5152C23.5731 228.931 22.7993 229.704 22.7993 230.645V301.057C22.7993 302.032 23.5731 302.771 24.5152 302.771Z" fill="#AEC3FF"/>
</g>
<g opacity="0.4">
<path opacity="0.4" d="M26.8033 234.578H40.7991C41.5393 234.578 42.1449 233.973 42.1449 233.233V232.998C42.1449 232.259 41.5393 231.654 40.7991 231.654H26.8033C26.0631 231.654 25.4575 232.259 25.4575 232.998V233.233C25.4575 233.973 26.0631 234.578 26.8033 234.578Z" fill="#F99746"/>
</g>
<g opacity="0.4">
<g opacity="0.4">
<path opacity="0.4" d="M36.896 278.808V294.033C36.896 294.436 37.2324 294.772 37.6362 294.772C38.0399 294.772 38.3763 294.436 38.3763 294.033V278.808C38.3763 278.404 38.0399 278.068 37.6362 278.068C37.2324 278.068 36.896 278.404 36.896 278.808Z" fill="#505ABA"/>
</g>
<g opacity="0.4">
<path opacity="0.4" d="M36.896 257.869V273.094C36.896 273.497 37.2324 273.833 37.6362 273.833C38.0399 273.833 38.3763 273.497 38.3763 273.094V257.869C38.3763 257.466 38.0399 257.13 37.6362 257.13C37.2324 257.13 36.896 257.466 36.896 257.869Z" fill="#505ABA"/>
</g>
<g opacity="0.4">
<path opacity="0.4" d="M28.3843 278.808V294.033C28.3843 294.436 28.7207 294.772 29.1244 294.772C29.5282 294.772 29.8646 294.436 29.8646 294.033V278.808C29.8646 278.404 29.5282 278.068 29.1244 278.068C28.7207 278.068 28.3843 278.404 28.3843 278.808Z" fill="#505ABA"/>
</g>
<g opacity="0.4">
<path opacity="0.4" d="M28.3843 257.869V273.094C28.3843 273.497 28.7207 273.833 29.1244 273.833C29.5282 273.833 29.8646 273.497 29.8646 273.094V257.869C29.8646 257.466 29.5282 257.13 29.1244 257.13C28.7207 257.13 28.3843 257.466 28.3843 257.869Z" fill="#505ABA"/>
</g>
<g opacity="0.4">
<path opacity="0.4" d="M32.8252 274.505V294.033C32.8252 294.436 33.1616 294.772 33.5654 294.772C33.9691 294.772 34.3056 294.436 34.3056 294.033V274.505C34.3056 274.102 33.9691 273.766 33.5654 273.766C33.1616 273.766 32.8252 274.102 32.8252 274.505Z" fill="#505ABA"/>
</g>
<g opacity="0.4">
<path opacity="0.4" d="M32.8252 248.189V267.717C32.8252 268.12 33.1616 268.456 33.5654 268.456C33.9691 268.456 34.3056 268.12 34.3056 267.717V248.189C34.3056 247.786 33.9691 247.45 33.5654 247.45C33.1616 247.45 32.8252 247.786 32.8252 248.189Z" fill="#505ABA"/>
</g>
</g>
<g opacity="0.4">
<path opacity="0.4" d="M67.2766 354.294H96.3113C98.8682 354.294 100.954 352.211 100.954 349.656V227.553C100.954 224.999 98.8682 222.915 96.3113 222.915H67.2766C64.7197 222.915 62.6338 224.999 62.6338 227.553V349.69C62.6674 352.244 64.7197 354.294 67.2766 354.294Z" fill="#8C9DF4"/>
</g>
<g opacity="0.4">
<path opacity="0.4" d="M81.811 334.936C86.7722 334.936 90.7939 330.918 90.7939 325.962C90.7939 321.006 86.7722 316.988 81.811 316.988C76.8499 316.988 72.8281 321.006 72.8281 325.962C72.8281 330.918 76.8499 334.936 81.811 334.936Z" fill="#505ABA"/>
</g>
<g opacity="0.4">
<path opacity="0.4" d="M81.8107 335.944C76.3267 335.944 71.8857 331.507 71.8857 326.029C71.8857 320.55 76.3267 316.114 81.8107 316.114C87.2947 316.114 91.7356 320.55 91.7356 326.029C91.7356 331.473 87.261 335.944 81.8107 335.944ZM81.8107 317.996C77.3697 317.996 73.7698 321.592 73.7698 326.029C73.7698 330.465 77.3697 334.061 81.8107 334.061C86.2517 334.061 89.8516 330.465 89.8516 326.029C89.8179 321.592 86.218 317.996 81.8107 317.996Z" fill="white"/>
</g>
<g opacity="0.4">
<path opacity="0.4" d="M72.2896 302.771H91.2984C92.2404 302.771 93.0142 301.998 93.0142 301.057V230.645C93.0142 229.704 92.2404 228.931 91.2984 228.931H72.2896C71.3475 228.931 70.5737 229.704 70.5737 230.645V301.057C70.5737 302.032 71.3475 302.771 72.2896 302.771Z" fill="#AEC3FF"/>
</g>
<g opacity="0.4">
<path opacity="0.4" d="M74.5776 234.578H88.5734C89.3136 234.578 89.9192 233.973 89.9192 233.233V232.998C89.9192 232.259 89.3136 231.654 88.5734 231.654H74.5776C73.8374 231.654 73.2318 232.259 73.2318 232.998V233.233C73.1982 233.973 73.8038 234.578 74.5776 234.578Z" fill="#F99746"/>
</g>
<g opacity="0.4">
<g opacity="0.4">
<path opacity="0.4" d="M84.6709 278.808V294.033C84.6709 294.436 85.0073 294.772 85.4111 294.772C85.8148 294.772 86.1512 294.436 86.1512 294.033V278.808C86.1512 278.404 85.8148 278.068 85.4111 278.068C85.0073 278.068 84.6709 278.404 84.6709 278.808Z" fill="#505ABA"/>
</g>
<g opacity="0.4">
<path opacity="0.4" d="M84.6709 257.869V273.094C84.6709 273.497 85.0073 273.833 85.4111 273.833C85.8148 273.833 86.1512 273.497 86.1512 273.094V257.869C86.1512 257.466 85.8148 257.13 85.4111 257.13C85.0073 257.13 84.6709 257.466 84.6709 257.869Z" fill="#505ABA"/>
</g>
<g opacity="0.4">
<path opacity="0.4" d="M76.1587 278.808V294.033C76.1587 294.436 76.4951 294.772 76.8989 294.772C77.3026 294.772 77.639 294.436 77.639 294.033V278.808C77.639 278.404 77.3026 278.068 76.8989 278.068C76.4951 278.068 76.1587 278.404 76.1587 278.808Z" fill="#505ABA"/>
</g>
<g opacity="0.4">
<path opacity="0.4" d="M76.1587 257.869V273.094C76.1587 273.497 76.4951 273.833 76.8989 273.833C77.3026 273.833 77.639 273.497 77.639 273.094V257.869C77.639 257.466 77.3026 257.13 76.8989 257.13C76.4951 257.13 76.1587 257.466 76.1587 257.869Z" fill="#505ABA"/>
</g>
<g opacity="0.4">
<path opacity="0.4" d="M80.5996 274.505V294.033C80.5996 294.436 80.936 294.772 81.3398 294.772C81.7435 294.772 82.0799 294.436 82.0799 294.033V274.505C82.0799 274.102 81.7435 273.766 81.3398 273.766C80.9024 273.766 80.5996 274.102 80.5996 274.505Z" fill="#505ABA"/>
</g>
<g opacity="0.4">
<path opacity="0.4" d="M80.5996 248.189V267.717C80.5996 268.12 80.936 268.456 81.3398 268.456C81.7435 268.456 82.0799 268.12 82.0799 267.717V248.189C82.0799 247.786 81.7435 247.45 81.3398 247.45C80.9024 247.45 80.5996 247.786 80.5996 248.189Z" fill="#505ABA"/>
</g>
</g>
<g opacity="0.4">
<path opacity="0.4" d="M115.959 354.294H144.994C147.551 354.294 149.637 352.211 149.637 349.656V227.553C149.637 224.999 147.551 222.915 144.994 222.915H115.959C113.402 222.915 111.316 224.999 111.316 227.553V349.69C111.316 352.244 113.402 354.294 115.959 354.294Z" fill="#8C9DF4"/>
</g>
<g opacity="0.4">
<path opacity="0.4" d="M166.089 354.294H195.123C197.68 354.294 199.766 352.211 199.766 349.656V227.553C199.766 224.999 197.68 222.915 195.123 222.915H166.089C163.532 222.915 161.446 224.999 161.446 227.553V349.69C161.479 352.244 163.532 354.294 166.089 354.294Z" fill="#8C9DF4"/>
</g>
<g opacity="0.4">
<path opacity="0.4" d="M214.469 354.294H243.503C246.06 354.294 248.146 352.211 248.146 349.656V227.553C248.146 224.999 246.06 222.915 243.503 222.915H214.469C211.912 222.915 209.826 224.999 209.826 227.553V349.69C209.859 352.244 211.912 354.294 214.469 354.294Z" fill="#8C9DF4"/>
</g>
<path opacity="0.4" d="M4.63169 431.26C2.07475 431.26 0.0224609 429.21 0.0224609 426.656V60.7498C0.0224609 58.1955 2.07475 56.1453 4.63169 56.1453C7.18863 56.1453 9.24091 58.1955 9.24091 60.7498V426.656C9.24091 429.21 7.18863 431.26 4.63169 431.26Z" fill="#BDD1F9"/>
<path opacity="0.4" d="M0.053894 209.413L266.11 209.413V205.716L0.053894 205.716V209.413Z" fill="#BDD1F9"/>
<path opacity="0.4" d="M0.0558167 357.956L282.631 357.956V354.259L0.0558167 354.259V357.956Z" fill="#BDD1F9"/>
<path d="M565.475 182.886C565.475 182.886 540.175 204.833 544.549 209.27C548.922 213.706 570.959 182.786 570.959 182.786C570.959 182.786 604.065 190.247 612.778 198.582C612.778 198.582 577.957 211.992 583.273 215.219C588.622 218.445 625.496 206.178 625.496 206.178C625.496 206.178 653.689 221.1 646.086 238.779C638.482 256.457 626.337 258.709 621.963 256.726C617.589 254.743 594.476 235.956 592.659 239.485C590.876 243.014 602.786 260.356 613.754 264.591C613.754 264.591 585.056 280.858 573.247 269.565C561.472 258.272 563.759 247.248 556.358 240.392C548.956 233.536 541.487 231.116 543.741 236.359C545.995 241.602 560.496 250.744 562.582 261.196C564.668 271.649 567.191 279.077 553.431 272.119C539.67 265.162 519.619 246.845 522.579 234.376C522.714 233.838 522.848 233.301 522.949 232.83C522.613 233.771 522.579 234.376 522.579 234.376C519.383 233.906 511.308 237.401 505.32 240.258C504.378 240.795 502.998 241.501 501.047 242.375C500.206 242.812 499.533 243.148 499.062 243.417C486.614 250.542 474.536 270.305 474.536 270.305L471.474 268.994C480.255 246.408 501.922 239.249 501.922 239.249C517.667 232.46 525.54 221.907 525.54 221.907C525.54 221.907 512.856 191.154 537.214 182.281C537.282 182.315 554.204 178.416 565.475 182.886Z" fill="#3AA6C3"/>
<path d="M657.094 363.707H678.862V293.598H657.094V363.707Z" fill="#334094"/>
<path d="M604.638 363.707H657.122V293.598H604.638V363.707Z" fill="#2C3A64"/>
<path d="M667.989 305.964C669.995 305.964 671.622 304.339 671.622 302.334C671.622 300.329 669.995 298.704 667.989 298.704C665.982 298.704 664.355 300.329 664.355 302.334C664.355 304.339 665.982 305.964 667.989 305.964Z" fill="#DDE7FE"/>
<path d="M667.989 304.889C669.401 304.889 670.545 303.745 670.545 302.334C670.545 300.924 669.401 299.78 667.989 299.78C666.576 299.78 665.432 300.924 665.432 302.334C665.432 303.745 666.576 304.889 667.989 304.889Z" fill="#6C7AFF"/>
<path d="M662.788 329.541H673.016V311.09H662.788V329.541Z" fill="#8FADEF"/>
<path d="M616.527 363.707H638.295V293.598H616.527V363.707Z" fill="#334094"/>
<path d="M564.037 363.707H616.522V293.598H564.037V363.707Z" fill="#2C3A64"/>
<path d="M627.414 305.964C629.421 305.964 631.048 304.339 631.048 302.334C631.048 300.329 629.421 298.704 627.414 298.704C625.408 298.704 623.781 300.329 623.781 302.334C623.781 304.339 625.408 305.964 627.414 305.964Z" fill="#DDE7FE"/>
<path d="M627.414 304.889C628.827 304.889 629.971 303.745 629.971 302.334C629.971 300.924 628.827 299.78 627.414 299.78C626.002 299.78 624.857 300.924 624.857 302.334C624.857 303.745 626.002 304.889 627.414 304.889Z" fill="#6C7AFF"/>
<path d="M622.221 329.541H632.449V311.09H622.221V329.541Z" fill="#8FADEF"/>
<path d="M579.412 363.707H601.18V293.598H579.412V363.707Z" fill="#35488B"/>
<path d="M526.922 363.707H579.407V293.598H526.922V363.707Z" fill="#2C3A64"/>
<path d="M590.304 305.964C592.311 305.964 593.938 304.339 593.938 302.334C593.938 300.329 592.311 298.704 590.304 298.704C588.298 298.704 586.671 300.329 586.671 302.334C586.671 304.339 588.298 305.964 590.304 305.964Z" fill="#DDE7FE"/>
<path d="M590.305 304.889C591.717 304.889 592.861 303.745 592.861 302.334C592.861 300.924 591.717 299.78 590.305 299.78C588.892 299.78 587.748 300.924 587.748 302.334C587.748 303.745 588.892 304.889 590.305 304.889Z" fill="#6C7AFF"/>
<path d="M585.106 329.541H595.334V311.09H585.106V329.541Z" fill="#8FADEF"/>
<path d="M523.655 429.965H646.589V339.253H523.655V429.965Z" fill="#C21432"/>
<path d="M589.534 429.965H687V339.253H589.534V429.965Z" fill="#FF4263"/>
<path d="M631.215 354.059H656.448C657.996 354.059 659.274 352.782 659.274 351.236V350.866C659.274 349.32 657.996 348.043 656.448 348.043H631.215C629.668 348.043 628.389 349.32 628.389 350.866V351.236C628.389 352.782 629.668 354.059 631.215 354.059Z" fill="#2C3A64"/>
<path d="M338.514 220.663L321.894 418.119C321.894 418.119 320.144 430.084 329.06 430.117C343.729 430.151 402 430.117 402 430.117C402 430.117 390.965 427.63 391.099 422.017C391.268 415.396 410.512 218.815 410.512 218.815L338.514 220.663Z" fill="#798EE8"/>
<path d="M407.484 426.521C404.59 426.521 348.169 426.622 333.904 426.454C327.68 426.387 326.604 420.942 326.536 417.413C326.503 415.732 326.738 414.489 326.738 414.489L327.176 409.347L328.286 396.273L329.262 384.711L330.506 369.856L331.549 357.319L343.358 217L415.39 215.118C415.39 215.118 407.282 297.394 401.529 357.286C400.889 363.974 400.284 370.36 399.712 376.342C399.544 378.258 399.342 380.106 399.174 381.921C398.635 387.601 398.164 392.777 397.727 397.382C397.491 399.802 397.29 402.053 397.121 404.104C396.381 412.17 395.944 417.346 395.944 418.32C395.944 418.892 395.977 419.429 396.078 419.934C397.256 426.219 406.407 426.521 407.484 426.521Z" fill="#AEC3FF"/>
<path d="M163.633 113.113L204.106 275.615L209.658 297.864L228.498 373.553H578.899L509.358 113.113H163.633Z" fill="#566DEF"/>
<path d="M163.633 113.113L158.014 114.995L221.063 379.199L228.498 373.553L163.633 113.113Z" fill="#798EE8"/>
<path d="M221.063 379.199H569.277L578.899 373.553H228.498L221.063 379.199Z" fill="#849DEF"/>
<path d="M343.344 430.089H418.74V426.527H343.344V430.089Z" fill="#AEC3FF"/>
<path d="M399.578 379.199L399.174 381.922L328.286 396.239L329.228 384.678L329.699 379.199H399.578Z" fill="#8C9DF4"/>
<g opacity="0.5">
<path opacity="0.5" d="M407.484 426.521C404.591 426.521 348.17 426.622 333.905 426.454C327.68 426.387 326.604 420.942 326.537 417.413L397.122 404.137C396.381 412.204 395.944 417.379 395.944 418.354C395.944 418.925 395.978 419.463 396.079 419.967C397.256 426.219 406.407 426.521 407.484 426.521Z" fill="#8C9DF4"/>
</g>
<path d="M163.633 113.113H509.358L565.476 322.399H215.781L163.633 113.113Z" fill="#566DEF"/>
<path d="M549.158 313.358H225.437L213.863 267.313L209.389 249.5L207.572 242.241L195.662 194.919L195.056 192.465L188.765 167.46L185.973 156.268L183.55 146.723L181.599 138.925L177.932 124.339H497.01L501.048 138.925L503.167 146.723L505.825 156.268L508.887 167.46L529.241 241.165L530.957 247.416L531.765 250.307L545.828 301.192L549.158 313.358Z" fill="#194FB9"/>
<path d="M144.321 225.571C144.321 225.571 145.162 216.362 134.867 216.362C134.867 216.362 137.996 217.202 139.577 218.882C139.577 218.882 133.017 215.051 125.884 220.932C118.752 226.848 123.193 241.669 121.006 244.493C118.819 247.316 110.374 247.854 111.417 256.962C112.46 266.07 138.232 277.464 136.583 284.992C136.583 284.992 146.676 270.137 139.476 263.381C139.476 263.381 143.009 266.709 143.345 270.641C143.345 270.641 144.287 262.944 139.409 260.491C135.069 258.306 131.536 250.341 131.907 248.929C132.31 247.517 144.321 225.571 144.321 225.571Z" fill="#2C3A64"/>
<path d="M134.195 269.7C134.195 269.7 141.865 301.461 149.402 307.779C153.943 311.577 167.401 320.349 167.401 320.349L161.782 322.366C161.782 322.366 143.076 316.047 138.905 311.14C134.733 306.233 123.26 281.597 123.26 281.597L134.195 269.7Z" fill="#FFB27D"/>
<path d="M178.537 331.944L176.72 327.474C174.769 322.702 170.126 319.543 164.978 319.543H131.671V340.649V430.756H269.409V340.649H191.49C185.804 340.683 180.656 337.221 178.537 331.944Z" fill="#FF4263"/>
<path d="M61.9946 325.458C62.0619 325.592 62.1291 325.693 62.1964 325.828C63.8786 328.752 67.7477 335.91 71.9868 343.708C74.0055 347.405 76.0914 351.27 78.11 354.933C81.5417 361.218 84.6706 366.797 86.4873 369.755C88.3378 372.746 89.7172 374.864 90.2555 375.704C90.4237 375.973 90.4573 376.275 90.4237 376.578C90.2218 379.233 90.2891 381.855 90.5583 384.442C93.1152 409.918 110.307 423.564 110.307 423.564L115.421 424.303C115.421 424.303 108.188 397.55 106.068 382.426C105.698 379.872 105.563 377.788 105.664 376.443C106.034 372.511 105.328 366.73 104.016 360.076C101.661 348.279 97.3207 333.759 93.5526 322.164C93.3171 321.425 86.1173 295.445 86.1173 295.445C80.095 300.721 58.0919 302.872 58.0919 302.872C58.0919 302.872 54.3911 311.947 61.9946 325.458Z" fill="#2F539B"/>
<path d="M126.154 430.79H104.823C104.823 430.79 104.319 427.53 105.429 425.076C106.506 422.723 108.02 422.623 105.631 418.926C106.977 420.304 111.35 420.908 114.412 420.472C114.782 421.077 116.834 425.177 118.113 426.084C119.526 427.126 125.716 426.757 126.154 430.79Z" fill="#233862"/>
<path d="M61.9946 325.458C62.0619 325.592 62.1292 325.693 62.1965 325.827C63.8787 328.751 72.9626 345.523 77.2017 353.354C72.2897 333.121 75.6877 312.888 75.6877 312.888L61.9946 325.458Z" fill="#233862"/>
<path d="M141.394 224.26C141.529 223.688 129.215 229.839 128.576 230.511C122.789 236.897 124.438 245.266 127.769 245.333C129.888 245.4 129.484 248.895 129.484 248.895L153.103 238.913C153.103 238.947 150.276 222.378 141.394 224.26Z" fill="#2C3A64"/>
<path d="M133.454 264.927C133.454 264.927 137.054 272.086 136.583 277.934C136.583 277.934 132.243 284.757 121.006 286.504C121.04 286.504 130.695 264.927 133.454 264.927Z" fill="#3AA6C3"/>
<path d="M78.6146 304.486L78.6819 300.486C70.7419 301.494 51.2958 291.008 51.2958 291.008C51.2958 291.008 42.9857 296.52 41.8418 312.317C41.2699 320.013 37.7709 352.581 37.3672 362.294C37.2326 365.823 37.1653 368.344 37.1653 369.352C37.1653 369.654 37.0308 369.923 36.8289 370.158C35.1803 372.242 33.7673 374.46 32.5225 376.746C20.4107 399.298 26.7357 429.916 26.7357 429.916L29.5618 429.21C29.5618 429.21 39.8232 397.449 46.5183 383.737C47.6622 381.418 48.7052 379.603 49.5463 378.561C52.0696 375.502 54.7274 370.327 57.3517 364.075C62.2973 352.245 78.6146 304.486 78.6146 304.486Z" fill="#2F539B"/>
<path d="M43.7259 430.79H22.3957C22.3957 430.79 21.891 427.53 23.0013 425.076C24.0779 422.724 25.7264 421.648 25.3564 418.791C26.7021 420.169 28.9226 421.749 32.0178 421.346C32.3879 421.951 34.4402 425.244 35.7187 426.152C37.0644 427.126 43.2886 426.757 43.7259 430.79Z" fill="#233862"/>
<path d="M119.593 291.075C116.733 291.58 120.064 293.831 116.127 294.268C110.509 294.873 104.722 295.31 101.694 296.52C100.584 296.957 99.8438 297.495 99.6083 298.201C98.2962 302.167 89.9525 308.922 89.9525 308.922C52.8096 307.242 50.4209 290.706 50.4209 290.706C74.5099 267.314 95.0327 254.576 111.989 252.996C116.127 252.626 121.679 253.13 124.269 254.273C130.191 256.895 133.454 264.927 133.454 264.927C133.454 264.927 130.493 289.227 119.593 291.075Z" fill="#61CEF9"/>
<path d="M116.128 294.268C110.509 294.873 104.722 295.31 101.695 296.52C100.45 278.035 109.197 264.087 109.197 264.087C109.197 264.087 114.883 287.244 116.128 294.268Z" fill="#3AA6C3"/>
<path d="M120.972 260.961C120.972 260.961 106.875 260.188 104.352 269.028C101.862 277.867 109.062 313.19 110.61 316.82C113.436 323.441 127.701 343.204 127.701 343.204L132.277 340.851C132.277 340.851 123.092 311.913 121.039 309.056C117.81 304.553 125.178 264.793 120.972 260.961Z" fill="#FFB27D"/>
<path d="M132.277 340.851C132.277 340.851 133.454 341.859 134.396 343.036C135.338 344.178 134.497 344.615 137.222 349.858C137.222 349.858 137.088 350.598 136.482 350.463C135.877 350.329 133.824 348.312 132.781 348.447C132.781 348.447 132.041 349.052 131.94 351.136C131.873 353.051 131.873 357.32 131.537 358.093C131.2 358.899 128.744 354.732 127.567 351.741C126.524 349.119 127.533 340.246 127.533 340.246L132.277 340.851Z" fill="#FFB27D"/>
<path d="M101.56 280.858C101.594 281.06 114.917 283.312 123.227 279.077C123.227 279.077 130.191 257.298 120.232 258.34C110.307 259.382 104.42 262.507 104.151 267.246C103.949 272.019 101.56 280.858 101.56 280.858Z" fill="#61CEF9"/>
<path d="M123.967 255.785C124.101 257.533 124.337 259.617 126.658 261.97C128.441 263.784 130.965 265.196 132.781 263.415C133.69 262.507 134.935 261.129 135.54 260.054C137.088 257.399 138.938 254.676 138.938 254.676L130.965 247.686L130.494 247.282C128.408 250.946 126.355 252.693 124.539 254.038C124 254.441 123.933 255.113 123.967 255.785Z" fill="#FFB27D"/>
<path d="M138.938 254.71C138.938 254.71 137.088 257.432 135.54 260.088C130.594 257.029 130.561 250.912 130.964 247.719L138.938 254.71Z" fill="#ED985F"/>
<path d="M139.174 258.205C139.174 258.205 127.129 251.517 131.402 244.089C135.675 236.662 137.02 230.78 144.893 234.746C152.766 238.712 152.598 242.409 151.79 245.232C150.949 248.055 142.403 259.751 139.174 258.205Z" fill="#FFB27D"/>
<path d="M153.809 240.897C153.271 237.603 151.588 237.267 150.411 237.502C145.97 230.141 138.703 233.032 138.703 233.032C134.834 237.905 129.215 238.746 129.215 238.746C129.215 238.746 130.628 241.333 136.381 242.947C138.131 243.451 140.15 243.148 142.067 242.476C138.064 244.694 133.892 245.568 133.892 245.568C141.495 246.274 148.695 239.317 149.435 238.577C149.772 239.653 150.411 241.905 150.041 243.552C149.536 245.77 147.551 249.837 148.762 250.341C148.762 250.341 154.65 245.837 153.809 240.897Z" fill="#2C3A64"/>
<path d="M169.621 320.383C169.621 320.383 166.257 322.904 168.78 324.55C171.303 326.197 175.845 326.634 175.845 325.559C175.946 321.929 174.13 319.341 169.621 320.383Z" fill="#FFB27D"/>
<path d="M250.131 179.996L247.137 175.593C243.941 170.854 238.49 167.762 233.41 167.762H200.574L206.26 188.566L228.868 271.178C229.878 274.875 233.242 277.463 237.077 277.463H355.268C360.887 277.463 364.991 272.119 363.477 266.708L342.08 188.6H265.204C259.619 188.566 253.63 185.172 250.131 179.996Z" fill="#AEC3FF"/>
<path d="M253.529 155.192C253.024 155.797 252.957 156.436 253.192 157.142C253.663 158.452 255.211 159.898 257.028 161.343C257.263 161.544 257.465 161.713 257.633 161.847C257.667 161.881 257.734 161.914 257.768 161.981C257.802 162.015 257.835 162.049 257.869 162.082C259.551 163.628 258.912 163.998 261.94 167.157C265.405 170.753 267.76 170.821 268.433 170.485C269.005 170.216 267.827 168.3 266.549 166.149C266.482 166.048 266.414 165.947 266.347 165.846C266.179 165.578 266.011 165.275 265.842 164.973C264.328 162.385 264.732 161.175 265.069 157.343C265.371 154.218 269.913 139.934 269.913 139.934L263.286 138.791C263.286 138.791 261.301 150.184 259.08 151.932C257.902 152.873 256.59 152.873 255.446 153.579C255.379 153.613 255.278 153.68 255.211 153.713C254.706 154.184 254.033 154.621 253.529 155.192Z" fill="#FFB27D"/>
<path d="M253.529 155.192C253.024 155.797 252.957 156.436 253.192 157.142C253.764 158.452 255.278 159.898 257.028 161.343C257.263 161.544 257.465 161.713 257.633 161.881C257.667 161.914 257.734 161.948 257.768 162.015C257.802 162.049 257.835 162.082 257.869 162.116C259.551 163.662 258.912 164.032 261.94 167.191C265.405 170.787 267.76 170.854 268.433 170.518C269.005 170.249 267.827 168.334 266.549 166.183C265.876 165.947 262.747 164.67 260.392 161.645C258.373 159.091 257.028 155.831 255.648 153.814C255.514 153.781 255.413 153.781 255.245 153.747C254.706 154.184 254.033 154.621 253.529 155.192Z" fill="#233862"/>
<path d="M306.922 151.092C307.325 153.142 310.252 152.806 313.482 151.999C316.746 151.193 315.972 152.134 320.581 151.63C325.224 151.126 326.603 149.378 326.772 148.706C326.906 148.101 324.618 147.865 322.162 147.597C321.86 147.563 321.557 147.529 321.22 147.496C318.462 147.16 316.409 145.345 313.886 143.899C311.497 142.522 307.931 136.842 307.931 136.842L301.572 137.346C301.572 137.346 304.903 142.421 306.182 144.605C306.955 145.882 306.888 147.597 306.821 148.941C306.821 149.647 306.787 150.352 306.922 151.092Z" fill="#FFB27D"/>
<path d="M313.482 151.999C316.746 151.193 315.972 152.134 320.581 151.63C325.224 151.126 326.603 149.378 326.772 148.706C326.906 148.101 324.618 147.865 322.162 147.597L322.129 147.63C322.129 147.63 319.336 149.613 315.501 149.68C312.372 149.748 309.041 148.84 306.854 148.874C306.821 149.579 306.754 150.319 306.888 151.058C307.325 153.142 310.252 152.806 313.482 151.999Z" fill="#233862"/>
<path d="M282.597 110.492L276.642 126.456L268.87 147.294C268.87 147.294 266.751 147.496 264.766 146.925C262.915 146.387 260.796 144.975 260.796 144.975C260.796 144.975 262.949 122.591 266.986 109.753C268.029 106.459 269.173 103.804 270.452 102.291C276.642 94.9644 282.597 110.492 282.597 110.492Z" fill="#3AA6C3"/>
<path d="M276.541 85.1503C273.177 84.0748 264.329 85.1167 254.774 86.8644C252.116 87.3349 249.458 86.125 248.079 83.8395L223.99 81.9574C223.99 81.9574 216.05 99.5688 220.39 110.761C221.029 112.408 222.442 113.449 224.595 113.483C224.595 113.483 239.129 113.517 243.806 113.517C255.783 113.517 269.14 105.316 270.889 104.946C273.715 104.375 274.859 110.021 277.685 115.97C280.511 121.919 304.297 142.286 304.297 142.286C304.297 142.286 307.965 142.32 309.445 141.749C311.06 141.144 311.666 140.337 311.666 140.337C311.666 140.337 285.322 87.9735 276.541 85.1503Z" fill="#61CEF9"/>
<path d="M245.556 13.1925C243.773 12.117 242.024 11.949 240.947 11.9826C240.207 12.0162 239.467 11.949 238.727 11.8481C229.542 10.5037 223.99 23.8467 223.688 27.8462C223.082 35.2403 219.179 36.383 213.662 40.9875C202.593 50.2637 205.856 61.0523 211.879 65.0855C215.512 67.5054 221.905 65.0855 221.905 65.0855C222.005 65.1527 239.399 55.3723 247.979 50.667C260.797 48.8857 250.704 16.251 245.556 13.1925Z" fill="#233862"/>
<path d="M240.778 46.7012C240.811 46.7348 236.572 48.18 233.713 46.9029C231.021 45.7265 229.002 41.3237 229.036 41.3237C230.247 41.2565 231.593 40.2146 232.636 33.2238L233.141 33.4255L241.854 36.5511C241.854 36.5511 241.215 39.3407 240.811 41.9959C240.475 44.2141 240.307 46.3651 240.778 46.7012Z" fill="#FFB27D"/>
<path d="M241.854 36.5511C241.854 36.5511 241.518 38.0635 241.013 40.8867C236 39.9793 233.847 36.1142 233.141 33.4254L241.854 36.5511Z" fill="#ED975D"/>
<path d="M243.167 39.3072C243.167 39.3072 231.223 37.6939 232.367 30.2998C233.478 22.9058 232.704 17.6963 240.341 18.4021C248.012 19.1079 249.055 22.1664 249.29 24.7207C249.526 27.3086 246.296 39.5424 243.167 39.3072Z" fill="#FFB27D"/>
<path d="M248.853 20.6875C248.853 20.6875 241.215 27.2749 236.034 27.7791C230.853 28.3168 228.868 26.6363 228.868 26.6363C228.868 26.6363 231.93 24.082 233.78 20.0153C234.318 18.8053 235.462 17.9651 236.808 17.8643C240.475 17.5282 247.507 17.3937 248.853 20.6875Z" fill="#233862"/>
<path d="M244.075 20.0824C244.075 20.0824 246.632 22.5359 247.44 24.3844C248.213 26.1657 248.449 30.3669 247.843 32.0474C247.843 32.0474 251.813 24.3172 249.559 20.5529C247.17 16.587 244.075 20.0824 244.075 20.0824Z" fill="#233862"/>
<path d="M250.804 64.2453C250.434 88.3768 250.703 83.3354 248.045 85.6209C247.406 86.1586 245.623 86.4947 243.268 86.6628C235.866 87.1669 222.846 85.9233 222.341 84.5453C220.625 79.8064 221.837 78.3612 220.423 71.1016C220.289 70.3286 220.087 69.4883 219.885 68.5809C218.708 63.6067 217.53 61.9262 221.769 53.9272C225.605 46.7011 229.575 40.8195 229.911 41.0211C240.004 47.0036 240.812 41.9622 240.812 41.9622C240.812 41.9622 251.006 52.482 250.804 64.2453Z" fill="#2F539B"/>
<path d="M276.642 126.456L268.87 147.294C268.87 147.294 266.751 147.496 264.766 146.924C262.915 146.387 260.796 144.975 260.796 144.975C260.796 144.975 262.949 122.591 266.986 109.752L276.642 126.456Z" fill="#61CEF9"/>
<path d="M240.812 41.9957C240.812 41.9957 251.174 43.7434 252.419 48.2135C253.63 52.6835 257.633 79.7727 257.633 79.7727C257.633 79.7727 254.706 82.6295 252.284 80.176C249.862 77.7562 244.613 54.8345 244.613 54.8345L240.812 41.9957Z" fill="#2F539B"/>
<path d="M243.268 86.6627C235.866 87.1668 222.846 85.9233 222.341 84.5453C220.625 79.8064 221.836 78.3611 220.423 71.1015L223.99 61.0523C223.99 61.0523 223.384 72.2442 226.681 75.1683C229.978 78.1259 240.206 80.8483 241.821 83.3017C242.628 84.5117 243.133 85.688 243.268 86.6627Z" fill="#233862"/>
<path d="M234.789 81.9573C234.789 81.9573 242.09 80.3441 243.267 80.9826C244.445 81.6212 247.338 83.9739 247.675 84.8141C248.045 85.6207 245.05 84.1755 244.075 83.9403C243.436 83.7722 241.787 84.3436 240.98 84.6125C237.548 85.7552 235.428 85.1838 235.428 85.1838L234.789 81.9573Z" fill="#FFB27D"/>
<path d="M229.911 41.0211C229.911 41.0211 220.087 41.6261 216.689 46.365C211.912 53.0197 202.424 81.4196 207.841 85.1839C213.964 89.4523 235.698 86.293 235.698 86.293C235.698 86.293 236.438 82.9321 235.429 81.2852C234.419 79.6383 218.068 77.0168 217.328 76.2438C216.588 75.5044 226.782 61.5565 226.782 59.271C226.782 57.0528 229.911 41.0211 229.911 41.0211Z" fill="#2F539B"/>
<path d="M243.638 82.9993C243.638 82.9993 245.152 84.9822 245.656 85.2175C246.161 85.4528 246.497 85.3855 246.497 85.3855L245.454 83.537L243.638 82.9993Z" fill="#FFB27D"/>
<path d="M243.301 80.9827L247.742 83.1337C247.742 83.1337 247.54 83.4362 247.002 83.4026C246.464 83.369 245.084 82.8648 245.084 82.8648L243.301 80.9827Z" fill="#FFB27D"/>
<path d="M281.285 86.0577L234.789 86.0241V87.066H280.881L281.285 86.0577Z" fill="#233862"/>
<path d="M245.656 87.0662H280.881L291.479 60.7836L256.321 60.75L245.656 87.0662Z" fill="#233862"/>
<path d="M272 73.9248C272.269 72.9837 271.73 72.2443 270.788 72.2443C269.846 72.2443 268.904 72.9837 268.635 73.9248C268.366 74.8659 268.904 75.6053 269.846 75.6053C270.755 75.6053 271.73 74.8659 272 73.9248Z" fill="white"/>
<path opacity="0.5" d="M445.636 174.047L435.913 161.612L435.442 161.04L434.904 160.94L389.955 152.672L374.849 234.78L433.087 245.501L446.04 175.257L446.141 174.686L445.636 174.047Z" fill="#8C9DF4"/>
<path d="M416.399 148.571L416.433 149.143L419.192 220.529L360.012 222.815L356.782 139.396L402.437 137.615L402.975 137.581L403.581 138.052L415.794 148.067L416.399 148.571Z" fill="#AEC3FF"/>
<path d="M377.473 169.006L278.695 174.517C278.493 174.517 278.358 174.686 278.358 174.887L285.558 304.115C285.558 304.317 285.726 304.452 285.928 304.452L384.572 298.973C384.774 298.973 384.909 298.805 384.909 298.604L377.709 169.207C377.709 169.106 377.608 169.006 377.473 169.006Z" fill="#233862"/>
<path d="M377.305 294.873L293.633 300.116C291.11 300.284 288.956 298.368 288.788 295.848L281.656 182.248C281.488 179.727 283.405 177.576 285.929 177.408L369.601 172.165C372.124 171.997 374.277 173.913 374.446 176.433L381.578 290.033C381.713 292.554 379.795 294.739 377.305 294.873Z" fill="#EBF3FA"/>
<path d="M344.267 190.953L291.614 194.246C291.58 194.246 291.58 194.213 291.547 194.213L291.479 192.902C291.479 192.868 291.513 192.868 291.513 192.835L344.166 189.541C344.199 189.541 344.2 189.575 344.233 189.575L344.3 190.885C344.3 190.919 344.3 190.953 344.267 190.953Z" fill="#BDD1F9"/>
<path d="M344.973 202.245L292.321 205.539C292.287 205.539 292.287 205.506 292.253 205.506L292.186 204.195C292.186 204.161 292.22 204.161 292.22 204.128L344.872 200.834C344.906 200.834 344.906 200.867 344.94 200.867L345.007 202.178C345.041 202.212 345.007 202.245 344.973 202.245Z" fill="#BDD1F9"/>
<path d="M364.722 195.356L291.984 199.926C291.951 199.926 291.951 199.893 291.917 199.893L291.85 198.582C291.85 198.548 291.883 198.548 291.883 198.515L364.621 193.944C364.655 193.944 364.655 193.978 364.689 193.978L364.756 195.288C364.79 195.322 364.756 195.322 364.722 195.356Z" fill="#BDD1F9"/>
<path d="M332.256 238.14L296.425 240.392C296.392 240.392 296.391 240.392 296.391 240.359L296.324 239.014C296.324 238.981 296.324 238.981 296.358 238.981L332.155 236.729C332.189 236.729 332.189 236.729 332.189 236.762L332.256 238.107C332.289 238.107 332.289 238.14 332.256 238.14Z" fill="#BDD1F9"/>
<path d="M345.579 231.62L296.089 234.712C296.055 234.712 296.055 234.712 296.055 234.679L295.988 233.334C295.988 233.301 295.988 233.301 296.021 233.301L345.512 230.208C345.545 230.208 345.545 230.208 345.545 230.242L345.613 231.586C345.613 231.62 345.613 231.62 345.579 231.62Z" fill="#BDD1F9"/>
<path d="M349.246 243.383L296.594 246.677C296.56 246.677 296.56 246.643 296.526 246.643L296.459 245.333C296.459 245.299 296.493 245.299 296.493 245.265L349.145 241.972C349.179 241.972 349.179 242.005 349.213 242.005L349.28 243.316C349.28 243.35 349.28 243.383 349.246 243.383Z" fill="#BDD1F9"/>
<path d="M355.47 248.66L296.93 252.324C296.896 252.324 296.896 252.324 296.896 252.29L296.829 250.979C296.829 250.946 296.862 250.946 296.862 250.946L355.403 247.282C355.436 247.282 355.436 247.316 355.436 247.316L355.504 248.627C355.537 248.627 355.504 248.66 355.47 248.66Z" fill="#BDD1F9"/>
<path d="M335.553 259.852L297.872 262.205C297.838 262.205 297.838 262.205 297.838 262.171L297.771 260.827C297.771 260.793 297.771 260.793 297.805 260.793L335.486 258.44C335.519 258.44 335.519 258.44 335.519 258.474L335.587 259.818C335.587 259.818 335.587 259.852 335.553 259.852Z" fill="#BDD1F9"/>
<path d="M336.26 271.145L298.578 273.497C298.545 273.497 298.545 273.497 298.545 273.464L298.478 272.119C298.478 272.086 298.478 272.086 298.511 272.086L336.192 269.733C336.226 269.733 336.226 269.733 336.226 269.767L336.293 271.111C336.327 271.111 336.293 271.145 336.26 271.145Z" fill="#BDD1F9"/>
<path d="M350.323 264.591L298.242 267.851C298.208 267.851 298.208 267.851 298.208 267.818L298.141 266.473C298.141 266.44 298.141 266.44 298.175 266.44L350.256 263.179C350.289 263.179 350.289 263.179 350.289 263.213L350.356 264.557C350.356 264.591 350.323 264.591 350.323 264.591Z" fill="#BDD1F9"/>
<path d="M350.558 163.359L304.5 165.914C301.472 166.082 299.117 168.502 299.285 171.325L299.689 178.282C299.722 178.92 300.328 179.425 301.034 179.391L355.571 176.366C356.278 176.333 356.816 175.761 356.782 175.123L356.379 168.165C356.177 165.342 353.586 163.191 350.558 163.359Z" fill="#FF4263"/>
<path d="M433.793 219.218C433.793 219.218 432.851 217.067 432.212 216.059C431.606 215.051 428.948 212.059 428.477 212.731C428.04 213.404 426.223 217.941 427.165 219.218C428.107 220.495 427.098 222.714 431.875 224.058L433.793 219.218Z" fill="#FFB27D"/>
<path d="M486.748 205.64C486.748 205.64 462.356 225.974 452.835 224.092C445.4 222.613 433.624 218.882 433.624 218.882C433.624 218.882 430.529 221.84 431.404 225.369C431.404 225.369 446.375 239.451 457.074 239.552C473.761 239.687 481.634 231.284 481.634 231.284L486.748 205.64Z" fill="#C21432"/>
<path d="M529.543 420.236C529.543 420.236 528.837 431.664 526.616 431.798C526.313 431.832 515.413 431.832 515.413 431.832L501.484 431.764C501.484 431.764 501.585 428.403 505.656 427.698C509.727 426.992 516.557 424.135 519.013 418.758C521.603 413.078 529.543 420.236 529.543 420.236Z" fill="#113C68"/>
<path d="M530.351 421.043C530.351 421.043 526.112 422.455 522.815 422.455C519.114 422.455 515.783 421.446 515.783 421.446C515.783 421.446 514.976 413.75 510.602 396.777C508.314 387.87 505.017 376.443 500.34 362.226C487.421 322.937 483.485 299.948 483.115 297.764C483.081 297.663 483.081 297.596 483.081 297.596L483.115 297.562L522.848 280.119C522.848 280.119 517.936 334.263 524.194 355.068C525.069 357.958 525.809 361.353 526.482 365.016C530.452 387.602 530.351 421.043 530.351 421.043Z" fill="#61CEF9"/>
<path d="M510.568 396.743C508.28 387.837 504.983 376.409 500.307 362.193C487.387 322.903 483.451 299.914 483.081 297.73C483.081 297.663 483.081 297.595 483.081 297.528L522.814 280.085C522.814 280.085 517.902 334.23 524.16 355.034C525.069 357.958 510.568 396.743 510.568 396.743Z" fill="#3AA6C3"/>
<path d="M498.49 420.236C498.49 420.236 497.784 431.664 495.563 431.798C495.26 431.832 484.36 431.832 484.36 431.832L470.431 431.764C470.431 431.764 470.532 428.403 474.603 427.698C478.674 426.992 485.504 424.135 487.96 418.758C490.55 413.078 498.49 420.236 498.49 420.236Z" fill="#15447C"/>
<path d="M475.982 281.396C475.982 281.396 475.478 316.484 481.534 359.571C487.623 402.659 485.537 420.942 485.537 420.942C485.537 420.942 489.709 422.287 491.391 422.421C495.698 422.757 500.071 421.413 500.071 421.413C500.071 421.413 508.785 378.325 506.262 356.748C503.772 335.171 518.172 282.74 518.172 282.74L475.982 281.396Z" fill="#61CEF9"/>
<path d="M504.142 199.288L496.371 204.363L489.305 202.38C488.027 200.531 487.657 197.002 487.657 193.91C487.623 190.852 487.926 188.264 487.926 188.264L498.389 183.66L502.292 181.945C502.292 182.013 501.989 185.138 501.956 185.609C501.249 193.742 504.142 199.288 504.142 199.288Z" fill="#FFB27D"/>
<path d="M475.78 291.143C485.436 300.452 521.973 298.873 524.228 288.622C526.482 278.371 521.772 201.271 505.286 196.431C501.854 195.423 483.552 201.338 483.552 201.338C483.552 201.338 480.692 208.833 478.808 218.378C478.438 220.227 477.362 239.922 476.588 258.373C476.218 266.977 475.915 275.346 475.747 281.429C475.579 287.21 475.579 290.941 475.78 291.143Z" fill="#FF4263"/>
<path d="M501.182 185.743C499.062 189.339 491.593 192.465 487.657 193.91C487.623 190.852 487.926 188.264 487.926 188.264L498.389 183.659C500.744 183.626 502.124 184.13 501.182 185.743Z" fill="#FCA56B"/>
<path d="M483.99 187.625C483.99 187.625 500.845 192.868 503.974 182.349C507.103 171.795 511.376 165.376 500.711 161.578C490.079 157.78 486.782 161.175 484.898 164.435C483.014 167.695 479.683 185.978 483.99 187.625Z" fill="#FFB27D"/>
<path d="M485.571 163.427C485.571 163.427 486.648 175.694 489.171 175.156C491.694 174.619 494.52 173.476 494.15 177.173C493.78 180.87 496.606 187.222 500.273 187.188C508.112 187.155 516.658 167.023 514.505 163.191C508.314 152.235 476.622 149.983 485.571 163.427Z" fill="#163560"/>
<path d="M488.061 196.734C488.262 196.633 500.61 191.121 502.056 191.591C503.503 192.062 505.286 196.465 505.286 196.465L483.552 201.372C483.586 201.372 485.268 197.876 488.061 196.734Z" fill="#FF4263"/>
<path d="M411.251 256.424L480.39 321.458C481.735 322.735 483.451 323.138 484.192 322.365L486.513 319.878C487.253 319.105 486.748 317.425 485.369 316.148L416.231 251.113C414.885 249.836 413.169 249.433 412.429 250.206L410.108 252.693C409.401 253.466 409.906 255.147 411.251 256.424Z" fill="#1F4D84"/>
<path d="M450.076 292.923L480.423 321.458C481.769 322.735 483.485 323.138 484.225 322.365L486.546 319.878C487.286 319.105 486.782 317.425 485.402 316.147L455.055 287.613L450.076 292.923Z" fill="#AEC3FF"/>
<path d="M414.784 178.954C394.261 157.175 359.978 156.133 338.177 176.635C337.874 176.904 337.605 177.173 337.336 177.442C316.342 198.011 315.602 231.654 335.856 253.164C356.378 274.943 390.661 275.984 412.463 255.483C419.595 248.761 424.507 240.594 427.165 231.855C432.615 213.908 428.578 193.608 414.784 178.954ZM409.502 252.391C396.818 264.322 379.525 268.322 363.746 264.591C354.562 262.406 345.881 257.634 338.917 250.24C320.009 230.175 320.985 198.616 341.07 179.761C348.472 172.803 357.421 168.569 366.707 166.955C382.688 164.199 399.678 169.241 411.622 181.912C430.563 201.943 429.587 233.502 409.502 252.391Z" fill="#1F4D84"/>
<g opacity="0.5">
<path opacity="0.5" d="M338.95 250.239C345.915 257.633 354.595 262.406 363.78 264.591C379.559 268.321 396.852 264.322 409.535 252.39C429.621 233.502 430.563 201.943 411.689 181.911C399.745 169.241 382.755 164.199 366.774 166.955C357.455 168.569 348.505 172.837 341.137 179.76C321.018 198.615 320.043 230.175 338.95 250.239Z" fill="#B3CFF9"/>
</g>
<path d="M475.747 281.463C513.865 254.34 510.669 218.143 510.669 218.143C496.74 225.974 482.913 243.35 476.588 258.373C476.218 267.011 475.915 275.38 475.747 281.463Z" fill="#C21432"/>
<path d="M438.133 269.128C435.441 268.523 433.658 266.473 433.255 266.137C433.255 266.137 432.111 266.204 433.456 268.658C433.557 268.859 433.827 269.397 433.995 269.767C434.062 269.935 433.961 270.103 433.793 270.103C432.245 270.237 430.698 269.599 427.703 270.237C427.3 270.338 427.165 271.313 427.199 271.716C427.232 272.422 427.165 273.229 428.006 274.304C428.477 274.943 429.823 275.615 432.817 276.825C433.961 277.295 437.225 276.926 440.253 275.884L442.708 274.741L441.968 270.204L441.363 270.338C440.353 270.54 439.142 269.363 438.133 269.128Z" fill="#FFB27D"/>
<path d="M498.86 201.372C498.86 201.372 533.11 207.892 488.8 257.399C481.702 265.33 443.415 275.649 443.415 275.649C443.415 275.649 439.546 272.355 441.497 269.666C441.497 269.666 467.874 250.542 473.661 247.517C476.285 246.139 483.788 217 488.027 209.976C492.266 202.951 498.86 201.372 498.86 201.372Z" fill="#FF4263"/>
<path d="M432.851 219.823C432.851 219.823 431.74 217.672 431.505 216.563C431.269 215.42 429.89 212.16 429.284 211.555C429.049 211.32 428.275 211.622 428.208 212.631C428.174 213.068 428.376 213.841 428.746 214.782C429.352 216.328 429.251 218.378 429.486 219.084C430.025 220.831 432.851 219.823 432.851 219.823Z" fill="#FFB27D"/>
</g>
<defs>
<clipPath id="clip0_3434_15917">
<rect width="687" height="432" fill="white"/>
</clipPath>
</defs>
</svg>
