<svg width="661" height="396" viewBox="0 0 661 396" fill="none" xmlns="http://www.w3.org/2000/svg">
<g clip-path="url(#clip0_3434_16402)">
<path d="M645.378 358.261C638.361 353.131 624.011 356.595 613.423 360.299C611.84 358.077 609.923 355.786 607.6 353.549C630.412 338.859 661.92 307.532 645.221 304.879C630.705 302.575 611.113 330.773 600.644 347.937C589.768 340.626 573.112 335.251 547.676 337.116C481.661 341.953 430.093 299.388 392.079 313.585C361.854 324.872 334.154 331.196 307.442 329.036C308.591 309.527 308.842 271.227 293.516 267.254C277.961 263.221 293.22 306.718 301.7 328.437C299.712 328.181 297.726 327.878 295.743 327.525C290.252 316.701 281.202 302.535 271.266 302.051C261.908 301.593 273.457 314.33 284.822 325.119C252.156 318.263 213.404 344.808 212.761 376.194H620.598C620.598 376.194 619.881 371.612 616.678 365.572C632.442 365.264 653.008 363.832 645.378 358.261Z" fill="#3AA6C3"/>
<path d="M194.235 351.936V376.199H301.725V351.936H194.235Z" fill="#566DEF"/>
<path d="M161.091 351.936V376.199H268.581V351.936H161.091Z" fill="#194FB9"/>
<path d="M344.012 376.193H424.05V264.362H344.012V376.193Z" fill="#566DEF"/>
<path d="M319.335 376.194H399.372V264.362H319.335V376.194Z" fill="#194FB9"/>
<path d="M399.372 264.363L424.05 281.154V264.363H399.372Z" fill="#334094"/>
<path d="M152.298 289.133C152.298 289.133 137.329 300.26 134.411 299.585C131.492 298.911 145.35 287.574 145.35 287.574C140.135 285.068 123.925 286.64 123.925 286.64C123.925 286.64 118.526 304.047 115.863 302.674C113.2 301.301 121.43 287.505 121.43 287.505C115.622 287.157 108.499 291.467 108.499 291.467C98.7468 299.164 109.14 311.286 109.14 311.286C109.14 311.286 107.138 317.278 100.98 322.733C100.98 322.733 92.1841 329.235 91.5732 340.855L93.1695 340.996C93.1695 340.996 95.7005 330.175 100.299 325.058C100.478 324.872 100.738 324.606 101.058 324.284C101.808 323.589 102.333 323.068 102.686 322.682C104.974 320.482 108.138 317.683 109.661 317.411C109.661 317.411 109.585 317.132 109.596 316.645C109.617 316.89 109.639 317.143 109.661 317.411C110.183 323.536 122.072 328.887 129.386 329.986C136.7 331.087 134.439 328.081 131.919 323.627C129.399 319.17 121.424 317.174 119.604 315.123C117.785 313.072 121.546 313.066 125.954 315.078C130.36 317.089 130.963 322.456 138.033 325.84C145.102 329.222 155.739 317.496 155.739 317.496C150.105 317.212 142.06 311.095 142.35 309.224C142.642 307.351 156.008 312.452 158.292 312.696C160.577 312.941 165.776 310.1 166.58 300.902C167.385 291.701 152.298 289.133 152.298 289.133Z" fill="#61CEF9"/>
<path d="M72.8018 296.043C72.8018 296.043 89.3347 286.786 81.6192 274.228C81.6192 274.228 75.4473 266.515 68.8343 264.532C68.8343 264.532 72.361 283.261 68.8343 283.703C65.307 284.144 66.4095 262.547 66.4095 262.547C66.4095 262.547 48.9951 254.174 42.1614 254.837C42.1614 254.837 52.9628 273.126 49.4358 272.685C45.9088 272.243 33.785 253.735 33.785 253.735C33.785 253.735 15.9296 250.428 13.0643 261.007C10.1987 271.583 14.8276 276.873 17.4728 277.532C20.118 278.195 37.0914 277.974 36.6506 280.177C36.2099 282.38 24.7472 285.906 18.3546 283.923C18.3546 283.923 25.4087 301.33 34.6669 300.449C43.9251 299.568 46.7909 293.84 52.5221 293.398C58.2532 292.956 62.4414 294.5 59.5758 296.043C56.7103 297.583 47.011 296.548 42.3821 300.481C37.7528 304.416 34.0054 306.84 42.6025 308.601C51.1995 310.365 66.6299 309.264 69.7158 302.652C72.8018 296.043 72.8018 296.043 72.8018 296.043Z" fill="#3AA6C3"/>
<path d="M77.2106 312.127C72.5814 303.533 72.8018 296.043 72.8018 296.043C67.5114 279.296 21.2202 264.311 21.2202 264.311C80.076 288.109 69.7158 302.652 69.7158 302.652C71.3019 303.578 73.6802 307.987 75.3307 311.371C75.5654 311.946 75.9381 312.744 76.4909 313.827C76.7148 314.314 76.8941 314.715 77.0179 314.995C80.0483 322.572 78.443 335.663 78.443 335.663L80.2796 336.155C84.3496 322.964 77.2106 312.127 77.2106 312.127Z" fill="#61CEF9"/>
<path d="M99.1041 283.28C99.1041 283.28 77.3109 271.081 87.4809 254.523C87.4809 254.523 95.617 244.357 104.334 241.744C104.334 241.744 99.6848 266.432 104.334 267.012C108.983 267.595 107.53 239.128 107.53 239.128C107.53 239.128 130.486 228.091 139.494 228.962C139.494 228.962 125.256 253.07 129.904 252.49C134.554 251.908 150.535 227.51 150.535 227.51C150.535 227.51 174.072 223.153 177.849 237.096C181.627 251.038 175.525 258.009 172.038 258.879C168.551 259.751 146.177 259.461 146.758 262.367C147.339 265.27 162.449 269.918 170.875 267.303C170.875 267.303 161.577 290.251 149.373 289.088C137.169 287.926 133.392 280.374 125.837 279.794C118.282 279.212 112.761 281.245 116.538 283.28C120.316 285.313 133.101 283.945 139.203 289.131C145.305 294.317 150.245 297.512 138.912 299.835C127.58 302.16 107.24 300.708 103.172 291.994C99.1041 283.28 99.1041 283.28 99.1041 283.28Z" fill="#3AA6C3"/>
<path d="M167.098 241.451C167.098 241.451 106.078 261.204 99.1042 283.279C99.1042 283.279 99.3946 293.153 93.2924 304.482C93.2924 304.482 83.8819 318.768 89.2468 336.155L91.6679 335.506C91.6679 335.506 89.5519 318.251 93.5465 308.261C93.7094 307.893 93.9458 307.367 94.241 306.72C94.97 305.294 95.4608 304.243 95.7707 303.485C97.9463 299.025 101.081 293.212 103.172 291.993C103.172 291.993 89.5151 272.823 167.098 241.451Z" fill="#61CEF9"/>
<path d="M98.3698 373.863C121.946 373.863 141.059 354.759 141.059 331.191H55.6807C55.6807 354.759 74.7933 373.863 98.3698 373.863Z" fill="#FF4263"/>
<path d="M108.874 373.538C107.138 373.754 105.368 373.863 103.57 373.863C79.9946 373.863 60.8833 354.756 60.8833 331.191H71.4886C71.4886 352.963 87.8003 370.925 108.874 373.538Z" fill="#C21432"/>
<path d="M136.382 370.928H60.3575C57.4491 370.928 55.0908 373.286 55.0908 376.194H141.648C141.648 373.286 139.29 370.928 136.382 370.928Z" fill="#FF4263"/>
<path d="M141.375 331.19H54.9316C54.5699 331.19 54.2769 331.483 54.2769 331.845C54.2769 332.207 54.5699 332.5 54.9316 332.5H141.375C141.736 332.5 142.029 332.207 142.029 331.845C142.029 331.483 141.736 331.19 141.375 331.19Z" fill="#E22F67"/>
<path d="M470.788 106.479C469.551 106.291 465.823 109.737 465.823 109.737C457.862 110.656 446.221 112.769 442.033 113.576C439.059 114.148 431.072 111.425 423.266 108.299C413.984 104.58 404.968 100.29 404.968 100.29C399.819 100.027 393.971 109.42 404.414 115.391C406.01 116.302 411.997 117.858 418.897 119.279C418.897 119.279 418.897 119.279 418.897 119.278C428.412 121.238 439.654 122.939 443.48 122.341C447.926 121.646 460.506 117.045 467.991 113.522V113.522C467.991 113.522 467.998 113.518 468.011 113.513C468.04 113.5 468.066 113.487 468.092 113.473C468.542 113.263 470.373 112.448 471.597 112.52C473.001 112.603 476.124 110.038 476.218 109.354C476.312 108.669 472.027 106.666 470.788 106.479Z" fill="#E89277"/>
<path d="M461.066 224.797L456.682 225.688C456.682 225.688 436.622 203.156 433.526 193.675C431.87 188.608 421.279 186.419 410.21 183.558C400.577 181.069 390.583 178.069 385.809 172.216C375.548 159.64 392.252 144.188 392.252 144.188C392.252 144.188 410.012 154.739 425.333 165.64C436.04 173.258 445.56 181.045 446.993 185.521C450.478 196.405 457.864 217.094 461.066 224.797Z" fill="#FF4263"/>
<path d="M455.198 232.23H457.663C458.489 232.1 459.097 231.861 459.945 231.75C461.234 231.582 461.826 232.109 461.941 232.23C461.961 232.246 461.964 232.255 461.964 232.255H472.439C472.702 231.879 472.448 231.008 472.201 230.366C472.037 229.93 471.674 229.6 471.224 229.47C470.112 229.148 467.923 228.862 465.914 227.047C464.789 226.028 460.469 223.3 460.469 223.3L460.447 223.295C460.35 223.297 459.9 223.435 457.933 225.094C456.918 225.949 455.185 223.885 455.185 223.885C455.185 223.885 454.861 224.154 454.619 224.655C454.423 225.05 454.282 225.593 454.394 226.262C454.549 227.206 454.047 228.959 453.642 230.145C453.401 230.864 453.196 231.373 453.196 231.373C453.196 231.373 453.077 231.965 455.198 232.23Z" fill="#2B265E"/>
<path d="M425.334 165.639L410.211 183.558C400.577 181.068 390.582 178.069 385.81 172.216C375.549 159.64 392.251 144.188 392.251 144.188C392.251 144.188 410.015 154.739 425.334 165.639Z" fill="#C21432"/>
<path d="M411.594 156.279C411.594 156.279 410.376 160.122 408.388 165.904C405.878 173.214 402.142 183.624 398.088 193.278C397.196 195.399 396.29 197.484 395.376 199.492C392.003 206.92 388.55 213.289 385.515 216.525C380.053 222.342 366.779 259.743 366.779 259.743L363.471 258.827C363.471 258.827 358.857 226.892 375.195 208.718C375.371 208.525 375.507 208.3 375.524 208.04C375.527 208.038 375.527 208.035 375.527 208.033C375.745 205.343 376.523 193.297 378.216 181.089C378.63 178.094 379.101 175.092 379.629 172.215C379.664 172.031 379.698 171.849 379.735 171.667C382.216 158.364 384.595 152.447 387.667 149.471L410.257 155.898L411.594 156.279Z" fill="#FF4263"/>
<path d="M363.098 264.338H365.566C366.391 264.208 367 263.969 367.847 263.857C369.135 263.689 369.726 264.216 369.843 264.338C369.859 264.354 369.867 264.362 369.867 264.362H380.341C380.604 263.987 380.351 263.114 380.104 262.473C379.936 262.037 379.574 261.707 379.124 261.577C378.012 261.255 375.824 260.97 373.817 259.155C372.688 258.136 368.368 255.406 368.368 255.406L368.347 255.401C368.251 255.404 367.799 255.542 365.834 257.2C364.82 258.056 363.088 255.992 363.088 255.992C363.088 255.992 362.763 256.26 362.521 256.761C362.326 257.157 362.183 257.7 362.294 258.37C362.451 259.312 361.948 261.066 361.544 262.252C361.302 262.971 361.094 263.479 361.094 263.479C361.094 263.479 360.977 264.072 363.098 264.338Z" fill="#2B265E"/>
<path d="M367.943 112.847C367.943 112.847 364.163 122.087 359.806 131.083C356.141 138.647 352.068 146.036 349.486 147.614C345.845 149.836 335.816 156.107 329.308 160.786C329.308 160.786 324.232 160.748 323.442 161.719C322.654 162.691 320.833 167.057 321.365 167.499C321.895 167.94 325.933 167.736 326.912 166.731C327.77 165.854 329.673 165.224 330.146 165.078C330.176 165.069 330.205 165.06 330.234 165.05C330.248 165.047 330.256 165.045 330.256 165.045V165.045C338.161 162.613 350.564 157.548 354.317 155.069C357.551 152.938 364.717 144.112 370.431 136.261C370.434 136.261 370.434 136.261 370.434 136.261C374.578 130.567 377.959 125.386 378.523 123.638C382.225 112.195 371.573 109.185 367.943 112.847Z" fill="#F7B794"/>
<path d="M387.707 76.6041C387.261 75.952 386.804 75.3733 386.353 74.8543C386.916 74.8679 387.519 74.8135 388.022 74.6043C389.351 74.0582 389.955 69.8466 389.754 68.5994C389.555 67.3495 387.712 63.7384 385.44 63.3798C383.168 63.0184 380.819 65.5426 380.819 65.5426C381.24 63.7194 385.084 62.6706 385.084 62.6706C377.166 64.1297 377.571 69.4091 377.622 69.8982C370.376 67.3169 366.119 80.9624 366.119 80.9624L384.896 92.0239C384.896 92.0239 384.945 89.0079 386.737 89.2035C389.531 89.5051 391.858 82.6498 387.707 76.6041Z" fill="#2B265E"/>
<path d="M388.904 105.239C384.594 107.268 378.878 104.343 378.908 104.313C379.278 103.943 379.147 102.839 378.81 101.393C378.47 99.8839 377.67 97.8242 376.193 95.3618C375.886 94.8387 375.576 94.3182 375.207 93.7622L375.7 93.5787L384.071 90.2261C384.071 90.2261 385.427 92.6556 386.841 94.8715C388.041 96.7176 389.304 98.3775 389.858 98.3172C389.891 98.2871 395.428 102.1 388.904 105.239Z" fill="#F7B794"/>
<path d="M384.074 91.0529C383.858 94.0373 382.846 99.4216 378.811 101.392C378.474 99.8834 377.673 97.8226 376.196 95.3614L384.074 91.0529Z" fill="#E89277"/>
<path d="M375.704 98.7589C375.704 98.7589 386.604 94.463 383.821 87.7212C381.044 80.9793 380.576 75.8833 373.501 78.3401C366.427 80.7941 366.142 83.922 366.523 86.3975C366.905 88.873 372.798 99.7014 375.704 98.7589Z" fill="#F7B794"/>
<path d="M379.766 86.1855C384.801 85.4745 386.269 83.4409 386.269 83.4409C386.269 83.4409 381.634 82.1129 378.91 77.5762C378.91 77.5762 373.255 75.6686 369.063 78.8559C368.808 79.1886 368.626 79.5776 368.534 80.039C367.573 79.7225 366.129 79.8056 365.295 82.518C364.044 86.596 368.497 91.0469 368.497 91.0469C369.578 90.7437 368.36 87.1084 368.188 85.1714C368.065 83.7414 368.835 81.9171 369.251 81.0505C369.782 81.74 375.094 88.4096 381.575 88.6752C381.575 88.6752 378.148 87.4894 375.032 85.166C376.581 85.9279 378.231 86.4028 379.766 86.1855Z" fill="#2B265E"/>
<path d="M409.655 119.13C409.564 118.804 409.464 118.467 409.361 118.118C410.978 115.028 411.775 112.24 412.11 109.881C412.85 104.896 411.59 101.82 411.59 101.82C411.59 101.82 404.029 97.8124 400.691 97.304C400.677 97.2983 400.663 97.2926 400.648 97.2897C400.611 97.2869 400.563 97.2811 400.517 97.2783C397.145 96.8127 389.85 98.3037 389.85 98.3037C389.85 98.3037 391.259 102.048 387.29 104.545C383.318 107.039 379.077 103.905 379.077 103.905C378.952 103.991 378.815 104.085 378.677 104.185L378.674 104.182C378.674 104.182 368.23 111.072 367.293 112.646C366.353 114.222 362.335 122.017 362.335 122.017C362.335 122.017 363.61 128.561 377.72 129.107C378.88 131.921 379.769 134.663 380.058 136.951C381.178 145.835 379.877 152.842 381.183 158.027C382.489 163.212 406.035 160.256 410.298 159.258C414.561 158.26 413.601 153.709 413.93 149.288C414.344 143.733 411.047 124.028 409.655 119.13Z" fill="#61CEF9"/>
<path d="M412.11 109.881C411.772 112.251 410.973 115.05 409.341 118.155C408.972 116.527 407.465 110.557 405.032 107.85C405.032 107.85 409.125 108.219 412.11 109.881Z" fill="#3AA6C3"/>
<path d="M316.247 168.101C316.247 168.101 320.634 162.787 321.579 162.159C322.523 161.531 326.665 160.43 326.902 160.652C327.139 160.874 327.149 161.194 326.636 161.648C326.125 162.101 324.163 163.244 324.443 163.373C324.725 163.502 330.634 160.56 331.488 161.549C332.34 162.538 331.004 166.623 328.725 168.581C326.449 170.538 319.649 171.373 319.223 171.647C315.595 173.965 316.247 168.101 316.247 168.101Z" fill="#E89277"/>
<path d="M239.023 155.833C239.023 155.833 245.326 163.305 253.349 160.179C253.349 160.179 255.076 156.006 255.1 152.93C255.103 152.549 255.108 152.182 255.113 151.834C255.156 148.369 255.273 146.425 255.273 146.425C255.273 146.425 255.27 146.425 255.265 146.425C254.9 146.273 242.997 141.388 243.008 141.792C243.213 151.163 239.023 155.833 239.023 155.833Z" fill="#F7B794"/>
<path d="M244.203 144.028C245.35 146.153 249.29 150.315 255.113 151.834C255.156 148.37 255.273 146.425 255.273 146.425C255.273 146.425 255.27 146.425 255.265 146.425C254.935 146.337 243.862 143.4 244.203 144.028Z" fill="#E89277"/>
<path d="M257.767 146.065C257.767 146.065 244.381 149.21 242.55 140.847C240.719 132.485 237.756 127.259 246.226 124.899C254.695 122.537 257.059 125.362 258.35 128.004C259.641 130.649 261.201 145.033 257.767 146.065Z" fill="#F7B794"/>
<path d="M243.008 143.128C242.824 143.245 239.944 144.128 234.49 133.268C233.633 131.562 233.05 127.874 235.046 124.615C237.043 121.356 244.12 118.793 250 117.679C255.88 116.564 257.29 119.871 258.674 123.194C260.128 126.682 264.325 129.556 264.325 129.556C259.257 132.387 253.149 128.337 251.033 129.002C248.917 129.67 248.171 133.001 248.012 134.071C247.852 135.138 247.61 136.027 244.948 135.071C242.289 134.119 243.745 138.842 244.171 139.744C244.171 139.744 244.533 142.149 243.008 143.128Z" fill="#2B265E"/>
<path d="M208.528 351.936H200.423C198.724 351.936 196.836 350.212 196.363 347.059C195.891 343.901 192.399 342.179 191.642 339.596C190.886 337.015 194.759 333.378 194.759 333.378L195.406 332.534L196.08 331.656L202.5 333.186C202.5 333.186 202.658 334.735 202.757 336.709C202.826 338.132 202.864 339.779 202.783 341.221C202.594 344.667 203.735 348.373 206.755 349.044C209.778 349.714 208.528 351.936 208.528 351.936Z" fill="#2B265E"/>
<path d="M264.948 352.013H243.466C243.261 351.973 243.104 351.928 243.011 351.877C241.576 351.138 242.026 345.486 242.196 343.741C242.231 343.416 242.255 343.228 242.255 343.228C242.255 343.228 249.808 337.01 250.847 341.772C250.881 341.918 250.918 342.065 250.958 342.209V342.211C252.271 346.668 258.132 348.69 261.52 349.254C264.107 349.688 264.778 351.239 264.948 352.013Z" fill="#2B265E"/>
<path d="M260.621 227.826C260.621 227.826 259.473 242.135 258.124 259.333C256.29 282.699 254.086 311.4 253.868 316.836C253.492 326.276 251.981 341.378 251.981 341.378C251.981 341.378 248.393 344.968 241.214 343.454C241.214 343.454 234.818 321.897 232.992 299.087C232.963 298.711 232.933 298.336 232.907 297.959C231.206 274.739 228.563 225.843 228.563 225.843L260.621 227.826Z" fill="#61CEF9"/>
<path d="M260.621 227.826C260.621 227.826 259.473 242.135 258.124 259.334L232.992 299.087C232.963 298.712 232.933 298.337 232.907 297.959C231.206 274.739 228.563 225.844 228.563 225.844L260.621 227.826Z" fill="#3AA6C3"/>
<path d="M255.379 229.525C255.379 229.525 234.701 281.345 221.102 305.698C207.505 330.052 203.256 336.847 203.256 336.847C203.256 336.847 195.466 333.734 194.758 331.608C194.758 331.608 199.958 284.594 209.064 273.134C214.209 266.658 220.253 247.224 220.538 240.426C220.82 233.631 222.377 220.18 222.377 220.18L255.379 229.525Z" fill="#61CEF9"/>
<path d="M208.032 220.895C208.032 220.895 207.497 227.367 207.104 228.361C206.712 229.354 204.098 232.435 203.795 232.391C203.492 232.347 203.311 232.104 203.464 231.477C203.618 230.85 204.519 228.912 204.234 228.962C203.948 229.013 200.956 234.469 199.764 234.162C198.572 233.855 197.407 229.975 198.116 227.235C198.825 224.494 203.638 220.191 203.822 219.75C205.381 216.006 208.032 220.895 208.032 220.895Z" fill="#E89277"/>
<path d="M205.814 222.537C208.103 223.271 208.469 223.105 208.469 223.105C208.469 223.105 219.609 202.83 220.737 200.974C221.866 199.118 244.392 178.238 244.392 178.238L238.603 156.66C238.603 156.66 212.983 189.823 210.217 194.582C205.645 202.446 202.966 220.709 202.966 220.709C202.966 220.709 204.016 221.96 205.814 222.537Z" fill="#334094"/>
<path d="M264.985 186.708C264.906 191.14 264.647 196.121 264.299 201.181C264.277 201.481 264.256 201.781 264.235 202.081C264.014 205.215 263.772 208.357 263.495 211.42C263.386 212.649 263.266 213.863 263.143 215.055L263.125 215.216C263.117 215.663 263.061 216.147 263.013 216.589C261.882 228.063 260.697 237.13 260.479 237.268C260.216 237.444 259.92 237.531 259.598 237.491C256.588 237.114 247.604 237.797 240.253 236.198C234.048 234.889 228.704 232.409 223.042 229.065C222.292 228.621 220.578 227.444 220.719 226.566C220.854 225.6 221.107 224.203 221.429 222.449C222.545 216.345 224.469 205.846 225.126 193.559C225.254 191.27 225.441 189.01 225.683 186.787C226.314 180.998 227.325 175.499 228.682 170.614C231.203 161.539 234.908 154.59 239.556 151.87C240.162 151.532 243.431 153.61 246.431 155.534C249.204 157.311 252.121 157.802 254.959 157.554L257.455 160.315C260.482 163.83 263.702 168.51 264.581 175.161C264.647 175.652 264.703 176.174 264.751 176.729C264.993 179.438 265.055 182.868 264.985 186.708Z" fill="#566DEF"/>
<path d="M264.986 186.709C264.906 191.141 264.648 196.122 264.299 201.181C264.278 201.482 264.256 201.782 264.235 202.082C247.04 191.323 244.392 171.635 244.392 171.635C252.851 172.006 259.572 173.95 264.751 176.73C264.994 179.439 265.055 182.869 264.986 186.709Z" fill="#334094"/>
<path d="M318.858 168.632C317.969 166.235 316.593 166.391 316.593 166.391C316.593 166.391 291.025 172.76 288.73 173.033C286.439 173.307 261.2 163.183 261.2 163.183C261.2 163.183 251.267 158.727 246.614 162.796C242.571 166.332 242.388 170.811 243.333 174.572C244.461 179.055 248.254 182.367 252.843 182.951C263.138 184.261 283.679 186.729 287.985 186.13C297.567 184.796 319.281 172.267 319.281 172.267C319.281 172.267 319.553 170.515 318.858 168.632Z" fill="#566DEF"/>
<path d="M570.956 215.475C570.956 215.475 574.507 218.765 573.816 221.103C573.121 223.442 569.916 225 569.482 227.859C569.052 230.716 567.317 232.275 565.759 232.275C564.2 232.275 558.323 232.275 558.323 232.275C558.323 232.275 557.175 230.264 559.947 229.658C562.722 229.052 563.762 225.694 563.59 222.576C563.417 219.458 563.851 215.302 563.851 215.302L569.743 213.916L570.956 215.475Z" fill="#2B265E"/>
<path d="M526.687 231.886C526.328 232.067 525.06 232.191 523.322 232.275H506.511C506.568 231.775 506.958 229.993 509.709 229.55C512.815 229.045 518.194 227.241 519.392 223.269C519.435 223.143 519.467 223.011 519.499 222.88C520.447 218.637 527.38 224.179 527.38 224.179C527.38 224.179 527.401 224.348 527.43 224.638C527.593 226.198 528.002 231.23 526.687 231.886Z" fill="#2B265E"/>
<path d="M510.529 118.389C510.529 118.389 511.581 131.517 512.817 147.297C514.5 168.733 516.524 195.064 516.723 200.052C517.068 208.714 518.453 222.569 518.453 222.569C518.453 222.569 521.746 225.861 528.332 224.473C528.332 224.473 534.2 204.695 535.875 183.768C535.901 183.425 535.93 183.08 535.955 182.734C537.511 161.43 539.937 116.571 539.937 116.571L510.529 118.389Z" fill="#61CEF9"/>
<path d="M510.529 118.39C510.529 118.39 511.581 131.517 512.817 147.297L535.875 183.768C535.901 183.425 535.93 183.08 535.955 182.734C537.511 161.431 539.937 116.571 539.937 116.571L510.529 118.39Z" fill="#3AA6C3"/>
<path d="M515.333 119.949C515.333 119.949 534.307 167.492 546.781 189.835C559.259 212.177 563.156 218.413 563.156 218.413C563.156 218.413 570.305 215.555 570.954 213.606C570.954 213.606 566.183 170.472 557.827 159.958C553.106 154.016 547.564 136.186 547.3 129.951C547.044 123.716 545.613 111.375 545.613 111.375L515.333 119.949Z" fill="#61CEF9"/>
<path d="M456.817 94.1593C456.817 94.1593 451.674 92.9838 450.805 93.0434C449.94 93.1029 446.91 94.3694 446.87 94.617C446.829 94.8616 446.973 95.0622 447.497 95.0967C448.02 95.1311 449.742 94.9086 449.632 95.1186C449.526 95.3286 444.561 96.3035 444.508 97.3004C444.452 98.3004 447.171 100.156 449.469 100.282C451.765 100.404 456.284 97.7361 456.673 97.7017C459.956 97.4164 456.817 94.1593 456.817 94.1593Z" fill="#F7B794"/>
<path d="M454.618 95.4673C453.875 93.1176 454.051 92.743 454.051 92.743C454.051 92.743 474.911 81.4675 476.822 80.3243C478.733 79.1811 500.289 56.2492 500.289 56.2492L522.37 62.324C522.37 62.324 488.199 88.3432 483.3 91.145C475.21 95.7754 456.469 98.396 456.469 98.396C456.469 98.396 455.195 97.313 454.618 95.4673Z" fill="#C21432"/>
<path d="M506.977 45.1022C506.977 45.1022 499.238 58.7161 491.67 60.4927C491.67 60.4927 491.985 55.9228 493.827 52.7906C493.074 51.904 492.41 51.0859 491.838 50.3533C489.93 47.9161 489.026 46.4201 489.026 46.4201L491.595 39.5191L493.338 34.8362C494.173 36.3561 495.098 37.6535 496.06 38.7591C501.019 44.4587 506.977 45.1022 506.977 45.1022Z" fill="#F7B794"/>
<path d="M496.061 38.7584C496.061 38.7584 496.985 45.5797 491.84 50.3535C489.933 47.9128 489.028 46.4201 489.028 46.4201L491.598 39.5182C494.349 38.6778 496.061 38.7584 496.061 38.7584Z" fill="#E89277"/>
<path d="M486.987 47.4244C486.987 47.4244 498.556 42.9167 495.635 35.7624C492.718 28.6047 492.246 23.2036 484.738 25.776C477.227 28.3518 476.916 31.666 477.311 34.289C477.702 36.9154 483.905 48.4122 486.987 47.4244Z" fill="#F7B794"/>
<path d="M546.738 114.968C542.073 121.673 507.187 130.633 507.6 125.991C507.759 124.215 507.973 121.083 507.593 116.836C507.508 115.841 507.386 114.788 507.224 113.673C506.337 107.575 504.232 99.732 499.538 90.6551C499.187 89.9747 498.818 89.2899 498.437 88.5951C496.506 85.0808 494.859 81.3653 493.603 77.7321C491.184 70.7504 490.212 64.0704 491.431 59.7029C491.435 59.6819 491.442 59.663 491.45 59.6416C498.74 56.2709 501.569 43.2006 501.569 43.2006C501.569 43.2006 526.443 47.6641 540.382 80.8126C540.382 80.8126 550.797 109.131 546.738 114.968Z" fill="#FF4263"/>
<path d="M507.597 116.835C507.51 115.841 507.387 114.788 507.227 113.672C506.34 107.574 504.234 99.7317 499.538 90.6545C500.344 85.7694 501.458 81.7071 502.68 79.8788C507.642 72.4463 510.53 71.284 510.53 71.284C510.53 71.284 517.971 102.652 507.597 116.835Z" fill="#C21432"/>
<path d="M468.381 109.372C468.381 109.372 461.499 109.733 460.434 110.118C459.365 110.501 456.014 113.174 456.053 113.497C456.088 113.819 456.339 114.019 457.009 113.877C457.678 113.734 459.764 112.84 459.7 113.141C459.639 113.442 453.754 116.44 454.044 117.713C454.334 118.987 458.409 120.345 461.341 119.681C464.267 119.017 468.986 114.052 469.463 113.871C473.483 112.338 468.381 109.372 468.381 109.372Z" fill="#F7B794"/>
<path d="M467.078 111.983C465.702 109.756 466.694 108.74 466.694 108.74C466.694 108.74 487.956 92.1009 489.622 90.4197C491.287 88.7392 499.008 61.9709 499.008 61.9709C499.008 61.9709 501.666 51.1382 507.887 49.9451C513.291 48.9069 517.027 51.5816 519.474 54.7174C522.386 58.4515 522.674 63.6039 520.255 67.6759C514.826 76.8204 503.877 94.9692 500.68 98.0702C493.565 104.971 469.75 114.615 469.75 114.615C469.75 114.615 468.163 113.731 467.078 111.983Z" fill="#FF4263"/>
<path d="M497.297 22.4661C497.378 22.3041 497.614 22.1352 498.185 21.9596C498.185 21.9596 497.648 21.7773 497.023 21.9157C496.699 21.1222 495.912 19.7749 494.429 19.7648C494.429 19.7648 495.277 19.9843 495.591 20.8352C493.564 19.5487 489.801 19.1773 480.414 22.3007C468.04 26.4202 474.222 33.6023 476.097 34.1764C477.975 34.7538 481.427 31.0597 484.528 30.5532C487.636 30.0501 489.315 34.3722 490.5 34.7301C491.683 35.0914 491.007 34.1054 492.25 33.1228C493.49 32.1369 494.199 34.4532 494.172 36.0808C494.145 37.7083 496.564 39.2515 496.564 39.2515C496.564 39.2515 496.564 39.2515 497.982 36.6548C499.398 34.0548 499.013 24.6171 497.658 22.922C497.54 22.77 497.422 22.6181 497.297 22.4661Z" fill="#2B265E"/>
<path d="M301.725 351.662V365.66L268.582 351.662H301.725Z" fill="#334094"/>
<path d="M475.766 232.275V376.194H585.379V232.275H475.766Z" fill="#566DEF"/>
<path d="M441.963 232.275V376.193H551.582V232.275H441.963Z" fill="#194FB9"/>
<path d="M585.379 232.275V253.796L551.582 232.275H585.379Z" fill="#334094"/>
</g>
<defs>
<clipPath id="clip0_3434_16402">
<rect width="660.195" height="395.908" fill="white" transform="translate(0 0.0917969)"/>
</clipPath>
</defs>
</svg>
