<svg xmlns="http://www.w3.org/2000/svg" viewBox="0 0 2877.29 1696.02"><defs><style>.cls-1{fill:#fcedfb;}.cls-2{fill:#fce3fb;}.cls-3{fill:#88407f;}.cls-4{fill:#f9cd35;}.cls-5{fill:#f79c33;}.cls-6{fill:#95c0f4;}.cls-7{fill:#fff;}.cls-8{fill:#dceaff;}.cls-9{fill:#fbebf9;}.cls-10{fill:#349b86;}.cls-11{fill:#78c6bb;}.cls-12{fill:#b9dfda;}.cls-13{fill:#b5453c;}.cls-14{fill:#ffb27d;}.cls-15{fill:#e0f0ee;}.cls-16{fill:#e8945b;}.cls-17{fill:#f2ccaa;}.cls-18{fill:#233862;}.cls-19{fill:#096c6d;}.cls-20{fill:#ed975d;}.cls-21{fill:#a51453;}</style></defs><g id="Layer_2" data-name="Layer 2"><g id="Layer_1-2" data-name="Layer 1"><path class="cls-1" d="M253.42,1692C-310.06,927.22,136.94,27.31,899.86.79c622.78-21.66,584.79,412.85,1153,229.13C2816.66,35.82,3064.82,1063.71,2609.1,1692Z"/><path class="cls-2" d="M7.81,838.48c241.48,89.35,829.1,338,1515.84,853.5H2609.1l1.36-1.89c-504.65-288.9-1424.77-733.49-2589-934.61Q13,796.39,7.81,838.48Z"/><path class="cls-2" d="M2099,1021.51S1566.75,520.24,545.9,83.09A904.48,904.48,0,0,0,263.36,286C869.83,441.51,1574.28,712.62,2099,1021.51Z"/><path class="cls-3" d="M33,1696H2874a3.27,3.27,0,0,0,3.26-3.26h0a3.26,3.26,0,0,0-3.26-3.25H33a3.26,3.26,0,0,0-3.25,3.25h0A3.26,3.26,0,0,0,33,1696Z"/><rect class="cls-4" x="667.38" y="1209.69" width="462.54" height="6.68"/><rect class="cls-5" x="662.64" y="1216.38" width="472.02" height="6.68"/><rect class="cls-6" x="656.13" y="1223.06" width="485.03" height="6.69"/><rect class="cls-4" x="678.17" y="954.14" width="432.57" height="255.56"/><polygon class="cls-7" points="1140.11 959.01 652.51 959.01 900.75 833.19 1140.11 959.01"/><polygon class="cls-4" points="726.52 942.22 1066.1 941.5 900.58 855.43 726.52 942.22"/><rect class="cls-5" x="665.24" y="959.01" width="464.52" height="8.39"/><rect class="cls-7" x="699.73" y="959.01" width="45.76" height="16.2"/><rect class="cls-7" x="710" y="975.21" width="25.22" height="234.49"/><rect class="cls-7" x="798.6" y="959.01" width="45.76" height="16.2"/><rect class="cls-7" x="808.87" y="975.21" width="25.22" height="234.49"/><rect class="cls-7" x="954.02" y="959.01" width="45.76" height="16.2"/><rect class="cls-7" x="964.29" y="975.21" width="25.22" height="234.49"/><rect class="cls-7" x="1047.12" y="959.01" width="45.76" height="16.2"/><rect class="cls-7" x="1057.38" y="975.21" width="25.22" height="234.49"/><path class="cls-7" d="M905.85,913.91a6.11,6.11,0,0,0-.32-2.22,4.7,4.7,0,0,0-1.13-1.75,8.72,8.72,0,0,0-2.06-1.47,23.55,23.55,0,0,0-3.09-1.33q-3.13-1.15-5.7-2.4a19.44,19.44,0,0,1-4.37-2.86,11.45,11.45,0,0,1-2.8-3.75,11.87,11.87,0,0,1-.94-5.07,11.75,11.75,0,0,1,1-4.63,10.67,10.67,0,0,1,2.63-3.61,13.24,13.24,0,0,1,4.05-2.47,17.65,17.65,0,0,1,5.25-1.17l.09-6.4,5.16.08-.1,6.49a15.87,15.87,0,0,1,5,1.54,12.51,12.51,0,0,1,3.79,2.92,12.67,12.67,0,0,1,2.37,4.21,16.26,16.26,0,0,1,.77,5.42l-9.31-.14a7.84,7.84,0,0,0-1.51-5.39,5.44,5.44,0,0,0-4.24-1.84,6.86,6.86,0,0,0-2.51.36,4.64,4.64,0,0,0-1.73,1.08,4.56,4.56,0,0,0-1,1.65,6.54,6.54,0,0,0-.35,2.06,6.07,6.07,0,0,0,.29,2,4.45,4.45,0,0,0,1.09,1.68,9,9,0,0,0,2.07,1.46,31.5,31.5,0,0,0,3.22,1.44c2.07.81,4,1.63,5.65,2.48a19,19,0,0,1,4.35,2.89,11.35,11.35,0,0,1,2.8,3.76,12.86,12.86,0,0,1,0,9.76,10.68,10.68,0,0,1-2.65,3.58,13,13,0,0,1-4.08,2.4,19.76,19.76,0,0,1-5.28,1.12l-.09,6-5.12-.07.09-5.93a21.4,21.4,0,0,1-5.15-1.24,13.83,13.83,0,0,1-4.4-2.65,12.18,12.18,0,0,1-3-4.31,14.83,14.83,0,0,1-1.07-6.18l9.3.13a9.1,9.1,0,0,0,.55,3.56,5.93,5.93,0,0,0,1.56,2.3,6,6,0,0,0,2.25,1.23,10.33,10.33,0,0,0,2.59.38,8.58,8.58,0,0,0,2.66-.35,5.5,5.5,0,0,0,1.93-1,4.32,4.32,0,0,0,1.19-1.62A5.42,5.42,0,0,0,905.85,913.91Z"/><path class="cls-3" d="M771.13,1015h2.64a13.1,13.1,0,0,1,13.1,13.1v33.18a0,0,0,0,1,0,0H757.23a0,0,0,0,1,0,0v-32.38A13.9,13.9,0,0,1,771.13,1015Z"/><path class="cls-3" d="M771.13,1114.4h2.64a13.1,13.1,0,0,1,13.1,13.1v33.18a0,0,0,0,1,0,0H757.23a0,0,0,0,1,0,0V1128.3A13.9,13.9,0,0,1,771.13,1114.4Z"/><path class="cls-3" d="M1023,1015h2.64a13.1,13.1,0,0,1,13.1,13.1v33.18a0,0,0,0,1,0,0h-29.64a0,0,0,0,1,0,0v-32.38A13.9,13.9,0,0,1,1023,1015Z"/><path class="cls-3" d="M1022.81,1114.4h2.64a13.1,13.1,0,0,1,13.1,13.1v33.18a0,0,0,0,1,0,0h-29.64a0,0,0,0,1,0,0V1128.3A13.9,13.9,0,0,1,1022.81,1114.4Z"/><path class="cls-8" d="M710,985.79a13.91,13.91,0,0,1,12.61-6.61c9.67.35,12.61,6.61,12.61,6.61V975.21H710Z"/><path class="cls-8" d="M808.87,985.79a13.91,13.91,0,0,1,12.61-6.61c9.67.35,12.61,6.61,12.61,6.61V975.21H808.87Z"/><path class="cls-8" d="M964.29,985.79a13.91,13.91,0,0,1,12.61-6.61c9.67.35,12.61,6.61,12.61,6.61V975.21H964.29Z"/><path class="cls-8" d="M1057.38,985.79a13.93,13.93,0,0,1,12.61-6.61c9.68.35,12.62,6.61,12.62,6.61V975.21h-25.23Z"/><rect class="cls-8" x="699.73" y="958.99" width="45.76" height="2.82"/><rect class="cls-8" x="798.6" y="958.99" width="45.76" height="2.82"/><rect class="cls-8" x="954.02" y="958.99" width="45.76" height="2.82"/><rect class="cls-8" x="1047.12" y="958.99" width="45.76" height="2.82"/><polygon class="cls-5" points="895.34 858.04 1053.46 941.53 1066.1 941.55 900.58 855.43 895.34 858.04"/><path class="cls-7" d="M787.92,1062.38H756.17V1029a15,15,0,0,1,15-15h2.63a14.17,14.17,0,0,1,14.16,14.15Zm-29.64-2.11H785.8v-32.13a12.05,12.05,0,0,0-12-12h-2.63A12.86,12.86,0,0,0,758.28,1029Z"/><rect class="cls-7" x="757.46" y="1028.59" width="28.92" height="2"/><rect class="cls-7" x="770.95" y="1029.59" width="1.94" height="31.57"/><path class="cls-7" d="M1039.32,1062.38h-31.75V1029a15,15,0,0,1,15-15h2.64a14.17,14.17,0,0,1,14.15,14.15Zm-29.63-2.11h27.52v-32.13a12.05,12.05,0,0,0-12-12h-2.64a12.85,12.85,0,0,0-12.84,12.84Z"/><rect class="cls-7" x="1008.86" y="1028.59" width="28.92" height="2"/><rect class="cls-7" x="1022.35" y="1029.59" width="1.94" height="31.57"/><path class="cls-7" d="M1039.6,1161.73h-31.75V1128.3a15,15,0,0,1,15-15h2.64a14.17,14.17,0,0,1,14.15,14.15Zm-29.63-2.11h27.52v-32.13a12.05,12.05,0,0,0-12-12h-2.64A12.85,12.85,0,0,0,1010,1128.3Z"/><rect class="cls-7" x="1009.14" y="1127.94" width="28.92" height="2"/><rect class="cls-7" x="1022.63" y="1128.94" width="1.94" height="31.57"/><path class="cls-7" d="M787.79,1161.73H756V1128.3a15,15,0,0,1,15-15h2.64a14.17,14.17,0,0,1,14.15,14.15Zm-29.63-2.11h27.52v-32.13a12.05,12.05,0,0,0-12-12H771a12.85,12.85,0,0,0-12.84,12.84Z"/><rect class="cls-7" x="757.33" y="1127.94" width="28.92" height="2"/><rect class="cls-7" x="770.82" y="1128.94" width="1.94" height="31.57"/><path class="cls-9" d="M764.62,1002.84s6.33-2.12,16.13,0l-3.41,8.49a39.49,39.49,0,0,0-9.29,0Z"/><path class="cls-9" d="M766.8,1011.53l-3.68-7.19s-4,.82-5.48,2.39l6.12,5.56Z"/><path class="cls-9" d="M778.55,1011.57l3.36-7.12s3.5.35,5.48,2.4l-6.08,5.44Z"/><path class="cls-9" d="M764.62,1097.28s6.33-3.21,16.13,0l-3.41,12.84a26.32,26.32,0,0,0-9.29,0Z"/><path class="cls-9" d="M766.8,1110.43l-3.68-10.89s-4,1.25-5.48,3.62l6.12,8.42Z"/><path class="cls-9" d="M778.55,1110.49l3.36-10.77a8.62,8.62,0,0,1,5.48,3.62l-6.08,8.24Z"/><path class="cls-9" d="M1016,998s6.33-3.21,16.14,0l-3.41,12.84a26.32,26.32,0,0,0-9.29,0Z"/><path class="cls-9" d="M1018.16,1011.15l-3.69-10.89s-4,1.24-5.48,3.62l6.13,8.41Z"/><path class="cls-9" d="M1029.9,1011.2l3.36-10.77a8.63,8.63,0,0,1,5.49,3.62l-6.08,8.24Z"/><path class="cls-9" d="M1015.83,1097.28s6.33-3.21,16.14,0l-3.41,12.84a26.32,26.32,0,0,0-9.29,0Z"/><path class="cls-9" d="M1018,1110.43l-3.69-10.89s-4,1.25-5.48,3.62l6.13,8.42Z"/><path class="cls-9" d="M1029.76,1110.49l3.36-10.77a8.6,8.6,0,0,1,5.48,3.62l-6.07,8.24Z"/><polygon class="cls-3" points="1717.88 1673.51 1605.88 1673.51 1605.88 552.37 1661.88 409.74 1717.88 552.37 1717.88 1673.51"/><rect class="cls-3" x="887.62" y="401.51" width="1548.51" height="34.73"/><path class="cls-3" d="M454.09,1223h887a0,0,0,0,1,0,0v0a96.39,96.39,0,0,1-96.39,96.39H550.48A96.39,96.39,0,0,1,454.09,1223v0a0,0,0,0,1,0,0Z"/><polygon class="cls-3" points="471.8 1235.61 463.34 1230.13 897.66 548.13 1331.84 1230.2 1323.3 1235.55 897.52 566.88 471.8 1235.61"/><rect class="cls-3" x="887.62" y="401.51" width="19.93" height="176.66"/><path class="cls-10" d="M2322.7,896.52c-45.66-10.31-72.31-12.07-78.63-3.06-6.21,8.85,24.67,43.62,24.67,43.62C2307.5,925.57,2322.7,896.52,2322.7,896.52Z"/><path class="cls-10" d="M2276.18,1158.81c0,28.26-4.21,71.44,21.79,71.44,37.55,0,61.51-52,61.51-52C2306.36,1160.33,2276.18,1158.81,2276.18,1158.81Z"/><path class="cls-10" d="M2413.91,1190.25c16.26,33.87,25,54.69,50,53s34.68-64.81,34.68-64.81C2442.61,1180.82,2413.91,1190.25,2413.91,1190.25Z"/><path class="cls-11" d="M2424.07,861.66c-87.13,5.07-159.42,52.07-187.88,114.74h0c-22.25,42.32-37.82,45.73-37.82,45.73l.65,83.32s66.27,66.29,151.62,83.71a252.52,252.52,0,0,0,93.17,11.72c116.26-6.76,206.09-88.18,200.64-181.85S2540.34,854.9,2424.07,861.66Z"/><ellipse class="cls-12" cx="2202.28" cy="1063.76" rx="25.61" ry="42.47" transform="translate(-58.06 129.7) rotate(-3.33)"/><path class="cls-10" d="M2408,909.67c-20.34-62.79-61.48-74.88-71.1-74.32s-6.64,83.07-6.64,83.07h0c-.06-1.84,7.61-3.37,7.65-10.29.17-28,16.65-28.54,16.65-28.54C2386.69,903.67,2415.29,935.8,2408,909.67Z"/><circle class="cls-10" cx="2303.51" cy="1015.26" r="12.28"/><path class="cls-10" d="M2544.12,908.09c-45.11-21.72-76.43-27.5-131.67-24.41a6,6,0,0,1-6.34-5.62h0a6,6,0,0,1,5.68-6.4c29.57-1.66,51.17-.77,71.38,2.89,20.87,3.78,41.48,10.83,66.15,22.68a6,6,0,0,1,2.8,8.12h0A6,6,0,0,1,2544.12,908.09Z"/><path class="cls-11" d="M2345.5,1181.26c10,36.23,14.86,58.27,39.77,61s45.69-57.58,45.69-57.58C2375.44,1177.1,2345.5,1181.26,2345.5,1181.26Z"/><path class="cls-11" d="M2486.68,1186.35c22.32,30.23,34.83,49,59.06,42.66s21.93-70.16,21.93-70.16C2513.11,1171.7,2486.68,1186.35,2486.68,1186.35Z"/><path class="cls-11" d="M2620.17,961.29c25.39-6.3,22.86-35.93,22.86-35.93,12.67,24.21-13.05,45.42-13.05,45.42Z"/><path class="cls-10" d="M2188.68,1066.06c.18,3-.89,5.48-2.39,5.57s-2.85-2.27-3-5.26.9-5.48,2.39-5.57S2188.51,1063.07,2188.68,1066.06Z"/><path class="cls-10" d="M2206.73,1065c.17,3-.9,5.48-2.4,5.57s-2.84-2.27-3-5.26.9-5.48,2.39-5.57S2206.55,1062,2206.73,1065Z"/><path class="cls-3" d="M1982.61,1223h887a0,0,0,0,1,0,0v0a96.39,96.39,0,0,1-96.39,96.39H2079a96.39,96.39,0,0,1-96.39-96.39v0a0,0,0,0,1,0,0Z"/><polygon class="cls-3" points="2000.32 1235.61 1991.86 1230.13 2426.18 548.13 2860.36 1230.2 2851.82 1235.55 2426.04 566.88 2000.32 1235.61"/><rect class="cls-3" x="2416.14" y="401.51" width="19.93" height="176.66"/><path class="cls-3" d="M1690.3,482.13h-56.84V384a28.41,28.41,0,0,1,28.42-28.42h0A28.41,28.41,0,0,1,1690.3,384Z"/><path class="cls-3" d="M1157.54,1617.51H2166.22a72,72,0,0,1,72,72v0a0,0,0,0,1,0,0H1085.54a0,0,0,0,1,0,0v0A72,72,0,0,1,1157.54,1617.51Z"/><path class="cls-13" d="M288.69,1056.37c-3-5.8,65.6-26.68,66.69,30.55,0,0,128.51-3.16,67.15-74.79-21.24-24.8-19.06-45.3-18.42-64.39s-13.23-74.56-60.8-69c0,0-12.46-5.07-28,3C280,900.1,200.75,1077.48,288.69,1056.37Z"/><path class="cls-14" d="M512.58,1113.57s8.36-12.74,15.11-13,19.22-3.74,18.23-1.24-8.74,2.74-9.49,4.24,11.48,3.75,15,4,11.74,0,11.49,1.74-14.86,9-25.16,8-23,3-23,3Z"/><path class="cls-15" d="M391.6,1117.69A126.09,126.09,0,0,0,404.39,1137c9.94,12.45,25.27,26.83,44.52,29.67,9.19,1.36,18.18-.62,26.44-4.29h0c23.37-10.37,41-34.23,41-34.23a19.21,19.21,0,0,0-2.63-18.86s-47.19,10.62-51.69,8.37-30.71-77.78-36.95-87.27S397.54,1016,397.54,1016Z"/><path class="cls-11" d="M404.39,1137c9.94,12.45,25.27,26.83,44.52,29.67,9.19,1.36,18.18-.62,26.44-4.29-.91.12-24.26,3-33.56-13.64-9.49-17-19.76-44-33.85-35C401.85,1117.7,402.12,1127.34,404.39,1137Z"/><path class="cls-3" d="M215.52,1627.12s-14.4,13.15-11.59,22.49,15.81,15.56,17.57,27,8.78,17.64,15.1,17.64h30.14s4.65-8-6.59-10.45-15.47-15.83-14.77-28.29-1-29-1-29l-23.89-5.53Z"/><path class="cls-3" d="M337.41,1632.7s-5.18,55.68,1.14,58.79l80.91-.16s0-9.34-13-11.42-35.83-9.68-39.69-26.63S337.41,1632.7,337.41,1632.7Z"/><path class="cls-14" d="M279.75,1233.28c16.65-37.34,26.84-48,24.9-59.64-1.45-8.63,4.4-160.83,4.4-160.83,2-.61,5.94-1.16,8.11-1.64A20.32,20.32,0,0,0,332,998.27c2.83-7.94,5.09-19.66,5-34.34l2.13.42,35.86,7.1s-.82,11.28-.84,21.91v.27a20.61,20.61,0,0,0,14.88,19.94c4.53,1.31,8.47,2.43,8.47,2.43s13.17,37.59,15.69,76.22-24,55.4.2,132.58C438.07,1303.62,270.56,1253.91,279.75,1233.28Z"/><path class="cls-16" d="M375,971.45s-.82,11.28-.84,21.91c-20.41-1.18-34.86-12.66-37.4-24.06Z"/><path class="cls-14" d="M392.18,971.08s-40.39,25-55.56-.42-30.59-39.27-5.44-56.29,36-10.34,43.11-3.1S402.29,963.93,392.18,971.08Z"/><path class="cls-13" d="M349.39,902.68s6.59,36.47-7.93,51.08-24.68,14.46-24.68,14.46-11.25-24.28-19.38-44.13C297.4,924.09,332.51,893.52,349.39,902.68Z"/><path class="cls-13" d="M348.06,906.75s10.13-1.83,17.13,2.18a47.76,47.76,0,0,1,19.41,20s-3.65-25.28-19.94-31.11C347.4,891.68,348.06,906.75,348.06,906.75Z"/><path class="cls-15" d="M275.17,1080.14a323.63,323.63,0,0,0,0,37.39c.8,13.52,14.48,31.64,16.42,36.12,4.87,11.23,10.36,13.06,10.36,13.06l42.48,10.41,14.94,3.66,47.11-14.07s21.45-59.88,12.84-93.59S397.54,1016,397.54,1016s-38.44,37.63-88.49-3.19Z"/><path class="cls-17" d="M287.61,1123.05c.8,13.52,2,26.12,4,30.6,4.87,11.23,10.36,13.06,10.36,13.06l42.48,10.41,18.45-5.42s-61.59-9.33-54.76-62.33Z"/><path class="cls-5" d="M403.48,1175.8s23.33,72.61,24.82,97.33-44.59,351.18-46.44,362.57c-1.75,10.74-15.08,17.58-15.08,17.58s-6.13,3.62-14.88,1.15c-12.15-3.43-16-7.53-16-7.53s-18.15-232.83-6.92-316a1316.67,1316.67,0,0,0,11.37-155.1Z"/><path class="cls-4" d="M304.65,1173.64s-35.59,47.74-38.9,80-5.21,145.64-12.27,177.1-33,92-33,190.15c0,0,2.7,5.62,11,8.62a89.59,89.59,0,0,0,9.71,2.68,15.25,15.25,0,0,0,17.06-8.1c17.55-35.34,73.47-149.34,76.34-173,2-16.75,19.68-127.58,58.2-192.62,9.24-15.61-5.68-77.7-5.68-77.7Z"/><path class="cls-7" d="M375.22,960.75s2.49,2.57,9.67-2.33c0,0,6-4.11,3.87-7.29C388.76,951.13,381.3,952.4,375.22,960.75Z"/><path class="cls-18" d="M407.21,1164.59s-9.37,7.41-28,7.78c-22.22.45-77.29-5.66-77.29-5.66a45.59,45.59,0,0,0-2.34,14s67.25,17,106.21,2.48C405.82,1183.24,410.85,1173.78,407.21,1164.59Z"/><path class="cls-7" d="M374.43,1180.05c0-6.33,4.55-11.48,10.14-11.48s10.14,5.15,10.14,11.48-4.55,11.47-10.14,11.47S374.43,1186.38,374.43,1180.05Zm3.36,0c0,4.47,3,8.11,6.78,8.11s6.78-3.64,6.78-8.11-3-8.12-6.78-8.12S377.79,1175.57,377.79,1180.05Z"/><rect class="cls-10" x="259.39" y="1098.04" width="91.36" height="125.06" transform="translate(-227 2236.16) rotate(-138.95)"/><path class="cls-14" d="M317.49,1178s25.25,3,25.17,8.94-6.29,18.3-9.41,18.85-20.54-16.65-20.54-16.65Z"/><path class="cls-15" d="M309.05,1012.81s-33.7,2.36-46.62,33.76-37.43,84.14-37.43,93,13.69,36.22,87.23,51.94c0,0,7.6-8,7.14-14.32,0,0-45.9-39.43-45.78-44,.24-8.72,7.53-20.23,47.83-60.54C332.38,1061.66,309.05,1012.81,309.05,1012.81Z"/><path class="cls-14" d="M1971.79,573.08a7.21,7.21,0,0,1,1.28,7.7l0,0c-1.85,5.13-8,10.86-15.11,16.58-.91.73-1.72,1.4-2.43,2-.18.16-.37.32-.54.49l-.42.37c-6.64,6.13-4.14,7.53-16.08,20-13.6,14.15-23,14.41-25.64,13.12-2.25-1.1,2.33-8.61,7.4-17.05l.74-1.23c.68-1.12,1.35-2.26,2-3.39,6-10.16,4.42-14.92,3-30-1.14-12.28-19.11-68.63-19.11-68.63l26.08-4.49s7.85,44.87,16.51,51.78c4.62,3.68,9.8,3.73,14.25,6.46.31.19.62.38.92.58A34.49,34.49,0,0,1,1971.79,573.08Z"/><path class="cls-18" d="M1971.79,573.08a7.21,7.21,0,0,1,1.28,7.7l0,0c-2.27,5.12-8.25,10.82-15.14,16.52-.9.75-1.69,1.44-2.4,2.08-.18.16-.37.32-.54.49l-.42.37c-6.64,6.13-4.14,7.53-16.08,20-13.6,14.15-23,14.41-25.64,13.12-2.25-1.1,2.33-8.61,7.4-17.05a58,58,0,0,0,24.26-17.87c8.19-10.46,13.66-23.89,19.24-31.67.31.19.62.38.92.58A34.49,34.49,0,0,1,1971.79,573.08Z"/><path class="cls-14" d="M1761.52,556.8c-1.61,8.05-13.08,6.7-25.9,3.57s-9.77.59-28-1.43-23.77-8.82-24.33-11.53c-.49-2.41,8.52-3.26,18.19-4.37l3.66-.44c10.92-1.37,18.91-8.41,28.83-14.2,9.39-5.48,23.41-27.8,23.41-27.8l25,2s-13.13,19.94-18.21,28.61c-3,5.1-2.83,11.84-2.46,17A31.9,31.9,0,0,1,1761.52,556.8Z"/><path class="cls-18" d="M1735.62,560.37c-12.82-3.13-9.77.59-28-1.43s-23.77-8.82-24.33-11.53c-.49-2.41,8.52-3.26,18.19-4.37l.09.18a51.46,51.46,0,0,0,26.13,8.13c12.38.3,25.49-3.25,34-3.11a31.9,31.9,0,0,1-.19,8.56C1759.91,564.85,1748.44,563.5,1735.62,560.37Z"/><path class="cls-19" d="M1857.4,396.82l23.39,62.93,30.54,82.18a49.5,49.5,0,0,0,16.22-1.48c7.31-2.11,15.69-7.64,15.69-7.64s-8.48-88.23-24.3-138.89c-4-13-8.59-23.51-13.61-29.43C1880.81,335.51,1857.4,396.82,1857.4,396.82Z"/><path class="cls-10" d="M1881.18,296.86c15.33-4.94,59,1.41,102.93,10l9.19-15.16,93.68,1.46s24.66,59.43,6.78,95.74c-6.58,13.37-24.59,17.42-24.6,17.42s-50.14-.85-68.42-2.1c-51.09-3.46-90.45-28-97.26-29.33-11.15-2.23-15.61,20.07-26.76,43.47S1771.94,522,1771.94,522s-14.39.14-20.33-2.09c-6.4-2.39-8.73-5.51-8.73-5.51S1846.63,308,1881.18,296.86Z"/><path class="cls-3" d="M1993.86,161.11c33.77,18.59,102.27,57.14,102.62,56.89,0,0,25.18,9.49,39.47,0,23.8-15.81,36.57-58.36-7-95-21.71-18.27-37.14-22.71-39.48-51.87-1.27-15.83-22.9-68-58.83-63.21a55,55,0,0,1-9.06.59,33.69,33.69,0,0,0-18.23,4.71C1983,25.35,1943.24,153.91,1993.86,161.11Z"/><path class="cls-14" d="M2022.16,145.29c-.15.09,16.62,5.81,27.82.85,10.55-4.66,18.54-22,18.38-22-4.8-.22-10.06-4.41-14.12-31.93l-2,.73-34.34,12.36s2.49,11,4.09,21.51C2023.31,135.6,2024,144,2022.16,145.29Z"/><path class="cls-20" d="M2017.86,105.28s2.49,11,4.09,21.51c19.73-3.55,27.47-23.2,30.25-33.87Z"/><path class="cls-14" d="M2012.74,116.22s47-6.31,42.61-35.51-1.26-49.68-31.44-46.89-34.34,14.81-35.24,24.91S2000.41,117.11,2012.74,116.22Z"/><path class="cls-3" d="M1990.38,42.72s30.08,25.93,50.54,28,28.2-4.47,28.2-4.47a80,80,0,0,1-19.32-26.17A14.33,14.33,0,0,0,2038,31.61C2023.34,30.34,1995.64,29.77,1990.38,42.72Z"/><path class="cls-3" d="M2009.18,40.4s-10.06,9.73-13.23,17c-3.06,7-4,23.62-1.54,30.23,0,0-15.68-30.48-6.8-45.29C1997,26.58,2009.18,40.4,2009.18,40.4Z"/><path class="cls-4" d="M1982.6,214.5c1.42,95.12.39,75.24,10.79,84.27,2.51,2.17,9.56,3.46,18.83,4.08,29.17,1.93,80.43-2.87,82.38-8.26,6.73-18.65,2-24.45,7.59-53,.59-3,1.31-6.32,2.16-9.9,4.68-19.61,9.24-26.28-7.36-57.79-15.06-28.54-30.7-51.7-32.11-50.86-39.72,23.58-42.92,3.76-42.92,3.76S1981.9,168.11,1982.6,214.5Z"/><path class="cls-10" d="M1880.79,459.75l30.54,82.18a49.5,49.5,0,0,0,16.22-1.48c7.31-2.11,15.69-7.64,15.69-7.64s-8.48-88.23-24.3-138.89Z"/><path class="cls-4" d="M2022,126.79s-40.87,6.93-45.67,24.53-33,121.05-33,121.05,20.78,3.74,30.38-5.86,33.4-89.06,33.4-89.06Z"/><path class="cls-5" d="M2012.22,302.85c29.17,1.93,80.43-2.87,82.38-8.26,6.73-18.65,2-24.45,7.59-53L2088.13,202s2.32,44.11-10.68,55.71-53.26,22.4-59.59,32.09C2014.81,294.43,2012.81,299.1,2012.22,302.85Z"/><path class="cls-14" d="M2045.64,284.29s-28.78-6.4-33.42-3.85-16,11.85-17.41,15.09,10.34-2.46,14.16-3.48c2.48-.67,9,1.6,12.22,2.67,13.58,4.53,21.9,2.2,21.9,2.2Z"/><path class="cls-4" d="M2064.91,123s38.63,2.38,52,21c18.82,26.26,56.17,138.17,34.77,153.09-24.11,16.81-109.71,4.4-109.71,4.4s-2.85-13.32,1.11-19.76,68.38-16.84,71.35-19.81-37.16-58-37.16-66.89S2064.91,123,2064.91,123Z"/><path class="cls-14" d="M2010.83,288.45s-6,7.78-8,8.7a5.89,5.89,0,0,1-3.25.7l4.06-7.31Z"/><path class="cls-14" d="M2012.22,280.44,1994.69,289a3.14,3.14,0,0,0,2.91,1.12c2.16-.09,7.6-2.08,7.6-2.08Z"/><polygon class="cls-21" points="2002.82 309.07 1864.17 309.07 1822.46 205.35 1960.9 205.35 2002.82 309.07"/><polygon class="cls-21" points="1862.54 305.03 2045.64 305.03 2045.64 309.07 1864.17 309.07 1862.54 305.03"/><path class="cls-7" d="M1899.17,257.21c-1.05-3.65,1.06-6.6,4.71-6.6a9.44,9.44,0,0,1,8.49,6.6c1.05,3.64-1.06,6.6-4.7,6.6A9.47,9.47,0,0,1,1899.17,257.21Z"/></g></g></svg>