<svg xmlns="http://www.w3.org/2000/svg" viewBox="0 0 2844.05 1741.04"><defs><style>.cls-1{fill:#fbebf9;}.cls-2{fill:#fcfafc;}.cls-3{fill:#e0f1ef;}.cls-4{fill:#c9e6e2;}.cls-5{fill:#f9ddbf;}.cls-6{fill:#fff3e9;}.cls-7{fill:#88407f;}.cls-8{fill:#ac5b9e;}.cls-9{fill:#005453;}.cls-10{fill:#f9cd35;}.cls-11{fill:#e2b796;}.cls-12{fill:#efcdaf;}.cls-13{fill:#f79c33;}.cls-14{fill:#ffb27d;}.cls-15{fill:#ed975d;}.cls-16{fill:#a51453;}.cls-17{fill:#850c45;}.cls-18{fill:#ed985f;}.cls-19{fill:#339984;}.cls-20{fill:#ed7d2b;}</style></defs><g id="Layer_2" data-name="Layer 2"><g id="Layer_1-2" data-name="Layer 1"><path class="cls-1" d="M187.82,1737.18C83.61,1620.23,20.59,1456,4.27,1302.12c-16.09-151.76,15.62-304,82.18-440.72,68.69-141.08,166-270.5,303.78-349.43,212-121.43,469.48-123.07,706-101.85,72.59,6.52,148.13,22,221.21,18.21,69.48-3.56,111.08-72.13,149-121.75C1535.7,215.9,1615.63,139.13,1718.25,87c132.62-67.43,287.67-102,436-80.7,128.6,18.45,251,81.69,325.48,190.46,89.64,130.9,93.18,298.16,59.76,448.27-22.65,101.78-58.23,200-38.44,306,21.63,115.86,109.2,185.64,184.84,267.75,54.52,59.18,93,126.7,102.87,207.28,13,105.62-15.2,213.87-49.64,312.84Z"/><path class="cls-2" d="M411.57,768.54c0-86.22,60.09-155.89,148.92-155.89,88,0,147.18,68.8,147.18,155.89,0,85.35-60.1,155.89-148.92,155.89C470.79,924.43,411.57,855.63,411.57,768.54Zm506-148.92h103.63l-445,609.62H472.53ZM616.22,768.54c0-40.93-22.64-76.64-57.47-76.64-36.58,0-55.74,34.84-55.74,76.64,0,40.93,22.64,76.64,57.48,76.64C597.06,845.18,616.22,809.47,616.22,768.54Zm169.83,311.78c0-86.22,60.09-155.89,148.92-155.89,88,0,147.18,68.8,147.18,155.89,0,85.34-60.09,155.88-148.92,155.88C845.27,1236.2,786.05,1167.4,786.05,1080.32Zm204.65,0c0-40.94-22.64-76.64-57.47-76.64-36.58,0-55.74,34.83-55.74,76.64,0,40.93,22.64,76.63,57.48,76.63C971.54,1157,990.7,1121.25,990.7,1080.32Z"/><polygon class="cls-3" points="1809.28 1039.23 1434.08 919.73 1593.41 419.54 1593.42 419.53 1660.55 208.77 2035.73 328.28 1910.39 721.8 1809.28 1039.23"/><path class="cls-4" d="M1780.27,985.23,1489,892.45l203.55-639,291.28,92.78ZM1527.56,895l219.67,70a28.33,28.33,0,0,0,35.6-18.39l180.53-566.79a28.84,28.84,0,0,0-18.73-36.24l-218.79-69.69a28.59,28.59,0,0,0-35.93,18.57L1509.25,859.53A28.19,28.19,0,0,0,1527.56,895Z"/><circle class="cls-4" cx="1736.4" cy="619.32" r="82.25" transform="translate(70.65 1409.22) rotate(-45)"/><polygon class="cls-3" points="1843.44 1186.23 1580.92 892.74 1972.2 542.76 1972.21 542.76 2137.06 395.3 2399.57 688.78 2091.76 964.12 1843.44 1186.23"/><path class="cls-4" d="M1845.89,1125,1642.08,897.12,2142,450l203.8,227.85ZM1674,918.87l153.7,171.83a28.34,28.34,0,0,0,40,2.23L2311.1,696.35a28.83,28.83,0,0,0,2.27-40.72L2160.29,484.48a28.6,28.6,0,0,0-40.39-2.25L1676.25,879.06A28.19,28.19,0,0,0,1674,918.87Z"/><circle class="cls-4" cx="1993.91" cy="787.48" r="82.25" transform="translate(302.08 2104.12) rotate(-59.44)"/><path class="cls-4" d="M1104.32,570.91c37.81-52.42,129.46,2.94,129.46,2.94s28.4,127.38,47,137.15-3-113.65-3-113.65c39.08,10.56,117.75,93,117.75,93s-51,116.91-30.61,121.81,39.87-105.82,39.87-105.82c32.36,24.69,50.38,80.1,50.38,80.1,16.45,85.37-94,102.08-94,102.08s-16.8,40.9-9.13,98h0s2.47,10.93,2.72,28l-10-3.74c.19-3,.27-5.89.21-8.74,0,0,0,0,0,0s0-.09,0-.13c-.1-1.79-.25-4.35-.47-7.47h0s0,0,0,0c-.8-7.1-1.2-12.26-1.3-15.93v0c-2.07-22.11-6-51.38-12.85-59.78a20.58,20.58,0,0,0,3.85-3.77l-3.85,3.77c-30.77,30.07-118.21,4.07-162-23.53s-18-33.19,15.67-45.29,85.09,13.8,104.11,11.25-.88-19.78-33.42-29.27-60.27,16.19-113.19,1.81-55.64-125.14-55.64-125.14C1117,732.65,1187.58,737,1194.6,725.77s-87.1-45.32-100.32-54.47S1066.51,623.34,1104.32,570.91Z"/><path class="cls-4" d="M2408.58,1449.75c13.74-86.31-124.38-118.55-124.38-118.55s-146.35,96.92-172.95,89,109.61-107.4,109.61-107.4c-46.63-26.41-198-20.25-198-20.25s-61.93,161.22-85.68,146.87,62-140,62-140c-53.6-6.39-122.58,30.45-122.58,30.45C1780.92,1397.21,1869,1517,1869,1517s-22.64,55.42-83.46,103.58h0s-12.58,8.29-28.88,24.64l12.87,5.69c2.61-3.06,5.28-6,8-8.67a.08.08,0,0,1,0,0l.12-.12c1.78-1.64,4.33-4,7.47-6.8h0l0,0c7.41-6.13,12.64-10.77,16.18-14.23l0,0c22.71-19.5,53.93-44.2,68.24-45.94a28.18,28.18,0,0,1-.09-7.26q0,3.46.09,7.26c.66,58,107.22,114.81,174.27,129.08s48.15-15.27,27.82-58.62-92.89-66.41-108.36-86.73,19.41-18.36,58.89,3,41.41,72.22,104.64,107.9,169.83-69.21,169.83-69.21c-52-5.7-122.44-67.65-118.46-85.14s124.4,37.72,145.41,41.25S2394.85,1536.06,2408.58,1449.75Z"/><polygon class="cls-5" points="1550.74 1041.68 1550.74 1733.12 1064.79 1735.87 1064.79 1041.68 1550.74 1041.68"/><rect class="cls-6" x="1550.74" y="1042.37" width="377.5" height="691.44"/><polygon class="cls-7" points="1674.26 758.61 1515.04 1086.42 1473.48 1086.42 1092.58 1033.59 1063.37 1086.42 1031.32 1086.42 1283.51 759.81 1674.26 758.61"/><polygon class="cls-5" points="1693.35 758.61 1534.13 1086.42 1050.41 1086.42 1302.6 759.81 1693.35 758.61"/><polygon class="cls-8" points="1980.82 1104.6 1541.74 1104.6 1282.22 758.61 1428.32 758.64 1713.73 758.68 1980.82 1104.6"/><polygon class="cls-7" points="1980.82 1104.6 1900.36 1104.6 1428.32 758.64 1713.73 758.68 1980.82 1104.6"/><path class="cls-3" d="M1655.63,1461.79a5.9,5.9,0,0,0,.1,7,2.62,2.62,0,0,1,.31.53c28.74,17.26,114.92,87.1,114.92,136.32v102h-260.1v-102c0-49.54,87.36-120.48,115.46-136.81h0a6,6,0,0,0,1.19-3.52,6.16,6.16,0,0,0-1.19-3.57c-28.17-16.7-115.47-87.12-115.47-136.66V1223H1771v102C1771,1374.51,1683.89,1445.31,1655.63,1461.79Z"/><path class="cls-9" d="M1507.57,1707.59h265.18a13.13,13.13,0,0,1,13.13,13.13v13.13a0,0,0,0,1,0,0h-292a0,0,0,0,1,0,0v-12.57A13.7,13.7,0,0,1,1507.57,1707.59Z"/><path class="cls-10" d="M1737.26,1290.83c-15.77.24-42.88,3.08-86.73,14.14-30,7.58-81.8,1.87-109.18-2a15.93,15.93,0,0,0-18.2,15.77v11.76c0,32.38,87.14,102.53,110.18,120.52a14.36,14.36,0,0,1,5.53,11.33v180.09a18.79,18.79,0,0,1-8.07,15.4c-18.12,12.68-48.66,49.8-48.66,49.8h115.49s-31-35.82-48.35-49.11a16,16,0,0,1-6.31-12.73v-183.5a14.5,14.5,0,0,1,5.44-11.32c22.59-18.09,107.82-88.5,107.82-120.86v-20.56A18.67,18.67,0,0,0,1737.26,1290.83Z"/><path class="cls-9" d="M1493.87,1206.84h292a0,0,0,0,1,0,0v12.65a13.62,13.62,0,0,1-13.62,13.62H1507a13.13,13.13,0,0,1-13.13-13.13v-13.13A0,0,0,0,1,1493.87,1206.84Z"/><path class="cls-8" d="M2110.56,1245.69H1882.09a9.88,9.88,0,0,1-9.85-9.85h0a9.87,9.87,0,0,1,9.85-9.84h228.47a9.87,9.87,0,0,1,9.85,9.84h0A9.88,9.88,0,0,1,2110.56,1245.69Z"/><path class="cls-8" d="M1860.09,1733.79h-.26a3.56,3.56,0,0,1-3.54-3.88l43.29-484.22h17.25L1862.08,1732A2,2,0,0,1,1860.09,1733.79Z"/><path class="cls-8" d="M2132.68,1733.79h.26a3.56,3.56,0,0,0,3.54-3.88l-43.29-484.22h-17.25L2130.68,1732A2,2,0,0,0,2132.68,1733.79Z"/><path class="cls-7" d="M1805.21,939.61a7.51,7.51,0,0,1-7.48,7.49H1549.22a7.49,7.49,0,0,1,0-15h248.51A7.51,7.51,0,0,1,1805.21,939.61Z"/><path class="cls-11" d="M1367.41,983V1143.8H1234.3V985a62.48,62.48,0,0,1,62.48-62.48h10.16c1.56,0,3.12.06,4.65.17,0,0,0,0,0,0A60.48,60.48,0,0,1,1367.41,983Z"/><path class="cls-6" d="M1367.41,983V1143.8H1253.93V985a62.52,62.52,0,0,1,57.66-62.31s0,0,0,0A60.48,60.48,0,0,1,1367.41,983Z"/><rect class="cls-12" x="1234.3" y="1008.82" width="133.11" height="12.18"/><rect class="cls-12" x="1234.3" y="1071.16" width="133.11" height="12.18" transform="translate(2378.1 -223.6) rotate(90)"/><polygon class="cls-7" points="1292.94 1224.47 1189.02 1438.43 873.3 1438.43 1037.9 1225.25 1292.94 1224.47"/><polygon class="cls-5" points="1302.4 1224.47 1198.48 1438.43 882.76 1438.43 1047.36 1225.25 1302.4 1224.47"/><polygon class="cls-5" points="1197.79 1438.43 1197.79 1736.73 882.76 1733.42 882.76 1438.43 1197.79 1438.43"/><polygon class="cls-6" points="1464.56 1438.43 1464.56 1733.42 1197.79 1736.73 1197.79 1438.43 1464.56 1438.43"/><polygon class="cls-8" points="1493.87 1451.08 1207.3 1451.08 1037.9 1225.25 1123.26 1225.26 1319.55 1225.31 1493.87 1451.08"/><polygon class="cls-7" points="1493.87 1451.08 1439.48 1451.08 1123.26 1225.26 1319.55 1225.31 1493.87 1451.08"/><path class="cls-11" d="M1092.58,1473.83v147.44h-122V1475.69a57.29,57.29,0,0,1,57.28-57.28h9.32c1.43,0,2.86,0,4.26.16h0A55.44,55.44,0,0,1,1092.58,1473.83Z"/><path class="cls-6" d="M1092.58,1473.83v147.44h-104V1475.69a57.31,57.31,0,0,1,52.86-57.12h0A55.44,55.44,0,0,1,1092.58,1473.83Z"/><rect class="cls-12" x="970.55" y="1497.52" width="122.03" height="11.16"/><rect class="cls-12" x="970.55" y="1554.68" width="122.03" height="11.16" transform="translate(2591.82 528.69) rotate(90)"/><rect class="cls-7" x="1207.3" y="1451.08" width="286.58" height="7.8"/><polygon class="cls-7" points="1207.3 1458.88 1033.25 1231.28 1037.9 1225.25 1207.3 1451.08 1207.3 1458.88"/><rect class="cls-7" x="1541.74" y="1104.6" width="436.1" height="13.42"/><path class="cls-10" d="M1793.55,852.19q-.06,5.25-.6,10.45a112.93,112.93,0,0,1-33.68,69.48,108.44,108.44,0,0,1-12.68,10.61q-3.18,2.29-6.58,4.37H1621.28c-2.23-1.38-4.42-2.84-6.55-4.37a110.49,110.49,0,0,1-12.66-10.61,112.88,112.88,0,1,1,190-99.44h0c.07.32.12.63.17,1h0c.08.5.15,1,.21,1.49.37,2.49.64,5,.83,7.53.07,1,.13,1.92.17,2.88,0,.11,0,.22,0,.32C1793.54,848,1793.57,850.09,1793.55,852.19Z"/><path class="cls-13" d="M1784,849.15c0-1.58-.12-3.17-.25-4.75a99.63,99.63,0,0,0-1.35-10.56A102.74,102.74,0,1,0,1632.7,942.73q4.53,2.41,9.25,4.37H1662a98,98,0,0,1-15.1-4.37,96.8,96.8,0,1,1,129.6-108.14,93.59,93.59,0,0,1,1.35,10.48c0,.14,0,.28,0,.42h0a92,92,0,0,1,.16,10.36,96.87,96.87,0,0,1-42,76.26c-2.55,1.76-5.23,3.41-8,4.94a96.57,96.57,0,0,1-27.17,10h19.9q4.65-2,9.18-4.37l.93-.51a101.6,101.6,0,0,0,15-10.1,102.85,102.85,0,0,0,37.84-72.86A100.21,100.21,0,0,0,1784,849.15Z"/><path class="cls-13" d="M1731.06,862.09a30.91,30.91,0,0,0-7.55-11.4,30.41,30.41,0,0,0-10.78-6.34,52,52,0,0,0-13.69-2.57q-7.56-.46-16.44-.21a81,81,0,0,1-9.4-.19,23.72,23.72,0,0,1-6.61-1.45,11.6,11.6,0,0,1-4.4-3,15.63,15.63,0,0,1-2.81-4.62,16.92,16.92,0,0,1-1.27-5.44,11.43,11.43,0,0,1,.8-5.1,12.28,12.28,0,0,1,3.15-4.45,18.08,18.08,0,0,1,5.75-3.5c4.4-1.79,8.52-1.76,12.32.11s6.93,5.76,9.34,11.67l23-9.34a42.68,42.68,0,0,0-7.53-12.48,32.2,32.2,0,0,0-22.55-11.13,43,43,0,0,0-13.87,1.43l-6.51-16-12.73,5.17,6.42,15.82a48,48,0,0,0-11.69,8.31,35.88,35.88,0,0,0-7.36,10.26,28.49,28.49,0,0,0-2.7,11.61,33.91,33.91,0,0,0,10,23.83,30.25,30.25,0,0,0,10.77,6.3,51.22,51.22,0,0,0,13.71,2.49,161.77,161.77,0,0,0,16.47,0,64.13,64.13,0,0,1,9,.06,23.69,23.69,0,0,1,6.58,1.46,12.65,12.65,0,0,1,4.61,3.13,16.78,16.78,0,0,1,3.08,5.11,14.25,14.25,0,0,1,1.11,5.46,11.64,11.64,0,0,1-1.23,5.18,14.64,14.64,0,0,1-3.65,4.59,22.18,22.18,0,0,1-6.17,3.62,26.4,26.4,0,0,1-6.76,1.75,15.42,15.42,0,0,1-6.81-.67,16,16,0,0,1-6.21-4,24.31,24.31,0,0,1-5-8.17l-23,9.34a39.78,39.78,0,0,0,9,14.06,32.74,32.74,0,0,0,11.9,7.43,36.39,36.39,0,0,0,13.54,2,58.29,58.29,0,0,0,13.94-2.31l5.94,14.64,12.65-5.14-6-14.71a51.09,51.09,0,0,0,11.8-8.24,34.35,34.35,0,0,0,7.53-10.11,28.34,28.34,0,0,0,2.77-11.55A30.93,30.93,0,0,0,1731.06,862.09Z"/><path class="cls-14" d="M2049.75,908.13s3.18,8.44,3.94,13.53c.45,3.05-.55,10.65,3.69,11.51,4.53.92,6.66-13.58,6.15-16-.56-2.64-2.19-11.75-5.13-12.41S2049.75,908.13,2049.75,908.13Z"/><path class="cls-14" d="M2051.13,909.14s-1.77,6.09-1.77,8.35-1.34,8.91,0,9.33c1.77.54,4.81-7.62,4.81-7.62Z"/><path class="cls-14" d="M1801.76,837.63c-2.84-2-9.3-6.43-9.63-5.44a4.34,4.34,0,0,0,.87,3.16c-3.9-1.46-7.87-2.41-17.24-.61a7,7,0,0,0-4.61,3c-1,1.49-1.32,3.35,1.08,4.84,4.78,3,3.39,1.19,10,5.52s14.79,5.44,19.66,2.4l6.52-1.09.81-10.73S1805.54,838.26,1801.76,837.63Z"/><path class="cls-14" d="M1972.8,747.59s-15.38,18.25-35,10.61c0,0-4.21-10.19-4.27-17.71,0-.92,0-1.82,0-2.67-.1-8.46-.39-13.21-.39-13.21h0c.89-.37,30-12.3,29.94-11.31C1962.58,736.18,1972.8,747.59,1972.8,747.59Z"/><path class="cls-15" d="M1960.16,718.75c-2.81,5.19-12.42,15.36-26.65,19.07-.1-8.46-.39-13.21-.39-13.21h0C1934,724.39,1961,717.22,1960.16,718.75Z"/><path class="cls-14" d="M1927,723.73s32.68,7.68,37.15-12.75,11.71-33.19-9-39-26.46,1.13-29.61,7.59S1918.65,721.2,1927,723.73Z"/><path class="cls-9" d="M1963.08,716.55c.44.28,7.48,2.45,20.8-24.09a23.13,23.13,0,0,0-1.36-21.14c-4.88-8-22.16-14.22-36.52-16.94s-17.8,5.35-21.18,13.47c-3.55,8.53-13.8,15.54-13.8,15.54,12.38,6.92,27.29-3,32.46-1.34s7,9.76,7.38,12.37,1,4.78,7.47,2.45,2.94,9.21,1.9,11.41C1960.23,708.28,1959.35,714.16,1963.08,716.55Z"/><path class="cls-7" d="M2047.28,1226h19.79c4.15,0,8.76-4.16,9.91-11.76s9.68-11.76,11.53-18-7.61-15-7.61-15l-1.58-2-1.65-2.12L2062,1180.8s-.39,3.73-.63,8.49c-.17,3.43-.26,7.4-.07,10.88.46,8.3-2.32,17.24-9.7,18.86S2047.28,1226,2047.28,1226Z"/><path class="cls-7" d="M1909.5,1226H1962a4.54,4.54,0,0,0,1.11-.33c3.5-1.75,2.41-15.16,2-19.3-.08-.77-.14-1.22-.14-1.22s-18.45-14.76-21-3.46c-.08.36-.17.7-.27,1h0c-3.2,10.57-17.52,15.37-25.79,16.71C1911.55,1220.47,1909.92,1224.16,1909.5,1226Z"/><path class="cls-16" d="M1920.07,923.46s2.8,35,6.09,77c4.48,57.08,9.86,127.19,10.39,140.47.92,23.07,4.62,60,4.62,60s8.76,8.77,26.29,5.07c0,0,15.62-52.66,20.08-108.38.07-.92.13-1.84.21-2.76,4.15-56.72,10.6-176.17,10.6-176.17Z"/><path class="cls-17" d="M1920.07,923.46s2.8,35,6.09,77l61.38,97.12c.07-.92.13-1.84.21-2.76,4.15-56.72,10.6-176.17,10.6-176.17Z"/><path class="cls-16" d="M1932.86,927.61s50.5,126.6,83.71,186.09,43.58,76.09,43.58,76.09,19-7.61,20.75-12.79c0,0-12.7-114.86-34.93-142.86-12.57-15.82-27.33-63.29-28-79.89s-4.5-49.47-4.5-49.47Z"/><path class="cls-13" d="M2053.9,910.54c-5.59,1.79-6.48,1.39-6.48,1.39s-27.21-49.53-30-54.07-57.76-55.54-57.76-55.54l14.13-52.71s62.57,81,69.32,92.64c11.17,19.21,17.71,63.83,17.71,63.83A16.43,16.43,0,0,1,2053.9,910.54Z"/><path class="cls-10" d="M1909.41,823c.19,10.82.82,23,1.67,35.35.05.73.11,1.47.16,2.2.54,7.66,1.13,15.33,1.8,22.81.27,3,.56,6,.86,8.88l0,.4c0,1.09.15,2.27.28,3.35,2.75,28,5.65,50.18,6.18,50.52a3.14,3.14,0,0,0,2.15.55c7.36-.93,29.29.74,47.24-3.17,15.16-3.19,28.2-9.25,42-17.42,1.84-1.09,6-4,5.68-6.11-.34-2.36-1-5.77-1.74-10-2.72-14.91-7.43-40.56-9-70.58q-.46-8.38-1.36-16.54a251,251,0,0,0-7.32-39.51c-6.15-22.17-15.2-39.15-26.55-45.79-1.49-.83-9.47,4.25-16.79,9a32.34,32.34,0,0,1-20.83,4.93l-6.1,6.75c-7.38,8.59-15.25,20-17.4,36.27-.16,1.2-.3,2.47-.41,3.83A236,236,0,0,0,1909.41,823Z"/><path class="cls-13" d="M1909.41,823c.19,10.82.82,23,1.67,35.35.05.73.11,1.47.16,2.2,42-26.28,48.46-74.38,48.46-74.38-20.66.91-37.07,5.66-49.72,12.45A236,236,0,0,0,1909.41,823Z"/><path class="cls-10" d="M1803.31,843.72c-.43-6.23,2.8-7.26,2.8-7.26s63.31-11.48,68.69-13.17,51.4-49.57,51.4-49.57,17.64-19.89,32.08-15.5c12.55,3.82,17.46,13.61,19.13,22.94a27.47,27.47,0,0,1-12.76,28.2c-21.6,13.25-64.86,39.36-75,42.35-22.68,6.64-83.59.53-83.59.53A19.63,19.63,0,0,1,1803.31,843.72Z"/><path class="cls-7" d="M1277.43,767.68c-.48.62,264.31,350.34,264.31,350.34V1104.6l-259.52-346Z"/><path class="cls-10" d="M880.33,1716.6c-1.45.89-2.92,1.74-4.41,2.57l-1.52.82c-1.16.61-2.32,1.21-3.49,1.79a117.5,117.5,0,0,1-108.43-208.41q2.25-1.24,4.55-2.38c1.48-.73,3-1.44,4.47-2.1A117.49,117.49,0,0,1,880.33,1716.6Z"/><path class="cls-13" d="M820.05,1724.27A106.77,106.77,0,1,1,871.43,1711,106.9,106.9,0,0,1,820.05,1724.27Zm-.35-207.68a100.9,100.9,0,1,0,88.54,52.18A100.34,100.34,0,0,0,819.7,1516.59Z"/><path class="cls-13" d="M871.64,1627.71c-.23-.58-.47-1.14-.73-1.69a31,31,0,0,0-7.12-10.18,32,32,0,0,0-11.22-6.6,54,54,0,0,0-14.25-2.68q-7.87-.48-17.12-.22a80.73,80.73,0,0,1-9.78-.2,24.21,24.21,0,0,1-6.88-1.5,12.07,12.07,0,0,1-4.59-3.11,16.36,16.36,0,0,1-2.92-4.82,18,18,0,0,1-1.33-5.64,12.09,12.09,0,0,1,.84-5.32,13.07,13.07,0,0,1,3.27-4.64,19.26,19.26,0,0,1,6-3.65q6.88-2.79,12.84.13t9.7,12.14l23.94-9.72a44.63,44.63,0,0,0-7.84-13A33.64,33.64,0,0,0,821,1555.44a44.39,44.39,0,0,0-14.45,1.48l-6.78-16.7-13.25,5.38,6.69,16.47a49.75,49.75,0,0,0-12.17,8.65,37.21,37.21,0,0,0-7.66,10.69,29.77,29.77,0,0,0-2.82,12.08,35.34,35.34,0,0,0,10.41,24.8,31.3,31.3,0,0,0,11.2,6.57,53.29,53.29,0,0,0,14.27,2.58,166.51,166.51,0,0,0,17.16,0,63.34,63.34,0,0,1,9.34.07,24.06,24.06,0,0,1,6.84,1.52,12.76,12.76,0,0,1,4.79,3.25,17.61,17.61,0,0,1,3.22,5.32,14.81,14.81,0,0,1,1.15,5.67,12.19,12.19,0,0,1-1.28,5.41,15.41,15.41,0,0,1-3.8,4.77,23,23,0,0,1-6.43,3.77,27.48,27.48,0,0,1-7,1.83,16,16,0,0,1-7.08-.71,16.36,16.36,0,0,1-6.47-4.19,25.19,25.19,0,0,1-5.24-8.49l-23.93,9.72a41.23,41.23,0,0,0,9.41,14.63,33.92,33.92,0,0,0,12.4,7.74,38.06,38.06,0,0,0,14.09,2,59.57,59.57,0,0,0,14.51-2.4l6.19,15.23,13.16-5.34-6.21-15.31a53.41,53.41,0,0,0,12.29-8.58,35.93,35.93,0,0,0,7.41-9.68q.23-.42.42-.84a29.47,29.47,0,0,0,2.89-12A32.35,32.35,0,0,0,871.64,1627.71Z"/><path class="cls-7" d="M731.9,1202.63c.36-1.44-31.3,14.31-32.9,16.09-14.85,16.46-10.62,38-2.12,38.16,5.45.13,4.39,9.19,4.39,9.19L762,1240.39S754.65,1197.78,731.9,1202.63Z"/><path class="cls-7" d="M739.37,1206s2.17-23.64-24.25-23.64c0,0,8,2.17,12.15,6.52,0,0-16.85-9.9-35.19,5.3s-6.94,53.32-12.51,60.56-27.29,8.68-24.64,32.08,68.91,52.72,64.66,72.08c0,0,26-38.17,7.4-55.59,0,0,9,8.52,10,18.66,0,0,2.45-19.79-10.13-26.11-11.15-5.6-20.27-26.08-19.31-29.74S739.37,1206,739.37,1206Z"/><path class="cls-18" d="M715.38,1317.18c-4.07-19.61-29.5-25.69-41.54-9.68a21.33,21.33,0,0,0-4.18,10.31c-2.75,22.26,32.85,113,38,121.17,9.28,15,63.94,66.19,63.94,66.19l10.07-6.1s-38.77-65.63-44.77-71.77C729.91,1420.19,723.12,1354.43,715.38,1317.18Z"/><path class="cls-18" d="M767.72,1499.1s14.7-9.66,20.26-9,21.68,5.25,21.87,7.62-17.94,3.84-19.16,5.14-13.54,9.52-18,6.94S767.72,1499.1,767.72,1499.1Z"/><path class="cls-19" d="M665.17,1717.17,652,1715.24s-44.16-35.09-50.74-100.57a116.86,116.86,0,0,1-.31-20.25,3.51,3.51,0,0,0-.46-2.23l0,0c-1.41-2.17-4.93-7.6-9.69-15.32s-12.73-22-21.57-38.12c-15.92-29-34.46-63.8-40.82-74.87-20.26-35.28-10.49-59-10.49-59s56.52-5.59,72-19.13l5.58,8.59s12.24,54.22,11.66,54.47q.91,2.76,1.84,5.63c9.67,29.83,20.78,67.11,26.84,97.48,3.41,17.08,5.21,32,4.24,42.11-.33,3.48.08,8.82,1,15.42C646.58,1648.34,665.17,1717.17,665.17,1717.17Z"/><path class="cls-9" d="M692.72,1733.79H637.93s-1.32-8.36,1.55-14.69c2.74-6.08,6.65-6.27.49-15.8,3.49,3.58,14.68,5.06,22.6,4,1,1.57,6.26,12.13,9.5,14.46C675.65,1724.33,691.62,1723.42,692.72,1733.79Z"/><path class="cls-9" d="M609,1454.42c-4.79,26.4-16.09,70.33-39.78,84.31-15.92-29-34.46-63.8-40.82-74.87-20.26-35.28-10.49-59-10.49-59s56.52-5.59,72-19.13l5.58,8.59s12.24,54.22,11.66,54.47Q608.1,1451.55,609,1454.42Z"/><path class="cls-20" d="M709.52,1305s7.75,8.06,11.29,17.71c0,0-12.36,35.49-41.24,39.94C679.57,1362.66,702.42,1305,709.52,1305Z"/><path class="cls-19" d="M570.6,1408.94l.19-10.25c-20.42,2.58-70.4-24.4-70.4-24.4S479,1388.5,476.1,1429.07c-1.43,19.81-10.46,103.56-11.45,128.57-.37,9.06-.49,15.53-.53,18.12v0a3.51,3.51,0,0,1-.87,2.11,117.11,117.11,0,0,0-11.06,17c-31.16,58-14.86,136.73-14.86,136.73l7.23-1.84s26.35-81.65,43.56-117c2.93-6,5.58-10.65,7.8-13.35,6.48-7.86,13.3-21.21,20-37.28,12.72-30.39,25.07-70.48,33.87-101.52C550.45,1460.73,570.6,1408.94,570.6,1408.94Z"/><path class="cls-14" d="M690.09,1340.54C656.71,1332.88,678,1286,680,1286.8c4.62-.94,14.78-9.06,23.87-24.92l1.22,1.07,20.5,18s-4.73,7-8.72,13.84c-3.12,5.36-5.76,10.64-5.34,12.45C713.15,1308.51,699,1342.59,690.09,1340.54Z"/><path class="cls-18" d="M725.56,1280.92s-4.74,7-8.72,13.84c-12.75-7.86-12.76-23.64-11.78-31.81Z"/><path class="cls-14" d="M726.13,1289.93s-31-17.22-19.93-36.33,14.45-34.2,34.68-24,19.83,19.67,17.7,26.94S734.47,1293.91,726.13,1289.93Z"/><path class="cls-7" d="M763.81,1245.39c-1.42-8.49-5.73-9.3-8.74-8.73-11.43-18.9-30.1-11.53-30.1-11.53a42.14,42.14,0,0,1-24.39,14.66s3.59,6.68,18.39,10.81c4.52,1.27,9.65.5,14.59-1.16a82.54,82.54,0,0,1-21,7.91c19.5,1.79,38.06-16,40-17.95.9,2.77,2.48,8.55,1.53,12.78-1.28,5.75-6.38,16.15-3.27,17.5C750.8,1269.68,765.93,1258.11,763.81,1245.39Z"/><path class="cls-9" d="M480.9,1733.79H426.11s-1.32-8.36,1.54-14.69c2.75-6.08,7-8.84,6-16.2,3.49,3.59,9.16,7.6,17.08,6.53,1,1.58,6.27,10,9.51,12.33C463.83,1724.33,479.8,1723.42,480.9,1733.79Z"/><path class="cls-10" d="M694,1377.73c-7,2.46-16.94,3.8-27.06,4.9-14.41,1.58-29.29,2.65-37.08,5.76-2.84,1.13-4.74,2.53-5.34,4.32-3.37,10.16-18.26,25.83-18.26,25.83-95.41-4.34-105.88-44.25-105.88-44.25,64.19-74.64,172.88-96.25,172.88-96.25s7.76-3.29,27.31,12.25c13,10.37,11.33,14.35,11.33,14.35S714.76,1370.49,694,1377.73Z"/><path class="cls-13" d="M667,1382.63c-14.41,1.58-29.29,2.65-37.08,5.76-3.18-47.59,19.27-83.38,19.27-83.38S663.79,1364.63,667,1382.63Z"/><path class="cls-14" d="M681.77,1295.81s-36.11,3.56-39,27,34.62,119,40,127.68c9.78,15.76,67.38,69.76,67.38,69.76l10.61-6.44s-40.85-69.16-47.17-75.63C703.64,1428.05,694,1303.93,681.77,1295.81Z"/><path class="cls-10" d="M643.81,1337c.1.54,33.33,10.86,54.71,0,0,0,4.58-49.34-20.95-46.66s-40.65,10.72-41.3,22.94S643.81,1337,643.81,1337Z"/><path class="cls-14" d="M746.86,1513.42s12.95-11.9,18.54-12.18,22.24,1.69,22.81,4-17.09,6.69-18.08,8.16-11.83,11.58-16.65,9.75S746.86,1513.42,746.86,1513.42Z"/><rect class="cls-7" y="1733.39" width="2844.05" height="7.65" rx="3.25"/></g></g></svg>