<svg width="85" height="70" viewBox="0 0 85 70" fill="none" xmlns="http://www.w3.org/2000/svg">
<path d="M34 44C37.8588 44 41 40.8747 41 37C41 33.1412 37.8747 30 34 30C30.1412 30 27 33.1253 27 37C27 40.8747 30.1253 44 34 44ZM34 33.3485C36.0251 33.3485 37.6674 34.9909 37.6674 37.0159C37.6674 39.041 36.0251 40.6834 34 40.6834C31.9749 40.6834 30.3326 39.041 30.3326 37.0159C30.3326 34.9749 31.9749 33.3485 34 33.3485Z" fill="#5D2352" fill-opacity="0.16"/>
<path d="M34 44C37.8588 44 41 40.8747 41 37C41 33.1412 37.8747 30 34 30C30.1412 30 27 33.1253 27 37C27 40.8747 30.1253 44 34 44ZM34 33.3485C36.0251 33.3485 37.6674 34.9909 37.6674 37.0159C37.6674 39.041 36.0251 40.6834 34 40.6834C31.9749 40.6834 30.3326 39.041 30.3326 37.0159C30.3326 34.9749 31.9749 33.3485 34 33.3485Z" stroke="white"/>
<path d="M84.6124 40.0108L74.5699 6.29939C73.1621 1.58143 68.3442 -1.06324 63.8236 0.40602L15.8795 15.9475C13.3297 16.7801 11.3119 18.8208 10.389 21.3838H6.29064C2.70851 21.3838 0.00236936 24.7141 0.00236936 28.4689V63.3557C-0.0914854 66.9309 2.61466 69.9184 6.04036 70H6.29064H51.1532C54.7509 70 58.0202 67.0941 58.0202 63.3394V61.968V58.5561V57.9847L78.9498 51.1935C83.4705 49.7569 86.0202 44.7287 84.6124 40.0108ZM3.27164 28.4689C3.27164 26.5915 4.49175 24.7957 6.29064 24.7957H51.1532C51.8571 24.8284 52.4984 25.057 53.0459 25.4324C53.1241 25.4977 53.2024 25.563 53.2962 25.612C54.1253 26.2813 54.6727 27.2935 54.7509 28.4526V42.786L36.9342 53.6259C35.4012 54.5728 33.4616 54.3932 32.1163 53.2015L23.1219 44.9246C20.5409 42.6065 16.7867 42.4759 14.0493 44.5818L3.256 52.777V28.4689H3.27164ZM54.7666 63.3557C54.7666 65.2331 52.9677 66.6044 51.1688 66.6044H6.29064C4.66382 66.6534 3.31857 65.3147 3.256 63.6332V63.372V57.0542L15.9264 47.3244C17.4437 46.1 19.5867 46.2143 20.9945 47.5856L29.8951 55.7808C31.2403 56.9726 32.9454 57.6256 34.713 57.6582C36.0895 57.6745 37.4504 57.2991 38.6392 56.5481L54.7353 46.8183V63.3557H54.7666ZM81.3744 45.3817C80.6705 46.7694 79.4973 47.7978 78.0738 48.2549L58.0359 54.7687V35.3255L70.456 31.2931C71.2381 31.0319 71.6761 30.1667 71.4415 29.3505C71.1912 28.5342 70.3621 28.0771 69.58 28.322L58.0359 32.0768V28.4689C57.9889 27.1792 57.6292 25.9712 57.0347 24.9263L66.6705 21.8083C67.4526 21.5471 67.8906 20.6818 67.656 19.8656C67.4057 19.0493 66.5766 18.5922 65.7945 18.8371L54.6727 22.4449C53.656 21.7919 52.4515 21.4164 51.1845 21.3838H34.9163L64.6683 11.7357C65.4504 11.4745 65.8884 10.6092 65.6537 9.79296C65.4035 8.97671 64.5744 8.5196 63.7923 8.76448L24.8895 21.3838H13.6895C14.3934 20.2247 15.4728 19.3268 16.7711 18.9024L64.7152 3.36087C67.6716 2.39768 70.8314 4.12815 71.7387 7.21359L81.7655 40.9086C82.2191 42.4106 82.0783 43.9941 81.3744 45.3817Z" fill="#5D2352" fill-opacity="0.16"/>
<path d="M84.6124 40.0108L74.5699 6.29939C73.1621 1.58143 68.3442 -1.06324 63.8236 0.40602L15.8795 15.9475C13.3297 16.7801 11.3119 18.8208 10.389 21.3838H6.29064C2.70851 21.3838 0.00236936 24.7141 0.00236936 28.4689V63.3557C-0.0914854 66.9309 2.61466 69.9184 6.04036 70H6.29064H51.1532C54.7509 70 58.0202 67.0941 58.0202 63.3394V61.968V58.5561V57.9847L78.9498 51.1935C83.4705 49.7569 86.0202 44.7287 84.6124 40.0108ZM3.27164 28.4689C3.27164 26.5915 4.49175 24.7957 6.29064 24.7957H51.1532C51.8571 24.8284 52.4984 25.057 53.0459 25.4324C53.1241 25.4977 53.2024 25.563 53.2962 25.612C54.1253 26.2813 54.6727 27.2935 54.7509 28.4526V42.786L36.9342 53.6259C35.4012 54.5728 33.4616 54.3932 32.1163 53.2015L23.1219 44.9246C20.5409 42.6065 16.7867 42.4759 14.0493 44.5818L3.256 52.777V28.4689H3.27164ZM54.7666 63.3557C54.7666 65.2331 52.9677 66.6044 51.1688 66.6044H6.29064C4.66382 66.6534 3.31857 65.3147 3.256 63.6332V63.372V57.0542L15.9264 47.3244C17.4437 46.1 19.5867 46.2143 20.9945 47.5856L29.8951 55.7808C31.2403 56.9726 32.9454 57.6256 34.713 57.6582C36.0895 57.6745 37.4504 57.2991 38.6392 56.5481L54.7353 46.8183V63.3557H54.7666ZM81.3744 45.3817C80.6705 46.7694 79.4973 47.7978 78.0738 48.2549L58.0359 54.7687V35.3255L70.456 31.2931C71.2381 31.0319 71.6761 30.1667 71.4415 29.3505C71.1912 28.5342 70.3621 28.0771 69.58 28.322L58.0359 32.0768V28.4689C57.9889 27.1792 57.6292 25.9712 57.0347 24.9263L66.6705 21.8083C67.4526 21.5471 67.8906 20.6818 67.656 19.8656C67.4057 19.0493 66.5766 18.5922 65.7945 18.8371L54.6727 22.4449C53.656 21.7919 52.4515 21.4164 51.1845 21.3838H34.9163L64.6683 11.7357C65.4504 11.4745 65.8884 10.6092 65.6537 9.79296C65.4035 8.97671 64.5744 8.5196 63.7923 8.76448L24.8895 21.3838H13.6895C14.3934 20.2247 15.4728 19.3268 16.7711 18.9024L64.7152 3.36087C67.6716 2.39768 70.8314 4.12815 71.7387 7.21359L81.7655 40.9086C82.2191 42.4106 82.0783 43.9941 81.3744 45.3817Z" stroke="white"/>
<path d="M74.0325 38.0671L62.072 41.915C61.2725 42.1804 60.8248 43.0594 61.0647 43.8887C61.2725 44.5688 61.8642 45 62.5197 45C62.6637 45 62.8236 44.9834 62.9675 44.9337L74.928 41.0857C75.7275 40.8203 76.1752 39.9413 75.9353 39.112C75.6795 38.2827 74.832 37.8183 74.0325 38.0671Z" fill="#5D2352" fill-opacity="0.16"/>
<path d="M74.0325 38.0671L62.072 41.915C61.2725 42.1804 60.8248 43.0594 61.0647 43.8887C61.2725 44.5688 61.8642 45 62.5197 45C62.6637 45 62.8236 44.9834 62.9675 44.9337L74.928 41.0857C75.7275 40.8203 76.1752 39.9413 75.9353 39.112C75.6795 38.2827 74.832 37.8183 74.0325 38.0671Z" stroke="white"/>
</svg>
