<svg width="34" height="34" viewBox="0 0 34 34" fill="none" xmlns="http://www.w3.org/2000/svg">
<path d="M26.6816 20.6437L32.786 20.6437C33.4567 20.6439 34.0002 21.1877 34 21.8584C33.9999 22.2023 33.8539 22.53 33.5984 22.7603L21.4551 33.6892C21.01 34.0889 20.3401 34.1049 19.8764 33.7268L6.51884 22.7979C5.99978 22.3732 5.92322 21.6082 6.34786 21.0891C6.57789 20.8079 6.92177 20.6444 7.28507 20.6437L13.3361 20.6437C13.024 11.0504 8.92321 5.06383 0.828443 2.36552C0.333223 2.20002 -0.000692865 1.73647 -0.000906465 1.21435C-0.00112009 1.14889 0.00421286 1.08343 0.0148864 1.01883C0.110731 0.431395 0.618185 -1.45917e-06 1.21345 -1.43315e-06C15.5134 7.16712e-05 26.0186 8.60842 26.6816 20.6437Z" fill="#4B4A4A"/>
</svg>
