<svg width="118" height="121" viewBox="0 0 118 121" fill="none" xmlns="http://www.w3.org/2000/svg">
<path d="M44.8274 108.79C44.8274 102.229 40.8233 96.1173 34.8632 93.5923L34.61 93.4743L34.7711 93.2383C36.382 90.7605 37.2104 87.8814 37.2104 84.8844C37.2104 76.5305 30.5829 69.7104 22.4137 69.7104C14.2444 69.7104 7.61694 76.5069 7.61694 84.8844C7.61694 87.8578 8.46841 90.7369 10.0562 93.2383L10.2173 93.4743L9.96421 93.5923C4.0041 96.1173 0 102.229 0 108.79V118.229C0 119.409 0.92048 120.353 2.07108 120.353H42.7793C43.9299 120.353 44.8504 119.409 44.8504 118.229V108.79H44.8274ZM22.4137 73.9818C28.2817 73.9818 33.0682 78.8903 33.0682 84.908C33.0682 90.9256 28.2817 95.8342 22.4137 95.8342C16.5456 95.8342 11.7591 90.9256 11.7591 84.908C11.7591 78.8667 16.5456 73.9818 22.4137 73.9818ZM40.6852 116.105H4.11913V108.79C4.11913 103.221 7.96212 98.2412 13.2549 96.9197L13.3699 96.8961L13.462 96.9669C16.0624 98.9964 19.146 100.058 22.4137 100.058C25.6814 100.058 28.765 98.9964 31.3654 96.9669L31.4574 96.8961L31.5725 96.9197C36.8652 98.2176 40.7082 103.221 40.7082 108.79V116.105H40.6852Z" fill="#005453" fill-opacity="0.16"/>
<path d="M74.5583 120.354H115.266C116.417 120.354 117.337 119.41 117.337 118.23V108.79C117.337 102.23 113.333 96.1177 107.373 93.5691L107.12 93.4511L107.281 93.2151C108.892 90.7373 109.721 87.8582 109.721 84.8612C109.721 76.5073 103.093 69.6873 94.9238 69.6873C86.7776 69.6873 80.1272 76.4837 80.1272 84.8612C80.1272 87.8346 80.9786 90.7136 82.5664 93.1915L82.7275 93.4275L82.4744 93.5455C76.5143 96.0705 72.5102 102.183 72.5102 108.767V118.206C72.4872 119.41 73.4307 120.354 74.5583 120.354ZM94.9238 73.9822C100.792 73.9822 105.578 78.8907 105.578 84.9084C105.578 90.926 100.792 95.8346 94.9238 95.8346C89.0558 95.8346 84.2693 90.926 84.2693 84.9084C84.2693 78.8671 89.0558 73.9822 94.9238 73.9822ZM76.6293 108.79C76.6293 103.221 80.4723 98.218 85.7651 96.9201L85.8801 96.8965L85.9722 96.9673C88.5725 98.9968 91.6561 100.059 94.9238 100.059C98.1915 100.059 101.275 98.9968 103.875 96.9673L103.968 96.8965L104.083 96.9201C109.375 98.218 113.241 103.221 113.241 108.79V116.106H76.6754V108.79H76.6293Z" fill="#005453" fill-opacity="0.16"/>
<path d="M98.2841 60.1765L98.4222 52.8845L98.5832 52.8373C104.635 51.327 109.031 45.5926 109.031 39.2209C109.031 32.5661 104.405 26.7845 98.031 25.4629L97.8009 25.4157L97.8469 25.1797C98.169 23.693 98.3301 22.1827 98.3301 20.6724C98.3301 9.27427 89.2864 0 78.1716 0H62.4774C61.3268 0 60.4064 0.943945 60.4064 2.12388C60.4064 3.30381 61.3268 4.24775 62.4774 4.24775H78.1716C87.0082 4.24775 94.188 11.6105 94.188 20.6724C94.188 22.1355 94.0039 23.5986 93.6127 25.0146L93.5666 25.1797H61.9482C55.2517 25.1797 49.5677 30.0883 48.4631 36.8847L48.4401 37.0735H42.0658C41.6056 37.0735 41.1453 37.2386 40.7771 37.5454L26.7858 48.9672L26.6017 39.1029C26.5787 38.0174 25.7733 37.1207 24.7147 37.0263C16.5225 36.2947 10.1021 29.1207 10.1021 20.6724C10.1021 11.6105 17.2819 4.24775 26.1185 4.24775H41.8127C42.9633 4.24775 43.8837 3.30381 43.8837 2.12388C43.8837 0.943945 42.9633 0 41.8127 0H26.1185C15.0037 0 5.95996 9.27427 5.95996 20.6724C5.95996 25.8641 7.86995 30.8198 11.2987 34.6664C14.2673 37.9466 18.0643 40.1413 22.2985 40.9672L22.4826 41.0144L22.7127 53.3565C22.7357 54.1589 23.1729 54.8904 23.9093 55.2444C24.5997 55.5748 25.4742 55.4804 26.0725 54.9848L42.7792 41.3684H48.4401L48.4631 41.5572C49.5677 48.33 55.2287 53.2621 61.9482 53.2621H81.8305L81.8766 53.3093L95.0624 61.97C95.6837 62.3712 96.5122 62.4184 97.1565 62.0644C97.8699 61.6396 98.2841 60.9553 98.2841 60.1765ZM94.326 51.0202L94.234 56.3063L83.6025 49.3211C83.2573 49.1088 82.8891 48.9908 82.4748 48.9908H61.9942C59.4629 48.9908 57.0696 47.976 55.2516 46.1353C53.4567 44.2946 52.4672 41.8404 52.4672 39.2209C52.4672 33.8404 56.7474 29.4511 61.9942 29.4511H95.3846C100.631 29.4511 104.912 33.8404 104.912 39.2209C104.912 44.2474 101.092 48.5188 96.213 48.9436C95.1544 49.038 94.349 49.9347 94.326 51.0202Z" fill="#005453" fill-opacity="0.16"/>
<path d="M63.5596 39.2212C63.5596 40.4011 64.48 41.3451 65.6306 41.3451C66.7812 41.3451 67.7016 40.4011 67.7016 39.2212C67.7016 38.0412 66.7812 37.0973 65.6306 37.0973C64.48 37.0973 63.5596 38.0412 63.5596 39.2212Z" fill="#005453" fill-opacity="0.16"/>
<path d="M76.6069 39.2212C76.6069 40.4011 77.5274 41.3451 78.678 41.3451C79.8286 41.3451 80.7491 40.4011 80.7491 39.2212C80.7491 38.0412 79.8286 37.0973 78.678 37.0973C77.5274 37.0973 76.6069 38.0412 76.6069 39.2212Z" fill="#005453" fill-opacity="0.16"/>
<path d="M91.7264 37.0973C90.5758 37.0973 89.6553 38.0412 89.6553 39.2212C89.6553 40.4011 90.5758 41.3451 91.7264 41.3451C92.877 41.3451 93.7974 40.4011 93.7974 39.2212C93.7974 38.0412 92.877 37.0973 91.7264 37.0973Z" fill="#005453" fill-opacity="0.16"/>
</svg>
