<svg width="93" height="131" viewBox="0 0 93 131" fill="none" xmlns="http://www.w3.org/2000/svg">
<path d="M92.9736 23.8427C92.9736 23.2737 92.7622 22.7319 92.3659 22.2983L71.2295 0.623161C70.8332 0.216752 70.3048 0 69.7236 0H6.34091C2.82699 0 0 2.89906 0 6.50256V123.549C0 127.152 2.82699 130.051 6.34091 130.051H86.6591C90.173 130.051 93 127.152 93 123.549L92.9736 23.8427ZM71.8636 7.39666L85.7872 21.6752H73.9773C72.8148 21.6752 71.8636 20.6998 71.8636 19.5077V7.39666ZM88.7727 123.549C88.7727 124.741 87.8216 125.716 86.6591 125.716H6.34091C5.17841 125.716 4.22727 124.741 4.22727 123.549V6.50256C4.22727 5.31042 5.17841 4.33504 6.34091 4.33504H67.6364V19.5077C67.6364 23.1112 70.4633 26.0102 73.9773 26.0102H88.7727V123.549Z" fill="#005453" fill-opacity="0.16"/>
<path d="M21.1363 58.5226C17.6224 58.5226 14.7954 61.4216 14.7954 65.0251C14.7954 68.6286 17.6224 71.5277 21.1363 71.5277C24.6502 71.5277 27.4772 68.6286 27.4772 65.0251C27.4772 61.4216 24.6502 58.5226 21.1363 58.5226ZM21.1363 67.1927C19.9738 67.1927 19.0227 66.2173 19.0227 65.0251C19.0227 63.833 19.9738 62.8576 21.1363 62.8576C22.2988 62.8576 23.25 63.833 23.25 65.0251C23.25 66.2173 22.2988 67.1927 21.1363 67.1927Z" fill="#005453" fill-opacity="0.16"/>
<path d="M78.2044 62.8575H35.9316V67.1926H78.2044V62.8575Z" fill="#005453" fill-opacity="0.16"/>
<path d="M21.1363 36.8475C17.6224 36.8475 14.7954 39.7466 14.7954 43.3501C14.7954 46.9536 17.6224 49.8526 21.1363 49.8526C24.6502 49.8526 27.4772 46.9536 27.4772 43.3501C27.4772 39.7466 24.6502 36.8475 21.1363 36.8475ZM21.1363 45.5176C19.9738 45.5176 19.0227 44.5422 19.0227 43.3501C19.0227 42.158 19.9738 41.1826 21.1363 41.1826C22.2988 41.1826 23.25 42.158 23.25 43.3501C23.25 44.5422 22.2988 45.5176 21.1363 45.5176Z" fill="#005453" fill-opacity="0.16"/>
<path d="M78.2044 41.1826H35.9316V45.5177H78.2044V41.1826Z" fill="#005453" fill-opacity="0.16"/>
<path d="M21.1363 80.1976C17.6224 80.1976 14.7954 83.0967 14.7954 86.7002C14.7954 90.3037 17.6224 93.2027 21.1363 93.2027C24.6502 93.2027 27.4772 90.3037 27.4772 86.7002C27.4772 83.0967 24.6502 80.1976 21.1363 80.1976ZM21.1363 88.8677C19.9738 88.8677 19.0227 87.8923 19.0227 86.7002C19.0227 85.5081 19.9738 84.5327 21.1363 84.5327C22.2988 84.5327 23.25 85.5081 23.25 86.7002C23.25 87.8923 22.2988 88.8677 21.1363 88.8677Z" fill="#005453" fill-opacity="0.16"/>
<path d="M78.2044 84.5326H35.9316V88.8676H78.2044V84.5326Z" fill="#005453" fill-opacity="0.16"/>
<path d="M21.1363 101.873C17.6224 101.873 14.7954 104.772 14.7954 108.375C14.7954 111.979 17.6224 114.878 21.1363 114.878C24.6502 114.878 27.4772 111.979 27.4772 108.375C27.4772 104.772 24.6502 101.873 21.1363 101.873ZM21.1363 110.543C19.9738 110.543 19.0227 109.567 19.0227 108.375C19.0227 107.183 19.9738 106.208 21.1363 106.208C22.2988 106.208 23.25 107.183 23.25 108.375C23.25 109.567 22.2988 110.543 21.1363 110.543Z" fill="#005453" fill-opacity="0.16"/>
<path d="M78.2044 106.208H35.9316V110.543H78.2044V106.208Z" fill="#005453" fill-opacity="0.16"/>
</svg>
