<svg width="73" height="85" viewBox="0 0 73 85" fill="none" xmlns="http://www.w3.org/2000/svg">
<path d="M71.8137 44.9481C62.2881 42.1264 54.1162 35.5369 49.2791 26.8062C50.3191 24.6982 50.4677 22.2251 49.6092 19.9511L47.6777 14.8886C46.6376 12.1831 44.0127 10.3573 41.1237 10.3573H40.0506C40.6614 9.32823 41.0246 8.13315 41.0246 6.83849C41.0246 3.07068 37.9705 0 34.2229 0C30.4754 0 27.4213 3.07068 27.4213 6.83849C27.4213 8.11655 27.768 9.32823 28.3953 10.3573H27.3222C24.4332 10.3573 21.7917 12.1831 20.7682 14.8886L18.8366 19.9511C17.6315 23.0882 18.3909 26.6568 20.7682 29.047L25.2751 33.5783L22.3861 60.3181C22.287 61.2476 22.4356 62.1605 22.7823 62.9572H20.2729C19.3649 62.9572 18.622 63.7042 18.622 64.6171V72.3187H10.9619C10.0539 72.3187 9.31102 73.0656 9.31102 73.9785V81.6801H1.65089C0.7429 81.6801 0 82.427 0 83.3399C0 84.2528 0.7429 84.9997 1.65089 84.9997H26.8104C27.7184 84.9997 28.4613 84.2528 28.4613 83.3399C28.4613 82.427 27.7184 81.6801 26.8104 81.6801H12.6128V75.6383H20.2729C21.1809 75.6383 21.9238 74.8914 21.9238 73.9785V66.2769H46.5551V73.9785C46.5551 74.8914 47.298 75.6383 48.206 75.6383H55.8661V81.6801H41.6684C40.7605 81.6801 40.0176 82.427 40.0176 83.3399C40.0176 84.2528 40.7605 84.9997 41.6684 84.9997H66.828C67.736 84.9997 68.4789 84.2528 68.4789 83.3399C68.4789 82.427 67.736 81.6801 66.828 81.6801H59.1679V73.9785C59.1679 73.0656 58.425 72.3187 57.517 72.3187H49.8569V64.6171C49.8569 63.7042 49.114 62.9572 48.206 62.9572H45.6966C46.0433 62.1439 46.1919 61.2476 46.0928 60.3181L45.6306 56.1022C47.0173 55.903 48.4371 56.1022 49.7083 56.7329C51.1446 57.43 52.6799 57.7786 54.1822 57.7786C57.9958 57.7786 61.6607 55.6374 63.4272 51.9692C64.8139 49.1143 67.9341 47.5541 71.0378 48.1682C71.1368 48.1848 71.2524 48.2014 71.3514 48.2014C72.0613 48.2014 72.7217 47.7366 72.9363 47.0063C73.1839 46.1266 72.6887 45.1971 71.8137 44.9481ZM30.7396 6.85509C30.7396 4.91309 32.3079 3.33625 34.2394 3.33625C36.171 3.33625 37.7393 4.91309 37.7393 6.85509C37.7393 8.79708 36.171 10.3739 34.2394 10.3739C32.3079 10.3739 30.7396 8.78049 30.7396 6.85509ZM21.9403 21.1462L23.8719 16.0837C24.4167 14.6397 25.8199 13.677 27.3552 13.677H41.1402C42.6755 13.677 44.0622 14.6397 44.6235 16.0837L46.5551 21.1462C47.2815 23.0716 46.8192 25.246 45.383 26.7066L43.1377 28.9806V21.2624C43.1377 20.3495 42.3948 19.6026 41.4869 19.6026C40.5789 19.6026 39.836 20.3495 39.836 21.2624V31.1882H28.709V21.2624C28.709 20.3495 27.9661 19.6026 27.0581 19.6026C26.1501 19.6026 25.4072 20.3495 25.4072 21.2624V28.964L23.1125 26.7066C21.6597 25.246 21.1974 23.0716 21.9403 21.1462ZM28.4944 34.5078H39.968L42.7911 60.6667C42.9066 61.6792 42.1967 62.6253 41.1897 62.8079C40.1496 62.9904 39.1261 62.2933 38.9445 61.231L35.8573 44.3008C35.7087 43.5207 35.0319 42.9397 34.2394 42.9397C33.447 42.9397 32.7537 43.5041 32.6216 44.3008L29.5344 61.231C29.3363 62.2767 28.3293 62.9904 27.2892 62.8079C26.2822 62.6253 25.5888 61.6958 25.6878 60.6667L28.4944 34.5078ZM32.4235 62.9572C32.572 62.6087 32.6876 62.2269 32.7536 61.8286L34.2229 53.7784L35.6922 61.8286C35.7583 62.2269 35.8738 62.5921 36.0224 62.9572H32.4235ZM60.4556 50.5085C58.7717 53.9776 54.5949 55.4382 51.1446 53.7452C49.3121 52.8489 47.265 52.5335 45.2674 52.7991L43.1873 33.5783L47.0999 29.6445C51.3262 36.6988 57.5995 42.3754 64.9625 45.8776C63.0475 46.8569 61.4461 48.4504 60.4556 50.5085Z" fill="white"/>
<path d="M59.6779 11.6779C60.5839 11.6779 61.3221 12.4161 61.3221 13.3221C61.3221 14.245 62.0772 15 63 15C63.9228 15 64.6778 14.245 64.6778 13.3221C64.6778 12.4161 65.4161 11.6779 66.3221 11.6779C67.245 11.6779 68 10.9228 68 10C68 9.07718 67.245 8.32215 66.3221 8.32215C65.4161 8.32215 64.6778 7.58389 64.6778 6.67785C64.6778 5.75503 63.9228 5 63 5C62.0772 5 61.3221 5.75503 61.3221 6.67785C61.3221 7.58389 60.5839 8.32215 59.6779 8.32215C58.755 8.32215 58 9.07718 58 10C58 10.9228 58.755 11.6779 59.6779 11.6779Z" fill="white"/>
<path d="M2.67785 31.6779C3.58389 31.6779 4.32215 32.4161 4.32215 33.3221C4.32215 34.245 5.07718 35 6 35C6.92282 35 7.67785 34.245 7.67785 33.3221C7.67785 32.4161 8.41611 31.6779 9.32215 31.6779C10.245 31.6779 11 30.9228 11 30C11 29.0772 10.245 28.3221 9.32215 28.3221C8.41611 28.3221 7.67785 27.5839 7.67785 26.6779C7.67785 25.755 6.92282 25 6 25C5.07718 25 4.32215 25.755 4.32215 26.6779C4.32215 27.5839 3.58389 28.3221 2.67785 28.3221C1.75503 28.3221 1 29.0772 1 30C1 30.9228 1.73826 31.6779 2.67785 31.6779Z" fill="white"/>
<path d="M34.5 85C35.3284 85 36 84.3284 36 83.5C36 82.6716 35.3284 82 34.5 82C33.6716 82 33 82.6716 33 83.5C33 84.3284 33.6716 85 34.5 85Z" fill="white"/>
</svg>
