<svg width="131" height="132" viewBox="0 0 131 132" fill="none" xmlns="http://www.w3.org/2000/svg">
<path fill-rule="evenodd" clip-rule="evenodd" d="M63.8373 111.976C64.8654 112.978 66.21 113.505 67.5545 113.505C68.9253 113.505 70.2698 112.978 71.298 111.95L129.454 53.7933C131.511 51.737 131.511 48.3889 129.454 46.3326L84.6903 1.54222C82.634 -0.514074 79.2859 -0.514074 77.2296 1.54222L19.0733 59.7249C17.017 61.7812 17.017 65.1293 19.0733 67.1856L25.9238 74.0401C25.5763 74.2526 25.2505 74.5085 24.9527 74.8063L14.434 85.3251C13.4585 86.3005 12.9049 87.645 12.9049 89.0422C12.9049 90.4395 13.4322 91.7576 14.434 92.7594L18.5329 96.8584L0.302502 127.848C-0.198391 128.665 -0.0665771 129.719 0.618856 130.405C1.04066 130.8 1.56792 131.011 2.12153 131.011C2.49061 131.011 2.85969 130.906 3.20241 130.721L34.1909 112.516L38.2659 116.591C39.2413 117.567 40.5595 118.12 41.9831 118.12C43.4067 118.12 44.7248 117.567 45.7002 116.591L56.219 106.073C56.5098 105.782 56.7631 105.458 56.9755 105.11L63.8373 111.976ZM31.1093 109.435L21.6152 99.9406L8.07953 122.97L31.1093 109.435ZM80.2086 4.54758C80.4722 4.28395 80.7886 4.23123 80.9467 4.23123C81.1313 4.23123 81.4476 4.28395 81.7113 4.54758L126.449 49.338C126.713 49.6016 126.765 49.9179 126.765 50.0761C126.765 50.2343 126.713 50.5506 126.449 50.8143L68.2926 108.971C68.029 109.234 67.7126 109.287 67.5545 109.287C67.3963 109.287 67.0799 109.234 66.8163 108.971L22.0523 64.2066C21.6568 63.7848 21.6568 63.0993 22.0523 62.7039L80.2086 4.54758ZM27.9581 77.7589C28.2217 77.4953 28.5381 77.4426 28.6962 77.4426C28.8544 77.4426 29.1708 77.4953 29.4344 77.7589L53.2663 101.591C53.6618 102.013 53.6618 102.698 53.2663 103.094L42.7476 113.612C42.3258 114.008 41.6404 114.008 41.2449 113.612L17.413 89.7804C17.0175 89.3586 17.0175 88.6731 17.413 88.2777L27.9581 77.7589ZM71.2193 82.9245C69.7957 82.9245 68.4775 82.3709 67.5021 81.3955L49.6545 63.5479C48.6527 62.5461 48.1255 61.228 48.1255 59.8307C48.1255 58.4335 48.6791 57.089 49.6545 56.1136L73.5919 32.1762C74.5937 31.1744 75.9118 30.6472 77.3091 30.6472C78.7063 30.6472 80.0508 31.2008 81.0262 32.1762L98.8738 50.0238C99.8756 51.0256 100.403 52.3437 100.403 53.7409C100.403 55.1382 99.8492 56.4827 98.8738 57.4581L74.9364 81.3955C73.961 82.3709 72.6429 82.9245 71.2193 82.9245ZM77.3091 34.8125C77.1509 34.8125 76.8345 34.8652 76.5709 35.1288L52.6335 59.0662C52.2381 59.4617 52.2381 60.1471 52.6335 60.5689L70.4811 78.4165C70.8765 78.8119 71.562 78.8119 71.9838 78.4165L95.9212 54.4791C96.1848 54.2155 96.2375 53.8991 96.2375 53.7409C96.2375 53.5828 96.1848 53.2664 95.9212 53.0028L78.0472 35.1025C77.7836 34.8388 77.4672 34.8125 77.3091 34.8125Z" fill="#005453" fill-opacity="0.16"/>
</svg>
