<svg width="127" height="130" viewBox="0 0 127 130" fill="none" xmlns="http://www.w3.org/2000/svg">
<path d="M76.8069 53.0203C78.0424 53.0203 79.0439 51.9931 79.0439 50.7261C79.0439 49.4591 78.0424 48.432 76.8069 48.432C75.5714 48.432 74.5698 49.4591 74.5698 50.7261C74.5698 51.9931 75.5714 53.0203 76.8069 53.0203Z" fill="#005453" fill-opacity="0.16"/>
<path d="M117.074 130C119.659 130 122.095 128.955 123.935 127.094C125.774 125.208 126.768 122.71 126.768 120.059C126.768 117.408 125.749 114.91 123.935 113.024L90.6021 78.8667L90.7264 78.6882C96.0954 70.3784 98.929 60.7177 98.929 50.7255C98.929 22.7627 76.7322 0 49.4645 0C22.1969 0 0 22.7627 0 50.7255C0 78.6882 22.1969 101.451 49.4645 101.451C59.2083 101.451 68.6289 98.5451 76.7322 93.0392L76.9062 92.9118L110.239 127.094C112.053 128.955 114.489 130 117.074 130ZM75.8373 88.0686L75.6882 87.8647L75.8373 88.0686C68.1318 93.8039 59.0094 96.8627 49.4645 96.8627C24.6577 96.8627 4.47418 76.1647 4.47418 50.7255C4.47418 25.2863 24.6577 4.58824 49.4645 4.58824C74.2714 4.58824 94.4549 25.2863 94.4549 50.7255C94.4549 60.5137 91.4969 69.8686 85.8794 77.7706C83.0954 81.7471 79.715 85.2137 75.8373 88.0686ZM87.9425 97.7549L80.5352 90.1588L80.7589 89.9804C83.3191 87.8392 85.6557 85.4176 87.7436 82.8176L87.9176 82.5882L95.3249 90.1843L95.1757 90.3627C93.0381 92.9628 90.6518 95.4098 88.1165 97.602L87.9425 97.7549ZM91.323 100.839C93.8335 98.6471 96.17 96.2255 98.3325 93.651L98.5065 93.4471L98.7054 93.651L120.778 116.286C121.772 117.306 122.319 118.631 122.319 120.059C122.319 121.486 121.772 122.837 120.778 123.831C119.784 124.851 118.491 125.412 117.099 125.412C115.707 125.412 114.39 124.851 113.42 123.831L91.149 100.992L91.323 100.839Z" fill="#005453" fill-opacity="0.16"/>
<path d="M49.4633 10.196C27.6641 10.196 9.94141 28.3706 9.94141 50.7255C9.94141 73.0804 27.6641 91.2549 49.4633 91.2549C71.2624 91.2549 88.9851 73.0804 88.9851 50.7255C88.9851 28.3706 71.2624 10.196 49.4633 10.196ZM49.4633 86.6666C30.1498 86.6666 14.4156 70.5313 14.4156 50.7255C14.4156 30.9196 30.1249 14.7843 49.4633 14.7843C68.8017 14.7843 84.511 30.9196 84.511 50.7255C84.511 70.5313 68.7768 86.6666 49.4633 86.6666Z" fill="#005453" fill-opacity="0.16"/>
<path d="M66.3894 25.8724C61.4182 22.2782 55.552 20.392 49.4622 20.392C48.2194 20.392 47.2251 21.4116 47.2251 22.6861C47.2251 23.9606 48.2194 24.9802 49.4622 24.9802C59.7776 24.9802 69.1982 31.6331 72.9018 41.5233C73.225 42.4155 74.0701 43.0018 74.9898 43.0018C75.2632 43.0018 75.5366 42.9508 75.7852 42.8488C76.9286 42.39 77.5251 41.0645 77.0777 39.892C74.9649 34.2077 71.2613 29.3645 66.3894 25.8724Z" fill="#005453" fill-opacity="0.16"/>
</svg>
