<svg width="118" height="121" viewBox="0 0 118 121" fill="none" xmlns="http://www.w3.org/2000/svg">
<path d="M94.2833 0.352295C81.3913 0.352295 70.918 11.0926 70.918 24.3133C70.918 37.534 81.3913 48.2743 94.2833 48.2743C107.175 48.2743 117.649 37.534 117.649 24.3133C117.649 11.0926 107.175 0.352295 94.2833 0.352295ZM94.2833 43.6989C83.857 43.6989 75.3797 35.0055 75.3797 24.3133C75.3797 13.6212 83.857 4.92777 94.2833 4.92777C104.71 4.92777 113.187 13.6212 113.187 24.3133C113.187 35.0055 104.71 43.6989 94.2833 43.6989Z" fill="#005453" fill-opacity="0.16"/>
<path d="M103.629 31.6105C103.629 31.0085 103.394 30.4306 102.972 29.9971L97.4533 24.338L102.972 18.6788C103.394 18.2453 103.629 17.6674 103.629 17.0654C103.629 16.4633 103.394 15.8854 102.972 15.4519C102.103 14.5609 100.694 14.5609 99.825 15.4519L94.3066 21.111L88.7646 15.4037C87.8958 14.5127 86.4868 14.5127 85.618 15.4037C84.7491 16.2947 84.7491 17.7396 85.618 18.6306L91.1364 24.2898L85.618 29.9489C84.7491 30.8399 84.7491 32.2848 85.618 33.1758C86.0406 33.6093 86.6042 33.8501 87.1913 33.8501C87.7784 33.8501 88.342 33.6093 88.7646 33.1758L94.2831 27.5167L99.8015 33.1758C100.224 33.6093 100.788 33.8501 101.375 33.8501C101.962 33.8501 102.526 33.6093 102.948 33.1758C103.394 32.7905 103.629 32.2126 103.629 31.6105Z" fill="#005453" fill-opacity="0.16"/>
<path d="M23.3654 0.352295C10.4733 0.352295 0 11.0926 0 24.3133C0 37.534 10.4733 48.2743 23.3654 48.2743C36.2574 48.2743 46.7307 37.534 46.7307 24.3133C46.7307 11.0926 36.2574 0.352295 23.3654 0.352295ZM23.3654 43.6989C12.939 43.6989 4.46173 35.0055 4.46173 24.3133C4.46173 13.6212 12.939 4.92777 23.3654 4.92777C33.7917 4.92777 42.269 13.6212 42.269 24.3133C42.269 35.0055 33.7917 43.6989 23.3654 43.6989Z" fill="#005453" fill-opacity="0.16"/>
<path d="M32.2186 21.1106C32.6413 20.6772 32.8761 20.0992 32.8761 19.4972C32.8761 18.8951 32.6413 18.3172 32.2186 17.8837C31.3497 16.9927 29.9408 16.9927 29.0719 17.8837L21.0173 26.1436L18.1289 23.1816C17.6827 22.7241 17.1191 22.5073 16.5556 22.5073C15.992 22.5073 15.4049 22.7241 14.9822 23.1816C14.1134 24.0726 14.1134 25.5175 14.9822 26.4085L19.4439 30.984C19.8666 31.4175 20.4302 31.6583 21.0173 31.6583C21.6044 31.6583 22.1679 31.4175 22.5906 30.984L32.2186 21.1106Z" fill="#005453" fill-opacity="0.16"/>
<path d="M88.2715 68.6711L68.2172 66.1184V46.468C68.2172 41.2182 64.0607 36.9558 58.9415 36.9558C53.8222 36.9558 49.6658 41.2182 49.6658 46.468V80.5191L46.66 77.9424C44.8518 76.4012 42.574 75.6306 40.2962 75.6306C37.7131 75.6306 35.13 76.6179 33.2513 78.5444C31.4667 80.3746 30.5508 82.7587 30.6682 85.2391C30.7857 87.7435 31.8893 90.0313 33.8149 91.6688L49.6658 105.299V118.712C49.6658 119.965 50.6756 121 51.8967 121H94.1656C95.3867 121 96.3965 119.965 96.3965 118.712V78.111C96.3965 73.3428 92.8976 69.2731 88.2715 68.6711ZM91.9348 116.425H54.1275V106.551H91.9348V116.425ZM91.9348 101.976H52.7186L36.6798 88.177C35.717 87.3582 35.1769 86.2505 35.13 85.0464C35.083 83.8424 35.5292 82.6864 36.4215 81.7714C38.3471 79.7967 41.7286 79.6522 43.8186 81.4342L50.4877 87.1656C51.1687 87.7435 52.061 87.8639 52.8594 87.4786C53.6579 87.0933 54.151 86.3227 54.151 85.4076V46.468C54.151 43.7468 56.3114 41.5313 58.965 41.5313C61.6185 41.5313 63.7789 43.7468 63.7789 46.468V68.1413C63.7789 69.2972 64.6243 70.2604 65.728 70.4049L87.7313 73.2224C90.1266 73.5355 91.9582 75.6306 91.9582 78.111V101.976H91.9348Z" fill="#005453" fill-opacity="0.16"/>
</svg>
