<svg width="99" height="137" viewBox="0 0 99 137" fill="none" xmlns="http://www.w3.org/2000/svg">
<path d="M96.7081 0H1.95396C0.885797 0 0 0.908378 0 2.00378V97.1965C0 98.2919 0.885797 99.2003 1.95396 99.2003C3.02213 99.2003 3.90793 98.2919 3.90793 97.1965V4.00755H94.7542V16.5913C94.7542 17.6867 95.64 18.595 96.7081 18.595C97.7763 18.595 98.6621 17.6867 98.6621 16.5913V2.00378C98.6621 0.881661 97.8024 0 96.7081 0Z" fill="#005453" fill-opacity="0.16"/>
<path d="M96.7081 23.9381C95.64 23.9381 94.7542 24.8465 94.7542 25.9419V132.783H3.90793V106.547C3.90793 105.452 3.02213 104.543 1.95396 104.543C0.885797 104.543 0 105.452 0 106.547V134.787C0 135.882 0.885797 136.791 1.95396 136.791H96.7081C97.7763 136.791 98.6621 135.882 98.6621 134.787V25.9419C98.6621 24.8465 97.8024 23.9381 96.7081 23.9381Z" fill="#005453" fill-opacity="0.16"/>
<path d="M8.43994 41.6794C8.43994 50.2289 15.2136 57.1753 23.5504 57.1753C31.8872 57.1753 38.6609 50.2289 38.6609 41.6794C38.6609 33.13 31.8872 26.1835 23.5504 26.1835C15.2136 26.1568 8.43994 33.13 8.43994 41.6794ZM23.5504 53.1677C17.376 53.1677 12.3478 48.0113 12.3478 41.6794C12.3478 36.0154 16.3599 31.3132 21.5965 30.3781V41.6794C21.5965 42.7748 22.4823 43.6832 23.5504 43.6832H34.5707C33.6588 49.0533 29.0736 53.1677 23.5504 53.1677ZM34.5707 39.6756H25.5044V30.3781C30.1157 31.1796 33.763 34.92 34.5707 39.6756Z" fill="#005453" fill-opacity="0.16"/>
<path d="M11.4369 115.498C10.3687 115.498 9.48291 116.406 9.48291 117.501V126.131C9.48291 127.226 10.3687 128.135 11.4369 128.135H24.0724C25.1406 128.135 26.0264 127.226 26.0264 126.131V117.501C26.0264 116.406 25.1406 115.498 24.0724 115.498H11.4369ZM22.1185 124.127H13.3908V119.505H22.1185V124.127Z" fill="#005453" fill-opacity="0.16"/>
<path d="M32.515 128.134H45.1507C46.2189 128.134 47.1047 127.226 47.1047 126.131V104.543C47.1047 103.448 46.2189 102.54 45.1507 102.54H32.515C31.4468 102.54 30.561 103.448 30.561 104.543V126.131C30.561 127.253 31.4208 128.134 32.515 128.134ZM34.469 106.547H43.1967V124.127H34.469V106.547Z" fill="#005453" fill-opacity="0.16"/>
<path d="M53.5653 86.3494C52.4971 86.3494 51.6113 87.2577 51.6113 88.3531V126.131C51.6113 127.226 52.4971 128.135 53.5653 128.135H66.201C67.2691 128.135 68.1549 127.226 68.1549 126.131V88.3531C68.1549 87.2577 67.2691 86.3494 66.201 86.3494H53.5653ZM64.221 124.127H55.4933V90.3569H64.221V124.127Z" fill="#005453" fill-opacity="0.16"/>
<path d="M87.2513 86.6437C88.3194 86.6437 89.2052 85.7353 89.2052 84.6399V77.5599C89.2052 76.4645 88.3194 75.5562 87.2513 75.5562H74.6156C73.5474 75.5562 72.6616 76.4645 72.6616 77.5599V126.131C72.6616 127.227 73.5474 128.135 74.6156 128.135H87.2513C88.3194 128.135 89.2052 127.227 89.2052 126.131V93.9909C89.2052 92.8955 88.3194 91.9871 87.2513 91.9871C86.1831 91.9871 85.2973 92.8955 85.2973 93.9909V124.154H76.5696V79.5637H85.2973V84.6399C85.2973 85.7353 86.157 86.6437 87.2513 86.6437Z" fill="#005453" fill-opacity="0.16"/>
<path d="M70.3947 8.62964H28.2933C27.2252 8.62964 26.3394 9.53802 26.3394 10.6334V19.263C26.3394 20.3584 27.2252 21.2668 28.2933 21.2668H70.3947C71.4629 21.2668 72.3487 20.3584 72.3487 19.263V10.6334C72.3487 9.5113 71.4889 8.62964 70.3947 8.62964ZM68.4408 17.2592H30.2473V12.6372H68.4408V17.2592Z" fill="#005453" fill-opacity="0.16"/>
<path d="M88.2924 26.1561H49.3431C48.275 26.1561 47.3892 27.0645 47.3892 28.1599C47.3892 29.2553 48.275 30.1637 49.3431 30.1637H88.2924C89.3606 30.1637 90.2464 29.2553 90.2464 28.1599C90.2464 27.0645 89.3606 26.1561 88.2924 26.1561Z" fill="#005453" fill-opacity="0.16"/>
<path d="M88.2924 35.1597H49.3431C48.275 35.1597 47.3892 36.068 47.3892 37.1634C47.3892 38.2588 48.275 39.1672 49.3431 39.1672H88.2924C89.3606 39.1672 90.2464 38.2588 90.2464 37.1634C90.2464 36.068 89.3606 35.1597 88.2924 35.1597Z" fill="#005453" fill-opacity="0.16"/>
<path d="M90.2464 46.1669C90.2464 45.0715 89.3606 44.1631 88.2924 44.1631H49.3431C48.275 44.1631 47.3892 45.0715 47.3892 46.1669C47.3892 47.2623 48.275 48.1706 49.3431 48.1706H88.2924C89.3606 48.1706 90.2464 47.2623 90.2464 46.1669Z" fill="#005453" fill-opacity="0.16"/>
<path d="M74.4584 55.1714C74.4584 54.076 73.5726 53.1676 72.5044 53.1676H49.3431C48.275 53.1676 47.3892 54.076 47.3892 55.1714C47.3892 56.2668 48.275 57.1751 49.3431 57.1751H72.5044C73.5726 57.1751 74.4584 56.2668 74.4584 55.1714Z" fill="#005453" fill-opacity="0.16"/>
<path d="M49.3444 66.3921H13.8085C12.7403 66.3921 11.8545 67.3005 11.8545 68.3959C11.8545 69.4913 12.7403 70.3996 13.8085 70.3996H49.3444C50.4126 70.3996 51.2984 69.4913 51.2984 68.3959C51.2984 67.3005 50.4126 66.3921 49.3444 66.3921Z" fill="#005453" fill-opacity="0.16"/>
<path d="M51.2984 77.3724C51.2984 76.277 50.4126 75.3687 49.3444 75.3687H13.8085C12.7403 75.3687 11.8545 76.277 11.8545 77.3724C11.8545 78.4678 12.7403 79.3762 13.8085 79.3762H49.3444C50.4126 79.3762 51.2984 78.4945 51.2984 77.3724Z" fill="#005453" fill-opacity="0.16"/>
<path d="M35.5103 86.3768C35.5103 85.2814 34.6245 84.373 33.5564 84.373H13.8084C12.7403 84.373 11.8545 85.2814 11.8545 86.3768C11.8545 87.4722 12.7403 88.3806 13.8084 88.3806H33.5564C34.6245 88.3806 35.5103 87.4722 35.5103 86.3768Z" fill="#005453" fill-opacity="0.16"/>
</svg>
