<svg width="112" height="141" viewBox="0 0 112 141" fill="none" xmlns="http://www.w3.org/2000/svg">
<path d="M61.3486 140.163H109.588C110.928 140.163 112 139.063 112 137.689V128.812C112 123.673 110.58 118.671 107.9 114.329C105.782 110.893 102.888 107.925 99.5113 105.754L99.297 105.617L99.431 105.397C100.878 102.868 101.655 99.9551 101.655 97.0145V89.9514C101.655 86.7633 100.771 83.6578 99.0558 80.9645L98.9486 80.7721L99.1093 80.6072C107.417 71.8127 112 60.6546 112 49.1943C112 35.975 106.131 23.5803 95.4378 14.2636C84.8787 5.05684 70.8625 0 55.9887 0C46.5016 0 37.1218 2.11618 28.8675 6.12867C27.6615 6.70581 27.1523 8.18989 27.7151 9.42662C28.2779 10.6633 29.725 11.1855 30.931 10.6084C38.5421 6.89819 47.1984 4.94691 55.9887 4.94691C84.2088 4.94691 107.176 24.7895 107.176 49.1943C107.176 59.2255 103.156 69.0644 95.8934 76.897L95.7326 77.0894L95.545 76.9245C92.6507 74.561 89.1667 73.3242 85.4952 73.3242C76.5709 73.3242 69.3081 80.7721 69.3081 89.9239V91.9301L69.0937 91.9851C64.8326 92.947 60.4375 93.4417 56.0155 93.4417C47.0377 93.4417 38.1937 91.4079 30.4486 87.5329C30.0734 87.3405 29.6714 87.258 29.2426 87.2855H29.1086C28.9478 87.2855 28.787 87.313 28.6262 87.368L24.6063 88.4673C18.6836 90.0888 12.7341 91.7377 6.81133 93.3592H6.78451C6.00732 93.5791 5.47136 93.1394 5.28377 92.947C5.09617 92.7546 4.66737 92.2324 4.88177 91.4354C6.70415 84.4823 8.52654 77.5566 10.3221 70.6034C10.4829 69.9713 10.4025 69.2843 10.0809 68.7071C6.59692 62.6059 4.82818 56.0375 4.82818 49.1668C4.82818 40.5922 7.66893 32.2649 13.0557 25.0918C13.8597 24.02 13.672 22.4535 12.6268 21.629C11.5817 20.8045 10.0541 20.9969 9.25013 22.0687C3.1934 30.1212 0.00424498 39.4654 0.00424498 49.1668C0.00424498 56.5322 1.79982 63.5953 5.36418 70.1912L5.41776 70.3011L5.39094 70.4111C3.67576 77.0069 1.93377 83.5753 0.21859 90.1712C-0.371003 92.4523 0.245403 94.8158 1.90698 96.4923C3.54176 98.1412 5.90013 98.7734 8.0709 98.1412C13.2164 96.7396 18.362 95.3105 23.5075 93.9089L29.1086 92.3699L29.189 92.4248C37.3629 96.3549 46.6356 98.4161 55.9887 98.4161C60.3571 98.4161 64.7254 97.9763 68.9597 97.0969L69.2814 97.0419V97.3717C69.335 100.202 70.1121 102.978 71.5057 105.424L71.6397 105.644L71.4253 105.781C68.0754 107.953 65.181 110.893 63.0638 114.329C60.3838 118.671 58.9635 123.7 58.9635 128.84V137.689C58.9367 139.063 60.0087 140.163 61.3486 140.163ZM74.0785 89.9239C74.0785 83.4929 79.1704 78.2711 85.4415 78.2711C91.7126 78.2711 96.8046 83.4929 96.8046 89.9239V96.987C96.8046 103.418 91.7126 108.64 85.4415 108.64C79.1704 108.64 74.0785 103.418 74.0785 96.987V89.9239ZM63.7606 128.812C63.7606 120.787 67.8074 113.614 74.6145 109.574L74.7753 109.464L74.9093 109.602C77.8573 112.185 81.6092 113.614 85.4683 113.614C89.3275 113.614 93.0794 112.185 96.0274 109.602L96.1614 109.464L96.3222 109.574C103.103 113.614 107.176 120.815 107.176 128.812V135.216H63.7606V128.812Z" fill="#005453" fill-opacity="0.16"/>
<path d="M32.2974 57.2199C33.6374 57.2199 34.7094 56.1206 34.7094 54.7464C34.7094 53.4273 35.7278 51.9432 38.7025 48.8926C40.4445 47.1062 41.4093 44.7427 41.4093 42.2692C41.4093 37.1299 37.309 32.925 32.2974 32.925C27.2859 32.925 23.1855 37.1299 23.1855 42.2692C23.1855 43.6434 24.2575 44.7427 25.5975 44.7427C26.9375 44.7427 28.0095 43.6434 28.0095 42.2692C28.0095 39.8507 29.9391 37.872 32.2974 37.872C34.6558 37.872 36.5854 39.8507 36.5854 42.2692C36.5854 43.451 36.1298 44.5503 35.299 45.4023C32.2438 48.5628 29.8855 51.2286 29.8855 54.7464C29.8855 56.1206 30.9574 57.2199 32.2974 57.2199Z" fill="#005453" fill-opacity="0.16"/>
<path d="M32.2973 60.5181C30.9573 60.5181 29.8853 61.6174 29.8853 62.9915C29.8853 64.3657 30.9573 65.465 32.2973 65.465C33.6373 65.465 34.7093 64.3657 34.7093 62.9915C34.7093 61.6449 33.6105 60.5181 32.2973 60.5181Z" fill="#005453" fill-opacity="0.16"/>
<path d="M86.3532 32.925H50.8168C49.4768 32.925 48.4048 34.0244 48.4048 35.3985C48.4048 36.7727 49.4768 37.872 50.8168 37.872H86.3532C87.6931 37.872 88.7651 36.7727 88.7651 35.3985C88.7651 34.0244 87.6931 32.925 86.3532 32.925Z" fill="#005453" fill-opacity="0.16"/>
<path d="M86.3532 46.7195H50.8168C49.4768 46.7195 48.4048 47.8188 48.4048 49.1929C48.4048 50.5671 49.4768 51.6664 50.8168 51.6664H86.3532C87.6931 51.6664 88.7651 50.5671 88.7651 49.1929C88.7651 47.8188 87.6931 46.7195 86.3532 46.7195Z" fill="#005453" fill-opacity="0.16"/>
<path d="M86.3532 60.5181H50.8168C49.4768 60.5181 48.4048 61.6174 48.4048 62.9915C48.4048 64.3657 49.4768 65.465 50.8168 65.465H86.3532C87.6931 65.465 88.7651 64.3657 88.7651 62.9915C88.7651 61.6174 87.6931 60.5181 86.3532 60.5181Z" fill="#005453" fill-opacity="0.16"/>
</svg>
