<svg width="69" height="69" viewBox="0 0 69 69" fill="none" xmlns="http://www.w3.org/2000/svg">
<path d="M67.8871 24.4839C68.4992 24.4839 69 23.9831 69 23.371V5.56452C69 4.95242 68.4992 4.45161 67.8871 4.45161H66.7742V1.1129C66.7742 0.500806 66.2734 0 65.6613 0H3.33871C2.72661 0 2.22581 0.500806 2.22581 1.1129V4.45161H1.1129C0.500806 4.45161 0 4.95242 0 5.56452V23.371C0 23.9831 0.500806 24.4839 1.1129 24.4839H2.22581V62.3226H1.1129C0.500806 62.3226 0 62.8234 0 63.4355V67.8871C0 68.4992 0.500806 69 1.1129 69H67.8871C68.4992 69 69 68.4992 69 67.8871V63.4355C69 62.8234 68.4992 62.3226 67.8871 62.3226H66.7742V24.4839H67.8871ZM4.45161 2.22581H64.5484V4.45161H4.45161V2.22581ZM2.22581 6.67742H66.7742V22.2581H2.22581V6.67742ZM64.5484 35.6129H51.1936V28.9355H64.5484V35.6129ZM48.9677 35.6129H35.6129V28.9355H48.9677V35.6129ZM33.3871 35.6129H20.0323V28.9355H33.3871V35.6129ZM17.8065 35.6129H4.45161V28.9355H17.8065V35.6129ZM66.7742 66.7742H2.22581V64.5484H66.7742V66.7742ZM37.8387 62.3226H35.6129V45.629C35.6129 45.0169 35.1121 44.5161 34.5 44.5161H12.2419C11.6298 44.5161 11.129 45.0169 11.129 45.629V62.3226H8.90323V42.2903H37.8387V62.3226ZM13.3548 62.3226V46.7419H22.2581V62.3226H13.3548ZM24.4839 46.7419H33.3871V62.3226H24.4839V46.7419ZM60.0968 62.3226H46.7419V42.2903H60.0968V62.3226ZM62.3226 62.3226V41.1774C62.3226 40.5653 61.8218 40.0645 61.2097 40.0645H45.629C45.0169 40.0645 44.5161 40.5653 44.5161 41.1774V62.3226H40.0645V41.1774C40.0645 40.5653 39.5637 40.0645 38.9516 40.0645H7.79032C7.17823 40.0645 6.67742 40.5653 6.67742 41.1774V62.3226H4.45161V37.8387H64.5484V62.3226H62.3226ZM64.5484 26.7097H4.45161V24.4839H64.5484V26.7097Z" fill="#AF5BA0"/>
<path d="M50.0807 53.4193H56.7581C57.3702 53.4193 57.871 52.9185 57.871 52.3064V45.629C57.871 45.0169 57.3702 44.5161 56.7581 44.5161H50.0807C49.4686 44.5161 48.9678 45.0169 48.9678 45.629V52.3064C48.9678 52.9185 49.4686 53.4193 50.0807 53.4193ZM51.1936 46.7419H55.6452V51.1935H51.1936V46.7419Z" fill="#AF5BA0"/>
<path d="M18.5998 10.9482H24.7486V12.562H20.6448V13.7444H22.5507C23.441 13.7444 24.1226 13.9392 24.5956 14.3148C25.0686 14.6904 25.3051 15.2329 25.3051 15.9424C25.3051 16.6797 25.0408 17.264 24.5121 17.6813C23.9835 18.0986 23.2323 18.3073 22.2724 18.3073H18.5859V10.9482H18.5998ZM22.1333 16.8188C22.4811 16.8188 22.7454 16.7493 22.9263 16.6101C23.1071 16.471 23.2045 16.2763 23.2045 16.012C23.2045 15.4972 22.8428 15.2329 22.1333 15.2329H20.6448V16.8188H22.1333Z" fill="#AF5BA0"/>
<path d="M31.3847 16.8884H28.2686L27.6843 18.3212H25.5559L28.8112 10.9622H30.8561L34.1114 18.3212H31.9412L31.3847 16.8884ZM30.7726 15.3442L29.8267 12.9932L28.8807 15.3442H30.7726Z" fill="#AF5BA0"/>
<path d="M41.9705 10.9482V18.3073H39.8838V15.4416H37.0459V18.3073H34.9592V10.9482H37.0459V13.7166H39.8838V10.9482H41.9705Z" fill="#AF5BA0"/>
<path d="M46.5202 15.4972H45.5742V18.3212H43.5015V10.9482H45.5742V13.814H46.5759L48.3287 10.9482H50.5128L48.2035 14.5095L50.5267 18.3212H48.1757L46.5202 15.4972Z" fill="#AF5BA0"/>
</svg>
