<svg width="84" height="82" viewBox="0 0 84 82" fill="none" xmlns="http://www.w3.org/2000/svg">
<path d="M76.8574 50.1564H72.5461V42.5242C72.5461 41.2137 71.4949 40.1498 70.2 40.1498H66.0563C64.7613 40.1498 63.7102 41.2137 63.7102 42.5242V50.1564H60.5414V42.2775C60.5414 38.2687 57.3117 35 53.3508 35H47.8055C47.1809 35 46.6629 35.5242 46.6629 36.1564C46.6629 36.7885 47.1809 37.3128 47.8055 37.3128H53.3508C56.0473 37.3128 58.2562 39.533 58.2562 42.2775V56.0154H54.4172V52.9317C54.4172 51.0352 52.8937 49.4934 51.0199 49.4934H44.5301C42.6562 49.4934 41.1328 51.0352 41.1328 52.9317V56.0154H36.8672V52.9317C36.8672 51.0352 35.3438 49.4934 33.4699 49.4934H26.9801C25.1063 49.4934 23.5828 51.0352 23.5828 52.9317V56.0154H19.7438V42.2775C19.7438 39.5485 21.9375 37.3128 24.6492 37.3128H43.2352C43.8598 37.3128 44.3777 36.7885 44.3777 36.1564C44.3777 35.5242 43.8598 35 43.2352 35H24.6492C20.6883 35 17.4586 38.2687 17.4586 42.2775V50.1564H14.2898V42.5242C14.2898 41.2137 13.2387 40.1498 11.9438 40.1498H7.8C6.50508 40.1498 5.45391 41.2137 5.45391 42.5242V50.1564H1.14258C0.517969 50.1564 0 50.6806 0 51.3128V65.5749C0 66.207 0.517969 66.7313 1.14258 66.7313H12.1418V68.489H9.78047C9.15586 68.489 8.63789 69.0132 8.63789 69.6454V75.8436C8.63789 76.4758 9.15586 77 9.78047 77H52.1473C52.7719 77 53.2898 76.4758 53.2898 75.8436C53.2898 75.2115 52.7719 74.6872 52.1473 74.6872H10.923V70.8018H67.0617V74.6872H56.7023C56.0777 74.6872 55.5598 75.2115 55.5598 75.8436C55.5598 76.4758 56.0777 77 56.7023 77H68.2043C68.8289 77 69.3469 76.4758 69.3469 75.8436V69.6454C69.3469 69.0132 68.8289 68.489 68.2043 68.489H65.8582V66.7313H76.8574C77.482 66.7313 78 66.207 78 65.5749V51.3128C78 50.6806 77.482 50.1564 76.8574 50.1564ZM65.9953 42.5242C65.9953 42.4934 66.0258 42.4626 66.0563 42.4626H70.2C70.2305 42.4626 70.2609 42.4934 70.2609 42.5242V50.1564H65.9953V42.5242ZM43.418 52.9317C43.418 52.315 43.9207 51.8062 44.5301 51.8062H51.0199C51.6293 51.8062 52.132 52.315 52.132 52.9317V56.0154H43.418V52.9317ZM25.868 52.9317C25.868 52.315 26.3707 51.8062 26.9801 51.8062H33.4699C34.0793 51.8062 34.582 52.315 34.582 52.9317V56.0154H25.868V52.9317ZM7.73906 42.5242C7.73906 42.4934 7.76953 42.4626 7.8 42.4626H11.9438C11.9742 42.4626 12.0047 42.4934 12.0047 42.5242V50.1564H7.73906V42.5242ZM2.28516 64.4185V52.4692H17.4586V56H17.3977C14.5031 56 12.1418 58.3899 12.1418 61.3194V64.4031L2.28516 64.4185ZM14.427 68.5044V61.3348C14.427 59.6696 15.7676 58.3282 17.3977 58.3282H60.6023C62.2477 58.3282 63.573 59.685 63.573 61.3348V68.5044H14.427ZM75.7148 64.4185H65.8582V61.3348C65.8582 58.4053 63.4969 56.0154 60.6023 56.0154H60.5414V52.4846H75.7148V64.4185Z" fill="#005453" fill-opacity="0.16"/>
<path d="M51 15.9957V27.0086C51 28.1099 51.918 29 53.0539 29H63.9461C65.0819 29 66 28.1099 66 27.0086V9.99138C66 8.89009 65.0819 8 63.9461 8H53.0539C51.918 8 51 8.89009 51 9.99138V15.9957ZM53.334 26.7522V17.4138C56.695 18.2586 59.3402 19.6918 61.3786 21.7586C62.0944 22.4828 62.8724 23.1767 63.666 23.8405V26.7522H53.334ZM63.6815 10.2629V20.7931C63.4793 20.597 63.277 20.4009 63.0747 20.2047C60.6006 17.7004 57.4108 16.0259 53.334 15.0905V10.2629H63.6815Z" fill="#005453" fill-opacity="0.16"/>
<path d="M32 15.9957V27.0086C32 28.1099 32.918 29 34.0539 29H44.9461C46.0819 29 47 28.1099 47 27.0086V9.99138C47 8.89009 46.0819 8 44.9461 8H34.0539C32.918 8 32 8.89009 32 9.99138V15.9957ZM34.334 26.7522V16.8556C37.1971 16.1013 39.7178 15.8297 41.834 16.0711C42.7054 16.1616 43.6701 16.222 44.6815 16.2823V26.7522H34.334ZM44.666 10.2629V14.0194C43.7324 13.9741 42.861 13.9138 42.083 13.8233C39.7956 13.5668 37.2438 13.7931 34.3185 14.5172V10.2629H44.666Z" fill="#005453" fill-opacity="0.16"/>
<path d="M43.8314 43H35.1686C34.5297 43 34 43.4533 34 44C34 44.5467 34.5297 45 35.1686 45H43.8314C44.4703 45 45 44.5467 45 44C45 43.4533 44.4858 43 43.8314 43Z" fill="#005453" fill-opacity="0.16"/>
<path d="M15.0541 29H25.9461C27.082 29 28 28.1106 28 27.01V9.98995C28 8.88945 27.082 8 25.9461 8H15.0541C13.9182 8 13.0002 8.88945 13.0002 9.98995V14.392C13.0002 15.0101 13.5292 15.5226 14.1672 15.5226C14.8051 15.5226 15.3342 15.0101 15.3342 14.392V10.2613H25.6816V18.0854C24.7635 18.5075 23.7988 18.9749 22.8185 19.4724C19.8933 20.9347 17.2792 21.4171 15.3342 21.5226V18.9146C15.3342 18.2965 14.8051 17.7839 14.1672 17.7839C13.5292 17.7839 13.0002 18.2965 13.0002 18.9146V26.995C12.9846 28.0955 13.9182 29 15.0541 29ZM23.8766 21.4774C24.4834 21.1759 25.0747 20.8894 25.666 20.603V26.7387H15.3186V23.7839C17.5437 23.6784 20.5468 23.1508 23.8766 21.4774Z" fill="#005453" fill-opacity="0.16"/>
<path d="M11.7374 56H9.26263C8.57239 56 8 56.4533 8 57C8 57.5467 8.57239 58 9.26263 58H11.7374C12.4276 58 13 57.5467 13 57C13 56.4533 12.4276 56 11.7374 56Z" fill="#005453" fill-opacity="0.16"/>
<path d="M69.7374 56H67.2626C66.5724 56 66 56.4533 66 57C66 57.5467 66.5724 58 67.2626 58H69.7374C70.4276 58 71 57.5467 71 57C71 56.4533 70.4444 56 69.7374 56Z" fill="#005453" fill-opacity="0.16"/>
</svg>
