<svg width="566" height="566" viewBox="0 0 566 566" fill="none" xmlns="http://www.w3.org/2000/svg">
<path d="M521.355 18.7869L33.2674 156.453C29.1612 157.611 25.5063 159.995 22.7913 163.286C20.0762 166.577 18.4302 170.618 18.0734 174.869C17.7166 179.121 18.6659 183.38 20.7945 187.077C22.923 190.775 26.1294 193.734 29.9851 195.561L254.244 301.789C258.618 303.86 262.14 307.382 264.212 311.756L370.439 536.015C372.266 539.871 375.225 543.077 378.923 545.205C382.62 547.334 386.879 548.283 391.131 547.927C395.382 547.57 399.423 545.924 402.714 543.209C406.005 540.494 408.389 536.839 409.547 532.733L547.213 44.6448C548.224 41.0596 548.262 37.2695 547.321 33.6651C546.381 30.0606 544.496 26.772 541.862 24.1379C539.228 21.5038 535.939 19.6195 532.335 18.6789C528.73 17.7384 524.94 17.7757 521.355 18.7869Z" stroke="#F4F4F4" stroke-width="35" stroke-linecap="round" stroke-linejoin="round"/>
<path d="M275 291L393 173" stroke="#F4F4F4" stroke-width="35" stroke-linecap="round" stroke-linejoin="round"/>
</svg>
