<svg width="104" height="104" viewBox="0 0 104 104" fill="none" xmlns="http://www.w3.org/2000/svg">
<path d="M102.267 100.533H91.8667V43.3333C91.8667 42.3761 91.0906 41.6 90.1333 41.6H65.8667V1.73333C65.8667 0.7761 65.0906 0 64.1333 0H19.0667C18.1094 0 17.3333 0.7761 17.3333 1.73333V100.533H1.73333C0.7761 100.533 0 101.309 0 102.267C0 103.224 0.7761 104 1.73333 104H102.267C103.224 104 104 103.224 104 102.267C104 101.309 103.224 100.533 102.267 100.533ZM36.4 100.533H29.4667V84.9333C29.4667 83.9761 30.2428 83.2 31.2 83.2H34.6667C35.6239 83.2 36.4 83.9761 36.4 84.9333V100.533ZM43.3333 43.3333V100.533H39.8667V84.9333C39.8667 82.0614 37.5386 79.7333 34.6667 79.7333H31.2C28.3281 79.7333 26 82.0614 26 84.9333V100.533H20.8V3.46667H62.4V41.6H45.0667C44.1094 41.6 43.3333 42.3761 43.3333 43.3333ZM88.4 100.533H46.8V45.0667H88.4V100.533Z" fill="white"/>
<path d="M55.25 24H44.75C43.7836 24 43 24.7836 43 25.75V36.25C43 37.2164 43.7836 38 44.75 38H55.25C56.2164 38 57 37.2164 57 36.25V25.75C57 24.7836 56.2164 24 55.25 24ZM53.5 34.5H46.5V27.5H53.5V34.5Z" fill="white"/>
<path d="M55.25 7H44.75C43.7836 7 43 7.78356 43 8.75V19.25C43 20.2164 43.7836 21 44.75 21H55.25C56.2164 21 57 20.2164 57 19.25V8.75C57 7.78356 56.2164 7 55.25 7ZM53.5 17.5H46.5V10.5H53.5V17.5Z" fill="white"/>
<path d="M38.25 24H27.75C26.7836 24 26 24.7836 26 25.75V36.25C26 37.2164 26.7836 38 27.75 38H38.25C39.2164 38 40 37.2164 40 36.25V25.75C40 24.7836 39.2164 24 38.25 24ZM36.5 34.5H29.5V27.5H36.5V34.5Z" fill="white"/>
<path d="M38.25 7H27.75C26.7836 7 26 7.78356 26 8.75V19.25C26 20.2164 26.7836 21 27.75 21H38.25C39.2164 21 40 20.2164 40 19.25V8.75C40 7.78356 39.2164 7 38.25 7ZM36.5 17.5H29.5V10.5H36.5V17.5Z" fill="white"/>
<path d="M38.25 42H27.75C26.7836 42 26 42.7836 26 43.75V54.25C26 55.2164 26.7836 56 27.75 56H38.25C39.2164 56 40 55.2164 40 54.25V43.75C40 42.7836 39.2164 42 38.25 42ZM36.5 52.5H29.5V45.5H36.5V52.5Z" fill="white"/>
<path d="M38.25 59H27.75C26.7836 59 26 59.7836 26 60.75V71.25C26 72.2164 26.7836 73 27.75 73H38.25C39.2164 73 40 72.2164 40 71.25V60.75C40 59.7836 39.2164 59 38.25 59ZM36.5 69.5H29.5V62.5H36.5V69.5Z" fill="white"/>
<path d="M70.75 80H81.25C82.2164 80 83 79.2164 83 78.25V67.75C83 66.7836 82.2164 66 81.25 66H70.75C69.7836 66 69 66.7836 69 67.75V78.25C69 79.2164 69.7836 80 70.75 80ZM72.5 69.5H79.5V76.5H72.5V69.5Z" fill="white"/>
<path d="M70.75 63H81.25C82.2164 63 83 62.2164 83 61.25V50.75C83 49.7836 82.2164 49 81.25 49H70.75C69.7836 49 69 49.7836 69 50.75V61.25C69 62.2164 69.7836 63 70.75 63ZM72.5 52.5H79.5V59.5H72.5V52.5Z" fill="white"/>
<path d="M70.75 97H81.25C82.2164 97 83 96.2164 83 95.25V84.75C83 83.7836 82.2164 83 81.25 83H70.75C69.7836 83 69 83.7836 69 84.75V95.25C69 96.2164 69.7836 97 70.75 97ZM72.5 86.5H79.5V93.5H72.5V86.5Z" fill="white"/>
<path d="M53.75 80H64.25C65.2164 80 66 79.2164 66 78.25V67.75C66 66.7836 65.2164 66 64.25 66H53.75C52.7836 66 52 66.7836 52 67.75V78.25C52 79.2164 52.7836 80 53.75 80ZM55.5 69.5H62.5V76.5H55.5V69.5Z" fill="white"/>
<path d="M53.75 63H64.25C65.2164 63 66 62.2164 66 61.25V50.75C66 49.7836 65.2164 49 64.25 49H53.75C52.7836 49 52 49.7836 52 50.75V61.25C52 62.2164 52.7836 63 53.75 63ZM55.5 52.5H62.5V59.5H55.5V52.5Z" fill="white"/>
<path d="M53.75 97H64.25C65.2164 97 66 96.2164 66 95.25V84.75C66 83.7836 65.2164 83 64.25 83H53.75C52.7836 83 52 83.7836 52 84.75V95.25C52 96.2164 52.7836 97 53.75 97ZM55.5 86.5H62.5V93.5H55.5V86.5Z" fill="white"/>
</svg>
