<svg width="32" height="32" viewBox="0 0 32 32" fill="none" xmlns="http://www.w3.org/2000/svg">
<path fill-rule="evenodd" clip-rule="evenodd" d="M15.9996 4.0001C9.37219 4.0001 3.99961 9.37268 3.99961 16.0001C3.99961 22.6275 9.37219 28.0001 15.9996 28.0001C22.627 28.0001 27.9996 22.6275 27.9996 16.0001C27.9996 9.37268 22.627 4.0001 15.9996 4.0001ZM1.59961 16.0001C1.59961 8.0472 8.04671 1.6001 15.9996 1.6001C23.9525 1.6001 30.3996 8.0472 30.3996 16.0001C30.3996 23.953 23.9525 30.4001 15.9996 30.4001C8.04671 30.4001 1.59961 23.953 1.59961 16.0001ZM21.8823 9.81323C22.4273 10.1903 22.5635 10.9378 22.1865 11.4828L14.9919 21.8828C14.7722 22.2004 14.413 22.3929 14.0269 22.3999C13.6407 22.4069 13.2748 22.2277 13.0437 21.9183L9.83827 17.6279C9.44161 17.0969 9.55046 16.345 10.0814 15.9483C10.6123 15.5516 11.3643 15.6605 11.7609 16.1914L13.9676 19.145L20.2127 10.1174C20.5898 9.57236 21.3373 9.43618 21.8823 9.81323Z" fill="#D9112F"/>
</svg>
