<svg width="12" height="12" viewBox="0 0 12 12" fill="none" xmlns="http://www.w3.org/2000/svg">
<path d="M6.55245 6.00002L10.8856 1.66686C11.0381 1.5143 11.0381 1.26696 10.8856 1.11442C10.733 0.96188 10.4857 0.96186 10.3331 1.11442L5.99999 5.44758L1.66686 1.11442C1.5143 0.96186 1.26696 0.96186 1.11442 1.11442C0.96188 1.26698 0.96186 1.51432 1.11442 1.66686L5.44755 6L1.11442 10.3332C0.96186 10.4857 0.96186 10.7331 1.11442 10.8856C1.19069 10.9619 1.29067 11 1.39065 11C1.49063 11 1.59059 10.9619 1.66688 10.8856L5.99999 6.55246L10.3331 10.8856C10.4094 10.9619 10.5094 11 10.6094 11C10.7093 11 10.8093 10.9619 10.8856 10.8856C11.0381 10.733 11.0381 10.4857 10.8856 10.3332L6.55245 6.00002Z" fill="#C4C4C4" stroke="#C4C4C4"/>
</svg>
