<svg width="66" height="80" viewBox="0 0 66 80" fill="none" xmlns="http://www.w3.org/2000/svg">
<path d="M19.5 39C23.0734 39 26 36.0896 26 32.5C26 28.9104 23.0896 26 19.5 26C15.9266 26 13 28.9104 13 32.5C13 36.0896 15.9104 39 19.5 39ZM19.5 28.4415C21.7475 28.4415 23.5746 30.2687 23.5746 32.5162C23.5746 34.7637 21.7475 36.5908 19.5 36.5908C17.2525 36.5908 15.4254 34.7475 15.4254 32.5C15.4254 30.2687 17.2525 28.4415 19.5 28.4415Z" fill="#0A95FA" fill-opacity="0.16"/>
<path d="M33 32C36.3061 32 39 29.3061 39 26C39 22.6939 36.3061 20 33 20C29.6939 20 27 22.6939 27 26C27 29.3061 29.6939 32 33 32ZM33 22.2959C35.0357 22.2959 36.7041 23.949 36.7041 26C36.7041 28.051 35.051 29.7041 33 29.7041C30.949 29.7041 29.2959 28.0357 29.2959 26C29.2959 23.9643 30.949 22.2959 33 22.2959Z" fill="#0A95FA" fill-opacity="0.16"/>
<path d="M21 68C24.3061 68 27 65.3061 27 62C27 58.6939 24.3061 56 21 56C17.6939 56 15 58.6939 15 62C15 65.3061 17.6939 68 21 68ZM21 58.2959C23.0357 58.2959 24.7041 59.949 24.7041 62C24.7041 64.051 23.051 65.7041 21 65.7041C18.949 65.7041 17.2959 64.051 17.2959 62C17.2959 59.949 18.9643 58.2959 21 58.2959Z" fill="#0A95FA" fill-opacity="0.16"/>
<path d="M36 73C39.3061 73 42 70.3061 42 67C42 63.6939 39.3061 61 36 61C32.6939 61 30 63.6939 30 67C30 70.3061 32.6939 73 36 73ZM36 63.2959C38.0357 63.2959 39.7041 64.949 39.7041 67C39.7041 69.051 38.051 70.7041 36 70.7041C33.9643 70.7041 32.2959 69.051 32.2959 67C32.2959 64.949 33.949 63.2959 36 63.2959Z" fill="#0A95FA" fill-opacity="0.16"/>
<path d="M6 48C6 51.86 9.14004 55 13 55C16.86 55 20 51.86 20 48C20 44.14 16.86 41 13 41C9.14004 41 6 44.14 6 48ZM13 43.2976C15.5886 43.2976 17.7024 45.4114 17.7024 48C17.7024 50.5886 15.5886 52.7024 13 52.7024C10.4114 52.7024 8.29759 50.5886 8.29759 48C8.29759 45.4114 10.4114 43.2976 13 43.2976Z" fill="#0A95FA" fill-opacity="0.16"/>
<path d="M0 46.7535C0 64.4369 15.3396 77.8831 33.228 78.9775C33.2595 78.9775 33.2752 78.9775 33.3067 78.9775C33.9203 78.9775 34.4395 78.4929 34.4867 77.8831C34.5339 77.2421 34.0304 76.6792 33.3854 76.6479C15.9847 75.5691 2.35995 62.4512 2.35995 46.7535C2.35995 28.9607 19.3988 15.2331 38.8762 16.9842C39.7572 17.9067 40.8585 18.6416 41.9913 19.1732C41.8969 19.5953 41.9126 20.0644 42.0228 20.4709L44.3512 29.0077C43.8006 29.6331 43.6118 30.493 43.8321 31.2904L44.3827 33.323C44.7131 34.5581 45.9717 35.3555 47.2304 35.1366L48.3317 39.8741C44.3512 41.6721 42.1644 44.0956 42.1644 46.7379C42.1644 49.3959 44.3984 51.8506 48.4418 53.6486C49.8735 54.2897 51.1321 55.1652 52.1391 56.2597C53.4292 61.9196 53.8382 63.7177 54.7822 66.5632C53.9011 70.3782 51.2737 73.302 47.5136 74.6153C44.6502 75.616 41.6766 76.257 38.6559 76.5228C38.0108 76.5854 37.5231 77.1482 37.5861 77.7893C37.649 78.4303 38.2154 78.915 38.8604 78.8525C42.07 78.571 45.248 77.8831 48.3002 76.8199C51.7772 75.6004 54.5147 73.1456 56.0566 69.9717C57.6299 73.818 59.0773 76.1945 60.4146 78.5085C61.0911 79.6811 62.4756 80.244 63.7972 79.9C65.103 79.5404 66.0155 78.3521 65.9998 77.0075C65.9526 73.0831 66.0627 67.173 63.2937 58.3704C63.1049 57.745 62.4441 57.4011 61.8148 57.6043C61.1855 57.7919 60.8551 58.4486 61.0439 59.074C63.6713 67.3763 63.6241 72.8486 63.6713 77.0701C63.6713 77.3515 63.4825 77.6017 63.2151 77.6798C62.9476 77.758 62.6487 77.6329 62.5071 77.3828C57.5355 68.7834 56.9219 66.2193 54.4203 55.4623L49.5588 34.5425L53.0201 33.6044L54.7822 39.1705L59.4234 53.8988C59.6122 54.5242 60.273 54.8682 60.9023 54.6649C61.5316 54.4773 61.8778 53.8206 61.6732 53.1952L57.3624 39.5614C63.8601 36.9503 65.6851 28.2728 60.1157 23.4415C57.8344 21.4559 55.2856 19.7673 52.5166 18.407L52.3279 17.7034C52.2177 17.2657 51.9975 16.8904 51.6985 16.5621C52.8942 14.8109 54.0742 12.1061 53.2089 8.94777C52.3751 5.91456 50.3298 4.74192 48.1744 3.50675C46.8685 2.75626 45.4997 1.9745 44.1939 0.676787C42.9195 -0.574024 40.8271 -0.011159 40.3708 1.70871C39.8988 3.47548 39.1279 4.83573 38.3884 6.14908C37.1455 8.338 35.6194 10.8709 37.2242 14.5295C17.1961 13.6696 0 28.1008 0 46.7535ZM51.3052 52.5229C50.7231 52.1477 50.0938 51.8193 49.433 51.5222C46.3336 50.1464 44.5558 48.3952 44.5558 46.7379C44.5558 45.1587 46.1291 43.5483 48.8981 42.2037L51.3052 52.5229ZM58.5738 25.1927C62.7588 28.82 61.4058 35.2773 56.6702 37.3099C55.4587 33.448 55.7891 34.4956 55.3014 32.9633C56.5286 32.4943 57.1736 31.1809 56.8432 29.9614L56.2926 27.9288C56.0723 27.1314 55.4744 26.4904 54.6878 26.2246L53.3977 21.5028C55.2384 22.5816 56.9691 23.8168 58.5738 25.1927ZM53.8068 28.4448C53.8854 28.4292 53.9798 28.4604 53.9955 28.5542L54.5462 30.5868C54.5619 30.665 54.5147 30.7588 54.4361 30.7744C52.8628 31.1966 48.3159 32.4317 46.8842 32.8226C46.8056 32.8383 46.7112 32.7914 46.6954 32.7132L46.1448 30.6806C46.1133 30.5868 46.1763 30.5086 46.2549 30.493L53.8068 28.4448ZM52.2649 26.4279L46.5224 27.9757L44.304 19.8611C44.2411 19.6578 44.3827 19.4389 44.5872 19.3764L49.5588 18.0318C49.7476 17.9849 49.9836 18.0787 50.0466 18.3132C50.786 20.9712 50.2668 19.1106 52.2649 26.4279ZM40.4337 7.29045C41.2046 5.94583 42.07 4.42922 42.6206 2.41229C44.1152 3.86635 45.6413 4.74192 46.9944 5.52368C48.9453 6.64941 50.3612 7.4468 50.9276 9.55754C51.6356 12.1217 50.4242 14.3732 49.4173 15.6865C49.2599 15.7022 49.0869 15.7334 48.9453 15.7647L43.9736 17.1093C43.8163 17.1562 43.6433 17.2188 43.5174 17.2813C41.4249 16.437 39.6943 14.936 39.0964 12.7627C38.5143 10.652 39.3167 9.24484 40.4337 7.29045Z" fill="#0A95FA" fill-opacity="0.16"/>
</svg>
