<svg width="20" height="20" viewBox="0 0 20 20" fill="none" xmlns="http://www.w3.org/2000/svg">
<path d="M2.91114 19H1.49401L2.49609 17.9757C3.03641 17.4234 3.37382 16.7051 3.46453 15.9259C2.05459 14.9801 1.02358 13.7358 0.471684 12.3089C-0.0798229 10.883 -0.149128 9.31336 0.271282 7.7696C0.775712 5.91724 1.95883 4.22888 3.60263 3.01548C5.38891 1.69696 7.61263 1 10.0334 1C13.083 1 15.6534 1.89556 17.4667 3.5898C19.1003 5.11616 20 7.175 20 9.38712C20 10.4618 19.7859 11.5076 19.3637 12.4952C18.9268 13.5173 18.287 14.4273 17.4621 15.2C15.6463 16.9009 13.0775 17.8 10.0334 17.8C8.90333 17.8 7.72412 17.6458 6.67132 17.3628C5.67478 18.4078 4.32441 19 2.91114 19ZM10.0334 2.2C5.17936 2.2 2.20087 5.15892 1.40228 8.0914C0.647628 10.8626 1.76007 13.4811 4.3781 15.096L4.67062 15.2764L4.66162 15.6255C4.64378 16.3165 4.48262 16.982 4.19417 17.5836C4.89658 17.3407 5.53394 16.9003 6.03305 16.2976L6.28123 15.9978L6.64928 16.1104C7.68213 16.4261 8.88396 16.6 10.0334 16.6C16.0745 16.6 18.826 12.8611 18.826 9.38712C18.826 7.51608 18.062 5.77176 16.6746 4.47552C15.0814 2.98688 12.7849 2.2 10.0334 2.2Z" fill="white"/>
</svg>
