<svg width="77" height="66" viewBox="0 0 77 66" fill="none" xmlns="http://www.w3.org/2000/svg">
<path d="M76.985 3.60082C76.985 1.62037 75.3611 0 73.3763 0H3.60867C1.6239 0 0 1.62037 0 3.60082V6.00136C0 6.01637 0.0150361 6.03137 0.0150361 6.04637V64.7997C0.0150361 65.4599 0.556337 66 1.21793 66H75.7971C76.4587 66 77 65.4599 77 64.7997V6.00136C77 5.98636 76.985 5.97136 76.985 5.95635V3.60082ZM3.60867 2.40055H4.84163C4.18004 2.40055 3.63874 2.94067 3.63874 3.60082C3.63874 4.26097 4.18004 4.80109 4.84163 4.80109C5.50322 4.80109 6.04452 4.26097 6.04452 3.60082C6.04452 2.94067 5.50322 2.40055 4.84163 2.40055H8.43527C7.77368 2.40055 7.23238 2.94067 7.23238 3.60082C7.23238 4.26097 7.77368 4.80109 8.43527 4.80109C9.09686 4.80109 9.63816 4.26097 9.63816 3.60082C9.63816 2.94067 9.09686 2.40055 8.43527 2.40055H12.0289C11.3673 2.40055 10.826 2.94067 10.826 3.60082C10.826 4.26097 11.3673 4.80109 12.0289 4.80109C12.6905 4.80109 13.2318 4.26097 13.2318 3.60082C13.2318 2.94067 12.6905 2.40055 12.0289 2.40055H73.3763C74.0379 2.40055 74.5792 2.94067 74.5792 3.60082V4.80109H12.059H8.4503H4.84163H2.40578V3.60082C2.40578 2.94067 2.94708 2.40055 3.60867 2.40055ZM74.5942 63.5995H2.42082V7.20164H74.5942V63.5995Z" fill="#D9112F" fill-opacity="0.16"/>
<path d="M22.8 55H7.2C6.54 55 6 55.45 6 56C6 56.55 6.54 57 7.2 57H22.8C23.46 57 24 56.55 24 56C24 55.45 23.46 55 22.8 55Z" fill="#D9112F" fill-opacity="0.16"/>
<path d="M69.8 55H54.2C53.54 55 53 55.45 53 56C53 56.55 53.54 57 54.2 57H69.8C70.46 57 71 56.55 71 56C71 55.45 70.475 55 69.8 55Z" fill="#D9112F" fill-opacity="0.16"/>
<path d="M45.8 55H30.2C29.54 55 29 55.45 29 56C29 56.55 29.54 57 30.2 57H45.8C46.46 57 47 56.55 47 56C47 55.45 46.475 55 45.8 55Z" fill="#D9112F" fill-opacity="0.16"/>
<path d="M42.7812 59H34.2188C33.5485 59 33 59.45 33 60C33 60.55 33.5485 61 34.2188 61H42.7812C43.4515 61 44 60.55 44 60C44 59.45 43.4515 59 42.7812 59Z" fill="#D9112F" fill-opacity="0.16"/>
<path d="M66.7778 59H58.2222C57.55 59 57 59.45 57 60C57 60.55 57.55 61 58.2222 61H66.7778C67.45 61 68 60.55 68 60C68 59.45 67.45 59 66.7778 59Z" fill="#D9112F" fill-opacity="0.16"/>
<path d="M19.7778 59H11.2222C10.55 59 10 59.45 10 60C10 60.55 10.55 61 11.2222 61H19.7778C20.45 61 21 60.55 21 60C21 59.45 20.45 59 19.7778 59Z" fill="#D9112F" fill-opacity="0.16"/>
<path d="M6.19643 42H70.8036C71.4616 42 72 41.4664 72 40.8143V11.1857C72 10.5336 71.4616 10 70.8036 10H6.19643C5.53839 10 5 10.5336 5 11.1857V40.8143C5 41.4664 5.53839 42 6.19643 42ZM7.39286 12.3715H69.6071V39.6285H7.39286V12.3715Z" fill="#D9112F" fill-opacity="0.16"/>
<path d="M64.8182 19H41.1818C40.5318 19 40 19.45 40 20C40 20.55 40.5318 21 41.1818 21H64.8182C65.4682 21 66 20.55 66 20C66 19.45 65.4682 19 64.8182 19Z" fill="#D9112F" fill-opacity="0.16"/>
<path d="M64.8182 23H41.1818C40.5318 23 40 23.45 40 24C40 24.55 40.5318 25 41.1818 25H64.8182C65.4682 25 66 24.55 66 24C66 23.45 65.4682 23 64.8182 23Z" fill="#D9112F" fill-opacity="0.16"/>
<path d="M64.8182 26H41.1818C40.5318 26 40 26.45 40 27C40 27.55 40.5318 28 41.1818 28H64.8182C65.4682 28 66 27.55 66 27C66 26.45 65.4682 26 64.8182 26Z" fill="#D9112F" fill-opacity="0.16"/>
<path d="M52.8333 30H41.1667C40.525 30 40 30.45 40 31C40 31.55 40.525 32 41.1667 32H52.8333C53.475 32 54 31.55 54 31C54 30.45 53.475 30 52.8333 30Z" fill="#D9112F" fill-opacity="0.16"/>
<path d="M31.3684 18.2H19.2632C19.2632 17.54 18.7184 17 18.0526 17C17.3868 17 16.8421 17.54 16.8421 18.2H15.6316C13.6342 18.2 12 19.82 12 21.8V31.4C12 33.38 13.6342 35 15.6316 35H31.3684C33.3658 35 35 33.38 35 31.4V21.8C35 19.82 33.3658 18.2 31.3684 18.2ZM32.5789 31.4C32.5789 32.06 32.0342 32.6 31.3684 32.6H15.6467C14.9809 32.6 14.4362 32.06 14.4362 31.4V21.8C14.4362 21.14 14.9809 20.6 15.6467 20.6H31.3684C32.0342 20.6 32.5789 21.14 32.5789 21.8V31.4Z" fill="#D9112F" fill-opacity="0.16"/>
<path d="M25 22C22.25 22 20 24.25 20 27C20 29.75 22.25 32 25 32C27.75 32 30 29.75 30 27C30 24.25 27.7656 22 25 22ZM25 29.5C23.625 29.5 22.5 28.375 22.5 27C22.5 25.625 23.625 24.5 25 24.5C26.375 24.5 27.5 25.625 27.5 27C27.5 28.375 26.3906 29.5 25 29.5Z" fill="#D9112F" fill-opacity="0.16"/>
<path d="M18 22C17.4375 22 17 22.45 17 23C17 23.55 17.45 24 18 24C18.55 24 19 23.55 19 23C19 22.45 18.55 22 18 22Z" fill="#D9112F" fill-opacity="0.16"/>
<path d="M20 49C20 46.25 17.75 44 15 44C12.25 44 10 46.25 10 49C10 51.75 12.25 54 15 54C17.75 54 20 51.75 20 49ZM12.5 49C12.5 47.625 13.625 46.5 15 46.5C16.375 46.5 17.5 47.625 17.5 49C17.5 50.375 16.375 51.5 15 51.5C13.625 51.5 12.5 50.375 12.5 49Z" fill="#D9112F" fill-opacity="0.16"/>
<path d="M44 49C44 46.25 41.75 44 39 44C36.25 44 34 46.25 34 49C34 51.75 36.25 54 39 54C41.75 54 44 51.75 44 49ZM36.5 49C36.5 47.625 37.625 46.5 39 46.5C40.375 46.5 41.5 47.625 41.5 49C41.5 50.375 40.375 51.5 39 51.5C37.625 51.5 36.5 50.375 36.5 49Z" fill="#D9112F" fill-opacity="0.16"/>
<path d="M67 49C67 46.25 64.75 44 62 44C59.25 44 57 46.25 57 49C57 51.75 59.25 54 62 54C64.75 54 67 51.75 67 49ZM59.5 49C59.5 47.625 60.625 46.5 62 46.5C63.375 46.5 64.5 47.625 64.5 49C64.5 50.375 63.375 51.5 62 51.5C60.625 51.5 59.5 50.375 59.5 49Z" fill="#D9112F" fill-opacity="0.16"/>
</svg>
