<svg width="81" height="77" viewBox="0 0 81 77" fill="none" xmlns="http://www.w3.org/2000/svg">
<g clip-path="url(#clip0)">
<path d="M78.1682 31.0283C77.3455 29.6514 76.5545 28.3526 76.1273 27.0539C75.6686 25.677 75.5262 24.1122 75.368 22.4693C75.1148 19.8405 74.8459 17.1023 73.2639 14.9586C71.666 12.7837 69.1189 11.6883 66.651 10.64C65.1164 9.9828 63.6768 9.37256 62.5219 8.52761C61.3828 7.6983 60.3545 6.55606 59.2629 5.31993C57.4752 3.31708 55.64 1.236 53.0139 0.391053C50.4984 -0.422602 47.8248 0.171992 45.2303 0.735292C43.6482 1.07953 42.0029 1.43942 40.4842 1.43942C38.9813 1.43942 37.3359 1.07953 35.7381 0.735292C33.1436 0.171992 30.4699 -0.422602 27.9545 0.391053C25.3283 1.236 23.4932 3.31708 21.7055 5.31993C20.6139 6.54041 19.6014 7.6983 18.4465 8.52761C18.051 8.80926 17.5922 9.09091 17.0385 9.3882C16.4531 9.6855 16.2475 10.4053 16.548 10.9686C16.8486 11.5319 17.5764 11.7509 18.1459 11.4536C18.7787 11.1094 19.3324 10.7808 19.8229 10.4209C21.1834 9.45079 22.3383 8.13643 23.4615 6.869C25.1068 5.02263 26.6572 3.27014 28.6664 2.62861C30.5648 2.01836 32.8113 2.51908 35.2002 3.03543C36.9088 3.41097 38.6807 3.80215 40.4525 3.80215C42.2244 3.80215 43.9963 3.41097 45.7049 3.03543C48.0938 2.51908 50.3402 2.01836 52.2387 2.62861C54.2479 3.27014 55.7982 5.02263 57.4436 6.869C58.5668 8.13643 59.7217 9.45079 61.0822 10.4209C62.4586 11.4067 64.0881 12.1108 65.6701 12.7837C67.9482 13.7538 70.084 14.677 71.3021 16.3356C72.5045 17.9629 72.726 20.263 72.9633 22.6883C73.1215 24.3939 73.2955 26.1464 73.8334 27.7737C74.3397 29.3228 75.2256 30.7936 76.0957 32.2175C77.3772 34.3455 78.5953 36.364 78.5953 38.492C78.5953 40.6201 77.3772 42.6385 76.0957 44.7666C75.2414 46.1905 74.3555 47.677 73.8334 49.2104C73.2955 50.8377 73.1373 52.5902 72.9633 54.2957C72.726 56.721 72.5045 59.0212 71.3021 60.6485C70.084 62.3071 67.9324 63.2146 65.6701 64.2004C64.0881 64.8732 62.4586 65.5774 61.0822 66.5631C59.7217 67.5333 58.5668 68.8476 57.4436 70.1151C55.7982 71.9614 54.2479 73.7139 52.2387 74.3555C50.3402 74.9657 48.0938 74.465 45.7049 73.9486C43.9963 73.5731 42.2244 73.1819 40.4525 73.1819C38.6807 73.1819 36.9088 73.5731 35.2002 73.9486C32.8113 74.465 30.5648 74.9657 28.6664 74.3555C26.6572 73.7139 25.1068 71.9614 23.4615 70.1151C22.3383 68.8476 21.1834 67.5333 19.8229 66.5631C18.4465 65.5774 16.817 64.8732 15.235 64.2004C12.9568 63.2303 10.8211 62.3071 9.60293 60.6485C8.40059 59.0212 8.1791 56.721 7.9418 54.2957C7.78359 52.5902 7.60957 50.8377 7.07168 49.2104C6.56543 47.6613 5.67949 46.1905 4.80937 44.7666C3.59121 42.6542 2.37305 40.6357 2.37305 38.5077C2.37305 36.3797 3.59121 34.3612 4.87266 32.2331C5.72695 30.8092 6.61289 29.3228 7.13496 27.7893C7.67285 26.162 7.83105 24.4095 8.00508 22.704C8.24238 20.2787 8.46387 17.9785 9.66621 16.3512C10.3623 15.4124 11.3906 14.63 13.0359 13.832C13.6213 13.5504 13.8586 12.8306 13.5738 12.2516C13.2891 11.6727 12.5613 11.438 11.976 11.7196C10.6312 12.3768 8.93848 13.347 7.75195 14.9586C6.16992 17.1023 5.90098 19.8405 5.64785 22.4693C5.48965 24.1122 5.33145 25.677 4.88848 27.0539C4.46133 28.3526 3.68613 29.6514 2.84766 31.0283C1.43965 33.3284 0 35.7225 0 38.5077C0 41.2929 1.43965 43.6713 2.83184 45.9871C3.65449 47.364 4.44551 48.6627 4.87266 49.9614C5.33145 51.3384 5.47383 52.9031 5.63203 54.5461C5.88516 57.1748 6.1541 59.9131 7.73613 62.0567C9.33398 64.2317 11.8811 65.327 14.349 66.3754C15.8836 67.0326 17.3232 67.6428 18.4781 68.4878C19.6172 69.3171 20.6455 70.4593 21.7371 71.6954C23.5248 73.6983 25.36 75.7794 27.9861 76.6243C28.8721 76.906 29.7738 77.0155 30.6914 77.0155C32.3684 77.0155 34.0928 76.6399 35.7697 76.2644C37.3518 75.9202 38.9971 75.5603 40.5158 75.5603C42.0187 75.5603 43.6641 75.9202 45.2619 76.2644C47.8564 76.8277 50.5301 77.4223 53.0455 76.6087C55.6717 75.7637 57.5068 73.6826 59.2945 71.6798C60.3861 70.4593 61.3986 69.3014 62.5535 68.4721C63.7242 67.6272 65.1639 67.0169 66.6826 66.3597C69.1506 65.3114 71.6977 64.2161 73.2955 62.0411C74.8775 59.8974 75.1465 57.1592 75.3996 54.5304C75.5578 52.8875 75.716 51.3228 76.159 49.9458C76.5861 48.6471 77.3613 47.3484 78.1998 45.9714C79.592 43.6556 81.0316 41.2772 81.0316 38.492C81.0316 35.7068 79.5604 33.3284 78.1682 31.0283Z" fill="#194FB9" fill-opacity="0.16"/>
<path d="M11.4062 29.1509C11.074 30.1836 10.4412 31.2163 9.77676 32.3272C8.6377 34.2206 7.45117 36.1921 7.45117 38.5079C7.45117 40.8237 8.6377 42.7796 9.77676 44.6886C10.4412 45.7995 11.074 46.8322 11.4062 47.8649C11.7701 48.9602 11.8809 50.212 12.0232 51.5264C12.2289 53.6857 12.4504 55.9389 13.7635 57.7227C15.0924 59.5378 17.1965 60.4297 19.2215 61.2903C20.4555 61.8223 21.6103 62.3073 22.5279 62.9802C23.4297 63.6373 24.2523 64.5605 25.1225 65.5463C26.5937 67.2049 28.0967 68.9105 30.2799 69.6146C31.0234 69.8493 31.7828 69.9432 32.5422 69.9432C33.9344 69.9432 35.3266 69.6302 36.7029 69.3329C38.0318 69.0356 39.2975 68.7696 40.4998 68.7696C41.7021 68.7696 42.9519 69.0513 44.2967 69.3329C46.4324 69.8024 48.6314 70.2874 50.7197 69.6146C52.9029 68.9105 54.4217 67.2049 55.8771 65.5463C56.7473 64.5605 57.5699 63.6373 58.4717 62.9802C59.3892 62.323 60.56 61.8223 61.7781 61.2903C63.8031 60.4297 65.9072 59.5221 67.2361 57.7227C68.5492 55.9233 68.7707 53.6857 68.9764 51.5264C69.1029 50.1964 69.2295 48.9446 69.5933 47.8649C69.9256 46.8322 70.5584 45.7995 71.2228 44.6886C72.3619 42.7952 73.5484 40.8237 73.5484 38.5079C73.5484 36.1921 72.3619 34.2362 71.2228 32.3272C70.5584 31.2163 69.9256 30.1836 69.5933 29.1509C69.2295 28.0555 69.1187 26.8038 68.9764 25.4894C68.7707 23.3301 68.5492 21.0769 67.2361 19.2931C65.9072 17.478 63.8031 16.5861 61.7781 15.7255C60.5441 15.1935 59.3892 14.7085 58.4717 14.0356C57.5699 13.3784 56.7473 12.4553 55.8771 11.4695C54.4059 9.81088 52.9029 8.10533 50.7197 7.40121C48.6314 6.72838 46.4324 7.21344 44.2967 7.68286C42.9678 7.98015 41.7021 8.24616 40.4998 8.24616C39.2975 8.24616 38.0476 7.96451 36.7029 7.68286C34.5672 7.21344 32.3682 6.72838 30.2799 7.40121C28.0967 8.10533 26.5779 9.81088 25.1225 11.4695C24.2523 12.4553 23.4297 13.3784 22.5279 14.0356C21.6103 14.6928 20.4396 15.1935 19.2215 15.7255C17.1965 16.5861 15.0924 17.4937 13.7635 19.2931C12.4504 21.0925 12.2289 23.3301 12.0232 25.4894C11.8809 26.8038 11.7543 28.0555 11.4062 29.1509ZM14.3646 25.7085C14.5545 23.7682 14.7285 21.9375 15.6619 20.6701C16.6111 19.3713 18.3197 18.6516 20.1391 17.8692C21.4363 17.3215 22.7652 16.7426 23.9043 15.9289C25.0275 15.1309 25.9768 14.0513 26.8943 13.0186C28.2074 11.5477 29.4414 10.1395 31.0076 9.63876C32.4789 9.16934 34.2824 9.56052 36.1809 9.983C37.5889 10.2959 39.0285 10.6089 40.484 10.6089C41.9394 10.6089 43.3949 10.2959 44.7871 9.983C46.6855 9.56052 48.4891 9.16934 49.9603 9.63876C51.5266 10.1395 52.7605 11.5321 54.0736 13.0186C54.9912 14.0513 55.9404 15.1309 57.0637 15.9289C58.2027 16.7426 59.5316 17.3215 60.8289 17.8692C62.6482 18.6516 64.3568 19.3713 65.306 20.6701C66.2394 21.9375 66.4293 23.7682 66.6033 25.7085C66.7457 27.1011 66.8723 28.5406 67.3152 29.8706C67.7266 31.1537 68.4543 32.3585 69.1662 33.5164C70.1945 35.222 71.1596 36.818 71.1596 38.4923C71.1596 40.1665 70.1945 41.7625 69.1662 43.4681C68.4701 44.6416 67.7424 45.8464 67.3152 47.1139C66.8723 48.4439 66.7299 49.8834 66.6033 51.276C66.4135 53.2163 66.2394 55.047 65.306 56.3144C64.3568 57.6132 62.6482 58.3329 60.8289 59.1153C59.5316 59.6629 58.2027 60.2419 57.0637 61.0556C55.9404 61.8536 54.9912 62.9332 54.0736 63.9659C52.7605 65.4368 51.5266 66.845 49.9603 67.3457C48.4891 67.8152 46.6855 67.424 44.7871 67.0171C43.3791 66.7042 41.9394 66.3913 40.484 66.3913C39.0285 66.3913 37.573 66.7042 36.1809 67.0171C34.2824 67.4396 32.4789 67.8308 31.0076 67.3457C29.4414 66.845 28.2074 65.4524 26.8943 63.9659C25.9768 62.9332 25.0275 61.8536 23.9043 61.0556C22.7652 60.2419 21.4363 59.6629 20.1391 59.1153C18.3197 58.3329 16.6111 57.6132 15.6619 56.3144C14.7285 55.047 14.5387 53.2163 14.3646 51.276C14.2223 49.8834 14.0957 48.4439 13.6527 47.1139C13.2414 45.8308 12.5137 44.626 11.8018 43.4681C10.7734 41.7625 9.8084 40.1665 9.8084 38.4923C9.8084 36.818 10.7734 35.222 11.8018 33.5164C12.4979 32.3429 13.2256 31.1381 13.6527 29.8706C14.0957 28.5406 14.2381 27.1011 14.3646 25.7085Z" fill="#194FB9" fill-opacity="0.16"/>
<path d="M36.2295 54.0612C36.1662 54.0612 36.0871 54.0612 36.0238 54.0612C34.2677 53.9986 32.6224 53.2006 31.4992 51.8706L25.614 44.8606C24.3009 43.3116 24.5224 40.9958 26.0886 39.6971L27.734 38.3357C29.3002 37.037 31.6416 37.2561 32.9547 38.8052L35.9289 42.3414C36.1029 42.5449 36.3086 42.5761 36.4193 42.5761C36.53 42.5761 36.7515 42.5605 36.9256 42.3727C36.9414 42.3571 36.9414 42.3571 36.9572 42.3414L52.1131 27.7113C52.7933 27.0072 53.7109 26.616 54.6918 26.5847C55.6726 26.5534 56.6218 26.9133 57.3338 27.6017L58.8842 29.0726C60.3713 30.4652 60.4187 32.7966 59.0107 34.2518C58.9949 34.2675 58.9949 34.2675 58.9791 34.2831L50.9265 42.1537C50.4677 42.6074 49.7084 42.6074 49.2496 42.138C48.7908 41.6842 48.7908 40.9332 49.2654 40.4794L57.3021 32.6245C57.7926 32.0925 57.7767 31.2632 57.2388 30.7781L55.6885 29.3073C55.4353 29.0569 55.0873 28.9318 54.7392 28.9474C54.3912 28.9631 54.059 29.1039 53.8058 29.3542C53.79 29.3699 53.79 29.3699 53.7742 29.3855L38.6183 44.0157C38.0172 44.6259 37.1787 44.9545 36.3244 44.9232C35.4543 44.8919 34.6474 44.5008 34.0937 43.8436L31.1195 40.3073C30.6449 39.744 29.8064 39.6658 29.2369 40.1352L27.5916 41.4965C27.022 41.9659 26.9429 42.7952 27.4175 43.3585L33.3027 50.3685C33.9988 51.1821 35.0113 51.6828 36.0871 51.7141C37.1629 51.7454 38.207 51.3229 38.9506 50.5562C38.9664 50.5406 38.9664 50.5406 38.9822 50.5249L45.6267 44.0157C46.0855 43.5619 46.8449 43.5619 47.3037 44.0313C47.7625 44.4851 47.7625 45.2362 47.2879 45.6899L40.6433 52.1835C39.5043 53.3884 37.9064 54.0612 36.2295 54.0612Z" fill="#194FB9" fill-opacity="0.16"/>
</g>
<defs>
<clipPath id="clip0">
<rect width="81" height="77" fill="white"/>
</clipPath>
</defs>
</svg>
