<svg width="56" height="56" viewBox="0 0 56 56" fill="none" xmlns="http://www.w3.org/2000/svg">
<path d="M11.375 54.25H44.625C45.7849 54.2487 46.897 53.7873 47.7172 52.9672C48.5373 52.147 48.9987 51.0349 49 49.875V13.125C49 13.0101 48.9774 12.8963 48.9334 12.7901C48.8894 12.684 48.825 12.5875 48.7437 12.5063L38.2437 2.00627C38.1625 1.92502 38.066 1.86057 37.9599 1.81659C37.8537 1.77262 37.7399 1.75 37.625 1.75H11.375C10.2151 1.7513 9.10304 2.21266 8.28285 3.03285C7.46266 3.85304 7.0013 4.96508 7 6.125V49.875C7.0013 51.0349 7.46266 52.147 8.28285 52.9672C9.10304 53.7873 10.2151 54.2487 11.375 54.25ZM38.5 4.73736L46.0126 12.25H41.125C40.429 12.2492 39.7618 11.9724 39.2697 11.4803C38.7776 10.9882 38.5008 10.321 38.5 9.625V4.73736ZM8.75 6.125C8.75081 5.42906 9.02763 4.76185 9.51974 4.26974C10.0118 3.77763 10.6791 3.50081 11.375 3.5H36.75V9.625C36.7513 10.7849 37.2127 11.897 38.0328 12.7172C38.853 13.5373 39.9651 13.9987 41.125 14H47.25V49.875C47.2492 50.5709 46.9724 51.2382 46.4803 51.7303C45.9882 52.2224 45.3209 52.4992 44.625 52.5H11.375C10.6791 52.4992 10.0118 52.2224 9.51974 51.7303C9.02763 51.2382 8.75081 50.5709 8.75 49.875V6.125Z" fill="#4B4A4A"/>
<path d="M21 18.375C21 18.6071 21.0922 18.8296 21.2563 18.9937C21.4204 19.1578 21.6429 19.25 21.875 19.25H42.875C43.1071 19.25 43.3296 19.1578 43.4937 18.9937C43.6578 18.8296 43.75 18.6071 43.75 18.375C43.75 18.1429 43.6578 17.9204 43.4937 17.7563C43.3296 17.5922 43.1071 17.5 42.875 17.5H21.875C21.6429 17.5 21.4204 17.5922 21.2563 17.7563C21.0922 17.9204 21 18.1429 21 18.375Z" fill="#4B4A4A"/>
<path d="M13.125 24.5H30.625C30.8571 24.5 31.0796 24.4078 31.2437 24.2437C31.4078 24.0796 31.5 23.8571 31.5 23.625C31.5 23.3929 31.4078 23.1704 31.2437 23.0063C31.0796 22.8422 30.8571 22.75 30.625 22.75H13.125C12.8929 22.75 12.6704 22.8422 12.5063 23.0063C12.3422 23.1704 12.25 23.3929 12.25 23.625C12.25 23.8571 12.3422 24.0796 12.5063 24.2437C12.6704 24.4078 12.8929 24.5 13.125 24.5Z" fill="#4B4A4A"/>
<path d="M42.875 28H27.125C26.8929 28 26.6704 28.0922 26.5063 28.2563C26.3422 28.4204 26.25 28.6429 26.25 28.875C26.25 29.1071 26.3422 29.3296 26.5063 29.4937C26.6704 29.6578 26.8929 29.75 27.125 29.75H42.875C43.1071 29.75 43.3296 29.6578 43.4937 29.4937C43.6578 29.3296 43.75 29.1071 43.75 28.875C43.75 28.6429 43.6578 28.4204 43.4937 28.2563C43.3296 28.0922 43.1071 28 42.875 28Z" fill="#4B4A4A"/>
<path d="M13.125 35H34.125C34.3571 35 34.5796 34.9078 34.7437 34.7437C34.9078 34.5796 35 34.3571 35 34.125C35 33.8929 34.9078 33.6704 34.7437 33.5063C34.5796 33.3422 34.3571 33.25 34.125 33.25H13.125C12.8929 33.25 12.6704 33.3422 12.5063 33.5063C12.3422 33.6704 12.25 33.8929 12.25 34.125C12.25 34.3571 12.3422 34.5796 12.5063 34.7437C12.6704 34.9078 12.8929 35 13.125 35Z" fill="#4B4A4A"/>
<path d="M13.125 19.25H18.375C18.6071 19.25 18.8296 19.1578 18.9937 18.9937C19.1578 18.8296 19.25 18.6071 19.25 18.375C19.25 18.1429 19.1578 17.9204 18.9937 17.7563C18.8296 17.5922 18.6071 17.5 18.375 17.5H13.125C12.8929 17.5 12.6704 17.5922 12.5063 17.7563C12.3422 17.9204 12.25 18.1429 12.25 18.375C12.25 18.6071 12.3422 18.8296 12.5063 18.9937C12.6704 19.1578 12.8929 19.25 13.125 19.25Z" fill="#4B4A4A"/>
<path d="M42.875 22.75H34.125C33.8929 22.75 33.6704 22.8422 33.5063 23.0063C33.3422 23.1704 33.25 23.3929 33.25 23.625C33.25 23.8571 33.3422 24.0796 33.5063 24.2437C33.6704 24.4078 33.8929 24.5 34.125 24.5H42.875C43.1071 24.5 43.3296 24.4078 43.4937 24.2437C43.6578 24.0796 43.75 23.8571 43.75 23.625C43.75 23.3929 43.6578 23.1704 43.4937 23.0063C43.3296 22.8422 43.1071 22.75 42.875 22.75Z" fill="#4B4A4A"/>
<path d="M13.125 29.75H23.625C23.8571 29.75 24.0796 29.6578 24.2437 29.4937C24.4078 29.3296 24.5 29.1071 24.5 28.875C24.5 28.6429 24.4078 28.4204 24.2437 28.2563C24.0796 28.0922 23.8571 28 23.625 28H13.125C12.8929 28 12.6704 28.0922 12.5063 28.2563C12.3422 28.4204 12.25 28.6429 12.25 28.875C12.25 29.1071 12.3422 29.3296 12.5063 29.4937C12.6704 29.6578 12.8929 29.75 13.125 29.75Z" fill="#4B4A4A"/>
<path d="M42.875 33.25H37.625C37.3929 33.25 37.1704 33.3422 37.0063 33.5063C36.8422 33.6704 36.75 33.8929 36.75 34.125C36.75 34.3571 36.8422 34.5796 37.0063 34.7437C37.1704 34.9078 37.3929 35 37.625 35H42.875C43.1071 35 43.3296 34.9078 43.4937 34.7437C43.6578 34.5796 43.75 34.3571 43.75 34.125C43.75 33.8929 43.6578 33.6704 43.4937 33.5063C43.3296 33.3422 43.1071 33.25 42.875 33.25Z" fill="#4B4A4A"/>
<path d="M35.875 43.75H27.125C26.8929 43.75 26.6704 43.8422 26.5063 44.0063C26.3422 44.1704 26.25 44.3929 26.25 44.625C26.25 44.8571 26.3422 45.0796 26.5063 45.2437C26.6704 45.4078 26.8929 45.5 27.125 45.5H35.875C36.1071 45.5 36.3296 45.4078 36.4937 45.2437C36.6578 45.0796 36.75 44.8571 36.75 44.625C36.75 44.3929 36.6578 44.1704 36.4937 44.0063C36.3296 43.8422 36.1071 43.75 35.875 43.75Z" fill="#4B4A4A"/>
<path d="M13.125 45.5H23.625C23.8571 45.5 24.0796 45.4078 24.2437 45.2437C24.4078 45.0796 24.5 44.8571 24.5 44.625C24.5 44.3929 24.4078 44.1704 24.2437 44.0063C24.0796 43.8422 23.8571 43.75 23.625 43.75H13.125C12.8929 43.75 12.6704 43.8422 12.5063 44.0063C12.3422 44.1704 12.25 44.3929 12.25 44.625C12.25 44.8571 12.3422 45.0796 12.5063 45.2437C12.6704 45.4078 12.8929 45.5 13.125 45.5Z" fill="#4B4A4A"/>
<path d="M13.125 40.25H20.125C20.3571 40.25 20.5796 40.1578 20.7437 39.9937C20.9078 39.8296 21 39.6071 21 39.375C21 39.1429 20.9078 38.9204 20.7437 38.7563C20.5796 38.5922 20.3571 38.5 20.125 38.5H13.125C12.8929 38.5 12.6704 38.5922 12.5063 38.7563C12.3422 38.9204 12.25 39.1429 12.25 39.375C12.25 39.6071 12.3422 39.8296 12.5063 39.9937C12.6704 40.1578 12.8929 40.25 13.125 40.25Z" fill="#4B4A4A"/>
<path d="M13.125 14H23.625C23.8571 14 24.0796 13.9078 24.2437 13.7437C24.4078 13.5796 24.5 13.3571 24.5 13.125C24.5 12.8929 24.4078 12.6704 24.2437 12.5063C24.0796 12.3422 23.8571 12.25 23.625 12.25H13.125C12.8929 12.25 12.6704 12.3422 12.5063 12.5063C12.3422 12.6704 12.25 12.8929 12.25 13.125C12.25 13.3571 12.3422 13.5796 12.5063 13.7437C12.6704 13.9078 12.8929 14 13.125 14Z" fill="#4B4A4A"/>
<path d="M33.25 39.375C33.25 39.1429 33.1578 38.9204 32.9937 38.7563C32.8296 38.5922 32.6071 38.5 32.375 38.5H23.625C23.3929 38.5 23.1704 38.5922 23.0063 38.7563C22.8422 38.9204 22.75 39.1429 22.75 39.375C22.75 39.6071 22.8422 39.8296 23.0063 39.9937C23.1704 40.1578 23.3929 40.25 23.625 40.25H32.375C32.6071 40.25 32.8296 40.1578 32.9937 39.9937C33.1578 39.8296 33.25 39.6071 33.25 39.375Z" fill="#4B4A4A"/>
<path d="M42.875 38.5H35.875C35.6429 38.5 35.4204 38.5922 35.2563 38.7563C35.0922 38.9204 35 39.1429 35 39.375C35 39.6071 35.0922 39.8296 35.2563 39.9937C35.4204 40.1578 35.6429 40.25 35.875 40.25H42.875C43.1071 40.25 43.3296 40.1578 43.4937 39.9937C43.6578 39.8296 43.75 39.6071 43.75 39.375C43.75 39.1429 43.6578 38.9204 43.4937 38.7563C43.3296 38.5922 43.1071 38.5 42.875 38.5Z" fill="#4B4A4A"/>
<path d="M42.875 43.75H39.375C39.1429 43.75 38.9204 43.8422 38.7563 44.0063C38.5922 44.1704 38.5 44.3929 38.5 44.625C38.5 44.8571 38.5922 45.0796 38.7563 45.2437C38.9204 45.4078 39.1429 45.5 39.375 45.5H42.875C43.1071 45.5 43.3296 45.4078 43.4937 45.2437C43.6578 45.0796 43.75 44.8571 43.75 44.625C43.75 44.3929 43.6578 44.1704 43.4937 44.0063C43.3296 43.8422 43.1071 43.75 42.875 43.75Z" fill="#4B4A4A"/>
</svg>
