<svg width="73" height="73" viewBox="0 0 73 73" fill="none" xmlns="http://www.w3.org/2000/svg">
<path d="M30.5 29C23.0597 29 17 35.0597 17 42.5C17 49.9403 23.0597 56 30.5 56C37.9403 56 44 49.9403 44 42.5C44 35.0597 37.9403 29 30.5 29ZM30.5 53.5455C24.4097 53.5455 19.4545 48.5903 19.4545 42.5C19.4545 36.4097 24.4097 31.4545 30.5 31.4545C36.5903 31.4545 41.5455 36.4097 41.5455 42.5C41.5455 48.5903 36.5903 53.5455 30.5 53.5455Z" fill="#0A95FA" fill-opacity="0.16"/>
<path d="M55.9667 46.2333V52.1494L64.8483 46.2333H66.9167C70.2777 46.2333 73 43.511 73 40.15V25.55C73 22.189 70.2777 19.4667 66.9167 19.4667H60.4075C59.4038 16.6379 56.7119 14.6 53.5333 14.6C50.3548 14.6 47.6629 16.6379 46.6592 19.4667H40.15C39.7394 19.4667 39.3288 19.5123 38.9333 19.5883V10.95C38.9333 7.58896 36.211 4.86667 32.85 4.86667H26.3408C25.3371 2.03792 22.6452 0 19.4667 0C16.2881 0 13.5963 2.03792 12.5925 4.86667H6.08333C2.72229 4.86667 0 7.58896 0 10.95V25.55C0 28.911 2.72229 31.6333 6.08333 31.6333H15.8471C13.5506 34.6902 12.1667 38.4771 12.1667 42.5833C12.1667 46.2485 13.2617 49.64 15.1171 52.5144L13.3833 54.2481L12.1667 53.0315L1.61208 63.586C0.577917 64.6202 0 66.0042 0 67.4794C0 70.521 2.47896 73 5.52063 73C6.99583 73 8.37979 72.4221 9.42917 71.3879L19.9837 60.8333L18.7671 59.6167L20.5008 57.8829C23.36 59.7383 26.7667 60.8333 30.4319 60.8333C39.2527 60.8333 46.6135 54.5523 48.3169 46.2333H55.9667ZM60.8333 21.9H66.9167C68.9242 21.9 70.5667 23.5425 70.5667 25.55V40.15C70.5667 42.1575 68.9242 43.8 66.9167 43.8H64.1183L58.4 47.6173V43.8H48.6058C48.6363 43.3894 48.6667 42.994 48.6667 42.5833C48.6667 42.1727 48.6363 41.7773 48.6058 41.3667H65.7V38.9333C65.7 33.8081 62.5215 29.4281 58.035 27.6335C59.7383 26.2952 60.8333 24.2269 60.8333 21.9ZM57.0921 38.9333L56.3469 29.6258C60.3467 30.8425 63.2667 34.5533 63.2667 38.9333H57.0921ZM53.8679 29.2152L54.6435 38.9333H52.4079L53.1835 29.2152C53.3052 29.2152 53.4117 29.2 53.5181 29.2C53.6246 29.2 53.7615 29.2152 53.8679 29.2152ZM49.9746 38.9333H48.3017C47.8606 36.7738 47.0242 34.751 45.8835 32.9413C47.1306 31.3444 48.8188 30.2038 50.7198 29.6258L49.9746 38.9333ZM53.5333 17.0333C56.21 17.0333 58.4 19.2233 58.4 21.9C58.4 24.5767 56.21 26.7667 53.5333 26.7667C50.8567 26.7667 48.6667 24.5767 48.6667 21.9C48.6667 19.2233 50.8567 17.0333 53.5333 17.0333ZM46.2333 21.9C46.2333 24.2269 47.3283 26.2952 49.0317 27.6335C47.2675 28.3331 45.6858 29.4433 44.4083 30.8881C42.34 28.4092 39.6177 26.5081 36.5152 25.3979C36.5913 23.4513 38.1881 21.9 40.15 21.9H46.2333ZM26.7667 7.3H32.85C34.8575 7.3 36.5 8.9425 36.5 10.95V20.7138C35.2377 21.6719 34.3708 23.0863 34.1579 24.7135C33.3367 24.5463 32.5002 24.4398 31.6333 24.3942V24.3333C31.6333 19.2081 28.4548 14.8281 23.9683 13.0335C25.6717 11.6952 26.7667 9.62687 26.7667 7.3ZM9.73333 24.3333C9.73333 19.9381 12.6533 16.2273 16.6531 15.0258L15.9079 24.3333H9.73333ZM19.1321 14.6152C19.2385 14.6152 19.3602 14.6 19.4667 14.6C19.5731 14.6 19.6948 14.6152 19.8013 14.6152L20.5769 24.3333H18.3412L19.1321 14.6152ZM22.2802 15.0258C26.28 16.2425 29.2 19.9533 29.2 24.3333H23.0254L22.2802 15.0258ZM19.4667 2.43333C22.1433 2.43333 24.3333 4.62333 24.3333 7.3C24.3333 9.97667 22.1433 12.1667 19.4667 12.1667C16.79 12.1667 14.6 9.97667 14.6 7.3C14.6 4.62333 16.79 2.43333 19.4667 2.43333ZM2.43333 25.55V10.95C2.43333 8.9425 4.07583 7.3 6.08333 7.3H12.1667C12.1667 9.62687 13.2617 11.6952 14.965 13.0335C10.4785 14.8281 7.3 19.2081 7.3 24.3333V26.7667H21.3525C20.1663 27.451 19.056 28.2723 18.0523 29.2H6.08333C4.07583 29.2 2.43333 27.5575 2.43333 25.55ZM7.69542 69.6694C7.1175 70.2473 6.34188 70.5667 5.52063 70.5667C3.81729 70.5667 2.43333 69.1827 2.43333 67.4794C2.43333 66.6581 2.75271 65.8825 3.33063 65.3046L12.1667 56.4685L16.5315 60.8333L7.69542 69.6694ZM17.0333 57.8981L15.1019 55.9667L16.5923 54.4763C17.1854 55.1606 17.8394 55.8146 18.5238 56.4077L17.0333 57.8981ZM30.4167 58.4C21.7023 58.4 14.6 51.2977 14.6 42.5833C14.6 33.869 21.7023 26.7667 30.4167 26.7667C39.131 26.7667 46.2333 33.869 46.2333 42.5833C46.2333 51.2977 39.131 58.4 30.4167 58.4Z" fill="#0A95FA" fill-opacity="0.16"/>
<path d="M66 24H68V26H66V24Z" fill="#0A95FA" fill-opacity="0.16"/>
<path d="M66 29H68V31H66V29Z" fill="#0A95FA" fill-opacity="0.16"/>
<path d="M5 10H7V12H5V10Z" fill="#0A95FA" fill-opacity="0.16"/>
<path d="M5 15H7V17H5V15Z" fill="#0A95FA" fill-opacity="0.16"/>
</svg>
