<svg width="74" height="77" viewBox="0 0 74 77" fill="none" xmlns="http://www.w3.org/2000/svg">
<path d="M50.4874 0C37.901 0 27.2418 10.6364 27.0046 23.5152C26.8564 31.1818 30.2809 38.4091 36.1961 43.0455C35.7662 43.8182 35.2325 44.5303 34.6395 45.1818C32.9494 47 34.2096 50 36.6705 50C39.6207 50 42.6153 48.8636 44.928 46.7121C45.4469 46.2273 45.4766 45.4091 45.017 44.8788C44.5426 44.3485 43.742 44.3182 43.2232 44.7879C41.4293 46.4545 39.1018 47.3939 36.6705 47.4091C36.626 47.4091 36.4926 47.4091 36.4333 47.2576C36.374 47.1061 36.463 47 36.4926 46.9697C37.5304 45.8636 38.3606 44.5909 38.9832 43.197C39.2352 42.6212 39.0573 41.9545 38.5533 41.5909C32.7715 37.4848 29.4063 30.7424 29.5545 23.5606C29.7769 12.1364 39.4131 2.51515 50.5912 2.57576C62.0509 2.62121 71.4055 12.197 71.4499 23.8939C71.4944 34.8485 62.8218 44.4697 52.133 45.3333C51.4362 45.3939 50.9173 46.0152 50.9766 46.7273C51.0359 47.4394 51.6438 47.9697 52.3405 47.9091C64.3784 46.9242 74.0443 36.2879 73.9998 23.8788C73.9109 10.7879 63.5334 0 50.4874 0Z" fill="#D9112F" fill-opacity="0.16"/>
<path d="M35.4372 30.8892L36.412 32.6108C37.1019 33.8296 38.4816 34.4848 39.8464 34.241L41.2711 33.982C42.5009 35.0332 43.9256 35.8712 45.4253 36.4197L45.9202 37.7909C46.4001 39.1163 47.6449 40 49.0246 40H50.9742C52.354 40 53.6137 39.1163 54.0786 37.7909L54.5735 36.4197C56.0883 35.8712 57.498 35.0332 58.7277 33.982L60.1525 34.241C61.5172 34.4848 62.8969 33.8296 63.5868 32.6108L64.5616 30.8892C65.2515 29.6704 65.1165 28.1316 64.2317 27.0499L63.3019 25.9377C63.5718 24.3837 63.6018 22.723 63.3019 21.0623L64.2317 19.9501C65.1165 18.8684 65.2515 17.3296 64.5616 16.1108L63.5868 14.3892C62.8969 13.1704 61.5172 12.5152 60.1525 12.759L58.7277 13.018C57.498 11.9668 56.0733 11.1288 54.5735 10.5803L54.0786 9.20914C53.5987 7.88366 52.354 7 50.9742 7H49.0246C47.6449 7 46.3851 7.88366 45.9202 9.20914L45.2153 11.1745C44.9754 11.8449 45.3203 12.5914 45.9802 12.8352C46.6401 13.0789 47.3749 12.7285 47.6149 12.0582L48.3197 10.0928C48.4247 9.80332 48.7097 9.59003 49.0096 9.59003H50.9592C51.2742 9.59003 51.5441 9.78809 51.6491 10.0928L52.354 12.0582C52.4889 12.4391 52.8039 12.7438 53.1788 12.8657C54.7535 13.3532 56.2382 14.2216 57.438 15.3643C57.7379 15.6385 58.1429 15.7604 58.5328 15.6994L60.5574 15.3338C60.8573 15.2729 61.1723 15.4252 61.3222 15.6994L62.2971 17.4211C62.447 17.6953 62.417 18.0457 62.2221 18.2742L60.9023 19.874C60.6474 20.1939 60.5424 20.6053 60.6324 21.0014C61.0073 22.6468 61.0073 24.3684 60.6324 26.0139C60.5424 26.41 60.6474 26.8366 60.9023 27.1413L62.2221 28.741C62.417 28.9848 62.447 29.3352 62.2971 29.5942L61.3222 31.3158C61.1723 31.59 60.8573 31.7424 60.5574 31.6814L58.5328 31.3158C58.1429 31.2396 57.7229 31.3615 57.438 31.651C56.2232 32.7936 54.7535 33.6621 53.1788 34.1496C52.7889 34.2715 52.4889 34.5609 52.354 34.9571L51.6491 36.9224C51.5441 37.2119 51.2592 37.4252 50.9592 37.4252H49.0096C48.6947 37.4252 48.4247 37.2271 48.3197 36.9224L47.6149 34.9571C47.4799 34.5762 47.165 34.2715 46.79 34.1496C45.2153 33.6621 43.7306 32.7936 42.5309 31.651C42.2309 31.3767 41.826 31.2548 41.4361 31.3158L39.4115 31.6814C39.1115 31.7424 38.7966 31.59 38.6466 31.3158L37.6718 29.5942C37.5218 29.3199 37.5518 28.9695 37.7468 28.741L39.0665 27.1413C39.3215 26.8213 39.4265 26.41 39.3365 26.0139C38.9615 24.3684 38.9615 22.6468 39.3365 21.0014C39.4265 20.6053 39.3215 20.1787 39.0665 19.874L37.7468 18.2742C37.5518 18.0305 37.5218 17.6801 37.6718 17.4211L38.6466 15.6994C38.7966 15.4252 39.1115 15.2881 39.4115 15.3338L41.4361 15.6994C42.1259 15.8213 42.8008 15.349 42.9208 14.6482C43.0408 13.9474 42.5759 13.2618 41.886 13.1399L39.8614 12.7438C38.4966 12.5 37.1169 13.1551 36.427 14.374L35.4522 16.0956C34.7624 17.3144 34.8973 18.8532 35.7822 19.9349L36.712 21.0471C36.427 22.6621 36.427 24.3227 36.712 25.9224L35.7822 27.0346C34.8823 28.1316 34.7474 29.6704 35.4372 30.8892Z" fill="#D9112F" fill-opacity="0.16"/>
<path d="M49.5146 18.5C52.2632 18.5 54.5146 20.7368 54.5146 23.5C54.5146 24.1871 55.0702 24.7427 55.7573 24.7427C56.4444 24.7427 57 24.1871 57 23.5C57 19.3626 53.6374 16 49.5 16C45.3626 16 42 19.3626 42 23.5C42 27.6374 45.3626 31 49.5 31C50.1871 31 50.7427 30.4444 50.7427 29.7573C50.7427 29.0702 50.1871 28.5146 49.5 28.5146C46.7515 28.5146 44.5 26.2778 44.5 23.5146C44.5 20.7515 46.7661 18.5 49.5146 18.5Z" fill="#D9112F" fill-opacity="0.16"/>
<path d="M45.9911 53.4532C45.3753 53.0929 44.5943 53.3031 44.2338 53.9187C43.8733 54.5343 44.0836 55.3151 44.6994 55.6755C48.1389 57.6875 50.9926 60.5703 52.9751 64.0388C53.7562 65.3901 53.5459 67.1168 52.4645 68.228C31.7075 89.8645 -10.287 49.4442 6.41467 27.1921C9.64387 29.2341 12.5426 31.7416 15.0209 34.6395C15.4865 35.18 16.2975 35.2401 16.8232 34.7746C17.3639 34.3092 17.424 33.4984 16.9584 32.9728C14.39 29.9699 11.4011 27.3723 8.08184 25.2251C8.29211 24.9999 8.5174 24.7747 8.75772 24.5495C9.88418 23.4684 11.5964 23.2582 12.9482 24.039C16.4627 26.051 19.3915 28.9639 21.4041 32.4623C22.2152 33.8587 22.2603 35.8707 21.0587 36.6365C21.0437 36.6515 21.0136 36.6665 20.9986 36.6815C17.7244 38.9338 16.1774 42.2671 16.643 46.0659C17.7694 55.2701 30.0103 64.4142 37.8205 58.6334C41.0947 60.6904 44.0385 63.228 46.5468 66.1709C46.8021 66.4712 47.1626 66.6213 47.5231 66.6213C48.6045 66.6213 49.2203 65.3451 48.4993 64.5042C45.6006 61.1259 42.2062 58.243 38.3762 55.9607C37.8956 55.6604 37.2647 55.7355 36.8592 56.1109C30.8664 61.5013 20.1275 53.3632 19.1963 45.7506C18.8508 42.8677 19.9473 40.5254 22.4705 38.7836C25.0088 37.147 25.0539 33.6485 23.642 31.1861C21.4041 27.2972 18.1449 24.054 14.2398 21.8017C11.9118 20.4654 8.92293 20.8258 7.00043 22.6876C-18.0371 46.6965 30.3107 95.0146 54.3119 70.0147C56.1743 68.0778 56.5348 65.1048 55.198 62.7625C53.0052 58.9187 49.821 55.6905 45.9911 53.4532Z" fill="#D9112F" fill-opacity="0.16"/>
</svg>
