<svg width="71" height="69" viewBox="0 0 71 69" fill="none" xmlns="http://www.w3.org/2000/svg">
<g clip-path="url(#clip0)">
<path d="M45.2905 17.4955C47.2042 17.4955 48.7573 15.9465 48.7573 14.0379C48.7573 12.1293 47.2042 10.5803 45.2905 10.5803C43.3769 10.5803 41.8237 12.1293 41.8237 14.0379C41.8237 14.8124 42.0872 15.5316 42.5171 16.1125L36.8177 24.0512C36.471 23.9405 36.1105 23.8852 35.736 23.8852C34.8208 23.8852 33.9888 24.2448 33.3786 24.8118L29.579 22.6681C29.6345 22.433 29.6622 22.1841 29.6622 21.9351C29.6622 20.0265 28.1091 18.4775 26.1954 18.4775C24.2817 18.4775 22.7286 20.0265 22.7286 21.9351C22.7286 22.1841 22.7563 22.433 22.8118 22.6681L19.0122 24.8118C18.3882 24.231 17.57 23.8852 16.6548 23.8852C14.7411 23.8852 13.188 25.4342 13.188 27.3428C13.188 29.2514 14.7411 30.8004 16.6548 30.8004C18.5685 30.8004 20.1216 29.2514 20.1216 27.3428C20.1216 27.0939 20.0938 26.8449 20.0384 26.6098L23.838 24.4661C24.462 25.0469 25.2802 25.3927 26.1954 25.3927C27.1106 25.3927 27.9427 25.0331 28.5528 24.4661L32.3524 26.6098C32.297 26.8449 32.2692 27.0939 32.2692 27.3428C32.2692 29.2514 33.8224 30.8004 35.736 30.8004C37.6497 30.8004 39.2028 29.2514 39.2028 27.3428C39.2028 26.5683 38.9394 25.8491 38.5095 25.2682L44.2089 17.3296C44.5556 17.4402 44.9161 17.4955 45.2905 17.4955ZM45.2905 12.6549C46.0532 12.6549 46.6772 13.2773 46.6772 14.0379C46.6772 14.7986 46.0532 15.421 45.2905 15.421C44.5278 15.421 43.9038 14.7986 43.9038 14.0379C43.9038 13.2773 44.5278 12.6549 45.2905 12.6549ZM16.6548 28.7258C15.8921 28.7258 15.2681 28.1035 15.2681 27.3428C15.2681 26.5821 15.8921 25.9598 16.6548 25.9598C17.4175 25.9598 18.0415 26.5821 18.0415 27.3428C18.0415 28.1035 17.4175 28.7258 16.6548 28.7258ZM26.2093 23.3181C25.4466 23.3181 24.8226 22.6958 24.8226 21.9351C24.8226 21.1744 25.4466 20.5521 26.2093 20.5521C26.972 20.5521 27.596 21.1744 27.596 21.9351C27.596 22.6958 26.972 23.3181 26.2093 23.3181ZM35.7499 28.7258C34.9872 28.7258 34.3632 28.1035 34.3632 27.3428C34.3632 26.5821 34.9872 25.9598 35.7499 25.9598C36.5126 25.9598 37.1366 26.5821 37.1366 27.3428C37.1366 28.1035 36.5126 28.7258 35.7499 28.7258Z" fill="#8E67FF"/>
<path d="M58.0758 51.2278H50.7955H11.1492H2.93984C2.46836 51.2278 2.08008 50.8406 2.08008 50.3704V7.57902C2.08008 7.10879 2.46836 6.72154 2.93984 6.72154H7.84883C8.41738 6.72154 8.88887 6.2513 8.88887 5.68425C8.88887 5.11721 8.41738 4.64697 7.84883 4.64697H2.93984C1.31738 4.64697 0 5.96086 0 7.57902V50.3704C0 51.9885 1.31738 53.3024 2.93984 53.3024H10.1092V55.5844C10.1092 56.8845 11.177 57.9494 12.4805 57.9494H22.8947L17.9996 67.4924C17.7361 68.0042 17.9441 68.6265 18.4572 68.8893C18.6098 68.9723 18.7762 68.9999 18.9287 68.9999C19.3031 68.9999 19.6775 68.7925 19.8578 68.4329L25.2383 57.9494H36.7342L42.1147 68.4329C42.2949 68.7925 42.6693 68.9999 43.0438 68.9999C43.2102 68.9999 43.3627 68.9585 43.5152 68.8893C44.0283 68.6265 44.2225 68.0042 43.9729 67.4924L39.0777 57.9494H49.492C50.7955 57.9494 51.8633 56.8983 51.8633 55.5844V53.3024H58.1035C58.6721 53.3024 59.1436 52.8322 59.1436 52.2651C59.1436 51.6981 58.6443 51.2278 58.0758 51.2278ZM49.7555 55.5844C49.7555 55.7366 49.6307 55.8749 49.4643 55.8749H12.4805C12.3279 55.8749 12.1893 55.7504 12.1893 55.5844V53.3024H49.7555V55.5844Z" fill="#8E67FF"/>
<path d="M12.0093 6.72159H26.2509H35.7222H59.019C59.4905 6.72159 59.8788 7.10884 59.8788 7.57907V17.4402C59.8788 18.0072 60.3503 18.4775 60.9188 18.4775C61.4874 18.4775 61.9589 18.0072 61.9589 17.4402V7.57907C61.9589 5.96091 60.6415 4.64702 59.019 4.64702H36.7483V2.60012C36.7483 1.16176 35.5835 0 34.1413 0H27.8179C26.3757 0 25.2108 1.16176 25.2108 2.60012V4.63319H12.0093C11.4407 4.63319 10.9692 5.10343 10.9692 5.67048C10.9692 6.25135 11.4269 6.72159 12.0093 6.72159ZM27.2771 2.60012C27.2771 2.30968 27.5128 2.07456 27.804 2.07456H34.1274C34.4187 2.07456 34.6544 2.30968 34.6544 2.60012V4.63319H27.2632L27.2771 2.60012Z" fill="#8E67FF"/>
<path d="M14.5464 36.0974C13.9778 36.0974 13.5063 36.5676 13.5063 37.1347V46.3043C13.5063 46.8713 13.9778 47.3415 14.5464 47.3415H18.762C19.3306 47.3415 19.8021 46.8713 19.8021 46.3043V37.1347C19.8021 36.5676 19.3306 36.0974 18.762 36.0974H14.5464ZM17.722 45.267H15.5864V38.172H17.722V45.267Z" fill="#8E67FF"/>
<path d="M24.0873 30.8004C23.5187 30.8004 23.0472 31.2706 23.0472 31.8377V46.3043C23.0472 46.8714 23.5187 47.3416 24.0873 47.3416H28.3029C28.8715 47.3416 29.3429 46.8714 29.3429 46.3043V31.8377C29.3429 31.2706 28.8715 30.8004 28.3029 30.8004H24.0873ZM27.2767 45.2671H25.1412V32.875H27.2767V45.2671Z" fill="#8E67FF"/>
<path d="M33.6421 36.0974C33.0735 36.0974 32.6021 36.5676 32.6021 37.1347V46.3043C32.6021 46.8713 33.0735 47.3415 33.6421 47.3415H37.8577C38.4263 47.3415 38.8978 46.8713 38.8978 46.3043V37.1347C38.8978 36.5676 38.4263 36.0974 37.8577 36.0974H33.6421ZM36.8177 45.267H34.6821V38.172H36.8177V45.267Z" fill="#8E67FF"/>
<path d="M43.1821 42.2242C42.6136 42.2242 42.1421 42.6945 42.1421 43.2615V46.3042C42.1421 46.8713 42.6136 47.3415 43.1821 47.3415H47.3978C47.9663 47.3415 48.4378 46.8713 48.4378 46.3042C48.4378 45.7372 47.9663 45.2669 47.3978 45.2669H44.2222V43.2615C44.2222 42.6806 43.7646 42.2242 43.1821 42.2242Z" fill="#8E67FF"/>
<path d="M70.4729 52.2099L64.51 41.9062C66.0215 40.3019 67.117 38.3379 67.7133 36.1527C68.6563 32.6536 68.1709 29.0024 66.3543 25.8629C62.6102 19.3903 54.276 17.1636 47.7862 20.8978C41.2963 24.632 39.0637 32.9441 42.8079 39.4167C44.6245 42.5562 47.5504 44.7968 51.0588 45.7372C52.2237 46.0553 53.4163 46.2075 54.595 46.2075C55.6211 46.2075 56.6473 46.083 57.6596 45.8617L63.6225 56.1654C64.3575 57.4239 65.6887 58.1431 67.0477 58.1293C67.7133 58.1293 68.3928 57.9633 69.0168 57.6037C70.2372 56.8984 70.9998 55.5983 70.9998 54.1876C70.9998 53.4823 70.8196 52.8046 70.4729 52.2099ZM51.5996 43.718C48.6321 42.9296 46.1498 41.021 44.6106 38.3656C41.435 32.8888 43.3209 25.8491 48.8262 22.6819C50.6289 21.6446 52.612 21.1467 54.5672 21.1467C58.5471 21.1467 62.4299 23.2074 64.5516 26.8863C66.0909 29.5418 66.493 32.6398 65.7026 35.5995C64.9121 38.5592 62.9985 41.0349 60.336 42.57C57.6596 44.1052 54.5672 44.5201 51.5996 43.718ZM67.9768 55.7919C67.0754 56.3037 65.9383 55.9994 65.4114 55.1143L59.6704 45.1978C60.2389 44.9627 60.8075 44.6861 61.3621 44.368C61.903 44.0499 62.4299 43.7041 62.9153 43.3169L68.6563 53.2333C68.8227 53.5238 68.9059 53.8419 68.9059 54.16C68.9198 54.8376 68.5592 55.46 67.9768 55.7919Z" fill="#8E67FF"/>
<path d="M63.9968 35.5581C64.7317 33.1931 64.5515 30.6759 63.4976 28.4492C63.2479 27.9375 62.6378 27.7024 62.1108 27.9514C61.5977 28.2003 61.362 28.8088 61.6116 29.3344C62.4436 31.0909 62.5823 33.0824 61.9999 34.9495C61.4175 36.8167 60.1556 38.3933 58.4499 39.3753C56.6472 40.4126 54.5393 40.6892 52.5286 40.1498C50.5179 39.6104 48.8399 38.3242 47.7999 36.5262C45.6505 32.8197 46.9263 28.0482 50.6565 25.9044C53.3745 24.3416 56.7581 24.5491 59.2681 26.4438C59.7257 26.7896 60.3774 26.6928 60.7241 26.2364C61.0708 25.78 60.9737 25.1299 60.5161 24.7842C57.3405 22.3915 53.0694 22.1287 49.6165 24.1065C47.3284 25.4204 45.6921 27.5503 45.0126 30.0812C44.3331 32.6122 44.6798 35.2815 45.9972 37.5497C47.3145 39.8317 49.4501 41.4637 51.9878 42.1414C52.8337 42.3627 53.7073 42.4871 54.5532 42.4871C56.2589 42.4871 57.9507 42.0446 59.4761 41.1594C61.6671 39.9147 63.2618 37.9231 63.9968 35.5581Z" fill="#8E67FF"/>
</g>
<defs>
<clipPath id="clip0">
<rect width="71" height="69" fill="white"/>
</clipPath>
</defs>
</svg>
