<svg width="1061" height="303" viewBox="0 0 1061 303" fill="none" xmlns="http://www.w3.org/2000/svg">
<path d="M75.8425 2.82323H0.483398V111H24.1851V23.0304H75.8425V2.82323Z" fill="#F4F4F4"/>
<path d="M136.649 0.240356C104.287 0.240356 83.0166 22.7265 83.0166 57.0636C83.0166 90.9448 104.439 113.583 136.497 113.583C168.251 113.583 189.674 90.7928 189.674 57.0636C189.674 23.1824 168.251 0.240356 136.649 0.240356ZM136.345 19.6879C154.425 19.6879 165.669 33.8177 165.669 56.6078C165.669 79.7017 154.577 93.9835 136.649 93.9835C118.265 93.8315 107.022 79.8536 107.022 56.6078C107.022 34.1216 118.417 19.6879 136.345 19.6879Z" fill="#F4F4F4"/>
<path d="M206.132 2.82323V111H229.681V72.105H253.991C275.717 72.105 292.43 61.1658 292.43 37.6161C292.43 13.7625 276.173 2.82323 252.775 2.82323H206.132ZM229.681 22.2707H250.952C261.435 22.2707 269.336 26.373 269.336 37.9199C269.336 49.9227 261.435 53.4172 250.8 53.4172H229.681V22.2707Z" fill="#F4F4F4"/>
<path d="M356.241 0.240356C323.879 0.240356 302.608 22.7265 302.608 57.0636C302.608 90.9448 324.031 113.583 356.089 113.583C387.843 113.583 409.266 90.7928 409.266 57.0636C409.266 23.1824 387.843 0.240356 356.241 0.240356ZM355.937 19.6879C374.017 19.6879 385.26 33.8177 385.26 56.6078C385.26 79.7017 374.169 93.9835 356.241 93.9835C337.857 93.8315 326.614 79.8536 326.614 56.6078C326.614 34.1216 338.009 19.6879 355.937 19.6879Z" fill="#F4F4F4"/>
<path d="M425.723 2.82323V111H449.273V72.105H473.582C495.309 72.105 512.022 61.1658 512.022 37.6161C512.022 13.7625 495.765 2.82323 472.367 2.82323H425.723ZM449.273 22.2707H470.544C481.027 22.2707 488.928 26.373 488.928 37.9199C488.928 49.9227 481.027 53.4172 470.392 53.4172H449.273V22.2707Z" fill="#F4F4F4"/>
<path d="M624.93 138.804V90.7928H612.927V2.82323H535.897V19.2321C535.897 51.1381 531.339 73.7763 518.576 90.7928H510.372V138.804H533.314V111H601.988V138.804H624.93ZM589.225 90.7928H545.013C554.584 73.3205 559.446 53.5691 559.446 23.942V22.1188H589.225V90.7928Z" fill="#F4F4F4"/>
<path d="M734.523 69.2183H710.973C708.998 85.0194 700.489 93.5277 686.208 93.5277C668.735 93.5277 657.644 79.2459 657.644 56.9116C657.644 38.8315 665.697 20.1437 686.512 20.1437C699.274 20.1437 708.086 27.1326 710.517 38.9834H733.763C731.94 16.6492 712.948 0.240356 686.967 0.240356C653.846 0.240356 633.791 25.3094 633.791 56.7597C633.791 90.9448 654.605 113.583 686.056 113.583C715.683 113.583 732.092 95.6547 734.523 69.2183Z" fill="#F4F4F4"/>
<path d="M846.682 2.82323H816.751L774.209 47.7956V2.82323H750.812V111H774.209V76.0553L788.035 62.3812L820.853 111H850.632L804.292 45.5166L846.682 2.82323Z" fill="#F4F4F4"/>
<path d="M951.771 2.82323H925.031L884.313 77.7265H883.857V2.82323H860.155V111H886.896L927.614 35.9448H928.07V111H951.771V2.82323Z" fill="#F4F4F4"/>
<path d="M1053.9 2.82323H972.77V111H1054.97V91.0967H996.32V64.5083H1049.19V45.8205H996.32V22.2707H1053.9V2.82323Z" fill="#F4F4F4"/>
<path d="M0.635331 166.823V275H24.1851V236.105H48.4944C70.221 236.105 86.9337 225.166 86.9337 201.616C86.9337 177.762 70.6768 166.823 47.279 166.823H0.635331ZM24.1851 186.271H45.4558C55.9392 186.271 63.8398 190.373 63.8398 201.92C63.8398 213.923 55.9392 217.417 45.3038 217.417H24.1851V186.271Z" fill="#F4F4F4"/>
<path d="M182.955 166.823H101.822V275H184.018V255.097H125.372V228.508H178.245V209.82H125.372V186.271H182.955V166.823Z" fill="#F4F4F4"/>
<path d="M282.538 241.727C282.538 227.901 273.725 218.025 262.027 216.202C271.75 214.075 278.435 205.262 278.435 194.475C278.435 176.395 261.875 164.544 239.996 164.544C217.206 164.544 197.759 174.876 197.303 199.033H219.789C220.701 188.55 228.145 182.928 239.844 182.928C249.568 182.928 256.101 187.638 256.101 195.994C256.101 205.414 249.568 210.732 236.502 210.732C235.134 210.732 231.944 210.732 230.12 210.58V226.685H238.325C248.808 226.685 258.684 229.572 258.684 241.878C258.684 251.754 251.087 259.199 239.996 259.199C227.234 259.199 217.054 253.425 216.598 238.84H193.049C193.353 263.301 210.673 277.431 239.996 277.431C264.154 277.431 282.538 262.693 282.538 241.727Z" fill="#F4F4F4"/>
<path d="M390.625 166.823H363.885L323.167 241.727H322.711V166.823H299.009V275H325.75L366.468 199.945H366.924V275H390.625V166.823Z" fill="#F4F4F4"/>
<path d="M516.914 302.804V254.793H504.912V166.823H427.881V183.232C427.881 215.138 423.323 237.776 410.561 254.793H402.356V302.804H425.298V275H493.972V302.804H516.914ZM481.21 254.793H436.997C446.569 237.32 451.431 217.569 451.431 187.942V186.119H481.21V254.793Z" fill="#F4F4F4"/>
<path d="M611.01 166.823H529.877V275H612.073V255.097H553.427V228.508H606.3V209.82H553.427V186.271H611.01V166.823Z" fill="#F4F4F4"/>
<path d="M720.013 166.823H696.311V207.541H652.099V166.823H628.397V275H652.099V228.356H696.311V275H720.013V166.823Z" fill="#F4F4F4"/>
<path d="M844.327 302.804V254.793H832.324V166.823H808.622V254.793H764.41V166.823H740.708V275H821.385V302.804H844.327Z" fill="#F4F4F4"/>
<path d="M947.617 166.823H920.876L880.158 241.727H879.702V166.823H856.001V275H882.741L923.459 199.945H923.915V275H947.617V166.823Z" fill="#F4F4F4"/>
<path d="M1060.23 166.823H1033.49L992.773 241.727H992.317V166.823H968.616V275H995.356L1036.07 199.945H1036.53V275H1060.23V166.823Z" fill="#F4F4F4"/>
</svg>
