<svg width="66" height="66" viewBox="0 0 66 66" fill="none" xmlns="http://www.w3.org/2000/svg">
<g clip-path="url(#clip0)">
<path d="M18.0969 34.0645C10.4723 34.0645 4.25818 40.2786 4.25818 47.9032C4.25818 55.5278 10.4723 61.7419 18.0969 61.7419C25.7215 61.7419 31.9356 55.5278 31.9356 47.9032C31.9356 40.2786 25.7215 34.0645 18.0969 34.0645ZM18.0969 59.6128C11.6433 59.6128 6.38721 54.3568 6.38721 47.9032C6.38721 41.4495 11.6433 36.1935 18.0969 36.1935C24.5505 36.1935 29.8066 41.4495 29.8066 47.9032C29.8066 54.3568 24.5505 59.6128 18.0969 59.6128Z" fill="#AF5BA0"/>
<path d="M44.71 47.9032C44.71 49.2871 45.6015 50.458 46.839 50.8972V52.1613C46.839 52.7468 47.3181 53.2258 47.9036 53.2258C48.489 53.2258 48.9681 52.7468 48.9681 52.1613V50.8972C50.2721 50.4314 51.1903 49.154 51.0838 47.6637C50.9774 46.2266 49.8995 45.029 48.489 44.7629C47.7705 44.6298 47.1185 44.7496 46.533 45.029L44.0846 42.5806C43.6721 42.1681 42.9935 42.1681 42.581 42.5806C42.1685 42.9931 42.1685 43.6717 42.581 44.0842L45.0294 46.5326C44.8298 46.9451 44.71 47.4109 44.71 47.9032ZM47.9036 46.8387C48.489 46.8387 48.9681 47.3177 48.9681 47.9032C48.9681 48.4887 48.489 48.9677 47.9036 48.9677C47.3181 48.9677 46.839 48.4887 46.839 47.9032C46.839 47.3177 47.3181 46.8387 47.9036 46.8387Z" fill="#AF5BA0"/>
<path d="M55.5961 31.5496C55.7026 31.1637 55.8091 30.7778 55.8889 30.4052L57.5522 29.8464C58.151 29.6468 58.5502 29.0879 58.5502 28.4625V22.6343C58.5502 22.0089 58.151 21.45 57.5522 21.2504L55.8889 20.6915C55.2901 17.8573 54.199 15.196 52.6155 12.7742L53.3873 11.2173C53.6667 10.6585 53.5603 9.97984 53.1078 9.54072L48.9961 5.42903C48.557 4.98992 47.8784 4.87016 47.3195 5.1496L45.7627 5.92137C43.3409 4.35121 40.6929 3.24677 37.8453 2.64798L37.2865 0.984677C37.1002 0.399194 36.5413 0 35.9159 0H30.101C29.4756 0 28.9167 0.399194 28.7171 0.997984L28.1582 2.66129C25.3107 3.26008 22.6627 4.35121 20.2409 5.93468L18.684 5.1629C18.1252 4.88347 17.4465 4.98992 17.0074 5.44234L12.8824 9.54072C12.4433 9.97984 12.3236 10.6585 12.603 11.2173L13.3748 12.7742C11.7913 15.196 10.7002 17.8573 10.1014 20.6915L8.43808 21.2504C7.83929 21.45 7.44009 22.0089 7.44009 22.6343V28.4625C7.44009 29.0879 7.83929 29.6468 8.43808 29.8464L10.1014 30.4052C10.1812 30.7778 10.301 31.1637 10.3941 31.5496C4.12679 34.5169 -0.197809 40.9706 0.0150944 48.4222C0.281223 58.229 8.43808 66.0798 18.2582 66C24.3659 65.9468 29.7683 62.8464 33.0018 58.1492C36.355 63.0327 41.9171 66 47.905 66C57.8849 66 66.0018 57.8831 66.0018 47.9032C66.0018 40.6778 61.7304 34.4504 55.5961 31.5496ZM12.084 29.3939L11.9776 28.7819L10.5804 28.3161C9.98163 28.1165 9.58243 27.5577 9.58243 26.9323V24.1645C9.58243 23.5391 9.98163 22.9802 10.5804 22.7806L11.9643 22.3149L12.0707 21.7028C12.6163 18.7222 13.7607 15.9544 15.4772 13.4661L15.8365 12.9472L15.1845 11.6431C14.905 11.0843 15.0115 10.4056 15.4639 9.96653L17.4199 8.01048C17.859 7.57137 18.5377 7.45161 19.0965 7.73105L20.4006 8.38306L20.9195 8.02379C23.3945 6.30726 26.1623 5.1629 29.1562 4.61734L29.7683 4.51089L30.234 3.11371C30.4336 2.51492 30.9925 2.11573 31.6179 2.11573H34.3857C35.0111 2.11573 35.5699 2.51492 35.7695 3.11371L36.2353 4.49758L36.8474 4.60403C39.828 5.1496 42.5957 6.29395 45.084 8.01048L45.603 8.36976L46.907 7.71774C47.4659 7.43831 48.1445 7.54476 48.5836 7.99718L50.5397 9.95323C50.9788 10.3923 51.0986 11.071 50.8191 11.6298L50.1671 12.9339L50.5264 13.4528C52.2429 15.9278 53.3873 18.7089 53.9328 21.6895L54.0393 22.3016L55.4365 22.7673C56.0353 22.9669 56.4345 23.5258 56.4345 24.1512V26.919C56.4345 27.5444 56.0353 28.1032 55.4365 28.3028L54.0526 28.7685L53.9461 29.3806C53.8663 29.8198 53.7599 30.2722 53.6534 30.7379C53.1744 30.5782 52.682 30.4452 52.1897 30.3254V27.4778C53.4272 27.0387 54.3187 25.8677 54.3187 24.4839C54.3187 22.927 53.1877 21.623 51.7107 21.3435C49.7413 12.6411 42.0236 6.3871 33.0018 6.3871C22.4365 6.3871 13.8405 14.9831 13.8405 25.5484C13.8405 27.1185 14.0401 28.6621 14.426 30.179C13.734 30.3254 13.0554 30.525 12.3901 30.7379C12.257 30.2988 12.1639 29.8464 12.084 29.3939ZM21.0659 30.0726C20.5203 28.6355 20.2276 27.1185 20.2276 25.5484C20.2276 18.5093 25.9627 12.7742 33.0018 12.7742C38.4974 12.7742 43.2611 16.2206 45.0441 21.2903H44.7115C42.955 21.2903 41.5179 22.7274 41.5179 24.4839C41.5179 25.8677 42.4095 27.0387 43.647 27.4778V30.3254C39.349 31.3633 35.5433 33.9714 33.0018 37.6573C30.274 33.7052 26.0026 30.8976 21.0659 30.0726ZM16.5417 29.8863C16.1691 28.4758 15.9695 27.0121 15.9695 25.5484C15.9695 16.154 23.6074 8.51613 33.0018 8.51613C40.8393 8.51613 47.5724 13.8121 49.4885 21.2903H47.2796C45.4167 14.9831 39.6683 10.6452 33.0018 10.6452C24.7784 10.6452 18.0986 17.325 18.0986 25.5484C18.0986 27.0121 18.3115 28.4492 18.7373 29.8331C18.5244 29.8198 18.3115 29.8064 18.0986 29.8064C17.5796 29.8064 17.0607 29.8464 16.5417 29.8863ZM51.0986 25.5484H44.7115C44.126 25.5484 43.647 25.0694 43.647 24.4839C43.647 23.8984 44.126 23.4194 44.7115 23.4194H51.0986C51.6841 23.4194 52.1631 23.8984 52.1631 24.4839C52.1631 25.0694 51.6841 25.5484 51.0986 25.5484ZM45.776 27.6774H50.034V29.9395C49.3288 29.8597 48.6236 29.8064 47.905 29.8064C47.1865 29.8064 46.4812 29.8597 45.776 29.9395V27.6774ZM18.0986 63.871C9.28969 63.871 2.13082 56.7121 2.13082 47.9032C2.13082 39.0944 9.28969 31.9355 18.0986 31.9355C26.9074 31.9355 34.0663 39.0944 34.0663 47.9032C34.0663 56.7121 26.9074 63.871 18.0986 63.871ZM38.9099 40.4117L39.6284 41.1302C40.0409 41.5427 40.7195 41.5427 41.132 41.1302C41.5445 40.7177 41.5445 40.0391 41.132 39.6266L40.4135 38.9081C42.1832 37.431 44.4054 36.4597 46.8405 36.2468V37.2581C46.8405 37.8435 47.3195 38.3226 47.905 38.3226C48.4905 38.3226 48.9695 37.8435 48.9695 37.2581V36.2468C51.4046 36.473 53.6135 37.431 55.3965 38.9081L54.678 39.6266C54.2655 40.0391 54.2655 40.7177 54.678 41.1302C55.0905 41.5427 55.7691 41.5427 56.1816 41.1302L56.9002 40.4117C58.3772 42.1814 59.3486 44.4036 59.5615 46.8387H58.5502C57.9647 46.8387 57.4857 47.3177 57.4857 47.9032C57.4857 48.4887 57.9647 48.9677 58.5502 48.9677H59.5615C59.3353 51.4028 58.3772 53.6117 56.9002 55.3948L56.1816 54.6762C55.7691 54.2637 55.0905 54.2637 54.678 54.6762C54.2655 55.0887 54.2655 55.7673 54.678 56.1798L55.3965 56.8984C53.6268 58.3754 51.4046 59.3468 48.9695 59.5597V58.5484C48.9695 57.9629 48.4905 57.4839 47.905 57.4839C47.3195 57.4839 46.8405 57.9629 46.8405 58.5484V59.5597C44.4054 59.3335 42.1966 58.3754 40.4135 56.8984L41.132 56.1798C41.5445 55.7673 41.5445 55.0887 41.132 54.6762C40.7195 54.2637 40.0409 54.2637 39.6284 54.6762L38.9099 55.3948C37.4328 53.625 36.4615 51.4028 36.2486 48.9677H37.2599C37.8453 48.9677 38.3244 48.4887 38.3244 47.9032C38.3244 47.3177 37.8453 46.8387 37.2599 46.8387H36.2486C36.4748 44.4036 37.4328 42.1948 38.9099 40.4117ZM47.905 63.871C42.2897 63.871 37.1002 60.9036 34.2127 56.1C34.6252 55.2883 34.9845 54.4367 35.2772 53.5452C37.4461 58.3621 42.2764 61.7419 47.905 61.7419C55.5296 61.7419 61.7437 55.5278 61.7437 47.9032C61.7437 40.2786 55.5296 34.0645 47.905 34.0645C42.2897 34.0645 37.4461 37.431 35.2772 42.2613C34.9845 41.3831 34.6252 40.5314 34.2127 39.7064C37.1002 34.9028 42.2897 31.9355 47.905 31.9355C56.7139 31.9355 63.8728 39.0944 63.8728 47.9032C63.8728 56.7121 56.7139 63.871 47.905 63.871Z" fill="#AF5BA0"/>
<path d="M23.4728 25.5483C24.0183 25.5483 24.4707 25.1358 24.524 24.6036C24.8034 22.0488 26.2139 19.7867 28.3695 18.3895C28.822 18.0967 28.9949 17.5113 28.7554 17.0189C28.476 16.46 27.7707 16.2471 27.2385 16.5931C24.524 18.3363 22.7542 21.1838 22.4082 24.3907C22.355 25.0028 22.8474 25.5483 23.4728 25.5483Z" fill="#AF5BA0"/>
<path d="M32.042 17.0855H32.0553C32.5876 17.0323 33.0001 16.5666 33.0001 16.0343V16.021C33.0001 15.3956 32.4545 14.9032 31.8424 14.9698C31.8291 14.9698 31.8025 14.9698 31.7892 14.9698C31.1638 15.0363 30.7513 15.6484 30.8844 16.2605V16.2738C31.0041 16.7928 31.4965 17.152 32.042 17.0855Z" fill="#AF5BA0"/>
<path d="M22.5279 43.4456C22.1952 42.8335 21.7162 42.3544 21.1041 42.0085C20.5053 41.6625 19.8001 41.4895 19.0283 41.4895H16.0876C15.8081 41.4895 15.5819 41.5826 15.3823 41.7689C15.196 41.9552 15.0896 42.1947 15.0896 42.4875V47.5972H14.4509C14.1714 47.5972 13.9452 47.6903 13.7589 47.8633C13.5726 48.0363 13.4795 48.2758 13.4795 48.5552C13.4795 48.8214 13.5726 49.0476 13.7722 49.2205C13.9585 49.3802 14.1847 49.4734 14.4642 49.4734H15.1029V49.8859H14.4642C14.198 49.8859 13.9718 49.9524 13.7855 50.0988C13.5859 50.2451 13.4795 50.458 13.4795 50.7109C13.4795 50.9504 13.5859 51.15 13.7722 51.3097C13.9585 51.456 14.1847 51.5226 14.4509 51.5226H15.0896V52.4806C15.0896 52.7601 15.1827 52.9996 15.3823 53.1859C15.5686 53.3722 15.8081 53.4786 16.0876 53.4786C16.3803 53.4786 16.6198 53.3855 16.8061 53.1859C16.9924 52.9996 17.0855 52.7601 17.0855 52.4806V51.5226H18.7622C19.0416 51.5226 19.2678 51.4427 19.4541 51.3097C19.6537 51.15 19.7468 50.9504 19.7468 50.7109C19.7468 50.458 19.6404 50.2585 19.4408 50.0988C19.2545 49.9657 19.0283 49.8859 18.7488 49.8859H17.0722V49.4734H19.0283C19.8001 49.4734 20.492 49.3004 21.0908 48.9677C21.6896 48.6351 22.1686 48.1693 22.5146 47.5705C22.8472 46.9718 23.0202 46.2931 23.0202 45.548C23.0335 44.7496 22.8605 44.0443 22.5279 43.4456ZM20.1194 47.331C19.8134 47.504 19.4541 47.5972 19.0416 47.5972H17.0855V43.3657H19.0416C19.4541 43.3657 19.8134 43.4589 20.1194 43.6451C20.4255 43.8314 20.665 44.0843 20.8513 44.4036C21.0242 44.723 21.1174 45.1089 21.1174 45.5347C21.1174 45.9339 21.0242 46.2931 20.8513 46.5992C20.665 46.9185 20.4255 47.1447 20.1194 47.331Z" fill="#AF5BA0"/>
</g>
<defs>
<clipPath id="clip0">
<rect width="66" height="66" fill="white"/>
</clipPath>
</defs>
</svg>
