<svg width="73" height="66" viewBox="0 0 73 66" fill="none" xmlns="http://www.w3.org/2000/svg">
<path d="M2.50938 20.278H3.20801L9.73808 2.5957C10.3084 1.04688 11.7912 0 13.4451 0H59.5549C61.1945 0 62.6916 1.04688 63.2619 2.5957L69.792 20.278H70.4906C71.8736 20.278 73 21.4109 73 22.802V24.824C73 26.2151 71.8736 27.348 70.4906 27.348H70.1199V50.9244C70.1199 51.5124 69.6352 52 69.0506 52C68.466 52 67.9812 51.5124 67.9812 50.9244V27.3624H51.1855C50.2445 27.3624 49.3605 26.9895 48.7047 26.3298L36.5 14.0541L24.2953 26.3298C23.6252 27.0039 22.7412 27.3624 21.8145 27.3624H5.01875V30.2162C5.01875 30.8042 4.53399 31.2918 3.94942 31.2918C3.36485 31.2918 2.88008 30.8042 2.88008 30.2162V27.3624H2.50938C1.12637 27.3624 0 26.2295 0 24.8384V22.802C0 21.4109 1.12637 20.278 2.50938 20.278ZM61.2516 3.34142C60.9949 2.62438 60.3105 2.15113 59.5549 2.15113H13.4451C12.6895 2.15113 12.0051 2.62438 11.7484 3.34142L5.48926 20.278H20.3459L34.0049 6.53944C34.675 5.86542 35.559 5.5069 36.4857 5.5069C37.4268 5.5069 38.3107 5.87976 38.9666 6.53944L52.6256 20.278H67.5107L61.2516 3.34142ZM2.13867 24.8384C2.13867 25.0392 2.30977 25.2113 2.50938 25.2113H21.8145C22.1852 25.2113 22.5273 25.0678 22.784 24.8097L35.7443 11.7595C35.9439 11.5587 36.2148 11.444 36.5 11.444C36.7852 11.444 37.0561 11.5587 37.2557 11.7595L50.216 24.7954C50.4727 25.0535 50.8291 25.1969 51.1855 25.1969H70.4906C70.6902 25.1969 70.8613 25.0248 70.8613 24.824V22.802C70.8613 22.6012 70.6902 22.4291 70.4906 22.4291H52.2121C51.927 22.4291 51.6561 22.3144 51.4564 22.1136L37.4838 8.05957C37.2271 7.80143 36.8707 7.65803 36.5143 7.65803C36.1436 7.65803 35.8014 7.80143 35.5447 8.05957L21.5721 22.1136C21.3725 22.3144 21.1016 22.4291 20.8164 22.4291H2.53789C2.33828 22.4291 2.16719 22.6012 2.16719 22.802L2.13867 24.8384Z" fill="#005453" fill-opacity="0.16"/>
<path d="M8.09914 57C7.49828 57 7 56.5189 7 55.9387V37.0613C7 36.4811 7.49828 36 8.09914 36H22.9009C23.5017 36 24 36.4811 24 37.0613V55.9245C24 56.5047 23.5017 56.9858 22.9009 56.9858H8.09914V57ZM9.19828 50.2925H14.4009V45.2689H9.19828V50.2925ZM16.5991 50.2925H21.8017V45.2689H16.5991V50.2925ZM9.19828 54.8774H21.8017V52.4292H9.19828V54.8774ZM9.19828 43.1462H14.4009V38.1226H9.19828V43.1462ZM16.5991 38.1226V43.1462H21.8017V38.1226H16.5991Z" fill="#005453" fill-opacity="0.16"/>
<path d="M49.0982 57C48.4978 57 48 56.5189 48 55.9387V37.0613C48 36.4811 48.4978 36 49.0982 36H63.9018C64.5022 36 65 36.4811 65 37.0613V55.9245C65 56.5047 64.5022 56.9858 63.9018 56.9858H49.0982V57ZM50.1964 50.2925H55.4091V45.2689H50.211V50.2925H50.1964ZM57.6055 50.2925H62.8036V45.2689H57.6055V50.2925ZM50.1964 54.8774H62.789V52.4292H50.1964V54.8774ZM50.1964 43.1462H55.4091V38.1226H50.211V43.1462H50.1964ZM57.6055 38.1226V43.1462H62.8036V38.1226H57.6055Z" fill="#005453" fill-opacity="0.16"/>
<path d="M33.063 41H39.937C40.5181 41 41 41.5032 41 42.1099V46.8901C41 47.4968 40.5181 48 39.937 48H33.063C32.4819 48 32 47.4968 32 46.8901V42.1099C32 41.5032 32.4677 41 33.063 41ZM34.126 45.7949H38.874V43.2347H34.126V45.7949Z" fill="#005453" fill-opacity="0.16"/>
<path d="M31 26.5C31 23.4598 33.4736 21 36.5 21C39.5264 21 42 23.4736 42 26.5C42 29.5264 39.5264 32 36.5 32C33.4736 32 31 29.5402 31 26.5ZM39.9271 26.5C39.9271 24.6068 38.3932 23.0729 36.5 23.0729C34.6068 23.0729 33.0729 24.6068 33.0729 26.5C33.0729 28.3932 34.6068 29.9271 36.5 29.9271C38.3932 29.9271 39.9271 28.3932 39.9271 26.5Z" fill="#005453" fill-opacity="0.16"/>
<path d="M1.06934 58.8568H2.88008V35.0845C2.88008 34.4916 3.36485 34 3.94942 34C4.53399 34 5.01875 34.4916 5.01875 35.0845V58.8568H27.3607V36.8631C27.3607 36.2702 27.8455 35.7786 28.4301 35.7786H44.5699C45.1545 35.7786 45.6393 36.2702 45.6393 36.8631V58.8568H67.9812V55.9792C67.9812 55.3864 68.466 54.8947 69.0506 54.8947C69.6352 54.8947 70.1199 55.3864 70.1199 55.9792V58.8568H71.9307C72.5152 58.8568 73 59.3484 73 59.9413V64.9155C73 65.5084 72.5152 66 71.9307 66H1.06934C0.484764 66 0 65.5084 0 64.9155V59.9557C0 59.3484 0.484764 58.8568 1.06934 58.8568ZM43.5006 50.9471H41.975C41.3904 50.9471 40.9057 50.4555 40.9057 49.8626C40.9057 49.2698 41.3904 48.7781 41.975 48.7781H43.5006V37.9476H29.5137V58.8568H43.5006V50.9471ZM2.13867 63.831H70.8613V61.0402H2.13867V63.831Z" fill="#005453" fill-opacity="0.16"/>
</svg>
