<svg xmlns="http://www.w3.org/2000/svg">
    <symbol viewBox="0 0 268.833 268.833" id="svg-arrow">
        <path d="M256.333,121.916H42.679l58.659-58.661c4.882-4.882,4.882-12.796,0-17.678c-4.883-4.881-12.797-4.881-17.678,0l-79.998,80
        c-4.883,4.882-4.883,12.796,0,17.678l80,80c2.439,2.439,5.64,3.661,8.839,3.661s6.397-1.222,8.839-3.661c4.882-4.882,4.882-12.796,0-17.678l-58.661-58.661h213.654c6.903,0,12.5-5.598,12.5-12.5C268.833,127.513,263.236,121.916,256.333,121.916z"/>
    </symbol>
    <symbol viewBox="0 0 512 512" id="svg-email">
        <path d="M492,291.5c11.046,0,20-8.954,20-20v-131c0-44.112-35.888-80-80-80H80c-44.112,0-80,35.888-80,80v231 c0,44.112,35.888,80,80,80h352c44.112,0,80-35.888,80-80c0-11.046-8.954-20-20-20c-11.046,0-20,8.954-20,20 c0,22.056-17.944,40-40,40H80c-22.056,0-40-17.944-40-40V144.738l173.755,108.045c13.029,8.101,27.637,12.152,42.245,12.152 c14.608,0,29.216-4.051,42.245-12.152L472,144.738V271.5C472,282.546,480.954,291.5,492,291.5z M277.122,218.814 c-13.028,8.101-29.216,8.102-42.244,0L56.689,108.012c6.568-4.726,14.62-7.512,23.311-7.512h352 c8.691,0,16.743,2.787,23.311,7.513L277.122,218.814z"/>
    </symbol>
    <symbol viewBox="0 0 509.217 509.217" id="svg-location">
        <path d="m254.609 0c-135.707 0-223.325 143.81-162.435 264.066l93.46 201.142c27.283 58.721 110.708 58.636 137.951 0l93.461-201.144c60.865-120.208-26.669-264.064-162.437-264.064zm133.781 249.821c-.188.368 4.231-9.13-93.824 201.902-15.828 34.061-64.069 34.093-79.912 0-97.685-210.236-93.628-201.516-93.822-201.9-49.916-98.197 20.995-217.823 133.777-217.823 112.718 0 183.728 119.548 133.781 217.821z"/>
        <path d="m254.609 93.068c-49.021 0-88.903 39.882-88.903 88.903s39.882 88.903 88.903 88.903 88.903-39.882 88.903-88.903-39.881-88.903-88.903-88.903zm0 145.807c-31.377 0-56.903-25.526-56.903-56.903s25.526-56.903 56.903-56.903 56.903 25.526 56.903 56.903-25.526 56.903-56.903 56.903z"/>
    </symbol>
    <symbol viewBox="0 0 512 512" id="svg-call">
        <path d="m324.652 461.711c-4.553-17.085-20.153-29.711-38.652-29.711-22.056 0-40 17.944-40 40s17.944 40 40 40c18.684 0 34.413-12.879 38.787-30.224 50.193-3.325 92.174-44.053 103.316-93.105 20.853-4.818 39.259-19.074 48.469-40.145l12.021-27.493c15.456-35.371-.737-76.721-36.097-92.176l-21.496-9.399v-8.458c0-42.101-14.95-85.744-39.493-116.604l15.171-12.139c4.499-3.599 5.028-10.249 1.167-14.518-8.2-9.062-17.249-17.445-26.894-24.916-4.366-3.382-10.649-2.585-14.029 1.782-3.383 4.366-2.585 10.647 1.781 14.029 5.921 4.586 11.594 9.553 16.946 14.834l-31.508 25.21c-26.94-25.009-61.453-38.678-98.141-38.678-36.689 0-71.202 13.669-98.142 38.681l-31.507-25.209c34.601-34.104 81.274-53.472 129.649-53.472 11.915 0 23.837 1.153 35.433 3.427 5.419 1.061 10.675-2.469 11.738-7.889 1.063-5.419-2.47-10.674-7.889-11.737-12.861-2.522-26.078-3.801-39.282-3.801-57.541 0-112.886 24.69-151.845 67.74-3.866 4.272-3.327 10.922 1.167 14.518l15.171 12.139c-24.543 30.858-39.493 74.502-39.493 116.603v8.458l-21.495 9.399c-35.36 15.456-51.554 56.806-36.098 92.179l12.02 27.489c15.482 35.421 56.704 51.603 92.18 36.098l27.49-12.02c5.06-2.213 7.369-8.108 5.156-13.168l-59.253-135.526v-12.909c0-37.751 13.292-76.736 35.104-104.113l16.199 12.961c4.039 3.231 9.894 2.855 13.482-.905 23.963-25.112 56.002-38.943 90.215-38.943 34.212 0 66.252 13.831 90.216 38.944 3.581 3.752 9.434 4.143 13.481.905l16.199-12.961c21.812 27.377 35.104 66.362 35.104 104.112v12.911l-59.252 135.523c-2.213 5.06.096 10.956 5.156 13.168l27.491 12.021c7.391 3.231 15.042 5.056 22.665 5.636-11.307 38.85-45.04 68.381-82.408 71.452zm-38.652 30.289c-11.028 0-20-8.972-20-20s8.972-20 20-20 20 8.972 20 20-8.972 20-20 20zm-148.079-133.716-18.326 8.013c-25.316 11.066-54.775-.46-65.843-25.783l-12.019-27.488c-11.041-25.267.525-54.804 25.783-65.843l18.328-8.014zm254.485 8.013-18.328-8.014 52.078-119.115 18.329 8.014c25.256 11.04 36.821 40.576 25.782 65.841l-12.021 27.491c-11.04 25.26-40.577 36.825-65.84 25.783z"/>
        <circle cx="336" cy="28" r="10"/>
    </symbol>
    <symbol viewBox="0 0 415.998 415.998" id="svg-checklist">
        <circle cx="208.239" cy="48" r="12"/>
        <path d="M367.998,95.999c0-17.673-14.326-32-31.999-32h-44.424c-5.926-6.583-13.538-11.62-22.284-14.136 c-7.367-2.118-13.037-7.788-15.156-15.155C248.37,14.663,229.897,0,207.998,0c-21.898,0-40.37,14.663-46.134,34.706 c-2.122,7.376-7.806,13.039-15.182,15.164c-8.736,2.518-16.341,7.55-22.262,14.129H79.999c-17.674,0-32,14.327-32,32v287.999 c0,17.673,14.326,32,32,32c73.466,0,163.758,0,256,0c17.674,0,32-14.327,32-32C367.999,293.119,367.998,206.096,367.998,95.999z M128,95.742c0.11-14.066,9.614-26.606,23.112-30.496c12.71-3.662,22.477-13.426,26.127-26.116 C181.157,25.51,193.805,16,207.998,16c14.194,0,26.842,9.51,30.758,23.13c3.652,12.698,13.413,22.459,26.111,26.11 c13.618,3.917,23.13,16.566,23.13,30.758v16H128V95.742z M335.999,399.998c-85.455,0-170.77,0-256,0c-8.823,0-16-7.178-16-16 V95.999c0-8.822,7.177-16,16-16h34.742c-1.73,4.892-2.698,10.143-2.74,15.617v32.383h191.998v-32c0-5.615-0.992-10.991-2.764-16 h34.764c8.822,0,15.999,7.178,15.999,16c0,45.743-0.001,260.254,0.002,287.999C351.999,392.82,344.822,399.998,335.999,399.998z"/>
        <polygon points="274.51,194.508 178.343,290.674 135.955,248.286 124.642,259.6 178.343,313.302 285.823,205.822"/>
    </symbol>
    <symbol viewBox="0 0 415.998 415.998" id="svg-clipboard">
        <rect x="111.999" y="176" width="192" height="16"/>
        <rect x="111.999" y="224" width="192" height="16"/>
        <rect x="111.999" y="272" width="192" height="16"/> <rect x="111.999" y="320" width="96" height="16"/>
        <circle cx="208.239" cy="48" r="12"/>
        <path d="M367.998,95.999c0-17.673-14.326-32-31.999-32h-44.424c-5.926-6.583-13.538-11.62-22.284-14.136 c-7.367-2.118-13.037-7.788-15.156-15.155C248.37,14.664,229.897,0,207.998,0c-21.898,0-40.37,14.663-46.134,34.706 c-2.122,7.376-7.806,13.039-15.182,15.165c-8.736,2.518-16.341,7.55-22.262,14.128H79.999c-17.674,0-32,14.327-32,32v287.999 c0,17.673,14.326,32,32,32c73.466,0,163.758,0,256,0c17.674,0,32-14.327,32-32C367.999,293.119,367.998,206.096,367.998,95.999z M128,95.741c0.11-14.066,9.614-26.606,23.113-30.496c12.71-3.662,22.477-13.426,26.127-26.116 C181.157,25.51,193.805,16,207.998,16c14.194,0,26.842,9.51,30.758,23.13c3.652,12.698,13.413,22.459,26.111,26.11 c13.618,3.917,23.13,16.566,23.13,30.758v16H128V95.741z M335.999,399.998c-85.455,0-170.77,0-256,0c-8.823,0-16-7.178-16-16 V95.999c0-8.822,7.177-16,16-16h34.742c-1.73,4.892-2.698,10.143-2.74,15.617v32.383h191.998v-32c0-5.615-0.992-10.991-2.764-16 h34.764c8.822,0,15.999,7.178,15.999,16c0,45.743-0.001,260.254,0.002,287.999C351.999,392.82,344.822,399.998,335.999,399.998z" />
    </symbol>
    <symbol viewBox="0 0 329.26933 329" id="svg-close">
        <path d="m194.800781 164.769531 128.210938-128.214843c8.34375-8.339844 8.34375-21.824219 0-30.164063-8.339844-8.339844-21.824219-8.339844-30.164063 0l-128.214844 128.214844-128.210937-128.214844c-8.34375-8.339844-21.824219-8.339844-30.164063 0-8.34375 8.339844-8.34375 21.824219 0 30.164063l128.210938 128.214843-128.210938 128.214844c-8.34375 8.339844-8.34375 21.824219 0 30.164063 4.15625 4.160156 9.621094 6.25 15.082032 6.25 5.460937 0 10.921875-2.089844 15.082031-6.25l128.210937-128.214844 128.214844 128.214844c4.160156 4.160156 9.621094 6.25 15.082032 6.25 5.460937 0 10.921874-2.089844 15.082031-6.25 8.34375-8.339844 8.34375-21.824219 0-30.164063zm0 0"/>
    </symbol>
    <symbol viewBox="0 0 512 512" id="svg-diamond">
        <path d="M510.362,215.571l-81.99-125.025c-1.849-2.818-4.991-4.516-8.361-4.516H92.378c-3.363,0-6.5,1.69-8.35,4.499 L1.906,215.181c-0.391,0.539-0.73,1.121-1.013,1.743c-1.621,3.574-1.001,7.765,1.585,10.717l41.625,47.527 c3.639,4.155,9.955,4.573,14.109,0.935c4.154-3.639,4.572-9.956,0.934-14.109l-27.097-30.941h134.501L234.137,461.8 l-76.375-87.205c-3.638-4.155-9.956-4.573-14.109-0.935c-4.154,3.639-4.572,9.956-0.934,14.109l105.79,120.791 c1.898,2.168,4.641,3.412,7.522,3.412c2.882,0,5.623-1.244,7.521-3.413l112.63-128.632c3.639-4.155,3.22-10.472-0.936-14.109 c-4.156-3.639-10.473-3.22-14.109,0.936l-83.21,95.033l67.584-230.735h134.445l-62.183,71.02 c-3.639,4.155-3.22,10.472,0.936,14.109c1.897,1.662,4.245,2.477,6.583,2.477c2.782,0,5.55-1.155,7.526-3.413l76.706-87.605 C512.482,224.262,512.825,219.326,510.362,215.571z M28.573,211.055l63.785-96.821l63.495,96.821H28.573z M110.892,106.029 h126.623l-63.311,96.541L110.892,106.029z M256.03,114.263l63.475,96.792H192.555L256.03,114.263z M256.03,465.403l-68.642-234.35 h137.284L256.03,465.403z M338.02,202.821l-63.475-96.792h126.952L338.02,202.821z M356.535,211.055l63.476-96.792l63.474,96.792 H356.535z"/>
        <path d="M157.189,327.017c-25.793,0-46.778-20.985-46.778-46.778c0-5.522-4.477-9.999-9.999-9.999s-9.999,4.477-9.999,9.999 c0,25.793-20.985,46.778-46.778,46.778c-5.521,0-9.999,4.477-9.999,9.999c0,5.522,4.478,9.999,9.999,9.999 c25.793,0,46.778,20.985,46.778,46.778c0,5.522,4.478,9.999,9.999,9.999s9.999-4.477,9.999-9.999 c0-25.793,20.985-46.778,46.778-46.778c5.522,0,9.999-4.477,9.999-9.999C167.188,331.494,162.711,327.017,157.189,327.017z M100.412,358.677c-5.451-8.782-12.879-16.209-21.66-21.661c8.781-5.451,16.208-12.878,21.66-21.661 c5.451,8.782,12.879,16.209,21.66,21.661C113.291,342.468,105.864,349.894,100.412,358.677z"/>
        <path d="M502.001,40.023c-16.54,0-29.997-13.457-29.997-29.997c0-5.522-4.478-9.999-9.999-9.999s-9.999,4.477-9.999,9.999 c0,16.54-13.457,29.997-29.997,29.997c-5.521,0-9.999,4.477-9.999,9.999s4.478,9.999,9.999,9.999 c16.54,0,29.997,13.457,29.997,29.997c0,5.522,4.478,9.999,9.999,9.999s9.999-4.477,9.999-9.999 c0-16.54,13.457-29.997,29.997-29.997c5.521,0,9.999-4.477,9.999-9.999S507.522,40.023,502.001,40.023z M462.005,60.052 c-2.853-3.798-6.232-7.177-10.03-10.03c3.798-2.853,7.177-6.232,10.03-10.03c2.853,3.798,6.232,7.177,10.03,10.03 C468.237,52.874,464.857,56.254,462.005,60.052z"/>
        <path d="M402.783,335.371c-1.859-1.87-4.439-2.93-7.068-2.93c-2.631,0-5.199,1.06-7.069,2.93c-1.86,1.86-2.93,4.44-2.93,7.069 s1.069,5.209,2.93,7.069c1.86,1.86,4.438,2.93,7.069,2.93c2.63,0,5.209-1.07,7.068-2.93c1.86-1.86,2.931-4.44,2.931-7.069 S404.644,337.231,402.783,335.371z"/>
    </symbol>
    <symbol viewBox="0 0 512 512" id="svg-dont-touch">
        <path d="M109.373,120.686a8,8,0,0,0-11.743.464,208,208,0,0,0,150.585,342.7q3.925.146,7.839.146a207.159,207.159,0,0,0,134.8-49.628,8,8,0,0,0,.464-11.743Zm78.165,146.563A8,8,0,0,0,192,260.074V225.94l152.8,152.8A87.747,87.747,0,0,1,279.989,408h-.138A87.63,87.63,0,0,1,196,346.283,71.513,71.513,0,0,0,171.133,310.7l-45.4-34.833a20,20,0,1,1,24.349-31.735l29.047,22.287A8,8,0,0,0,187.538,267.249ZM248.81,447.863a192.017,192.017,0,0,1-144.49-309.6L176,209.94v33.913L159.823,231.44a36,36,0,1,0-43.829,57.122l45.4,34.834a55.608,55.608,0,0,1,19.333,27.659A104.035,104.035,0,0,0,279.823,424h.166a103.78,103.78,0,0,0,76.136-33.934l17.614,17.614A191.337,191.337,0,0,1,248.81,447.863Z"/>
        <path d="M256,16A240,240,0,0,0,86.294,425.706,240,240,0,0,0,425.706,86.294,238.43,238.43,0,0,0,256,16ZM414.392,414.392A224,224,0,0,1,97.608,97.608,224,224,0,0,1,414.392,414.392Z"/>
        <path d="M263.785,48.148A207.215,207.215,0,0,0,121.15,97.63a8,8,0,0,0-.464,11.743L402.627,391.314a8,8,0,0,0,5.657,2.343c.105,0,.21,0,.316-.006a8,8,0,0,0,5.77-2.8,208,208,0,0,0-150.585-342.7ZM224,190.06l-32-32V144.54a16.88,16.88,0,0,1,5.055-11.963A15.51,15.51,0,0,1,208.312,128,16.075,16.075,0,0,1,224,144ZM272,136V238.06l-32-32V112a16.075,16.075,0,0,1,15.688-16,15.529,15.529,0,0,1,11.257,4.573A16.88,16.88,0,0,1,272,112.54Zm96,182.824a88.452,88.452,0,0,1-1.137,14.1L288,254.06V136a16.075,16.075,0,0,1,15.688-16,15.607,15.607,0,0,1,11.257,4.573A16.88,16.88,0,0,1,320,136.54V256a8,8,0,0,0,16,0V176a16.075,16.075,0,0,1,15.688-16,15.531,15.531,0,0,1,11.257,4.573A16.88,16.88,0,0,1,368,176.54Zm39.68,54.915L379.9,345.958l.482.13A104.49,104.49,0,0,0,384,318.824V176.54a32.972,32.972,0,0,0-9.85-23.384A31.469,31.469,0,0,0,351.989,144q-.3,0-.6,0A31.619,31.619,0,0,0,336,148.336v-11.8a32.972,32.972,0,0,0-9.85-23.384A31.469,31.469,0,0,0,303.989,104q-.3,0-.6,0a31.639,31.639,0,0,0-15.643,4.481,33.049,33.049,0,0,0-9.592-19.331A31.469,31.469,0,0,0,255.989,80q-.3,0-.6,0A32.158,32.158,0,0,0,224,112v4.335a31.5,31.5,0,0,0-38.15,4.821,33.02,33.02,0,0,0-9.751,21L138.261,104.32A192.017,192.017,0,0,1,407.68,373.739Z"/>
    </symbol>
    <symbol viewBox="0 0 512 512" id="svg-family">
        <path d="m463.501 322.5c0-4.142-3.358-7.5-7.5-7.5s-7.5 3.358-7.5 7.5c0 21.288-15.734 38.967-36.182 42.028-3.426-11.288-13.926-19.528-26.318-19.528h-20c-15.164 0-27.5 12.336-27.5 27.5v132c0 4.142 3.358 7.5 7.5 7.5s7.5-3.358 7.5-7.5v-57.02c6.272 4.719 14.064 7.52 22.5 7.52s16.228-2.801 22.5-7.52v57.02c0 4.142 3.358 7.5 7.5 7.5s7.5-3.358 7.5-7.5v-125.005c28.172-3.689 50-27.833 50-56.995zm-97.5 37.5h20c6.893 0 12.5 5.607 12.5 12.5v22.5h-45v-22.5c0-6.893 5.607-12.5 12.5-12.5zm10 80c-12.407 0-22.5-10.093-22.5-22.5v-7.5h45v7.5c0 12.407-10.093 22.5-22.5 22.5z"/>
        <path d="m338.501 292.5c0 20.678 16.822 37.5 37.5 37.5s37.5-16.822 37.5-37.5-16.822-37.5-37.5-37.5-37.5 16.822-37.5 37.5zm60 0c0 12.407-10.093 22.5-22.5 22.5s-22.5-10.093-22.5-22.5 10.093-22.5 22.5-22.5 22.5 10.093 22.5 22.5z"/>
        <path d="m136.001 255c-20.678 0-37.5 16.822-37.5 37.5s16.822 37.5 37.5 37.5 37.5-16.822 37.5-37.5-16.822-37.5-37.5-37.5zm0 60c-12.407 0-22.5-10.093-22.5-22.5s10.093-22.5 22.5-22.5 22.5 10.093 22.5 22.5-10.093 22.5-22.5 22.5z"/>
        <path d="m146.001 345h-20c-12.392 0-22.892 8.24-26.318 19.528-20.449-3.061-36.182-20.74-36.182-42.028 0-4.142-3.358-7.5-7.5-7.5s-7.5 3.358-7.5 7.5c0 29.162 21.828 53.306 50 56.995v125.005c0 4.142 3.358 7.5 7.5 7.5s7.5-3.358 7.5-7.5v-57.02c6.272 4.719 14.064 7.52 22.5 7.52s16.228-2.801 22.5-7.52v57.02c0 4.142 3.358 7.5 7.5 7.5s7.5-3.358 7.5-7.5v-132c0-15.164-12.336-27.5-27.5-27.5zm-20 15h20c6.893 0 12.5 5.607 12.5 12.5v22.5h-45v-22.5c0-6.893 5.607-12.5 12.5-12.5zm10 80c-12.407 0-22.5-10.093-22.5-22.5v-7.5h45v7.5c0 12.407-10.093 22.5-22.5 22.5z"/>
        <path d="m318.373 497.385-24.872-8.291v-159.902c9.27-9.472 15-22.423 15-36.692v-40.911c9.35-6.82 15-17.604 15-29.089v-22.786c50.271-3.842 90-45.976 90-97.214 0-4.142-3.358-7.5-7.5-7.5s-7.5 3.358-7.5 7.5c0 43.344-33.605 78.961-76.125 82.229-3.362-11.39-13.91-19.729-26.375-19.729h-80c-12.465 0-23.013 8.339-26.375 19.729-42.52-3.268-76.125-38.886-76.125-82.229 0-4.142-3.358-7.5-7.5-7.5s-7.5 3.358-7.5 7.5c0 51.239 39.729 93.372 90 97.214v22.786c0 11.485 5.65 22.27 15 29.089v40.911c0 14.269 5.73 27.22 15 36.692v159.902l-24.872 8.291c-3.93 1.31-6.053 5.557-4.744 9.487 1.048 3.143 3.974 5.13 7.114 5.13.786 0 1.586-.125 2.373-.387l30-10c3.063-1.021 5.128-3.887 5.128-7.115v-154.576c6.824 3.25 14.452 5.076 22.5 5.076s15.676-1.825 22.5-5.076v154.576c0 3.228 2.066 6.094 5.128 7.115l30 10c.787.262 1.586.387 2.373.387 3.14 0 6.066-1.988 7.114-5.13 1.311-3.93-.813-8.177-4.742-9.487zm-114.872-274.885v-30c0-6.893 5.607-12.5 12.5-12.5h80c6.893 0 12.5 5.607 12.5 12.5v30c0 7.549-4.272 14.618-11.149 18.448-2.377 1.324-3.851 3.832-3.851 6.552v37.5h-75v-37.5c0-2.721-1.474-5.229-3.851-6.552-6.877-3.83-11.149-10.899-11.149-18.448zm15.755 77.5h73.491c-3.484 17.096-18.635 30-36.745 30s-33.262-12.904-36.746-30z"/>
        <path d="m185.869 88.95c-1.369 4.824-1.112 10.035.841 14.751s5.457 8.583 9.835 11.025c.582 4.98 2.813 9.696 6.422 13.306 4.269 4.269 9.986 6.593 15.894 6.593.018 0 .036-.001.054-.001 9.505 9.496 22.621 15.376 37.086 15.376 14.468 0 27.587-5.883 37.092-15.381 5.924.012 11.66-2.306 15.94-6.585 3.61-3.61 5.841-8.326 6.423-13.307 4.378-2.443 7.882-6.309 9.836-11.026 1.953-4.716 2.209-9.927.841-14.75 3.111-3.933 4.868-8.844 4.868-13.95 0-5.105-1.757-10.018-4.868-13.95 1.369-4.824 1.113-10.034-.841-14.751s-5.457-8.583-9.836-11.026c-.582-4.98-2.812-9.696-6.422-13.307-3.61-3.61-8.326-5.841-13.306-6.422-2.443-4.379-6.309-7.882-11.025-9.835-4.717-1.955-9.928-2.209-14.751-.842-3.933-3.111-8.846-4.868-13.951-4.868s-10.018 1.757-13.95 4.868c-4.823-1.369-10.035-1.113-14.75.841-4.717 1.953-8.583 5.457-11.026 9.835-4.979.582-9.696 2.813-13.307 6.423-3.61 3.61-5.84 8.326-6.422 13.306-4.379 2.443-7.882 6.309-9.835 11.025-1.954 4.716-2.21 9.927-.842 14.751-3.11 3.933-4.868 8.845-4.868 13.95s1.757 10.019 4.868 13.951zm70.132 46.05c-20.678 0-37.5-16.822-37.5-37.5s16.822-37.5 37.5-37.5 37.5 16.822 37.5 37.5-16.822 37.5-37.5 37.5zm-56.856-66.089c3.204-2.302 4.077-6.692 1.998-10.044-1.296-2.09-1.505-4.579-.574-6.828.932-2.249 2.839-3.861 5.234-4.422 3.841-.9 6.328-4.623 5.689-8.516-.398-2.427.361-4.806 2.082-6.527 1.722-1.722 4.102-2.481 6.528-2.083 3.892.639 7.616-1.848 8.516-5.689.561-2.395 2.173-4.302 4.423-5.234 2.249-.931 4.736-.722 6.827.574 3.352 2.08 7.743 1.207 10.044-1.998 1.435-1.998 3.654-3.144 6.089-3.144s4.654 1.146 6.089 3.144c2.302 3.204 6.692 4.077 10.044 1.998 2.09-1.296 4.578-1.506 6.828-.574 2.249.932 3.861 2.839 4.422 5.234.901 3.842 4.63 6.33 8.516 5.689 2.426-.398 4.806.361 6.527 2.082 1.722 1.722 2.48 4.101 2.083 6.528-.638 3.893 1.849 7.615 5.69 8.516 2.395.561 4.302 2.173 5.234 4.422s.723 4.737-.574 6.827c-2.08 3.353-1.207 7.743 1.998 10.045 1.998 1.435 3.144 3.654 3.144 6.089s-1.146 4.653-3.143 6.088c-3.205 2.301-4.078 6.692-1.999 10.045 1.296 2.09 1.506 4.579.575 6.827-.633 1.527-1.723 2.75-3.102 3.561.101-1.329.169-2.667.169-4.021 0-28.949-23.551-52.5-52.5-52.5s-52.5 23.551-52.5 52.5c0 1.354.068 2.692.169 4.021-1.379-.81-2.469-2.033-3.102-3.56-.932-2.249-.723-4.738.574-6.829 2.08-3.353 1.206-7.743-1.999-10.044-1.997-1.435-3.143-3.653-3.143-6.088s1.145-4.654 3.144-6.089z"/>
    </symbol>
    <symbol viewBox="0 0 512 512" id="svg-fit">
        <path d="M312.346,364.027c-0.432-7.155-3.569-13.995-8.833-19.258l-37.983-37.99c6.136-1.942,11.673-5.283,16.183-9.792 l0.966-0.967c16.739-16.739,15.396-45.316-2.993-63.706c-8.75-8.749-20.068-13.959-31.87-14.672 c-12.264-0.741-23.564,3.408-31.835,11.68l-0.966,0.966c-4.512,4.511-7.854,10.05-9.795,16.188l-37.988-37.989 c-11.194-11.194-28.732-11.87-39.098-1.507l-34.429,34.43c-4.213,4.213-5.965,10.337-4.687,16.38 c1.39,6.571,5.973,11.944,12.26,14.373c3.969,1.534,7.568,3.897,10.695,7.024l1.091,1.091c5.29,5.29,8.434,12.014,8.851,18.934 c0.391,6.464-1.69,12.32-5.858,16.488s-10.026,6.254-16.488,5.857c-6.92-0.417-13.645-3.561-18.934-8.851l-1.091-1.091 c-3.127-3.127-5.49-6.726-7.024-10.694c-2.429-6.288-7.802-10.871-14.374-12.261c-6.043-1.278-12.167,0.474-16.381,4.687 l-34.39,34.392c-10.363,10.364-9.688,27.902,1.507,39.097l37.988,37.989c-6.138,1.942-11.677,5.284-16.188,9.794l-0.967,0.967 c-16.738,16.739-15.395,45.316,2.994,63.706c9.763,9.762,22.393,14.721,34.602,14.719c10.79,0,21.251-3.874,29.103-11.727 l0.967-0.966c4.511-4.511,7.852-10.049,9.794-16.189l37.988,37.989c5.264,5.264,12.104,8.4,19.259,8.833 c0.548,0.033,1.095,0.05,1.64,0.05c6.906,0,13.465-2.641,18.2-7.376l32.747-32.747c2.544,6.186,6.288,11.774,11.137,16.625 l1.091,1.091c18.389,18.388,46.967,19.731,63.706,2.993c16.739-16.739,15.396-45.317-2.993-63.706l-1.091-1.091 c-4.85-4.85-10.438-8.593-16.625-11.137l32.786-32.786C310.129,378.757,312.799,371.527,312.346,364.027z M290.879,369.725 l-34.429,34.429c-4.212,4.213-5.965,10.336-4.687,16.379c1.389,6.572,5.972,11.945,12.26,14.375 c3.969,1.534,7.568,3.897,10.695,7.025l1.091,1.091c10.591,10.591,11.934,26.48,2.993,35.421 c-8.94,8.941-24.832,7.598-35.421-2.993l-1.091-1.091c-3.127-3.127-5.491-6.726-7.025-10.694 c-2.429-6.288-7.803-10.871-14.375-12.26c-6.044-1.278-12.167,0.475-16.379,4.687l-34.39,34.391 c-1.384,1.384-3.206,1.586-4.492,1.504c-2.239-0.135-4.543-1.233-6.322-3.011l-15.239-15.239l33.186-33.186 c3.905-3.905,3.905-10.237,0-14.143c-3.905-3.906-10.237-3.905-14.143,0l-33.186,33.186l-10.355-10.355 c-3.787-3.787-8.775-5.836-13.802-5.836c-1.738,0-3.482,0.246-5.182,0.749c-6.148,1.821-10.617,6.66-11.954,12.945 c-0.84,3.947-2.655,7.337-5.395,10.077l-0.967,0.966c-8.94,8.941-24.832,7.598-35.421-2.993 c-10.591-10.591-11.934-26.48-2.994-35.421l0.967-0.967c2.74-2.74,6.13-4.555,10.077-5.395 c6.286-1.337,11.125-5.807,12.946-11.956c1.958-6.613,0.008-13.886-5.087-18.981l-39.734-39.737 c-1.779-1.778-2.876-4.083-3.012-6.322c-0.078-1.285,0.121-3.107,1.504-4.492l32.747-32.747 c2.544,6.186,6.288,11.774,11.137,16.625l1.091,1.091c18.39,18.389,46.967,19.731,63.707,2.993 c16.738-16.739,15.396-45.316-2.994-63.706l-1.091-1.091c-4.85-4.85-10.438-8.593-16.625-11.137l32.786-32.786 c2.524-2.522,7.476-1.832,10.814,1.507l39.736,39.735c5.095,5.096,12.368,7.045,18.982,5.087 c6.148-1.82,10.617-6.66,11.955-12.946c0.839-3.946,2.654-7.336,5.395-10.076l0.967-0.967c4.168-4.167,10.022-6.247,16.488-5.857 c6.92,0.417,13.645,3.561,18.934,8.851c10.591,10.592,11.934,26.482,2.993,35.421l-0.966,0.967 c-2.74,2.74-6.13,4.555-10.076,5.395c-6.286,1.337-11.126,5.806-12.947,11.955c-1.958,6.613-0.009,13.887,5.087,18.983 l39.736,39.736c1.778,1.778,2.876,4.082,3.011,6.321C292.461,366.518,292.263,368.34,290.879,369.725z"/>
        <path d="M202.907,400.76c-1.86-1.86-4.44-2.93-7.07-2.93s-5.21,1.07-7.07,2.93c-1.86,1.86-2.93,4.44-2.93,7.07 c0,2.63,1.07,5.21,2.93,7.07c1.86,1.86,4.43,2.93,7.07,2.93c2.63,0,5.21-1.07,7.07-2.93c1.86-1.86,2.93-4.44,2.93-7.07 C205.837,405.2,204.767,402.62,202.907,400.76z"/>
        <path d="M415.263,126.995c-1.86-1.86-4.44-2.93-7.07-2.93s-5.21,1.07-7.07,2.93c-1.86,1.86-2.93,4.44-2.93,7.07 s1.07,5.21,2.93,7.07c1.86,1.86,4.44,2.93,7.07,2.93s5.21-1.07,7.07-2.93c1.86-1.86,2.93-4.44,2.93-7.07 S417.123,128.855,415.263,126.995z"/> <path d="M490.15,229.831c-5.433-5.433-12.006-9.589-19.072-12.069l33.524-33.524c5.109-5.108,7.779-12.34,7.326-19.84 c-0.432-7.155-3.569-13.995-8.833-19.259l-37.238-37.244c5.25-2.005,10.024-5.081,13.962-9.02l0.967-0.967 c16.738-16.739,15.396-45.316-2.994-63.706c-18.388-18.388-46.966-19.731-63.706-2.993l-0.967,0.967 c-3.939,3.94-7.016,8.715-9.021,13.967L366.813,8.859C355.618-2.336,338.08-3.012,327.715,7.352l-33.524,33.524 c-2.48-7.066-6.636-13.639-12.069-19.072l-1.091-1.091c-18.389-18.389-46.967-19.731-63.706-2.993 c-16.738,16.739-15.396,45.317,2.992,63.704l1.093,1.093c5.432,5.432,12.005,9.588,19.072,12.069l-33.525,33.524 c-10.364,10.364-9.688,27.902,1.51,39.1l39.771,39.741c5.097,5.096,12.373,7.044,18.983,5.087 c6.148-1.821,10.617-6.661,11.955-12.946c0.839-3.946,2.654-7.336,5.395-10.076l0.967-0.967 c4.168-4.168,10.034-6.251,16.488-5.858c6.92,0.418,13.644,3.562,18.934,8.852c5.29,5.29,8.433,12.014,8.851,18.934 c0.391,6.465-1.69,12.321-5.858,16.489l-0.966,0.966c-2.74,2.74-6.13,4.555-10.076,5.395c-6.286,1.337-11.125,5.806-12.946,11.954 c-1.958,6.612-0.01,13.884,5.084,18.98l39.699,39.73c5.881,5.881,13.512,8.859,20.935,8.859c6.707,0,13.244-2.432,18.164-7.352 l33.524-33.524c2.48,7.065,6.636,13.639,12.068,19.071l1.092,1.092c18.39,18.389,46.967,19.731,63.706,2.993 c16.738-16.739,15.396-45.317-2.993-63.706L490.15,229.831z M480.091,280.485c-8.94,8.941-24.831,7.598-35.421-2.993l-1.091-1.091 c-3.484-3.483-6.095-7.694-7.55-12.177c-2.115-6.512-7.567-11.551-14.229-13.151c-6.219-1.493-12.533,0.215-16.889,4.571 l-35.209,35.209c-1.385,1.384-3.209,1.584-4.492,1.504c-2.239-0.135-4.543-1.233-6.319-3.009l-37.954-37.983 c6.139-1.942,11.678-5.284,16.189-9.794l0.966-0.967c8.272-8.272,12.42-19.579,11.68-31.835 c-0.713-11.803-5.923-23.122-14.672-31.87s-20.067-13.96-31.87-14.673c-12.262-0.736-23.564,3.408-31.835,11.679l-0.967,0.967 c-4.511,4.512-7.853,10.051-9.794,16.189l-38.026-37.997c-1.779-1.778-2.876-4.083-3.012-6.322 c-0.078-1.285,0.121-3.108,1.504-4.492l35.21-35.209c4.356-4.356,6.064-10.67,4.571-16.89c-1.601-6.662-6.64-12.114-13.151-14.228 c-4.482-1.456-8.693-4.067-12.175-7.549l-1.093-1.093c-10.591-10.591-11.934-26.48-2.993-35.421 c8.939-8.941,24.831-7.599,35.421,2.993l1.091,1.091c3.484,3.483,6.095,7.694,7.551,12.177c2.115,6.512,7.567,11.551,14.229,13.15 c6.219,1.493,12.533-0.216,16.889-4.571l35.208-35.209c2.524-2.521,7.475-1.832,10.814,1.507l38.854,38.855 c4.925,4.925,11.995,6.934,18.448,5.238c5.989-1.572,10.557-6.065,12.217-12.018c0.947-3.392,2.653-6.338,5.071-8.756l0.967-0.967 c8.939-8.941,24.831-7.599,35.421,2.993c10.591,10.591,11.934,26.48,2.993,35.421l-0.967,0.967 c-2.418,2.419-5.364,4.125-8.755,5.071c-5.953,1.661-10.446,6.228-12.018,12.217c-1.694,6.454,0.313,13.523,5.238,18.449 l38.811,38.811c1.779,1.778,2.876,4.083,3.012,6.322c0.078,1.285-0.121,3.108-1.505,4.492l-16.048,16.048L441.271,153 c-3.906-3.905-10.237-3.905-14.142,0c-3.905,3.905-3.906,10.237,0,14.142l33.14,33.141l-5.02,5.02 c-4.355,4.356-6.064,10.67-4.571,16.889c1.6,6.662,6.639,12.114,13.15,14.229c4.483,1.456,8.693,4.067,12.177,7.551l1.091,1.091 C487.69,255.655,489.032,271.546,480.091,280.485z"/>
    </symbol>
    <symbol viewBox="0 0 512 512" id="svg-fog">
        <path d="M496,392V288a56,56,0,0,0-106.6-24H368V240a56,56,0,0,0-112,0v24H232a24,24,0,0,0-22.629,32H172.188l-12.174-40H196a28,28,0,0,0,0-56H142.971l-15.318-50.329a8,8,0,0,0-15.306,0L97.029,200H84a28.021,28.021,0,0,0-27.716,32H48a24,24,0,0,0,0,48H72.682L56.347,333.671A8,8,0,0,0,64,344H75.5l-7.385,16H44a28,28,0,0,0-1.708,55.943l-9.556,20.7A8,8,0,0,0,40,448h80v32H24a8,8,0,0,0,0,16H488a8,8,0,0,0,0-16H448V447.419A56.078,56.078,0,0,0,496,392ZM440,248a40.045,40.045,0,0,1,40,40V392a40.016,40.016,0,0,1-76.687,16H432a24,24,0,0,0,0-48H400V312h8a24,24,0,0,0,0-48h0A40.092,40.092,0,0,1,440,248ZM368,360V312h16v48Zm-16,0H312a31.8,31.8,0,0,0-4.3-16H336a23.9,23.9,0,0,0,16-6.131ZM272,240a40,40,0,0,1,80,0v24H272ZM120,179.476,126.247,200H113.753ZM40,256a8.009,8.009,0,0,1,8-8H68.027a8,8,0,0,0,6.392-12.811A11.878,11.878,0,0,1,72,228a12.013,12.013,0,0,1,12-12H196a12,12,0,0,1,0,24H149.842a8,8,0,0,0-6.922,12.012A7.85,7.85,0,0,1,144,256a8.009,8.009,0,0,1-8,8H48A8.009,8.009,0,0,1,40,256Zm34.8,72,14.609-48H136a23.854,23.854,0,0,0,13.355-4.07l6.235,20.483A24,24,0,0,0,137.371,328H104a31.841,31.841,0,0,0-10.85,1.9A7.988,7.988,0,0,0,88,328ZM32,388a12.013,12.013,0,0,1,12-12H73.189l.037,0,.027,0h8.118a8,8,0,0,0,7.543-10.667A16,16,0,0,1,104,344h56a8,8,0,0,0,0-16,8,8,0,0,1,0-16h72a8,8,0,0,0,0-16,8,8,0,0,1,0-16H408a8,8,0,0,1,0,16H336a8,8,0,0,0,0,16,8,8,0,0,1,0,16H280a8,8,0,0,0,0,16,16,16,0,0,1,15.086,21.333A8,8,0,0,0,302.629,376H432a8,8,0,0,1,0,16H272a8.009,8.009,0,0,1-8-8,8,8,0,0,0-8-8H199.6a8,8,0,0,0-7.84,9.593A12.013,12.013,0,0,1,180,400H44A12.013,12.013,0,0,1,32,388Zm280,44a40.244,40.244,0,0,1-36.658-24h73.345A39.858,39.858,0,0,1,312,432ZM59.888,416H180l.111,0,7.386,16H52.5ZM136,448h64a8,8,0,0,0,7.264-11.353l-11.712-25.375A28.043,28.043,0,0,0,207.715,392h41.656a24.082,24.082,0,0,0,7.662,10.729A56.326,56.326,0,0,0,304,447.414V480H136Zm184,32V447.43A55.74,55.74,0,0,0,365.676,408h20.648A55.74,55.74,0,0,0,432,447.43V480Z"/>
        <path d="M128,112h60.1a72.016,72.016,0,0,0,121.566,24H344a24,24,0,0,0,22.629-32H400a24,24,0,0,0,0-48H320.5a72.017,72.017,0,0,0-132.4,8H128a24,24,0,0,0,0,48ZM408,80a8.009,8.009,0,0,1-8,8H344a8,8,0,0,0,0,16,8,8,0,0,1,0,16H272a8,8,0,0,1,0-16h32a8,8,0,0,0,0-16,8,8,0,0,1,0-16h96A8.009,8.009,0,0,1,408,80ZM256,32a55.91,55.91,0,0,1,46.031,24.087A24,24,0,0,0,281.371,88H272a24,24,0,0,0,0,48h12.853a56.027,56.027,0,0,1-79.465-24H208a24,24,0,0,0,0-48h-2.612A55.983,55.983,0,0,1,256,32ZM128,80h80a8,8,0,0,1,0,16H128a8,8,0,0,1,0-16Z"/>
        <path d="M392,160a24,24,0,0,0,0,48h48a24.028,24.028,0,0,0,24-24,24,24,0,0,0,0-48H416A24.028,24.028,0,0,0,392,160Zm80,0a8.009,8.009,0,0,1-8,8H453.842a8,8,0,0,0-6.922,12.012A7.85,7.85,0,0,1,448,184a8.009,8.009,0,0,1-8,8H392a8,8,0,0,1,0-16h10.158a8,8,0,0,0,6.921-12.012A7.859,7.859,0,0,1,408,160a8.009,8.009,0,0,1,8-8h48A8.009,8.009,0,0,1,472,160Z"/>
    </symbol>
    <symbol viewBox="0 0 512 512" id="svg-gym">
        <path d="M488,72H472V60a28.0314,28.0314,0,0,0-28-28H429.2958A28.0357,28.0357,0,0,0,404,16H380a28.0314,28.0314,0,0,0-28,28V72H329.777a28.2322,28.2322,0,0,0-4.2853-4.252L292.9976,41.7529a7.9974,7.9974,0,0,0-6.7964-1.5478L199.6606,60.1758A27.9347,27.9347,0,0,0,182.5969,72H160V44a28.0314,28.0314,0,0,0-28-28H108A28.0357,28.0357,0,0,0,82.7042,32H68A28.0314,28.0314,0,0,0,40,60V72H24a8,8,0,0,0-8,8v48a8,8,0,0,0,8,8H40v12a28.0314,28.0314,0,0,0,28,28H82.7042A28.0357,28.0357,0,0,0,108,192h24a28.0314,28.0314,0,0,0,28-28V136h23.4743l8.3992,71.3931L161.7363,317.895l15.4366,4.21,30.5454-112a8.0106,8.0106,0,0,0,.227-3.04L194.0391,88.86a11.9851,11.9851,0,0,1,9.2192-13.0948l82.7676-19.1,29.4707,23.5762A11.9416,11.9416,0,0,1,320,89.6123v44.499l-31.1553,62.3111a7.9963,7.9963,0,0,0-.7959,4.4609L311.3213,410.335a22.1516,22.1516,0,0,1-.9942,9.3862l-17.3579,52.0737A11.9849,11.9849,0,0,1,281.585,480H198.7715a11.9394,11.9394,0,0,1-11.4693-8.4707l-25.0966-81.563a21.9713,21.9713,0,0,1-.1973-12.2583l10.8008-39.603-15.4365-4.21-10.8008,39.6035a37.943,37.943,0,0,0,.3418,21.1729l25.0962,81.563A27.8589,27.8589,0,0,0,198.7715,496H281.585a27.9632,27.9632,0,0,0,26.5629-19.1455l17.358-52.0742a38.2608,38.2608,0,0,0,1.7177-16.2124L304.2119,201.4644l30.9434-61.8868A7.998,7.998,0,0,0,336,136h16v28a28.0314,28.0314,0,0,0,28,28h24a28.0357,28.0357,0,0,0,25.2958-16H444a28.0314,28.0314,0,0,0,28-28V136h16a8,8,0,0,0,8-8V80A8,8,0,0,0,488,72ZM32,120V88h8v32Zm24,28V60A12.0137,12.0137,0,0,1,68,48H80V160H68A12.0137,12.0137,0,0,1,56,148Zm88,16a12.0137,12.0137,0,0,1-12,12H108a12.0137,12.0137,0,0,1-12-12V44a12.0137,12.0137,0,0,1,12-12h24a12.0137,12.0137,0,0,1,12,12Zm16-44V88h17.96q.028,1.3561.1884,2.73L181.592,120Zm176,0V88h16v32Zm120,28a12.0137,12.0137,0,0,1-12,12H432V96H416v68a12.0137,12.0137,0,0,1-12,12H380a12.0137,12.0137,0,0,1-12-12V44a12.0137,12.0137,0,0,1,12-12h24a12.0137,12.0137,0,0,1,12,12V80h16V48h12a12.0137,12.0137,0,0,1,12,12Zm24-28h-8V88h8Z"/>
        <path d="M248,374.5571V288H232v86.5571a32.1663,32.1663,0,0,1-3.3784,14.3111l-27.7769,55.5542,14.3106,7.1552,27.7768-55.5537A48.2407,48.2407,0,0,0,248,374.5571Z"/>
    </symbol>
    <symbol viewBox="0 0 512 512" id="svg-menu">
        <path d="M438,0H74C33.196,0,0,33.196,0,74s33.196,74,74,74h364c40.804,0,74-33.196,74-74S478.804,0,438,0z M438,108H74 c-18.748,0-34-15.252-34-34s15.252-34,34-34h364c18.748,0,34,15.252,34,34S456.748,108,438,108z"/>
        <path d="M438,182H74c-40.804,0-74,33.196-74,74s33.196,74,74,74h364c40.804,0,74-33.196,74-74S478.804,182,438,182z M438,290H74 c-18.748,0-34-15.252-34-34s15.252-34,34-34h364c18.748,0,34,15.252,34,34S456.748,290,438,290z"/>
        <path d="M438,364H74c-40.804,0-74,33.196-74,74s33.196,74,74,74h264c11.046,0,20-8.954,20-20c0-11.046-8.954-20-20-20H74 c-18.748,0-34-15.252-34-34s15.252-34,34-34h364c18.748,0,34,15.252,34,34s-15.252,34-34,34c-11.046,0-20,8.954-20,20 c0,11.046,8.954,20,20,20c40.804,0,74-33.196,74-74S478.804,364,438,364z"/>
    </symbol>
    <symbol viewBox="0 0 512 512" id="svg-message">
        <path d="m268.892 281.541h-205.32c-4.142 0-7.5 3.357-7.5 7.5s3.358 7.5 7.5 7.5h205.319c4.143 0 7.5-3.358 7.5-7.5.001-4.143-3.357-7.5-7.499-7.5z"/>
        <path d="m268.892 328.871h-205.32c-4.142 0-7.5 3.357-7.5 7.5s3.358 7.5 7.5 7.5h205.319c4.143 0 7.5-3.357 7.5-7.5.001-4.143-3.357-7.5-7.499-7.5z"/>
        <path d="m166.232 376.201h-102.66c-4.142 0-7.5 3.358-7.5 7.5 0 4.143 3.358 7.5 7.5 7.5h102.66c4.142 0 7.5-3.357 7.5-7.5s-3.358-7.5-7.5-7.5z"/>
        <path d="m466.209 186.88h-205.32c-4.142 0-7.5 3.357-7.5 7.5s3.358 7.5 7.5 7.5h205.32c4.143 0 7.5-3.357 7.5-7.5s-3.357-7.5-7.5-7.5z"/>
        <path d="m466.209 234.21h-102.66c-4.143 0-7.5 3.357-7.5 7.5s3.357 7.5 7.5 7.5h102.66c4.143 0 7.5-3.357 7.5-7.5s-3.357-7.5-7.5-7.5z"/>
        <path d="m46.45 57.269h150.003c4.142 0 7.5-3.357 7.5-7.5s-3.358-7.5-7.5-7.5h-150.003c-4.142 0-7.5 3.357-7.5 7.5s3.358 7.5 7.5 7.5z"/>
        <path d="m46.45 94.767h75.001c4.142 0 7.5-3.357 7.5-7.5s-3.358-7.5-7.5-7.5h-75.001c-4.142 0-7.5 3.357-7.5 7.5s3.358 7.5 7.5 7.5z"/>
        <path d="m284.041 225.624h-235.619c-26.691 0-48.407 21.715-48.407 48.407v121.698c0 26.692 21.715 48.407 48.407 48.407h1.691l-9.693 53.819c-.916 5.087 1.525 10.155 6.074 12.609 4.605 2.484 10.172 1.668 13.873-1.847l66.367-62.999c1.075-1.021 2.482-1.582 3.964-1.582h153.342c26.692 0 48.407-21.715 48.407-48.407v-121.698c.002-26.692-21.714-48.407-48.406-48.407zm33.407 170.105c0 18.42-14.987 33.407-33.407 33.407h-153.342c-5.342 0-10.417 2.025-14.292 5.703l-59.561 56.538 8.416-46.727c1.457-8.089-4.764-15.515-12.97-15.515h-3.87c-18.42 0-33.406-14.987-33.406-33.407v-121.697c0-18.42 14.986-33.407 33.406-33.407h235.619c18.42 0 33.407 14.987 33.407 33.407z"/>
        <path d="m29.436 133.41h55.94c.115 0 .222.062.279.16l23.893 41.25c2.488 4.297 6.939 6.862 11.904 6.862 4.966 0 9.416-2.565 11.905-6.862l23.892-41.249c.058-.1.165-.161.28-.161h55.939c16.01 0 29.034-13.025 29.034-29.035v-75.341c-.001-16.009-13.025-29.034-29.035-29.034h-184.031c-16.009 0-29.034 13.025-29.034 29.034v3.169c0 4.143 3.358 7.5 7.5 7.5s7.5-3.357 7.5-7.5v-3.169c.001-7.739 6.296-14.034 14.034-14.034h184.031c7.738 0 14.034 6.295 14.034 14.033v75.341c0 7.738-6.296 14.034-14.034 14.034h-55.939c-5.448 0-10.529 2.929-13.26 7.643l-22.817 39.392-22.816-39.392c-2.731-4.714-7.811-7.643-13.26-7.643h-55.94c-7.738 0-14.033-6.296-14.033-14.034v-37.111c0-4.143-3.358-7.5-7.5-7.5s-7.5 3.357-7.5 7.5v37.112c0 16.01 13.025 29.035 29.034 29.035z"/>
        <path d="m468.16 140.754h-209.223c-24.165 0-43.824 19.66-43.824 43.824v13.486c0 4.143 3.358 7.5 7.5 7.5s7.5-3.357 7.5-7.5v-13.486c0-15.894 12.93-28.824 28.823-28.824h209.224c15.894 0 28.824 12.93 28.824 28.824v106.649c0 15.894-12.93 28.824-28.824 28.824h-3.437c-7.824 0-13.728 7.079-12.344 14.765l7.018 38.969-51.027-48.438c-3.596-3.415-8.309-5.296-13.27-5.296h-35.091c-4.143 0-7.5 3.357-7.5 7.5s3.357 7.5 7.5 7.5h35.091c1.1 0 2.145.417 2.942 1.174l58.931 55.942c3.584 3.401 8.929 4.129 13.298 1.769 4.36-2.353 6.698-7.21 5.819-12.084l-8.428-46.8h.497c24.165 0 43.824-19.66 43.824-43.824v-106.65c.001-24.165-19.658-43.824-43.823-43.824z"/>
    </symbol>
    <symbol viewBox="0 0 512.021 512.021" id="svg-phone">
        <path d="m367.988 512.021c-16.528 0-32.916-2.922-48.941-8.744-70.598-25.646-136.128-67.416-189.508-120.795s-95.15-118.91-120.795-189.508c-8.241-22.688-10.673-46.108-7.226-69.612 3.229-22.016 11.757-43.389 24.663-61.809 12.963-18.501 30.245-33.889 49.977-44.5 21.042-11.315 44.009-17.053 68.265-17.053 7.544 0 14.064 5.271 15.645 12.647l25.114 117.199c1.137 5.307-.494 10.829-4.331 14.667l-42.913 42.912c40.482 80.486 106.17 146.174 186.656 186.656l42.912-42.913c3.838-3.837 9.361-5.466 14.667-4.331l117.199 25.114c7.377 1.581 12.647 8.101 12.647 15.645 0 24.256-5.738 47.224-17.054 68.266-10.611 19.732-25.999 37.014-44.5 49.977-18.419 12.906-39.792 21.434-61.809 24.663-6.899 1.013-13.797 1.518-20.668 1.519zm-236.349-479.321c-31.995 3.532-60.393 20.302-79.251 47.217-21.206 30.265-26.151 67.49-13.567 102.132 49.304 135.726 155.425 241.847 291.151 291.151 34.641 12.584 71.866 7.64 102.132-13.567 26.915-18.858 43.685-47.256 47.217-79.251l-95.341-20.43-44.816 44.816c-4.769 4.769-12.015 6.036-18.117 3.168-95.19-44.72-172.242-121.772-216.962-216.962-2.867-6.103-1.601-13.349 3.168-18.117l44.816-44.816z"/>
    </symbol>
    <symbol viewBox="0 0 512 512" id="svg-plane">
        <path d="M506.955,1.314c-3.119-1.78-6.955-1.75-10.045,0.078L313.656,109.756c-4.754,2.811-6.329,8.943-3.518,13.697 c2.81,4.753,8.942,6.328,13.697,3.518l131.482-77.749L210.411,303.335L88.603,266.069l158.965-94 c4.754-2.812,6.329-8.944,3.518-13.698c-2.81-4.753-8.943-6.33-13.697-3.518L58.91,260.392c-3.41,2.017-5.309,5.856-4.84,9.791 s3.216,7.221,7.004,8.38l145.469,44.504L270.72,439.88c0.067,0.121,0.136,0.223,0.207,0.314c1.071,1.786,2.676,3.245,4.678,4.087 c1.253,0.527,2.57,0.784,3.878,0.784c2.563,0,5.086-0.986,6.991-2.849l73.794-72.12l138.806,42.466 c0.96,0.293,1.945,0.438,2.925,0.438c2.116,0,4.206-0.672,5.948-1.961C510.496,409.153,512,406.17,512,403V10 C512,6.409,510.074,3.093,506.955,1.314z M271.265,329.23c-1.158,1.673-1.779,3.659-1.779,5.694v61.171l-43.823-79.765 l193.921-201.21L271.265,329.23z M289.486,411.309v-62.867l48.99,14.988L289.486,411.309z M492,389.483l-196.499-60.116 L492,45.704V389.483z"/>
        <path d="M164.423,347.577c-3.906-3.905-10.236-3.905-14.143,0l-93.352,93.352c-3.905,3.905-3.905,10.237,0,14.143 C58.882,457.024,61.441,458,64,458s5.118-0.976,7.071-2.929l93.352-93.352C168.328,357.815,168.328,351.483,164.423,347.577z"/>
        <path d="M40.071,471.928c-3.906-3.903-10.236-3.903-14.142,0.001l-23,23c-3.905,3.905-3.905,10.237,0,14.143 C4.882,511.024,7.441,512,10,512s5.118-0.977,7.071-2.929l23-23C43.976,482.166,43.976,475.834,40.071,471.928z"/>
        <path d="M142.649,494.34c-1.859-1.86-4.439-2.93-7.069-2.93c-2.641,0-5.21,1.07-7.07,2.93c-1.86,1.86-2.93,4.43-2.93,7.07 c0,2.63,1.069,5.21,2.93,7.07c1.86,1.86,4.44,2.93,7.07,2.93s5.21-1.07,7.069-2.93c1.86-1.86,2.931-4.44,2.931-7.07 C145.58,498.77,144.51,496.2,142.649,494.34z"/>
        <path d="M217.051,419.935c-3.903-3.905-10.233-3.905-14.142,0l-49.446,49.445c-3.905,3.905-3.905,10.237,0,14.142 c1.953,1.953,4.512,2.929,7.071,2.929s5.118-0.977,7.071-2.929l49.446-49.445C220.956,430.172,220.956,423.84,217.051,419.935z"/>
        <path d="M387.704,416.139c-3.906-3.904-10.236-3.904-14.142,0l-49.58,49.58c-3.905,3.905-3.905,10.237,0,14.143 c1.953,1.952,4.512,2.929,7.071,2.929s5.118-0.977,7.071-2.929l49.58-49.58C391.609,426.377,391.609,420.045,387.704,416.139z"/>
        <path d="M283.5,136.31c-1.86-1.86-4.44-2.93-7.07-2.93s-5.21,1.07-7.07,2.93c-1.859,1.86-2.93,4.44-2.93,7.08 c0,2.63,1.07,5.2,2.93,7.06c1.86,1.87,4.44,2.93,7.07,2.93s5.21-1.06,7.07-2.93c1.859-1.86,2.93-4.43,2.93-7.06 C286.43,140.75,285.36,138.17,283.5,136.31z"/>
    </symbol>
    <symbol viewBox="0 0 512 512" id="svg-rain">
        <path d="M415.269,72.364A40.067,40.067,0,0,0,376,40c-.67,0-1.343.017-2.015.052a55.995,55.995,0,0,0-96.624,8.035A40.076,40.076,0,0,0,242.023,75.43,71.566,71.566,0,0,0,218.24,88.423a63.96,63.96,0,0,0-109.683,15.836,40.012,40.012,0,0,0-43.365,30.058A60,60,0,0,0,92,248H228a60.046,60.046,0,0,0,53.043-32H408a72,72,0,0,0,7.269-143.636ZM228,232H92a44,44,0,0,1-16.689-84.715,8,8,0,0,0,4.9-6.381,24,24,0,0,1,31.21-19.731,8,8,0,0,0,10.2-5.551A48,48,0,0,1,216,128a48.672,48.672,0,0,1-.5,6.867A8,8,0,0,0,223.422,144H228a44,44,0,0,1,0,88Zm180-32H286.792A60.022,60.022,0,0,0,232,128.132V128a63.621,63.621,0,0,0-5.391-25.669,55.687,55.687,0,0,1,23.9-12.685,8,8,0,0,0,5.933-6.245A24.019,24.019,0,0,1,280,64c.612,0,1.277.031,2.033.094a8,8,0,0,0,8.218-5.325A40,40,0,0,1,362.92,52.5a8.007,8.007,0,0,0,8.5,3.946A23.994,23.994,0,0,1,400,80a8,8,0,0,0,8,8,56,56,0,0,1,0,112Z"/>
        <path d="M94.156,411.938a8,8,0,0,0-5.335-5.96l-17-5.579a8,8,0,0,0-7.83,1.64l-13.329,11.93a8,8,0,0,0-2.495,7.6l3.667,17.509a8,8,0,0,0,5.335,5.961l17,5.578A8,8,0,0,0,82,448.979l13.33-11.93a8,8,0,0,0,2.495-7.6ZM74.77,433.976l-8.22-2.7-1.773-8.467,6.446-5.769,8.22,2.7,1.773,8.468Z"/>
        <path d="M268.163,451.938a8,8,0,0,0-5.335-5.96l-17-5.579a8,8,0,0,0-7.83,1.64l-13.33,11.93a8,8,0,0,0-2.5,7.6l3.667,17.509a8,8,0,0,0,5.336,5.961l17,5.578a8,8,0,0,0,7.829-1.64l13.329-11.93a8,8,0,0,0,2.5-7.6Zm-19.386,22.038-8.22-2.7-1.773-8.467,6.446-5.769,8.22,2.7,1.773,8.468Z"/>
        <path d="M340.662,376A8,8,0,0,0,346,373.961l13.33-11.93a8,8,0,0,0,2.5-7.6l-3.667-17.509a8,8,0,0,0-5.336-5.961l-17-5.578a8,8,0,0,0-7.829,1.64l-13.329,11.93a8,8,0,0,0-2.5,7.6l3.667,17.509a8,8,0,0,0,5.335,5.96l17,5.579A8,8,0,0,0,340.662,376Zm-11.885-28.207,6.446-5.769,8.22,2.7,1.773,8.467-6.446,5.769-8.22-2.7Z"/>
        <path d="M190.156,328.921a8,8,0,0,0-5.336-5.961l-17-5.578a8,8,0,0,0-7.829,1.64l-13.329,11.93a8,8,0,0,0-2.5,7.6l3.667,17.509a8,8,0,0,0,5.335,5.96l17,5.579a8,8,0,0,0,7.83-1.64l13.33-11.93a8,8,0,0,0,2.5-7.6ZM170.77,350.958l-8.22-2.7-1.773-8.468,6.446-5.769,8.22,2.7,1.773,8.467Z"/>
        <path d="M244.508,357.3l-15.491,8.944a8,8,0,0,0-4,6.928v17.889a8,8,0,0,0,4,6.928l15.491,8.944a8,8,0,0,0,8,0L268,397.984a8,8,0,0,0,4-6.928V373.167a8,8,0,0,0-4-6.928L252.508,357.3A8,8,0,0,0,244.508,357.3ZM256,386.437l-7.492,4.325-7.491-4.325v-8.651l7.491-4.326L256,377.786Z"/>
        <path d="M443.1,424a8.005,8.005,0,0,0-5.658-5.657l-17.279-4.63a8.009,8.009,0,0,0-7.727,2.071l-12.649,12.65a8,8,0,0,0-2.07,7.727l4.63,17.279A8,8,0,0,0,408,459.1l17.278,4.63a8,8,0,0,0,7.727-2.071l12.65-12.649a8,8,0,0,0,2.071-7.727ZM424.96,447.077l-8.356-2.239-2.239-8.356,6.116-6.117,8.357,2.239,2.239,8.356Z"/>
        <path d="M159.94,432.562a8,8,0,0,0-10.382,4.493l-12.414,31.358L132.6,459.32a72.707,72.707,0,0,0-15.1-20.349,8,8,0,1,0-11,11.622,56.746,56.746,0,0,1,11.785,15.883l12.551,25.1A8,8,0,0,0,137.991,496c.116,0,.233,0,.349-.007a8,8,0,0,0,7.092-5.048l19-48A8,8,0,0,0,159.94,432.562Z"/>
        <path d="M178.945,384.562a8,8,0,0,0-10.383,4.493l-9.5,24a8,8,0,1,0,14.877,5.89l9.5-24A8,8,0,0,0,178.945,384.562Z"/>
        <path d="M112,328a8,8,0,0,0,7.431-5.031l16-40a8,8,0,1,0-14.856-5.942l-16,40A8,8,0,0,0,112,328Z"/>
        <path d="M416,344a8,8,0,0,0,7.431-5.031l16-40a8,8,0,0,0-14.856-5.942l-16,40A8,8,0,0,0,416,344Z"/>
        <path d="M359.5,292.849l-6.858,16a8,8,0,1,0,14.708,6.3l6.857-16a8,8,0,0,0-14.707-6.3Z"/>
        <path d="M390.521,240.646a8,8,0,0,0-10.5,4.2l-6.857,16a8,8,0,1,0,14.707,6.3l6.857-16A8,8,0,0,0,390.521,240.646Z"/>
        <path d="M194.009,272.647a8,8,0,0,0-10.5,4.2l-6.858,16a8,8,0,1,0,14.708,6.3l6.857-16A8,8,0,0,0,194.009,272.647Z"/>
        <path d="M264,344a8,8,0,0,0,7.358-4.851l6.857-16a8,8,0,0,0-14.707-6.3l-6.858,16A8.005,8.005,0,0,0,264,344Z"/>
        <path d="M294.521,264.646a8,8,0,0,0-10.5,4.2l-6.857,16a8,8,0,1,0,14.707,6.3l6.857-16A8,8,0,0,0,294.521,264.646Z"/>
        <path d="M290.009,416.647a8,8,0,0,0-10.5,4.2l-6.858,16a8,8,0,1,0,14.708,6.3l6.857-16A8,8,0,0,0,290.009,416.647Z"/>
        <path d="M391.759,449.342a8,8,0,0,0-11.093,2.223,55.11,55.11,0,0,0-5.3,10.073l-2.442,6.105-6.941-15.087a8,8,0,1,0-14.535,6.688l14.722,32A8,8,0,0,0,373.441,496l.205,0a8,8,0,0,0,7.224-5.027l9.358-23.393a39.083,39.083,0,0,1,3.754-7.143A8,8,0,0,0,391.759,449.342Z"/>
        <path d="M354.948,428.656l-3.68-8a8,8,0,0,0-14.536,6.688l3.681,8a8,8,0,1,0,14.535-6.688Z"/>
        <path d="M112.006,400a8,8,0,0,0,7.149-11.58A36.744,36.744,0,0,0,86.111,368H80a8,8,0,0,0,0,16h6.111a20.833,20.833,0,0,1,18.734,11.578A8,8,0,0,0,112.006,400Z"/>
        <path d="M392,384a8,8,0,0,0,8,8,11.243,11.243,0,0,1,8,3.313l2.343,2.343a8,8,0,0,0,11.314-11.312L419.314,384A27.135,27.135,0,0,0,400,376,8,8,0,0,0,392,384Z"/>
    </symbol>
    <symbol viewBox="0 0 512 512" id="svg-ruble">
        <path d="M256,81c5.38,0,9.77-4.26,9.99-9.59C266,71.28,266,71.14,266,71c0-5.52-4.48-10-10-10s-10,4.48-10,10 c0,0.14,0,0.28,0.01,0.41C246.23,76.74,250.62,81,256,81z"/>
        <path d="M286,266c33.146,0,60-26.849,60-60c0-33.084-26.916-60-60-60h-90c-5.522,0-10,4.477-10,10v90h-10c-5.522,0-10,4.477-10,10 c0,5.523,4.478,10,10,10h10v40h-10c-5.522,0-10,4.477-10,10s4.478,10,10,10h10v50c0,5.523,4.478,10,10,10s10-4.477,10-10v-50h70 c5.522,0,10-4.477,10-10s-4.478-10-10-10h-70v-40H286z M206,166h80c22.056,0,40,17.944,40,40c0,22.091-17.904,40-40,40h-80V166z"/>
        <path d="M256,512c137.852,0,256-118.096,256-256C512,118.359,394.114,0,256,0C118.148,0,0,118.096,0,256 C0,393.839,118.096,512,256,512z M256,20c125.72,0,236,110.28,236,236S381.72,492,256,492S20,381.72,20,256S130.28,20,256,20z"/>
        <path d="M256,452c104.2,0,196-91.099,196-196c0-89.035-66.843-170.37-153.861-191.032c-5.374-1.277-10.764,2.045-12.04,7.419 c-1.275,5.374,2.046,10.764,7.419,12.04C372.466,103.172,432,176.933,432,256c0,93.757-82.243,176-176,176S80,349.757,80,256 c0-79.067,59.534-152.828,138.482-171.573c5.373-1.276,8.694-6.666,7.419-12.04c-1.276-5.375-6.668-8.697-12.04-7.419 C126.911,85.614,60,166.893,60,256C60,360.2,151.099,452,256,452z"/>
    </symbol>
    <symbol viewBox="0 0 511.449 511.449" id="svg-ruble-circle">
        <path d="m436.508 74.941c-99.913-99.913-261.639-99.928-361.566 0-99.914 99.912-99.93 261.64 0 361.567 99.913 99.913 261.639 99.928 361.566 0 99.913-99.912 99.929-261.64 0-361.567zm-180.784 394.45c-117.816 0-213.667-95.851-213.667-213.667s95.851-213.666 213.667-213.666 213.667 95.851 213.667 213.667-95.85 213.666-213.667 213.666z"/>
        <path d="m287.724 128.058h-74.667c-11.598 0-21 9.402-21 21v85.667h-21.666c-11.598 0-21 9.402-21 21s9.402 21 21 21h21.666v22h-21.666c-11.598 0-21 9.402-21 21s9.402 21 21 21h21.666v21.667c0 11.598 9.402 21 21 21s21-9.402 21-21v-21.667h43c11.598 0 21-9.402 21-21s-9.402-21-21-21h-43v-22h53.667c40.987 0 74.333-33.346 74.333-74.333 0-40.988-33.345-74.334-74.333-74.334zm0 106.666h-53.667v-64.667h53.667c17.828 0 32.333 14.504 32.333 32.333s-14.504 32.334-32.333 32.334z"/>
    </symbol>
    <symbol viewBox="0 0 384 384" id="svg-refresh">
        <path d="M112.928,285.6c-3.024-2.056-5.984-4.392-8.816-6.936c-6.568-5.92-16.696-5.376-22.592,1.184c-5.912,6.568-5.384,16.68,1.184,22.592c3.888,3.504,8,6.736,12.216,9.608c2.76,1.88,5.896,2.784,8.992,2.784c5.12,0,10.152-2.448,13.24-7C122.12,300.528,120.232,290.576,112.928,285.6z"/>
        <path d="M360,171.536C360,76.952,284.368,0,191.4,0C106.256,0,34.336,64.728,24.112,150.568c-1.04,8.776,5.224,16.736,14,17.776c8.712,1.072,16.736-5.216,17.784-14C64.192,84.6,122.456,32,191.4,32C266.72,32,328,94.592,328,171.536c0,64.96-43.744,119.536-102.68,135l19.336-27.592c5.072-7.24,3.32-17.216-3.92-22.288c-7.224-5.08-17.216-3.312-22.28,3.92l-40.16,57.304c-0.024,0.04-0.04,0.08-0.064,0.12c-0.384,0.552-0.68,1.168-0.992,1.768c-0.168,0.328-0.392,0.648-0.536,0.984c-0.192,0.456-0.304,0.944-0.456,1.416c-0.168,0.52-0.376,1.04-0.488,1.568c-0.072,0.36-0.08,0.736-0.136,1.096c-0.096,0.68-0.2,1.36-0.208,2.04c0,0.064-0.016,0.128-0.016,0.192c0,0.376,0.088,0.72,0.112,1.088c0.04,0.616,0.072,1.224,0.184,1.824c0.096,0.504,0.248,0.984,0.392,1.472c0.144,0.504,0.272,1,0.464,1.488c0.192,0.488,0.44,0.936,0.68,1.4c0.232,0.456,0.456,0.912,0.728,1.344c0.288,0.448,0.616,0.848,0.944,1.264c0.312,0.392,0.608,0.792,0.952,1.16c0.416,0.432,0.872,0.808,1.336,1.192c0.272,0.232,0.504,0.496,0.792,0.712l56.216,40.928c2.84,2.064,6.136,3.064,9.4,3.064c4.944,0,9.824-2.28,12.952-6.584c5.192-7.144,3.624-17.152-3.52-22.352L233,337.568C305.88,318.648,360,251.488,360,171.536z"/>
        <path d="M68.8,233.808c-0.064-0.28-0.184-0.544-0.256-0.824c-0.216-0.8-0.464-1.592-0.8-2.336c-0.04-0.088-0.056-0.192-0.096-0.28c-1.976-4.176-3.392-7.6-4.472-10.768c-2.84-8.36-11.928-12.872-20.296-10c-8.368,2.84-12.84,11.928-10,20.296c1.384,4.072,3.104,8.28,5.368,13.16c0.024,0.056,0.072,0.104,0.096,0.168c0.52,1.288,1.224,2.472,2.048,3.568c0.2,0.264,0.416,0.504,0.632,0.76c0.816,0.96,1.728,1.84,2.752,2.584c0.12,0.088,0.224,0.2,0.352,0.288c1.136,0.776,2.392,1.36,3.712,1.832c0.336,0.12,0.664,0.216,1.008,0.312c1.36,0.384,2.768,0.648,4.256,0.656c0.024,0,0.048,0.008,0.072,0.008c7.728,0,14.184-5.52,15.672-12.816c0.216-1.04,0.328-2.12,0.328-3.224C69.176,236.032,69.04,234.904,68.8,233.808z"/>
    </symbol>
    <symbol viewBox="0 0 512.00533 512" id="svg-logout">
        <path d="m320 277.335938c-11.796875 0-21.332031 9.558593-21.332031 21.332031v85.335937c0 11.753906-9.558594 21.332032-21.335938 21.332032h-64v-320c0-18.21875-11.605469-34.496094-29.054687-40.554688l-6.316406-2.113281h99.371093c11.777344 0 21.335938 9.578125 21.335938 21.335937v64c0 11.773438 9.535156 21.332032 21.332031 21.332032s21.332031-9.558594 21.332031-21.332032v-64c0-35.285156-28.714843-63.99999975-64-63.99999975h-229.332031c-.8125 0-1.492188.36328175-2.28125.46874975-1.027344-.085937-2.007812-.46874975-3.050781-.46874975-23.53125 0-42.667969 19.13281275-42.667969 42.66406275v384c0 18.21875 11.605469 34.496093 29.054688 40.554687l128.386718 42.796875c4.351563 1.34375 8.679688 1.984375 13.226563 1.984375 23.53125 0 42.664062-19.136718 42.664062-42.667968v-21.332032h64c35.285157 0 64-28.714844 64-64v-85.335937c0-11.773438-9.535156-21.332031-21.332031-21.332031zm0 0"/>
        <path d="m505.75 198.253906-85.335938-85.332031c-6.097656-6.101563-15.273437-7.9375-23.25-4.632813-7.957031 3.308594-13.164062 11.09375-13.164062 19.714844v64h-85.332031c-11.777344 0-21.335938 9.554688-21.335938 21.332032 0 11.777343 9.558594 21.332031 21.335938 21.332031h85.332031v64c0 8.621093 5.207031 16.40625 13.164062 19.714843 7.976563 3.304688 17.152344 1.46875 23.25-4.628906l85.335938-85.335937c8.339844-8.339844 8.339844-21.824219 0-30.164063zm0 0"/>
    </symbol>
    <symbol viewBox="0 0 512 512" id="svg-upload">
        <path d="M424.011,226.834c-7.051,0-14.085,0.856-20.911,2.521c-5.516-30.151-20.333-57.811-42.831-79.369c-27.456-26.31-63.525-40.799-101.564-40.799c-46.164,0-89.064,21.444-116.783,57.847c-7.52-1.468-15.191-2.227-22.918-2.227C53.384,164.806,0,218.191,0,283.81s53.384,119.004,119.003,119.004h65.766V273.392l-17.646,20.257c-2.961,3.401-7.121,5.141-11.303,5.141c-3.491,0-6.995-1.212-9.833-3.684c-6.239-5.434-6.891-14.897-1.456-21.136l42.73-49.057c2.312-3.487,6.046-5.935,10.374-6.549c0.133-0.019,0.265-0.045,0.398-0.061c0.248-0.028,0.498-0.041,0.749-0.057c0.075-0.006,0.151-0.011,0.226-0.016c0.191-0.01,0.382-0.022,0.572-0.024c0.058-0.001,0.113-0.009,0.171-0.009c0.082,0,0.16,0.011,0.242,0.012c0.237,0.001,0.473,0.008,0.71,0.02c0.093,0.006,0.186,0.013,0.279,0.021c3.137,0.219,6.233,1.406,8.787,3.631c0.944,0.822,1.744,1.745,2.43,2.726l42.994,49.36c5.434,6.239,4.783,15.702-1.456,21.136c-2.837,2.473-6.344,3.684-9.834,3.684c-4.182,0-8.34-1.741-11.303-5.141l-17.869-20.514v129.678H424.01c48.518,0,87.99-39.472,87.99-87.99C512,266.303,472.528,226.834,424.011,226.834z"/>
    </symbol>
    <symbol viewBox="0 0 512 512" id="svg-search">
        <path d="M508.875,493.792L353.089,338.005c32.358-35.927,52.245-83.296,52.245-135.339C405.333,90.917,314.417,0,202.667,0 S0,90.917,0,202.667s90.917,202.667,202.667,202.667c52.043,0,99.411-19.887,135.339-52.245l155.786,155.786 c2.083,2.083,4.813,3.125,7.542,3.125c2.729,0,5.458-1.042,7.542-3.125C513.042,504.708,513.042,497.958,508.875,493.792z M202.667,384c-99.979,0-181.333-81.344-181.333-181.333S102.688,21.333,202.667,21.333S384,102.677,384,202.667 S302.646,384,202.667,384z"/>
    </symbol>
    <symbol viewBox="0 0 512 512" id="svg-speed">
        <path d="M368.411,463.073c-3.015-4.628-9.21-5.937-13.838-2.922c-31.986,20.835-69.167,31.848-107.52,31.848 c-108.773,0-197.267-88.493-197.267-197.266c0-39.499,11.629-77.607,33.632-110.209c3.09-4.578,1.883-10.793-2.695-13.883 c-4.577-3.09-10.794-1.883-13.884,2.695C42.6,209.254,29.786,251.234,29.786,294.734c0,58.034,22.6,112.594,63.636,153.631 s95.597,63.636,153.631,63.636c42.239,0,83.193-12.134,118.437-35.09C370.119,473.897,371.427,467.701,368.411,463.073z"/>
        <path d="M402.006,432.749c-3.944-3.867-10.275-3.804-14.143,0.139l-0.332,0.337c-3.89,3.92-3.865,10.252,0.055,14.143 c1.951,1.935,4.497,2.901,7.044,2.901c2.571,0,5.144-0.986,7.099-2.957l0.414-0.42 C406.011,442.948,405.95,436.617,402.006,432.749z"/>
        <path d="M442.512,163.889c1.953,1.953,4.512,2.929,7.071,2.929c2.559,0,5.118-0.977,7.071-2.929l16.658-16.658 c11.869-11.871,11.869-31.186,0-43.057l-35.7-35.7c-5.751-5.75-13.397-8.917-21.528-8.917c-8.133,0-15.778,3.167-21.528,8.917 l-16.658,16.657c-1.875,1.875-2.929,4.419-2.929,7.071c0,2.652,1.054,5.196,2.929,7.071l4.729,4.729l-11.982,11.982 c-25.409-17.648-54.143-29.55-84.588-35.037V64.003h22.001c5.522,0,10-4.477,10-10V10c0-5.523-4.478-10-10-10H186.053 c-5.522,0-10,4.477-10,10v44.002c0,5.523,4.478,10,10,10h22.001v16.965c-28.622,5.19-55.935,16.09-80.46,32.262 c-4.611,3.041-5.884,9.243-2.844,13.855c3.042,4.611,9.245,5.884,13.855,2.843c32.202-21.235,69.704-32.459,108.451-32.459 c108.773,0,197.267,88.493,197.267,197.267c0,36.887-10.242,72.857-29.619,104.017c-2.916,4.69-1.479,10.856,3.212,13.774 c1.644,1.022,3.468,1.509,5.271,1.509c3.342,0,6.607-1.674,8.502-4.721c21.351-34.334,32.635-73.955,32.635-114.579 c0-44.813-13.487-87.547-38.521-123.59l11.982-11.982L442.512,163.889z M266.055,78.297c-6.284-0.541-12.619-0.83-19.001-0.83 c-6.369-0.001-12.707,0.281-19.001,0.828V64.003h38.001V78.297z M218.054,44.002h-22.001V20.001h102.004v24.001h-22.001H218.054z M413.533,155.125c-4.061-4.825-8.336-9.51-12.849-14.023c-4.512-4.512-9.197-8.787-14.023-12.849l10.107-10.107l26.871,26.871 L413.533,155.125z M403.841,96.933c-0.002-0.002-0.004-0.003-0.006-0.005l-4.723-4.723l9.587-9.586 c1.973-1.973,4.595-3.059,7.385-3.059c2.789,0,5.412,1.086,7.385,3.06l35.7,35.699c4.072,4.072,4.072,10.699,0,14.772 l-9.586,9.585l-4.714-4.714c-0.005-0.005-0.009-0.01-0.014-0.015L403.841,96.933z"/>
        <path d="M247.055,152.992c-5.522,0-10,4.477-10,10v22.001c0,5.523,4.477,10,10,10c5.522,0,10-4.477,10-10v-22.001 C257.055,157.469,252.577,152.992,247.055,152.992z"/>
        <path d="M347.278,194.508c-1.86-1.86-4.439-2.93-7.07-2.93c-2.63,0-5.21,1.07-7.069,2.93c-1.86,1.86-2.931,4.44-2.931,7.07 c0,2.64,1.07,5.21,2.931,7.07c1.859,1.86,4.439,2.93,7.069,2.93c2.631,0,5.21-1.07,7.07-2.93c1.86-1.86,2.93-4.44,2.93-7.07 S349.139,196.368,347.278,194.508z"/>
        <path d="M378.795,284.733h-22.001c-5.522,0-10,4.477-10,10s4.478,10,10,10h22.001c5.522,0,10-4.477,10-10 C388.795,289.21,384.317,284.733,378.795,284.733z"/>
        <path d="M347.278,380.815c-1.86-1.86-4.439-2.93-7.07-2.93c-2.63,0-5.21,1.07-7.069,2.93c-1.86,1.86-2.931,4.44-2.931,7.07 c0,2.64,1.07,5.22,2.931,7.07c1.859,1.87,4.439,2.93,7.069,2.93c2.631,0,5.21-1.06,7.07-2.93c1.86-1.86,2.93-4.43,2.93-7.07 C350.208,385.255,349.139,382.685,347.278,380.815z"/>
        <path d="M247.055,394.473c-5.522,0-10,4.477-10,10v22.001c0,5.523,4.478,10,10,10s10-4.477,10-10v-22.001 C257.055,398.951,252.577,394.473,247.055,394.473z"/>
        <path d="M160.97,380.815c-1.861-1.86-4.44-2.93-7.07-2.93c-2.63,0-5.21,1.07-7.069,2.93c-1.86,1.86-2.931,4.44-2.931,7.07 c0,2.64,1.07,5.21,2.931,7.07c1.859,1.87,4.439,2.93,7.069,2.93c2.63,0,5.21-1.06,7.07-2.93c1.86-1.86,2.93-4.43,2.93-7.07 C163.901,385.255,162.831,382.675,160.97,380.815z"/>
        <path d="M137.314,284.733h-22.001c-5.522,0-10,4.477-10,10c0,5.523,4.478,10,10,10h22.001c5.522,0,10-4.477,10-10 C147.315,289.21,142.837,284.733,137.314,284.733z"/>
        <path d="M160.97,194.508c-1.86-1.86-4.44-2.93-7.07-2.93c-2.63,0-5.21,1.07-7.069,2.93c-1.86,1.86-2.931,4.44-2.931,7.07 s1.07,5.21,2.931,7.07c1.859,1.86,4.439,2.93,7.069,2.93c2.63,0,5.21-1.07,7.07-2.93c1.86-1.86,2.93-4.44,2.93-7.07 S162.831,196.368,160.97,194.508z"/>
        <path d="M325.133,216.654c-3.256-3.255-8.312-3.867-12.25-1.483l-82.548,49.974c-0.893,0.507-2.143,1.242-2.989,1.908 c-8.641,6.171-14.292,16.275-14.292,27.679c0,18.75,15.253,34.002,34.001,34.002c11.36,0,21.431-5.606,27.608-14.192 c0.739-0.915,1.428-2.116,1.989-3.105l49.964-82.533C329,224.967,328.387,219.91,325.133,216.654z M259.422,301.277l-0.826,1.364 c-2.526,3.675-6.755,6.093-11.542,6.093c-7.719,0-14-6.28-14-14c0-4.788,2.419-9.019,6.096-11.545l1.356-0.821 c1.955-1.04,4.182-1.634,6.547-1.634c7.72,0,14.001,6.28,14.001,14.001C261.054,297.097,260.46,299.323,259.422,301.277z M275.049,275.466c-2.355-3.411-5.315-6.371-8.727-8.726l22.115-13.388L275.049,275.466z"/>
        <path d="M247.055,121.499c-95.523,0-173.237,77.712-173.237,173.235S151.531,467.97,247.055,467.97 s173.236-77.713,173.236-173.236S342.578,121.499,247.055,121.499z M247.055,447.969c-84.494,0-153.236-68.741-153.236-153.235 s68.741-153.235,153.236-153.235c84.494,0,153.235,68.741,153.235,153.235S331.549,447.969,247.055,447.969z"/>
        <path d="M108.178,140.495c-1.861-1.86-4.44-2.93-7.07-2.93c-2.63,0-5.21,1.07-7.069,2.93c-1.86,1.86-2.931,4.44-2.931,7.07 c0,2.64,1.07,5.21,2.931,7.07c1.859,1.86,4.439,2.93,7.069,2.93c2.63,0,5.21-1.07,7.07-2.93c1.86-1.86,2.93-4.44,2.93-7.07 C111.108,144.936,110.039,142.356,108.178,140.495z"/>
    </symbol>
    <symbol viewBox="0 0 24 24" id="svg-strategy">
        <path d="m17 19h-10c-.2 0-.3-.1-.4-.2s-.1-.3-.1-.4l.5-1.7c1-3.1 1.1-6.3.5-9.5v-.6c0-.1 0-.3.1-.4s.3-.2.4-.2h8c.1 0 .3.1.4.2s.1.3.1.4l-.1.7c-.6 3.1-.4 6.3.5 9.2l.6 1.8c0 .2 0 .3-.1.4-.1.2-.2.3-.4.3zm-9.3-1h8.6l-.3-1.2c-1-3.1-1.2-6.5-.6-9.7v-.1h-6.8c.6 3.3.4 6.7-.6 9.9z"/>
        <path d="m17.5 7h-11c-.8 0-1.5-.7-1.5-1.5v-5c0-.3.2-.5.5-.5h3c.3 0 .5.2.5.5v2.5h1v-2.5c0-.3.2-.5.5-.5h3c.3 0 .5.2.5.5v2.5h1v-2.5c0-.3.2-.5.5-.5h3c.3 0 .5.2.5.5v5c0 .8-.7 1.5-1.5 1.5zm-11.5-6v4.5c0 .3.2.5.5.5h11c.3 0 .5-.2.5-.5v-4.5h-2v2.5c0 .3-.2.5-.5.5h-2c-.3 0-.5-.2-.5-.5v-2.5h-2v2.5c0 .3-.2.5-.5.5h-2c-.3 0-.5-.2-.5-.5v-2.5z"/>
        <path d="m21.5 24h-19c-.3 0-.5-.2-.5-.5v-2c0-.8.7-1.5 1.5-1.5h17c.8 0 1.5.7 1.5 1.5v2c0 .3-.2.5-.5.5zm-18.5-1h18v-1.5c0-.3-.2-.5-.5-.5h-17c-.3 0-.5.2-.5.5z"/>
        <path d="m19.5 21h-15c-.3 0-.5-.2-.5-.5v-1c0-.8.7-1.5 1.5-1.5h13c.8 0 1.5.7 1.5 1.5v1c0 .3-.2.5-.5.5zm-14.5-1h14v-.5c0-.3-.2-.5-.5-.5h-13c-.3 0-.5.2-.5.5z"/>
    </symbol>
    <symbol viewBox="0 0 128 128" id="svg-time">
        <path d="M123.687,40.969a1.748,1.748,0,0,0-1.631-1.118h-2.4a1.659,1.659,0,0,0-.256.019L106.7,39.8h-.01a1.749,1.749,0,0,0-1.546,2.567A46.611,46.611,0,1,1,85.554,22.825L82.739,25.64a1.75,1.75,0,0,0,0,2.474l6.532,6.533a1.749,1.749,0,0,0,1.226.513l21.09.14h.012a1.752,1.752,0,0,0,1.75-1.762l-.141-21.09a1.749,1.749,0,0,0-.513-1.225L106.163,4.69a1.8,1.8,0,0,0-2.475,0l-5.331,5.332a64.132,64.132,0,1,0,25.33,30.947ZM64,124.5A60.5,60.5,0,1,1,97.614,13.719a1.75,1.75,0,0,0,2.212-.216l5.1-5.1,4.787,4.788.124,18.6-18.6-.123-4.787-4.788,3.215-3.215a1.749,1.749,0,0,0-.348-2.744,49.995,49.995,0,1,0,20.188,22.4l10.137.056c.088-.012.186-.007.277-.02h.925A60.446,60.446,0,0,1,64,124.5Z"/>
        <path d="M83.867,77.244a1.749,1.749,0,0,0,1.75-1.75V52.5a1.75,1.75,0,0,0-3.5,0v9.747H70.356l5.069-8.88a1.749,1.749,0,1,0-3.039-1.734l-6.563,11.5a1.749,1.749,0,0,0,1.52,2.617H82.117v9.747A1.749,1.749,0,0,0,83.867,77.244Z"/>
        <path d="M60.657,77.244a1.75,1.75,0,1,0,0-3.5H45.883V71.262a2.862,2.862,0,0,1,1.557-2.554l11.51-5.921A6.371,6.371,0,0,0,56.035,50.75h-11.9a1.749,1.749,0,0,0-1.75,1.75v5.508a1.75,1.75,0,0,0,3.5,0V54.25H56.035a2.872,2.872,0,0,1,1.314,5.425L45.839,65.6a6.344,6.344,0,0,0-3.456,5.665v4.232a1.749,1.749,0,0,0,1.75,1.75Z"/>
        <path d="M64,34.127a1.749,1.749,0,0,0,1.75-1.75V24a1.75,1.75,0,1,0-3.5,0v8.375A1.749,1.749,0,0,0,64,34.127Z"/>
        <path d="M64,105.742a1.749,1.749,0,0,0,1.75-1.75V95.617a1.75,1.75,0,0,0-3.5,0v8.375A1.749,1.749,0,0,0,64,105.742Z"/>
        <path d="M40.4,42.875A1.75,1.75,0,1,0,42.878,40.4l-5.922-5.922a1.75,1.75,0,0,0-2.475,2.475Z"/>
        <path d="M91.044,93.516a1.75,1.75,0,0,0,2.475-2.475L87.6,85.119a1.75,1.75,0,0,0-2.475,2.475Z"/>
        <path d="M35.719,94.028a1.746,1.746,0,0,0,1.237-.512l5.922-5.922A1.75,1.75,0,1,0,40.4,85.119l-5.922,5.922a1.75,1.75,0,0,0,1.238,2.987Z"/>
        <path d="M32.38,62.247H24.005a1.75,1.75,0,1,0,0,3.5H32.38a1.75,1.75,0,1,0,0-3.5Z"/>
        <path d="M95.62,65.747H104a1.75,1.75,0,0,0,0-3.5H95.62a1.75,1.75,0,0,0,0,3.5Z"/>
    </symbol>
    <symbol viewBox="0 0 512 512" id="svg-instagram">
        <path d="m305 256c0 27.0625-21.9375 49-49 49s-49-21.9375-49-49 21.9375-49 49-49 49 21.9375 49 49zm0 0"/>
        <path d="m370.59375 169.304688c-2.355469-6.382813-6.113281-12.160157-10.996094-16.902344-4.742187-4.882813-10.515625-8.640625-16.902344-10.996094-5.179687-2.011719-12.960937-4.40625-27.292968-5.058594-15.503906-.707031-20.152344-.859375-59.402344-.859375-39.253906 0-43.902344.148438-59.402344.855469-14.332031.65625-22.117187 3.050781-27.292968 5.0625-6.386719 2.355469-12.164063 6.113281-16.902344 10.996094-4.882813 4.742187-8.640625 10.515625-11 16.902344-2.011719 5.179687-4.40625 12.964843-5.058594 27.296874-.707031 15.5-.859375 20.148438-.859375 59.402344 0 39.25.152344 43.898438.859375 59.402344.652344 14.332031 3.046875 22.113281 5.058594 27.292969 2.359375 6.386719 6.113281 12.160156 10.996094 16.902343 4.742187 4.882813 10.515624 8.640626 16.902343 10.996094 5.179688 2.015625 12.964844 4.410156 27.296875 5.0625 15.5.707032 20.144532.855469 59.398438.855469 39.257812 0 43.90625-.148437 59.402344-.855469 14.332031-.652344 22.117187-3.046875 27.296874-5.0625 12.820313-4.945312 22.953126-15.078125 27.898438-27.898437 2.011719-5.179688 4.40625-12.960938 5.0625-27.292969.707031-15.503906.855469-20.152344.855469-59.402344 0-39.253906-.148438-43.902344-.855469-59.402344-.652344-14.332031-3.046875-22.117187-5.0625-27.296874zm-114.59375 162.179687c-41.691406 0-75.488281-33.792969-75.488281-75.484375s33.796875-75.484375 75.488281-75.484375c41.6875 0 75.484375 33.792969 75.484375 75.484375s-33.796875 75.484375-75.484375 75.484375zm78.46875-136.3125c-9.742188 0-17.640625-7.898437-17.640625-17.640625s7.898437-17.640625 17.640625-17.640625 17.640625 7.898437 17.640625 17.640625c-.003906 9.742188-7.898437 17.640625-17.640625 17.640625zm0 0"/>
        <path d="m256 0c-141.363281 0-256 114.636719-256 256s114.636719 256 256 256 256-114.636719 256-256-114.636719-256-256-256zm146.113281 316.605469c-.710937 15.648437-3.199219 26.332031-6.832031 35.683593-7.636719 19.746094-23.246094 35.355469-42.992188 42.992188-9.347656 3.632812-20.035156 6.117188-35.679687 6.832031-15.675781.714844-20.683594.886719-60.605469.886719-39.925781 0-44.929687-.171875-60.609375-.886719-15.644531-.714843-26.332031-3.199219-35.679687-6.832031-9.8125-3.691406-18.695313-9.476562-26.039063-16.957031-7.476562-7.339844-13.261719-16.226563-16.953125-26.035157-3.632812-9.347656-6.121094-20.035156-6.832031-35.679687-.722656-15.679687-.890625-20.6875-.890625-60.609375s.167969-44.929688.886719-60.605469c.710937-15.648437 3.195312-26.332031 6.828125-35.683593 3.691406-9.808594 9.480468-18.695313 16.960937-26.035157 7.339844-7.480469 16.226563-13.265625 26.035157-16.957031 9.351562-3.632812 20.035156-6.117188 35.683593-6.832031 15.675781-.714844 20.683594-.886719 60.605469-.886719s44.929688.171875 60.605469.890625c15.648437.710937 26.332031 3.195313 35.683593 6.824219 9.808594 3.691406 18.695313 9.480468 26.039063 16.960937 7.476563 7.34375 13.265625 16.226563 16.953125 26.035157 3.636719 9.351562 6.121094 20.035156 6.835938 35.683593.714843 15.675781.882812 20.683594.882812 60.605469s-.167969 44.929688-.886719 60.605469zm0 0"/>
    </symbol>
    <symbol viewBox="0 0 512 512" id="svg-facebook">
        <path d="m512 256c0-141.4-114.6-256-256-256s-256 114.6-256 256 114.6 256 256 256c1.5 0 3 0 4.5-.1v-199.2h-55v-64.1h55v-47.2c0-54.7 33.4-84.5 82.2-84.5 23.4 0 43.5 1.7 49.3 2.5v57.2h-33.6c-26.5 0-31.7 12.6-31.7 31.1v40.8h63.5l-8.3 64.1h-55.2v189.5c107-30.7 185.3-129.2 185.3-246.1z"/>
    </symbol>
    <symbol viewBox="0 0 512 512" id="svg-write">
        <path d="m454.808 33.134h-9.067v-9.067c0-13.271-10.796-24.067-24.067-24.067s-24.067 10.796-24.067 24.067v9.067h-34.7v-9.067c.001-13.271-10.796-24.067-24.066-24.067s-24.067 10.796-24.067 24.067v9.067h-34.7v-9.067c0-13.271-10.796-24.067-24.067-24.067s-24.067 10.796-24.067 24.067v9.067h-34.7v-9.067c.001-13.271-10.796-24.067-24.066-24.067-13.271 0-24.067 10.796-24.067 24.067v9.067h-9.068c-22.405 0-40.632 18.228-40.632 40.632v183.537l-18.346-18.346c-9.384-9.384-24.652-9.383-34.036 0l-23.429 23.429c-9.384 9.383-9.384 24.652 0 34.035l75.81 75.81v99.136c0 22.405 18.228 40.633 40.632 40.633h255.136c4.142 0 7.5-3.358 7.5-7.5s-3.358-7.5-7.5-7.5h-255.135c-14.134 0-25.632-11.499-25.632-25.633v-84.136l61.184 61.184c.178.178.364.346.557.503.131.107.267.202.403.299.064.045.124.096.189.139.172.115.349.217.528.316.034.019.066.041.1.059.189.101.382.189.576.272.029.012.056.028.086.04.189.078.381.144.574.206.04.013.078.029.118.041.182.055.366.098.55.138.055.012.108.029.163.04.179.035.359.058.54.08.063.008.124.021.187.027.243.024.488.036.732.036h43.751l9.518 9.518c1.464 1.464 3.384 2.197 5.303 2.197s3.839-.733 5.303-2.197c2.929-2.929 2.929-7.678 0-10.607l-9.518-9.517v-43.749c0-.246-.012-.491-.036-.736-.005-.054-.017-.106-.023-.16-.023-.19-.048-.379-.085-.567-.01-.048-.024-.095-.035-.143-.042-.191-.087-.382-.143-.57-.01-.034-.024-.066-.035-.1-.063-.199-.132-.397-.212-.592-.009-.021-.02-.041-.029-.062-.086-.203-.179-.404-.283-.6-.014-.026-.03-.049-.044-.075-.103-.188-.211-.373-.331-.553-.037-.056-.081-.108-.12-.163-.102-.145-.204-.29-.317-.429-.158-.193-.325-.379-.503-.557l-61.185-61.185h258.087c4.142 0 7.5-3.358 7.5-7.5s-3.358-7.5-7.5-7.5h-265.067c-2.203 0-4.179.956-5.551 2.469l-44.933-44.933v-141.333h366.034v51.151c0 4.142 3.358 7.5 7.5 7.5s7.5-3.358 7.5-7.5v-108.352c.001-22.405-18.227-40.632-40.632-40.632zm-234.556 402.478h-21.251l21.251-21.251zm-157.317-121.065 12.823-12.822 117.959 117.959-12.822 12.822zm141.388 94.53-117.959-117.959 12.823-12.822 117.959 117.959zm-170.12-136.084 23.429-23.429c3.535-3.535 9.288-3.536 12.823 0l18.126 18.126-36.252 36.25-18.125-18.125c-3.536-3.535-3.536-9.287-.001-12.822zm387.471-257.993c5 0 9.067 4.067 9.067 9.067v33.133c0 5-4.067 9.067-9.067 9.067s-9.067-4.067-9.067-9.067v-16.556c0-.003 0-.006 0-.01s0-.006 0-.01v-16.557c.001-5 4.068-9.067 9.067-9.067zm-82.833 0c5 0 9.067 4.067 9.067 9.067v33.133c0 5-4.067 9.067-9.067 9.067s-9.067-4.067-9.067-9.067v-16.556c0-.003 0-.006 0-.01s0-.006 0-.01v-16.557c0-5 4.067-9.067 9.067-9.067zm-91.9 9.067c0-5 4.067-9.067 9.067-9.067s9.067 4.067 9.067 9.067v16.557.01s0 .006 0 .01v16.556c0 5-4.067 9.067-9.067 9.067-4.999 0-9.067-4.067-9.067-9.067zm-73.767-9.067c4.999 0 9.067 4.067 9.067 9.067v33.133c0 5-4.067 9.067-9.067 9.067s-9.067-4.067-9.067-9.067v-33.133c0-5 4.067-9.067 9.067-9.067zm-58.767 100.967v-42.201c0-14.134 11.499-25.632 25.632-25.632h9.068v9.066c0 13.271 10.796 24.067 24.067 24.067 13.27 0 24.067-10.796 24.067-24.067v-9.066h34.7v9.066c0 13.271 10.796 24.067 24.067 24.067s24.067-10.796 24.067-24.067v-9.066h34.7v9.066c0 13.271 10.796 24.067 24.067 24.067s24.067-10.796 24.067-24.067v-9.066h34.7v9.066c0 13.271 10.796 24.067 24.067 24.067s24.067-10.796 24.067-24.067v-9.066h9.067c14.134 0 25.633 11.499 25.633 25.632v42.201z"/>
        <path d="m487.941 204.619c-4.142 0-7.5 3.358-7.5 7.5v259.248c0 14.134-11.499 25.633-25.633 25.633h-29.634c-4.142 0-7.5 3.358-7.5 7.5s3.358 7.5 7.5 7.5h29.634c22.405 0 40.633-18.228 40.633-40.633v-259.248c0-4.142-3.358-7.5-7.5-7.5z"/>
        <path d="m164.89 180.667h265.067c4.142 0 7.5-3.358 7.5-7.5s-3.358-7.5-7.5-7.5h-265.067c-4.142 0-7.5 3.358-7.5 7.5s3.358 7.5 7.5 7.5z"/>
        <path d="m164.89 230.367h265.067c4.142 0 7.5-3.358 7.5-7.5s-3.358-7.5-7.5-7.5h-265.067c-4.142 0-7.5 3.358-7.5 7.5s3.358 7.5 7.5 7.5z"/>
        <path d="m164.89 280.067h265.067c4.142 0 7.5-3.358 7.5-7.5s-3.358-7.5-7.5-7.5h-265.067c-4.142 0-7.5 3.358-7.5 7.5s3.358 7.5 7.5 7.5z"/>
        <path d="m437.458 371.967c0-4.142-3.358-7.5-7.5-7.5h-173.95c-4.142 0-7.5 3.358-7.5 7.5s3.358 7.5 7.5 7.5h173.95c4.142 0 7.5-3.358 7.5-7.5z"/>
    </symbol>
    <symbol viewBox="0 0 512 512" id="svg-speaker">
        <path d="m393.741 127.744v-63.487c0-17.511-14.239-31.757-31.741-31.757-17.177 0-31.204 13.699-31.745 30.74-32.371 27.22-92.089 55.086-147.096 58.199v-9.895c0-16.666-13.553-30.226-30.211-30.226h-47.366c-16.658 0-30.21 13.56-30.21 30.226v10.803c-42.377 4.974-75.372 41.117-75.372 84.848 0 43.732 32.995 79.875 75.372 84.849v10.803c0 13.16 8.453 24.376 20.21 28.515v138.138c0 5.522 4.478 10 10 10h23.697c18.565 0 33.669-15.124 33.669-33.714v-114.423c11.757-4.139 20.211-15.355 20.211-28.515v-9.895c55.008 3.113 114.725 30.979 147.096 58.198.541 17.041 14.567 30.74 31.745 30.74 17.502 0 31.741-14.246 31.741-31.757v-63.487c30.634-14.205 50.768-45.287 50.768-79.451s-20.134-65.247-50.768-79.452zm-246.058 144.906h-36.834v-130.909h36.834zm-52.311-161.106c0-5.639 4.58-10.226 10.21-10.226h47.366c5.63 0 10.211 4.587 10.211 10.226v10.197h-67.787zm-75.372 95.651c0-36.092 29.326-65.454 65.372-65.454h5.477v130.909h-5.477c-36.046 0-65.372-29.363-65.372-65.455zm122.948 238.591c0 7.562-6.132 13.714-13.669 13.714h-13.697v-126.428h27.366zm20.211-142.938c0 5.638-4.581 10.225-10.211 10.225h-47.366c-5.63 0-10.21-4.587-10.21-10.225v-10.198h67.787zm210.582 47.286c0 6.482-5.267 11.757-11.741 11.757-6.49 0-11.771-5.274-11.771-11.757v-98.006c0-5.522-4.478-10-10-10s-10 4.478-10 10v73.754c-39.422-28.163-100.626-53.232-157.07-53.232h-5.477v-130.909h5.477c56.443 0 117.649-25.07 157.07-53.233v73.754c0 5.522 4.478 10 10 10s10-4.478 10-10v-98.005c0-6.482 5.28-11.757 11.771-11.757 6.475 0 11.741 5.274 11.741 11.757v70.15 145.576zm20-86.286v-113.305c18.846 12.286 30.768 33.558 30.768 56.652s-11.922 44.367-30.768 56.653z"/>
        <path d="m502 197.195h-20.664c-5.522 0-10 4.478-10 10s4.478 10 10 10h20.664c5.522 0 10-4.478 10-10s-4.478-10-10-10z"/>
        <path d="m470.904 155.073c2.556 0 5.112-.974 7.063-2.922l20.636-20.594c3.909-3.901 3.916-10.232.015-14.142-3.9-3.911-10.233-3.916-14.142-.015l-20.636 20.594c-3.909 3.901-3.916 10.232-.015 14.142 1.954 1.959 4.517 2.937 7.079 2.937z"/>
        <path d="m477.968 262.24c-3.909-3.901-10.24-3.896-14.142.015-3.901 3.909-3.895 10.24.015 14.142l20.636 20.594c1.952 1.948 4.507 2.922 7.063 2.922 2.562 0 5.125-.979 7.078-2.937 3.901-3.909 3.895-10.24-.015-14.142z"/>
        <path d="m340.229 197.195c-5.522 0-10 4.478-10 10v.057c0 5.522 4.478 9.972 10 9.972s10-4.506 10-10.028-4.477-10.001-10-10.001z"/>
    </symbol>
    <symbol viewBox="0 -13 512.00014 512" id="svg-interest">
        <path d="m511.074219 401.507812c-2.402344-11.5625-9.199219-21.441406-19.140625-27.820312-9.941406-6.375-21.75-8.433594-33.265625-5.800781l-53.367188 12.21875v-21.816407c10.703125-10.082031 21.847657-23.246093 29.773438-35.277343 13.898437-21.097657 23.734375-44.265625 29.234375-68.847657 6.539062-29.246093 6.679687-60.207031.402344-89.546874-1.15625-5.398438-6.472657-8.84375-11.871094-7.683594-5.402344 1.152344-8.839844 6.46875-7.6875 11.871094 5.679687 26.535156 5.554687 54.542968-.363282 80.992187-4.96875 22.210937-13.859374 43.144531-26.417968 62.210937-3.722656 5.652344-8.238282 11.582032-13.070313 17.246094v-110.84375c0-5.523437-4.476562-10-10-10h-79.105469v-106.789062c0-5.507813-4.457031-9.980469-9.964843-10l-89.105469-.300782c-.011719 0-.019531 0-.03125 0-2.648438 0-5.1875 1.046876-7.058594 2.917969-1.882812 1.875-2.941406 4.421875-2.941406 7.082031v55.550782h-79.117188c-5.519531 0-10 4.476562-10 10v99.027344h-22.28125v-13.582032c0-5.519531-4.476562-9.996094-10-9.996094h-10.257812c-1.746094-9.613281-2.757812-19.378906-2.996094-29.128906-.585937-23.707031 3.171875-46.902344 11.164063-68.949218 1.863281-5.140626 3.980469-10.265626 6.289062-15.226563 2.332031-5.007813.160157-10.957031-4.84375-13.289063-5.007812-2.324218-10.957031-.160156-13.285156 4.847657-2.558594 5.492187-4.902344 11.164062-6.960937 16.851562-8.84375 24.394531-13 50.054688-12.359376 76.257813.238282 9.578125 1.152344 19.164062 2.703126 28.636718h-45.148438c-5.523438 0-10 4.476563-10 10v175.773438c0 5.523438 4.476562 10 10 10h75.695312c5.523438 0 10-4.476562 10-10v-9.507812h37.617188l152.378906 59.765624c14.226563 5.582032 29.128906 8.390626 44.109375 8.390626 9.988281 0 20.019531-1.25 29.898438-3.761719l119.433593-30.355469c22.671876-5.761719 36.699219-28.214844 31.941407-51.117188zm-125.769531-173.097656v156.273438l-26.734376 6.121094c-2.875.65625-5.78125 1.175781-8.703124 1.582031-11.140626 1.535156-22.507813 1.210937-33.53125-.972657-.046876-.011718-.09375-.019531-.140626-.03125v-15.164062c7.625-11.375 10.152344-25.796875 6.15625-38.960938-1.113281-3.671874-2.695312-7.214843-4.707031-10.484374-.457031-.742188-.933593-1.46875-1.429687-2.179688-.003906-.011719-.011719-.019531-.019532-.03125v-96.15625h69.109376zm-158.210938-117.054687 69.105469.230469v197.09375l-38.621094-15.984376-30.484375-12.621093zm-89.117188 65.515625h69.105469v94.917968l-12.402343-5.132812c-1.214844-.503906-2.515626-.761719-3.824219-.761719h-52.878907zm-62.28125 241.222656h-55.695312v-155.777344h47.179688c.019531 0 .042968.003906.066406.003906.019531 0 .035156-.003906.054687-.003906h8.394531zm398.511719 15.148438-119.433593 30.355468c-20.617188 5.238282-41.980469 3.898438-61.78125-3.863281l-154.136719-60.457031c-1.164063-.457032-2.402344-.6875-3.652344-.6875h-39.507813v-112.691406h93.167969l64.703125 26.78125 35.40625 14.65625c12.527344 5.195312 18.523438 19.890624 13.386719 32.402343-1.03125 2.511719-2.308594 4.898438-4.003906 7.027344-6.261719 7.902344-16.570313 11.386719-26.210938 9.042969-.078125-.019532-.15625-.039063-.234375-.058594-.578125-.144531-1.152344-.3125-1.722656-.5l-67.285156-25.867188c-.546875-.210937-.835938-.320312-.835938-.320312-5.152344-1.984375-10.9375.589844-12.921875 5.746094-1.980469 5.152344.589844 10.941406 5.746094 12.921875 0 0 37.9375 14.585937 66.867187 25.742187.582032.226563 1.160157.4375 1.742188.632813l22.214844 8.542969c6.714844 2.582031 13.398437 5.152343 20.386718 6.9375 11.867188 3.03125 24.183594 4.25 36.417969 3.582031 6.898438-.375 13.785157-1.328125 20.519531-2.867188l34.496094-7.894531c.035156-.007812.070313-.023438.105469-.03125l65.492187-14.992188c6.230469-1.425781 12.625-.3125 18 3.136719 5.382813 3.453125 9.058594 8.800781 10.359376 15.058594 2.578124 12.394531-5.015626 24.546875-17.285157 27.664063zm0 0"/>
        <path d="m127.878906 71.125c2.390625 0 4.789063-.851562 6.699219-2.578125 17.84375-16.117187 39.152344-28.972656 61.632813-37.179687 24.355468-8.890626 51.054687-12.683594 77.214843-10.964844 18.722657 1.230468 37.066407 5.226562 54.519531 11.875 5.15625 1.964844 10.9375-.621094 12.902344-5.785156 1.96875-5.160157-.621094-10.9375-5.785156-12.902344-19.3125-7.359375-39.609375-11.78125-60.324219-13.144532-28.914062-1.898437-58.441406 2.296876-85.386719 12.136719-24.871093 9.078125-48.445312 23.300781-68.175781 41.121094-4.101562 3.703125-4.421875 10.027344-.71875 14.125 1.972657 2.1875 4.691407 3.296875 7.421875 3.296875zm0 0"/>
        <path d="m354.886719 142.492188c1.894531 1.644531 4.230469 2.449218 6.554687 2.449218 2.792969 0 5.574219-1.164062 7.554688-3.4375l82.273437-94.707031c3.625-4.167969 3.179688-10.484375-.988281-14.105469-4.171875-3.621094-10.484375-3.179687-14.105469.988282l-82.277343 94.707031c-3.625 4.167969-3.179688 10.484375.988281 14.105469zm0 0"/>
        <path d="m428.617188 99.738281c-13.84375 0-25.105469 11.261719-25.105469 25.105469s11.261719 25.105469 25.105469 25.105469 25.105468-11.265625 25.105468-25.105469c0-13.84375-11.261718-25.105469-25.105468-25.105469zm0 30.210938c-2.816407 0-5.105469-2.289063-5.105469-5.105469 0-2.8125 2.289062-5.105469 5.105469-5.105469 2.8125 0 5.105468 2.292969 5.105468 5.105469 0 2.816406-2.292968 5.105469-5.105468 5.105469zm0 0"/>
        <path d="m373.085938 77.476562c13.84375 0 25.105468-11.261718 25.105468-25.105468s-11.261718-25.105469-25.105468-25.105469-25.105469 11.261719-25.105469 25.105469 11.261719 25.105468 25.105469 25.105468zm0-30.214843c2.816406 0 5.105468 2.292969 5.105468 5.109375 0 2.8125-2.289062 5.105468-5.105468 5.105468-2.816407 0-5.105469-2.292968-5.105469-5.105468 0-2.816406 2.289062-5.109375 5.105469-5.109375zm0 0"/>
        <path d="m92.328125 94.625c1.601563 3.84375 5.542969 6.382812 9.71875 6.164062 4.128906-.214843 7.746094-3.007812 9.023437-6.929687 1.289063-3.957031-.117187-8.464844-3.425781-10.992187-3.371093-2.570313-8.105469-2.730469-11.636719-.382813-3.917968 2.605469-5.488281 7.800781-3.679687 12.140625zm0 0"/>
    </symbol>
    <symbol viewBox="0 0 352.8 199.7" id="svg-zoom">
        <path d="M122,0.1c16.8,0.3,45.9-0.7,75.1,0.5c31.2,1.3,54.5,25.9,56.3,55.7c0.8,13.2,0.7,26.3,0.8,39.5c0,25.7,0,51.3,0,77c0,4.2,0,8.4-1.7,12.3c-3,7.4-8.3,12.4-16.4,13.9c-3.1,0.5-6.3,0.8-9.4,0.8c-50.5,0-101,0-151.5,0c-8,0.1-16-0.3-23.9-1.4c-27.3-4-46.7-24.3-50-52c-0.9-8.9-1.3-17.9-1.2-26.9C0,87.9,0,56.4,0.3,24.9C0.5,8.7,8.8,0.4,25.2,0.2C53.3-0.1,81.5,0.1,122,0.1z M109.6,10.2c-28.3,0-56.6-0.1-85,0c-9.9,0-14.4,4.5-14.4,14.4C10.1,55.8,10,86.9,10,118.1c0,9,0.2,18,1.1,27c1,10.9,5.7,21.1,13.3,28.9c11.2,12.2,25.6,15.4,41.2,15.5c54.1,0.1,108.3,0.2,162.4,0.2c11.7,0,15.9-4.4,16-16.1c0.1-26.3,0.1-52.7,0.1-79c0-12.7,0.3-25.3-0.9-38c-2.4-26.5-20.5-44.5-47.1-45.9C167.3,9.2,138.5,10.4,109.6,10.2z"/>
        <path d="M352.8,99.9c0,24.3,0,48.7,0,73c0,3.7-0.3,7.3-0.3,11c0,5.8-2.9,9.8-8,12.2c-4.7,2.5-10.5,1.8-14.6-1.7c-6.9-5.5-13.7-11.2-20.4-16.9c-9.4-7.9-18.9-15.8-28.2-23.9c-8.3-7-13.1-17.3-13.1-28.1c-0.2-17.2-0.2-34.3,0-51.5c0.1-10.5,3.8-19.8,11.7-26.7c16.2-14.1,32.8-27.8,49.2-41.6c4-3.5,9.6-4.5,14.5-2.5c5.2,1.9,8.6,5.8,8.7,11.6c0.2,14.2,0.3,28.3,0.4,42.5S352.8,85.7,352.8,99.9L352.8,99.9z M342.6,100L342.6,100c-0.1-27.3-0.1-54.6-0.1-81.9c0-2,0.3-4.2-2-5.3s-4.2-0.2-6,1.3c-16,13.6-32.1,27-48,40.7c-5.6,4.9-8.4,11.5-8.4,19.1c0,17.3,0,34.7,0,52c0,7.2,2.5,13.7,7.8,18.3c16.2,14.1,32.7,27.8,49.1,41.7c1.5,1.2,3.1,2,5,1.2s2.2-2.7,2.3-4.6s0.2-3.7,0.2-5.5C342.6,151.4,342.7,125.7,342.6,100L342.6,100z"/>
    </symbol>
    <symbol viewBox="0 0 480 480" id="svg-wifi">
        <path d="M81.664,332.303C39.532,290.39,15.892,233.38,16,173.951C15.892,114.522,39.532,57.513,81.664,15.599c3.065-3.182,2.97-8.247-0.212-11.312c-3.104-2.99-8.02-2.983-11.116,0.016c-93.694,93.57-93.794,245.378-0.224,339.072c0.075,0.075,0.149,0.15,0.224,0.224c3.174,3.074,8.238,2.993,11.312-0.18C84.647,340.323,84.654,335.408,81.664,332.303z"/>
        <path d="M409.888,4.527c-0.075-0.075-0.149-0.15-0.224-0.224c-3.173-3.074-8.238-2.994-11.312,0.18c-2.999,3.096-3.006,8.012-0.016,11.116c87.455,87.318,87.567,229,0.248,316.456c-0.083,0.083-0.165,0.166-0.248,0.248c-3.174,3.074-3.254,8.139-0.18,11.312c3.074,3.174,8.139,3.254,11.312,0.18c0.066-0.064,0.132-0.13,0.196-0.196C503.358,250.029,503.459,98.221,409.888,4.527z"/>
        <path d="M127.133,287.211c-0.064-0.067-0.13-0.132-0.196-0.196C96.82,257.108,79.919,216.395,80,173.951c-0.082-42.444,16.819-83.156,46.936-113.064c3.069-3.178,2.981-8.243-0.197-11.312c-3.1-2.994-8.015-2.994-11.115,0c-68.691,68.492-68.852,179.701-0.36,248.392c0.12,0.12,0.24,0.24,0.36,0.36c3.07,3.178,8.134,3.266,11.312,0.196C130.114,295.454,130.202,290.389,127.133,287.211z"/>
        <path d="M172.333,241.988c-0.064-0.067-0.13-0.132-0.196-0.196c-37.48-37.432-37.52-98.16-0.088-135.64c0.029-0.029,0.059-0.059,0.088-0.088c3.123-3.124,3.123-8.188,0-11.312c-3.124-3.123-8.188-3.123-11.312,0c-43.728,43.675-43.771,114.528-0.096,158.256c0.032,0.032,0.064,0.064,0.096,0.096c3.069,3.178,8.134,3.266,11.312,0.196C175.314,250.23,175.402,245.165,172.333,241.988z"/>
        <path d="M319.296,94.895c-0.032-0.032-0.064-0.064-0.096-0.096v-0.048c-3.069-3.178-8.134-3.266-11.312-0.196c-3.178,3.069-3.266,8.134-0.196,11.312c0.064,0.067,0.13,0.132,0.196,0.196c37.48,37.432,37.52,98.16,0.088,135.64c-0.029,0.029-0.059,0.059-0.088,0.088c-3.137,3.124-3.148,8.199-0.024,11.336c3.124,3.137,8.199,3.148,11.336,0.024C362.928,209.476,362.971,138.623,319.296,94.895z"/>
        <path d="M364.736,49.935c-0.12-0.12-0.24-0.24-0.36-0.36c-3.178-3.07-8.242-2.982-11.312,0.196c-2.995,3.1-2.995,8.016,0,11.116c62.444,62.249,62.601,163.333,0.352,225.776c-0.117,0.117-0.234,0.235-0.352,0.352c-3.178,3.07-3.266,8.134-0.196,11.312c3.07,3.178,8.134,3.266,11.312,0.196c0.066-0.064,0.132-0.13,0.196-0.196C433.067,229.835,433.228,118.626,364.736,49.935z"/>
        <path d="M287.055,165.717c-3.987-22.9-23.81-39.653-47.055-39.766c-26.509,0.129-47.895,21.724-47.766,48.233c0.113,23.245,16.866,43.068,39.766,47.055v248.712c0,4.418,3.582,8,8,8s8-3.582,8-8V221.239C274.117,216.692,291.603,191.834,287.055,165.717z M262.696,196.583L262.696,196.583c-12.499,12.632-32.871,12.74-45.503,0.241c-12.632-12.499-12.74-32.871-0.241-45.503s32.871-12.74,45.503-0.241c6.108,6.043,9.545,14.279,9.545,22.871C272.007,182.427,268.663,190.563,262.696,196.583z"/>
    </symbol>
    <symbol id="svg-card-payment" viewBox="0 0 611.996 611.996">
        <g>
            <g>
                <path d="M588.63,113.193L213.812,33.871c-15.858-3.355-31.576,6.876-34.931,22.734l-7.121,45.762l432.477,91.519l7.121-45.762
                    C614.713,132.272,604.488,116.549,588.63,113.193z"></path>
                <path d="M431.009,203.591c-4.378-15.766-20.854-25.085-36.615-20.714L323.24,202.63l-167.742-35.5l-18.448,87.165L21.786,286.287
                    c-15.76,4.372-25.079,20.848-20.708,36.609l64.958,234.078c4.378,15.76,20.855,25.085,36.615,20.708l372.608-103.403
                    c15.76-4.378,25.079-20.848,20.708-36.615l-11.15-40.184l41.789,8.835c15.858,3.361,31.576-6.87,34.931-22.728l26.439-124.937
                    L437.45,226.797L431.009,203.591z M474.04,322.559l9.215-43.552c1.384-6.521,7.85-10.727,14.37-9.35l43.552,9.221
                    c6.527,1.384,10.733,7.843,9.356,14.37l-9.215,43.552c-1.384,6.521-7.849,10.733-14.37,9.35l-43.552-9.215
                    C476.863,335.546,472.656,329.08,474.04,322.559z M28.27,309.646l103.115-28.606l243.299-67.517l26.181-7.274
                    c0.478-0.129,0.955-0.19,1.421-0.19c2.1,0,4.611,1.378,5.345,4.017l3.074,11.07l9.631,34.704L37.148,362.186l-12.705-45.768
                    C23.647,313.546,25.399,310.442,28.27,309.646z M472.601,444.141c0.49,1.776-0.024,3.245-0.545,4.164
                    c-0.514,0.918-1.506,2.119-3.282,2.608L96.173,554.316c-0.471,0.129-0.955,0.196-1.421,0.196c-2.1,0-4.611-1.384-5.345-4.023
                    L51.519,413.955l383.188-106.342l23.371,84.208L472.601,444.141z"></path>
                <path d="M156.379,453.484c-1.788-6.429-8.499-10.225-14.928-8.443l-43.515,12.08c-6.423,1.782-10.225,8.499-8.437,14.928
                    l12.074,43.509c1.788,6.429,8.499,10.225,14.928,8.437l43.515-12.074c6.429-1.782,10.225-8.499,8.443-14.928L156.379,453.484z"></path>
            </g>
        </g>
    </symbol>
</svg>