<svg width="69" height="77" viewBox="0 0 69 77" fill="none" xmlns="http://www.w3.org/2000/svg">
<path d="M61.2867 15.5053C60.2525 14.4676 59.1284 13.5201 57.9293 12.6479C57.3598 9.14375 55.786 6.16602 53.298 3.9252C50.4802 1.39863 46.6882 0 42.6414 0C38.5946 0 34.8026 1.39863 31.9848 3.94023C29.4968 6.18105 27.923 9.15879 27.3385 12.6629C26.1394 13.5201 25.0153 14.4826 23.9961 15.5053C21.2233 18.2875 19.1549 21.551 17.8359 25.2205C17.6261 25.807 17.9259 26.4537 18.5104 26.6643C18.6303 26.7094 18.7652 26.7244 18.8851 26.7244C19.3498 26.7244 19.7844 26.4387 19.9493 25.9725C21.1483 22.6187 23.0518 19.626 25.5848 17.0844C26.0645 16.6031 26.5741 16.1369 27.0986 15.6857V15.7008C27.0986 17.3551 27.3385 18.7988 27.7281 20.0771C20.1591 28.123 20.294 40.8611 28.1478 48.7266C32.1497 52.727 37.3955 54.7422 42.6414 54.7422C47.8873 54.7422 53.1331 52.742 57.135 48.7266C64.9888 40.8461 65.1237 28.108 57.5397 20.0621C57.9293 18.7838 58.1692 17.3551 58.1692 15.6857V15.6707C58.6937 16.1219 59.2033 16.5881 59.683 17.0693C69.0806 26.4988 69.0806 41.8537 59.683 51.2982C55.1266 55.8701 49.0713 58.3816 42.6264 58.3816C36.1815 58.3816 30.1263 55.8701 25.5699 51.2982C20.1891 45.8992 17.6861 38.4398 18.7352 30.8602C18.8252 30.2436 18.3905 29.6721 17.776 29.5818C17.1615 29.4916 16.5919 29.9277 16.502 30.5443C15.9624 34.5146 16.3221 38.6053 17.5512 42.3951C18.2556 44.5457 19.2149 46.576 20.4139 48.4559L16.9217 52.0352L16.487 51.599C14.8983 50.0049 12.3053 50.0049 10.7166 51.599C9.95216 52.366 9.5175 53.4037 9.5175 54.5016C9.5175 55.2084 9.69736 55.8852 10.0271 56.4867L2.1583 64.3672C-0.719433 67.2547 -0.719433 71.9469 2.1583 74.8344C3.5522 76.233 5.39575 77 7.37419 77C9.35263 77 11.1962 76.233 12.5901 74.8344L20.4589 66.9389C21.0734 67.2848 21.7628 67.4502 22.4373 67.4502C23.4865 67.4502 24.5207 67.0441 25.33 66.2471C26.0944 65.4801 26.5291 64.4424 26.5291 63.3445C26.5291 62.2467 26.1094 61.224 25.33 60.457L24.8954 60.0209L28.4176 56.4867C32.6293 59.2088 37.5304 60.6676 42.6564 60.6676C49.7008 60.6676 56.3256 57.9154 61.3017 52.9225C71.5686 42.6057 71.5686 25.8221 61.2867 15.5053ZM42.6414 2.25586C49.0414 2.25586 55.9209 6.4668 55.9359 15.7309C55.9359 20.3027 53.8825 22.7992 51.6943 25.4461C49.6409 27.9275 47.5425 30.4842 47.2128 34.665H43.7655V19.4605H45.8339C46.4484 19.4605 46.958 18.9492 46.958 18.3326C46.958 17.716 46.4484 17.2047 45.8339 17.2047H39.4639C38.8494 17.2047 38.3398 17.716 38.3398 18.3326C38.3398 18.9492 38.8494 19.4605 39.4639 19.4605H41.5173V34.665H38.07C37.7403 30.4691 35.6419 27.9125 33.5885 25.4461C31.4003 22.7992 29.3469 20.3027 29.3469 15.7309C29.3619 6.4668 36.2564 2.25586 42.6414 2.25586ZM38.115 36.9209H47.1528V40.7559C47.1528 41.974 46.1636 42.9816 44.9346 42.9816H40.3182C39.1042 42.9816 38.1 41.9891 38.1 40.7559L38.115 36.9209ZM55.5462 47.1625C51.994 50.7268 47.3177 52.5164 42.6414 52.5164C37.9651 52.5164 33.2888 50.7268 29.7366 47.1625C22.9919 40.3949 22.6472 29.5969 28.6874 22.4082C29.5867 24.1377 30.7558 25.5514 31.8499 26.8898C33.9183 29.3863 35.8517 31.7475 35.8517 35.808V40.7709C35.8517 43.2373 37.8602 45.2525 40.3182 45.2525H44.9346C47.3927 45.2525 49.4011 43.2523 49.4011 40.7709V35.808C49.4011 31.7475 51.3495 29.3863 53.4029 26.9049C54.4971 25.5814 55.6661 24.1678 56.5804 22.4232C62.6356 29.5969 62.2909 40.3949 55.5462 47.1625ZM23.7263 64.668C23.0069 65.3898 21.8528 65.3898 21.1333 64.668L18.4505 61.976C18.0158 61.5398 17.2964 61.5398 16.8617 61.976C16.4271 62.4121 16.4271 63.134 16.8617 63.5701L18.7502 65.465L11.0013 73.2402C10.0421 74.2027 8.7531 74.7441 7.37419 74.7441C5.99528 74.7441 4.70629 74.2178 3.74705 73.2402C1.75362 71.24 1.75362 67.9615 3.74705 65.9613L11.4959 58.1861L13.0997 59.7953C13.5343 60.2314 14.2538 60.2314 14.6884 59.7953C15.1231 59.3592 15.1231 58.6373 14.6884 58.2012L12.2903 55.7949C11.9456 55.449 11.7507 54.9828 11.7507 54.5016C11.7507 54.0053 11.9456 53.5541 12.2903 53.2082C13.0097 52.4863 14.1638 52.4863 14.8833 53.2082L23.7263 62.0812C24.071 62.4271 24.2659 62.8934 24.2659 63.3746C24.2659 63.8559 24.086 64.3221 23.7263 64.668ZM23.2916 58.4418L18.4954 53.6293L21.7479 50.3658C22.4373 51.2531 23.1867 52.1104 23.9961 52.9225C24.8055 53.7346 25.6598 54.4865 26.5441 55.1783L23.2916 58.4418Z" fill="#005453" fill-opacity="0.16"/>
</svg>
