<svg width="14" height="14" viewBox="0 0 14 14" fill="none" xmlns="http://www.w3.org/2000/svg">
<path d="M13.9616 4.11587C13.9288 3.37052 13.8082 2.86083 13.6356 2.41691C13.4574 1.94559 13.1834 1.52633 12.8272 1.17557C12.4764 0.819338 12.0517 0.542572 11.5886 0.369935C11.1419 0.197299 10.635 0.0767273 9.88961 0.0438442C9.13877 0.00822075 8.90311 0 7.00137 0C5.09963 0 4.86123 0.00822079 4.11587 0.0411039C3.37052 0.0739871 2.86083 0.194559 2.41691 0.367195C1.94559 0.545312 1.52633 0.819338 1.17557 1.17557C0.819339 1.52633 0.542572 1.95107 0.369935 2.41417C0.197299 2.86083 0.0767267 3.36778 0.0438435 4.11313C0.00822012 4.86397 0 5.09963 0 7.00137C0 8.90311 0.00822079 9.14151 0.0411039 9.88687C0.0739871 10.6322 0.194559 11.1419 0.367196 11.5858C0.545313 12.0572 0.82208 12.4764 1.17557 12.8272C1.52633 13.1834 1.95107 13.4602 2.41417 13.6328C2.86083 13.8054 3.36778 13.926 4.11313 13.9589C4.85849 13.9918 5.09689 14 6.99863 14C8.90037 14 9.13877 13.9918 9.88413 13.9589C10.6295 13.926 11.1392 13.8054 11.5831 13.6328C12.523 13.2684 13.2684 12.5257 13.6328 11.5831C13.8054 11.1364 13.926 10.6295 13.9589 9.88413C13.9918 9.13603 14 8.90037 14 6.99863C14 5.09689 13.9945 4.86397 13.9616 4.11587ZM12.6984 9.83206C12.6682 10.5171 12.5531 10.8843 12.4572 11.1309C12.2216 11.742 11.7365 12.2243 11.1282 12.46C10.8816 12.5559 10.5089 12.671 9.82932 12.7011C9.08945 12.734 8.87023 12.7422 7.00137 12.7422C5.13251 12.7422 4.90781 12.734 4.17342 12.7011C3.48836 12.671 3.12116 12.5559 2.87454 12.46C2.57037 12.3476 2.2936 12.1695 2.07164 11.9366C1.83872 11.7091 1.6606 11.4351 1.54825 11.1337C1.45234 10.8871 1.33725 10.5144 1.3071 9.8348C1.27422 9.09493 1.266 8.87571 1.266 7.00685C1.266 5.13799 1.27422 4.91329 1.3071 4.1789C1.33725 3.49383 1.45234 3.12664 1.54825 2.88002C1.6606 2.57585 1.83871 2.29908 2.07438 2.07438C2.30182 1.84146 2.57585 1.66334 2.87728 1.55099C3.1239 1.45508 3.49658 1.33999 4.17616 1.30985C4.91603 1.27696 5.13525 1.26874 7.00411 1.26874C8.87571 1.26874 9.09767 1.27696 9.83206 1.30985C10.5171 1.33999 10.8843 1.45508 11.1309 1.55099C11.4351 1.66334 11.7119 1.84146 11.9338 2.07438C12.1668 2.30182 12.3449 2.57585 12.4572 2.88002C12.5531 3.12664 12.6682 3.49932 12.6984 4.1789C12.7313 4.91877 12.7395 5.13799 12.7395 7.00685C12.7395 8.87571 12.7313 9.09493 12.6984 9.83206Z" fill="#4B4A4A"/>
<path d="M13.9616 4.11587C13.9288 3.37052 13.8082 2.86083 13.6356 2.41691C13.4574 1.94559 13.1834 1.52633 12.8272 1.17557C12.4764 0.819338 12.0517 0.542572 11.5886 0.369935C11.1419 0.197299 10.635 0.0767273 9.88961 0.0438442C9.13877 0.00822075 8.90311 0 7.00137 0C5.09963 0 4.86123 0.00822079 4.11587 0.0411039C3.37052 0.0739871 2.86083 0.194559 2.41691 0.367195C1.94559 0.545312 1.52633 0.819338 1.17557 1.17557C0.819339 1.52633 0.542572 1.95107 0.369935 2.41417C0.197299 2.86083 0.0767267 3.36778 0.0438435 4.11313C0.00822012 4.86397 0 5.09963 0 7.00137C0 8.90311 0.00822079 9.14151 0.0411039 9.88687C0.0739871 10.6322 0.194559 11.1419 0.367196 11.5858C0.545313 12.0572 0.82208 12.4764 1.17557 12.8272C1.52633 13.1834 1.95107 13.4602 2.41417 13.6328C2.86083 13.8054 3.36778 13.926 4.11313 13.9589C4.85849 13.9918 5.09689 14 6.99863 14C8.90037 14 9.13877 13.9918 9.88413 13.9589C10.6295 13.926 11.1392 13.8054 11.5831 13.6328C12.523 13.2684 13.2684 12.5257 13.6328 11.5831C13.8054 11.1364 13.926 10.6295 13.9589 9.88413C13.9918 9.13603 14 8.90037 14 6.99863C14 5.09689 13.9945 4.86397 13.9616 4.11587ZM12.6984 9.83206C12.6682 10.5171 12.5531 10.8843 12.4572 11.1309C12.2216 11.742 11.7365 12.2243 11.1282 12.46C10.8816 12.5559 10.5089 12.671 9.82932 12.7011C9.08945 12.734 8.87023 12.7422 7.00137 12.7422C5.13251 12.7422 4.90781 12.734 4.17342 12.7011C3.48836 12.671 3.12116 12.5559 2.87454 12.46C2.57037 12.3476 2.2936 12.1695 2.07164 11.9366C1.83872 11.7091 1.6606 11.4351 1.54825 11.1337C1.45234 10.8871 1.33725 10.5144 1.3071 9.8348C1.27422 9.09493 1.266 8.87571 1.266 7.00685C1.266 5.13799 1.27422 4.91329 1.3071 4.1789C1.33725 3.49383 1.45234 3.12664 1.54825 2.88002C1.6606 2.57585 1.83871 2.29908 2.07438 2.07438C2.30182 1.84146 2.57585 1.66334 2.87728 1.55099C3.1239 1.45508 3.49658 1.33999 4.17616 1.30985C4.91603 1.27696 5.13525 1.26874 7.00411 1.26874C8.87571 1.26874 9.09767 1.27696 9.83206 1.30985C10.5171 1.33999 10.8843 1.45508 11.1309 1.55099C11.4351 1.66334 11.7119 1.84146 11.9338 2.07438C12.1668 2.30182 12.3449 2.57585 12.4572 2.88002C12.5531 3.12664 12.6682 3.49932 12.6984 4.1789C12.7313 4.91877 12.7395 5.13799 12.7395 7.00685C12.7395 8.87571 12.7313 9.09493 12.6984 9.83206Z" stroke="white"/>
<path d="M6.5 3C4.5674 3 3 4.5674 3 6.5C3 8.4326 4.5674 10 6.5 10C8.4326 10 10 8.4326 10 6.5C10 4.5674 8.4326 3 6.5 3ZM6.5 8.77113C5.24715 8.77113 4.22886 7.75552 4.22886 6.5C4.22886 5.24448 5.24448 4.22887 6.5 4.22887C7.75286 4.22887 8.77114 5.24448 8.77114 6.5C8.77114 7.75552 7.75286 8.77113 6.5 8.77113Z" fill="#4B4A4A"/>
<path d="M6.5 3C4.5674 3 3 4.5674 3 6.5C3 8.4326 4.5674 10 6.5 10C8.4326 10 10 8.4326 10 6.5C10 4.5674 8.4326 3 6.5 3ZM6.5 8.77113C5.24715 8.77113 4.22886 7.75552 4.22886 6.5C4.22886 5.24448 5.24448 4.22887 6.5 4.22887C7.75286 4.22887 8.77114 5.24448 8.77114 6.5C8.77114 7.75552 7.75286 8.77113 6.5 8.77113Z" stroke="white"/>
<path d="M12 3.00001C12 3.55229 11.5523 4 11 4C10.4477 4 10 3.55229 10 3.00001C10 2.44773 10.4477 2.00002 11 2.00002C11.5523 1.99675 12 2.44446 12 3.00001Z" fill="#4B4A4A"/>
<path d="M12 3.00001C12 3.55229 11.5523 4 11 4C10.4477 4 10 3.55229 10 3.00001C10 2.44773 10.4477 2.00002 11 2.00002C11.5523 1.99675 12 2.44446 12 3.00001Z" stroke="white"/>
</svg>
