<svg width="85" height="85" viewBox="0 0 85 85" fill="none" xmlns="http://www.w3.org/2000/svg">
<path d="M10.9073 23.2641H36.1861L41.4552 28.453C41.8184 28.8106 42.3003 29 42.792 29C43.0364 29 43.2829 28.9533 43.5184 28.8572C44.2285 28.5675 44.6871 27.8914 44.6871 27.1347V23.0021C46.638 22.3404 48 20.5037 48 18.4315V4.83262C48 2.16782 45.7987 0 43.0927 0H10.9073C8.2013 0 6 2.16782 6 4.83262V5.82562C6 6.50427 6.55839 7.05417 7.24752 7.05417C7.93666 7.05417 8.49505 6.50427 8.49505 5.82562V4.83262C8.49505 3.52283 9.57724 2.4571 10.9073 2.4571H43.0927C44.4228 2.4571 45.505 3.52283 45.505 4.83262V18.4315C45.505 19.5479 44.7015 20.5251 43.5947 20.7553C42.7819 20.924 42.192 21.6446 42.192 22.4685V25.7039L37.7419 21.3216C37.4057 20.9899 36.9581 20.807 36.482 20.807H10.9073C9.57724 20.807 8.49505 19.7413 8.49505 18.4315V11.5793C8.49505 10.9007 7.93666 10.3508 7.24752 10.3508C6.55839 10.3508 6 10.9007 6 11.5793V18.4315C6 21.0962 8.2013 23.2641 10.9073 23.2641Z" fill="#005453" fill-opacity="0.16"/>
<path d="M83.7547 57.5642C84.4425 57.5642 84.9998 57.0095 84.9998 56.325V55.371C84.9998 51.565 82.4371 48.1582 78.7678 47.0859L72.0169 45.1133C71.8224 44.9358 71.5981 44.7883 71.3502 44.6784L69.9424 44.0542C69.5674 43.888 69.1701 43.8037 68.7743 43.7988V40.8502C70.9812 39.229 72.5221 36.7493 72.8799 33.8937C73.9957 33.5799 74.8155 32.5575 74.8155 31.3482V22.4802C74.8155 20.4034 73.1796 18.6996 71.1226 18.5783C70.9535 16.5769 69.2627 15 67.2088 15H57.9646C53.8736 15 50.5457 18.3123 50.5457 22.3836V31.3482C50.5457 32.5577 51.3655 33.5801 52.4813 33.8938C52.8395 36.7491 54.3803 39.2286 56.5868 40.8498V43.7938C56.1945 43.8012 55.8014 43.8863 55.4315 44.0516L54.0508 44.6685C53.8051 44.7784 53.5824 44.9254 53.3892 45.1022L46.5975 47.0861C42.9279 48.1579 40.3648 51.565 40.3648 55.3715V62.1009C39.499 61.3967 38.4913 60.8624 37.3906 60.5409C37.2812 60.509 37.9192 60.6372 27.6965 58.698V58.6712C29.3117 58.3753 30.9072 57.9577 32.4671 57.4188C35.9241 56.2244 38.1741 52.6852 36.4125 46.8371C35.8299 44.9033 35.5344 42.8993 35.5338 40.8756C35.5314 33.307 29.3427 27.1497 21.7379 27.1497H21.7377C14.133 27.1497 7.94433 33.3071 7.94184 40.8809C7.94118 42.8996 7.64567 44.9036 7.06329 46.8371C5.31996 52.6261 7.50024 56.2065 11.0085 57.4188C12.5672 57.9574 14.1614 58.3746 15.7753 58.6705C5.59654 60.6316 6.19237 60.51 6.08562 60.5412C2.50252 61.5876 0 64.9142 0 68.631V80.3304C0 82.9175 2.10524 85 4.69192 85H4.70155C4.72297 85 80.2867 84.9243 80.3081 84.9243C82.8953 84.9243 85 82.8296 85 80.2547V62.1181C85 61.4336 84.4427 60.8789 83.7549 60.8789C83.0671 60.8789 82.5098 61.4336 82.5098 62.1181V64.9844H67.9557L65.7529 55.2091L66.9447 53.0833C67.4177 52.9922 67.8705 52.767 68.2449 52.4092L72.0712 48.7008C72.3166 48.4631 72.5057 48.1819 72.6329 47.8764L78.0665 49.464C80.6824 50.2283 82.5096 52.6575 82.5096 55.371V56.325C82.5096 57.0095 83.0669 57.5642 83.7547 57.5642ZM53.0359 22.3834C53.0359 19.6787 55.2469 17.4782 57.9646 17.4782H67.2088C68.0014 17.4782 68.6463 18.1199 68.6463 18.9087C68.6463 20.0893 69.6112 21.0496 70.7974 21.0496H70.8877C71.6803 21.0496 72.3252 21.6913 72.3252 22.4801V27.0709H71.7166C71.374 27.0709 71.0952 26.7934 71.0952 26.4524V25.4358C71.0952 23.2462 68.935 21.7182 66.8706 22.3971C64.1696 23.2856 61.1947 23.2857 58.4902 22.3966C56.4074 21.7115 54.2661 23.2525 54.2661 25.4355V26.4524C54.2661 26.7934 53.9872 27.0709 53.6445 27.0709H53.0361V22.3834H53.0359ZM54.9076 33.1115C54.8505 32.216 54.1017 31.5144 53.2029 31.5144C53.1106 31.5144 53.0358 31.4398 53.0358 31.3481V29.5492H53.6442C55.3601 29.5492 56.756 28.16 56.756 26.4524V25.4355C56.756 24.9447 57.2348 24.5945 57.7124 24.7509C60.9175 25.8049 64.4473 25.8046 67.6521 24.7503C68.1219 24.595 68.6048 24.9431 68.6048 25.4356V26.4523C68.6048 28.1599 70.0007 29.5491 71.7165 29.5491H72.3251V31.3479C72.3251 31.4396 72.25 31.5143 72.1577 31.5143C71.2591 31.5143 70.5104 32.2158 70.4532 33.1118C70.1954 37.1815 66.7812 40.3695 62.6802 40.3695C58.5797 40.3697 55.1656 37.1817 54.9076 33.1115ZM63.7026 53.7794H61.637L60.8353 52.409L62.7749 50.7966L64.5351 52.2945L63.7026 53.7794ZM65.4032 64.9844H59.9515L61.9179 56.2577H63.4366L65.4032 64.9844ZM62.7707 47.6171L59.0772 44.8703V42.1976C60.2011 42.6182 61.4162 42.8479 62.6806 42.8479C63.9451 42.8479 65.1602 42.6182 66.2841 42.1976V44.9094L62.7707 47.6171ZM56.4517 46.3123C56.6074 46.2424 56.789 46.2626 56.9262 46.3644C58.1616 47.2832 58.9887 47.8983 60.7767 49.2281L58.9871 50.7159C58.9781 50.7234 58.9678 50.7283 58.9572 50.7311C58.9519 50.7318 58.9466 50.7326 58.9412 50.7334C58.9222 50.7341 58.9031 50.7278 58.8881 50.7146L55.0847 46.9233L56.4517 46.3123ZM11.8254 55.0774C8.67795 53.9897 8.49567 50.7121 9.44909 47.5486C10.1009 45.3843 10.4317 43.1412 10.4324 40.8763C10.4346 34.6739 15.5062 29.6279 21.7382 29.6279C27.9703 29.6279 33.0419 34.6739 33.0439 40.8814C33.0445 43.1408 33.3754 45.3839 34.0273 47.5486C34.9806 50.713 34.7981 53.9899 31.6508 55.0774C25.2586 57.2859 18.2177 57.2863 11.8254 55.0774ZM25.2064 59.0297V59.4679C23.8423 62.3891 19.6106 62.3769 18.2662 59.4413V59.0296C20.5457 59.2695 22.8718 59.2754 25.2064 59.0297ZM40.9859 82.1281C40.9859 82.2999 40.8502 82.44 40.6771 82.4469C40.6728 82.4471 40.6684 82.4473 40.6641 82.4476C40.6633 82.4476 40.6625 82.4476 40.6616 82.4478C40.6525 82.4481 40.643 82.4486 40.6332 82.4492L4.69641 82.5216H4.69209C3.47968 82.5216 2.49023 81.5455 2.49023 80.3304V68.631C2.49023 66.0254 4.23223 63.6912 6.73358 62.9348L16.3251 61.0886C18.7383 65.1465 24.7273 65.1343 27.1437 61.1157L36.7448 62.935C39.3166 63.7134 40.9859 66.067 40.9859 68.6306V82.1281ZM42.8552 55.3713C42.8552 52.6575 44.6825 50.2283 47.2991 49.464L52.7756 47.8643C52.8983 48.1591 53.0788 48.4314 53.3118 48.6635L57.1362 52.4754C57.1403 52.4795 57.1446 52.4837 57.1488 52.4878C57.5051 52.833 57.9365 53.0558 58.3902 53.1548L59.5993 55.2215L57.3995 64.9841H42.8552V55.3713ZM82.5096 67.4628V80.2547C82.5096 81.4629 81.522 82.4459 80.3079 82.4459H43.4583C43.4701 82.3417 43.4761 82.2356 43.4761 82.1281V68.6308C43.4761 68.2387 43.4487 67.8488 43.3944 67.463C48.8598 67.4628 73.9019 67.4628 82.5096 67.4628ZM66.5135 50.6277C66.4988 50.6417 66.4802 50.6488 66.4614 50.6488C66.4516 50.6469 66.4418 50.6449 66.432 50.6431C66.4249 50.6401 66.4181 50.6361 66.4118 50.6308L64.7559 49.2218L68.4493 46.3756C68.5864 46.2695 68.7703 46.2477 68.9289 46.318L70.3226 46.9361L66.5135 50.6277Z" fill="#005453" fill-opacity="0.16"/>
<path d="M27.2739 16.3024C26.9588 16.7174 26.4681 16.9725 25.9376 16.9979C25.4071 17.0235 24.8933 16.816 24.5378 16.4328L21.3522 13.0017C20.8459 12.4568 20.8909 11.6167 21.4524 11.1253C22.0144 10.6339 22.8794 10.6779 23.3857 11.2231L25.6395 13.6507C25.6729 13.6868 25.7214 13.7061 25.7712 13.7038C25.8213 13.7014 25.8671 13.6771 25.8969 13.6384L30.5295 7.54032C30.9779 6.94961 31.8348 6.82389 32.4437 7.25934C33.0521 7.69479 33.1813 8.52648 32.7327 9.11693L27.2739 16.3024Z" fill="#005453" fill-opacity="0.16"/>
</svg>
