<svg width="77" height="49" viewBox="0 0 77 49" fill="none" xmlns="http://www.w3.org/2000/svg">
<path d="M75.7167 0H1.28333C0.5775 0 0 0.580263 0 1.28947V47.7105C0 48.4197 0.5775 49 1.28333 49H75.7167C76.4225 49 77 48.4197 77 47.7105V1.28947C77 0.580263 76.4225 0 75.7167 0ZM47.5796 38.6842H56.4667V46.4211C52.0071 46.4211 48.2212 43.1168 47.5796 38.6842ZM51.3333 32.4141V36.1053H47.6598C48.141 34.3 49.5367 32.8977 51.3333 32.4141ZM56.4667 36.1053H53.9V32.4786C55.44 33.0266 56.4667 34.4773 56.4667 36.1053ZM59.0333 37.3947V32.2368H74.3692C73.6954 40.2477 67.0381 46.4049 59.0333 46.4211V37.3947ZM57.75 29.6579H47.4833V2.61118C62.0652 3.28816 73.7275 15.0062 74.4012 29.6579H57.75ZM2.56667 2.57895H31.0406C17.71 7.26941 7.23479 17.7947 2.56667 31.1891V2.57895ZM44.9167 2.61118V46.4211H2.56667C2.59875 22.727 21.3515 3.33651 44.9167 2.61118ZM47.4833 46.4211V44.6803C47.9967 45.325 48.5902 45.9053 49.2158 46.4211H47.4833ZM74.4333 46.4211H68.2412C70.7758 44.8898 72.9094 42.7461 74.4333 40.1993V46.4211ZM58.4879 2.57895H74.4333V18.6007C71.3052 11.428 65.6265 5.72204 58.4879 2.57895Z" fill="#D9112F" fill-opacity="0.16"/>
</svg>
