<svg width="70" height="70" viewBox="0 0 70 70" fill="none" xmlns="http://www.w3.org/2000/svg">
<path d="M57.5021 0.335417L54.3521 3.5H50.1667C49.525 3.5 49 4.025 49 4.66667V8.85208L45.0187 12.8333H40.8333C40.1917 12.8333 39.6667 13.3583 39.6667 14V18.1854L35.6854 22.1667H31.5C30.8583 22.1667 30.3333 22.6917 30.3333 23.3333V27.5187L25.1854 32.6667H21.1896C21.8458 28.7583 24.1208 25.3312 27.4604 23.2021L26.2062 21.2333C18.6083 26.0896 16.3771 36.1958 21.2333 43.7937C24.2375 48.4896 29.4292 51.3333 35 51.3333H49.9917C45.9083 55.0812 40.5562 57.1667 35 57.1667C22.7792 57.1667 12.8333 47.2208 12.8333 35H10.5C10.5 36.9688 10.7333 38.9229 11.2 40.8333H2.33333V29.1667H11.6667C12.1333 29.1667 12.5708 28.8896 12.7458 28.4521L14.6271 23.9021C14.8021 23.4646 14.7146 22.9687 14.3792 22.6333L7.77292 16.0271L16.0271 7.77292L22.6333 14.3792C22.9687 14.7146 23.4646 14.8167 23.9021 14.6271L28.4521 12.7458C28.8896 12.5708 29.1667 12.1333 29.1667 11.6667V2.33333H40.8333V9.33333H43.1667V1.16667C43.1667 0.525 42.6417 0 42 0H28C27.3583 0 26.8333 0.525 26.8333 1.16667V10.8937L23.7271 12.1771L16.8583 5.30833C16.4062 4.85625 15.6625 4.85625 15.2104 5.30833L5.30833 15.2104C4.85625 15.6625 4.85625 16.4062 5.30833 16.8583L12.1771 23.7271L10.8937 26.8333H1.16667C0.525 26.8333 0 27.3583 0 28V42C0 42.6417 0.525 43.1667 1.16667 43.1667H10.8937L12.1771 46.2729L5.30833 53.1417C4.85625 53.5937 4.85625 54.3375 5.30833 54.7896L15.2104 64.6917C15.6625 65.1437 16.4062 65.1437 16.8583 64.6917L23.7271 57.8229L26.8333 59.1062V68.8333C26.8333 69.475 27.3583 70 28 70H42C42.6417 70 43.1667 69.475 43.1667 68.8333V59.1062L46.2729 57.8229L53.1417 64.6917C53.5937 65.1437 54.3375 65.1437 54.7896 64.6917L64.6917 54.7896C65.1437 54.3375 65.1437 53.5937 64.6917 53.1417L62.8833 51.3333H68.8333C69.475 51.3333 70 50.8083 70 50.1667V10.5C70 9.85833 69.475 9.33333 68.8333 9.33333H59.5C58.8583 9.33333 58.3333 9.85833 58.3333 10.5V18.6667H50.1667C49.525 18.6667 49 19.1917 49 19.8333V25.6667H40.8333C40.1917 25.6667 39.6667 26.1917 39.6667 26.8333V33.8333H31.5C30.8583 33.8333 30.3333 34.3583 30.3333 35V39.6667H21.8021C21.2771 38.1646 21 36.5896 21 35H25.6667C25.9729 35 26.2792 34.8833 26.4979 34.6646L31.9958 29.1667H36.1667C36.8083 29.1667 37.3333 28.6417 37.3333 28V23.8146L41.3146 19.8333H45.5C46.1417 19.8333 46.6667 19.3083 46.6667 18.6667V14.4812L50.6479 10.5H54.8333C55.475 10.5 56 9.975 56 9.33333V5.14792L58.8146 2.33333H70V0H58.3333C58.0271 0 57.7208 0.116667 57.5021 0.335417ZM16.0271 62.2271L7.77292 53.9729L14.0437 47.7021C16.1 51.0708 18.9292 53.9 22.2979 55.9562L16.0271 62.2271ZM29.1667 67.6667V58.8C33.0021 59.7333 36.9979 59.7333 40.8333 58.8V67.6667H29.1667ZM62.2271 53.9729L53.9729 62.2271L47.7021 55.9562C49.7729 54.7021 51.6542 53.1417 53.2583 51.3479H59.5875L62.2271 53.9729ZM60.6667 11.6667H67.6667V49H60.6667V11.6667ZM51.3333 21H58.3333V49H51.3333V21ZM42 28H49V49H42V28ZM32.6667 36.1667H39.6667V49H35C34.2125 49 33.4396 48.9417 32.6667 48.8104V36.1667ZM30.3333 42V48.1979C27.1979 47.075 24.5583 44.8875 22.8812 42H30.3333ZM35 26.8333H32.6667V24.5H35V26.8333ZM44.3333 17.5H42V15.1667H44.3333V17.5ZM53.6667 8.16667H51.3333V5.83333H53.6667V8.16667Z" fill="#0A95FA" fill-opacity="0.16"/>
</svg>
