<svg width="56" height="75" viewBox="0 0 56 75" fill="none" xmlns="http://www.w3.org/2000/svg">
<path d="M6 28C6 40.1242 15.8758 50 28 50C40.1242 50 50 40.1242 50 28C50 15.8758 40.1389 6 28 6C15.8611 6 6 15.8758 6 28ZM28 8.93921C38.5077 8.93921 47.0608 17.4923 47.0608 28C47.0608 38.5077 38.5077 47.0608 28 47.0608C17.4923 47.0608 8.93921 38.5224 8.93921 28C8.93921 17.4776 17.4923 8.93921 28 8.93921Z" fill="#5D2352" fill-opacity="0.16"/>
<path d="M14.4298 25.7158L20.1051 31.3517L18.8 39.2806C18.712 39.8279 18.9319 40.39 19.3866 40.7155C19.8412 41.0409 20.4278 41.0853 20.9264 40.8338L27.9948 37.1356L35.0633 40.8338C35.5472 41.0853 36.1485 41.0557 36.6031 40.7155C37.0577 40.39 37.2777 39.8279 37.1897 39.2806L35.8845 31.3517L41.5598 25.7158C41.9558 25.3164 42.1024 24.7394 41.9264 24.2069C41.7505 23.6744 41.2959 23.2898 40.7533 23.201L32.8782 22.0028L29.3147 14.8136C29.0654 14.3106 28.5668 14 28.0095 14C27.4522 14 26.9536 14.3106 26.7043 14.8136L23.1408 22.0028L15.2657 23.201C14.7231 23.2898 14.2685 23.6744 14.0925 24.2069C13.8872 24.7394 14.0339 25.3311 14.4298 25.7158ZM24.2993 24.8134C24.7686 24.7394 25.1792 24.4436 25.3845 24.0146L27.9802 18.778L30.5758 24.0146C30.7958 24.4436 31.1918 24.7394 31.661 24.8134L37.395 25.6862L33.2595 29.7837C32.9222 30.124 32.7609 30.5973 32.8489 31.0707L33.8021 36.8398L28.6547 34.1475C28.4494 34.044 28.2148 33.9848 27.9802 33.9848C27.7455 33.9848 27.5109 34.044 27.3056 34.1475L22.1582 36.8398L23.1114 31.0707C23.1848 30.5973 23.0381 30.1092 22.7008 29.7837L18.5653 25.6862L24.2993 24.8134Z" fill="#5D2352" fill-opacity="0.16"/>
<path d="M30 1.5C30 2.325 29.325 3 28.5 3C27.675 3 27 2.325 27 1.5C27 0.675 27.675 0 28.5 0C29.325 0 30 0.675 30 1.5Z" fill="#5D2352" fill-opacity="0.16"/>
<path d="M21.0535 1.04811C8.65173 4.18129 0 15.2499 0 27.9437C0 35.8352 3.35144 43.2729 9.21276 48.529L0.339573 64.0485C0.0590562 64.5463 0.0885843 65.1612 0.428157 65.6297C0.76773 66.0983 1.35829 66.3179 1.91933 66.2007L12.0032 64.1217L15.5465 74.0191C15.7385 74.5608 16.2257 74.9414 16.8015 74.9854C17.3773 75.0293 17.9235 74.7511 18.2188 74.2533L28.0074 57.1965L37.7812 74.268C38.0469 74.7218 38.5341 75 39.0656 75C39.1099 75 39.1542 75 39.1985 75C39.7743 74.9561 40.2615 74.5754 40.4535 74.0337L43.9968 64.1363L54.0807 66.2154C54.6417 66.3325 55.2323 66.1129 55.5718 65.6444C55.9114 65.1759 55.9409 64.5609 55.6604 64.0631L46.7872 48.5436C52.6633 43.2729 56 35.8499 56 27.9583C56 15.2499 47.3483 4.19593 34.9465 1.06275C34.164 0.857773 33.352 1.34093 33.16 2.1169C32.9533 2.89288 33.4405 3.69813 34.223 3.88847C45.3108 6.69955 53.062 16.5969 53.062 27.9583C53.062 41.7941 41.7379 52.8042 28.0074 52.8042C14.2621 52.7895 2.95281 41.7648 2.95281 27.9437C2.95281 16.5823 10.6892 6.68491 21.777 3.87383C22.5595 3.66885 23.0467 2.87824 22.84 2.10226C22.648 1.31164 21.836 0.843132 21.0535 1.04811ZM17.2444 70.0367L14.3506 61.9402C14.0997 61.2521 13.391 60.8421 12.6675 61.0032L4.5178 62.6869L11.5307 50.4031C15.6204 53.3605 20.4777 55.1614 25.527 55.6006L17.2444 70.0367ZM43.3325 61.0032C42.609 60.8568 41.8856 61.2521 41.6494 61.9402L38.7556 70.0367L30.473 55.6006C35.5223 55.1614 40.3649 53.3605 44.4693 50.4031L51.497 62.6869L43.3325 61.0032Z" fill="#5D2352" fill-opacity="0.16"/>
</svg>
