<svg width="20" height="20" viewBox="0 0 20 20" fill="none" xmlns="http://www.w3.org/2000/svg">
<path d="M19.7517 7.28394C19.4218 6.95936 18.8885 6.96081 18.5604 7.28711L8.43468 17.359C7.12099 18.6587 4.98736 18.6587 3.67121 17.3572C2.35606 16.0555 2.35606 13.9446 3.67137 12.6433L14.0969 2.27489C14.917 1.46351 16.2505 1.46351 17.073 2.27665C17.8953 3.09018 17.8953 4.40923 17.0728 5.223L8.43626 13.7673C8.43571 13.7679 8.43523 13.7685 8.43468 13.769C8.10565 14.0928 7.57391 14.0923 7.24556 13.7675C6.91665 13.4421 6.91665 12.9147 7.24556 12.5893L11.4143 8.46412C11.7433 8.13865 11.7432 7.61098 11.4142 7.28558C11.0852 6.96019 10.5519 6.96022 10.223 7.2857L6.05423 11.4108C5.06747 12.387 5.06747 13.9697 6.05431 14.946C7.04111 15.9222 8.64087 15.9222 9.62771 14.946C9.62885 14.9448 9.62976 14.9436 9.63087 14.9425L18.264 6.40146C19.7445 4.93682 19.7445 2.56248 18.264 1.09784C16.7834 -0.365945 14.3836 -0.365945 12.904 1.09784L2.47854 11.4663C0.506916 13.4169 0.506916 16.5828 2.47996 18.5358C4.45431 20.488 7.65438 20.488 9.62755 18.5359L19.7549 8.46248C20.083 8.13615 20.0815 7.60852 19.7517 7.28394Z" fill="#C4C4C4"/>
</svg>
