<svg width="20" height="20" viewBox="0 0 20 20" fill="none" xmlns="http://www.w3.org/2000/svg">
<path d="M16.4258 2.80301L1.86891 6.90879C1.74645 6.94333 1.63744 7.01443 1.55647 7.11258C1.47549 7.21073 1.42641 7.33126 1.41576 7.45805C1.40512 7.58485 1.43344 7.71187 1.49692 7.82214C1.5604 7.93242 1.65603 8.02069 1.77102 8.07516L8.45937 11.2433C8.58982 11.3051 8.69486 11.4102 8.75665 11.5406L11.9248 18.2289C11.9793 18.3439 12.0676 18.4396 12.1778 18.5031C12.2881 18.5665 12.4151 18.5948 12.5419 18.5842C12.6687 18.5736 12.7892 18.5245 12.8874 18.4435C12.9855 18.3625 13.0566 18.2535 13.0912 18.1311L17.197 3.5742C17.2271 3.46728 17.2282 3.35424 17.2002 3.24674C17.1721 3.13924 17.1159 3.04116 17.0374 2.9626C16.9588 2.88404 16.8607 2.82784 16.7532 2.79979C16.6457 2.77174 16.5327 2.77285 16.4258 2.80301Z" stroke="black" stroke-linecap="round" stroke-linejoin="round"/>
<path d="M8.66113 11.3388L12.1967 7.80322" stroke="black" stroke-linecap="round" stroke-linejoin="round"/>
</svg>
