<svg width="28" height="31" viewBox="0 0 28 31" fill="none" xmlns="http://www.w3.org/2000/svg">
<path d="M27.9755 5.38867C27.9021 4.60156 27.2476 4.0082 26.4525 4.0082H22.4953V3.43301H22.5748C23.1375 3.43301 23.5962 2.97891 23.5962 2.42188V1.01113C23.5962 0.454102 23.1375 0 22.5748 0H10.9296C10.6788 0 10.4709 0.205859 10.4709 0.454102C10.4709 0.702344 10.6788 0.908203 10.9296 0.908203H22.5748C22.636 0.908203 22.6788 0.956641 22.6788 1.01113V2.42188C22.6788 2.48242 22.6299 2.5248 22.5748 2.5248H5.425C5.36383 2.5248 5.32102 2.47637 5.32102 2.42188V1.01113C5.32102 0.950586 5.36995 0.908203 5.425 0.908203H8.78279C9.03356 0.908203 9.24151 0.702344 9.24151 0.454102C9.24151 0.205859 9.03356 0 8.78279 0H5.425C4.86231 0 4.40359 0.454102 4.40359 1.01113V2.42188C4.40359 2.97891 4.86231 3.43301 5.425 3.43301H5.50451V4.0082H1.54732C0.746098 4.0082 0.0916636 4.60156 0.0243853 5.38867C0.0121529 5.4916 -0.189682 7.9377 0.819492 10.6502C1.74304 13.1326 3.87148 16.2992 8.73998 17.5404C9.52286 18.152 10.4158 18.6303 11.3883 18.9451L11.6207 19.3205C12.055 20.035 12.2874 20.8766 12.2874 21.7605C12.2874 22.2994 12.2018 22.8262 12.0305 23.3227L11.7125 24.2551H10.6421C9.54732 24.2551 8.65435 25.1391 8.65435 26.2229V27.1734H6.98463C6.51368 27.1734 6.12836 27.5549 6.12836 28.0211V30.1523C6.12836 30.6186 6.51368 31 6.98463 31H21.0091C21.48 31 21.8654 30.6186 21.8654 30.1523V28.0211C21.8654 27.5549 21.48 27.1734 21.0091 27.1734H19.3394V26.2229C19.3394 25.1391 18.4464 24.2551 17.3516 24.2551H16.2874L15.9693 23.3227C15.7981 22.8262 15.7125 22.2994 15.7125 21.7605C15.7125 20.8766 15.9449 20.035 16.3791 19.3205L16.6115 18.9451C17.584 18.6363 18.477 18.152 19.2599 17.5404C24.1284 16.2992 26.2568 13.1326 27.1803 10.6502C28.1895 7.9377 27.9877 5.4916 27.9755 5.38867ZM5.66964 12.6119C4.81338 11.8188 4.15894 10.8379 3.71246 9.66328C3.40053 8.85195 3.1987 7.96191 3.10695 7.03555H5.50451V10.9348C5.50451 11.51 5.55955 12.073 5.66964 12.6119ZM1.68188 10.3354C0.739982 7.8166 0.929584 5.56426 0.9357 5.46738C0.966281 5.15254 1.22316 4.91641 1.54732 4.91641H5.50451V6.12734H3.07026C2.81949 6.12734 2.58708 6.23027 2.41582 6.41191C2.25068 6.59355 2.16506 6.83574 2.18952 7.08398C2.28738 8.10723 2.50757 9.08809 2.85619 9.98418C3.53509 11.7643 4.63601 13.1568 6.14671 14.1438C6.4464 14.8521 6.83784 15.5121 7.30879 16.1115C3.98157 14.7492 2.41582 12.3092 1.68188 10.3354ZM20.9479 28.0816V30.0918H7.05191V28.0816H20.9479ZM17.3577 25.1693C17.9449 25.1693 18.4281 25.6416 18.4281 26.2289V27.1795H9.5779V26.2289C9.5779 25.6477 10.055 25.1693 10.6482 25.1693H17.3577ZM15.1008 23.6133L15.321 24.2551H12.6788L12.899 23.6133C13.1008 23.0199 13.2048 22.3963 13.2048 21.7605C13.2048 20.8645 13.003 20.0047 12.6177 19.2418C13.0641 19.3145 13.529 19.3508 13.9999 19.3508C14.4709 19.3508 14.9296 19.3145 15.3822 19.2418C14.9969 20.0047 14.795 20.8705 14.795 21.7605C14.795 22.3963 14.899 23.0199 15.1008 23.6133ZM13.9999 18.4426C9.82255 18.4426 6.42194 15.0762 6.42194 10.9408V3.43301H21.584V10.9348C21.5779 15.0762 18.1773 18.4426 13.9999 18.4426ZM26.318 10.3354C25.584 12.3031 24.0183 14.7492 20.691 16.1115C21.162 15.5121 21.5534 14.8521 21.8531 14.1438C23.1498 13.29 24.1467 12.1457 24.8317 10.7107C24.9418 10.4867 24.844 10.2143 24.6115 10.1053C24.3852 9.99629 24.11 10.0932 23.9999 10.3232C23.5779 11.2133 23.0152 11.9762 22.3241 12.618C22.4342 12.073 22.4953 11.516 22.4953 10.9408V7.0416H24.8929C24.8501 7.50781 24.7706 7.97402 24.6666 8.42207C24.6115 8.66426 24.7644 8.9125 25.0091 8.96699C25.2537 9.02148 25.5045 8.87012 25.5596 8.62793C25.6758 8.13144 25.7614 7.61074 25.8103 7.09609C25.8348 6.85391 25.7492 6.60566 25.584 6.42402C25.4189 6.24238 25.1803 6.13945 24.9296 6.13945H22.4953V4.92852H26.4525C26.7706 4.92852 27.0336 5.16465 27.0641 5.47949C27.0703 5.56426 27.2599 7.8166 26.318 10.3354Z" fill="#D9112F"/>
<path d="M17.0589 9.19231L15.7262 8.99359C15.6705 8.98718 15.6209 8.94872 15.5899 8.89103L14.9948 7.64103C14.8089 7.25 14.4246 7 14.0031 7C13.5754 7 13.1973 7.24359 13.0114 7.64103L12.4163 8.89103C12.3915 8.94231 12.3419 8.98077 12.28 8.99359L10.9473 9.19231C10.5258 9.25641 10.1849 9.55128 10.0548 9.97436C9.9246 10.391 10.03 10.8397 10.3337 11.1474L11.3006 12.1218C11.344 12.1667 11.3626 12.2244 11.3502 12.2821L11.1209 13.6538C11.0465 14.0897 11.22 14.5192 11.561 14.7756C11.9019 15.0321 12.3543 15.0641 12.7262 14.8654L13.9163 14.2179C13.9659 14.1923 14.0279 14.1923 14.0837 14.2179L15.2738 14.8654C15.4349 14.9551 15.6147 15 15.7882 15C16.0176 15 16.2469 14.9231 16.439 14.7821C16.78 14.5256 16.9535 14.0962 16.8791 13.6603L16.6498 12.2885C16.6374 12.2308 16.656 12.1667 16.6994 12.1282L17.6663 11.1538C17.97 10.8462 18.0754 10.3974 17.9452 9.98077C17.8213 9.55128 17.4804 9.25 17.0589 9.19231ZM17.0279 10.4551L16.0609 11.4295C15.8006 11.6923 15.6828 12.0705 15.7448 12.4423L15.9742 13.8141C15.9928 13.9103 15.937 13.9679 15.906 13.9936C15.875 14.0192 15.8006 14.0513 15.72 14.0064L14.53 13.359C14.3688 13.2692 14.189 13.2244 14.0155 13.2244C13.8419 13.2244 13.6622 13.2692 13.501 13.359L12.311 14.0064C12.2242 14.0513 12.156 14.0192 12.125 13.9936C12.094 13.9679 12.0382 13.9103 12.0568 13.8141L12.2862 12.4423C12.3481 12.0705 12.2304 11.6923 11.97 11.4295L11.0031 10.4551C10.9349 10.3846 10.9473 10.3077 10.9597 10.2692C10.9721 10.2308 11.0093 10.1603 11.1023 10.141L12.4349 9.94231C12.7944 9.89103 13.1105 9.65385 13.2717 9.3141L13.8667 8.0641C13.9101 7.97436 13.9845 7.96154 14.0279 7.96154C14.0713 7.96154 14.1457 7.97436 14.189 8.0641L14.7841 9.3141C14.9452 9.65385 15.2552 9.88461 15.6209 9.94231L16.9535 10.141C17.0465 10.1538 17.0837 10.2244 17.0961 10.2692C17.0837 10.3077 17.0961 10.3846 17.0279 10.4551Z" fill="#D9112F"/>
</svg>
