<svg width="23" height="31" viewBox="0 0 23 31" fill="none" xmlns="http://www.w3.org/2000/svg">
<path d="M11 2C6.03846 2 2 6.03846 2 11C2 15.9615 6.03846 20 11 20C15.9615 20 20 15.9615 20 11C20 6.03846 15.9676 2 11 2ZM11 18.9737C6.60324 18.9737 3.03239 15.3968 3.03239 11.0061C3.03239 6.60931 6.60931 3.03846 11 3.03846C15.3907 3.03846 18.9676 6.61538 18.9676 11.0061C18.9737 15.3968 15.3968 18.9737 11 18.9737Z" fill="#5D2352"/>
<path d="M16.9752 10.1636C16.9167 9.97378 16.7644 9.83908 16.577 9.80846L13.3856 9.30638L11.945 6.28778C11.8631 6.11021 11.6932 6 11.5 6C11.3126 6 11.1428 6.11021 11.055 6.28778L9.61442 9.30638L6.42299 9.80846C6.2356 9.83908 6.08335 9.97378 6.02479 10.1636C5.96623 10.3534 6.01308 10.5555 6.14776 10.6963L8.44325 13.0659L7.91623 16.3906C7.88695 16.5865 7.96307 16.7825 8.11532 16.8988C8.26758 17.0152 8.46667 17.0335 8.63649 16.9417L11.5 15.3865L14.3635 16.9417C14.5333 17.0335 14.7324 17.0152 14.8847 16.8988C15.0369 16.7825 15.1131 16.5865 15.0838 16.3906L14.5567 13.0659L16.8522 10.6963C16.9869 10.5555 17.0338 10.3534 16.9752 10.1636ZM13.6725 12.5087C13.5554 12.625 13.5027 12.7965 13.532 12.9618L13.9419 15.5273L11.7284 14.3333C11.5878 14.2598 11.4122 14.2598 11.2716 14.3333L9.06397 15.5334L9.47388 12.9679C9.50316 12.8026 9.45046 12.6311 9.33334 12.5148L7.55902 10.6902L10.0185 10.3044C10.1766 10.2799 10.3171 10.1758 10.3874 10.0228L11.5 7.69605L12.6126 10.0228C12.6829 10.1758 12.8234 10.2799 12.9815 10.3044L15.441 10.6902L13.6725 12.5087Z" fill="#5D2352"/>
<path d="M11.5 1C11.7761 1 12 0.776142 12 0.5C12 0.223858 11.7761 0 11.5 0C11.2239 0 11 0.223858 11 0.5C11 0.776142 11.2239 1 11.5 1Z" fill="#5D2352"/>
<path d="M16.57 30.6524L18.0614 26.402L22.3154 27.2903C22.5171 27.3335 22.7188 27.2533 22.8411 27.0867C22.9633 26.9202 22.9756 26.6981 22.8716 26.5192L19.1616 19.9184L19.2166 19.869C21.6248 17.6729 23 14.539 23 11.2633C23 5.95175 19.4427 1.33117 14.3513 0.0171691C14.0763 -0.0568589 13.789 0.115873 13.7218 0.393478C13.6484 0.671083 13.8196 0.961026 14.0946 1.02889C18.7276 2.2195 21.9609 6.42676 21.9609 11.2633C21.9609 17.0868 17.2668 21.8246 11.4969 21.8246C5.72708 21.8246 1.03906 17.0868 1.03906 11.2633C1.03906 6.43293 4.27239 2.22567 8.90539 1.02889C9.18044 0.954857 9.35158 0.671083 9.27824 0.393478C9.20489 0.115873 8.92373 -0.0568589 8.64869 0.0171691C3.55727 1.33117 0 5.95792 0 11.2633C0 14.539 1.38134 17.6729 3.78342 19.869L3.83843 19.9184L0.128355 26.5192C0.0305607 26.6981 0.042785 26.9202 0.158916 27.0867C0.281159 27.2533 0.482859 27.3335 0.68456 27.2903L4.93861 26.402L6.42998 30.6524C6.49721 30.8437 6.66835 30.9794 6.87005 30.9979C7.07175 31.0164 7.26734 30.9115 7.36513 30.7326L11.4969 23.4039L15.6288 30.7326C15.7265 30.9115 15.9221 31.0102 16.1238 30.9979C16.3255 30.9794 16.4967 30.8437 16.57 30.6524ZM7.02897 29.2212L5.76375 25.6185C5.67818 25.3718 5.42147 25.2299 5.17087 25.2792L1.59527 26.0257L4.65745 20.5846L4.74302 20.6463C6.42386 21.8801 8.41031 22.6327 10.4884 22.8178L10.629 22.8301L7.02897 29.2212ZM15.971 29.2212L12.371 22.8363L12.5116 22.824C14.5897 22.6389 16.5761 21.8863 18.257 20.6525L18.3425 20.5908L21.4047 26.0318L17.8291 25.2854C17.5785 25.2299 17.3218 25.3779 17.2362 25.6247L15.971 29.2212Z" fill="#5D2352"/>
</svg>
