<svg width="29" height="29" viewBox="0 0 29 29" fill="none" xmlns="http://www.w3.org/2000/svg">
<path d="M18 5C19.4381 5.38676 20.7493 6.14461 21.8024 7.19764C22.8554 8.25067 23.6132 9.5619 24 11" stroke-width="2" stroke-linecap="round" stroke-linejoin="round"/>
<path d="M17 8C17.9587 8.25784 18.8329 8.76308 19.5349 9.46509C20.2369 10.1671 20.7422 11.0413 21 12" stroke-width="2" stroke-linecap="round" stroke-linejoin="round"/>
<path d="M10.9997 14.5747C11.9484 16.5144 13.5207 18.0795 15.4647 19.0195C15.6069 19.0869 15.7643 19.1161 15.9212 19.1042C16.0781 19.0923 16.2293 19.0398 16.3598 18.9517L19.2221 17.0431C19.3487 16.9586 19.4944 16.9071 19.6459 16.8932C19.7974 16.8793 19.95 16.9034 20.0899 16.9633L25.4448 19.2583C25.6267 19.3356 25.7786 19.4699 25.8775 19.641C25.9765 19.8121 26.0171 20.0107 25.9934 20.2069C25.8241 21.5313 25.1779 22.7486 24.1758 23.6309C23.1736 24.5132 21.8842 24.9999 20.5491 25C16.4252 25 12.4702 23.3618 9.55421 20.4458C6.6382 17.5298 5 13.5748 5 9.45095C5.00007 8.11575 5.48681 6.82637 6.3691 5.82422C7.25138 4.82206 8.46869 4.17586 9.79311 4.0066C9.98932 3.98286 10.1879 4.02352 10.359 4.12247C10.5301 4.22142 10.6644 4.37328 10.7417 4.55519L13.0387 9.9148C13.0981 10.0534 13.1223 10.2046 13.1091 10.3549C13.096 10.5051 13.0459 10.6498 12.9633 10.776L11.0612 13.6822C10.9746 13.813 10.9235 13.9639 10.9127 14.1204C10.9019 14.2768 10.9319 14.4334 10.9997 14.5747V14.5747Z" stroke-width="2" stroke-linecap="round" stroke-linejoin="round"/>
</svg>
