<svg width="70" height="69" viewBox="0 0 70 69" fill="none" xmlns="http://www.w3.org/2000/svg">
<path d="M49.1111 69H2.88889C1.3 69 0 67.6843 0 66.0763V2.92373C0 1.31568 1.3 0 2.88889 0H49.1111C50.7 0 52 1.31568 52 2.92373V66.0763C52 67.6843 50.7 69 49.1111 69ZM2.88889 2.33898C2.57111 2.33898 2.31111 2.60212 2.31111 2.92373V66.0763C2.31111 66.3979 2.57111 66.661 2.88889 66.661H49.1111C49.4289 66.661 49.6889 66.3979 49.6889 66.0763V2.92373C49.6889 2.60212 49.4289 2.33898 49.1111 2.33898H2.88889Z" fill="#0A95FA" fill-opacity="0.16"/>
<path d="M54.1405 64C54.0407 64 53.9267 63.9854 53.8269 63.9562C53.2282 63.7811 52.8719 63.1243 53.0429 62.5113L67.696 10.6117C67.7815 10.3052 67.6105 9.96949 67.3112 9.88192L55.1525 6.29156C54.5538 6.11642 54.1975 5.45965 54.3685 4.84666C54.5396 4.23367 55.181 3.8688 55.7797 4.04394L67.9383 7.64889C69.4493 8.10133 70.3188 9.72137 69.8911 11.2684L55.238 63.1535C55.0955 63.6643 54.6394 64 54.1405 64Z" fill="#0A95FA" fill-opacity="0.16"/>
<path d="M18.1963 46H8.80374C7.26168 46 6 44.6875 6 43.0833V34.9167C6 33.3125 7.26168 32 8.80374 32H13.5C14.1168 32 14.6215 32.525 14.6215 33.1667C14.6215 33.8083 14.1168 34.3333 13.5 34.3333H8.80374C8.49533 34.3333 8.24299 34.5958 8.24299 34.9167V43.0833C8.24299 43.4042 8.49533 43.6667 8.80374 43.6667H18.1963C18.5047 43.6667 18.757 43.4042 18.757 43.0833C18.757 42.4417 19.2617 41.9167 19.8785 41.9167C20.4953 41.9167 21 42.4417 21 43.0833C21 44.6875 19.7383 46 18.1963 46Z" fill="#0A95FA" fill-opacity="0.16"/>
<path d="M40.4 22H23.6C21.6193 22 20 20.4043 20 18.4524V9.54764C20 7.59573 21.6193 6 23.6 6H40.4C42.3807 6 44 7.59573 44 9.54764V18.4524C44 20.4043 42.3807 22 40.4 22ZM23.6 8.27961C22.8916 8.27961 22.3133 8.84951 22.3133 9.54764V18.4524C22.3133 19.1505 22.8916 19.7204 23.6 19.7204H40.4C41.1084 19.7204 41.6867 19.1505 41.6867 18.4524V9.54764C41.6867 8.84951 41.1084 8.27961 40.4 8.27961H23.6Z" fill="#0A95FA" fill-opacity="0.16"/>
<path d="M14.5381 42.9849C14.2012 42.9849 13.8936 42.8486 13.674 42.5912L10.3053 38.7604C9.86594 38.2607 9.90988 37.5036 10.3786 37.0494C10.8472 36.5951 11.5942 36.6405 12.0336 37.1251L14.4502 39.8808L19.8986 32.4766C20.294 31.9467 21.0264 31.8407 21.539 32.2495C22.0516 32.6583 22.1541 33.4154 21.7587 33.9454L15.4608 42.5155C15.2557 42.8032 14.9335 42.9697 14.582 43C14.5674 42.9849 14.5527 42.9849 14.5381 42.9849Z" fill="#0A95FA" fill-opacity="0.16"/>
<path d="M12.7925 8H7.20755C6.5434 8 6 7.55 6 7C6 6.45 6.5434 6 7.20755 6H12.7925C13.4566 6 14 6.45 14 7C14 7.55 13.4566 8 12.7925 8Z" fill="#0A95FA" fill-opacity="0.16"/>
<path d="M15.8931 12H7.10692C6.49811 12 6 11.55 6 11C6 10.45 6.49811 10 7.10692 10H15.8931C16.5019 10 17 10.45 17 11C17 11.55 16.5019 12 15.8931 12Z" fill="#0A95FA" fill-opacity="0.16"/>
<path d="M31.7925 36H26.2075C25.5434 36 25 35.55 25 35C25 34.45 25.5434 34 26.2075 34H31.7925C32.4566 34 33 34.45 33 35C33 35.55 32.4566 36 31.7925 36Z" fill="#0A95FA" fill-opacity="0.16"/>
<path d="M42.8397 40H26.1603C25.5221 40 25 39.55 25 39C25 38.45 25.5221 38 26.1603 38H42.8397C43.4779 38 44 38.45 44 39C44 39.55 43.4779 40 42.8397 40Z" fill="#0A95FA" fill-opacity="0.16"/>
<path d="M18.1963 62H8.80374C7.26168 62 6 60.6875 6 59.0833V50.9167C6 49.3125 7.26168 48 8.80374 48H13.5C14.1168 48 14.6215 48.525 14.6215 49.1667C14.6215 49.8083 14.1168 50.3333 13.5 50.3333H8.80374C8.49533 50.3333 8.24299 50.5958 8.24299 50.9167V59.0833C8.24299 59.4042 8.49533 59.6667 8.80374 59.6667H18.1963C18.5047 59.6667 18.757 59.4042 18.757 59.0833C18.757 58.4417 19.2617 57.9167 19.8785 57.9167C20.4953 57.9167 21 58.4417 21 59.0833C21 60.7021 19.7383 62 18.1963 62Z" fill="#0A95FA" fill-opacity="0.16"/>
<path d="M14.5381 58.9849C14.2012 58.9849 13.8936 58.8486 13.674 58.5912L10.3053 54.7604C9.86594 54.2607 9.90988 53.5036 10.3786 53.0494C10.8472 52.5951 11.5942 52.6406 12.0336 53.1251L14.4502 55.8808L19.8986 48.4766C20.294 47.9467 21.0264 47.8407 21.539 48.2495C22.0516 48.6583 22.1541 49.4154 21.7587 49.9454L15.4608 58.5155C15.2557 58.8032 14.9335 58.9697 14.582 59C14.5674 58.9849 14.5527 58.9849 14.5381 58.9849Z" fill="#0A95FA" fill-opacity="0.16"/>
<path d="M31.7925 52H26.2075C25.5434 52 25 51.55 25 51C25 50.45 25.5434 50 26.2075 50H31.7925C32.4566 50 33 50.45 33 51C33 51.55 32.4566 52 31.7925 52Z" fill="#0A95FA" fill-opacity="0.16"/>
<path d="M42.8397 56H26.1603C25.5221 56 25 55.55 25 55C25 54.45 25.5221 54 26.1603 54H42.8397C43.4779 54 44 54.45 44 55C44 55.55 43.4779 56 42.8397 56Z" fill="#0A95FA" fill-opacity="0.16"/>
</svg>
