<svg width="86" height="73" viewBox="0 0 86 73" fill="none" xmlns="http://www.w3.org/2000/svg">
<path d="M85.8993 71.5799L80.8644 45.1882C80.7469 44.534 80.0756 44.1032 79.4042 44.2149C78.7161 44.3266 78.263 44.9648 78.3805 45.6031L80.5119 56.7565L64.098 38.6461L75.1413 36.3005L76.7693 37.1622L77.4742 40.88C77.5917 41.5342 78.263 41.965 78.9343 41.8533C79.6224 41.7416 80.0756 41.1034 79.9581 40.4651L79.1357 36.1889C79.0686 35.8378 78.8336 35.5346 78.5147 35.3591L75.9469 34.0028L67.8071 29.6946L61.5302 26.3757C61.4798 26.3438 61.4295 26.3279 61.3791 26.3119C61.3624 26.3119 61.3456 26.296 61.3288 26.296C61.2952 26.28 61.2617 26.28 61.2281 26.264C61.2113 26.264 61.1945 26.264 61.161 26.2481C61.1274 26.2481 61.0938 26.2321 61.0603 26.2321C61.0435 26.2321 61.0099 26.2321 60.9931 26.2321C60.9596 26.2321 60.926 26.2321 60.8924 26.2321C60.8756 26.2321 60.8421 26.2321 60.8253 26.2321C60.7917 26.2321 60.7582 26.2321 60.7246 26.2481C60.7078 26.2481 60.6742 26.2481 60.6575 26.264C60.6239 26.264 60.5903 26.28 60.5735 26.28C60.5568 26.28 60.5232 26.296 60.5064 26.296C60.4729 26.3119 60.4561 26.3119 60.4225 26.3279C60.4057 26.3438 60.3722 26.3438 60.3554 26.3598C60.3386 26.3598 60.3386 26.3598 60.3218 26.3757L57.4351 27.7958C59.5833 23.9983 60.6575 20.3123 60.6575 16.802C60.6742 7.53137 52.7526 0 43.0352 0C33.3177 0 25.3961 7.53137 25.3961 16.7701C25.3961 20.3283 26.5038 24.0461 28.6856 27.8756L25.5807 26.3438C25.5639 26.3438 25.5639 26.3279 25.5471 26.3279C25.5304 26.3119 25.4968 26.3119 25.48 26.296C25.4464 26.28 25.4297 26.28 25.3961 26.264C25.3793 26.264 25.3458 26.2481 25.329 26.2481C25.2954 26.2481 25.2618 26.2321 25.2451 26.2321C25.2283 26.2321 25.1947 26.2162 25.1779 26.2162C25.1444 26.2162 25.1108 26.2162 25.0772 26.2002C25.0604 26.2002 25.0269 26.2002 25.0101 26.2002C24.9765 26.2002 24.943 26.2002 24.9094 26.2002C24.8926 26.2002 24.859 26.2002 24.8423 26.2002C24.8087 26.2002 24.7751 26.2162 24.7416 26.2162C24.7248 26.2162 24.6912 26.2162 24.6744 26.2321C24.6409 26.2481 24.6073 26.2481 24.5737 26.264C24.5569 26.264 24.5402 26.28 24.5234 26.28C24.473 26.296 24.4227 26.3279 24.3723 26.3438L7.3878 35.3591C7.05213 35.5346 6.83395 35.8378 6.76682 36.1889L1.96684 61.2721C1.84936 61.9263 2.30251 62.5486 2.99061 62.6603C3.67872 62.772 4.33327 62.3412 4.45075 61.687L5.8941 54.1556L22.2241 45.9541L20.915 62.0699L2.92348 69.7609L3.56124 66.442C3.67872 65.7878 3.22558 65.1655 2.53747 65.0538C1.84936 64.9421 1.19482 65.3729 1.07734 66.0271L0.0200002 71.5799C-0.0639155 72.0107 0.120699 72.4575 0.489928 72.7447C0.708109 72.9202 0.993422 73 1.26195 73C1.42978 73 1.6144 72.9681 1.78223 72.8883L22.1234 64.2081L42.4478 72.8883C42.4646 72.8883 42.4646 72.9043 42.4813 72.9043C42.4981 72.9043 42.5149 72.9202 42.5317 72.9202C42.5485 72.9202 42.5652 72.9362 42.582 72.9362C42.5988 72.9362 42.5988 72.9362 42.6156 72.9521C42.6324 72.9521 42.6492 72.9681 42.6659 72.9681C42.6995 72.9681 42.7163 72.984 42.7499 72.984C42.7666 72.984 42.7666 72.984 42.7834 72.984C42.8002 72.984 42.8002 72.984 42.817 72.984C42.8673 72.984 42.9009 72.984 42.9513 72.984H42.968C43.0184 72.984 43.0687 72.984 43.1191 72.9681H43.1359C43.1527 72.9681 43.1527 72.9681 43.1694 72.9681C43.203 72.9681 43.2534 72.9521 43.2869 72.9362C43.3037 72.9362 43.3037 72.9362 43.3205 72.9362C43.3205 72.9362 43.3205 72.9362 43.3373 72.9362C43.3876 72.9202 43.438 72.9043 43.4883 72.8883L63.8295 64.2081L84.1706 72.8883C84.1874 72.9043 84.2042 72.9043 84.2378 72.9043C84.2546 72.9043 84.2713 72.9202 84.3049 72.9202C84.3385 72.9362 84.3552 72.9362 84.3888 72.9362C84.4056 72.9362 84.4224 72.9521 84.4392 72.9521C84.4727 72.9521 84.5063 72.9681 84.5399 72.9681C84.5566 72.9681 84.5566 72.9681 84.5734 72.9681C84.6238 72.9681 84.6573 72.9681 84.7077 72.9681C84.7748 72.9681 84.8252 72.9681 84.8923 72.9521C84.9091 72.9521 84.9259 72.9521 84.9427 72.9521C85.0098 72.9362 85.0601 72.9362 85.1273 72.9043C85.1273 72.9043 85.1273 72.9043 85.1441 72.9043C85.1776 72.8883 85.228 72.8724 85.2615 72.8564C85.2783 72.8564 85.2783 72.8404 85.2951 72.8404C85.3287 72.8245 85.3622 72.8085 85.3958 72.7926C85.4294 72.7766 85.4629 72.7607 85.4797 72.7287C85.4965 72.7287 85.4965 72.7128 85.5133 72.7128C85.5301 72.6968 85.5469 72.6809 85.5804 72.6649C85.5972 72.649 85.614 72.633 85.6308 72.6171C85.6643 72.5851 85.6979 72.5373 85.7315 72.5054L85.7483 72.4894C85.7818 72.4415 85.8154 72.3937 85.849 72.3298C85.849 72.3139 85.8657 72.2979 85.8657 72.282C85.8825 72.2501 85.8993 72.2022 85.9161 72.1703C85.9161 72.1543 85.9329 72.1224 85.9329 72.1064C85.9496 72.0745 85.9497 72.0267 85.9664 71.9948C85.9664 71.9788 85.9664 71.9469 85.9832 71.9309C85.9832 71.8831 85.9832 71.8512 86 71.8033C86 71.7873 86 71.7714 86 71.7395C85.9161 71.7075 85.9161 71.6437 85.8993 71.5799ZM63.7288 30.2691L62.4365 30.5563L62.3526 29.5351L63.7288 30.2691ZM60.9763 43.7043L55.7064 39.795C55.3372 39.5237 54.8505 39.4599 54.4309 39.6354L44.2268 43.8798V42.5714C44.982 41.981 46.7275 40.5928 48.8086 38.5823L60.1875 33.8273L60.9763 43.7043ZM59.8015 29.3117L59.9694 31.2903L52.8533 34.2581C53.5582 33.4284 54.2127 32.5987 54.8337 31.769L59.8015 29.3117ZM26.101 29.3117L31.3205 31.8966C32.0926 32.9338 32.9485 33.9709 33.8716 35.024C34.6772 35.9495 35.4828 36.7952 36.2548 37.577L25.5304 36.125L26.101 29.3117ZM22.4423 43.1458L6.46472 51.1718L7.23675 47.087L7.25353 46.9753L22.7611 39.2046L22.4423 43.1458ZM22.9961 36.3963L7.84094 43.9915L9.15002 37.1781L23.5667 29.551L23.1975 34.0028L22.9961 36.3963ZM23.4325 62.1497L24.6241 47.4859L39.5275 69.0109L23.4325 62.1497ZM41.6925 57.5224L33.9219 45.8743L41.6925 46.7519V57.5224ZM41.6925 44.3425L31.5891 43.1937C31.1024 43.1458 30.6324 43.3532 30.3639 43.7521C30.1122 44.151 30.1122 44.6457 30.3639 45.0286L41.6925 61.9902V67.7823L24.943 43.5766L25.3625 38.5185L39.2758 40.4173C40.3331 41.3427 41.1722 42.0289 41.6925 42.4437V44.3425ZM43.0352 40.3694C39.8464 37.8164 27.9136 27.5246 27.9136 16.7701C27.9136 8.83978 34.694 2.39344 43.0352 2.39344C51.3764 2.39344 58.1568 8.83978 58.1568 16.7701C58.1568 27.5246 46.224 37.8164 43.0352 40.3694ZM44.21 69.9364V64.6229L47.9862 68.3408L44.21 69.9364ZM50.4365 67.2877L44.2268 61.1604V46.4807L54.7666 42.1246L61.2617 46.9434L62.5036 62.1338L50.4365 67.2877ZM62.6379 32.9816L67.0183 32.0083L70.1232 33.6518L71.835 34.5613L62.9232 36.4442L62.6379 32.9816ZM65.0043 62.0859L64.0141 49.991L80.2098 68.5801L65.0043 62.0859ZM63.6784 45.8584L63.3428 41.6459L63.326 41.4704L81.4014 61.4317L82.5595 67.511L63.6784 45.8584Z" fill="#194FB9" fill-opacity="0.16"/>
<path d="M43 9C42.2931 9 41.7069 9.54957 41.7069 10.2123C41.7069 10.875 42.2931 11.4246 43 11.4246C45.9828 11.4246 48.4138 13.7037 48.4138 16.5C48.4138 19.2963 45.9828 21.5754 43 21.5754C40.0172 21.5754 37.5862 19.2963 37.5862 16.5C37.5862 15.1584 38.1379 13.8976 39.1379 12.944C39.6379 12.4591 39.6379 11.6994 39.1207 11.2306C38.6034 10.7619 37.7931 10.7619 37.2931 11.2468C35.8103 12.653 35 14.528 35 16.5C35 20.6379 38.5862 24 43 24C47.4138 24 51 20.6379 51 16.5C51 12.3621 47.4138 9 43 9Z" fill="#194FB9" fill-opacity="0.16"/>
</svg>
