<svg width="62" height="62" viewBox="0 0 62 62" fill="none" xmlns="http://www.w3.org/2000/svg">
<path d="M57.8465 32.3315C57.8465 32.3194 57.8465 32.2951 57.8465 32.283V27.0016C57.8586 12.1167 45.8098 0 31 0C26.1805 0 21.4457 1.31123 17.3043 3.77586C16.2992 4.38291 17.2316 5.93696 18.2367 5.34205C22.0875 3.03526 26.4953 1.82115 31 1.82115C44.8047 1.82115 56.0422 13.1123 56.0422 27.0016V28.8592C55.3762 28.24 54.577 27.7908 53.6809 27.548C53.802 14.9699 43.6906 4.20079 31 4.20079C18.3215 4.20079 8.17383 14.9577 8.33125 27.5358C7.43516 27.7787 6.62383 28.2279 5.96992 28.8349V27.0016C5.96992 23.4322 6.69648 19.9841 8.1375 16.7425C9.53008 13.6101 11.516 10.8419 14.0227 8.51086C14.8824 7.70955 13.6473 6.37404 12.7875 7.17534C10.0871 9.6764 7.96797 12.6509 6.47852 16.0019C4.92852 19.4742 4.15352 23.1772 4.15352 27.0016V32.3315C1.8043 32.6594 0 34.6748 0 37.103V42.2386C0 44.679 1.81641 46.6944 4.16563 47.01C4.50469 49.8146 6.89023 51.9879 9.77227 51.9879C12.8844 51.9879 15.4273 49.4504 15.4273 46.318V33.0236C15.4273 30.0247 13.0902 27.5601 10.1477 27.3659C10.0266 15.844 19.4113 6.02195 31 6.02195C42.6008 6.02195 51.9492 15.8319 51.8523 27.3659C48.8977 27.548 46.5484 30.0126 46.5484 33.0236V46.3301C46.5484 49.4504 49.0793 52 52.2035 52C55.0855 52 57.4711 49.8268 57.8102 47.0222C60.1715 46.7187 62 44.6911 62 42.2508V37.1151C62 34.6748 60.1957 32.6594 57.8465 32.3315ZM1.81641 42.2386V37.103C1.81641 35.6825 2.79727 34.5048 4.11719 34.1891V45.1525C2.79727 44.8368 1.81641 43.6591 1.81641 42.2386ZM13.6109 33.0236V46.3301C13.6109 48.4548 11.8914 50.1788 9.77227 50.1788C7.65312 50.1788 5.93359 48.4427 5.93359 46.3301V33.0236C5.93359 30.8989 7.65312 29.1749 9.77227 29.1749C11.8914 29.1749 13.6109 30.8989 13.6109 33.0236ZM56.0422 46.3301C56.0422 48.4548 54.3227 50.1788 52.2035 50.1788C50.0844 50.1788 48.3648 48.4548 48.3648 46.3301V33.0236C48.3648 30.8989 50.0844 29.1749 52.2035 29.1749C54.3227 29.1749 56.0422 30.8989 56.0422 33.0236V46.3301ZM60.1836 42.2386C60.1836 43.6591 59.1906 44.8611 57.8586 45.1646V34.1891C59.1906 34.4926 60.1836 35.6825 60.1836 37.1151V42.2386Z" fill="white"/>
<path d="M41.9141 30.6016H39.9123V25.9831C39.9123 21.0382 35.9206 17 31.0059 17C26.0913 17 22.0996 21.0261 22.0996 25.9831V30.5895H20.0977C18.947 30.5895 18 31.5325 18 32.7053V38.8834C18 42.4017 19.3665 45.7023 21.8359 48.1808C23.4661 49.813 25.444 50.9616 27.6016 51.554V56.2934H24.7127C23.1544 56.2934 21.8838 57.575 21.8838 59.1467C21.8838 60.7184 23.1544 62 24.7127 62H37.2752C38.8335 62 40.1041 60.7184 40.1041 59.1467C40.1041 57.575 38.8335 56.2934 37.2752 56.2934H34.3863V51.5419C39.9123 50.0185 43.9999 44.8439 43.9999 38.7504V32.7053C44.0119 31.5446 43.0649 30.6016 41.9141 30.6016ZM38.318 59.1588C38.318 59.7391 37.8505 60.1985 37.2871 60.1985H24.7247C24.1494 60.1985 23.6938 59.727 23.6938 59.1588C23.6938 58.5905 24.1613 58.119 24.7247 58.119H37.2871C37.8505 58.119 38.318 58.5785 38.318 59.1588ZM32.6002 56.3055H29.4117V51.9167C29.9391 51.9772 30.4665 52.0134 31.0059 52.0134C31.0299 52.0134 31.0539 52.0134 31.0779 52.0134C31.5933 52.0134 32.0968 51.9772 32.6002 51.9167V56.3055ZM42.2138 38.7625C42.2138 44.8923 37.1912 50.1636 31.0779 50.1999C24.9645 50.2362 19.81 45.0736 19.81 38.8955V32.7174C19.81 32.5481 19.9419 32.4151 20.1097 32.4151H22.1116V38.8955C22.1116 43.8404 26.1032 47.8786 31.0179 47.8786C32.0848 47.8786 33.1276 47.6851 34.1346 47.3103C35.2254 46.8992 34.5901 45.2066 33.5112 45.6056C32.7201 45.9078 31.881 46.0529 31.0299 46.0529C27.1102 46.0529 23.9216 42.8369 23.9216 38.8834V25.9831C23.9216 22.0296 27.1102 18.8135 31.0299 18.8135C34.9497 18.8135 38.1382 22.0296 38.1382 25.9831V38.8834C38.1382 40.3705 37.6947 41.7972 36.8436 43.0062C36.1724 43.9613 37.6468 45.0132 38.318 44.0459C39.3849 42.5226 39.9363 40.7453 39.9363 38.8834V32.403H41.9141C42.082 32.403 42.2138 32.536 42.2138 32.7053V38.7625Z" fill="white"/>
<path d="M31.002 36C29.6714 36 29.6605 38 31.002 38C32.3327 38 32.3327 36 31.002 36Z" fill="white"/>
<path d="M31.002 41C29.6714 41 29.6605 43 31.002 43C32.3327 43.0105 32.3327 41 31.002 41Z" fill="white"/>
<path d="M35.002 39C33.6714 39 33.6605 41 35.002 41C36.3327 41.0105 36.3327 39 35.002 39Z" fill="white"/>
</svg>
