<svg width="77" height="77" viewBox="0 0 77 77" fill="none" xmlns="http://www.w3.org/2000/svg">
<path d="M19.0699 16.3322C17.6638 14.8364 15.7264 14 13.6953 14H13.3047C11.2892 14 9.35184 14.8364 7.94568 16.3322C6.61764 17.7316 5.91456 19.6295 6.00831 21.5758L6.14892 25.0339C6.36766 28.9907 9.58619 32.0789 13.4453 31.9985H13.5391C17.3982 32.0628 20.6167 28.9907 20.8355 25.0339L20.9917 21.5758C21.0854 19.6295 20.3824 17.7316 19.0699 16.3322ZM18.3512 24.9374C18.1794 27.527 16.0701 29.5054 13.5547 29.441H13.4609C10.9455 29.5054 8.82062 27.527 8.66438 24.9374L8.61751 23.8919C11.008 23.7793 13.2891 22.8947 15.1483 21.3667C15.9139 22.5408 17.0701 23.3772 18.4137 23.715L18.3512 24.9374ZM16.7888 18.8575C16.7263 18.3106 16.3201 17.8603 15.7889 17.7638C15.2577 17.6512 14.7265 17.9085 14.4609 18.375C14.4452 18.4071 12.8985 20.9324 8.52377 21.3184C8.50814 20.1282 8.96124 18.9701 9.75806 18.1176C10.6955 17.1204 11.9767 16.5735 13.3203 16.5735H13.7109C15.0546 16.5735 16.3357 17.1204 17.2732 18.1176C18.0075 18.9057 18.4294 19.9191 18.4919 21.0128C17.6169 20.6107 16.992 19.8065 16.7888 18.8575Z" fill="#005453" fill-opacity="0.16"/>
<path d="M69.0699 47.3322C67.6638 45.8364 65.7264 45 63.6953 45H63.3047C61.2892 45 59.3518 45.8364 57.9457 47.3322C56.6176 48.7316 55.9146 50.6295 56.0083 52.5758L56.1489 56.0339C56.3677 59.9907 59.5862 63.0789 63.4453 62.9985H63.5391C67.3982 63.0628 70.6167 59.9907 70.8355 56.0339L70.9917 52.5758C71.0854 50.6295 70.3824 48.7316 69.0699 47.3322ZM68.5075 52.4793L68.3512 55.9374C68.1794 58.527 66.0701 60.5054 63.5547 60.441H63.4609C60.9455 60.5054 58.8206 58.527 58.6644 55.9374L58.5081 52.4632C58.4613 51.2086 58.9144 50.0023 59.7581 49.1176C60.6955 48.1204 61.9767 47.5735 63.3203 47.5735H63.7109C65.0546 47.5735 66.3358 48.1204 67.2732 49.1176C68.1013 50.0183 68.5544 51.2247 68.5075 52.4793Z" fill="#005453" fill-opacity="0.16"/>
<path d="M39.9053 19.0091C38.5165 17.6636 36.3201 17.6636 34.9313 19.0091L20.5098 33.5019C20.2676 33.745 19.9446 33.8747 19.5893 33.8747H6.45978C2.89075 33.8747 0 36.7765 0 40.3591V58.5156C0 60.6716 1.72799 62.4062 3.87587 62.4062C4.31191 62.4062 4.74794 62.3252 5.16783 62.1793V63.7031C5.16783 64.4164 5.74921 65 6.45978 65H21.9633C22.6738 65 23.2552 64.4164 23.2552 63.7031V42.6773C23.2552 42.3531 23.3844 42.0289 23.5944 41.7857L39.9861 24.0832C41.3749 22.6728 41.3265 20.3871 39.9053 19.0091ZM38.145 22.2838L21.7049 40.0187C21.0427 40.732 20.6713 41.6885 20.6713 42.6611V62.4062H7.75174V42.9529C7.75174 42.2396 7.17036 41.656 6.45978 41.656C5.74921 41.656 5.16783 42.2396 5.16783 42.9529V58.5156C5.16783 59.2289 4.58645 59.8125 3.87587 59.8125C3.16529 59.8125 2.58391 59.2289 2.58391 58.5156V40.3591C2.58391 38.2031 4.31191 36.4685 6.45978 36.4685H19.6054C20.639 36.4685 21.6241 36.0632 22.3509 35.3337L36.7723 20.8572C37.1599 20.4843 37.7897 20.4843 38.1773 20.8572C38.5488 21.2463 38.5488 21.8947 38.145 22.2838Z" fill="#005453" fill-opacity="0.16"/>
<path d="M14.5 37C13.675 37 13 37.5786 13 38.2857V53.7143C13 54.4214 13.675 55 14.5 55C15.325 55 16 54.4214 16 53.7143V38.2857C16 37.5786 15.325 37 14.5 37Z" fill="#005453" fill-opacity="0.16"/>
<path d="M41.0655 47.3322C39.6581 45.8364 37.7191 45 35.7019 45H35.311C33.2937 45 31.3547 45.8364 29.9473 47.3322C28.6182 48.7316 27.9145 50.6295 28.0083 52.5758L28.149 56.0339C28.368 59.9907 31.5893 63.0789 35.4517 62.9985H35.5455C39.4079 63.0628 42.6292 59.9907 42.8482 56.0339L42.9889 52.5758C43.0984 50.6295 42.3947 48.7316 41.0655 47.3322ZM40.5182 52.4793L40.3618 55.9374C40.1898 58.527 38.0788 60.5054 35.5612 60.441H35.4673C32.9497 60.5054 30.823 58.527 30.6667 55.9374L30.5103 52.4632C30.4634 51.2086 30.9169 50.0023 31.7613 49.1176C32.6995 48.1204 33.9818 47.5735 35.3266 47.5735H35.7175C37.0623 47.5735 38.3446 48.1204 39.2828 49.1176C40.1116 50.0183 40.5651 51.2247 40.5182 52.4793Z" fill="#005453" fill-opacity="0.16"/>
<path d="M42.7152 64H29.2848C25.8257 64 23.0162 66.8113 23 70.2888V75.7C23 76.415 23.5846 77 24.2992 77C25.0137 77 25.5984 76.415 25.5984 75.7V70.2888C25.5984 68.2575 27.2548 66.6 29.2848 66.6H42.7152C44.7452 66.6 46.4016 68.2575 46.4016 70.2888V75.7C46.4016 76.415 46.9863 77 47.7008 77C48.4154 77 49 76.415 49 75.7V70.2888C49 66.8113 46.1905 64 42.7152 64Z" fill="#005453" fill-opacity="0.16"/>
<path d="M70.7152 64H57.2848C53.8257 64 51.0162 66.8113 51 70.2888V75.7C51 76.415 51.5846 77 52.2992 77C53.0137 77 53.5984 76.415 53.5984 75.7V70.2888C53.5984 68.2575 55.2548 66.6 57.2848 66.6H70.7152C72.7452 66.6 74.4016 68.2575 74.4016 70.2888V75.7C74.4016 76.415 74.9863 77 75.7008 77C76.4154 77 77 76.415 77 75.7V70.2888C77 66.8113 74.1905 64 70.7152 64Z" fill="#005453" fill-opacity="0.16"/>
<path d="M73.1865 0H27.8135C25.6968 0.0159091 23.984 1.73409 24.0001 3.81818V22.9091C24.0001 23.6091 24.5818 24.1818 25.2928 24.1818C26.0038 24.1818 26.5855 23.6091 26.5855 22.9091V7.63636H74.4145V38.1818C74.4307 38.8659 73.8813 39.4386 73.1865 39.4545H29.0739C28.3629 39.4545 27.7812 40.0273 27.7812 40.7273C27.7812 41.4273 28.3629 42 29.0739 42H73.1865C75.3032 41.9841 77.016 40.2659 76.9999 38.1818V3.81818C77.016 1.73409 75.3032 0.0159091 73.1865 0ZM74.4145 5.09091H26.5855V3.81818C26.5693 3.13409 27.1187 2.56136 27.8135 2.54545H73.1865C73.8813 2.56136 74.4307 3.13409 74.4145 3.81818V5.09091Z" fill="#005453" fill-opacity="0.16"/>
<path d="M70.5 16C69.675 16 69 16.5815 69 17.2923V35.7077C69 36.4185 69.675 37 70.5 37C71.325 37 72 36.4185 72 35.7077V17.2923C72 16.5815 71.325 16 70.5 16Z" fill="#005453" fill-opacity="0.16"/>
<path d="M65.5 24C64.675 24 64 24.585 64 25.3V35.7C64 36.415 64.675 37 65.5 37C66.325 37 67 36.415 67 35.7V25.3C67 24.585 66.325 24 65.5 24Z" fill="#005453" fill-opacity="0.16"/>
<path d="M46.7143 10H31.2857C30.5786 10 30 10.675 30 11.5C30 12.325 30.5786 13 31.2857 13H46.7143C47.4214 13 48 12.325 48 11.5C48 10.675 47.4214 10 46.7143 10Z" fill="#005453" fill-opacity="0.16"/>
<path d="M53.75 10H51.25C50.5625 10 50 10.675 50 11.5C50 12.325 50.5625 13 51.25 13H53.75C54.4375 13 55 12.325 55 11.5C55 10.675 54.4375 10 53.75 10Z" fill="#005453" fill-opacity="0.16"/>
</svg>
