<svg width="74" height="74" viewBox="0 0 74 74" fill="none" xmlns="http://www.w3.org/2000/svg">
<path d="M49.5535 46.0207C48.7658 46.0207 48.1213 46.6731 48.1213 47.4704V57.4734C48.1213 61.4746 44.9132 64.7219 40.9604 64.7219H25.4928C24.7051 64.7219 24.0607 65.3743 24.0607 66.1716V69.0565L20.6377 65.5917C20.4229 65.0843 19.9073 64.7219 19.3201 64.7219H10.0253C6.07245 64.7219 2.86436 61.4746 2.86436 57.4734V35.1479C2.86436 31.1467 6.07245 27.8994 10.0253 27.8994H24.4903C25.278 27.8994 25.9225 27.247 25.9225 26.4497C25.9225 25.6524 25.278 25 24.4903 25H10.0253C4.49705 25 0 29.5521 0 35.1479V57.4734C0 63.0692 4.49705 67.6213 10.0253 67.6213H18.604L24.4903 73.5796C24.7624 73.855 25.1348 74 25.5072 74C25.6933 74 25.8795 73.971 26.0514 73.884C26.5813 73.6666 26.9393 73.1302 26.9393 72.5503V67.6213H40.9747C46.5029 67.6213 51 63.0692 51 57.4734V47.4704C50.9857 46.6731 50.3412 46.0207 49.5535 46.0207Z" fill="#5D2352" fill-opacity="0.16"/>
<path d="M52.8487 0H49.1658C37.4911 0 28 9.39424 28 20.9353C28 32.4764 37.4911 41.8706 49.1513 41.8706H52.8342C54.6538 41.8706 56.4589 41.6401 58.2057 41.1934L63.65 46.5822C63.9266 46.8559 64.3051 47 64.6835 47C64.8728 47 65.062 46.9712 65.2367 46.8847C65.7753 46.6686 66.1392 46.1355 66.1392 45.5592V37.2167C68.4392 35.3725 70.3608 33.0383 71.7 30.4304C73.2285 27.4767 74 24.278 74 20.9209C74 9.39424 64.5089 0 52.8487 0ZM63.8101 35.3725C63.4462 35.6462 63.2278 36.0641 63.2278 36.5251V42.0868L59.6614 38.5567C59.3848 38.283 59.0063 38.1389 58.6278 38.1389C58.4823 38.1389 58.3367 38.1533 58.2057 38.1965C56.4734 38.7296 54.6684 38.989 52.8342 38.989H49.1513C39.0924 38.989 30.9114 30.8915 30.9114 20.9353C30.9114 10.9792 39.0924 2.88167 49.1513 2.88167H52.8342C62.9076 2.88167 71.0886 10.9792 71.0886 20.9353C71.0886 26.6698 68.4392 31.9289 63.8101 35.3725Z" fill="#5D2352" fill-opacity="0.16"/>
<path d="M56.984 15.7346C56.786 12.6927 54.3948 10.2329 51.4236 10.0146C49.7399 9.89818 48.141 10.4804 46.9101 11.6593C45.7074 12.8237 45 14.4684 45 16.1713C45 16.9718 45.6367 17.6267 46.4149 17.6267C47.1931 17.6267 47.8298 16.9718 47.8298 16.1713C47.8298 15.2543 48.1835 14.4101 48.8343 13.7988C49.4852 13.173 50.3341 12.8673 51.2113 12.9401C52.7677 13.0566 54.0269 14.3374 54.1401 15.953C54.2533 17.5685 53.2205 19.0094 51.6782 19.3588C50.4331 19.6499 49.5701 20.756 49.5701 22.0514V25.5445C49.5701 26.345 50.2068 27 50.9849 27C51.7631 27 52.3998 26.345 52.3998 25.5445V22.1678C55.272 21.4546 57.1963 18.762 56.984 15.7346Z" fill="#5D2352" fill-opacity="0.16"/>
<path d="M52.565 30.435C52.28 30.15 51.905 30 51.5 30C51.095 30 50.72 30.165 50.435 30.435C50.15 30.72 50 31.095 50 31.5C50 31.89 50.165 32.28 50.435 32.565C50.72 32.85 51.095 33 51.5 33C51.905 33 52.28 32.835 52.565 32.565C52.85 32.28 53 31.905 53 31.5C53 31.095 52.835 30.705 52.565 30.435Z" fill="#5D2352" fill-opacity="0.16"/>
<path d="M39.5714 45H9.42857C8.64286 45 8 45.675 8 46.5C8 47.325 8.64286 48 9.42857 48H39.5714C40.3571 48 41 47.325 41 46.5C41 45.675 40.3571 45 39.5714 45Z" fill="#5D2352" fill-opacity="0.16"/>
<path d="M40.565 53.435C40.28 53.15 39.905 53 39.5 53C39.095 53 38.72 53.165 38.435 53.435C38.15 53.72 38 54.095 38 54.5C38 54.905 38.165 55.28 38.435 55.565C38.72 55.85 39.095 56 39.5 56C39.905 56 40.28 55.835 40.565 55.565C40.85 55.28 41 54.905 41 54.5C41 54.11 40.835 53.72 40.565 53.435Z" fill="#5D2352" fill-opacity="0.16"/>
<path d="M34.5394 53H9.46062C8.65728 53 8 53.675 8 54.5C8 55.325 8.65728 56 9.46062 56H34.5394C35.3427 56 36 55.325 36 54.5C36 53.675 35.3427 53 34.5394 53Z" fill="#5D2352" fill-opacity="0.16"/>
<path d="M30.5542 37H9.44578C8.6506 37 8 37.675 8 38.5C8 39.325 8.6506 40 9.44578 40H30.5542C31.3494 40 32 39.325 32 38.5C32 37.675 31.3494 37 30.5542 37Z" fill="#5D2352" fill-opacity="0.16"/>
</svg>
