<svg width="84" height="84" viewBox="0 0 84 84" fill="none" xmlns="http://www.w3.org/2000/svg">
<path d="M77.3887 49.8443C76.468 50.6989 75.6569 51.444 74.8458 52.233C73.9251 53.1096 73.2675 53.1096 72.4783 52.1234C71.733 51.2249 71.0096 50.3264 70.2423 49.3841C69.497 51.203 68.949 52.9781 68.116 54.6217C63.3591 63.9573 55.7743 69.3702 45.3617 70.7728C44.4629 70.9043 43.5423 70.9481 42.6435 70.97C41.1528 71.0138 40.8679 70.707 40.7363 69.2388C40.7363 69.1073 40.6925 68.9758 40.6267 68.6471C38.5004 70.3564 36.4617 72 34.6203 73.4683C36.5494 75.594 38.4346 77.6978 40.6048 80.1084C40.8021 78.2895 41.8324 78.2457 42.9504 78.2019C50.0309 78.0485 56.5196 75.9666 62.3945 72C62.548 71.8904 62.7014 71.8028 62.8549 71.6932C63.5564 71.1892 64.2798 70.97 64.8716 71.7809C65.4416 72.5917 65.0251 73.2053 64.3017 73.7094C60.8381 76.1419 57.1115 78.0923 52.9903 79.1223C50.1406 79.8455 47.1812 80.1961 44.2657 80.6125C43.5203 80.722 43.1038 80.8755 43.2134 81.7082C43.2573 82.0369 43.3011 82.4095 43.1915 82.6944C42.9942 83.1546 42.775 83.7682 42.3804 83.9435C42.0516 84.0969 41.2844 83.9216 41.0432 83.6148C39.0484 81.0508 36.2863 80.3276 33.2393 79.6482C18.0259 76.3391 6.2542 63.6067 3.84286 48.1349C3.64557 46.7981 3.51404 45.4613 3.42635 44.1026C3.38251 43.4452 3.1633 43.1603 2.50566 43.226C2.11108 43.2479 1.67265 43.3356 1.29999 43.2041C0.839645 43.0288 0.22585 42.7877 0.0504798 42.3933C-0.102969 42.0646 0.116244 41.3852 0.40122 41.0565C1.16846 40.1361 2.08916 39.3252 2.8564 38.4048C3.22906 37.9665 3.55788 37.3748 3.64557 36.805C5.00468 27.9515 8.81898 20.369 15.2638 14.1233C15.5269 13.8823 15.8119 13.4878 16.0968 13.4659C16.5791 13.444 17.2806 13.4878 17.5217 13.8165C17.7629 14.1233 17.6752 14.8246 17.5436 15.2848C17.434 15.6135 17.0175 15.8546 16.7326 16.1395C11.9318 20.8512 8.68746 26.4832 6.95568 32.97C6.88991 33.2549 6.82415 33.5397 6.78031 33.8246C6.75838 33.9123 6.80223 34.0219 6.82415 34.1095C7.61331 33.3425 8.4244 32.5974 9.19164 31.8523C10.1123 30.9757 10.7481 30.9976 11.5591 31.9619C12.3045 32.8604 13.0279 33.7589 13.9266 34.8546C14.1239 34.2629 14.2555 33.8466 14.387 33.4302C18.1794 21.6182 28.9208 13.3782 40.8898 13.0934C42.9942 13.0495 43.1257 13.1591 43.3888 15.4163C45.5371 13.6851 47.5758 12.0414 49.3295 10.617C47.4004 8.44744 45.5152 6.34363 43.4326 3.99876C43.1915 5.57662 42.3366 5.79577 41.2405 5.81768C34.16 5.94917 27.6713 8.00915 21.7744 11.9538C21.5552 12.0853 21.3579 12.2387 21.1387 12.3702C20.4592 12.7646 19.8454 12.6331 19.4289 11.9757C19.0124 11.3183 19.2097 10.6608 19.8673 10.2664C21.8402 9.08297 23.7693 7.83383 25.8518 6.84767C30.2141 4.76578 34.8395 3.58239 39.6841 3.40707C40.6048 3.36324 40.9117 3.03452 40.8021 2.15793C40.7583 1.82921 40.7144 1.45666 40.824 1.19369C41.0213 0.755392 41.2844 0.22944 41.657 0.0541224C41.9858 -0.0992804 42.5996 0.0979517 42.9065 0.339013C43.893 1.14986 44.7479 2.1141 45.7125 2.94686C46.0413 3.23175 46.5016 3.49473 46.9181 3.58239C63.6221 6.43129 74.4731 15.8546 79.3835 31.9838C80.1507 34.4602 80.3042 37.1338 80.633 39.7416C80.7426 40.6182 80.9838 41.0126 81.8825 40.8812C82.1675 40.8373 82.4963 40.7935 82.7594 40.9031C83.1978 41.0784 83.7897 41.2975 83.9431 41.6701C84.0966 42.0207 83.9212 42.7001 83.6362 43.0288C82.869 43.9711 81.9483 44.7601 81.1811 45.6805C80.8303 46.0969 80.5234 46.6666 80.4357 47.1926C79.1424 55.9804 75.3938 63.519 69.0805 69.7647C68.116 70.707 67.4145 70.8604 66.8445 70.2687C66.2527 69.677 66.4061 68.932 67.3487 68.0115C72.0399 63.4095 75.2623 57.9308 77.016 51.5974C77.1695 51.0277 77.2571 50.4798 77.3887 49.8443ZM43.2134 68.6909C45.5809 68.2088 47.7292 67.9896 49.7679 67.3322C59.3913 64.1984 65.3978 57.624 67.9187 47.85C68.116 47.1268 68.0064 46.5351 67.4803 45.9435C66.6473 45.023 65.8581 44.0588 65.1566 43.0288C64.8936 42.6343 64.762 41.955 64.9155 41.5605C65.047 41.2099 65.6827 40.9688 66.1431 40.9031C66.8884 40.7935 67.6556 40.8812 68.4667 40.8812C68.4667 40.4648 68.5106 40.2018 68.4667 39.9827C67.8748 37.3967 67.5679 34.6793 66.5815 32.2468C63.1179 23.7001 56.7169 18.4405 47.795 16.1833C47.0716 16.008 46.4797 16.0957 45.9097 16.6216C45.0548 17.4105 44.1341 18.1556 43.1696 18.8131C42.7312 19.098 41.9858 19.3829 41.6351 19.1856C41.2186 18.9446 40.9775 18.2433 40.8679 17.6954C40.7363 17.0818 40.8459 16.4025 40.8459 15.7012C40.4514 15.7012 40.2102 15.6793 39.9691 15.7012C36.7686 15.9423 33.6996 16.7093 30.806 18.1118C23.0678 21.9031 18.2451 28.0172 16.1845 36.3448C16.0092 37.0899 16.1188 37.6597 16.6449 38.2295C17.456 39.128 18.2232 40.0703 18.8808 41.0565C19.1439 41.4509 19.2754 42.1303 19.122 42.5248C18.9904 42.8754 18.3328 43.1165 17.8944 43.1822C17.1929 43.2918 16.4695 43.2041 15.7023 43.2041C15.7023 43.7301 15.6365 44.1026 15.7023 44.4533C16.2284 46.7981 16.5133 49.2307 17.3683 51.444C20.788 60.2099 27.2328 65.6009 36.3302 67.88C37.0316 68.0554 37.5797 67.9458 38.1277 67.4417C39.0265 66.6309 39.9691 65.8639 40.9555 65.1845C41.3501 64.9216 42.0735 64.6805 42.4023 64.8558C42.7969 65.075 43.06 65.7324 43.1696 66.2584C43.3011 66.9596 43.2134 67.6609 43.2134 68.6909ZM80.085 43.4014C78.3313 43.2699 78.3094 42.2837 78.2655 41.2537C78.1998 40.0046 78.1559 38.7774 77.9805 37.5501C76.0515 24.3137 68.9928 14.8246 56.98 9.06105C54.7659 8.00915 52.3546 7.37362 50.0529 6.54087C50.009 6.65044 49.9652 6.76001 49.9213 6.86959C50.6886 7.65851 51.4777 8.46936 52.245 9.25829C53.1218 10.1787 53.0999 10.8142 52.1135 11.6251C51.2147 12.3702 50.3159 13.0934 49.2856 13.9042C49.7021 14.0576 49.9652 14.1672 50.2282 14.2329C55.5989 15.8765 60.1805 18.7473 63.8633 22.9769C68.4886 28.3021 70.8561 34.5259 71.0096 41.6043C71.0315 42.8754 70.6808 43.226 69.4313 43.3137C69.234 43.3356 69.0367 43.3575 68.664 43.4014C70.4177 45.5709 72.0399 47.609 73.4867 49.3841C75.6131 47.4775 77.7175 45.5709 80.085 43.4014ZM34.0503 77.4568C34.0723 77.3691 34.0942 77.3034 34.1161 77.2157C33.3489 76.4049 32.5597 75.594 31.7925 74.7832C30.9375 73.9066 30.9594 73.2711 31.9021 72.4821C32.8228 71.7151 33.7654 70.97 34.8176 70.1153C34.2038 69.9181 33.7435 69.7647 33.305 69.6332C27.7809 67.8362 23.1555 64.7243 19.4946 60.188C15.3954 55.0819 13.3128 49.2307 13.0936 42.722C13.0279 41.1661 13.3567 40.8592 14.8692 40.7278C15.0008 40.7278 15.1104 40.6839 15.3734 40.6182C13.6417 38.4706 11.9976 36.4325 10.6165 34.7231C8.44632 36.6735 6.34188 38.5582 4.04015 40.6401C5.55271 40.8373 5.83769 41.5824 5.85961 42.6782C6.14459 57.4048 15.1323 70.3783 28.8112 75.7474C30.521 76.4268 32.2966 76.9089 34.0503 77.4568Z" fill="#005453" fill-opacity="0.16"/>
<path d="M62 41.9848C62 44.7717 61.556 45.3026 58.7592 45.6564C57.9156 45.767 57.5605 46.0988 57.3385 46.8729C57.0721 47.7577 56.7392 48.6203 56.273 49.4165C55.8513 50.1243 55.9623 50.6109 56.4506 51.186C56.8502 51.6726 57.2497 52.1813 57.4939 52.7342C57.96 53.8623 57.5161 54.8133 56.6726 55.6096C55.5849 56.6049 54.7192 58.0647 52.8546 57.4675C52.6104 57.379 52.3441 57.2685 52.1887 57.0915C50.99 55.7644 49.8357 56.0741 48.3041 56.7155C46.6393 57.4012 45.3518 58.0205 45.5072 60.0774C45.5072 60.2102 45.4184 60.365 45.3518 60.4977C44.2863 62.6431 42.3108 61.8469 40.6238 61.8911C39.4473 61.9354 38.4706 61.0506 38.4706 59.7678C38.4706 57.9762 37.4717 57.4896 36.0289 56.8482C34.3196 56.0741 32.9212 55.7202 31.5671 57.2685C31.545 57.2906 31.5006 57.3127 31.4784 57.3127C29.4806 58.2638 28.5039 56.7376 27.3718 55.6317C26.2397 54.5037 25.8624 53.3314 26.7281 52.4025C28.1487 50.8984 28.0821 49.505 27.0166 47.9567C26.9723 47.8904 26.9501 47.824 26.9501 47.7577C26.7281 46.2094 25.8846 45.5901 24.2863 45.5237C22.7769 45.4795 22.0444 44.4621 22 42.9359C22 42.7147 22 42.4936 22 42.2724C22 39.1537 22.333 38.7335 25.4184 38.3132C26.04 38.2248 26.3729 38.0036 26.5949 37.3843C26.9501 36.3447 27.4606 35.3494 27.838 34.3099C27.9489 33.956 27.9046 33.4915 27.7714 33.1376C27.616 32.7395 27.2608 32.4298 27.0166 32.0538C26.0622 30.7046 26.1287 29.6651 27.2608 28.4928C27.4384 28.3159 27.616 28.1168 27.8158 27.9399C29.8579 25.905 30.4795 25.8386 32.8102 27.586C33.4539 28.0726 33.9645 28.1168 34.697 27.7187C35.5183 27.2542 36.4284 26.9003 37.3607 26.6349C38.0488 26.4358 38.3374 26.0819 38.3596 25.3963C38.3818 24.9539 38.4484 24.5115 38.5372 24.0913C38.8036 22.8969 39.5805 22.0564 40.7125 22.1007C42.3774 22.1449 44.3751 21.3708 45.4184 23.5162C45.5072 23.7153 45.6182 23.9365 45.596 24.1355C45.4184 25.9713 46.5949 26.4801 48.0599 27.1215C49.7248 27.8735 51.0788 28.2716 52.4329 26.7234C52.4772 26.6791 52.566 26.6349 52.6326 26.6128C54.697 25.6838 55.6737 27.3205 56.8058 28.4265C57.8491 29.466 58.182 30.6825 57.3163 31.5893C55.9179 33.0491 56.1842 34.3099 56.9612 35.9687C57.6271 37.4064 58.1154 38.4238 59.9578 38.4681C61.4895 38.5344 62 39.6182 62 41.9848ZM28.9478 53.5084C30.1909 55.1894 30.1909 55.1894 31.7003 54.0834C31.9667 53.8844 32.2553 53.7074 32.4994 53.4863C33.1876 52.8891 33.8313 52.9112 34.6082 53.3757C35.4739 53.9065 36.4062 54.5922 37.3829 54.7028C39.869 55.0124 40.8679 56.3837 40.8901 58.7282C40.8901 58.9715 41.3341 59.3254 41.6448 59.3918C42.6437 59.6351 43.2653 59.2591 43.2653 58.1311C43.2653 57.6666 43.4206 57.18 43.465 56.7155C43.5316 55.8529 44.02 55.4769 44.8191 55.2115C46.4173 54.6585 47.9711 53.995 49.5028 53.2872C50.1909 52.9775 50.7458 52.9112 51.3452 53.3757C52.0777 53.9286 52.8324 54.4595 53.6759 55.0566C54.1643 54.57 54.6304 54.1056 55.141 53.5968C54.5194 52.7564 54.0089 52.0043 53.4539 51.2744C52.9878 50.6773 52.9878 50.1022 53.3652 49.4386C53.9201 48.4876 54.6526 47.5144 54.808 46.4748C55.1632 44.1303 56.3618 43.0686 58.6704 43.1129C59.3141 43.135 59.5139 42.7811 59.5583 42.1397C59.6027 41.2328 59.3585 40.7462 58.404 40.702C57.9379 40.6799 57.4495 40.525 56.9833 40.5029C55.9845 40.4366 55.5183 39.8836 55.2963 38.9325C55.03 37.8709 54.7414 36.765 54.1643 35.836C52.5882 33.2261 52.7214 33.6463 54.586 31.147C55.0744 30.4834 55.0522 30.0632 54.4084 29.5987C54.1421 29.3996 53.9201 29.1563 53.6315 28.8909C52.8546 29.466 52.0999 29.9747 51.3674 30.5277C50.768 30.9921 50.1909 30.97 49.525 30.594C48.5705 30.0411 47.5938 29.3112 46.5505 29.1563C44.2198 28.8025 43.1099 27.6302 43.1765 25.2857C43.1987 24.6664 42.8435 24.4452 42.1998 24.4231C41.2897 24.3788 40.8013 24.6 40.8013 25.5953C40.8013 26.104 40.6459 26.6128 40.5794 27.1215C40.4684 28.0062 40.0244 28.4486 39.1365 28.6919C38.0266 28.9794 36.8502 29.2227 35.9179 29.8199C33.2764 31.5009 33.4983 31.1027 31.212 29.4218C30.5683 28.9352 30.2131 28.9794 29.6582 29.5324C29.1032 30.1074 28.859 30.5055 29.5028 31.1691C29.9023 31.5893 30.1909 32.1202 30.5683 32.5847C31.0788 33.2261 30.99 33.8011 30.6349 34.5089C29.9245 36.0351 29.2808 37.6055 28.7037 39.1758C28.4595 39.8836 28.1265 40.326 27.3718 40.4366C26.6393 40.5251 25.8846 40.6135 25.1964 40.8126C24.9079 40.9011 24.5971 41.2771 24.5305 41.5646C24.3085 42.4714 24.5527 43.135 25.707 43.135C26.2619 43.135 26.7947 43.3119 27.3496 43.3783C28.1709 43.4889 28.4817 43.9755 28.7481 44.7275C29.303 46.2758 29.9245 47.8019 30.657 49.2838C31.0344 50.0358 31.0788 50.633 30.5461 51.3187C29.9245 52.0928 29.4362 52.8227 28.9478 53.5084Z" fill="#005453" fill-opacity="0.16"/>
<path d="M33 41.4965C33.1284 37.6566 35.6331 34.3129 39.2296 33.3205C42.9545 32.285 46.8078 33.8167 48.7773 37.0742C50.7254 40.3316 50.3186 44.452 47.7498 47.2564C45.1809 50.0609 41.092 50.7943 37.7525 49.0901C36.7035 48.5508 36.3396 47.882 36.7677 47.1701C37.3029 46.2857 38.0093 46.5014 38.8014 46.8897C41.092 48.0115 43.3184 47.7957 45.3093 46.1994C47.1932 44.6893 47.9424 42.5967 47.4286 40.2453C46.8935 37.7861 45.3307 36.2113 42.8903 35.5856C38.6944 34.507 34.6698 38.4764 35.6331 42.7262C35.6973 43.0066 35.783 43.2871 35.8472 43.5675C36.0399 44.301 35.8258 44.8834 35.0979 45.1207C34.3273 45.3796 33.7493 45.0344 33.5352 44.2363C33.3211 43.3302 33.1927 42.4242 33 41.4965Z" fill="#005453" fill-opacity="0.16"/>
</svg>
