<svg width="86" height="66" viewBox="0 0 86 66" fill="none" xmlns="http://www.w3.org/2000/svg">
<path d="M2.50938 20.278H3.20801L9.73808 2.5957C10.3084 1.04688 11.7912 0 13.4451 0H59.5549C61.1945 0 62.6916 1.04688 63.2619 2.5957L69.792 20.278H70.4906C71.8736 20.278 73 21.4109 73 22.802V24.824C73 26.2151 71.8736 27.348 70.4906 27.348H70.1199V50.9244C70.1199 51.5124 69.6352 52 69.0506 52C68.466 52 67.9812 51.5124 67.9812 50.9244V27.3624H51.1855C50.2445 27.3624 49.3605 26.9895 48.7047 26.3298L36.5 14.0541L24.2953 26.3298C23.6252 27.0039 22.7412 27.3624 21.8145 27.3624H5.01875V30.2162C5.01875 30.8042 4.53399 31.2918 3.94942 31.2918C3.36485 31.2918 2.88008 30.8042 2.88008 30.2162V27.3624H2.50938C1.12637 27.3624 0 26.2295 0 24.8384V22.802C0 21.4109 1.12637 20.278 2.50938 20.278ZM61.2516 3.34142C60.9949 2.62438 60.3105 2.15113 59.5549 2.15113H13.4451C12.6894 2.15113 12.0051 2.62438 11.7484 3.34142L5.48926 20.278H20.3459L34.0049 6.53944C34.675 5.86542 35.559 5.50689 36.4857 5.50689C37.4268 5.50689 38.3107 5.87976 38.9666 6.53944L52.6256 20.278H67.5107L61.2516 3.34142ZM2.13867 24.8384C2.13867 25.0392 2.30977 25.2113 2.50938 25.2113H21.8145C22.1852 25.2113 22.5273 25.0678 22.784 24.8097L35.7443 11.7595C35.9439 11.5587 36.2148 11.444 36.5 11.444C36.7852 11.444 37.0561 11.5587 37.2557 11.7595L50.216 24.7954C50.4727 25.0535 50.8291 25.1969 51.1855 25.1969H70.4906C70.6902 25.1969 70.8613 25.0248 70.8613 24.824V22.802C70.8613 22.6012 70.6902 22.4291 70.4906 22.4291H52.2121C51.927 22.4291 51.6561 22.3144 51.4564 22.1136L37.4838 8.05957C37.2271 7.80143 36.8707 7.65803 36.5143 7.65803C36.1436 7.65803 35.8014 7.80143 35.5447 8.05957L21.5721 22.1136C21.3725 22.3144 21.1016 22.4291 20.8164 22.4291H2.53789C2.33828 22.4291 2.16719 22.6012 2.16719 22.802L2.13867 24.8384Z" fill="#AF5BA0" fill-opacity="0.16"/>
<path d="M8.09914 57C7.49828 57 7 56.5189 7 55.9387V37.0613C7 36.4811 7.49828 36 8.09914 36H22.9009C23.5017 36 24 36.4811 24 37.0613V55.9245C24 56.5047 23.5017 56.9858 22.9009 56.9858H8.09914V57ZM9.19828 50.2925H14.4009V45.2689H9.19828V50.2925ZM16.5991 50.2925H21.8017V45.2689H16.5991V50.2925ZM9.19828 54.8774H21.8017V52.4292H9.19828V54.8774ZM9.19828 43.1462H14.4009V38.1226H9.19828V43.1462ZM16.5991 38.1226V43.1462H21.8017V38.1226H16.5991Z" fill="#AF5BA0" fill-opacity="0.16"/>
<path d="M33.063 41H39.937C40.5181 41 41 41.5032 41 42.1099V46.8901C41 47.4968 40.5181 48 39.937 48H33.063C32.4819 48 32 47.4968 32 46.8901V42.1099C32 41.5032 32.4677 41 33.063 41ZM34.126 45.7949H38.874V43.2347H34.126V45.7949Z" fill="#AF5BA0" fill-opacity="0.16"/>
<path d="M31 26.5C31 23.4598 33.4736 21 36.5 21C39.5264 21 42 23.4736 42 26.5C42 29.5264 39.5264 32 36.5 32C33.4736 32 31 29.5402 31 26.5ZM39.9271 26.5C39.9271 24.6068 38.3932 23.0729 36.5 23.0729C34.6068 23.0729 33.0729 24.6068 33.0729 26.5C33.0729 28.3932 34.6068 29.9271 36.5 29.9271C38.3932 29.9271 39.9271 28.3932 39.9271 26.5Z" fill="#AF5BA0" fill-opacity="0.16"/>
<path d="M1.06934 58.8568H2.88008V35.0845C2.88008 34.4916 3.36485 34 3.94942 34C4.53399 34 5.01875 34.4916 5.01875 35.0845V58.8568H27.3607V36.8631C27.3607 36.2702 27.8455 35.7786 28.4301 35.7786H44.5699C45.1545 35.7786 45.6393 36.2702 45.6393 36.8631V58.8568H67.9812V55.9792C67.9812 55.3864 68.466 54.8947 69.0506 54.8947C69.6352 54.8947 70.1199 55.3864 70.1199 55.9792V58.8568H71.9307C72.5152 58.8568 73 59.3484 73 59.9413V64.9155C73 65.5084 72.5152 66 71.9307 66H1.06934C0.484764 66 0 65.5084 0 64.9155V59.9557C0 59.3484 0.484764 58.8568 1.06934 58.8568ZM43.5006 50.9471H41.975C41.3904 50.9471 40.9057 50.4555 40.9057 49.8626C40.9057 49.2698 41.3904 48.7781 41.975 48.7781H43.5006V37.9476H29.5137V58.8568H43.5006V50.9471ZM2.13867 63.831H70.8613V61.0402H2.13867V63.831Z" fill="#AF5BA0" fill-opacity="0.16"/>
<circle cx="68.5" cy="41.5" r="17.5" fill="white"/>
<circle cx="68.5" cy="41.5" r="16.5" stroke="#AF5BA0" stroke-opacity="0.16" stroke-width="2"/>
<path d="M63.9167 44.142C63.6528 44.142 63.4444 44.058 63.2639 43.904C63.0972 43.75 63 43.54 63 43.288C63 43.022 63.0833 42.812 63.2639 42.658C63.4306 42.49 63.6528 42.42 63.9167 42.42H66.4444V44.142H63.9167ZM63.9167 46.634C63.6528 46.634 63.4444 46.564 63.2639 46.424C63.0972 46.284 63 46.116 63 45.92C63 45.71 63.0833 45.528 63.2639 45.402C63.4306 45.276 63.6528 45.206 63.9167 45.206H69.1111C69.3889 45.206 69.6111 45.276 69.7778 45.402C69.9444 45.528 70.0417 45.71 70.0417 45.92C70.0417 46.13 69.9583 46.298 69.7778 46.424C69.6111 46.564 69.3889 46.634 69.1111 46.634H63.9167ZM65.8889 49C65.625 49 65.4028 48.916 65.2361 48.734C65.0556 48.552 64.9722 48.328 64.9722 48.076V35.938C64.9722 35.658 65.0556 35.434 65.2361 35.266C65.4167 35.098 65.6389 35 65.8889 35H69.4444C70.3333 35 71.125 35.196 71.8056 35.588C72.4861 35.98 73.0278 36.526 73.4167 37.226C73.8056 37.926 74 38.724 74 39.634C74 40.502 73.8056 41.286 73.4167 41.958C73.0278 42.644 72.5 43.176 71.8056 43.554C71.1111 43.932 70.3333 44.128 69.4444 44.128H66.8194V48.048C66.8194 48.314 66.7361 48.538 66.5556 48.706C66.3889 48.916 66.1667 49 65.8889 49ZM66.8194 42.434H69.4444C69.9861 42.434 70.4722 42.308 70.8889 42.07C71.3056 41.832 71.625 41.496 71.8611 41.09C72.0972 40.67 72.2222 40.194 72.2222 39.662C72.2222 39.088 72.0972 38.584 71.8611 38.15C71.625 37.716 71.2917 37.366 70.8889 37.114C70.4722 36.862 70 36.736 69.4444 36.736H66.8194V42.434Z" fill="#AF5BA0" fill-opacity="0.16"/>
<path d="M58.5289 45.3776C58.3483 44.908 57.8304 44.6792 57.3608 44.8598C56.8911 45.0405 56.6623 45.5583 56.843 46.0279C57.7461 48.3521 59.3117 50.3391 61.3589 51.7601C63.4663 53.2293 65.935 54 68.5 54C75.4003 54 81 48.3882 81 41.5C81 34.6118 75.3882 29 68.5 29C61.6118 29 56 34.6238 56 41.512C56 42.0058 56.4094 42.4152 56.9032 42.4152C57.3969 42.4152 57.8064 42.0058 57.8064 41.512C57.8064 35.6113 62.6113 30.8184 68.5 30.8184C74.3887 30.8184 79.1936 35.6113 79.1936 41.512C79.1936 47.4128 74.4128 52.2057 68.512 52.2057C66.3083 52.2057 64.2009 51.5434 62.4066 50.2909C60.6363 49.0626 59.2996 47.3646 58.5289 45.3776Z" fill="#AF5BA0" fill-opacity="0.16"/>
</svg>
