<svg width="86" height="66" viewBox="0 0 86 66" fill="none" xmlns="http://www.w3.org/2000/svg">
<path d="M2.50938 20.3099H3.20801L9.73808 2.59978C10.3084 1.04853 11.7912 0 13.4451 0H59.5549C61.1945 0 62.6916 1.04853 63.2619 2.59978L69.792 20.3099H70.4906C71.8736 20.3099 73 21.4446 73 22.8379V24.8631C73 26.2564 71.8736 27.3911 70.4906 27.3911H70.1199V51.0046C70.1199 51.5935 69.6352 52.0818 69.0506 52.0818C68.466 52.0818 67.9812 51.5935 67.9812 51.0046V27.4054H51.1855C50.2445 27.4054 49.3605 27.032 48.7047 26.3713L36.5 14.0762L24.2953 26.3713C23.6252 27.0464 22.7412 27.4054 21.8145 27.4054H5.01875V30.2638C5.01875 30.8527 4.53399 31.341 3.94942 31.341C3.36485 31.341 2.88008 30.8527 2.88008 30.2638V27.4054H2.50938C1.12637 27.4054 0 26.2707 0 24.8775V22.8379C0 21.4446 1.12637 20.3099 2.50938 20.3099ZM61.2516 3.34668C60.9949 2.62851 60.3105 2.15452 59.5549 2.15452H13.4451C12.6894 2.15452 12.0051 2.62851 11.7484 3.34668L5.48926 20.3099H20.3459L34.0049 6.54973C34.675 5.87465 35.559 5.51556 36.4857 5.51556C37.4268 5.51556 38.3107 5.88901 38.9666 6.54973L52.6256 20.3099H67.5107L61.2516 3.34668ZM2.13867 24.8775C2.13867 25.0786 2.30977 25.2509 2.50938 25.2509H21.8145C22.1852 25.2509 22.5273 25.1073 22.784 24.8487L35.7443 11.778C35.9439 11.5769 36.2148 11.462 36.5 11.462C36.7852 11.462 37.0561 11.5769 37.2557 11.778L50.216 24.8344C50.4727 25.0929 50.8291 25.2366 51.1855 25.2366H70.4906C70.6902 25.2366 70.8613 25.0642 70.8613 24.8631V22.8379C70.8613 22.6368 70.6902 22.4644 70.4906 22.4644H52.2121C51.927 22.4644 51.6561 22.3495 51.4564 22.1484L37.4838 8.07225C37.2271 7.81371 36.8707 7.67008 36.5143 7.67008C36.1436 7.67008 35.8014 7.81371 35.5447 8.07225L21.5721 22.1484C21.3725 22.3495 21.1016 22.4644 20.8164 22.4644H2.53789C2.33828 22.4644 2.16719 22.6368 2.16719 22.8379L2.13867 24.8775Z" fill="#005453" fill-opacity="0.16"/>
<path d="M8.69824 57.2957C8.11367 57.2957 7.62891 56.8074 7.62891 56.2185V37.0577C7.62891 36.4688 8.11367 35.9804 8.69824 35.9804H23.0986C23.6832 35.9804 24.168 36.4688 24.168 37.0577V56.2041C24.168 56.793 23.6832 57.2814 23.0986 57.2814H8.69824V57.2957ZM9.76758 50.4875H14.8291V45.3885H9.76758V50.4875ZM16.9678 50.4875H22.0293V45.3885H16.9678V50.4875ZM9.76758 55.1412H22.0293V52.6564H9.76758V55.1412ZM9.76758 43.2339H14.8291V38.1349H9.76758V43.2339ZM16.9678 38.1349V43.2339H22.0293V38.1349H16.9678Z" fill="#005453" fill-opacity="0.16"/>
<path d="M33.0488 40.6198H39.9639C40.5484 40.6198 41.0332 41.1082 41.0332 41.6971V46.3365C41.0332 46.9254 40.5484 47.4137 39.9639 47.4137H33.0488C32.4642 47.4137 31.9795 46.9254 31.9795 46.3365V41.6971C31.9795 41.1082 32.45 40.6198 33.0488 40.6198ZM34.1182 45.2736H38.8945V42.7887H34.1182V45.2736Z" fill="#005453" fill-opacity="0.16"/>
<path d="M30.8246 27.0464C30.8246 23.8864 33.3767 21.3297 36.4992 21.3297C39.6217 21.3297 42.1738 23.9008 42.1738 27.0464C42.1738 30.192 39.6217 32.763 36.4992 32.763C33.3767 32.763 30.8246 30.2063 30.8246 27.0464ZM40.0352 27.0464C40.0352 25.0786 38.4525 23.4842 36.4992 23.4842C34.5459 23.4842 32.9633 25.0786 32.9633 27.0464C32.9633 29.0141 34.5459 30.6085 36.4992 30.6085C38.4525 30.6085 40.0352 29.0141 40.0352 27.0464Z" fill="#005453" fill-opacity="0.16"/>
<path d="M1.06934 58.9045H2.88008V35.291C2.88008 34.7021 3.36485 34.2137 3.94942 34.2137C4.53399 34.2137 5.01875 34.7021 5.01875 35.291V58.9045H27.3607V37.0577C27.3607 36.4688 27.8455 35.9804 28.4301 35.9804H44.5699C45.1545 35.9804 45.6393 36.4688 45.6393 37.0577V58.9045H67.9812V56.0461C67.9812 55.4572 68.466 54.9689 69.0506 54.9689C69.6352 54.9689 70.1199 55.4572 70.1199 56.0461V58.9045H71.9307C72.5152 58.9045 73 59.3928 73 59.9817V64.9227C73 65.5116 72.5152 66 71.9307 66H1.06934C0.484764 66 0 65.5116 0 64.9227V59.9961C0 59.3928 0.484764 58.9045 1.06934 58.9045ZM43.5006 51.0477H41.975C41.3904 51.0477 40.9057 50.5593 40.9057 49.9704C40.9057 49.3815 41.3904 48.8931 41.975 48.8931H43.5006V38.1349H29.5137V58.9045H43.5006V51.0477ZM2.13867 63.8455H70.8613V61.0733H2.13867V63.8455Z" fill="#005453" fill-opacity="0.16"/>
<circle cx="68.5" cy="41.5" r="17.5" fill="white"/>
<circle cx="68.5" cy="41.5" r="16.5" stroke="#005453" stroke-opacity="0.16" stroke-width="2"/>
<path d="M64.1094 43.9277C63.8496 43.9277 63.6445 43.8457 63.4668 43.6953C63.3027 43.5449 63.207 43.3398 63.207 43.0938C63.207 42.834 63.2891 42.6289 63.4668 42.4785C63.6309 42.3145 63.8496 42.2461 64.1094 42.2461H66.5977V43.9277H64.1094ZM64.1094 46.3613C63.8496 46.3613 63.6445 46.293 63.4668 46.1563C63.3027 46.0195 63.207 45.8555 63.207 45.6641C63.207 45.459 63.2891 45.2813 63.4668 45.1582C63.6309 45.0352 63.8496 44.9668 64.1094 44.9668H69.2227C69.4961 44.9668 69.7148 45.0352 69.8789 45.1582C70.043 45.2813 70.1387 45.459 70.1387 45.6641C70.1387 45.8691 70.0566 46.0332 69.8789 46.1563C69.7148 46.293 69.4961 46.3613 69.2227 46.3613H64.1094ZM66.0508 48.6719C65.791 48.6719 65.5723 48.5898 65.4082 48.4121C65.2305 48.2344 65.1484 48.0156 65.1484 47.7695V35.916C65.1484 35.6426 65.2305 35.4238 65.4082 35.2598C65.5859 35.0957 65.8047 35 66.0508 35H69.5508C70.4258 35 71.2051 35.1914 71.875 35.5742C72.5449 35.957 73.0781 36.4902 73.4609 37.1738C73.8437 37.8574 74.0352 38.6367 74.0352 39.5254C74.0352 40.373 73.8437 41.1387 73.4609 41.7949C73.0781 42.4648 72.5586 42.9844 71.875 43.3535C71.1914 43.7227 70.4258 43.9141 69.5508 43.9141H66.9668V47.7422C66.9668 48.002 66.8848 48.2207 66.707 48.3848C66.543 48.5898 66.3242 48.6719 66.0508 48.6719ZM66.9668 42.2598H69.5508C70.084 42.2598 70.5625 42.1367 70.9727 41.9043C71.3828 41.6719 71.6973 41.3438 71.9297 40.9473C72.1621 40.5371 72.2852 40.0723 72.2852 39.5527C72.2852 38.9922 72.1621 38.5 71.9297 38.0762C71.6973 37.6523 71.3691 37.3105 70.9727 37.0645C70.5625 36.8184 70.0977 36.6953 69.5508 36.6953H66.9668V42.2598Z" fill="#005453" fill-opacity="0.16"/>
<path d="M58.5289 45.3776C58.3483 44.908 57.8304 44.6792 57.3608 44.8598C56.8911 45.0405 56.6623 45.5583 56.843 46.0279C57.7461 48.3521 59.3117 50.3391 61.3589 51.7601C63.4663 53.2293 65.935 54 68.5 54C75.4003 54 81 48.3882 81 41.5C81 34.6118 75.3882 29 68.5 29C61.6118 29 56 34.6238 56 41.512C56 42.0058 56.4094 42.4152 56.9032 42.4152C57.3969 42.4152 57.8064 42.0058 57.8064 41.512C57.8064 35.6113 62.6113 30.8184 68.5 30.8184C74.3887 30.8184 79.1936 35.6113 79.1936 41.512C79.1936 47.4128 74.4128 52.2057 68.512 52.2057C66.3083 52.2057 64.2009 51.5434 62.4066 50.2909C60.6363 49.0626 59.2996 47.3646 58.5289 45.3776Z" fill="#005453" fill-opacity="0.16"/>
</svg>
