<svg width="72" height="72" viewBox="0 0 72 72" fill="none" xmlns="http://www.w3.org/2000/svg">
<path d="M51.5944 11.6129H50.5785C44.2362 11.6129 38.5761 14.5161 34.8317 19.0597V16.2581H36.5007C38.1407 16.2581 39.4759 14.9226 39.4759 13.2823C39.4759 12.7452 39.3308 12.2081 39.055 11.7435L32.945 1.55323C32.3644 0.595161 31.305 0 30.1875 0C29.0699 0 28.0105 0.595161 27.43 1.55323L21.3199 11.7435C21.0441 12.2081 20.899 12.7306 20.899 13.2823C20.899 14.9226 22.2342 16.2581 23.8742 16.2581H25.5432V32.5161H30.2165C30.2745 34.7226 30.6809 36.8855 31.4211 38.9323L18.5043 51.8516L11.538 46.0452L0 57.5855V67.3548H43.7573C45.0635 70.0984 47.85 72 51.0865 72C55.5711 72 59.2139 68.3565 59.2139 63.871V62.4919C60.5636 62.0129 61.536 60.7355 61.536 59.2258C61.536 58.6016 61.3618 58.021 61.0716 57.5129C62.0439 56.8887 62.697 55.8145 62.697 54.5806C62.697 53.5645 62.2616 52.6645 61.565 52.0258C61.6231 50.9661 62.0875 49.9645 62.8857 49.2677L65.1498 47.2645C69.5037 43.3887 72 37.8435 72 32.0226C71.9855 20.7581 62.8422 11.6129 51.5944 11.6129ZM23.8742 13.9355C23.5114 13.9355 23.2211 13.6452 23.2211 13.2823C23.2211 13.1661 23.2502 13.05 23.3082 12.9484L29.4183 2.75806C29.7376 2.22097 30.6229 2.22097 30.9422 2.75806L37.0522 12.9484C37.1103 13.05 37.1393 13.1661 37.1393 13.2823C37.1393 13.6452 36.849 13.9355 36.4862 13.9355H32.5096V22.5871C31.305 24.8952 30.5213 27.4645 30.2745 30.1935H27.8654V13.9355H23.8742ZM34.8317 44.9129V65.0323H30.1875V43.4468L32.4225 41.2113C33.0901 42.5323 33.8883 43.7661 34.8317 44.9129ZM27.8654 65.0323H23.2211V50.4145L27.8654 45.7694V65.0323ZM18.6495 54.9871L20.899 52.7371V65.0323H16.2548V52.9984L18.6495 54.9871ZM11.6831 49.1806L13.9327 51.0532V65.0323H9.28845V51.5758L11.6831 49.1806ZM2.32211 58.5435L6.96634 53.8984V65.0323H2.32211V58.5435ZM37.1538 65.0323V47.3661L39.2872 49.2677C40.0855 49.979 40.5499 50.9806 40.6079 52.0258C39.9113 52.6645 39.4759 53.5645 39.4759 54.5806C39.4759 55.8145 40.129 56.9032 41.1014 57.5129C40.8111 58.021 40.637 58.6016 40.637 59.2258C40.637 60.7355 41.6094 62.0129 42.9591 62.4919V63.871C42.9591 64.2629 43.0026 64.6548 43.0462 65.0323H37.1538ZM60.3749 54.5806C60.3749 55.2194 59.8525 55.7419 59.2139 55.7419H58.0528H44.1201H42.9591C42.3205 55.7419 41.798 55.2194 41.798 54.5806C41.798 53.9419 42.3205 53.4194 42.9591 53.4194H59.2139C59.8525 53.4194 60.3749 53.9419 60.3749 54.5806ZM51.0865 69.6774C47.8791 69.6774 45.2812 67.079 45.2812 63.871V62.7097H56.8918V63.871C56.8918 67.079 54.2939 69.6774 51.0865 69.6774ZM58.0528 60.3871H44.1201C43.4816 60.3871 42.9591 59.8645 42.9591 59.2258C42.9591 58.5871 43.4816 58.0645 44.1201 58.0645H58.0528C58.6914 58.0645 59.2139 58.5871 59.2139 59.2258C59.2139 59.8645 58.6914 60.3871 58.0528 60.3871ZM63.5969 45.5226L61.3328 47.5258C60.2733 48.4694 59.5767 49.7323 59.3155 51.1113C59.2719 51.1113 59.2429 51.0968 59.1994 51.0968H42.9591C42.9155 51.0968 42.8865 51.1113 42.843 51.1113C42.5817 49.7323 41.8851 48.4694 40.8256 47.5258L38.5616 45.5226C34.7156 42.0823 32.5096 37.1613 32.5096 32.0081C32.5096 22.0355 40.6079 13.9355 50.5785 13.9355H51.5944C61.565 13.9355 69.6634 22.0355 69.6634 32.0081C69.6634 37.1613 67.4574 42.0823 63.5969 45.5226Z" fill="#D9112F" fill-opacity="0.16"/>
<path d="M65.2881 32C65.2542 32.8258 65.1525 33.6685 65 34.4775L67.661 35C67.8475 34.0393 67.9661 33.0618 68 32.0843L65.2881 32Z" fill="#D9112F" fill-opacity="0.16"/>
<path d="M60.9608 42.0978L58.6114 44.0251C58.009 44.514 57.4669 45.0726 57 45.6732L58.9428 47C59.3193 46.5251 59.741 46.0922 60.2229 45.7011L62.5723 43.7737C64.5452 42.1536 66.0663 40.0866 67 37.7961L64.741 37C63.9428 38.9553 62.6325 40.7151 60.9608 42.0978Z" fill="#D9112F" fill-opacity="0.16"/>
<path d="M35 31.8827L37.6966 32C37.7303 31.1788 37.8315 30.3408 38 29.5363L35.3539 29C35.1685 29.9385 35.0506 30.9274 35 31.8827Z" fill="#D9112F" fill-opacity="0.16"/>
<path d="M51 18.3498V16H50.4981C44.1453 16 38.3231 20.0828 36 26.1482L38.1367 27C40.1157 21.8304 45.0774 18.3498 50.4981 18.3498H51Z" fill="#D9112F" fill-opacity="0.16"/>
<path d="M8.04297 28.5H9.75V45H19.25V28.5H20.957C22.6344 28.5 24 27.1446 24 25.4799C24 24.9348 23.8516 24.3897 23.5695 23.9183L17.3203 13.5763C16.7266 12.604 15.643 12 14.5 12C13.357 12 12.2734 12.604 11.6797 13.5763L5.43047 23.9183C5.14844 24.3897 5 24.9201 5 25.4799C5 27.1446 6.36563 28.5 8.04297 28.5ZM7.46406 25.1263L13.7133 14.7991C14.0398 14.254 14.9453 14.254 15.2719 14.7991L21.5211 25.1411C21.5805 25.2442 21.6102 25.3621 21.6102 25.4799C21.6102 25.8482 21.3133 26.1429 20.9422 26.1429H16.875V42.6429H12.125V26.1429H8.04297C7.67188 26.1429 7.375 25.8482 7.375 25.4799C7.375 25.3621 7.40469 25.2295 7.46406 25.1263Z" fill="#D9112F" fill-opacity="0.16"/>
<path d="M45.158 35.105C44.8314 35.105 44.5493 35.005 44.3266 34.8195C44.1039 34.6339 44 34.3913 44 34.0772C44 33.7632 44.1039 33.5063 44.3266 33.3065C44.5493 33.1066 44.8165 33.0067 45.158 33.0067H48.3796V35.0907H45.158V35.105ZM45.158 38.131C44.8314 38.131 44.5493 38.0453 44.3266 37.8741C44.1039 37.7028 44 37.5029 44 37.2603C44 37.0034 44.1039 36.7893 44.3266 36.6322C44.5493 36.4752 44.8165 36.3896 45.158 36.3896H51.7646C52.106 36.3896 52.3881 36.4752 52.6108 36.6322C52.8335 36.7893 52.9374 37.0034 52.9374 37.2603C52.9374 37.5029 52.8335 37.717 52.6108 37.8741C52.3881 38.0453 52.106 38.131 51.7646 38.131H45.158ZM47.667 41C47.3404 41 47.0583 40.8858 46.8356 40.6717C46.6129 40.4576 46.4942 40.1864 46.4942 39.8724V25.1276C46.4942 24.7993 46.6129 24.5281 46.8356 24.314C47.0583 24.0999 47.3404 24 47.667 24H52.1951C53.3234 24 54.333 24.2427 55.2089 24.7137C56.0848 25.199 56.7678 25.8556 57.2577 26.712C57.7476 27.5542 58 28.539 58 29.6381C58 30.6944 57.7476 31.6364 57.2577 32.4643C56.7678 33.2922 56.0848 33.9345 55.2089 34.4055C54.333 34.8766 53.3234 35.105 52.1951 35.105H48.8399V39.8724C48.8399 40.1864 48.7359 40.4576 48.5133 40.6717C48.2906 40.8858 48.0085 41 47.667 41ZM48.8399 33.0067H52.1951C52.8929 33.0067 53.5016 32.864 54.0361 32.5642C54.5705 32.2788 54.9862 31.8791 55.2831 31.3652C55.5801 30.8514 55.7434 30.2804 55.7434 29.6238C55.7434 28.9244 55.5949 28.3107 55.2831 27.7825C54.9862 27.2544 54.5705 26.8405 54.0361 26.5264C53.5016 26.2267 52.8929 26.0697 52.1951 26.0697H48.8399V33.0067Z" fill="#D9112F" fill-opacity="0.16"/>
</svg>
