<svg width="84" height="79" viewBox="0 0 84 79" fill="none" xmlns="http://www.w3.org/2000/svg">
<g clip-path="url(#clip0)">
<path fill-rule="evenodd" clip-rule="evenodd" d="M3.91815 48.3584L22.7948 42.0902C23.3235 42.2428 23.9003 42.0511 24.2348 41.612L46.8917 34.0885C47.1543 34.0816 47.4117 33.9993 47.628 33.844L50.0682 33.0337L65.9523 41.0007L66.1778 41.6802L62.0473 43.0518C61.6964 42.5926 61.2323 42.2107 60.6845 41.936C58.7199 40.9505 56.306 41.7521 55.3203 43.7172C54.3347 45.6823 55.1357 48.0964 57.1004 49.0818C59.0651 50.0672 61.479 49.2657 62.4646 47.3006C62.7394 46.7527 62.8713 46.163 62.8899 45.591L67.0203 44.2195L67.2458 44.899L59.2771 60.7866L42.2368 66.445C41.5394 66.6766 41.1631 67.4269 41.3945 68.1243C41.6259 68.8217 42.3761 69.1979 43.0734 68.9664L60.6323 63.1358C60.972 63.0229 61.2404 62.7849 61.4017 62.4634L69.8662 45.5872C70.0275 45.2657 70.0459 44.9022 69.945 44.5684L69.5475 43.3704L70.7455 42.9725C71.4428 42.741 71.8192 41.9907 71.5878 41.2933C71.3564 40.5959 70.6062 40.2196 69.9089 40.4512L68.7109 40.849L68.3133 39.6509C68.2006 39.3111 67.9626 39.0427 67.6411 38.8815L66.3313 38.2245L50.7687 30.4188C50.4472 30.2576 50.0838 30.2393 49.7501 30.3402L47.0136 31.2475L42.2067 27.2394L31.282 31.6371L28.7656 27.6917L20.7969 28.9544L33.03 4.56465C33.8133 3.00298 35.7027 2.372 37.2588 3.15247L79.5833 24.3811C81.1394 25.1616 81.7635 27.0533 80.9802 28.615L66.4955 57.4939C66.1641 58.1546 66.4316 58.9653 67.0899 59.2955C67.7482 59.6257 68.558 59.3553 68.8894 58.6946L83.3741 29.8157C84.8202 26.9326 83.6611 23.4194 80.7884 21.9785L38.4638 0.749901C35.5911 -0.690959 32.0821 0.480851 30.6361 3.36394L17.2488 30.0548L16.1513 32.2428C14.7053 35.1259 15.8644 38.6391 18.7371 40.08L19.395 40.41L17.1238 41.1642L13.5476 42.3517L3.06954 45.8311C1.85964 46.2229 0.875545 47.0857 0.302045 48.2291C-0.271425 49.3724 -0.374455 50.6772 0.029045 51.8931L7.89105 75.5868C8.29455 76.8028 9.14515 77.7809 10.3001 78.3602C11.4432 78.9336 12.7478 79.0364 13.9637 78.6326L31.7013 72.7426C32.3987 72.5111 32.775 71.7607 32.5436 71.0634C32.3122 70.3659 31.562 69.9897 30.8647 70.2213L13.1211 76.0934C12.5847 76.2715 12.0068 76.2351 11.4948 75.9783C10.9828 75.7215 10.6081 75.2801 10.4301 74.7437L2.56804 51.05C2.39004 50.5135 2.42664 49.9356 2.68344 49.4235C2.94034 48.9114 3.38175 48.5365 3.91815 48.3584ZM19.3463 31.8465L18.5452 33.4436C17.762 35.0052 18.3861 36.897 19.9422 37.6774L23.0021 39.2122L28.9608 37.2336L44.0973 32.2145L41.7788 30.2881L30.2474 34.9327L27.4737 30.5682L19.3463 31.8465ZM39.2731 15.14C37.9103 17.8572 39.0179 21.165 41.7236 22.5221C44.4407 23.885 47.737 22.8004 49.0999 20.0832C50.4627 17.366 49.3724 14.0524 46.6552 12.6896C43.938 11.3267 40.636 12.4228 39.2731 15.14ZM41.737 16.3758C42.4127 15.0287 44.0608 14.4721 45.4194 15.1535C46.778 15.8349 47.3174 17.4888 46.6418 18.8359C45.9661 20.183 44.318 20.7397 42.9594 20.0582C41.6123 19.3826 41.0614 17.7229 41.737 16.3758ZM58.3011 46.688C57.6462 46.3595 57.3792 45.5548 57.7077 44.8998C58.0363 44.2447 58.8409 43.9775 59.4958 44.306C59.7697 44.4434 59.9719 44.6641 60.0967 44.9204C60.1 44.9304 60.1027 44.9405 60.1051 44.9509C60.1077 44.9622 60.1099 44.9737 60.1122 44.9853V44.9854V44.9855C60.119 45.0205 60.126 45.0569 60.1441 45.0933C60.1738 45.1529 60.1916 45.2065 60.2094 45.2602C60.2627 45.5403 60.2325 45.8382 60.0951 46.1121C59.7606 46.7492 58.956 47.0164 58.3011 46.688ZM36.0632 58.8388C36.3796 58.9975 36.7371 59.0158 37.0654 58.917L41.0399 57.6022C41.7257 57.3753 42.0953 56.6385 41.867 55.9531C41.6387 55.2677 40.9004 54.8973 40.2145 55.1242L37.4711 56.0318L34.5736 47.3325C34.3453 46.6471 33.6069 46.2768 32.9211 46.5036C32.2352 46.7305 31.8656 47.4674 32.0939 48.1528L35.407 58.0998C35.5182 58.4045 35.7467 58.6801 36.0632 58.8388ZM49.0138 53.0449C49.7204 52.8099 50.4803 53.191 50.7145 53.8979C50.9487 54.6049 50.5671 55.3657 49.8665 55.6188L46.2789 56.812C45.9226 56.9204 45.5605 56.89 45.2469 56.7327C44.9333 56.5754 44.6862 56.3154 44.5661 55.9529L41.1673 45.6936C41.0653 45.3552 41.084 44.9868 41.2475 44.6607C41.4111 44.3346 41.6831 44.0932 42.0274 43.9787L45.627 42.8218C46.3336 42.5868 47.0935 42.9679 47.3277 43.6748C47.5619 44.3818 47.1803 45.1426 46.4737 45.3776L44.1725 46.1429L45.0193 48.6987L47.3204 47.9334C48.027 47.6983 48.7869 48.0795 49.0211 48.7864C49.2553 49.4933 48.8737 50.2541 48.1671 50.4891L45.866 51.2545L46.7127 53.8102L49.0138 53.0449ZM31.0428 60.5873C31.4888 61.1937 32.3453 61.3172 32.9517 60.8712C33.5581 60.4252 33.6816 59.5686 33.2357 58.9622L26.4059 49.6886C26.0516 49.2047 25.4399 49.0203 24.8767 49.1971C24.3135 49.3739 23.9334 49.9181 23.9449 50.5056L24.0158 62.0229C24.0213 62.5614 24.3267 63.0208 24.767 63.2416C24.9504 63.3337 25.1707 63.3829 25.3849 63.3831C26.1376 63.378 26.7503 62.7667 26.7451 62.014L26.7341 61.0899L30.4808 59.8461L31.0428 60.5873ZM26.7317 58.1953L26.7116 54.6948L28.7887 57.5125L26.7317 58.1953ZM14.0792 65.278C13.8392 64.5738 14.2171 63.8203 14.9251 63.5915L17.4788 62.7766C17.8237 62.6652 18.0952 62.4271 18.2572 62.1042C18.4192 61.7812 18.4476 61.4212 18.3307 61.0781C18.0906 60.3739 17.3249 59.9898 16.6169 60.2185C15.5821 60.5528 14.4846 60.4664 13.5122 59.9787C12.5398 59.491 11.8142 58.663 11.4634 57.6337C10.7432 55.521 11.8831 53.2484 14.007 52.5623L16.5667 51.7354C17.2747 51.5066 18.0405 51.8907 18.2805 52.5949C18.5206 53.2992 18.1426 54.0527 17.4346 54.2814L14.8749 55.1083C14.1669 55.3371 13.789 56.0906 14.0291 56.7948C14.146 57.1379 14.3899 57.4099 14.718 57.5745C15.0462 57.7391 15.4101 57.7719 15.755 57.6605L15.8821 57.6195C15.9153 57.6137 15.9456 57.6065 15.9758 57.5992H15.9759C16.0062 57.5919 16.0365 57.5846 16.0698 57.5789C18.0978 57.0841 20.2253 58.241 20.9085 60.2454C21.6287 62.3581 20.4888 64.6306 18.3649 65.3168L15.8052 66.1437C15.4481 66.249 15.0842 66.2162 14.7682 66.0577C14.4522 65.8992 14.2023 65.6392 14.0792 65.278ZM37.6409 68.58C37.2923 68.4052 36.8697 68.3778 36.4939 68.4914C36.1114 68.6184 35.8092 68.8863 35.6276 69.2483C35.4527 69.5969 35.4254 70.0195 35.5389 70.3953C35.6659 70.7779 35.9339 71.0801 36.2959 71.2616C36.6445 71.4365 37.0671 71.4638 37.4429 71.3503C37.8254 71.2233 38.1276 70.9554 38.3092 70.5933C38.484 70.2447 38.5114 69.8221 38.3978 69.4463C38.2641 69.0772 37.9895 68.7549 37.6409 68.58Z" fill="#D9112F" fill-opacity="0.16"/>
</g>
<defs>
<clipPath id="clip0">
<rect width="84" height="79" fill="white"/>
</clipPath>
</defs>
</svg>
