<svg width="20" height="20" viewBox="0 0 20 20" fill="none" xmlns="http://www.w3.org/2000/svg">
<path d="M19.7784 3.21979C19.4822 2.9272 19.0016 2.92669 18.7054 3.21855L9.6017 12.1721L6.31712 8.6543C6.0333 8.3505 5.55344 8.3308 5.24485 8.61063C4.9365 8.89051 4.91676 9.36393 5.20057 9.66801L9.02015 13.7586C9.16003 13.9085 9.3558 13.9955 9.56222 13.9998C9.56776 14 9.57311 14 9.57842 14C9.77902 14 9.972 13.9214 10.1142 13.7817L19.7769 4.27813C20.0739 3.98632 20.0744 3.51239 19.7784 3.21979Z" fill="#AD1453"/>
<path d="M19.2462 9.24621C18.8299 9.24621 18.4925 9.58363 18.4925 10C18.4925 14.6829 14.6829 18.4925 10 18.4925C5.31734 18.4925 1.50754 14.6829 1.50754 10C1.50754 5.31734 5.31734 1.50754 10 1.50754C10.4163 1.50754 10.7538 1.17012 10.7538 0.753789C10.7538 0.337422 10.4163 0 10 0C4.48594 0 0 4.48594 0 10C0 15.5138 4.48594 20 10 20C15.5138 20 20 15.5138 20 10C20 9.58367 19.6626 9.24621 19.2462 9.24621Z" fill="#AD1453"/>
</svg>
