<svg width="58" height="77" viewBox="0 0 58 77" fill="none" xmlns="http://www.w3.org/2000/svg">
<path d="M57.6839 75.03L44.6561 62.0071C39.0535 54.8833 48.4061 50.5971 41.4589 35.5132C40.2487 32.0484 38.6502 27.5381 38.6352 27.5082C37.7537 24.9843 36.0655 22.8039 33.8544 21.2955V7.88422C33.8544 4.64342 31.3594 2 28.2966 2H5.55773C2.495 2 0 4.64342 0 7.88422V16.3223C0 16.9495 0.507965 17.4573 1.13545 17.4573C1.76294 17.4573 2.2709 16.9495 2.2709 16.3223V12.6334H31.5835V48.8497L26.3694 45.594V39.3364C26.3694 35.6327 24.218 32.4217 21.1104 30.8835C22.7688 29.7484 23.9341 27.9712 24.2479 25.9102H28.0576C28.6851 25.9102 29.193 25.4025 29.193 24.7752C29.193 24.148 28.6851 23.6402 28.0576 23.6402H24.2479C23.6951 20.1007 20.6323 17.3677 16.9272 17.3677C13.222 17.3677 10.1593 20.0858 9.60651 23.6402H5.79678C5.16929 23.6402 4.66132 24.148 4.66132 24.7752C4.66132 25.4025 5.16929 25.9102 5.79678 25.9102H9.60651C9.92026 27.9712 11.1005 29.7484 12.7439 30.8835C9.63639 32.4217 7.48501 35.6327 7.48501 39.3364V51.0003H2.25596V22.55C2.25596 21.9227 1.748 21.4149 1.12051 21.4149C0.493025 21.4149 0 21.9227 0 22.55V55.9735C0 59.2143 2.495 61.8578 5.55773 61.8578H9.92026C10.9959 64.1278 12.8336 65.92 15.1493 66.9654C22.4849 70.0568 23.471 72.6853 28.3415 76.6878C28.5207 77.1806 32.3454 76.9267 32.7189 76.9865C33.3464 76.9865 33.8544 76.4787 33.8544 75.8514C33.8544 75.2242 33.3464 74.7164 32.7189 74.7164H29.5367L22.47 68.3543C22.7987 67.7868 13.8495 64.6505 12.5049 61.8578C12.5049 61.8578 28.6552 61.8428 28.8195 61.8279L31.2548 64.0681C32.3305 65.0538 33.8693 63.396 32.7936 62.3954L29.955 59.7818L17.4053 48.1628C16.4939 47.2368 16.5238 45.7434 17.4202 44.8473C18.3614 43.9064 19.5716 44.0557 20.6174 44.7129L31.942 51.762C32.6592 52.4191 33.8544 51.9113 33.8544 50.9257V24.2077C35.0346 25.3278 35.946 26.7167 36.4838 28.2699C37.44 31.2718 41.3394 41.1435 41.6382 44.0707C43.1471 52.5685 37.3205 57.8553 43.0276 63.62L54.1281 74.7015H38.0974C37.4699 74.7015 36.9619 75.2093 36.9619 75.8365C36.9619 76.4638 37.4699 76.9715 38.0974 76.9715H56.8771C57.8632 76.9715 58.3711 75.732 57.6839 75.03ZM2.2709 10.3634V7.88422C2.2709 5.89792 3.73504 4.27005 5.55773 4.27005H28.3116C30.1193 4.27005 31.5984 5.88299 31.5984 7.86929V10.3484H2.2709V10.3634ZM16.9272 19.6377C19.3624 19.6377 21.4092 21.3552 21.9321 23.6402H11.9222C12.4451 21.3552 14.4919 19.6377 16.9272 19.6377ZM21.9321 25.9102C21.4092 28.1952 19.3624 29.9127 16.9272 29.9127C14.4919 29.9127 12.4451 28.1952 11.9222 25.9102H21.9321ZM5.55773 59.5728C3.74998 59.5728 2.2709 57.9598 2.2709 55.9586V53.2704H19.5865L26.3992 59.5578H5.55773V59.5728ZM19.0786 41.8753C16.6134 41.8753 14.5069 43.9363 14.4471 46.3855C14.3874 48.4913 15.732 49.716 17.1363 51.0153H9.77085V39.3514C9.77085 35.4086 12.983 32.1828 16.9421 32.1828C20.8863 32.1828 24.1134 35.3937 24.1134 39.3514V44.2051C22.5746 43.2493 20.961 41.8753 19.0786 41.8753Z" fill="#0A95FA" fill-opacity="0.16"/>
<path d="M14.1386 55C13.5094 55 13 55.4474 13 56C13 56.5526 13.5094 57 14.1386 57H19.8614C20.4906 57 21 56.5526 21 56C21 55.4474 20.4906 55 19.8614 55H14.1386Z" fill="#0A95FA" fill-opacity="0.16"/>
<path d="M18.9271 6H15.0729C14.48 6 14 6.44737 14 7C14 7.55263 14.48 8 15.0729 8H18.9271C19.52 8 20 7.55263 20 7C20 6.44737 19.5059 6 18.9271 6Z" fill="#0A95FA" fill-opacity="0.16"/>
<path d="M25 6C24.4444 6 24 6.44444 24 7C24 7.55556 24.4444 8 25 8C25.5556 8 26 7.55556 26 7C26 6.44444 25.5432 6 25 6Z" fill="#0A95FA" fill-opacity="0.16"/>
<path d="M38.1046 4C38.3956 4 38.672 3.88489 38.8903 3.66907L40.6798 1.87055C41.1163 1.43891 41.1018 0.748275 40.6653 0.31663C40.2288 -0.115015 39.5304 -0.100627 39.0939 0.331018L37.3044 2.12954C36.6351 2.80578 37.1443 4 38.1046 4Z" fill="#0A95FA" fill-opacity="0.16"/>
<path d="M39.1122 13.6711C40.113 14.6803 41.6795 13.1376 40.6787 12.1284L38.8946 10.3262C38.4595 9.89369 37.7633 9.89369 37.3282 10.3118C36.8931 10.7443 36.8931 11.4364 37.3137 11.8689L39.1122 13.6711Z" fill="#0A95FA" fill-opacity="0.16"/>
<path d="M39 7C39 7.55263 39.5167 8 40.155 8H42.845C43.4833 8 44 7.55263 44 7C44 6.44737 43.4833 6 42.845 6H40.155C39.5167 6 39 6.44737 39 7Z" fill="#0A95FA" fill-opacity="0.16"/>
</svg>
