<svg width="18" height="11" viewBox="0 0 18 11" fill="none" xmlns="http://www.w3.org/2000/svg">
<path d="M14.7908 5.89062C14.5018 5.52934 14.5854 5.37106 14.7908 5.05107C14.7943 5.04763 17.1724 1.79953 17.4196 0.698479C17.5415 0.295907 17.4196 0.00344099 16.8312 0.00344099H14.8814C14.3834 0.00344099 14.1571 0.258059 14.0353 0.540203C14.0353 0.540203 13.0429 2.88682 11.6398 4.40764C11.1871 4.84806 10.9782 4.98914 10.731 4.98914C10.6091 4.98914 10.4211 4.84806 10.4211 4.44549V0.695039C10.4211 0.213329 10.2819 0 9.87099 0H6.80698C6.4971 0 6.30908 0.223651 6.30908 0.433539C6.30908 0.891163 7.01241 0.994386 7.08553 2.28124V5.06827C7.08553 5.67729 6.97411 5.79084 6.72342 5.79084C6.06187 5.79084 4.45326 3.4339 3.49924 0.736328C3.30774 0.213329 3.11972 0 2.61834 0H0.668511C0.111418 0 0 0.254618 0 0.536762C0 1.03568 0.661547 3.5268 3.08142 6.81619C4.69351 9.05958 6.96367 10.2776 9.02839 10.2776C10.2679 10.2776 10.4211 10.0058 10.4211 9.54129C10.4211 7.39769 10.3097 7.19468 10.9295 7.19468C11.2185 7.19468 11.7129 7.33575 12.8723 8.4196C14.1954 9.70301 14.4148 10.2776 15.1564 10.2776H17.1062C17.6633 10.2776 17.9419 10.0058 17.7817 9.47592C17.4057 8.35078 14.9022 6.04546 14.7908 5.89062Z" fill="#4B4A4A"/>
</svg>
