<svg width="30" height="24" viewBox="0 0 30 24" fill="none" xmlns="http://www.w3.org/2000/svg">
<path d="M20.6287 15.4687C19.4665 14.2197 18.0702 13.3111 16.5995 12.8163C18.0648 11.4691 18.9874 9.51986 18.9874 7.35484C18.9874 3.29937 15.7507 0 11.7722 0C7.79374 0 4.55696 3.29937 4.55696 7.35484C4.55696 9.51986 5.47958 11.4691 6.94489 12.8163C5.47413 13.3111 4.07778 14.2198 2.91563 15.4688C1.03547 17.4894 0 20.1068 0 22.8387V24H23.5443V22.8387C23.5443 20.1068 22.5088 17.4894 20.6287 15.4687ZM6.83544 7.35484C6.83544 4.58006 9.05005 2.32258 11.7721 2.32258C14.4942 2.32258 16.7088 4.58006 16.7088 7.35484C16.7088 10.1296 14.4942 12.3871 11.7721 12.3871C9.05005 12.3871 6.83544 10.1296 6.83544 7.35484ZM2.35875 21.6774C2.92418 17.6195 6.37776 14.7097 9.49366 14.7097H14.0506C17.1665 14.7097 20.6201 17.6195 21.1855 21.6774H2.35875Z" fill="white"/>
<path d="M26.5823 10.0645V6.58063H24.3038V10.0645H20.8861V12.3871H24.3038V15.871H26.5823V12.3871H30V10.0645H26.5823Z" fill="white"/>
</svg>
