<svg width="29" height="29" viewBox="0 0 29 29" fill="none" xmlns="http://www.w3.org/2000/svg">
<path d="M23.2701 4.61291L2.18588 10.5597C2.0085 10.6098 1.85062 10.7128 1.73334 10.8549C1.61605 10.9971 1.54495 11.1716 1.52954 11.3553C1.51413 11.539 1.55513 11.7229 1.64708 11.8827C1.73903 12.0424 1.87754 12.1702 2.0441 12.2491L11.7315 16.8379C11.9205 16.9274 12.0726 17.0795 12.1621 17.2685L16.7509 26.9559C16.8298 27.1225 16.9577 27.261 17.1174 27.3529C17.2771 27.4449 17.4611 27.4859 17.6447 27.4705C17.8284 27.4551 18.0029 27.384 18.1451 27.2667C18.2873 27.1494 18.3902 26.9915 18.4403 26.8141L24.3871 5.72991C24.4308 5.57504 24.4324 5.41132 24.3918 5.25561C24.3511 5.09991 24.2697 4.95785 24.156 4.84406C24.0422 4.73027 23.9001 4.64888 23.7444 4.60825C23.5887 4.56762 23.425 4.56923 23.2701 4.61291Z" stroke-width="2" stroke-linecap="round" stroke-linejoin="round"/>
<path d="M12.2109 15.2632L16.7899 10.6842" stroke-width="2" stroke-linecap="round" stroke-linejoin="round"/>
</svg>
