<svg width="76" height="76" viewBox="0 0 76 76" fill="none" xmlns="http://www.w3.org/2000/svg">
<g clip-path="url(#clip0)">
<path d="M29.7172 61.8984C29.0938 61.275 28.2477 60.9187 27.357 60.9187C26.4664 60.9187 25.6203 61.2601 24.9969 61.8984L23.4234 63.4718C23.1414 63.7539 22.7703 63.9023 22.3547 63.9023C21.9539 63.9023 21.568 63.7539 21.2859 63.4718L12.5281 54.714C11.9344 54.1203 11.9344 53.1703 12.5281 52.5914L14.1016 51.0179C15.4078 49.7117 15.4078 47.6039 14.1016 46.2976L8.92109 41.1171C7.61484 39.8109 5.50703 39.8109 4.20078 41.1171L2.62734 42.6906C-0.875781 46.1937 -0.875781 51.8789 2.62734 55.382L8.49063 61.2453C8.92109 61.6757 9.63359 61.6757 10.0641 61.2453C10.4945 60.8148 10.4945 60.1023 10.0641 59.6718L4.20078 53.8086C1.84062 51.4484 1.60312 47.7523 3.47344 45.125L10.2867 51.9382C9.54453 53.3484 9.76719 55.1296 10.9547 56.3023L19.7125 65.0601C20.4102 65.7578 21.3453 66.1437 22.3547 66.1437C22.9633 66.1437 23.557 65.9953 24.0914 65.7281L30.9047 72.5414C28.2773 74.4265 24.5812 74.189 22.2211 71.814L16.3578 65.9508C15.9273 65.5203 15.2148 65.5203 14.7844 65.9508C14.3539 66.3812 14.3539 67.0937 14.7844 67.5242L20.6477 73.3875C22.3992 75.139 24.7 76.0148 26.9859 76.0148C29.2867 76.0148 31.5875 75.139 33.3242 73.3875L34.8977 71.814C36.2039 70.5078 36.2039 68.4 34.8977 67.0937L29.7172 61.8984ZM7.34766 42.6757L12.5281 47.8562C12.9586 48.2867 12.9586 48.9992 12.5281 49.4296L11.7414 50.2164L4.9875 43.4625L5.77422 42.6757C6.20469 42.2453 6.91719 42.2453 7.34766 42.6757ZM33.3242 70.2258L32.5375 71.0125L25.7836 64.2586L26.5703 63.4718C26.7781 63.264 27.0602 63.1453 27.357 63.1453C27.6539 63.1453 27.9359 63.264 28.1438 63.4718L33.3242 68.6523C33.7547 69.0828 33.7547 69.7953 33.3242 70.2258Z" fill="#8E67FF"/>
<path d="M11.6228 62.789C12.0532 62.3586 12.7657 62.3586 13.1962 62.789C13.6267 63.2195 13.6267 63.932 13.1962 64.3625C12.7657 64.7929 12.0532 64.7929 11.6228 64.3625C11.1923 63.932 11.1923 63.2195 11.6228 62.789Z" fill="#8E67FF"/>
<path d="M45.9415 0C38.7422 0 31.8399 2.55313 26.3922 7.22891C25.9172 7.64453 25.8579 8.37187 26.2883 8.83203C26.6891 9.2625 27.3719 9.30703 27.8172 8.92109C32.8641 4.58672 39.2469 2.21172 45.9266 2.21172C61.2899 2.22656 73.7735 14.7102 73.7735 30.0586C73.7735 45.407 61.2899 57.8906 45.9415 57.8906C40.954 57.8906 36.0555 56.5547 31.7805 54.0164L31.5133 53.868H23.0969C22.5626 53.868 22.1321 53.4375 22.1321 52.9031V44.4867L21.9836 44.2195C19.4454 39.9445 18.1094 35.0461 18.1094 30.0586C18.1094 23.3789 20.4844 16.9961 24.8188 11.9492C25.2047 11.5039 25.1602 10.8211 24.7297 10.4203C24.2696 9.98984 23.5422 10.0344 23.1266 10.5242C18.4508 15.9719 15.8977 22.8594 15.8977 30.0734C15.8977 35.3578 17.293 40.5531 19.9204 45.1102V55.1445C19.9204 55.6789 20.3508 56.1094 20.8852 56.1094H30.9196C35.4766 58.7367 40.6571 60.132 45.9563 60.132C62.5219 60.1172 76 46.6242 76 30.0586C76 13.4781 62.5219 0 45.9415 0Z" fill="#8E67FF"/>
<path d="M45.9414 55.6641C60.0578 55.6641 71.5469 44.175 71.5469 30.0586C71.5469 15.9422 60.0578 4.45312 45.9414 4.45312C31.825 4.45312 20.3359 15.9422 20.3359 30.0586C20.3359 44.175 31.825 55.6641 45.9414 55.6641ZM33.3094 10.3906L33.8438 11.3258C34.1555 11.8602 34.8383 12.0383 35.3578 11.7266C35.8922 11.4148 36.0703 10.732 35.7586 10.2125L35.2242 9.27734C38.1187 7.77813 41.3695 6.87266 44.8133 6.70938V11.1328C44.8133 11.7414 45.318 12.2461 45.9266 12.2461C46.5352 12.2461 47.0398 11.7414 47.0398 11.1328V6.70938C50.4836 6.87266 53.7344 7.77813 56.6289 9.27734L56.0945 10.2125C55.7828 10.7469 55.9758 11.4297 56.4953 11.7266C57.0297 12.0383 57.7125 11.8453 58.0094 11.3258L58.5438 10.3906C61.3492 12.2016 63.7539 14.6063 65.5648 17.4117L64.6297 17.9461C64.0953 18.2578 63.9172 18.9406 64.2289 19.4602C64.5406 19.9945 65.2234 20.1727 65.743 19.8609L66.6781 19.3266C68.1773 22.2211 69.0828 25.4719 69.2461 28.9156H64.8672C64.2586 28.9156 63.7539 29.4203 63.7539 30.0289C63.7539 30.6375 64.2586 31.1422 64.8672 31.1422H69.2906C69.1273 34.5859 68.2219 37.8367 66.7227 40.7313L65.7875 40.1969C65.2531 39.8852 64.5703 40.0781 64.2734 40.5977C63.9617 41.132 64.1547 41.8148 64.6742 42.1117L65.6094 42.6461C63.7984 45.4516 61.3938 47.8563 58.5883 49.6672L58.0539 48.732C57.7422 48.1977 57.0594 48.0195 56.5398 48.3312C56.0055 48.643 55.8273 49.3258 56.1391 49.8453L56.6734 50.7805C53.7789 52.2797 50.5281 53.1852 47.0844 53.3484V48.9844C47.0844 48.3758 46.5797 47.8711 45.9711 47.8711C45.3625 47.8711 44.8578 48.3758 44.8578 48.9844V53.4078C41.4141 53.2445 38.1633 52.3391 35.2688 50.8398L35.8031 49.9047C36.1148 49.3703 35.9219 48.6875 35.4023 48.3906C34.868 48.0789 34.1852 48.2719 33.8883 48.7914L33.3539 49.7266C30.5484 47.9156 28.1437 45.5109 26.3328 42.7055L27.268 42.1711C27.8023 41.8594 27.9805 41.1766 27.6687 40.657C27.357 40.1227 26.6742 39.9445 26.1547 40.2563L25.2195 40.7906C23.7203 37.8961 22.8148 34.6453 22.6516 31.2016H27.0156C27.6242 31.2016 28.1289 30.6969 28.1289 30.0883C28.1289 29.4797 27.6242 28.975 27.0156 28.975H22.5922C22.7555 25.5312 23.6609 22.2805 25.1602 19.3859L26.0953 19.9203C26.6297 20.232 27.3125 20.0391 27.6094 19.5195C27.9211 18.9852 27.7281 18.3023 27.2086 18.0055L26.2734 17.4711C28.0992 14.6062 30.4891 12.2164 33.3094 10.3906Z" fill="#8E67FF"/>
<path d="M52.6211 13.3594C53.2297 13.3594 53.7344 13.8641 53.7344 14.4727C53.7344 15.0812 53.2297 15.5859 52.6211 15.5859C52.0125 15.5859 51.5078 15.0812 51.5078 14.4727C51.5078 13.8641 52.0125 13.3594 52.6211 13.3594Z" fill="#8E67FF"/>
<path d="M57.0742 15.5859C57.6828 15.5859 58.1875 16.0906 58.1875 16.6992C58.1875 17.3078 57.6828 17.8125 57.0742 17.8125C56.4656 17.8125 55.9609 17.3078 55.9609 16.6992C55.9609 16.0758 56.4656 15.5859 57.0742 15.5859Z" fill="#8E67FF"/>
<path d="M43.7891 33.3984H39.7219L43.1211 29.5391C43.3586 29.2719 43.5813 28.975 43.8188 28.6336C44.0563 28.2922 44.2492 27.9359 44.3977 27.5648C44.561 27.1789 44.6352 26.793 44.6352 26.4219C44.6352 25.5906 44.4719 24.8781 44.1602 24.2695C43.8485 23.6609 43.3883 23.1859 42.8094 22.8445C42.2305 22.518 41.5477 22.3398 40.7758 22.3398C40.0188 22.3398 39.3211 22.518 38.6977 22.8742C38.0891 23.2305 37.5992 23.7203 37.243 24.3289C36.8867 24.9375 36.7086 25.65 36.7086 26.4219C36.7086 26.7039 36.8125 26.9414 37.0203 27.1492C37.2281 27.357 37.4805 27.4609 37.7625 27.4609C38.0594 27.4609 38.3117 27.357 38.5196 27.1492C38.7125 26.9414 38.8164 26.7039 38.8164 26.4219C38.8164 26.0359 38.9055 25.6797 39.0688 25.368C39.2469 25.0562 39.4844 24.7891 39.7813 24.5961C40.0781 24.4031 40.4047 24.3141 40.7758 24.3141C41.1617 24.3141 41.4883 24.4031 41.7555 24.5664C42.0227 24.7297 42.2305 24.9672 42.3789 25.2789C42.5274 25.5906 42.6016 25.9766 42.6016 26.4219C42.6016 26.6891 42.5274 26.9711 42.3641 27.2828C42.186 27.6094 41.9485 27.9508 41.6367 28.3219L37.0203 33.725C36.8274 33.918 36.7383 34.1703 36.7383 34.4672C36.7383 34.7492 36.8422 35.0016 37.0352 35.2094C37.2281 35.4172 37.4953 35.5211 37.7922 35.5211H43.7891C44.086 35.5211 44.3383 35.4172 44.5461 35.2094C44.7539 35.0016 44.8578 34.7492 44.8578 34.4672C44.8578 34.1852 44.7539 33.9477 44.5461 33.7398C44.3531 33.5172 44.086 33.3984 43.7891 33.3984Z" fill="#8E67FF"/>
<path d="M55.3229 30.8899C55.1299 30.7563 54.8776 30.6969 54.6104 30.6969H53.8533V23.4235C53.8533 23.1266 53.7643 22.8743 53.5862 22.6813C53.408 22.4735 53.1557 22.3547 52.8588 22.3547C52.6807 22.3547 52.5174 22.3993 52.369 22.4883C52.2354 22.5625 52.1018 22.6665 51.9979 22.8L45.7635 30.979C45.6151 31.1868 45.5409 31.4243 45.5705 31.6766C45.5854 31.929 45.6893 32.1516 45.8674 32.3446C46.0455 32.5375 46.2979 32.6415 46.6244 32.6415H51.8198V34.4672C51.8198 34.7493 51.9237 35.0016 52.1018 35.2094C52.2948 35.4172 52.5323 35.5211 52.8143 35.5211C53.1112 35.5211 53.3635 35.4172 53.5565 35.2094C53.7494 35.0016 53.8385 34.7493 53.8385 34.4672V32.6415H54.5955C54.8776 32.6415 55.1299 32.5524 55.3377 32.3594C55.5455 32.1665 55.6494 31.929 55.6494 31.6618C55.6643 31.2907 55.5455 31.0383 55.3229 30.8899ZM48.376 30.6821L51.8049 26.1696V30.6821H48.376Z" fill="#8E67FF"/>
</g>
<defs>
<clipPath id="clip0">
<rect width="76" height="76" fill="white"/>
</clipPath>
</defs>
</svg>
