<svg width="80" height="80" viewBox="0 0 80 80" fill="none" xmlns="http://www.w3.org/2000/svg">
<path d="M34.397 50H75.8486C78.1358 50 80 48.1395 80 45.8568C80 44.6685 79.0601 43.6992 77.8695 43.6679C78.0418 43.2458 78.1201 42.7924 78.1201 42.3233V38.4459C78.1201 37.8049 77.5875 37.2733 76.9452 37.2733C76.3029 37.2733 75.7703 37.8049 75.7703 38.4459V42.3233C75.7703 43.0738 75.1593 43.6679 74.423 43.6679H56.0627C55.3108 43.6679 54.7155 43.0582 54.7155 42.3233C54.7155 39.556 54.7155 31.9731 54.7155 29.0963C54.7155 28.3615 55.3265 27.7517 56.0627 27.7517H74.423C75.175 27.7517 75.7703 28.3615 75.7703 29.0963V32.9737C75.7703 33.6148 76.3029 34.1463 76.9452 34.1463C77.5875 34.1463 78.1201 33.6148 78.1201 32.9737V29.0963C78.1201 27.0638 76.4595 25.4065 74.423 25.4065H56.0627C56.0001 25.4065 55.9374 25.4065 55.8748 25.4065V24.6248C58.021 23.0926 59.4152 20.591 59.4152 17.7767V14.2276C60.2298 13.8211 60.8095 12.9769 60.8095 12.0075V6.48843C60.8095 4.48718 59.0706 3.01751 57.2847 3.15822C57.222 3.15822 57.1593 3.14259 57.1437 3.09568C56.7364 1.04753 55.3891 0 53.1489 0H45.88C42.5745 0 39.88 2.68918 39.88 5.98812V11.2727C39.88 12.7736 40.9296 14.04 42.3396 14.384V17.7767C42.3396 20.3721 43.6085 23.0144 45.88 24.6248V25.8286L36.4962 29.4872C36.4962 29.4872 36.4806 29.4872 36.4806 29.5028C34.3187 30.394 32.0002 32.9268 32.0002 36.3978V47.5922C31.9845 48.9212 33.0654 50 34.397 50ZM52.3656 29.3465C51.9113 29.4559 51.4414 29.5184 50.9714 29.5184C49.3578 29.5184 47.9322 28.9712 46.867 27.955C47.1176 27.8612 47.2429 27.8143 47.3996 27.7205C47.9166 27.3609 48.2142 26.8293 48.2142 26.1882V25.7974C49.8591 26.3133 51.786 26.3759 53.5406 25.813V26.2039C53.5406 26.2664 53.5406 26.329 53.5562 26.4071C52.6476 27.2358 52.3656 28.2208 52.3656 29.3465ZM77.6501 46.0131C77.5718 46.9356 76.8042 47.6548 75.8642 47.6548H54.6528C53.7129 47.6548 52.9296 46.9199 52.8669 46.0131H77.6501ZM43.0758 12.1482C42.6059 12.1482 42.2142 11.7573 42.2142 11.2883V5.98812C42.2142 3.97123 43.8591 2.34522 45.8644 2.34522H53.1333C54.4805 2.34522 54.6842 2.82989 54.8252 3.54909C55.0601 4.75297 56.1881 5.59725 57.4413 5.4878C57.8956 5.45654 58.4439 5.86304 58.4439 6.4728V11.9919C58.4439 12.3515 56.987 11.9919 56.987 10.8036C56.987 9.45904 55.1698 9.00563 54.5275 10.1939C53.8852 11.3821 52.6476 12.1326 51.3004 12.1326C49.5458 12.1482 44.5798 12.1482 43.0758 12.1482ZM44.6738 17.7767V14.4934H51.3317C52.8356 14.4934 54.2612 13.9306 55.3421 12.9612C55.7651 13.5553 56.3761 14.0244 57.0654 14.2745V17.7924C57.0654 21.1695 54.3082 23.8743 50.9714 23.8743C47.0393 23.8587 44.6738 20.7786 44.6738 17.7767ZM34.3344 36.3978C34.3344 33.8493 36.1359 32.1764 37.3422 31.6761L44.5328 28.8774C46.068 30.7849 48.3552 31.8637 50.9714 31.8637C51.4414 31.8637 51.9113 31.8168 52.3656 31.7386V42.3233C52.3656 42.7924 52.4596 43.2614 52.6163 43.6679C51.0027 43.7305 49.8278 45.4346 50.9087 47.6548H40.773C40.773 46.4509 40.773 37.6329 40.773 36.3508C40.773 35.7098 40.2403 35.1782 39.5981 35.1782C38.9558 35.1782 38.4231 35.7098 38.4231 36.3508V39.4622H34.3344V36.3978ZM34.3344 41.823H38.4231V47.6704H34.397C34.3657 47.6704 34.3344 47.6392 34.3344 47.6079V41.823Z" fill="#5D2352" fill-opacity="0.16"/>
<path d="M64.2295 35C63.5574 35 63 35.4533 63 36C63 36.5467 63.5574 37 64.2295 37H65.7705C66.4426 37 67 36.5467 67 36C67 35.4533 66.4426 35 65.7705 35H64.2295Z" fill="#5D2352" fill-opacity="0.16"/>
<path d="M2.41096 80H30.4188C31.0607 80 31.593 79.4684 31.593 78.8274C31.593 78.1864 31.0607 77.6548 30.4188 77.6548H22.6536C21.6986 77.6548 20.9315 76.9199 20.8689 76.0131H45.636C45.5577 76.9356 44.7906 77.6548 43.8513 77.6548H35.9139C35.272 77.6548 34.7397 78.1864 34.7397 78.8274C34.7397 79.4684 35.272 80 35.9139 80H43.8513C46.137 80 48 78.1395 48 75.8568C48 74.6685 47.0607 73.6992 45.8708 73.6679C46.0431 73.2458 46.1213 72.7924 46.1213 72.3233V59.0963C46.1213 57.0638 44.4618 55.4065 42.4266 55.4065H24.0783C24.0157 55.4065 23.953 55.4065 23.8904 55.4065V54.6248C26.0352 53.0926 27.4286 50.591 27.4286 47.7767V44.2276C28.2427 43.8211 28.8219 42.9769 28.8219 42.0075V36.4884C28.8219 34.4872 27.0842 33.0175 25.2994 33.1582C25.2368 33.1582 25.1742 33.1426 25.1585 33.0957C24.7515 31.0319 23.4051 30 21.1663 30H13.8865C10.5832 30 7.89041 32.6892 7.89041 35.9881V41.2727C7.89041 42.7736 8.93933 44.04 10.3483 44.384V47.7767C10.3483 50.3721 11.6164 53.0144 13.8865 54.6248V55.8286L4.50881 59.4872H4.49315C2.31703 60.394 0 62.9268 0 66.3978V77.5923C0 78.9212 1.08023 80 2.41096 80ZM20.3679 59.3465C19.9139 59.4559 19.4442 59.5184 18.9746 59.5184C17.362 59.5184 15.9374 58.9712 14.8728 57.955C15.1233 57.8612 15.2485 57.8143 15.4051 57.7205C15.9217 57.3609 16.2192 56.8293 16.2192 56.1882V55.7974C17.8943 56.329 19.8356 56.3602 21.5421 55.813V56.2039C21.5421 56.2664 21.5421 56.329 21.5577 56.4071C20.6654 57.2201 20.3679 58.2051 20.3679 59.3465ZM24.0783 57.7517H42.4266C43.1781 57.7517 43.773 58.3615 43.773 59.0963V72.3233C43.773 73.0738 43.1624 73.6679 42.4266 73.6679H24.0783C23.3268 73.6679 22.7319 73.0582 22.7319 72.3233C22.7319 69.556 22.7319 61.9731 22.7319 59.0963C22.7162 58.3458 23.3425 57.7517 24.0783 57.7517ZM11.0998 42.1326C10.6301 42.1326 10.2387 41.7417 10.2387 41.2727V35.9881C10.2387 33.9712 11.8826 32.3452 13.8865 32.3452H21.1507C22.4971 32.3452 22.7006 32.8299 22.8415 33.5491C23.0763 34.753 24.2035 35.5972 25.456 35.4878C25.91 35.4565 26.4579 35.863 26.4579 36.4728V42.0075C26.4579 42.3671 25.002 42.0075 25.002 40.8193C25.002 39.4434 23.1859 39.0369 22.544 40.2095C21.9022 41.3977 20.6654 42.1482 19.319 42.1482C17.5499 42.1326 12.6027 42.1326 11.0998 42.1326ZM12.681 47.7767V44.4778H19.3346C20.8376 44.4778 22.2622 43.9149 23.3425 42.9456C23.7652 43.5397 24.3757 44.0088 25.0646 44.2589V47.7767C25.0646 51.1851 22.1996 54.1245 18.411 53.843C14.8885 53.5616 12.681 50.6848 12.681 47.7767ZM2.34834 66.3978C2.34834 63.8493 4.14873 62.1764 5.35421 61.676L12.5401 58.8774C14.0744 60.7849 16.3601 61.8637 18.9746 61.8637C19.4442 61.8637 19.9139 61.8168 20.3679 61.7386V72.3233C20.3679 72.7924 20.4618 73.2614 20.6184 73.6679C20.2427 73.6836 19.82 73.8086 19.4755 74.0432C18.2387 74.8718 18.3327 76.4665 18.9119 77.6548H8.78278C8.78278 76.4509 8.78278 67.6329 8.78278 66.3508C8.78278 65.7098 8.25049 65.1782 7.60861 65.1782C6.96673 65.1782 6.43444 65.7098 6.43444 66.3508V69.4622H2.34834V66.3978ZM2.34834 71.8074H6.43444V77.6548H2.41096C2.37965 77.6548 2.34834 77.6235 2.34834 77.5923V71.8074Z" fill="#5D2352" fill-opacity="0.16"/>
<path d="M32.2295 67H33.7705C34.4426 67 35 66.5467 35 66C35 65.4533 34.4426 65 33.7705 65H32.2295C31.5574 65 31 65.4533 31 66C31 66.5467 31.541 67 32.2295 67Z" fill="#5D2352" fill-opacity="0.16"/>
<path d="M12.1926 28C12.8445 28 13.3852 27.4692 13.3852 26.8292V13.3416H36.8074C37.4594 13.3416 38 12.8108 38 12.1708C38 11.5308 37.4594 11 36.8074 11H12.1926C11.5406 11 11 11.5308 11 12.1708V26.8292C11 27.4848 11.5247 28 12.1926 28Z" fill="#5D2352" fill-opacity="0.16"/>
<path d="M67.8453 52C67.214 52 66.6905 52.5347 66.6905 53.1795V66.6411H50.1547C49.5235 66.6411 49 67.1758 49 67.8205C49 68.4653 49.5235 69 50.1547 69H67.8453C68.4765 69 69 68.4653 69 67.8205V53.1795C69 52.5347 68.4919 52 67.8453 52Z" fill="#5D2352" fill-opacity="0.16"/>
</svg>
