<svg width="63" height="77" viewBox="0 0 63 77" fill="none" xmlns="http://www.w3.org/2000/svg">
<path d="M63 70.7588V1.12793C63 0.511328 62.4895 0 61.8739 0H7.50715C6.89156 0 6.38108 0.511328 6.38108 1.12793V5.11328H1.12607C0.510486 5.11328 0 5.62461 0 6.24121V16.0918C0 17.5506 2.25215 17.5506 2.25215 16.0918V7.36914H6.38108V51.3283C6.38108 57.5695 10.8253 62.8934 16.9511 63.9762L54.3518 70.5783V74.7441H2.25215V22.4984C2.25215 21.0396 0 21.0396 0 22.4984V75.8721C0 76.4887 0.510486 77 1.12607 77H55.4929C56.1084 77 56.6189 76.4887 56.6189 75.8721V70.9693L61.6787 71.8566C62.1742 71.9469 63 71.6311 63 70.7588ZM8.63322 51.3283V2.25586H60.7479V68.7436L38.3615 55.0881C37.1153 54.3361 35.9442 56.2611 37.1904 57.0131L56.1835 68.6082L22.6566 62.6828C26.4852 60.457 28.0167 55.81 28.377 51.6291L32.0705 53.885C33.3167 54.6369 34.4878 52.7119 33.2417 51.96L27.8966 48.6965C26.9357 48.3506 26.3651 48.6814 26.1849 49.7041C26.3801 55.6295 22.2212 62.5625 17.3265 61.7504C12.2817 60.9082 8.63322 56.4717 8.63322 51.3283Z" fill="#005453" fill-opacity="0.16"/>
<path d="M17.5074 13.6855H51.8751C53.3615 13.6404 53.3615 11.4748 51.8751 11.4297H17.5074C16.021 11.4748 16.021 13.6254 17.5074 13.6855Z" fill="#005453" fill-opacity="0.16"/>
<path d="M17.5074 20.6336H51.8751C53.3615 20.5885 53.3615 18.4229 51.8751 18.3777H17.5074C16.021 18.4379 16.021 20.5885 17.5074 20.6336Z" fill="#005453" fill-opacity="0.16"/>
<path d="M17.5074 27.5967H51.8751C53.3615 27.5516 53.3615 25.3859 51.8751 25.3408H17.5074C16.021 25.3859 16.021 27.5365 17.5074 27.5967Z" fill="#005453" fill-opacity="0.16"/>
<path d="M17.5074 34.5448H51.8751C53.3615 34.4997 53.3615 32.334 51.8751 32.2889H17.5074C16.021 32.334 16.021 34.4997 17.5074 34.5448Z" fill="#005453" fill-opacity="0.16"/>
</svg>
