<svg width="73" height="74" viewBox="0 0 73 74" fill="none" xmlns="http://www.w3.org/2000/svg">
<path d="M62.9211 64.6199C62.3313 64.6199 61.8422 65.1113 61.8422 65.7039V71.4707C61.8422 71.673 61.684 71.832 61.4826 71.832H43.2852V68.5801C43.2852 67.1926 42.1488 66.0508 40.7678 66.0508H33.3306V54.1414C33.3306 52.7539 32.1942 51.6121 30.8132 51.6121H12.9036C15.2052 45.8164 20.8298 41.7117 27.4039 41.7117H30.4536C30.468 45.2238 33.3162 48.0711 36.8119 48.0711C40.3075 48.0711 43.1558 45.2238 43.1702 41.7117H46.2198C47.1692 41.7117 48.1043 41.7984 49.0249 41.9719C49.6147 42.073 50.1758 41.6828 50.2765 41.1047C50.3772 40.5121 49.9888 39.9484 49.4133 39.8473C48.3632 39.6594 47.2843 39.5582 46.2198 39.5582H43.1702V37.7371C47.2124 35.7715 50.0319 31.6234 50.0751 26.825H51.5711C53.4412 26.825 54.9517 25.3074 54.9517 23.4285V20.4223C54.9517 18.5434 53.4412 17.0258 51.5711 17.0258H51.5136V11.3023C51.5136 5.07305 46.4644 0 40.2499 0H33.3738C27.1594 0 22.1101 5.07305 22.1101 11.3023V17.0113H22.0958C20.2257 17.0113 18.7152 18.5289 18.7152 20.4078V23.4141C18.7152 25.293 20.2257 26.8105 22.0958 26.8105H23.563C23.6062 31.609 26.4113 35.757 30.468 37.7227V39.5438H27.4183C19.6359 39.5438 13.0187 44.6023 10.6163 51.6121H2.51742C1.13644 51.6266 0 52.7539 0 54.1559V58.1594C0 58.752 0.489099 59.2434 1.07889 59.2434C1.66869 59.2434 2.15779 58.752 2.15779 58.1594V54.1559C2.15779 53.9535 2.31603 53.7945 2.51742 53.7945H30.8132C31.0146 53.7945 31.1728 53.9535 31.1728 54.1559V71.832H2.15779V63.4781C2.15779 62.8855 1.66869 62.3941 1.07889 62.3941C0.489099 62.3941 0 62.8855 0 63.4781V72.916C0 73.5086 0.489099 74 1.07889 74H61.4826C62.8636 74 64 72.8582 64 71.4707V65.7039C64 65.1113 63.5253 64.6199 62.9211 64.6199ZM50.0895 19.1793H51.5855C52.2616 19.1793 52.8083 19.7285 52.8083 20.4078V23.4141C52.8083 24.0934 52.2616 24.6426 51.5855 24.6426H50.0895V19.1793ZM23.563 24.6426H22.1101C21.434 24.6426 20.8874 24.0934 20.8874 23.4141V20.4078C20.8874 19.7285 21.434 19.1793 22.1101 19.1793H23.563V24.6426ZM41.0267 41.6973C41.0267 44.0242 39.1423 45.9176 36.8263 45.9176C34.5102 45.9176 32.6258 44.0242 32.6258 41.6973V38.532C33.6327 38.8066 34.6828 38.9512 35.7761 38.9512H37.8908C38.984 38.9512 40.0342 38.8066 41.0411 38.532L41.0267 41.6973ZM24.57 17.0113H24.2679V11.3023C24.2679 6.2582 28.3533 2.16797 33.3738 2.16797H40.2499C45.2704 2.16797 49.3558 6.27266 49.3558 11.3023V17.0113H48.9962H47.9173C45.1841 17.0113 42.5516 16.1875 40.3075 14.6121L37.8332 12.8777C37.2147 12.4441 36.3947 12.4441 35.7761 12.8777L33.3019 14.6121C31.0578 16.1875 28.4253 17.0113 25.6921 17.0113H24.57ZM25.7208 26.6949V19.1793C28.9 19.1793 31.9496 18.2109 34.5534 16.3898L36.8263 14.8L39.0991 16.3898C41.7029 18.2109 44.7525 19.1793 47.9317 19.1793V26.6949C47.9317 32.2594 43.4291 36.7832 37.8764 36.7832H35.7617C30.2234 36.7832 25.7208 32.2594 25.7208 26.6949ZM41.1274 71.832H33.3306V68.2188H40.7678C40.9692 68.2188 41.1274 68.3777 41.1274 68.5801V71.832Z" fill="#005453" fill-opacity="0.16"/>
<path d="M39.9665 31.1914L40.4997 30.8814C40.9918 30.5984 41.1422 29.9784 40.8551 29.4932C40.568 29.0081 39.9392 28.8598 39.447 29.1428L38.9139 29.4528C37.7382 30.1401 36.2618 30.1401 35.0861 29.4528L34.553 29.1428C34.0608 28.8598 33.432 29.0081 33.1449 29.4932C32.8578 29.9784 33.0082 30.5984 33.5003 30.8814L34.0335 31.1914C34.9494 31.7305 35.9747 32 37 32C38.0253 32 39.0506 31.7305 39.9665 31.1914Z" fill="#005453" fill-opacity="0.16"/>
<path d="M21 63C21 60.8 19.2 59 17 59C14.8 59 13 60.8 13 63C13 65.2 14.8 67 17 67C19.2 67 21 65.2 21 63ZM15.3231 63C15.3231 62.0615 16.0769 61.3077 17.0154 61.3077C17.9538 61.3077 18.7077 62.0615 18.7077 63C18.7077 63.9385 17.9538 64.6923 17.0154 64.6923C16.0769 64.6923 15.3231 63.9231 15.3231 63Z" fill="#005453" fill-opacity="0.16"/>
<path d="M42 25C42.5467 25 43 24.5467 43 24C43 23.4533 42.5467 23 42 23C41.4533 23 41 23.4533 41 24C41 24.5467 41.44 25 42 25Z" fill="#005453" fill-opacity="0.16"/>
<path d="M32 23C31.4533 23 31 23.4533 31 24C31 24.5467 31.4533 25 32 25C32.5467 25 33 24.5467 33 24C33 23.44 32.56 23 32 23Z" fill="#005453" fill-opacity="0.16"/>
<path d="M72.1392 39.8595C70.8115 36.8723 68.2153 34.8076 65.0142 34.1925C64.2766 34.0461 63.5096 33.9875 62.7572 34.0022C62.6392 34.0022 62.5212 34.0022 62.3884 34.0168C58.9071 34.1779 55.8535 36.1108 54.2014 39.1859C52.5197 42.3195 52.6082 46.0096 54.4374 49.0408L60.9575 59.8035H58.081C57.4762 59.8035 56.9746 60.3014 56.9746 60.9018C56.9746 61.5021 57.4762 62 58.081 62H67.7432C68.348 62 68.8496 61.5021 68.8496 60.9018C68.8496 60.3014 68.348 59.8035 67.7432 59.8035H64.8814L71.4901 49.114C73.2455 46.3318 73.4816 42.8613 72.1392 39.8595ZM69.6314 47.9718L62.9342 58.7931L56.3403 47.9132C54.9094 45.541 54.8357 42.671 56.1486 40.2255C57.4319 37.8387 59.8069 36.3451 62.4917 36.2133C62.595 36.2133 62.6835 36.1987 62.7867 36.1987C62.831 36.1987 62.8752 36.1987 62.9195 36.1987C63.48 36.1987 64.0406 36.2572 64.5864 36.3597C67.0647 36.8283 69.0709 38.4391 70.1035 40.7527C71.1656 43.0956 70.9738 45.79 69.6314 47.9718Z" fill="#005453" fill-opacity="0.16"/>
<path d="M63 39C60.2388 39 58 41.2388 58 44C58 46.7612 60.2388 49 63 49C65.7612 49 68 46.7612 68 44C68 41.2388 65.7612 39 63 39ZM63 46.7463C61.4776 46.7463 60.2388 45.5075 60.2388 43.9851C60.2388 42.4627 61.4776 41.2239 63 41.2239C64.5224 41.2239 65.7612 42.4627 65.7612 43.9851C65.7612 45.5075 64.5224 46.7463 63 46.7463Z" fill="#005453" fill-opacity="0.16"/>
</svg>
