<svg width="66" height="66" viewBox="0 0 66 66" fill="none" xmlns="http://www.w3.org/2000/svg">
<g clip-path="url(#clip0)">
<path d="M65.5238 27.6008C65.2288 27.4267 64.8637 27.421 64.5637 27.5861L52.4892 34.2338V31.9174C52.4892 29.4629 50.4923 27.466 48.0378 27.466H45.5203C48.9252 25.2809 51.1859 21.4614 51.1859 17.1238C51.1859 14.9437 50.6069 12.802 49.5116 10.9303C49.2413 10.4684 48.6479 10.313 48.1863 10.5835C47.7246 10.8537 47.5694 11.4471 47.8396 11.9088C48.7614 13.4839 49.2485 15.2873 49.2485 17.124C49.2485 22.8267 44.6091 27.4661 38.9064 27.4661C33.2037 27.4661 28.5642 22.8267 28.5642 17.124C28.5642 11.4213 33.2037 6.7817 38.9064 6.7817C41.3351 6.7817 43.6952 7.64021 45.5519 9.19921C45.9618 9.54326 46.5726 9.49015 46.9166 9.0801C47.2607 8.67043 47.2074 8.05942 46.7976 7.71537C44.5924 5.86389 41.79 4.84424 38.9064 4.84424C32.9094 4.84424 27.9042 9.16595 26.8379 14.8582C25.2049 12.8768 22.733 11.6113 19.9708 11.6113C15.0655 11.6113 11.0749 15.6021 11.0749 20.5074C11.0749 23.3227 12.3909 25.8349 14.4384 27.4663C11.9862 27.469 9.99205 29.4647 9.99205 31.9175V32.0744H6.04804L1.38382 29.8648C0.769584 29.5514 -0.0199671 30.0511 0.000400065 30.7402V42.7611C-0.0203538 43.4505 0.770615 43.95 1.38382 43.6366L6.04804 41.4271H9.99218V56.7039C9.99218 59.1585 11.9891 61.1554 14.4436 61.1554H39.6674C40.2024 61.1554 40.6362 60.7217 40.6362 60.1866C40.6362 59.6516 40.2025 59.2179 39.6674 59.2179H14.4436C13.0573 59.2179 11.9295 58.0901 11.9295 56.7037V31.9175C11.9295 30.5313 13.0573 29.4035 14.4436 29.4035H48.0378C49.4241 29.4035 50.5519 30.5311 50.5519 31.9175V56.704C50.5519 58.0902 49.4241 59.2182 48.0378 59.2182H43.5421C43.0071 59.2182 42.5734 59.6518 42.5734 60.1869C42.5734 60.722 43.007 61.1556 43.5421 61.1556H48.0378C50.4923 61.1556 52.4892 59.1588 52.4892 56.7041V49.0152L64.5637 55.6629C65.1786 56.0266 66.0217 55.5285 65.9996 54.8144V28.4349C65.9996 28.0922 65.8186 27.7751 65.5238 27.6008ZM1.93773 32.271L4.86133 33.6561V39.8455L1.93773 41.2306V32.271ZM6.79879 39.4898V34.0117H9.99218V39.4898H6.79879ZM13.0122 20.5074C13.0122 16.6704 16.1338 13.5486 19.9708 13.5486C23.8078 13.5486 26.9296 16.6704 26.9296 20.5074C26.9296 24.3444 23.808 27.4661 19.9708 27.4661C16.1339 27.4661 13.0122 24.3444 13.0122 20.5074ZM25.5035 27.4661C26.8076 26.4271 27.8137 25.0308 28.3728 23.4257C29.3513 25.0552 30.6956 26.4409 32.2932 27.4661H25.5035ZM64.0623 53.1753L52.4894 46.8036V36.4456L64.0623 30.0739V53.1753Z" fill="#4B4A4A"/>
<path d="M33.9678 17.1238C33.9678 19.847 36.1832 22.0624 38.9063 22.0624C41.6293 22.0624 43.8448 19.847 43.8448 17.1238C43.8448 14.4007 41.6294 12.1853 38.9063 12.1853C36.1832 12.1853 33.9678 14.4007 33.9678 17.1238ZM41.9074 17.1238C41.9074 18.7786 40.5611 20.1249 38.9063 20.1249C37.2514 20.1249 35.9051 18.7786 35.9051 17.1238C35.9051 15.4691 37.2514 14.1226 38.9063 14.1226C40.5611 14.1228 41.9074 15.4691 41.9074 17.1238Z" fill="#4B4A4A"/>
<path d="M19.9708 23.9975C21.8953 23.9975 23.4609 22.4318 23.4609 20.5075C23.4609 18.5831 21.8953 17.0176 19.9708 17.0176C18.0465 17.0176 16.4808 18.5831 16.4808 20.5075C16.481 22.4319 18.0465 23.9975 19.9708 23.9975ZM19.9708 18.9549C20.827 18.9549 21.5235 19.6514 21.5235 20.5075C21.5235 21.3637 20.827 22.0601 19.9708 22.0601C19.1148 22.0601 18.4183 21.3637 18.4183 20.5075C18.4183 19.6514 19.1148 18.9549 19.9708 18.9549Z" fill="#4B4A4A"/>
<path d="M42.5734 46.8374V36.2698C42.5734 35.0235 41.5594 34.0095 40.3132 34.0095H29.8356C29.3006 34.0095 28.8668 34.4432 28.8668 34.9783C28.8668 35.5133 29.3005 35.947 29.8356 35.947H40.3132C40.4912 35.947 40.6361 36.0917 40.6361 36.2699V46.8375C40.6361 47.0157 40.4912 47.1604 40.3132 47.1604H22.1681C21.9901 47.1604 21.8452 47.0157 21.8452 46.8375V36.2699C21.8452 36.0917 21.9901 35.947 22.1681 35.947H25.9609C26.4958 35.947 26.9296 35.5133 26.9296 34.9783C26.9296 34.4432 26.496 34.0095 25.9609 34.0095H22.1681C20.9218 34.0095 19.9078 35.0235 19.9078 36.2698V46.8374C19.9078 48.0836 20.9218 49.0976 22.1681 49.0976H40.3132C41.5594 49.0976 42.5734 48.0836 42.5734 46.8374Z" fill="#4B4A4A"/>
<path d="M36.4519 52.4644C35.9169 52.4644 35.4833 52.898 35.4833 53.4331C35.4833 53.9682 35.9169 54.4018 36.4519 54.4018H38.8682C39.4032 54.4018 39.837 53.9682 39.837 53.4331C39.837 52.898 39.4033 52.4644 38.8682 52.4644H36.4519Z" fill="#4B4A4A"/>
<path d="M30.0325 52.4644C29.4975 52.4644 29.0637 52.898 29.0637 53.4331C29.0637 53.9682 29.4974 54.4018 30.0325 54.4018H32.4489C32.9839 54.4018 33.4177 53.9682 33.4177 53.4331C33.4177 52.898 32.984 52.4644 32.4489 52.4644H30.0325Z" fill="#4B4A4A"/>
<path d="M23.6129 52.4644C23.0779 52.4644 22.6442 52.898 22.6442 53.4331C22.6442 53.9682 23.0779 54.4018 23.6129 54.4018H26.0294C26.5643 54.4018 26.9981 53.9682 26.9981 53.4331C26.9981 52.898 26.5645 52.4644 26.0294 52.4644H23.6129Z" fill="#4B4A4A"/>
</g>
<defs>
<clipPath id="clip0">
<rect width="66" height="66" fill="white"/>
</clipPath>
</defs>
</svg>
