<svg width="32" height="32" viewBox="0 0 32 32" fill="none" xmlns="http://www.w3.org/2000/svg">
<rect x="0.5" y="0.5" width="31" height="31" rx="7.5" stroke="white"/>
<path d="M8.5625 9.21875C8.92494 9.21875 9.21875 8.92494 9.21875 8.5625C9.21875 8.20006 8.92494 7.90625 8.5625 7.90625C8.20006 7.90625 7.90625 8.20006 7.90625 8.5625C7.90625 8.92494 8.20006 9.21875 8.5625 9.21875Z" fill="white"/>
<path d="M16 9.21875C16.3624 9.21875 16.6562 8.92494 16.6562 8.5625C16.6562 8.20006 16.3624 7.90625 16 7.90625C15.6376 7.90625 15.3438 8.20006 15.3438 8.5625C15.3438 8.92494 15.6376 9.21875 16 9.21875Z" fill="white"/>
<path d="M23.4375 9.21875C23.7999 9.21875 24.0938 8.92494 24.0938 8.5625C24.0938 8.20006 23.7999 7.90625 23.4375 7.90625C23.0751 7.90625 22.7812 8.20006 22.7812 8.5625C22.7812 8.92494 23.0751 9.21875 23.4375 9.21875Z" fill="white"/>
<path d="M8.5625 16.6562C8.92494 16.6562 9.21875 16.3624 9.21875 16C9.21875 15.6376 8.92494 15.3438 8.5625 15.3438C8.20006 15.3438 7.90625 15.6376 7.90625 16C7.90625 16.3624 8.20006 16.6562 8.5625 16.6562Z" fill="white"/>
<path d="M16 16.6562C16.3624 16.6562 16.6562 16.3624 16.6562 16C16.6562 15.6376 16.3624 15.3438 16 15.3438C15.6376 15.3438 15.3438 15.6376 15.3438 16C15.3438 16.3624 15.6376 16.6562 16 16.6562Z" fill="white"/>
<path d="M23.4375 16.6562C23.7999 16.6562 24.0938 16.3624 24.0938 16C24.0938 15.6376 23.7999 15.3438 23.4375 15.3438C23.0751 15.3438 22.7812 15.6376 22.7812 16C22.7812 16.3624 23.0751 16.6562 23.4375 16.6562Z" fill="white"/>
<path d="M8.5625 24.0938C8.92494 24.0938 9.21875 23.7999 9.21875 23.4375C9.21875 23.0751 8.92494 22.7812 8.5625 22.7812C8.20006 22.7812 7.90625 23.0751 7.90625 23.4375C7.90625 23.7999 8.20006 24.0938 8.5625 24.0938Z" fill="white"/>
<path d="M16 24.0938C16.3624 24.0938 16.6562 23.7999 16.6562 23.4375C16.6562 23.0751 16.3624 22.7812 16 22.7812C15.6376 22.7812 15.3438 23.0751 15.3438 23.4375C15.3438 23.7999 15.6376 24.0938 16 24.0938Z" fill="white"/>
<path d="M23.4375 24.0938C23.7999 24.0938 24.0938 23.7999 24.0938 23.4375C24.0938 23.0751 23.7999 22.7812 23.4375 22.7812C23.0751 22.7812 22.7812 23.0751 22.7812 23.4375C22.7812 23.7999 23.0751 24.0938 23.4375 24.0938Z" fill="white"/>
</svg>
