<svg width="99" height="107" viewBox="0 0 99 107" fill="none" xmlns="http://www.w3.org/2000/svg">
<g clip-path="url(#clip0)">
<path d="M29.7338 83.84L14.3359 84.807" stroke="white" stroke-width="4" stroke-miterlimit="10" stroke-linecap="round" stroke-linejoin="round"/>
<path d="M14.3361 84.807L15.3015 69.3348L1.44824 62.469L9.99188 49.5594L1.44824 36.6981L15.3015 29.784L14.3361 14.3601L29.734 15.3272L36.6364 1.45052L49.476 10.0086L62.3639 1.45052L69.2181 15.3272L84.6642 14.3601L83.6988 29.784L97.5521 36.6981L88.9602 49.5594L97.5521 62.469L83.6988 69.3348L84.6642 84.807L69.2181 83.84" stroke="white" stroke-width="4" stroke-miterlimit="10" stroke-linecap="round" stroke-linejoin="round"/>
<path d="M33.3054 61.2603C30.6506 61.2603 28.4785 59.0845 28.4785 56.4252V44.1925C28.4785 41.5332 30.6506 39.3575 33.3054 39.3575C35.9602 39.3575 38.1323 41.5332 38.1323 44.1925V56.4252C38.1323 59.0845 35.9602 61.2603 33.3054 61.2603Z" stroke="white" stroke-width="4" stroke-miterlimit="10" stroke-linecap="round" stroke-linejoin="round"/>
<path d="M42.9592 57.5856C40.3044 57.5856 38.1323 55.4099 38.1323 52.7506V40.5179C38.1323 37.8586 40.3044 35.6828 42.9592 35.6828C45.614 35.6828 47.7861 37.8586 47.7861 40.5179V52.7506C47.7861 55.4099 45.614 57.5856 42.9592 57.5856Z" stroke="white" stroke-width="4" stroke-miterlimit="10" stroke-linecap="round" stroke-linejoin="round"/>
<path d="M52.613 58.9395C49.9582 58.9395 47.7861 56.7637 47.7861 54.1044V38.3421C47.7861 35.6828 49.9582 33.507 52.613 33.507C55.2678 33.507 57.44 35.6828 57.44 38.3421V54.1044C57.44 56.7637 55.2678 58.9395 52.613 58.9395Z" stroke="white" stroke-width="4" stroke-miterlimit="10" stroke-linecap="round" stroke-linejoin="round"/>
<path d="M66.4663 56.5219C65.6457 57.9724 64.0528 58.9878 62.2669 58.9878C59.6121 58.9878 57.4399 56.812 57.4399 54.1527V38.3421C57.4399 35.6828 59.6121 33.507 62.2669 33.507C64.9217 33.507 67.0938 35.6828 67.0938 38.3421V44.3376" stroke="white" stroke-width="4" stroke-miterlimit="10" stroke-linecap="round" stroke-linejoin="round"/>
<path d="M28.4787 50.333V67.3041C28.4787 67.3041 26.4032 81.7126 38.1326 81.7126C49.862 81.7126 51.0687 82.3412 51.0687 82.3412C51.0687 82.3412 57.0058 84.0334 62.7498 82.3412C68.4938 80.6489 71.1969 75.3303 71.1969 75.3303" stroke="white" stroke-width="4" stroke-miterlimit="10" stroke-linecap="round" stroke-linejoin="round"/>
<path d="M74.6241 70.3502C74.6241 70.3502 77.1823 68.658 78.1477 62.1306C79.1131 55.6033 78.1477 50.7682 78.1477 50.7682L62.7499 42.6453C62.7499 42.6453 57.1506 43.7574 57.9229 48.4474C58.6953 53.1374 68.5904 57.3922 68.5904 57.3922C68.5904 57.3922 62.6533 60.1482 58.8401 59.9548C55.0268 59.7614 52.3237 65.8536 52.3237 65.8536" stroke="white" stroke-width="4" stroke-miterlimit="10" stroke-linecap="round" stroke-linejoin="round"/>
<path d="M37.312 81.6643V105.404H64.1496V81.6643" stroke="white" stroke-width="4" stroke-miterlimit="10" stroke-linecap="round" stroke-linejoin="round"/>
</g>
<defs>
<clipPath id="clip0">
<rect width="99" height="107" fill="white"/>
</clipPath>
</defs>
</svg>
