<svg width="17" height="12" viewBox="0 0 17 12" fill="none" xmlns="http://www.w3.org/2000/svg">
<path d="M16.1661 2.00789L16.1666 2.00964C16.3328 2.62103 16.4194 3.60477 16.4617 4.47274C16.4824 4.89901 16.492 5.28457 16.4964 5.5636C16.4986 5.70299 16.4995 5.81551 16.4998 5.89288L16.5 5.98148L16.5 6.00402L16.5 6.00951L16.4999 6.01077L16.4999 6.01102V6.01337V6.0134V6.01366L16.4999 6.01492L16.4999 6.02041L16.4999 6.0429L16.4993 6.13118C16.4986 6.20827 16.4973 6.32036 16.4946 6.45923C16.4891 6.73719 16.4783 7.12136 16.4567 7.54631C16.4128 8.41001 16.3264 9.39217 16.1658 10.0066C16.0146 10.5695 15.5742 11.012 15.0202 11.1634C14.7383 11.238 14.2014 11.3022 13.513 11.3521C12.8373 11.4011 12.0556 11.434 11.3109 11.456C10.5669 11.478 9.86384 11.489 9.34647 11.4945C9.08788 11.4973 8.87593 11.4986 8.72877 11.4993L8.55893 11.4999L8.51474 11.5L8.50357 11.5L8.50081 11.5H8.50015H8.5L8.49997 12L8.49995 11.5H8.4998H8.49914L8.4964 11.5L8.48527 11.5L8.44121 11.4999L8.27182 11.4993C8.12502 11.4986 7.91358 11.4971 7.65556 11.4943C7.13931 11.4886 6.43758 11.4772 5.69462 11.4543C4.95085 11.4315 4.16985 11.3974 3.49385 11.3465C2.80393 11.2946 2.26539 11.228 1.98157 11.1505L1.98126 11.1504C1.42642 10.9994 0.985262 10.5564 0.834017 9.99287C0.673647 9.38598 0.587153 8.40422 0.543213 7.53798C0.521615 7.1122 0.510797 6.72678 0.505388 6.44775C0.502685 6.30835 0.501338 6.19579 0.500666 6.11835L0.500081 6.02965L0.50001 6.00705L0.500001 6.00154L0.5 6.00026L0.5 6.00003V6.00001V6V6V5.99997L0.5 5.99974L0.500001 5.99848L0.50001 5.99299L0.500081 5.9705L0.500666 5.88222C0.501338 5.80513 0.502685 5.69304 0.505387 5.55417C0.510796 5.27621 0.521613 4.89204 0.54321 4.46709C0.587111 3.6033 0.673534 2.62103 0.834168 2.00657C0.985714 1.44276 1.44026 0.987278 1.98092 0.836267C2.26306 0.761811 2.79948 0.697777 3.48691 0.64792C4.16264 0.598912 4.94432 0.566009 5.68906 0.543998C6.433 0.522011 7.13611 0.511004 7.65348 0.505499C7.91206 0.502747 8.12401 0.501372 8.27118 0.500685L8.44102 0.500085L8.48521 0.50001L8.49638 0.500001L8.49913 0.5L8.49979 0.5H8.49994L8.49997 0L8.5 0.5H8.50015L8.50081 0.5L8.50356 0.500001L8.51472 0.500011L8.55892 0.500088L8.72879 0.500711C8.87599 0.501424 9.088 0.502851 9.34664 0.505706C9.86414 0.511419 10.5674 0.522841 11.3113 0.545656C12.0561 0.568497 12.8376 0.602636 13.5128 0.653471C14.2024 0.70539 14.738 0.772021 15.0169 0.849079L15.0187 0.849563C15.5738 1.00071 16.0151 1.44398 16.1661 2.00789ZM6.30954 8.56722V9.43558L7.06055 8.99965L11.4833 6.43243L12.2279 6.00023L11.4835 5.56768L7.06075 2.99779L6.30954 2.56129V3.4301V8.56722Z" stroke="#4B4A4A"/>
</svg>
