<svg width="73" height="73" viewBox="0 0 73 73" fill="none" xmlns="http://www.w3.org/2000/svg">
<path d="M70.709 3.59367C68.412 2.15335 65.3588 2.88064 63.9178 5.20512C61.3497 9.32643 54.8866 11.8363 48.8088 12.3354C49.9787 11.0234 50.6778 9.29791 50.6778 7.41551C50.6778 3.32272 47.3535 0 43.2588 0C39.1641 0 35.8398 3.32272 35.8398 7.41551C35.8398 8.59914 36.1252 9.72573 36.6245 10.724L26.9656 8.52784C25.0538 8.10002 23.0849 8.85583 21.9292 10.4388L15.4661 19.3231C14.9953 19.9648 14.6957 20.7064 14.5816 21.4765C13.2262 21.9328 12.0991 22.931 11.5141 24.2715L11.186 25.0131L8.83186 23.9863C8.00435 23.6155 7.07698 23.6013 6.22094 23.9293C5.36491 24.2573 4.70861 24.899 4.33766 25.7404L0.285757 34.967C-0.470408 36.6925 0.328559 38.7033 2.04063 39.4448L16.8501 45.9191C17.2924 46.1188 17.7489 46.2043 18.2055 46.2043C19.518 46.2043 20.7736 45.4343 21.33 44.1651L25.3676 34.9242C26.1238 33.1987 25.3248 31.1879 23.6128 30.4464L21.9435 29.7191L22.2716 28.9775C22.6854 28.0221 22.7995 26.9525 22.5998 25.94C22.8851 25.6976 23.1562 25.4124 23.3845 25.0844L27.95 18.7955L31.417 19.5655L28.1069 32.1006C27.9928 32.5142 28.0784 32.9562 28.321 33.2985C28.4066 33.4126 28.4922 33.5124 28.6063 33.598L25.9098 40.1578C23.8838 44.5501 19.9461 47.6019 15.352 48.3292L6.8487 49.6411C3.5387 50.1688 1.2702 53.3632 1.75529 56.7857C2.19757 59.8375 4.77995 62.1334 7.76181 62.1334C8.07569 62.1334 8.38957 62.1049 8.68918 62.0621L17.1782 60.7501C21.3728 60.0799 26.0525 57.9265 30.3754 54.6609C34.0992 51.8515 37.1239 48.5573 39.0357 45.2061L47.3678 53.0494L53.5883 69.1069V69.1211C54.5299 71.4741 56.7414 73 59.2096 73C60.0229 73 60.8076 72.8289 61.5637 72.5009C64.6312 71.1746 66.1007 67.4954 64.8309 64.3296L58.0682 46.9031C57.7116 46.0189 57.1694 45.2346 56.4846 44.5929L46.954 34.4536C47.0967 34.2825 47.1966 34.0686 47.2394 33.8404L49.2796 23.259C49.3224 23.0166 49.5364 22.8455 49.7789 22.8455H49.7932C51.8192 22.8455 53.8594 22.603 55.8425 22.1467C56.613 21.9613 57.0838 21.1912 56.8983 20.4354C56.7128 19.6654 55.9567 19.1948 55.1862 19.3802C53.4171 19.7937 51.6052 20.0076 49.7932 20.0076H49.7789C48.1667 20.0076 46.7686 21.1627 46.4689 22.7457L44.6998 32.0721L31.3028 31.1594L34.57 18.8525C34.6699 18.4817 34.6128 18.0824 34.4131 17.7402C34.2133 17.3979 33.8852 17.1698 33.5 17.0842L27.6647 15.8007C27.1082 15.6724 26.5375 15.9006 26.2094 16.3569L21.0874 23.4016C20.7593 23.8437 20.2885 24.1432 19.7463 24.2288C19.2042 24.3143 18.662 24.186 18.2055 23.858C17.7632 23.53 17.4636 23.0594 17.378 22.5175C17.2924 21.9756 17.4208 21.4337 17.7489 20.9773L24.212 12.093C24.6971 11.4227 25.5246 11.109 26.3235 11.2944L41.5039 14.7455C45.456 15.6154 50.5494 15.3587 55.1292 14.0609C60.3082 12.5921 64.2888 9.98242 66.329 6.71674C66.9282 5.74702 68.2408 5.43329 69.1967 6.01797C69.6533 6.30318 69.9814 6.75952 70.0956 7.30143C70.224 7.85759 70.1241 8.41375 69.8245 8.88435C68.6974 10.6812 67.3562 12.3212 65.8154 13.733C65.2304 14.2606 65.2019 15.1733 65.7298 15.7437C66.0151 16.0432 66.4003 16.2 66.7713 16.2C67.1137 16.2 67.4704 16.0717 67.7414 15.815C69.4678 14.2178 70.9801 12.3925 72.2356 10.3817C73.6909 8.0715 73.0061 5.01973 70.709 3.59367ZM22.771 33.7834L18.7333 43.0242C18.6049 43.3094 18.2911 43.4378 18.0057 43.3094L3.18201 36.8494C2.89667 36.721 2.76826 36.4073 2.89667 36.1221L6.93431 26.8812C7.01991 26.6958 7.16258 26.6245 7.23392 26.5818C7.31953 26.5532 7.47647 26.5105 7.66194 26.596L22.4714 33.0703C22.7567 33.1844 22.8851 33.4981 22.771 33.7834ZM54.5442 46.6892C54.9294 47.0314 55.2433 47.4735 55.4288 47.9584L62.2057 65.3848C62.9048 67.1389 62.1201 69.1639 60.4509 69.8912C60.0657 70.0623 59.6519 70.1479 59.2382 70.1479C57.9398 70.1479 56.7842 69.335 56.2706 68.0658L49.9359 51.7232C49.8645 51.5235 49.7361 51.3524 49.5792 51.1955L39.6349 41.8263C39.3068 41.5126 38.8359 41.37 38.3794 41.4698C37.9228 41.5554 37.5519 41.8549 37.3521 42.2827C35.7542 45.7908 32.6582 49.3702 28.6634 52.3934C24.7684 55.3311 20.4169 57.3561 16.7359 57.9408L8.2469 59.2528C8.08996 59.2813 7.91875 59.2956 7.76181 59.2956C6.19241 59.2956 4.82275 58.0549 4.58021 56.4007C4.30913 54.5183 5.52185 52.7642 7.29099 52.4933L15.78 51.1813C21.33 50.2971 26.0953 46.6322 28.5064 41.3557C28.5207 41.3415 28.5207 41.3272 28.535 41.2987L31.5026 34.0686L43.4157 34.8814L54.4586 46.6322C54.4871 46.6322 54.5157 46.6607 54.5442 46.6892ZM19.8462 27.0951C19.8319 27.3518 19.7749 27.5943 19.6607 27.8367L19.3468 28.564L13.7826 26.1397L14.0965 25.4124C14.282 24.9846 14.6101 24.6281 14.9953 24.3856C15.3377 25.0987 15.8656 25.7119 16.5077 26.1825C17.5206 26.8955 18.7048 27.195 19.8462 27.0951ZM43.2445 2.83786C45.7698 2.83786 47.8101 4.89139 47.8101 7.40125C47.8101 9.91112 45.7556 11.9646 43.2445 11.9646C40.7335 11.9646 38.679 9.91112 38.679 7.40125C38.679 4.89139 40.7335 2.83786 43.2445 2.83786Z" fill="white"/>
<path d="M61.5 20C62.3284 20 63 19.3284 63 18.5C63 17.6716 62.3284 17 61.5 17C60.6716 17 60 17.6716 60 18.5C60 19.3284 60.6716 20 61.5 20Z" fill="white"/>
</svg>
