<svg width="140" height="137" viewBox="0 0 140 137" fill="none" xmlns="http://www.w3.org/2000/svg">
<path d="M138.645 64.3741C131.791 55.7927 121.537 47.4019 110.565 41.3541C97.3092 34.0258 83.2828 30.1573 70 30.1573C56.6907 30.1573 42.6376 34.053 29.3549 41.3813C18.4099 47.4292 8.20873 55.8199 1.35484 64.3741C-0.451613 66.6353 -0.451613 69.9044 1.35484 72.1655C8.28842 80.8287 18.6224 89.2739 29.6736 95.349C42.8766 102.568 56.797 106.382 70 106.382C83.4687 106.382 97.6547 102.432 111.017 94.9404C121.829 88.8925 131.898 80.5835 138.645 72.1655C140.452 69.9044 140.452 66.608 138.645 64.3741ZM135.564 69.5775C122.945 85.351 97.0437 102.296 70 102.296C42.9298 102.296 17.055 85.3237 4.43639 69.5775C3.82539 68.8147 3.82539 67.725 4.43639 66.9622C17.055 51.1887 42.9298 34.2437 70 34.2437C97.0437 34.2437 122.945 51.2159 135.564 66.9622C136.175 67.6977 136.175 68.8147 135.564 69.5775Z" fill="#005453" fill-opacity="0.16"/>
<path d="M43.5934 47.7019L48.1361 41.5723L41.2291 44.5962C25.9539 51.2434 15.0887 61.4049 9.96157 66.8534L8.6333 68.2701L9.96157 69.6867C18.8079 79.1126 29.8856 87.0402 41.2291 91.9439L48.1361 94.9406L43.5934 88.811C34.6143 76.7153 34.6143 59.7976 43.5934 47.7019ZM36.7395 85.2422C28.584 80.8562 20.8268 75.0262 14.212 68.2701C18.25 64.1837 26.1399 57.0188 36.7395 51.2979C34.1627 56.5557 32.861 62.2494 32.861 68.2701C32.8344 74.2634 34.1361 79.9572 36.7395 85.2422Z" fill="#005453" fill-opacity="0.16"/>
<path d="M98.7976 44.569L91.8906 41.5723L96.4333 47.7019C105.412 59.7976 105.412 76.7153 96.4333 88.8382L91.8906 94.9678L98.7976 91.9439C114.073 85.2967 124.938 75.1352 130.065 69.6867L131.393 68.27L130.065 66.8534C121.219 57.4002 110.115 49.4999 98.7976 44.569ZM107.192 68.27C107.192 62.2767 105.891 56.5557 103.314 51.2979C111.469 55.684 119.226 61.5139 125.841 68.27C121.803 72.3564 113.913 79.5213 103.314 85.2422C105.891 79.9571 107.192 74.2634 107.192 68.27Z" fill="#005453" fill-opacity="0.16"/>
<path d="M70.0272 38.3584C53.9551 38.3584 40.8584 51.789 40.8584 68.2708C40.8584 84.7526 53.9551 98.1832 70.0272 98.1832C86.0993 98.1832 99.1696 84.7526 99.1696 68.2708C99.1696 51.789 86.0993 38.3584 70.0272 38.3584ZM70.0272 94.0968C56.1335 94.0968 44.8432 82.5187 44.8432 68.2708C44.8432 54.0229 56.1335 42.4448 70.0272 42.4448C83.921 42.4448 95.2114 54.0229 95.2114 68.2708C95.1848 82.4915 83.8944 94.0968 70.0272 94.0968Z" fill="#005453" fill-opacity="0.16"/>
<path d="M70.0261 55.8196C63.3316 55.8196 57.8857 61.4043 57.8857 68.2695C57.8857 75.1346 63.3316 80.7194 70.0261 80.7194C76.7206 80.7194 82.1665 75.1346 82.1665 68.2695C82.1665 61.4043 76.7206 55.8196 70.0261 55.8196ZM70.0261 75.4888C66.121 75.4888 62.9598 72.2469 62.9598 68.2422C62.9598 64.2376 66.121 60.9957 70.0261 60.9957C73.9312 60.9957 77.0925 64.2376 77.0925 68.2422C77.0659 72.2469 73.9046 75.4888 70.0261 75.4888Z" fill="#005453" fill-opacity="0.16"/>
<path d="M70.0277 14.7927C71.4356 14.7927 72.5779 13.6213 72.5779 12.1775V2.61529C72.5779 1.17143 71.4356 0 70.0277 0C68.6197 0 67.4775 1.17143 67.4775 2.61529V12.1775C67.4775 13.6213 68.6197 14.7927 70.0277 14.7927Z" fill="#005453" fill-opacity="0.16"/>
<path d="M94.5989 20.4866C95.1833 20.8407 95.8741 20.9225 96.5382 20.7318C97.2023 20.5411 97.7336 20.1052 98.0789 19.5059L103.392 9.94369C103.737 9.34435 103.817 8.63604 103.631 7.95498C103.445 7.27391 103.02 6.72906 102.436 6.3749C101.214 5.66659 99.6728 6.10248 98.9821 7.35564L93.6691 16.9178C92.9519 18.171 93.3769 19.7783 94.5989 20.4866Z" fill="#005453" fill-opacity="0.16"/>
<path d="M41.9475 19.5062C42.6382 20.7594 44.2056 21.1953 45.401 20.4869C46.623 19.7786 47.0481 18.1713 46.3574 16.9454L41.0443 7.38323C40.699 6.78389 40.1676 6.34801 39.5035 6.15731C38.8394 5.96661 38.1753 6.07558 37.5643 6.4025C36.9533 6.72941 36.5548 7.3015 36.3689 7.98257C36.1829 8.66364 36.2891 9.3447 36.6079 9.97128L41.9475 19.5062Z" fill="#005453" fill-opacity="0.16"/>
<path d="M70.0277 121.72C68.6197 121.72 67.4775 122.892 67.4775 124.336V133.898C67.4775 135.342 68.6197 136.513 70.0277 136.513C71.4356 136.513 72.5779 135.342 72.5779 133.898V124.336C72.5513 122.892 71.409 121.72 70.0277 121.72Z" fill="#005453" fill-opacity="0.16"/>
<path d="M45.4261 116.026C45.0277 115.808 44.6026 115.672 44.1775 115.672C43.3008 115.672 42.4242 116.135 41.9726 116.98L36.6595 126.542C36.3142 127.141 36.2344 127.85 36.4204 128.531C36.6063 129.212 37.0314 129.757 37.6158 130.111C38.8378 130.819 40.3786 130.383 41.0693 129.13L46.3824 119.568C46.7277 118.968 46.8075 118.26 46.6216 117.579C46.4356 116.953 46.0106 116.38 45.4261 116.026Z" fill="#005453" fill-opacity="0.16"/>
<path d="M98.0806 117.007C97.6024 116.162 96.7524 115.699 95.8757 115.699C95.4507 115.699 95.0255 115.808 94.6271 116.053C93.405 116.762 92.98 118.369 93.6707 119.595L98.9838 129.157C99.3292 129.756 99.8606 130.192 100.525 130.383C101.189 130.574 101.853 130.465 102.464 130.138C103.048 129.784 103.473 129.239 103.659 128.558C103.845 127.877 103.739 127.196 103.42 126.569L98.0806 117.007Z" fill="#005453" fill-opacity="0.16"/>
</svg>
