<svg width="113" height="136" viewBox="0 0 113 136" fill="none" xmlns="http://www.w3.org/2000/svg">
<path d="M92.6998 35.0951V10.0006C92.6998 8.88651 91.9496 7.93154 90.8891 7.66627L57.546 0.0530535C57.3908 0.0265266 57.2097 0 57.0286 0C56.8475 0 56.6923 0.0265266 56.5113 0.0530535L23.1681 7.66627C22.1076 7.90501 21.3574 8.85998 21.3574 10.0006V35.1216C21.3574 46.3159 24.6685 57.1124 30.9284 66.2907C37.1883 75.469 45.9315 82.3394 56.2008 86.1858C56.7182 86.3715 57.2873 86.3715 57.7788 86.1858C68.0481 82.366 76.7913 75.469 83.0512 66.2907C89.3887 57.0859 92.6998 46.3159 92.6998 35.0951ZM79.3263 63.5319C73.7907 71.6226 66.1339 77.7768 57.1579 81.3314L57.0545 81.3579L56.951 81.3314C47.975 77.7768 40.2924 71.6226 34.7826 63.5319C29.0659 55.1494 26.0394 45.3344 26.0394 35.0951V11.9106L26.2464 11.8575L57.0545 4.80137H57.1062L88.0695 11.884V35.0951C88.0695 45.3079 85.043 55.1494 79.3263 63.5319Z" fill="#005453" fill-opacity="0.16"/>
<path d="M38.7936 60.6409C43.1911 67.0604 49.1664 72.2066 56.073 75.4695C56.6938 75.7612 57.4181 75.7612 58.0131 75.4695C64.9197 72.1801 70.8951 67.0604 75.2925 60.6409C80.4401 53.1073 83.1562 44.2738 83.1562 35.0955V17.8531C83.1562 16.7389 82.406 15.784 81.3455 15.5187L57.5733 10.0807C57.2371 10.0011 56.9008 10.0011 56.5645 10.0807L32.7924 15.5187C32.1974 15.6513 31.6801 16.0227 31.3438 16.5798C31.0075 17.1103 30.904 17.747 31.0334 18.3836C31.1627 18.9937 31.5249 19.5243 32.0422 19.8691C32.5596 20.214 33.1804 20.3201 33.8012 20.1874L57.0819 14.8555H57.1336L78.526 19.7365V35.069C78.526 43.2658 76.0944 51.1443 71.5159 57.8821C67.8427 63.2671 62.8762 67.644 57.1853 70.5885L57.0819 70.6416L56.9784 70.5885C51.2876 67.644 46.321 63.2671 42.6479 57.8821C38.6901 52.0727 36.2845 45.2819 35.7671 38.2522C35.7154 37.6686 35.6895 37.085 35.6637 36.4749C35.6119 35.2016 34.5772 34.1671 33.3356 34.1671C33.3097 34.1671 33.2838 34.1671 33.258 34.1671C32.6372 34.1936 32.0681 34.4589 31.6283 34.9098C31.1886 35.3608 30.9817 35.9709 31.0075 36.6076C31.0334 37.2707 31.0592 37.9339 31.111 38.5971C31.6801 46.5286 34.3444 54.1418 38.7936 60.6409Z" fill="#005453" fill-opacity="0.16"/>
<path d="M51.8822 43.7183L46.9415 37.7232C46.5535 37.2457 45.9844 36.9539 45.3636 36.9009C45.286 36.9009 45.2342 36.9009 45.1566 36.9009C44.6134 36.9009 44.0961 37.0866 43.6563 37.4579C42.6733 38.3068 42.544 39.8188 43.3718 40.8269L49.8645 48.7053C50.2784 49.1828 50.8475 49.5012 51.4942 49.5542C52.1409 49.6073 52.7358 49.3685 53.2014 48.9441L71.9295 31.569C72.8866 30.6936 72.9642 29.1816 72.0847 28.2001C71.2311 27.2186 69.7566 27.139 68.7995 28.0409L51.8822 43.7183Z" fill="#005453" fill-opacity="0.16"/>
<path d="M47.3813 135.023C48.6747 135.023 49.7094 133.962 49.7094 132.636V114.279C49.7094 109.716 48.235 105.207 45.5189 101.573L35.0943 87.5133C33.7751 85.736 31.8608 84.5953 29.688 84.3301C27.5151 84.0648 25.394 84.6749 23.6867 86.0543C22.9107 86.6909 22.264 87.4602 21.7725 88.3356L21.5915 88.6805L20.6085 87.3541C19.9101 86.3992 19.5221 85.232 19.5221 84.0383V60.164C19.5221 55.4423 15.7713 51.5693 11.141 51.5693C6.79527 51.5693 3.22557 54.9117 2.81169 59.3417L0.0438548 89.2375C-0.188953 91.7841 0.509488 94.3307 2.03567 96.3733L24.023 125.739V132.636C24.023 133.962 25.0577 135.023 26.3511 135.023C27.6445 135.023 28.6792 133.962 28.6792 132.636V124.943C28.6792 124.412 28.4981 123.908 28.1877 123.484L5.70884 93.4818C4.90695 92.3942 4.51894 91.0414 4.64828 89.6885L7.41609 59.7927C7.59716 57.8297 9.20096 56.3442 11.1151 56.3442C13.1587 56.3442 14.8401 58.0684 14.8401 60.164V84.0383C14.8401 86.2665 15.5644 88.4682 16.9095 90.2456L26.6874 103.323C27.4634 104.358 28.9378 104.57 29.9467 103.774C30.9555 102.978 31.1624 101.466 30.3864 100.432L26.0148 94.596C24.9284 93.1105 25.1871 90.9618 26.6098 89.7946C27.2047 89.2906 27.9549 89.0518 28.705 89.0518C28.8344 89.0518 28.9896 89.0518 29.1189 89.0784C30.0243 89.1845 30.8262 89.662 31.3953 90.4312L41.8198 104.49C43.9151 107.302 45.0533 110.804 45.0533 114.332V132.689C45.0533 133.935 46.1138 135.023 47.3813 135.023Z" fill="#005453" fill-opacity="0.16"/>
<path d="M87.0352 134.624C88.0958 134.624 88.9753 133.722 88.9753 132.635V125.605L89.1046 125.419L111.066 96.107C112.515 94.144 113.187 91.7036 112.955 89.2631L110.187 59.3673C109.799 55.1495 106.384 51.9663 102.245 51.9663C97.8479 51.9663 94.2523 55.627 94.2523 60.1631V84.0373C94.2523 85.3106 93.8384 86.5839 93.0624 87.5919L91.7173 89.3957L91.2258 88.5469C90.7602 87.698 90.1394 86.9818 89.3892 86.3717C87.7596 85.0453 85.7419 84.4617 83.6984 84.727C81.6548 84.9923 79.8182 86.0533 78.5766 87.7511L68.152 101.81C65.5135 105.365 64.0391 109.821 64.0391 114.278V132.635C64.0391 133.722 64.9186 134.624 65.9791 134.624C67.0397 134.624 67.9192 133.722 67.9192 132.635V114.278C67.9192 110.67 69.0832 107.089 71.2302 104.198L81.6549 90.1385C82.2757 89.3161 83.181 88.7856 84.1898 88.653C85.1986 88.5203 86.2075 88.8121 87.0094 89.4753C88.5873 90.7751 88.8977 93.1625 87.6561 94.8337L83.2845 100.67C82.6378 101.545 82.793 102.792 83.6466 103.455C84.5003 104.118 85.716 103.959 86.3627 103.084L96.1406 90.0058C97.4082 88.3081 98.1065 86.186 98.1065 84.0373V60.1631C98.1065 57.8287 99.9432 55.9453 102.22 55.9453C104.341 55.9453 106.1 57.59 106.307 59.7652L109.074 89.661C109.204 91.12 108.816 92.5524 107.962 93.7196L85.5091 123.722C85.2504 124.066 85.1211 124.491 85.1211 124.942V132.635C85.0952 133.722 85.9747 134.624 87.0352 134.624Z" fill="#005453" fill-opacity="0.16"/>
<path d="M31.1099 26.3158C30.7219 27.3503 31.084 28.5441 31.9894 29.1807C32.8171 29.7378 33.9294 29.7112 34.6796 29.1011C35.4297 28.5175 35.766 27.5095 35.5073 26.6076C35.2486 25.6261 34.3691 24.9099 33.3862 24.8568C32.4291 24.7772 31.472 25.3874 31.1099 26.3158Z" fill="#005453" fill-opacity="0.16"/>
</svg>
