<svg width="69" height="69" viewBox="0 0 69 69" fill="none" xmlns="http://www.w3.org/2000/svg">
<path d="M67.8871 24.4839C68.4992 24.4839 69 23.9831 69 23.371V5.56452C69 4.95242 68.4992 4.45161 67.8871 4.45161H66.7742V1.1129C66.7742 0.500806 66.2734 0 65.6613 0H3.33871C2.72661 0 2.22581 0.500806 2.22581 1.1129V4.45161H1.1129C0.500806 4.45161 0 4.95242 0 5.56452V23.371C0 23.9831 0.500806 24.4839 1.1129 24.4839H2.22581V62.3226H1.1129C0.500806 62.3226 0 62.8234 0 63.4355V67.8871C0 68.4992 0.500806 69 1.1129 69H67.8871C68.4992 69 69 68.4992 69 67.8871V63.4355C69 62.8234 68.4992 62.3226 67.8871 62.3226H66.7742V24.4839H67.8871ZM4.45161 2.22581H64.5484V4.45161H4.45161V2.22581ZM2.22581 6.67742H66.7742V22.2581H2.22581V6.67742ZM64.5484 35.6129H51.1936V28.9355H64.5484V35.6129ZM48.9677 35.6129H35.6129V28.9355H48.9677V35.6129ZM33.3871 35.6129H20.0323V28.9355H33.3871V35.6129ZM17.8065 35.6129H4.45161V28.9355H17.8065V35.6129ZM66.7742 66.7742H2.22581V64.5484H66.7742V66.7742ZM37.8387 62.3226H35.6129V45.629C35.6129 45.0169 35.1121 44.5161 34.5 44.5161H12.2419C11.6298 44.5161 11.129 45.0169 11.129 45.629V62.3226H8.90323V42.2903H37.8387V62.3226ZM13.3548 62.3226V46.7419H22.2581V62.3226H13.3548ZM24.4839 46.7419H33.3871V62.3226H24.4839V46.7419ZM60.0968 62.3226H46.7419V42.2903H60.0968V62.3226ZM62.3226 62.3226V41.1774C62.3226 40.5653 61.8218 40.0645 61.2097 40.0645H45.629C45.0169 40.0645 44.5161 40.5653 44.5161 41.1774V62.3226H40.0645V41.1774C40.0645 40.5653 39.5637 40.0645 38.9516 40.0645H7.79032C7.17823 40.0645 6.67742 40.5653 6.67742 41.1774V62.3226H4.45161V37.8387H64.5484V62.3226H62.3226ZM64.5484 26.7097H4.45161V24.4839H64.5484V26.7097Z" fill="#AF5BA0" fill-opacity="0.16"/>
<path d="M50.125 54H56.875C57.4937 54 58 53.4937 58 52.875V46.125C58 45.5062 57.4937 45 56.875 45H50.125C49.5062 45 49 45.5062 49 46.125V52.875C49 53.4937 49.5062 54 50.125 54ZM51.25 47.25H55.75V51.75H51.25V47.25Z" fill="#AF5BA0" fill-opacity="0.16"/>
<path d="M19.0145 11H25.4203V12.535H21.1449V13.6597H23.1304C24.058 13.6597 24.7681 13.845 25.2609 14.2023C25.7536 14.5595 26 15.0756 26 15.7505C26 16.4518 25.7246 17.0076 25.1739 17.4045C24.6232 17.8015 23.8406 18 22.8406 18H19V11H19.0145ZM22.6957 16.5841C23.058 16.5841 23.3333 16.518 23.5217 16.3856C23.7101 16.2533 23.8116 16.0681 23.8116 15.8166C23.8116 15.327 23.4348 15.0756 22.6957 15.0756H21.1449V16.5841H22.6957Z" fill="#AF5BA0" fill-opacity="0.16"/>
<path d="M32.1317 16.6371H28.8537L28.239 18H26L29.4244 11H31.5756L35 18H32.7171L32.1317 16.6371ZM31.4878 15.1682L30.4927 12.9319L29.4976 15.1682H31.4878Z" fill="#AF5BA0" fill-opacity="0.16"/>
<path d="M42 11V18H39.9167V15.2741H37.0833V18H35V11H37.0833V13.6333H39.9167V11H42Z" fill="#AF5BA0" fill-opacity="0.16"/>
<path d="M47.0079 15.3189H46.0653V18H44V11H46.0653V13.7208H47.0634L48.8099 11H50.9861L48.6851 14.3811L51 18H48.6574L47.0079 15.3189Z" fill="#AF5BA0" fill-opacity="0.16"/>
</svg>
