<svg width="79" height="72" viewBox="0 0 79 72" fill="none" xmlns="http://www.w3.org/2000/svg">
<path d="M49.7619 45.5912V34.6176C49.7619 32.6129 48.0104 31 45.8333 31H9.16667C6.98958 31 5.2381 32.6129 5.2381 34.6176V45.5912C2.25893 46.1489 0 48.5908 0 51.5V58.7353V70.7941C0 71.4574 0.589286 72 1.30952 72H6.54762C7.26786 72 7.85714 71.4574 7.85714 70.7941V67.1765H47.1429V70.7941C47.1429 71.4574 47.7321 72 48.4524 72H53.6905C54.4107 72 55 71.4574 55 70.7941V58.7353V51.5C55 48.5908 52.7411 46.1489 49.7619 45.5912ZM7.85714 34.6176C7.85714 33.9544 8.44643 33.4118 9.16667 33.4118H45.8333C46.5536 33.4118 47.1429 33.9544 47.1429 34.6176V45.4706H44.5238V40.6471C44.5238 38.6423 42.7723 37.0294 40.5952 37.0294H32.7381C30.561 37.0294 28.8095 38.6423 28.8095 40.6471V45.4706H26.1905V40.6471C26.1905 38.6423 24.439 37.0294 22.2619 37.0294H14.4048C12.2277 37.0294 10.4762 38.6423 10.4762 40.6471V45.4706H7.85714V34.6176ZM41.9048 40.6471V45.4706H31.4286V40.6471C31.4286 39.9838 32.0179 39.4412 32.7381 39.4412H40.5952C41.3155 39.4412 41.9048 39.9838 41.9048 40.6471ZM23.5714 40.6471V45.4706H13.0952V40.6471C13.0952 39.9838 13.6845 39.4412 14.4048 39.4412H22.2619C22.9821 39.4412 23.5714 39.9838 23.5714 40.6471ZM52.381 69.5882H49.7619V65.9706C49.7619 65.3074 49.1726 64.7647 48.4524 64.7647H6.54762C5.82738 64.7647 5.2381 65.3074 5.2381 65.9706V69.5882H2.61905V59.9412H52.381V69.5882ZM52.381 57.5294H2.61905V51.5C2.61905 49.4952 4.37054 47.8824 6.54762 47.8824H11.7857H24.881H30.119H43.2143H48.4524C50.6295 47.8824 52.381 49.4952 52.381 51.5V57.5294Z" fill="#5D2352" fill-opacity="0.16"/>
<path d="M77.6875 46H59.3125C58.5906 46 58 46.5344 58 47.1875V56.6875V63.8125C58 64.4656 58.5906 65 59.3125 65C60.0344 65 60.625 64.4656 60.625 63.8125V57.875H76.375V63.8125C76.375 64.4656 76.9656 65 77.6875 65C78.4094 65 79 64.4656 79 63.8125V56.6875V47.1875C79 46.5344 78.4094 46 77.6875 46ZM76.375 55.5H60.625V48.375H76.375V55.5Z" fill="#5D2352" fill-opacity="0.16"/>
<path d="M67.25 50H69.75C70.4375 50 71 50.45 71 51C71 51.55 70.4375 52 69.75 52H67.25C66.5625 52 66 51.55 66 51C66 50.45 66.5625 50 67.25 50Z" fill="#5D2352" fill-opacity="0.16"/>
<path d="M74.9344 36.2229L72.3344 28.8453C72.1557 28.3381 71.6682 28 71.0994 28H65.8995C65.347 28 64.8433 28.3381 64.6645 28.8453L62.0646 36.2229C61.8858 36.7454 62.0808 37.3449 62.6171 37.6676C62.8283 37.7906 63.0721 37.8521 63.3158 37.8521H67.1995V41.5408H65.8995C65.1845 41.5408 64.5995 42.0941 64.5995 42.7704C64.5995 43.4467 65.1845 44 65.8995 44H71.0994C71.8144 44 72.3994 43.4467 72.3994 42.7704C72.3994 42.0941 71.8144 41.5408 71.0994 41.5408H69.7995V37.8521H73.6994C74.1219 37.8521 74.5119 37.6676 74.7556 37.3449C74.9994 37.0067 75.0644 36.5917 74.9344 36.2229ZM65.1033 35.3775L66.842 30.4592H70.1732L71.9119 35.3775H65.1033Z" fill="#5D2352" fill-opacity="0.16"/>
<path d="M78.2265 15.6025L40.0431 0.100613C39.6975 -0.0335377 39.3025 -0.0335377 38.9733 0.100613L0.79 15.6025C0.29625 15.7962 0 16.2136 0 16.6906V29.8076C0 30.4634 0.5925 31 1.31667 31C2.04083 31 2.63333 30.4634 2.63333 29.8076V17.4657L39.5 2.50042L76.3667 17.4657V29.8076C76.3667 30.4634 76.9592 31 77.6833 31C78.4075 31 79 30.4634 79 29.8076V16.6906C79 16.2136 78.7038 15.7962 78.2265 15.6025Z" fill="#5D2352" fill-opacity="0.16"/>
<path d="M46.5376 17.3025L46.4573 17.3177C45.8466 17.4087 45.4127 17.9096 45.4288 18.5014C45.4288 18.5014 45.4288 18.5014 45.4288 18.5166C45.4288 22.0071 42.2952 24.8147 38.5348 24.5718C35.369 24.3594 32.7978 21.9464 32.5889 18.9567C32.3157 15.3903 35.2887 12.431 38.9848 12.431C39.3544 12.431 39.7401 12.4614 40.0936 12.5221C40.7043 12.6283 41.2988 12.3096 41.5077 11.7633L41.5399 11.6874C41.797 11.0045 41.347 10.2608 40.6078 10.1394C40.0132 10.0332 39.4026 9.98767 38.7759 10.0028C33.987 10.1091 30.0981 13.812 30.0017 18.3193C29.9053 23.0846 33.971 27 39.0008 27C43.9664 27 48 23.1908 48 18.5014C48 18.4862 48 18.4559 48 18.4407C47.9839 17.7123 47.2769 17.1811 46.5376 17.3025Z" fill="#5D2352" fill-opacity="0.16"/>
<path d="M46.6892 10.3511L39.108 17.1008L38.3108 16.3911C37.7851 15.923 36.9201 15.923 36.3943 16.3911C35.8686 16.8592 35.8686 17.6293 36.3943 18.0974L38.1412 19.6527C38.4126 19.8943 38.7518 20 39.108 20C39.4641 20 39.8033 19.8792 40.0747 19.6527L48.6057 12.0574C49.1314 11.5893 49.1314 10.8192 48.6057 10.3511C48.0799 9.88297 47.2149 9.88297 46.6892 10.3511Z" fill="#5D2352" fill-opacity="0.16"/>
</svg>
