<svg width="63" height="70" viewBox="0 0 63 70" fill="none" xmlns="http://www.w3.org/2000/svg">
<path d="M0.0363951 68.1847C0.0363951 69.6516 0.382149 70 1.85615 70H31.5182H39.7435C46.9497 70 54.156 70 61.3622 70C62.5997 70 62.9818 69.5966 62.9818 68.3681C62.9818 63.2155 62.9818 58.0446 62.9818 52.8921C62.9818 40.1483 62.9818 26.9644 63 14.0005C63 13.0287 62.6542 12.5152 61.7626 12.1852C54.6109 9.52639 47.3501 6.8126 40.3258 4.19049C36.8137 2.87026 33.3016 1.56837 29.7894 0.248151C28.9887 -0.0452326 28.4246 -0.0819055 28.0971 0.156468C27.7513 0.394842 27.5875 0.944936 27.5875 1.82509V4.48387C27.5875 8.59124 27.5875 12.8453 27.6239 17.0443C27.6239 17.9062 27.351 18.3279 26.5321 18.6946C21.5641 20.895 16.5234 23.1504 11.6282 25.3324C8.13431 26.891 4.65858 28.4496 1.16464 30.0082C0.345754 30.3749 0 30.87 0 31.7135C0.0181976 40.3133 0.0181976 49.0598 0.0181976 57.5129C0.0363951 61.0702 0.0363951 64.6274 0.0363951 68.1847ZM27.5329 67.5613H2.45667V62.0053H27.5329V67.5613ZM9.80849 53.3688V51.0951H20.1811V59.5299H16.8146C14.8128 59.5299 12.8111 59.5299 10.8276 59.5299C10.773 59.5299 10.7366 59.5299 10.682 59.5299C10.6274 59.5299 10.5728 59.5299 10.5182 59.5299C10.3362 59.5299 10.136 59.5116 9.99047 59.3649C9.86308 59.2365 9.80849 59.0531 9.80849 58.8148C9.80849 57.0178 9.80849 55.2025 9.80849 53.3688ZM48.8969 67.5796H41.6542V54.5974H48.8969V67.5796ZM3.12998 31.7502C9.15338 29.073 15.286 26.3226 21.2002 23.6821L26.5685 21.2801C26.6958 21.225 26.8232 21.17 27.0052 21.115C27.0962 21.0784 27.2236 21.0417 27.351 20.9867L27.6057 20.895V25.9559C27.5875 26.0292 27.5875 26.1025 27.5875 26.1576V34.849C27.5875 35.5091 28.1153 36.0409 28.7704 36.0409C29.4255 36.0409 29.9532 35.5091 29.9532 34.849V34.2989C29.9714 34.0789 29.9714 33.8222 29.9714 33.6022V33.4188C29.9714 25.4608 29.9714 17.4844 29.9714 9.52639V2.90694L30.208 2.99862C30.4627 3.0903 30.7175 3.18198 30.9541 3.25533C31.4272 3.42036 31.864 3.56705 32.3007 3.73208C34.5026 4.55722 36.7045 5.38236 38.9246 6.2075C45.6577 8.71959 52.6456 11.3417 59.5061 13.8721C60.3614 14.1839 60.6525 14.6056 60.6525 15.5407C60.6343 29.5315 60.6343 43.7605 60.6343 57.5129V67.5613H57.286V65.3425C57.286 64.7924 57.286 64.224 57.286 63.6739C57.286 62.3537 57.286 60.9968 57.286 59.6582C57.286 58.7414 56.8674 58.2463 56.1031 58.2463C55.357 58.2463 54.9203 58.7598 54.9203 59.6582C54.9021 61.2352 54.9021 62.8488 54.9203 64.3891C54.9203 65.0492 54.9203 65.6909 54.9203 66.3511V67.5613H51.3718V62.427C51.3718 59.5482 51.3718 56.6694 51.3718 53.7906C51.3718 52.4887 51.0624 52.1586 49.7704 52.1586C47.1317 52.1586 44.4567 52.1586 41.8544 52.1586H40.9445C39.5797 52.1586 39.2158 52.507 39.2158 53.8823C39.2158 56.9261 39.2158 59.97 39.2158 63.0322V67.5796H35.7582V67.3962C35.7582 67.3045 35.74 67.1945 35.74 67.1028C35.7218 66.8828 35.7218 66.6628 35.7218 66.4244C35.7218 65.4892 35.7218 64.5357 35.7218 63.6006C35.7218 62.3354 35.7218 61.0885 35.7218 59.8233C35.7218 59.2548 35.5763 58.8148 35.3033 58.5397C35.1031 58.338 34.8302 58.2463 34.4844 58.2463C33.5381 58.2647 33.338 59.0898 33.338 59.7866C33.338 61.5652 33.338 63.3439 33.338 65.1408V67.5429H30.0442V67.3596C30.0442 67.2495 30.026 67.1212 30.026 67.0112C30.0078 66.7544 29.9896 66.4794 29.9896 66.2227C29.9896 63.4722 29.9896 60.7218 29.9896 57.953C29.9896 54.414 29.9896 50.8751 29.9896 47.3362C29.9896 47.1528 29.9714 46.9878 29.9532 46.8227V46.8044V46.5294C29.9532 45.8692 29.4255 45.3375 28.7704 45.3375C28.1153 45.3375 27.5875 45.8692 27.5875 46.5294V55.2208C27.5875 55.2758 27.5875 55.3492 27.6057 55.4225V55.4592V59.5116H22.6378V59.3282C22.6378 59.2182 22.6196 59.1265 22.6196 59.0165C22.6014 58.7964 22.6014 58.5581 22.6014 58.338C22.6014 57.2195 22.6014 56.101 22.6014 54.9641C22.6014 53.4055 22.6014 51.8286 22.6014 50.27C22.6014 49.0781 22.201 48.6747 21.0364 48.6747C17.1785 48.6747 13.1386 48.6747 9.026 48.6747C7.82496 48.6747 7.44281 49.0598 7.44281 50.2516C7.44281 51.8102 7.44281 53.3505 7.44281 54.9091C7.44281 56.0093 7.44281 57.1278 7.44281 58.228C7.44281 58.4664 7.42461 58.7231 7.40641 58.9798C7.40641 59.1082 7.38821 59.2182 7.38821 59.3649V59.5482H2.49307L2.47487 59.3832C2.47487 59.3099 2.45667 59.2182 2.45667 59.1448C2.43847 58.9615 2.42028 58.7781 2.42028 58.5947C2.42028 55.8809 2.42028 53.1671 2.42028 50.435C2.42028 44.6224 2.42028 38.828 2.40208 33.0154C2.38388 32.4103 2.51127 32.0252 3.12998 31.7502Z" fill="#005453" fill-opacity="0.16"/>
<path d="M7.01874 43.1183C7.01874 44.6425 7.36055 45 8.78177 45C10.257 45 11.7501 45 13.2253 45H14.4487C15.0783 45 15.7259 45 16.3556 45C17.7408 45 19.1621 45 20.5473 45C21.4828 45 21.9685 44.5672 21.9865 43.7204C22.0045 39.9382 22.0045 36.0806 21.9865 32.2419C21.9865 31.4892 21.5368 31.0565 20.7812 31.0376C20.1515 31.0188 19.5039 31 18.8562 31C18.3345 31 17.8128 31.0188 17.2911 31.0376C16.6075 31.0753 15.9598 31.207 15.4381 31.4328C14.1068 31.9973 12.7576 32.5995 11.4443 33.164C10.3289 33.6532 9.19554 34.1613 8.06216 34.6505C7.28859 34.9704 6.98276 35.4785 7.00075 36.3441C7.01874 37.8871 7.01874 39.4489 7.01874 40.9731C7.01874 41.6882 7.01874 42.4032 7.01874 43.1183ZM9.33946 41.4435C9.39343 40.1828 9.37544 38.9032 9.33946 37.6048C9.32147 37.0027 9.53735 36.664 10.0591 36.4382C10.8146 36.1183 11.5702 35.7796 12.3078 35.4409C13.6571 34.8387 15.0423 34.2177 16.4456 33.6909C17.0572 33.4651 17.7229 33.4462 18.4245 33.4462C18.7483 33.4462 19.0721 33.4462 19.3959 33.4086L19.5938 33.3898V42.4785L19.4319 42.4973C19.324 42.4973 19.234 42.5161 19.1261 42.5161C18.9102 42.5349 18.7123 42.5538 18.5144 42.5538C17.6509 42.5538 16.7874 42.5538 15.9418 42.5538C14.1428 42.5538 12.2718 42.5538 10.4548 42.5726C10.4369 42.5726 10.4189 42.5726 10.4009 42.5726C10.0771 42.5726 9.75323 42.5349 9.55534 42.3091C9.39343 42.121 9.32147 41.8575 9.33946 41.4435Z" fill="#005453" fill-opacity="0.16"/>
<path d="M56.9816 34.4302C56.9816 33.4272 56.5778 33.0186 55.6049 33.0186C54.4484 33.0186 53.2735 33 52.062 33C50.9055 33 49.7123 33 48.464 33.0186C47.4543 33.0186 47.0138 33.4643 47.0138 34.4859C46.9954 38.0335 46.9954 41.7297 47.0138 45.4259C47.0138 46.5774 47.4176 46.9861 48.5558 46.9861C50.832 47.0046 53.145 47.0046 55.4213 46.9861C56.6145 46.9861 57 46.596 57 45.3701C57 44.1257 57 42.8441 57 41.6182C57 41.1353 57 40.671 57 40.1881V40.0023C57 39.4451 57 38.9065 57 38.3493C57 37.0677 57 35.7303 56.9816 34.4302ZM54.5218 44.4972H49.4736V35.4703H54.5218V44.4972Z" fill="#005453" fill-opacity="0.16"/>
<path d="M33.0184 41.5979C33.0184 42.8985 33.0184 44.2548 33.0184 45.574C33.0184 46.5587 33.4422 46.9861 34.4187 46.9861C36.7034 47.0046 39.0433 47.0046 41.5859 46.9861C42.5993 46.9861 42.9862 46.5959 42.9862 45.5926C43.0046 42.0624 43.0046 38.4207 42.9862 34.4632C42.9862 33.4041 42.5993 33.0139 41.5491 33.0139C39.4302 32.9954 37.1087 32.9954 34.474 33.0139C33.3869 33.0139 33.0184 33.4227 33 34.5375C33 35.8009 33 37.0458 33 38.3092V40.1115C33.0368 40.5946 33.0368 41.0962 33.0184 41.5979ZM35.5058 35.4851H40.5541V44.5149H35.5058V35.4851Z" fill="#005453" fill-opacity="0.16"/>
<path d="M28.0059 39.9055C27.9748 40.1865 28.068 40.4519 28.2544 40.6549C28.4253 40.8579 28.6738 40.9828 28.9379 40.9984C29.466 41.0296 29.9475 40.6081 29.9941 40.0929C30.0251 39.8274 29.9319 39.562 29.7611 39.3435C29.5902 39.1405 29.3262 39.0156 29.0621 39C29.0466 39 29.0155 39 29 39C28.4719 39 28.037 39.3903 28.0059 39.9055Z" fill="#005453" fill-opacity="0.16"/>
<path d="M41.7729 16.1909L41.7363 16.1726L34.8864 13H34.6117C33.7143 13 33 13.7335 33 14.6138V28.3862C33 29.2848 33.7326 30 34.6117 30H41.3883C42.2857 30 43 29.2665 43 28.3862V17.7497C43 17.0162 42.5055 16.3743 41.7729 16.1909ZM40.4359 27.4509H35.5458V16.1543L40.4359 18.4099V27.4509Z" fill="#005453" fill-opacity="0.16"/>
<path d="M55.7729 21.309L55.7363 21.29L48.8864 18H48.6117C47.7143 18 47 18.7607 47 19.6735V28.3265C47 29.2583 47.7326 30 48.6117 30H55.3883C56.2857 30 57 29.2393 57 28.3265V22.9255C57 22.1648 56.4872 21.4992 55.7729 21.309ZM54.4359 27.3566H49.5458V21.252L54.4359 23.5911V27.3566Z" fill="#005453" fill-opacity="0.16"/>
</svg>
