<svg width="333" height="32" viewBox="0 0 333 32" fill="none" xmlns="http://www.w3.org/2000/svg">
<path d="M74.26 14H79.444C83.422 14 85.654 11.714 85.654 7.592C85.654 3.452 83.422 1.184 79.444 1.184H74.26V14ZM77.05 11.66V3.524H79.102C81.64 3.524 82.828 5.018 82.828 7.592C82.828 10.166 81.676 11.66 79.102 11.66H77.05ZM97.6918 1.184V14H100.482V8.978H102.984C104.82 8.978 105.36 9.608 105.54 11.372C105.612 12.074 105.612 13.352 105.936 14H108.852C108.348 13.532 108.312 11.768 108.24 10.958C108.132 9.698 107.772 8.258 106.35 7.97C107.628 7.484 108.384 6.314 108.384 4.82C108.384 2.246 106.422 1.184 104.064 1.184H97.6918ZM100.482 3.398H103.272C104.46 3.398 105.63 3.65 105.63 5.126C105.63 6.71 104.46 6.944 103.146 6.944H100.482V3.398ZM130.186 1.184H120.574V14H130.312V11.642H123.364V8.492H129.628V6.278H123.364V3.488H130.186V1.184ZM148.618 1.166H145.72L140.842 14H143.722L144.766 11.138H149.536L150.544 14H153.496L148.618 1.166ZM148.852 9.086H145.45L147.16 4.316L148.852 9.086ZM164.568 14H167.25V4.982L170.436 14H172.614L175.764 4.892V14H178.41V1.184H174.486L171.57 9.986L168.582 1.184H164.568V14ZM206.016 1.184V14H208.806V8.978H211.308C213.144 8.978 213.684 9.608 213.864 11.372C213.936 12.074 213.936 13.352 214.26 14H217.176C216.672 13.532 216.636 11.768 216.564 10.958C216.456 9.698 216.096 8.258 214.674 7.97C215.952 7.484 216.708 6.314 216.708 4.82C216.708 2.246 214.746 1.184 212.388 1.184H206.016ZM208.806 3.398H211.596C212.784 3.398 213.954 3.65 213.954 5.126C213.954 6.71 212.784 6.944 211.47 6.944H208.806V3.398ZM238.51 1.184H228.898V14H238.636V11.642H231.688V8.492H237.952V6.278H231.688V3.488H238.51V1.184ZM256.942 1.166H254.044L249.166 14H252.046L253.09 11.138H257.86L258.868 14H261.82L256.942 1.166ZM257.176 9.086H253.774L255.484 4.316L257.176 9.086ZM281.964 11.588H275.7V1.184H272.892V14H281.964V11.588ZM301.08 1.184H290.55V3.578H294.402V14H297.228V3.578H301.08V1.184ZM323.488 1.184H320.374L317.35 6.314L314.362 1.184H311.158L315.946 9.014V14H318.718V9.068L323.488 1.184Z" fill="#4B4A4A"/>
<path d="M78.9102 25.3652H75.8633L75.2188 27H74.1113L76.918 20.1738H77.8906L80.6562 27H79.5547L78.9102 25.3652ZM76.2148 24.4805H78.5645L77.3984 21.498L76.2148 24.4805ZM91.2645 21.0703H87.8777V27H86.7937V20.1738H91.2645V21.0703ZM101.726 23.918H98.609V26.1152H102.236V27H97.525V20.1738H102.201V21.0703H98.609V23.0273H101.726V23.918ZM114.28 27H113.196V24.082H109.657V27H108.573V20.1738H109.657V23.1914H113.196V20.1738H114.28V27ZM126.282 21.0703H123.945V27H122.861V21.0703H120.534V20.1738H126.282V21.0703ZM138.004 24.791C137.926 25.5215 137.641 26.0879 137.148 26.4902C136.656 26.8926 136.002 27.0938 135.186 27.0938C134.311 27.0938 133.607 26.8066 133.076 26.2324C132.549 25.6543 132.285 24.8594 132.285 23.8477V23.2969C132.285 22.6562 132.404 22.0938 132.643 21.6094C132.885 21.1211 133.23 20.7441 133.68 20.4785C134.133 20.2129 134.656 20.0801 135.25 20.0801C136.047 20.0801 136.686 20.2871 137.166 20.7012C137.65 21.1113 137.93 21.6816 138.004 22.4121H136.92C136.85 21.9043 136.676 21.5371 136.398 21.3105C136.125 21.084 135.742 20.9707 135.25 20.9707C134.652 20.9707 134.189 21.1699 133.861 21.5684C133.537 21.9629 133.373 22.5293 133.369 23.2676V23.8887C133.369 24.627 133.523 25.1992 133.832 25.6055C134.145 26.0078 134.596 26.209 135.186 26.209C135.713 26.209 136.113 26.1016 136.387 25.8867C136.664 25.668 136.842 25.3027 136.92 24.791H138.004ZM149.632 21.0703H147.294V27H146.21V21.0703H143.884V20.1738H149.632V21.0703ZM155.88 27V20.1738H158.259C159.076 20.1738 159.701 20.334 160.134 20.6543C160.568 20.9707 160.785 21.4316 160.785 22.0371C160.785 22.3535 160.691 22.6348 160.504 22.8809C160.32 23.127 160.056 23.3145 159.713 23.4434C160.099 23.5371 160.406 23.7305 160.632 24.0234C160.859 24.3125 160.972 24.6543 160.972 25.0488C160.972 25.666 160.759 26.1445 160.334 26.4844C159.908 26.8242 159.302 26.9961 158.517 27H155.88ZM156.964 23.8945V26.1152H158.5C158.949 26.1152 159.293 26.0195 159.531 25.8281C159.769 25.6367 159.888 25.375 159.888 25.043C159.888 24.2773 159.429 23.8945 158.511 23.8945H156.964ZM156.964 23.0684H158.336C158.757 23.0684 159.089 22.9863 159.332 22.8223C159.574 22.6543 159.695 22.4082 159.695 22.084C159.695 21.4277 159.248 21.0898 158.353 21.0703H156.964V23.0684ZM173.268 23.7891C173.268 24.8086 172.998 25.6152 172.459 26.209C171.92 26.7988 171.198 27.0938 170.291 27.0938C169.397 27.0938 168.674 26.7949 168.123 26.1973C167.577 25.5996 167.303 24.7871 167.303 23.7598V23.3965C167.303 22.3887 167.575 21.584 168.118 20.9824C168.664 20.3809 169.385 20.0801 170.28 20.0801C171.19 20.0801 171.912 20.377 172.448 20.9707C172.987 21.5645 173.26 22.3594 173.268 23.3555V23.7891ZM172.196 23.3848C172.196 22.6113 172.028 22.0195 171.692 21.6094C171.356 21.1992 170.885 20.9941 170.28 20.9941C169.694 20.9941 169.229 21.2031 168.885 21.6211C168.545 22.0391 168.375 22.6328 168.375 23.4023V23.7891C168.375 24.5508 168.547 25.1426 168.891 25.5645C169.235 25.9824 169.702 26.1914 170.291 26.1914C170.901 26.1914 171.37 25.9863 171.698 25.5762C172.03 25.1621 172.196 24.5664 172.196 23.7891V23.3848ZM193.734 27H192.65V24.082H189.111V27H188.027V20.1738H189.111V23.1914H192.65V20.1738H193.734V27ZM204.764 23.918H201.647V26.1152H205.274V27H200.563V20.1738H205.239V21.0703H201.647V23.0273H204.764V23.918ZM211.582 26.1094L211.822 25.8223C212.099 25.4863 212.306 25.0723 212.443 24.5801C212.584 24.084 212.668 23.4141 212.695 22.5703L212.777 20.1738H217.318V26.1094H218.156V28.9922H217.072V27H212.162V28.9863H211.072L211.078 26.1094H211.582ZM212.847 26.1094H216.234V21.0703H213.82L213.75 22.8984C213.683 24.3008 213.382 25.3711 212.847 26.1094ZM224.522 27V20.1738H226.901C227.717 20.1738 228.342 20.334 228.776 20.6543C229.209 20.9707 229.426 21.4316 229.426 22.0371C229.426 22.3535 229.332 22.6348 229.145 22.8809C228.961 23.127 228.698 23.3145 228.354 23.4434C228.741 23.5371 229.047 23.7305 229.274 24.0234C229.5 24.3125 229.614 24.6543 229.614 25.0488C229.614 25.666 229.401 26.1445 228.975 26.4844C228.549 26.8242 227.944 26.9961 227.159 27H224.522ZM225.606 23.8945V26.1152H227.141C227.59 26.1152 227.934 26.0195 228.172 25.8281C228.411 25.6367 228.53 25.375 228.53 25.043C228.53 24.2773 228.071 23.8945 227.153 23.8945H225.606ZM225.606 23.0684H226.977C227.399 23.0684 227.731 22.9863 227.973 22.8223C228.215 22.6543 228.336 22.4082 228.336 22.084C228.336 21.4277 227.889 21.0898 226.995 21.0703H225.606V23.0684ZM240.866 20.1738H241.95V27H240.866V21.8203L237.275 27H236.191V20.1738H237.275V25.3535L240.866 20.1738ZM253.619 24.0586H253.039V27H251.949V24.0586H251.363L249.518 27H248.146L250.432 23.5254L248.357 20.1738H249.67L251.428 23.1562H251.949V20.1738H253.039V23.1562H253.561L255.318 20.1738H256.631L254.545 23.4727L256.842 27H255.471L253.619 24.0586ZM267.72 20.1738H268.804V27H267.72V21.8203L264.128 27H263.044V20.1738H264.128V25.3535L267.72 20.1738ZM277.033 20.1738L279.324 25.5117L281.603 20.1738H283.015V27H281.937V24.6504L282.048 21.5273L279.716 27H278.92L276.593 21.5508L276.705 24.6504V27H275.627V20.1738H277.033ZM295.557 23.7891C295.557 24.8086 295.287 25.6152 294.748 26.209C294.209 26.7988 293.487 27.0938 292.58 27.0938C291.686 27.0938 290.963 26.7949 290.412 26.1973C289.866 25.5996 289.592 24.7871 289.592 23.7598V23.3965C289.592 22.3887 289.864 21.584 290.407 20.9824C290.954 20.3809 291.674 20.0801 292.569 20.0801C293.479 20.0801 294.202 20.377 294.737 20.9707C295.276 21.5645 295.549 22.3594 295.557 23.3555V23.7891ZM294.485 23.3848C294.485 22.6113 294.317 22.0195 293.981 21.6094C293.645 21.1992 293.174 20.9941 292.569 20.9941C291.983 20.9941 291.518 21.2031 291.174 21.6211C290.834 22.0391 290.664 22.6328 290.664 23.4023V23.7891C290.664 24.5508 290.836 25.1426 291.18 25.5645C291.524 25.9824 291.991 26.1914 292.58 26.1914C293.19 26.1914 293.659 25.9863 293.987 25.5762C294.319 25.1621 294.485 24.5664 294.485 23.7891V23.3848ZM307.613 24.791C307.534 25.5215 307.249 26.0879 306.757 26.4902C306.265 26.8926 305.611 27.0938 304.794 27.0938C303.919 27.0938 303.216 26.8066 302.685 26.2324C302.157 25.6543 301.894 24.8594 301.894 23.8477V23.2969C301.894 22.6562 302.013 22.0938 302.251 21.6094C302.493 21.1211 302.839 20.7441 303.288 20.4785C303.741 20.2129 304.265 20.0801 304.859 20.0801C305.655 20.0801 306.294 20.2871 306.775 20.7012C307.259 21.1113 307.538 21.6816 307.613 22.4121H306.529C306.458 21.9043 306.284 21.5371 306.007 21.3105C305.734 21.084 305.351 20.9707 304.859 20.9707C304.261 20.9707 303.798 21.1699 303.47 21.5684C303.146 21.9629 302.982 22.5293 302.978 23.2676V23.8887C302.978 24.627 303.132 25.1992 303.441 25.6055C303.753 26.0078 304.204 26.209 304.794 26.209C305.321 26.209 305.722 26.1016 305.995 25.8867C306.273 25.668 306.45 25.3027 306.529 24.791H307.613ZM319.24 21.0703H316.902V27H315.818V21.0703H313.492V20.1738H319.24V21.0703ZM330.165 20.1738H331.249V27H330.165V21.8203L326.573 27H325.489V20.1738H326.573V25.3535L330.165 20.1738Z" fill="#4B4A4A"/>
<path d="M1.62207 8.40885C3.09085 5.62039 5.46093 3.39504 8.33841 2.13989L4.31261 10.0304L1.62207 8.40885Z" fill="url(#paint0_linear)"/>
<path d="M1.66907 21.6794C0.607542 19.6915 0 17.4187 0 15.0033C0 12.7644 0.52075 10.6476 1.44208 8.76831L6.04871 11.5432C5.58805 12.6016 5.33435 13.7753 5.33435 15.0033C5.33435 15.3969 5.36106 15.7836 5.41447 16.1703L1.66907 21.6794Z" fill="url(#paint1_linear)"/>
<path d="M5.48801 26.1843C4.03258 25.0717 2.80414 23.674 1.88281 22.0661L5.50136 16.7334C6.12893 19.834 8.39887 22.3239 11.3498 23.2262L5.48801 26.1843Z" fill="url(#paint2_linear)"/>
<path d="M21.1642 26.8221C19.0278 28.1993 16.4975 28.9999 13.7802 28.9999C10.8293 28.9999 8.09202 28.0568 5.85547 26.4489L11.9442 23.3755C12.5384 23.5112 13.1526 23.579 13.7869 23.579C15.4092 23.579 16.9247 23.1177 18.2066 22.3103L21.1642 26.8221Z" fill="url(#paint3_linear)"/>
<path d="M27.3324 17.7241H27.2923C26.578 21.4081 24.4416 24.5697 21.4906 26.6051L18.5264 22.1069C20.7562 20.56 22.2184 17.9615 22.2184 15.0102C22.2184 14.5285 22.1783 14.0604 22.1049 13.6058L27.3257 12.4253V17.7241H27.3324Z" fill="url(#paint4_linear)"/>
<path d="M51.1669 12.3032H55.4798C56.9553 12.3032 58.1503 13.5177 58.1503 15.0171C58.1503 16.5165 56.9553 17.7241 55.4798 17.7241H43.4959L42.875 16.279L51.1669 12.3032Z" fill="url(#paint5_linear)"/>
<path d="M45.2119 11.4755L45.2186 7.75754C45.2186 6.25814 46.4136 5.0437 47.8824 5.0437C49.3512 5.0437 50.5529 6.25814 50.5529 7.75754L50.5463 12.1607L46.447 14.1215L45.2119 11.4755Z" fill="url(#paint6_linear)"/>
<path d="M41.1592 12.3032H45.1583L46.0863 14.2911L42.7148 15.9058L41.1592 12.3032Z" fill="#496AB3"/>
<path d="M36.6662 12.3032H40.7254L43.0621 17.7241H31.6523L36.6662 12.3032Z" fill="url(#paint7_linear)"/>
<path d="M27.8402 12.3032H36.1188L31.1116 17.7241H27.7334V12.3236L27.8402 12.3032Z" fill="url(#paint8_linear)"/>
<path d="M25.1897 7.1604C26.1578 8.6123 26.8655 10.2542 27.2394 12.025L22.0385 13.1987C21.9718 12.8662 21.8783 12.5406 21.7715 12.2217L25.1897 7.1604Z" fill="url(#paint9_linear)"/>
<path d="M16.9844 1.37988C20.2357 2.1669 23.0398 4.12764 24.9425 6.80077L21.5977 11.7535C20.7431 9.62994 19.0741 7.92701 16.9844 7.0518V1.37988Z" fill="url(#paint10_linear)"/>
<path d="M13.7798 1C14.7412 1 15.6825 1.10177 16.5905 1.29174V6.90259C15.7092 6.58372 14.7612 6.4141 13.7798 6.4141C10.4684 6.4141 7.60424 8.35449 6.21557 11.1701L4.65332 10.227L8.89944 1.89557C10.415 1.31888 12.064 1 13.7798 1Z" fill="url(#paint11_linear)"/>
<defs>
<linearGradient id="paint0_linear" x1="4.03469" y1="7.58498" x2="8.12047" y2="0.345714" gradientUnits="userSpaceOnUse">
<stop stop-color="#E5524D"/>
<stop offset="1" stop-color="#E23235"/>
</linearGradient>
<linearGradient id="paint1_linear" x1="2.84387" y1="20.4327" x2="4.139" y2="8.90775" gradientUnits="userSpaceOnUse">
<stop stop-color="#A91F23"/>
<stop offset="1" stop-color="#D52A27"/>
</linearGradient>
<linearGradient id="paint2_linear" x1="7.13848" y1="24.6887" x2="5.30984" y2="17.4849" gradientUnits="userSpaceOnUse">
<stop stop-color="#E86724"/>
<stop offset="1" stop-color="#E54A25"/>
</linearGradient>
<linearGradient id="paint3_linear" x1="21.3556" y1="25.5555" x2="9.44661" y2="26.7982" gradientUnits="userSpaceOnUse">
<stop stop-color="#EF9921"/>
<stop offset="1" stop-color="#F9D408"/>
</linearGradient>
<linearGradient id="paint4_linear" x1="22.8935" y1="13.8811" x2="23.1888" y2="23.501" gradientUnits="userSpaceOnUse">
<stop stop-color="#4BB248"/>
<stop offset="1" stop-color="#82C141"/>
</linearGradient>
<linearGradient id="paint5_linear" x1="42.8778" y1="15.015" x2="58.1475" y2="15.015" gradientUnits="userSpaceOnUse">
<stop stop-color="#4F409A"/>
<stop offset="1" stop-color="#7650A1"/>
</linearGradient>
<linearGradient id="paint6_linear" x1="48.1624" y1="5.76427" x2="46.8795" y2="12.3531" gradientUnits="userSpaceOnUse">
<stop stop-color="#6556A4"/>
<stop offset="1" stop-color="#4954A4"/>
</linearGradient>
<linearGradient id="paint7_linear" x1="31.6511" y1="15.0122" x2="43.0628" y2="15.0122" gradientUnits="userSpaceOnUse">
<stop stop-color="#4F7CBE"/>
<stop offset="1" stop-color="#59A8DD"/>
</linearGradient>
<linearGradient id="paint8_linear" x1="33.4405" y1="15.4219" x2="28.6435" y2="12.3128" gradientUnits="userSpaceOnUse">
<stop stop-color="#44B46C"/>
<stop offset="1" stop-color="#48B98D"/>
</linearGradient>
<linearGradient id="paint9_linear" x1="25.993" y1="9.80802" x2="22.4842" y2="12.6207" gradientUnits="userSpaceOnUse">
<stop stop-color="#FADA07"/>
<stop offset="1" stop-color="#F7C314"/>
</linearGradient>
<linearGradient id="paint10_linear" x1="19.9042" y1="3.10823" x2="23.4159" y2="10.5491" gradientUnits="userSpaceOnUse">
<stop stop-color="#FAD00C"/>
<stop offset="1" stop-color="#E86E24"/>
</linearGradient>
<linearGradient id="paint11_linear" x1="6.42767" y1="7.33555" x2="13.8464" y2="2.59596" gradientUnits="userSpaceOnUse">
<stop stop-color="#EF9321"/>
<stop offset="1" stop-color="#EA7224"/>
</linearGradient>
</defs>
</svg>
