<svg width="70" height="70" viewBox="0 0 70 70" fill="none" xmlns="http://www.w3.org/2000/svg">
<g clip-path="url(#clip0)">
<path d="M57.9583 -1H12.0417C8.70365 -1 6 1.685 6 5V65C6 68.315 8.70365 71 12.0417 71H57.9583C61.2964 71 64 68.315 64 65V5C64 1.685 61.2964 -1 57.9583 -1ZM22.9167 1.4H47.0833V3.8H22.9167V1.4ZM56.75 6.2V18.2H13.25V6.2H56.75ZM61.5833 65C61.5833 66.995 59.9672 68.6 57.9583 68.6H12.0417C10.0328 68.6 8.41667 66.995 8.41667 65V5C8.41667 3.005 10.0328 1.4 12.0417 1.4H20.5V3.8H12.0417C11.3771 3.8 10.8333 4.34 10.8333 5V19.4C10.8333 20.06 11.3771 20.6 12.0417 20.6H57.9583C58.6229 20.6 59.1667 20.06 59.1667 19.4V5C59.1667 4.34 58.6229 3.8 57.9583 3.8H49.5V1.4H57.9583C59.9672 1.4 61.5833 3.005 61.5833 5V65Z" fill="#005453" fill-opacity="0.16"/>
<path d="M34.9987 23C31.6607 23 28.957 25.685 28.957 29C28.957 32.315 31.6607 35 34.9987 35C38.3367 35 41.0404 32.315 41.0404 29C41.0404 25.685 38.3367 23 34.9987 23ZM34.9987 32.6C32.9898 32.6 31.3737 30.995 31.3737 29C31.3737 27.005 32.9898 25.4 34.9987 25.4C37.0075 25.4 38.6237 27.005 38.6237 29C38.6237 30.995 37.0075 32.6 34.9987 32.6Z" fill="#005453" fill-opacity="0.16"/>
<path d="M50.7096 23C47.3716 23 44.668 25.685 44.668 29C44.668 32.315 47.3716 35 50.7096 35C54.0477 35 56.7513 32.315 56.7513 29C56.7513 25.685 54.0477 23 50.7096 23ZM50.7096 32.6C48.7008 32.6 47.0846 30.995 47.0846 29C47.0846 27.005 48.7008 25.4 50.7096 25.4C52.7185 25.4 54.3346 27.005 54.3346 29C54.3346 30.995 52.7185 32.6 50.7096 32.6Z" fill="#005453" fill-opacity="0.16"/>
<path d="M19.2917 23C15.9536 23 13.25 25.685 13.25 29C13.25 32.315 15.9536 35 19.2917 35C22.6297 35 25.3333 32.315 25.3333 29C25.3333 25.685 22.6297 23 19.2917 23ZM19.2917 32.6C17.2828 32.6 15.6667 30.995 15.6667 29C15.6667 27.005 17.2828 25.4 19.2917 25.4C21.3005 25.4 22.9167 27.005 22.9167 29C22.9167 30.995 21.3005 32.6 19.2917 32.6Z" fill="#005453" fill-opacity="0.16"/>
<path d="M34.9987 37.4C31.6607 37.4 28.957 40.085 28.957 43.4C28.957 46.715 31.6607 49.4 34.9987 49.4C38.3367 49.4 41.0404 46.715 41.0404 43.4C41.0404 40.085 38.3367 37.4 34.9987 37.4ZM34.9987 47C32.9898 47 31.3737 45.395 31.3737 43.4C31.3737 41.405 32.9898 39.8 34.9987 39.8C37.0075 39.8 38.6237 41.405 38.6237 43.4C38.6237 45.395 37.0075 47 34.9987 47Z" fill="#005453" fill-opacity="0.16"/>
<path d="M50.7096 37.4C47.3716 37.4 44.668 40.085 44.668 43.4C44.668 46.715 47.3716 49.4 50.7096 49.4C54.0477 49.4 56.7513 46.715 56.7513 43.4C56.7513 40.085 54.0477 37.4 50.7096 37.4ZM50.7096 47C48.7008 47 47.0846 45.395 47.0846 43.4C47.0846 41.405 48.7008 39.8 50.7096 39.8C52.7185 39.8 54.3346 41.405 54.3346 43.4C54.3346 45.395 52.7185 47 50.7096 47Z" fill="#005453" fill-opacity="0.16"/>
<path d="M19.2917 37.4C15.9536 37.4 13.25 40.085 13.25 43.4C13.25 46.715 15.9536 49.4 19.2917 49.4C22.6297 49.4 25.3333 46.715 25.3333 43.4C25.3333 40.085 22.6297 37.4 19.2917 37.4ZM19.2917 47C17.2828 47 15.6667 45.395 15.6667 43.4C15.6667 41.405 17.2828 39.8 19.2917 39.8C21.3005 39.8 22.9167 41.405 22.9167 43.4C22.9167 45.395 21.3005 47 19.2917 47Z" fill="#005453" fill-opacity="0.16"/>
<path d="M34.9987 51.8C31.6607 51.8 28.957 54.485 28.957 57.8C28.957 61.115 31.6607 63.8 34.9987 63.8C38.3367 63.8 41.0404 61.115 41.0404 57.8C41.0404 54.485 38.3367 51.8 34.9987 51.8ZM34.9987 61.4C32.9898 61.4 31.3737 59.795 31.3737 57.8C31.3737 55.805 32.9898 54.2 34.9987 54.2C37.0075 54.2 38.6237 55.805 38.6237 57.8C38.6237 59.795 37.0075 61.4 34.9987 61.4Z" fill="#005453" fill-opacity="0.16"/>
<path d="M19.2917 51.8C15.9536 51.8 13.25 54.485 13.25 57.8C13.25 61.115 15.9536 63.8 19.2917 63.8C22.6297 63.8 25.3333 61.115 25.3333 57.8C25.3333 54.485 22.6297 51.8 19.2917 51.8ZM19.2917 61.4C17.2828 61.4 15.6667 59.795 15.6667 57.8C15.6667 55.805 17.2828 54.2 19.2917 54.2C21.3005 54.2 22.9167 55.805 22.9167 57.8C22.9167 59.795 21.3005 61.4 19.2917 61.4Z" fill="#005453" fill-opacity="0.16"/>
<path d="M55.543 51.8H45.8763C45.2117 51.8 44.668 52.34 44.668 53V65C44.668 65.66 45.2117 66.2 45.8763 66.2H55.543C56.2075 66.2 56.7513 65.66 56.7513 65V53C56.7513 52.34 56.2075 51.8 55.543 51.8ZM54.3346 63.8H47.0846V54.2H54.3346V63.8Z" fill="#005453" fill-opacity="0.16"/>
<path d="M48.2904 13.4C48.955 13.4 49.4987 13.94 49.4987 14.6C49.4987 15.26 48.955 15.8 48.2904 15.8C47.6258 15.8 47.082 15.26 47.082 14.6C47.082 13.94 47.6258 13.4 48.2904 13.4Z" fill="#005453" fill-opacity="0.16"/>
<path d="M53.1263 13.4C53.7909 13.4 54.3346 13.94 54.3346 14.6C54.3346 15.26 53.7909 15.8 53.1263 15.8C52.4617 15.8 51.918 15.26 51.918 14.6C51.918 13.94 52.4617 13.4 53.1263 13.4Z" fill="#005453" fill-opacity="0.16"/>
<path d="M20.5013 11V8.60001H18.0846V11H15.668V13.4H18.0846V15.8H20.5013V13.4H22.918V11H20.5013Z" fill="#005453" fill-opacity="0.16"/>
<path d="M51.9167 60.2H50.7083C50.0437 60.2 49.5 60.74 49.5 61.4C49.5 62.06 50.0437 62.6 50.7083 62.6H51.9167C52.5813 62.6 53.125 62.06 53.125 61.4C53.125 60.74 52.5813 60.2 51.9167 60.2Z" fill="#005453" fill-opacity="0.16"/>
</g>
<defs>
<clipPath id="clip0">
<rect width="70" height="70" fill="white"/>
</clipPath>
</defs>
</svg>
