<svg width="72" height="72" viewBox="0 0 72 72" fill="none" xmlns="http://www.w3.org/2000/svg">
<path d="M28 43C21.37 43 16 48.37 16 55C16 61.63 21.37 67 28 67C34.63 67 40 61.63 40 55C40 48.37 34.63 43 28 43ZM28 64.6C22.705 64.6 18.4 60.295 18.4 55C18.4 49.705 22.705 45.4 28 45.4C33.295 45.4 37.6 49.705 37.6 55C37.6 60.295 33.295 64.6 28 64.6Z" fill="#194FB9" fill-opacity="0.16"/>
<path d="M61.5849 69.6H10.8679V40.8H30.1887C32.1962 40.8 33.8113 39.195 33.8113 37.2V7.2H47.0943V21.6H61.5849V38.4H64V19.905L48.8 4.8H33.8113V3.6C33.8113 1.605 32.1962 0 30.1887 0H3.62264C1.61509 0 0 1.605 0 3.6V37.2C0 39.195 1.61509 40.8 3.62264 40.8H8.45283V72H64V55.2H61.5849V69.6ZM49.5094 8.895L59.8792 19.2H49.5094V8.895ZM2.41509 37.2V3.6C2.41509 2.94 2.95849 2.4 3.62264 2.4H30.1887C30.8528 2.4 31.3962 2.94 31.3962 3.6V37.2C31.3962 37.86 30.8528 38.4 30.1887 38.4H3.62264C2.95849 38.4 2.41509 37.86 2.41509 37.2Z" fill="#194FB9" fill-opacity="0.16"/>
<path d="M38 30H40V32H38V30Z" fill="#194FB9" fill-opacity="0.16"/>
<path d="M43 30H57V32H43V30Z" fill="#194FB9" fill-opacity="0.16"/>
<path d="M38 25H40V27H38V25Z" fill="#194FB9" fill-opacity="0.16"/>
<path d="M43 25H57V27H43V25Z" fill="#194FB9" fill-opacity="0.16"/>
<path d="M38 35H40V37H38V35Z" fill="#194FB9" fill-opacity="0.16"/>
<path d="M43 35H57V37H43V35Z" fill="#194FB9" fill-opacity="0.16"/>
<path d="M38 40H40V42H38V40Z" fill="#194FB9" fill-opacity="0.16"/>
<path d="M43 40H57V42H43V40Z" fill="#194FB9" fill-opacity="0.16"/>
<path d="M30 4H4V12H30V4ZM27.6364 9.71429H6.36364V6.28571H27.6364V9.71429Z" fill="#194FB9" fill-opacity="0.16"/>
<path d="M9.66667 13H7.33333C6.05 13 5 14.05 5 15.3333V17.6667C5 18.95 6.05 20 7.33333 20H9.66667C10.95 20 12 18.95 12 17.6667V15.3333C12 14.05 10.95 13 9.66667 13ZM7.33333 17.6667V15.3333H9.66667V17.6667H7.33333Z" fill="#194FB9" fill-opacity="0.16"/>
<path d="M17.6667 13H15.3333C14.05 13 13 14.05 13 15.3333V17.6667C13 18.95 14.05 20 15.3333 20H17.6667C18.95 20 20 18.95 20 17.6667V15.3333C20 14.05 18.95 13 17.6667 13ZM15.3333 17.6667V15.3333H17.6667V17.6667H15.3333Z" fill="#194FB9" fill-opacity="0.16"/>
<path d="M26.6667 13H24.3333C23.05 13 22 14.05 22 15.3333V17.6667C22 18.95 23.05 20 24.3333 20H26.6667C27.95 20 29 18.95 29 17.6667V15.3333C29 14.05 27.95 13 26.6667 13ZM24.3333 17.6667V15.3333H26.6667V17.6667H24.3333Z" fill="#194FB9" fill-opacity="0.16"/>
<path d="M9.66667 22H7.33333C6.05 22 5 23.05 5 24.3333V26.6667C5 27.95 6.05 29 7.33333 29H9.66667C10.95 29 12 27.95 12 26.6667V24.3333C12 23.05 10.95 22 9.66667 22ZM7.33333 26.6667V24.3333H9.66667V26.6667H7.33333Z" fill="#194FB9" fill-opacity="0.16"/>
<path d="M17.6667 22H15.3333C14.05 22 13 23.05 13 24.3333V26.6667C13 27.95 14.05 29 15.3333 29H17.6667C18.95 29 20 27.95 20 26.6667V24.3333C20 23.05 18.95 22 17.6667 22ZM15.3333 26.6667V24.3333H17.6667V26.6667H15.3333Z" fill="#194FB9" fill-opacity="0.16"/>
<path d="M26.6667 22H24.3333C23.05 22 22 23.05 22 24.3333V26.6667C22 27.95 23.05 29 24.3333 29H26.6667C27.95 29 29 27.95 29 26.6667V24.3333C29 23.05 27.95 22 26.6667 22ZM24.3333 26.6667V24.3333H26.6667V26.6667H24.3333Z" fill="#194FB9" fill-opacity="0.16"/>
<path d="M9.66667 30H7.33333C6.05 30 5 31.05 5 32.3333V34.6667C5 35.95 6.05 37 7.33333 37H9.66667C10.95 37 12 35.95 12 34.6667V32.3333C12 31.05 10.95 30 9.66667 30ZM7.33333 34.6667V32.3333H9.66667V34.6667H7.33333Z" fill="#194FB9" fill-opacity="0.16"/>
<path d="M17.6667 30H15.3333C14.05 30 13 31.05 13 32.3333V34.6667C13 35.95 14.05 37 15.3333 37H17.6667C18.95 37 20 35.95 20 34.6667V32.3333C20 31.05 18.95 30 17.6667 30ZM15.3333 34.6667V32.3333H17.6667V34.6667H15.3333Z" fill="#194FB9" fill-opacity="0.16"/>
<path d="M26.6667 30H24.3333C23.05 30 22 31.05 22 32.3333V34.6667C22 35.95 23.05 37 24.3333 37H26.6667C27.95 37 29 35.95 29 34.6667V32.3333C29 31.05 27.95 30 26.6667 30ZM24.3333 34.6667V32.3333H26.6667V34.6667H24.3333Z" fill="#194FB9" fill-opacity="0.16"/>
<path d="M70.9409 38.0265C69.5137 36.6578 67.2753 36.6578 65.8481 38.0265L45.2516 58.6462C45.1464 58.7515 45.0713 58.8718 45.0112 58.9922L42.1117 65.2939C41.9014 65.7451 41.9916 66.2865 42.3521 66.6475C42.7127 67.0084 43.2535 67.0987 43.7042 66.8881L49.9988 63.9854C50.134 63.9253 50.2392 63.8501 50.3443 63.7448L70.9409 43.125C72.353 41.7113 72.353 39.4252 70.9409 38.0265ZM48.797 61.8949L45.6421 63.3537L47.0994 60.1954L62.4679 44.8095L64.1655 46.509L48.797 61.8949ZM65.8631 44.8095L64.1655 43.11L65.0068 42.2677L66.7044 43.9673L65.8631 44.8095ZM69.2433 41.4255L68.387 42.2828L66.6894 40.5833L67.5457 39.726C68.0264 39.2748 68.7625 39.2748 69.2433 39.726C69.724 40.1922 69.724 40.9442 69.2433 41.4255Z" fill="#194FB9" fill-opacity="0.16"/>
<path fill-rule="evenodd" clip-rule="evenodd" d="M23.0027 58.3015C23.0009 58.2785 23 58.2553 23 58.232C23 57.9845 23.1016 57.768 23.2903 57.6134C23.4645 57.4742 23.6823 57.3969 23.929 57.3969H24.5242V56.9948H23.929C23.6677 56.9948 23.45 56.9175 23.2758 56.7474C23.1848 56.6586 23.1136 56.5528 23.0664 56.4324C23.023 56.3396 23 56.2344 23 56.1195C23 56.111 23.0001 56.1025 23.0003 56.0942C23.0001 56.0852 23 56.0761 23 56.067C23 55.7887 23.0871 55.5567 23.2758 55.3711C23.45 55.201 23.6677 55.1082 23.929 55.1082H24.5242V50.0052C24.5242 49.7533 24.5882 49.547 24.7252 49.3666C24.7548 49.3153 24.79 49.2683 24.8305 49.2255C24.9831 49.0805 25.1508 49 25.3644 49H25.4677H28.2403H28.278C29.0102 49 29.6508 49.1611 30.2153 49.4993C30.7797 49.8376 31.222 50.3047 31.5271 50.9007C31.8475 51.4966 32 52.1893 32 52.9624C32 52.977 31.9999 52.9916 31.9998 53.0061C31.9999 53.0212 32 53.0364 32 53.0515C32 53.8093 31.8403 54.4897 31.521 55.0773C31.2016 55.6649 30.7516 56.1443 30.1855 56.4845C29.6194 56.8093 28.9661 56.9794 28.2403 56.9794H26.4113V57.3814H27.979C28.2403 57.3814 28.4581 57.4588 28.6323 57.5979C28.821 57.7526 28.9226 57.9691 28.9226 58.2165C28.9226 58.4485 28.821 58.665 28.6323 58.8196C28.4581 58.9588 28.2403 59.0361 27.979 59.0361H26.4113V59.9794C26.4113 60.2577 26.3242 60.4897 26.15 60.6907C25.9468 60.9072 25.729 61 25.4532 61C25.4373 61 25.4216 60.9997 25.406 60.999C25.3922 60.9997 25.3784 61 25.3644 61C25.1508 61 24.9678 60.9195 24.8305 60.7745C24.7859 60.7274 24.7492 60.679 24.7195 60.6284C24.5859 60.4538 24.5097 60.2359 24.5097 59.9948V59.0515H23.9145C23.6805 59.0515 23.4725 58.982 23.3031 58.8561C23.2714 58.8373 23.2415 58.8163 23.2136 58.7933C23.0763 58.6805 23 58.5356 23 58.3584C23 58.3392 23.0009 58.3202 23.0027 58.3015ZM28.2113 55.1237H26.3823V50.9021H28.2113C28.6032 50.9021 28.9371 50.9948 29.2274 51.1804C29.5177 51.366 29.75 51.6134 29.9097 51.9381C30.0694 52.2474 30.1564 52.634 30.1564 53.067C30.1564 53.4691 30.0694 53.8247 29.9097 54.134C29.7355 54.4433 29.5177 54.6907 29.2274 54.8608C28.9371 55.0309 28.5887 55.1237 28.2113 55.1237Z" fill="#194FB9" fill-opacity="0.16"/>
</svg>
