<svg width="70" height="70" viewBox="0 0 70 70" fill="none" xmlns="http://www.w3.org/2000/svg">
<g clip-path="url(#clip0)">
<path d="M57.9583 -1H12.0417C8.70365 -1 6 1.685 6 5V65C6 68.315 8.70365 71 12.0417 71H57.9583C61.2964 71 64 68.315 64 65V5C64 1.685 61.2964 -1 57.9583 -1ZM22.9167 1.4H47.0833V3.8H22.9167V1.4ZM56.75 6.2V18.2H13.25V6.2H56.75ZM61.5833 65C61.5833 66.995 59.9672 68.6 57.9583 68.6H12.0417C10.0328 68.6 8.41667 66.995 8.41667 65V5C8.41667 3.005 10.0328 1.4 12.0417 1.4H20.5V3.8H12.0417C11.3771 3.8 10.8333 4.34 10.8333 5V19.4C10.8333 20.06 11.3771 20.6 12.0417 20.6H57.9583C58.6229 20.6 59.1667 20.06 59.1667 19.4V5C59.1667 4.34 58.6229 3.8 57.9583 3.8H49.5V1.4H57.9583C59.9672 1.4 61.5833 3.005 61.5833 5V65Z" fill="#AF5BA0" fill-opacity="0.16"/>
<path d="M35 23C31.685 23 29 25.685 29 29C29 32.315 31.685 35 35 35C38.315 35 41 32.315 41 29C41 25.685 38.315 23 35 23ZM35 32.6C33.005 32.6 31.4 30.995 31.4 29C31.4 27.005 33.005 25.4 35 25.4C36.995 25.4 38.6 27.005 38.6 29C38.6 30.995 36.995 32.6 35 32.6Z" fill="#AF5BA0" fill-opacity="0.16"/>
<path d="M51 23C47.685 23 45 25.685 45 29C45 32.315 47.685 35 51 35C54.315 35 57 32.315 57 29C57 25.685 54.315 23 51 23ZM51 32.6C49.005 32.6 47.4 30.995 47.4 29C47.4 27.005 49.005 25.4 51 25.4C52.995 25.4 54.6 27.005 54.6 29C54.6 30.995 52.995 32.6 51 32.6Z" fill="#AF5BA0" fill-opacity="0.16"/>
<path d="M19 23C15.685 23 13 25.685 13 29C13 32.315 15.685 35 19 35C22.315 35 25 32.315 25 29C25 25.685 22.315 23 19 23ZM19 32.6C17.005 32.6 15.4 30.995 15.4 29C15.4 27.005 17.005 25.4 19 25.4C20.995 25.4 22.6 27.005 22.6 29C22.6 30.995 20.995 32.6 19 32.6Z" fill="#AF5BA0" fill-opacity="0.16"/>
<path d="M35 37C31.685 37 29 39.685 29 43C29 46.315 31.685 49 35 49C38.315 49 41 46.315 41 43C41 39.685 38.315 37 35 37ZM35 46.6C33.005 46.6 31.4 44.995 31.4 43C31.4 41.005 33.005 39.4 35 39.4C36.995 39.4 38.6 41.005 38.6 43C38.6 44.995 36.995 46.6 35 46.6Z" fill="#AF5BA0" fill-opacity="0.16"/>
<path d="M51 37C47.685 37 45 39.685 45 43C45 46.315 47.685 49 51 49C54.315 49 57 46.315 57 43C57 39.685 54.315 37 51 37ZM51 46.6C49.005 46.6 47.4 44.995 47.4 43C47.4 41.005 49.005 39.4 51 39.4C52.995 39.4 54.6 41.005 54.6 43C54.6 44.995 52.995 46.6 51 46.6Z" fill="#AF5BA0" fill-opacity="0.16"/>
<path d="M19 37C15.685 37 13 39.685 13 43C13 46.315 15.685 49 19 49C22.315 49 25 46.315 25 43C25 39.685 22.315 37 19 37ZM19 46.6C17.005 46.6 15.4 44.995 15.4 43C15.4 41.005 17.005 39.4 19 39.4C20.995 39.4 22.6 41.005 22.6 43C22.6 44.995 20.995 46.6 19 46.6Z" fill="#AF5BA0" fill-opacity="0.16"/>
<path d="M35 52C31.685 52 29 54.685 29 58C29 61.315 31.685 64 35 64C38.315 64 41 61.315 41 58C41 54.685 38.315 52 35 52ZM35 61.6C33.005 61.6 31.4 59.995 31.4 58C31.4 56.005 33.005 54.4 35 54.4C36.995 54.4 38.6 56.005 38.6 58C38.6 59.995 36.995 61.6 35 61.6Z" fill="#AF5BA0" fill-opacity="0.16"/>
<path d="M19 52C15.685 52 13 54.685 13 58C13 61.315 15.685 64 19 64C22.315 64 25 61.315 25 58C25 54.685 22.315 52 19 52ZM19 61.6C17.005 61.6 15.4 59.995 15.4 58C15.4 56.005 17.005 54.4 19 54.4C20.995 54.4 22.6 56.005 22.6 58C22.6 59.995 20.995 61.6 19 61.6Z" fill="#AF5BA0" fill-opacity="0.16"/>
<path d="M55.8 52H46.2C45.54 52 45 52.525 45 53.1667V64.8333C45 65.475 45.54 66 46.2 66H55.8C56.46 66 57 65.475 57 64.8333V53.1667C57 52.525 56.46 52 55.8 52ZM54.6 63.6667H47.4V54.3333H54.6V63.6667Z" fill="#AF5BA0" fill-opacity="0.16"/>
<path d="M48 13C48.55 13 49 13.45 49 14C49 14.55 48.55 15 48 15C47.45 15 47 14.55 47 14C47 13.45 47.45 13 48 13Z" fill="#AF5BA0" fill-opacity="0.16"/>
<path d="M53 13C53.55 13 54 13.45 54 14C54 14.55 53.55 15 53 15C52.45 15 52 14.55 52 14C52 13.45 52.45 13 53 13Z" fill="#AF5BA0" fill-opacity="0.16"/>
<path d="M20.6667 11.3333V9H18.3333V11.3333H16V13.6667H18.3333V16H20.6667V13.6667H23V11.3333H20.6667Z" fill="#AF5BA0" fill-opacity="0.16"/>
<path d="M51.6667 60H50.3333C49.6 60 49 60.45 49 61C49 61.55 49.6 62 50.3333 62H51.6667C52.4 62 53 61.55 53 61C53 60.45 52.4 60 51.6667 60Z" fill="#AF5BA0" fill-opacity="0.16"/>
</g>
<defs>
<clipPath id="clip0">
<rect width="70" height="70" fill="white"/>
</clipPath>
</defs>
</svg>
