<svg width="77" height="64" viewBox="0 0 77 64" fill="none" xmlns="http://www.w3.org/2000/svg">
<path d="M71.7664 12.8459H64.7281L63.1039 5.40478C62.4121 2.2201 59.7051 0 56.5018 0H32.0482C28.8449 0 26.1379 2.2201 25.4461 5.40478L23.8219 12.8459H22.1525V9.67655C22.1525 7.88517 20.7238 6.43062 18.9643 6.43062H8.64746C6.88789 6.43062 5.45918 7.88517 5.45918 9.67655V12.8612H5.23359C2.34609 12.8459 0 15.2344 0 18.1742V54.2163C0 57.156 2.34609 59.5445 5.23359 59.5445H10.5725H29.4766C33.7477 62.3617 38.8309 64 44.275 64C49.7191 64 54.8023 62.3617 59.0734 59.5445H71.7664C74.6539 59.5445 77 57.156 77 54.2163V18.1742C77 15.2344 74.6539 12.8459 71.7664 12.8459ZM28.3637 6.06316C28.7547 4.30239 30.2586 3.0622 32.0332 3.0622H56.4867C58.2613 3.0622 59.7803 4.30239 60.1562 6.06316L61.6301 12.8459H59.0584C54.7873 10.0287 49.7041 8.39043 44.26 8.39043C38.8158 8.39043 33.7326 10.0287 29.4615 12.8459H26.8898L28.3637 6.06316ZM8.46699 9.67655C8.46699 9.56938 8.54219 9.49282 8.64746 9.49282H18.9492C19.0545 9.49282 19.1297 9.56938 19.1297 9.67655V12.8612H8.45195V9.67655H8.46699ZM12.0764 56.467V39.8392C12.0764 38.9971 11.3996 38.3081 10.5725 38.3081C9.74531 38.3081 9.06855 38.9971 9.06855 39.8392V56.467H5.23359C4.01543 56.467 3.00781 55.4565 3.00781 54.201V18.1742C3.00781 16.934 4.00039 15.9081 5.23359 15.9081H6.96309H20.6486H25.025H25.6266C20.3027 20.9761 16.9791 28.2029 16.9791 36.1952C16.9791 44.1876 20.3178 51.399 25.6266 56.4823H12.0764V56.467ZM58.1561 56.467C56.3664 57.7378 54.3963 58.7789 52.2908 59.5292C49.7793 60.4325 47.0723 60.9225 44.26 60.9225C41.4477 60.9225 38.7557 60.4325 36.2291 59.5292C34.1236 58.7789 32.1535 57.7378 30.3639 56.467C24.0775 51.9962 19.9568 44.5703 19.9568 36.1799C19.9568 27.7895 24.0775 20.3789 30.3639 15.8928C32.1535 14.622 34.1236 13.5809 36.2291 12.8306C38.7406 11.9273 41.4477 11.4373 44.26 11.4373C47.0723 11.4373 49.7643 11.9273 52.2908 12.8306C54.3963 13.5809 56.3664 14.622 58.1561 15.8928C64.4424 20.3636 68.5631 27.7895 68.5631 36.1799C68.5631 44.5703 64.4424 51.9962 58.1561 56.467ZM73.9922 54.2163C73.9922 55.4565 72.9996 56.4823 71.7664 56.4823H62.9084C68.2322 51.4144 71.5559 44.1876 71.5559 36.1952C71.5559 28.2029 68.2172 20.9914 62.9084 15.9081H63.51H71.7664C72.9846 15.9081 73.9922 16.9187 73.9922 18.1742V54.2163Z" fill="#D9112F" fill-opacity="0.16"/>
<path d="M44.5 16C33.7475 16 25 24.9718 25 36C25 47.0282 33.7475 56 44.5 56C46.0594 56 47.6188 55.802 49.1337 55.4364C49.9356 55.2384 50.4257 54.4158 50.2178 53.5933C50.0248 52.7708 49.2228 52.2681 48.4208 52.4813C47.1436 52.8012 45.8218 52.9688 44.4851 52.9688C35.3663 52.9688 27.9554 45.3679 27.9554 36.0152C27.9554 26.6626 35.3812 19.0465 44.5 19.0465C53.6188 19.0465 61.0297 26.6474 61.0297 36C61.0297 39.412 60.0495 42.687 58.1931 45.5049C57.7327 46.2056 57.9109 47.15 58.5941 47.6222C59.2772 48.0944 60.198 47.9116 60.6584 47.211C62.8564 43.8903 64 40.0213 64 36C64 24.9718 55.2525 16 44.5 16Z" fill="#D9112F" fill-opacity="0.16"/>
<path d="M10.5 21C7.46909 21 5 23.4691 5 26.5C5 29.5309 7.46909 32 10.5 32C13.5309 32 16 29.5309 16 26.5C16 23.4691 13.5309 21 10.5 21ZM10.5 29.043C9.09543 29.043 7.95699 27.9046 7.95699 26.5C7.95699 25.0954 9.09543 23.957 10.5 23.957C11.9046 23.957 13.043 25.0954 13.043 26.5C13.043 27.9046 11.9046 29.043 10.5 29.043Z" fill="#D9112F" fill-opacity="0.16"/>
<path d="M55.955 51.2112C55.94 51.1217 55.91 51.0174 55.865 50.928C55.82 50.8385 55.775 50.7491 55.73 50.6745C55.67 50.6 55.61 50.5106 55.55 50.4509C55.49 50.3913 55.4 50.3168 55.325 50.2571C55.25 50.1975 55.16 50.1528 55.07 50.123C54.98 50.0932 54.89 50.0634 54.785 50.0335C54.59 49.9888 54.395 49.9888 54.2 50.0335C54.11 50.0484 54.005 50.0783 53.915 50.123C53.825 50.1677 53.735 50.2124 53.66 50.2571C53.585 50.3168 53.51 50.3764 53.435 50.4509C53.36 50.5255 53.3 50.6 53.255 50.6745C53.195 50.7491 53.15 50.8385 53.12 50.928C53.075 51.0174 53.06 51.1068 53.03 51.2112C53.015 51.3006 53 51.405 53 51.5093C53 51.6137 53.015 51.7031 53.03 51.8075C53.045 51.9118 53.075 52.0012 53.12 52.0907C53.165 52.1801 53.21 52.2696 53.255 52.3441C53.315 52.4186 53.375 52.5081 53.435 52.5677C53.51 52.6422 53.585 52.7019 53.66 52.7466C53.75 52.8062 53.825 52.8509 53.915 52.8807C54.005 52.9106 54.095 52.9404 54.2 52.9702C54.29 52.9851 54.395 53 54.5 53C54.605 53 54.695 52.9851 54.8 52.9702C54.89 52.9553 54.995 52.9255 55.085 52.8807C55.175 52.836 55.265 52.7913 55.34 52.7466C55.415 52.687 55.505 52.6273 55.565 52.5677C55.85 52.2845 56 51.9118 56 51.5093C55.985 51.405 55.97 51.3155 55.955 51.2112Z" fill="#D9112F" fill-opacity="0.16"/>
</svg>
