<svg width="104" height="104" viewBox="0 0 104 104" fill="none" xmlns="http://www.w3.org/2000/svg">
<path d="M103.554 28.1269L97.0407 21.6137C96.7551 21.3279 96.3676 21.1674 95.9636 21.1674H91.3453L32.9782 0.0905821C32.5743 -0.0552617 32.1275 -0.0239804 31.7478 0.177113L4.40152 14.6544H3.15169C1.41375 14.6544 0 16.0684 0 17.8061V27.5758C0 29.261 1.33047 30.6375 2.99569 30.7196C3.04708 30.7249 3.09908 30.7275 3.15169 30.7275H19.5392V42.2303C19.5392 43.4157 20.1977 44.4494 21.1677 44.9875V94.4399H19.4344C18.593 94.4399 17.911 95.122 17.911 95.9633V100.953H16.1779C15.3365 100.953 14.6545 101.635 14.6545 102.477C14.6545 103.318 15.3365 104 16.1779 104H38.9738C39.8151 104 40.4972 103.318 40.4972 102.477C40.4972 101.635 39.8151 100.953 38.9738 100.953H37.2407V95.9636C37.2407 95.1222 36.5586 94.4401 35.7173 94.4401H33.9842V45.1453C34.9154 44.7651 35.6287 43.9528 35.8595 42.914L38.5677 30.7275H74.7953C75.6366 30.7275 76.3187 30.0454 76.3187 29.2041C76.3187 28.3627 75.6366 27.6806 74.7953 27.6806H31.2538L34.7202 24.2143H83.0424V27.6806H81.3099C80.4686 27.6806 79.7865 28.3627 79.7865 29.2041C79.7865 30.0454 80.4686 30.7275 81.3099 30.7275H83.0424V47.115C83.0424 49.2182 84.4082 51.0069 86.2989 51.6447V53.8647C86.2989 55.2463 87.1325 56.4535 88.373 56.8687C89.0801 57.1055 89.5554 57.7661 89.5554 58.513C89.5554 59.4687 88.7778 60.2461 87.8223 60.2461C86.8668 60.2461 86.0892 59.4685 86.0892 58.513C86.0892 57.6716 85.4072 56.9895 84.5658 56.9895C83.7245 56.9895 83.0424 57.6716 83.0424 58.513C83.0424 61.1487 85.1868 63.2929 87.8223 63.2929C90.4579 63.2929 92.6022 61.1485 92.6022 58.513C92.6022 56.4675 91.3079 54.6556 89.377 53.992C89.363 53.9675 89.3457 53.9199 89.3457 53.8649V51.6449C91.2364 51.0073 92.6022 49.2184 92.6022 47.1152V30.7277H102.477C103.093 30.7277 103.648 30.3566 103.884 29.7873C104.12 29.2181 103.989 28.5626 103.554 28.1269ZM30.9374 4.05375V11.6076L26.882 6.20058L30.9374 4.05375ZM24.2145 7.72219L29.4139 14.6544H24.2145V7.72219ZM30.9374 17.7013V23.6882L30.5321 24.0935L25.738 17.7013H30.9374ZM24.2145 20.7484L28.3556 26.2699L26.9449 27.6808H24.2145V20.7484ZM22.6773 30.7277C22.682 30.7277 22.6864 30.7283 22.6911 30.7283C22.6958 30.7283 22.7002 30.7277 22.7049 30.7277H26.0524V37.3457C26.0524 38.1871 26.7345 38.8692 27.5758 38.8692H33.6371L32.8851 42.2534C32.8744 42.3018 32.8323 42.3355 32.7827 42.3355H22.6911C22.6332 42.3355 22.5863 42.2886 22.5863 42.2307V30.7277H22.6773ZM29.4139 68.3875H24.2145V61.4553L29.4139 68.3875ZM25.738 84.4608H30.9374V91.3932L25.738 84.4608ZM29.4139 94.4401H24.2145V87.5079L29.4139 94.4401ZM24.2145 81.4139V74.4815L29.4139 81.4139H24.2145ZM25.738 71.4344H30.9374V78.3668L25.738 71.4344ZM25.738 58.4084H30.9374V65.3408L25.738 58.4084ZM24.2145 55.3613V48.4291L29.4139 55.3613H24.2145ZM25.738 45.3822H30.9374V52.3146L25.738 45.3822ZM14.6545 21.1676H14.5498C13.7085 21.1676 13.0264 21.8497 13.0264 22.6911C13.0264 23.5324 13.7085 24.2145 14.5498 24.2145H14.6545V27.6808H3.15169C3.0938 27.6808 3.04688 27.6339 3.04688 27.576V24.2145H8.03644C8.87778 24.2145 9.55987 23.5324 9.55987 22.6911C9.55987 21.8497 8.87778 21.1676 8.03644 21.1676H3.04688V17.8061C3.04688 17.7482 3.0938 17.7013 3.15169 17.7013H14.5496C14.6075 17.7013 14.6545 17.7482 14.6545 17.8061V21.1676ZM21.0626 27.681V27.6808H17.7013V17.8061C17.7013 16.0682 16.2876 14.6544 14.5496 14.6544H10.9137L21.1677 9.22593V16.1761C21.1677 16.1767 21.1677 16.1773 21.1677 16.1781C21.1677 16.1789 21.1677 16.1793 21.1677 16.1801V27.681H21.0626ZM34.1939 97.487V100.953H20.9578V97.487H34.1939ZM35.4463 30.7277L34.3143 35.8223H29.0993V30.7277H35.4463ZM34.089 21.1674V21.1676C34.0539 21.1676 34.0192 21.1705 33.9842 21.1727V3.69321L82.3745 21.1674H34.089ZM86.0891 30.7277H89.5552V42.6619C89.0175 42.4519 88.4333 42.3353 87.8221 42.3353C87.2109 42.3353 86.6267 42.4519 86.0891 42.6619V30.7277ZM87.8221 48.8483C86.8664 48.8483 86.0891 48.0707 86.0891 47.1152C86.0891 46.1597 86.8666 45.3822 87.8221 45.3822C88.7776 45.3822 89.5552 46.1597 89.5552 47.1152C89.5552 48.0707 88.7778 48.8483 87.8221 48.8483ZM89.5552 27.6808H86.0891V24.2145H89.5552V27.6808ZM92.602 27.6808V24.2145H95.3325L98.7986 27.6808H92.602Z" fill="#005453"/>
</svg>
