<svg width="65" height="66" viewBox="0 0 65 66" fill="none" xmlns="http://www.w3.org/2000/svg">
<path d="M60.2503 0H55.2733C54.0417 0 54.0417 1.90483 55.2733 1.90483H60.2503C61.8246 1.90483 63.1069 3.18741 63.1069 4.76207V8.02568H1.91042V4.76207C1.91042 3.18741 3.19275 1.90483 4.7671 1.90483H49.6869C50.9184 1.90483 50.9184 0 49.6869 0H4.7671C2.15165 0 0.00595923 2.13341 0.00595923 4.76207V46.7191C-0.133701 49.3732 2.20243 51.6209 4.80519 51.6209H42.7927L42.8181 64.0657C42.8181 64.9166 43.91 65.3737 44.4941 64.6753L51.0708 56.9544L61.2152 57.3861C62.0785 57.4242 62.5356 56.3321 61.9008 55.7353L57.3301 51.4685H60.2376C62.8657 51.4685 64.9987 49.3351 64.9987 46.7064V4.76207C65.0114 2.13341 62.8784 0 60.2503 0ZM41.0026 9.93051L36.6858 19.5054H9.83295C7.72536 19.5054 6.01134 21.2198 6.01134 23.3278V33.4488C6.01134 35.5568 7.72536 37.2711 9.83295 37.2711H16.5112C17.7428 37.2711 17.7428 35.3663 16.5112 35.3663H9.83295C8.77916 35.3663 7.9158 34.5028 7.9158 33.4488V23.3278C7.9158 22.2738 8.77916 21.4103 9.83295 21.4103H54.6639C55.7177 21.4103 56.581 22.2738 56.581 23.3278V33.4488C56.581 34.5028 55.7177 35.3663 54.6639 35.3663H21.5771C20.3456 35.3663 20.3456 37.2711 21.5771 37.2711H28.6744L23.1261 49.5636H4.7671C3.19275 49.5636 1.91042 48.2811 1.91042 46.7064V9.93051H41.0026ZM51.2866 55.0495L49.6107 51.2018C49.1155 50.0716 47.3761 50.8335 47.8713 51.9637L49.5472 55.8115L44.7226 61.4752L44.6845 42.2872L58.7267 55.367L51.2866 55.0495ZM60.2503 49.5763H55.2987L44.3798 39.3919C43.7831 38.8331 42.7801 39.2776 42.7801 40.0903L42.7927 49.5763H25.2337L30.782 37.2838H54.6639C56.7715 37.2838 58.4855 35.5695 58.4855 33.4615V23.3405C58.4855 21.2325 56.7715 19.5181 54.6639 19.5181H38.7807L43.0975 9.94321H63.1069V46.7318C63.1069 48.2938 61.8246 49.5763 60.2503 49.5763Z" fill="#AF5BA0"/>
<path d="M44.7479 33.106C45.2684 33.106 45.7001 32.6743 45.7001 32.1536V24.6359C45.662 23.3787 43.8337 23.3787 43.7957 24.6359V32.1536C43.7957 32.6743 44.2146 33.106 44.7479 33.106Z" fill="#AF5BA0"/>
<path d="M29.3853 33.0297H32.5213C33.7783 32.9916 33.7783 31.163 32.5213 31.1249H30.3376V29.3089H32.2928C32.8134 29.3089 33.245 28.8772 33.245 28.3565C33.245 27.8359 32.8134 27.4041 32.2928 27.4041H30.3376V25.5882H32.5213C33.7783 25.5501 33.7783 23.7214 32.5213 23.6833H29.3853C28.8648 23.6833 28.4331 24.1151 28.4331 24.6358V32.09C28.4331 32.6106 28.8648 33.0297 29.3853 33.0297Z" fill="#AF5BA0"/>
<path d="M35.4795 32.5981C35.6827 32.7885 35.9112 32.8774 36.1524 32.8774C36.2159 32.8774 37.6887 32.8901 38.2727 32.8774C43.364 32.7758 43.3893 23.5946 38.1965 23.6708H36.127C35.5938 23.6708 35.1748 24.1025 35.1748 24.6359V31.8107C35.1875 32.1028 35.2891 32.3568 35.4795 32.5981ZM38.1965 25.5756C40.0502 25.5756 40.1899 27.6455 40.1899 28.2677C40.1899 30.0964 39.2122 30.9472 38.2346 30.9599C37.968 30.9599 37.5109 30.9599 37.092 30.9599C37.092 29.1694 37.0793 27.3661 37.0793 25.5756H38.1965Z" fill="#AF5BA0"/>
<path d="M18.8477 31.6963C19.1905 31.29 19.127 30.6931 18.7334 30.3502C18.3271 30.0074 17.7304 30.0709 17.3876 30.4645C15.7752 32.1916 12.8804 30.6042 12.9439 28.3819C12.9185 26.1596 15.4958 24.7881 17.3241 26.058C18.3906 26.7311 19.4063 25.2199 18.3906 24.4834C15.3181 22.3627 11.014 24.6611 11.0394 28.3946C10.9632 32.3567 16.1307 34.8075 18.8477 31.6963Z" fill="#AF5BA0"/>
<path d="M48.3416 25.5755H49.4589V32.1408C49.497 33.398 51.3253 33.398 51.3634 32.1408V25.5755H52.4933C53.7503 25.5374 53.7503 23.7088 52.4933 23.6707H48.3416C47.0847 23.7214 47.0847 25.5374 48.3416 25.5755Z" fill="#AF5BA0"/>
<path d="M21.7296 33.1059C22.2502 33.1059 22.6818 32.6741 22.6818 32.1535V30.0582L25.0815 32.7884C25.9067 33.7281 27.316 32.4455 26.5161 31.5312L24.6244 29.3724C27.9 28.3438 27.2017 23.7468 23.7483 23.6833C23.7483 23.6833 21.755 23.6833 21.7423 23.6833C21.2218 23.6833 20.7901 24.1151 20.7901 24.6358V32.1535C20.7774 32.6741 21.1964 33.1059 21.7296 33.1059ZM23.7229 25.5755C24.3324 25.5755 24.8402 26.0326 24.8402 26.5787C24.8402 27.1247 24.3324 27.5819 23.7229 27.5819C23.4817 27.5819 23.0754 27.5819 22.6818 27.5819C22.6818 26.9089 22.6818 26.2485 22.6818 25.5755H23.7229Z" fill="#AF5BA0"/>
<path d="M5.7198 5.99382C6.95135 5.99382 6.95135 4.08899 5.7198 4.08899C4.50095 4.08899 4.50095 5.99382 5.7198 5.99382Z" fill="#AF5BA0"/>
<path d="M9.69356 5.99382C10.9251 5.99382 10.9251 4.08899 9.69356 4.08899C8.47471 4.08899 8.47471 5.99382 9.69356 5.99382Z" fill="#AF5BA0"/>
<path d="M13.6674 5.99382C14.899 5.99382 14.899 4.08899 13.6674 4.08899C12.4486 4.08899 12.4486 5.99382 13.6674 5.99382Z" fill="#AF5BA0"/>
</svg>
