<svg width="72" height="72" viewBox="0 0 72 72" fill="none" xmlns="http://www.w3.org/2000/svg">
<path d="M37.5 9.4C38.7375 9.4 39.75 10.48 39.75 11.8H42C42 9.16 39.975 7 37.5 7C35.025 7 33 9.16 33 11.8V14.2C33 16.84 35.025 19 37.5 19C39.975 19 42 16.84 42 14.2H39.75C39.75 15.52 38.7375 16.6 37.5 16.6C36.2625 16.6 35.25 15.52 35.25 14.2V11.8C35.25 10.48 36.2625 9.4 37.5 9.4Z" fill="#0A95FA" fill-opacity="0.16"/>
<path d="M49.625 7H44V19H46.25V14.2H49.625C50.2438 14.2 50.75 14.74 50.75 15.4V19H53V15.4C53 14.47 52.6625 13.645 52.1281 13C52.6625 12.355 53 11.53 53 10.6C53 8.62 51.4812 7 49.625 7ZM46.25 11.8V9.4H49.625C50.2438 9.4 50.75 9.94 50.75 10.6C50.75 11.26 50.2438 11.8 49.625 11.8H46.25Z" fill="#0A95FA" fill-opacity="0.16"/>
<path d="M62.33 14.2H61.655L59.255 7H56V19H58.4V11.995L59.93 16.6H64.055L65.6 11.995V19H68V7H64.73L62.33 14.2Z" fill="#0A95FA" fill-opacity="0.16"/>
<path d="M5 23H7V25H5V23Z" fill="#0A95FA" fill-opacity="0.16"/>
<path d="M9 23H11V25H9V23Z" fill="#0A95FA" fill-opacity="0.16"/>
<path d="M14 23H16V25H14V23Z" fill="#0A95FA" fill-opacity="0.16"/>
<path d="M59.4545 35H40.5455C38.5955 35 37 36.5911 37 38.5357V40.8929C37 42.8375 38.5955 44.4286 40.5455 44.4286V46.7857C38.5955 46.7857 37 48.3768 37 50.3214V52.6786C37 54.6232 38.5955 56.2143 40.5455 56.2143V58.5714C38.5955 58.5714 37 60.1625 37 62.1071V64.4643C37 66.4089 38.5955 68 40.5455 68H59.4545C61.4045 68 63 66.4089 63 64.4643V62.1071C63 60.1625 61.4045 58.5714 59.4545 58.5714V56.2143C61.4045 56.2143 63 54.6232 63 52.6786V50.3214C63 48.3768 61.4045 46.7857 59.4545 46.7857V44.4286C61.4045 44.4286 63 42.8375 63 40.8929V38.5357C63 36.5911 61.4045 35 59.4545 35ZM60.6364 62.1071V64.4643C60.6364 65.1125 60.1045 65.6429 59.4545 65.6429H40.5455C39.8955 65.6429 39.3636 65.1125 39.3636 64.4643V62.1071C39.3636 61.4589 39.8955 60.9286 40.5455 60.9286H59.4545C60.1045 60.9286 60.6364 61.4589 60.6364 62.1071ZM57.0909 58.5714H42.9091V56.2143H57.0909V58.5714ZM60.6364 50.3214V52.6786C60.6364 53.3268 60.1045 53.8571 59.4545 53.8571H40.5455C39.8955 53.8571 39.3636 53.3268 39.3636 52.6786V50.3214C39.3636 49.6732 39.8955 49.1429 40.5455 49.1429H59.4545C60.1045 49.1429 60.6364 49.6732 60.6364 50.3214ZM57.0909 46.7857H42.9091V44.4286H57.0909V46.7857ZM60.6364 40.8929C60.6364 41.5411 60.1045 42.0714 59.4545 42.0714H40.5455C39.8955 42.0714 39.3636 41.5411 39.3636 40.8929V38.5357C39.3636 37.8875 39.8955 37.3571 40.5455 37.3571H59.4545C60.1045 37.3571 60.6364 37.8875 60.6364 38.5357V40.8929Z" fill="#0A95FA" fill-opacity="0.16"/>
<path d="M66.1936 0H33.6774C30.4694 0 27.871 2.59839 27.871 5.80645V18.5806H3.48387C1.56774 18.5806 0 20.1484 0 22.0645V68.5161C0 70.4323 1.56774 72 3.48387 72H63.871C65.7871 72 67.3548 70.4323 67.3548 68.5161V25.4323C69.9968 24.8952 72 22.5435 72 19.7419V5.80645C72 2.59839 69.4016 0 66.1936 0ZM3.48387 20.9032H27.9871C28.5242 23.5452 30.8758 25.5484 33.6774 25.5484H37.7855L39.7161 27.871H2.32258V22.0645C2.32258 21.4258 2.84516 20.9032 3.48387 20.9032ZM63.871 69.6774H3.48387C2.84516 69.6774 2.32258 69.1548 2.32258 68.5161V30.1935H41.6468L42.5177 31.2387C43.1855 32.0516 44.1871 32.5161 45.2323 32.5161C46.7565 32.5161 48.0484 31.5435 48.5419 30.1935H65.0323V68.5161C65.0323 69.1548 64.5097 69.6774 63.871 69.6774ZM48.7742 27.871V25.5484H65.0323V27.871H48.7742ZM69.6774 19.7419C69.6774 21.6581 68.1097 23.2258 66.1936 23.2258H46.4516V28.9887C46.4516 29.6565 45.9145 30.1935 45.2468 30.1935C44.8839 30.1935 44.55 30.0339 44.3177 29.7581L38.8742 23.2258H33.6774C31.7613 23.2258 30.1935 21.6581 30.1935 19.7419V5.80645C30.1935 3.89032 31.7613 2.32258 33.6774 2.32258H66.1936C68.1097 2.32258 69.6774 3.89032 69.6774 5.80645V19.7419Z" fill="#0A95FA" fill-opacity="0.16"/>
<path d="M20 59C27.1648 59 33 53.1648 33 46C33 38.8352 27.1648 33 20 33C12.8352 33 7 38.8352 7 46C7 53.1648 12.8352 59 20 59ZM20 56.6364C17.4886 56.6364 15.1841 55.7648 13.367 54.3023L20.4875 47.1818H30.5625C29.9716 52.4852 25.4659 56.6364 20 56.6364ZM28.3023 39.367C29.5284 40.9034 30.3409 42.7648 30.5625 44.8182H22.8511L28.3023 39.367ZM26.633 37.6977L20 44.3307L13.367 37.6977C15.1841 36.2352 17.4886 35.3636 20 35.3636C22.5114 35.3636 24.8159 36.2352 26.633 37.6977ZM11.6977 39.367L18.3307 46L11.6977 52.633C10.2352 50.8159 9.36364 48.5114 9.36364 46C9.36364 43.4886 10.2352 41.1841 11.6977 39.367Z" fill="#0A95FA" fill-opacity="0.16"/>
<path d="M5 60H7V62H5V60Z" fill="#0A95FA" fill-opacity="0.16"/>
<path d="M9 60H35V62H9V60Z" fill="#0A95FA" fill-opacity="0.16"/>
<path d="M5 65H12V67H5V65Z" fill="#0A95FA" fill-opacity="0.16"/>
<path d="M14 65H35V67H14V65Z" fill="#0A95FA" fill-opacity="0.16"/>
</svg>
