<svg width="72" height="84" viewBox="0 0 72 84" fill="none" xmlns="http://www.w3.org/2000/svg">
<path d="M71.4866 48.6937C71.332 47.9555 70.7695 47.4305 70.1227 47.4305C68.2104 47.4305 64.7795 46.3148 61.8689 44.8383V37.7344C61.8689 35.0273 59.9706 32.8125 57.6505 32.8125H54.8383V3.28125C54.8383 1.47656 53.5728 0 52.0261 0H9.84277C8.29605 0 7.03055 1.47656 7.03055 3.28125V22.9688H2.81222C1.2655 22.9688 0 24.4453 0 26.25V73.8281C0 76.5352 1.89825 78.75 4.21833 78.75H49.8888C51.548 80.5383 53.5025 82.2281 55.8226 83.7867C56.0335 83.9344 56.2725 84 56.5256 84C56.7647 84 57.0037 83.9344 57.2287 83.7867C66.959 77.3063 70.3336 68.1188 71.4445 61.5563C72.6397 54.4523 71.5429 48.9398 71.4866 48.6937ZM9.84277 3.28125H52.0261V32.8125H27.6722L25.31 25.9383C24.6913 24.1336 23.2571 22.9688 21.6682 22.9688H9.84277V3.28125ZM2.81222 73.8281V72.1875H10.124C10.8974 72.1875 11.5301 71.4492 11.5301 70.5469C11.5301 69.6445 10.8974 68.9062 10.124 68.9062H2.81222V26.25H21.6682C22.1603 26.25 22.5399 26.7094 22.6946 27.1523L25.4084 35.0602C25.6193 35.6836 26.1396 36.0938 26.7161 36.0938H57.6505C58.4239 36.0938 59.0566 36.832 59.0566 37.7344V43.1813C58.4379 42.7383 57.9036 42.2789 57.5099 41.8195C56.9615 41.1797 56.0757 41.1797 55.5273 41.8195C53.2213 44.4773 46.036 47.4469 42.9145 47.4469C42.2677 47.4469 41.6912 47.9719 41.5506 48.7102C41.5084 48.9398 40.4116 54.4688 41.6068 61.5727C42.2958 65.625 43.8425 70.6781 47.2172 75.4852H4.21833C3.44497 75.4688 2.81222 74.7305 2.81222 73.8281ZM68.6744 60.9164C67.2683 69.2016 63.1906 75.7641 56.5256 80.4562C49.9029 75.7969 45.8251 69.2672 44.405 61.0477C43.6035 56.4375 43.8988 52.5164 44.1237 50.6297C47.7515 50.1539 53.4744 47.7586 56.5256 45.1172C59.5769 47.7586 65.2998 50.1539 68.9275 50.6297C69.1666 52.4836 69.4478 56.3555 68.6744 60.9164Z" fill="#D9112F" fill-opacity="0.16"/>
<path d="M15.417 10H47.583C48.3623 10 49 9.325 49 8.5C49 7.675 48.3623 7 47.583 7H15.417C14.6377 7 14 7.675 14 8.5C14 9.325 14.6377 10 15.417 10Z" fill="#D9112F" fill-opacity="0.16"/>
<path d="M49 14.5C49 13.675 48.3623 13 47.583 13H15.417C14.6377 13 14 13.675 14 14.5C14 15.325 14.6377 16 15.417 16H47.583C48.3623 16 49 15.325 49 14.5Z" fill="#D9112F" fill-opacity="0.16"/>
<path d="M47.5768 20H31.4232C30.6404 20 30 20.675 30 21.5C30 22.325 30.6404 23 31.4232 23H47.5768C48.3596 23 49 22.325 49 21.5C49 20.675 48.3596 20 47.5768 20Z" fill="#D9112F" fill-opacity="0.16"/>
<path d="M46.6076 26H38.3924C37.6266 26 37 26.675 37 27.5C37 28.325 37.6266 29 38.3924 29H46.6076C47.3734 29 48 28.325 48 27.5C48 26.675 47.3734 26 46.6076 26Z" fill="#D9112F" fill-opacity="0.16"/>
<path d="M61.7711 54C60.6425 54 59.5844 54.5129 58.7802 55.4559L54.8864 60.0221L54.2233 59.2445C53.4192 58.3015 52.3611 57.7886 51.2324 57.7886C50.1038 57.7886 49.0457 58.3015 48.2415 59.2445C47.4373 60.1875 47 61.4283 47 62.7518C47 64.0754 47.4373 65.3162 48.2415 66.2592L51.8955 70.5441C52.7138 71.5037 53.8001 72 54.8864 72C55.9727 72 57.059 71.5202 57.8773 70.5441L64.762 62.4706C66.4127 60.5349 66.4127 57.3915 64.762 55.4559C63.972 54.5129 62.9139 54 61.7711 54ZM62.7728 60.1379L55.8881 68.2114C55.3379 68.8566 54.449 68.8566 53.8988 68.2114L50.2448 63.9265C49.9768 63.6121 49.8357 63.1985 49.8357 62.7518C49.8357 62.3051 49.9768 61.8915 50.2448 61.5772C50.5129 61.2629 50.8656 61.0974 51.2465 61.0974C51.6274 61.0974 51.9801 61.2629 52.2482 61.5772L53.9129 63.5294C54.181 63.8438 54.5337 64.0092 54.9146 64.0092C55.2955 64.0092 55.6482 63.8272 55.9163 63.5294L60.8118 57.7886C61.0798 57.4743 61.4325 57.3088 61.8134 57.3088C62.1944 57.3088 62.5471 57.4743 62.8151 57.7886C63.323 58.4338 63.323 59.4926 62.7728 60.1379Z" fill="#D9112F" fill-opacity="0.16"/>
<path d="M16.5 69C15.675 69 15 69.675 15 70.5C15 71.325 15.675 72 16.5 72C17.325 72 18 71.325 18 70.5C18 69.675 17.325 69 16.5 69Z" fill="#D9112F" fill-opacity="0.16"/>
</svg>
