<svg width="69" height="74" viewBox="0 0 69 74" fill="none" xmlns="http://www.w3.org/2000/svg">
<path d="M20.8362 34H14.1638C13.5276 34 13 34.4533 13 35C13 35.5467 13.5276 36 14.1638 36H20.8362C21.4724 36 22 35.5467 22 35C22 34.4533 21.4724 34 20.8362 34Z" fill="#0A95FA" fill-opacity="0.16"/>
<path d="M41.8127 40H14.1873C13.5383 40 13 40.4533 13 41C13 41.5467 13.5383 42 14.1873 42H41.8127C42.4617 42 43 41.5467 43 41C43 40.44 42.4617 40 41.8127 40Z" fill="#0A95FA" fill-opacity="0.16"/>
<path d="M40.875 46H34.125C33.51 46 33 46.4533 33 47C33 47.5467 33.51 48 34.125 48H40.875C41.49 48 42 47.5467 42 47C42 46.44 41.49 46 40.875 46Z" fill="#0A95FA" fill-opacity="0.16"/>
<path d="M13 47C13 47.5467 13.5184 48 14.1435 48H28.8565C29.4816 48 30 47.5467 30 47C30 46.4533 29.4816 46 28.8565 46H14.1435C13.5184 46 13 46.44 13 47Z" fill="#0A95FA" fill-opacity="0.16"/>
<path d="M41.8127 53H14.1873C13.5383 53 13 53.4533 13 54C13 54.5467 13.5383 55 14.1873 55H41.8127C42.4617 55 43 54.5467 43 54C43 53.44 42.4617 53 41.8127 53Z" fill="#0A95FA" fill-opacity="0.16"/>
<path d="M43 60C43 59.4533 42.4617 59 41.8127 59H14.1873C13.5383 59 13 59.4533 13 60C13 60.5467 13.5383 61 14.1873 61H41.8127C42.4617 61 43 60.5467 43 60Z" fill="#0A95FA" fill-opacity="0.16"/>
<path d="M67.4719 7.82543L52.3464 0.27948C51.5824 -0.0931599 50.678 -0.0931599 49.9139 0.27948L34.7729 7.8099C33.8373 8.2757 33.2603 9.2073 33.2603 10.2476V12.4213H16.8251C16.1858 12.4213 15.6556 12.9492 15.6556 13.5858C15.6556 14.2224 16.1858 14.7503 16.8251 14.7503H33.2603V18.2904C33.2603 19.9828 33.3851 21.5976 33.6502 23.1502H14.0183C13.379 23.1502 12.8488 23.6781 12.8488 24.3147C12.8488 24.9513 13.379 25.4792 14.0183 25.4792H34.1336C34.4454 26.6282 34.8353 27.7306 35.3031 28.7864H14.0183C13.379 28.7864 12.8488 29.3143 12.8488 29.9509C12.8488 30.5875 13.379 31.1154 14.0183 31.1154H36.4881C36.8936 31.8141 37.3458 32.4817 37.8447 33.1494C38.1722 33.5841 38.5153 34.0034 38.8739 34.4381H25.4014C24.762 34.4381 24.2319 34.966 24.2319 35.6026C24.2319 36.2392 24.762 36.7671 25.4014 36.7671H41.1037C43.3024 38.8321 46.0936 40.8661 49.6956 43.0554C50.1322 43.3193 50.6312 43.4591 51.1302 43.4591C51.6292 43.4591 52.1125 43.3193 52.5647 43.0554C52.5803 43.0399 52.5959 43.0243 52.6271 43.0243V69.932C52.6271 70.8947 51.8475 71.671 50.8807 71.671H4.10102C3.13424 71.671 2.35458 70.8947 2.35458 69.932V42.6672V14.7503H11.3675C12.0068 14.7503 12.5369 14.2224 12.5369 13.5858C12.5369 12.9492 12.0068 12.4213 11.3675 12.4213H1.94915C0.87322 12.4213 0 13.2908 0 14.3621V31.6744V69.932C0 72.1679 1.82441 74 4.08542 74H50.8651C53.1105 74 54.9505 72.1834 54.9505 69.932V41.5183L55.2468 41.3319C59.4102 38.5527 62.2949 35.9752 64.4 33.1339C67.4875 28.9882 69 24.1284 69 18.2749V10.2476C68.9844 9.2073 68.4075 8.2757 67.4719 7.82543ZM51.3329 41.068C51.2081 41.1456 51.0522 41.1456 50.9275 41.068C41.4624 35.3076 35.5993 29.4851 35.5993 18.2904V10.2476C35.5993 10.0923 35.6773 9.96811 35.8176 9.906L50.9586 2.37558C51.0678 2.31347 51.1925 2.31347 51.3017 2.37558L66.4271 9.906C66.5675 9.96811 66.6454 10.1078 66.6454 10.2476V18.2904C66.6454 29.4851 60.7824 35.2921 51.3329 41.068Z" fill="#0A95FA" fill-opacity="0.16"/>
<path d="M51.0868 8C44.4144 8 39 13.3755 39 20C39 26.6245 44.4144 32 51.0868 32C56.1826 32 60.7689 28.7905 62.4728 24.0316C62.6958 23.415 62.3773 22.7352 61.7562 22.5138C61.1352 22.2925 60.4504 22.6087 60.2275 23.2253C58.858 27.0514 55.1794 29.6285 51.0868 29.6285C45.7361 29.6285 41.3887 25.3123 41.3887 20C41.3887 14.6877 45.7361 10.3715 51.0868 10.3715C55.8004 10.3715 59.8134 13.7075 60.6256 18.3083C60.7371 18.9565 61.3581 19.3834 62.011 19.2727C62.6639 19.1621 63.0939 18.5455 62.9824 17.8972C61.9632 12.1581 56.947 8 51.0868 8Z" fill="#0A95FA" fill-opacity="0.16"/>
<path d="M55.0577 16.3489L50.5574 21.0967L47.9423 18.3378C47.5014 17.8727 46.7716 17.8727 46.3307 18.3378C45.8898 18.803 45.8898 19.5729 46.3307 20.0381L49.7516 23.6471C49.9644 23.8717 50.2533 24 50.5574 24C50.8614 24 51.1503 23.8717 51.3632 23.6471L56.6693 18.0491C57.1102 17.584 57.1102 16.814 56.6693 16.3489C56.2284 15.8837 55.4986 15.8837 55.0577 16.3489Z" fill="#0A95FA" fill-opacity="0.16"/>
</svg>
