<svg width="81" height="77" viewBox="0 0 81 77" fill="none" xmlns="http://www.w3.org/2000/svg">
<path d="M78.1376 31.0265C77.3153 29.65 76.5246 28.3517 76.0976 27.0533C75.639 25.6768 75.4967 24.1125 75.3385 22.4701C75.0855 19.8421 74.8167 17.1047 73.2353 14.9616C71.638 12.7873 69.0919 11.6923 66.6249 10.6443C65.091 9.98731 63.6519 9.37725 62.4975 8.53255C61.3588 7.70349 60.3309 6.56159 59.2397 5.32583C57.4528 3.32358 55.6183 1.24312 52.9932 0.398423C50.4787 -0.41499 47.8061 0.179427 45.2126 0.742559C43.6312 1.08669 41.9865 1.44647 40.4684 1.44647C38.966 1.44647 37.3214 1.08669 35.7241 0.742559C33.1306 0.179427 30.458 -0.41499 27.9436 0.398423C25.3184 1.24312 23.484 3.32358 21.697 5.32583C20.6058 6.54594 19.5937 7.70349 18.4393 8.53255C18.0439 8.81411 17.5853 9.09568 17.0318 9.39289C16.4467 9.6901 16.2411 10.4097 16.5416 10.9728C16.8421 11.5359 17.5695 11.7549 18.1388 11.4577C18.7714 11.1136 19.3249 10.7851 19.8151 10.4253C21.1751 9.45546 22.3296 8.14149 23.4524 6.87444C25.097 5.02862 26.6468 3.27665 28.6552 2.63531C30.5529 2.02525 32.7985 2.52581 35.1865 3.04201C36.8944 3.41743 38.6656 3.8085 40.4367 3.8085C42.2079 3.8085 43.9791 3.41743 45.687 3.04201C48.075 2.52581 50.3206 2.02525 52.2183 2.63531C54.2267 3.27665 55.7765 5.02862 57.4211 6.87444C58.5439 8.14149 59.6984 9.45546 61.0584 10.4253C62.4342 11.4108 64.0631 12.1147 65.6445 12.7873C67.9217 13.7572 70.0566 14.6801 71.2743 16.3382C72.4762 17.965 72.6976 20.2645 72.9348 22.6891C73.0929 24.3941 73.2669 26.1461 73.8046 27.7729C74.3106 29.3215 75.1962 30.7919 76.066 32.2154C77.3469 34.3428 78.5646 36.3606 78.5646 38.488C78.5646 40.6154 77.3469 42.6333 76.066 44.7607C75.212 46.1842 74.3264 47.6702 73.8046 49.2032C73.2669 50.83 73.1087 52.582 72.9348 54.287C72.6976 56.7116 72.4762 59.0111 71.2743 60.6379C70.0566 62.296 67.9059 63.2033 65.6445 64.1887C64.0631 64.8614 62.4342 65.5653 61.0584 66.5508C59.6984 67.5206 58.5439 68.8346 57.4211 70.1016C55.7765 71.9474 54.2267 73.6994 52.2183 74.3408C50.3206 74.9508 48.075 74.4503 45.687 73.9341C43.9791 73.5586 42.2079 73.1676 40.4367 73.1676C38.6656 73.1676 36.8944 73.5586 35.1865 73.9341C32.7985 74.4503 30.5529 74.9508 28.6552 74.3408C26.6468 73.6994 25.097 71.9474 23.4524 70.1016C22.3296 68.8346 21.1751 67.5206 19.8151 66.5508C18.4393 65.5653 16.8104 64.8614 15.229 64.1887C12.9518 63.2189 10.8169 62.296 9.59918 60.6379C8.39731 59.0111 8.17591 56.7116 7.9387 54.287C7.78055 52.582 7.6066 50.83 7.06892 49.2032C6.56287 47.6546 5.67727 46.1842 4.8075 44.7607C3.58981 42.649 2.37212 40.6311 2.37212 38.5037C2.37212 36.3763 3.58981 34.3584 4.87075 32.231C5.72472 30.8075 6.61031 29.3215 7.13217 27.7885C7.66986 26.1617 7.828 24.4097 8.00195 22.7047C8.23916 20.2801 8.46056 17.9806 9.66244 16.3538C10.3583 15.4153 11.3862 14.6331 13.0308 13.8354C13.616 13.5538 13.8532 12.8343 13.5685 12.2555C13.2839 11.6767 12.5564 11.4421 11.9713 11.7236C10.6271 12.3806 8.93499 13.3505 7.74893 14.9616C6.16751 17.1047 5.89867 19.8421 5.64565 22.4701C5.4875 24.1125 5.32936 25.6768 4.88657 27.0533C4.45959 28.3517 3.68469 29.65 2.84654 31.0265C1.43909 33.326 0 35.7193 0 38.5037C0 41.2881 1.43909 43.6657 2.83073 45.9808C3.65306 47.3574 4.44377 48.6557 4.87075 49.954C5.32936 51.3306 5.47169 52.8948 5.62983 54.5373C5.88286 57.1652 6.1517 59.9027 7.73311 62.0457C9.33034 64.22 11.8764 65.315 14.3434 66.3631C15.8774 67.0201 17.3165 67.6301 18.4709 68.4748C19.6095 69.3039 20.6374 70.4458 21.7286 71.6815C23.5156 73.6838 25.3501 75.7642 27.9752 76.6089C28.8608 76.8905 29.7622 77 30.6794 77C32.3557 77 34.0795 76.6246 35.7558 76.2492C37.3372 75.905 38.9818 75.5452 40.5 75.5452C42.0023 75.5452 43.647 75.905 45.2442 76.2492C47.8378 76.8123 50.5103 77.4067 53.0248 76.5933C55.6499 75.7486 57.4844 73.6681 59.2714 71.6659C60.3625 70.4458 61.3747 69.2882 62.5291 68.4592C63.6993 67.6145 65.1384 67.0044 66.6566 66.3474C69.1236 65.2994 71.6697 64.2044 73.2669 62.0301C74.8483 59.887 75.1171 57.1496 75.3702 54.5216C75.5283 52.8792 75.6864 51.3149 76.1292 49.9384C76.5562 48.6401 77.3311 47.3417 78.1693 45.9652C79.5609 43.6501 81 41.2724 81 38.488C81 35.7037 79.5293 33.326 78.1376 31.0265Z" fill="#AF5BA0" fill-opacity="0.16"/>
<path d="M10.9493 29.1245C10.6175 30.1593 9.98564 31.194 9.32216 32.3072C8.18478 34.2042 7 36.1796 7 38.5C7 40.8204 8.18478 42.7801 9.32216 44.6928C9.98564 45.806 10.6175 46.8407 10.9493 47.8755C11.3126 48.973 11.4232 50.2272 11.5653 51.5442C11.7707 53.7077 11.9919 55.9654 13.303 57.7527C14.63 59.5714 16.731 60.465 18.753 61.3273C19.9852 61.8604 21.1383 62.3464 22.0546 63.0205C22.955 63.679 23.7764 64.604 24.6453 65.5917C26.1144 67.2536 27.6151 68.9625 29.7951 69.668C30.5376 69.9032 31.2958 69.9973 32.0541 69.9973C33.4442 69.9973 34.8344 69.6837 36.2087 69.3858C37.5357 69.088 38.7994 68.8214 40 68.8214C41.2006 68.8214 42.4485 69.1036 43.7913 69.3858C45.9239 69.8562 48.1197 70.3422 50.2049 69.668C52.3849 68.9625 53.9014 67.2536 55.3547 65.5917C56.2236 64.604 57.045 63.679 57.9454 63.0205C58.8617 62.3621 60.0306 61.8604 61.247 61.3273C63.269 60.465 65.37 59.5557 66.697 57.7527C68.0081 55.9497 68.2293 53.7077 68.4347 51.5442C68.561 50.2115 68.6874 48.9573 69.0507 47.8755C69.3825 46.8407 70.0144 45.806 70.6778 44.6928C71.8152 42.7958 73 40.8204 73 38.5C73 36.1796 71.8152 34.2199 70.6778 32.3072C70.0144 31.194 69.3825 30.1593 69.0507 29.1245C68.6874 28.027 68.5768 26.7728 68.4347 25.4558C68.2293 23.2922 68.0081 21.0346 66.697 19.2473C65.37 17.4286 63.269 16.535 61.247 15.6727C60.0148 15.1396 58.8617 14.6536 57.9454 13.9795C57.045 13.321 56.2236 12.396 55.3547 11.4083C53.8856 9.74638 52.3849 8.03747 50.2049 7.33195C48.1197 6.65779 45.9239 7.14381 43.7913 7.61416C42.4643 7.91204 41.2006 8.17857 40 8.17857C38.7994 8.17857 37.5515 7.89636 36.2087 7.61416C34.0761 7.14381 31.8803 6.65779 29.7951 7.33195C27.6151 8.03747 26.0986 9.74638 24.6453 11.4083C23.7764 12.396 22.955 13.321 22.0546 13.9795C21.1383 14.6379 19.9694 15.1396 18.753 15.6727C16.731 16.535 14.63 17.4443 13.303 19.2473C11.9919 21.0503 11.7707 23.2922 11.5653 25.4558C11.4232 26.7728 11.2968 28.027 10.9493 29.1245ZM13.9033 25.6753C14.0929 23.7312 14.2666 21.8969 15.1987 20.627C16.1465 19.3257 17.8526 18.6045 19.6692 17.8206C20.9646 17.2719 22.2915 16.6918 23.4289 15.8765C24.5505 15.0769 25.4983 13.9951 26.4146 12.9604C27.7257 11.4866 28.9579 10.0756 30.5218 9.57392C31.9909 9.10358 33.7918 9.49553 35.6874 9.91884C37.0933 10.2324 38.5309 10.546 39.9842 10.546C41.4375 10.546 42.8909 10.2324 44.281 9.91884C46.1766 9.49553 47.9775 9.10358 49.4466 9.57392C51.0105 10.0756 52.2427 11.471 53.5539 12.9604C54.4701 13.9951 55.4179 15.0769 56.5395 15.8765C57.6769 16.6918 59.0038 17.2719 60.2992 17.8206C62.1158 18.6045 63.8219 19.3257 64.7697 20.627C65.7018 21.8969 65.8913 23.7312 66.0651 25.6753C66.2073 27.0707 66.3337 28.5131 66.776 29.8457C67.1867 31.1313 67.9134 32.3385 68.6242 33.4987C69.651 35.2076 70.6146 36.8068 70.6146 38.4843C70.6146 40.1619 69.651 41.761 68.6242 43.47C67.9292 44.6458 67.2025 45.853 66.776 47.123C66.3337 48.4556 66.1915 49.898 66.0651 51.2933C65.8755 53.2374 65.7018 55.0717 64.7697 56.3417C63.8219 57.6429 62.1158 58.3641 60.2992 59.148C59.0038 59.6968 57.6769 60.2769 56.5395 61.0921C55.4179 61.8917 54.4701 62.9735 53.5539 64.0083C52.2427 65.482 51.0105 66.893 49.4466 67.3947C47.9775 67.8651 46.1766 67.4731 44.281 67.0655C42.8751 66.7519 41.4375 66.4384 39.9842 66.4384C38.5309 66.4384 37.0776 66.7519 35.6874 67.0655C33.7918 67.4888 31.9909 67.8807 30.5218 67.3947C28.9579 66.893 27.7257 65.4977 26.4146 64.0083C25.4983 62.9735 24.5505 61.8917 23.4289 61.0921C22.2915 60.2769 20.9646 59.6968 19.6692 59.148C17.8526 58.3641 16.1465 57.6429 15.1987 56.3417C14.2666 55.0717 14.0771 53.2374 13.9033 51.2933C13.7611 49.898 13.6348 48.4556 13.1924 47.123C12.7817 45.8373 12.0551 44.6301 11.3442 43.47C10.3174 41.761 9.35376 40.1619 9.35376 38.4843C9.35376 36.8068 10.3174 35.2076 11.3442 33.4987C12.0393 32.3228 12.7659 31.1156 13.1924 29.8457C13.6348 28.5131 13.7769 27.0707 13.9033 25.6753Z" fill="#AF5BA0" fill-opacity="0.16"/>
<path d="M36.3831 54C36.3203 54 36.2419 54 36.1791 54C34.4369 53.9385 32.8045 53.1544 31.6901 51.8475L25.8514 44.9596C24.5487 43.4375 24.7684 41.162 26.3223 39.8859L27.9546 38.5483C29.5085 37.2722 31.8314 37.4875 33.1341 39.0096L36.0849 42.4843C36.2575 42.6841 36.4616 42.7149 36.5715 42.7149C36.6813 42.7149 36.9011 42.6995 37.0737 42.515C37.0894 42.4996 37.0894 42.4996 37.1051 42.4843L52.1414 28.1088C52.8164 27.417 53.7267 27.0326 54.6998 27.0018C55.6729 26.9711 56.6147 27.3247 57.321 28.0012L58.8591 29.4464C60.3345 30.8148 60.3816 33.1056 58.9847 34.5355C58.969 34.5509 58.969 34.5509 58.9533 34.5663L50.9643 42.2998C50.5091 42.7456 49.7557 42.7456 49.3005 42.2844C48.8454 41.8385 48.8454 41.1005 49.3162 40.6547L57.2896 32.9365C57.7761 32.4138 57.7604 31.5989 57.2268 31.1223L55.6886 29.6771C55.4375 29.4311 55.0922 29.3081 54.7469 29.3234C54.4016 29.3388 54.072 29.4772 53.8209 29.7232C53.8052 29.7386 53.8052 29.7386 53.7895 29.7539L38.7531 44.1294C38.1567 44.729 37.3248 45.0519 36.4773 45.0211C35.614 44.9904 34.8136 44.606 34.2642 43.9603L31.3135 40.4856C30.8426 39.9321 30.0107 39.8552 29.4457 40.3164L27.8133 41.654C27.2483 42.1153 27.1698 42.9301 27.6407 43.4836L33.4794 50.3715C34.17 51.171 35.1746 51.663 36.2419 51.6938C37.3092 51.7245 38.3451 51.3094 39.0827 50.556C39.0984 50.5407 39.0984 50.5407 39.1141 50.5253L45.7063 44.1294C46.1614 43.6835 46.9148 43.6835 47.37 44.1448C47.8252 44.5906 47.8252 45.3286 47.3543 45.7745L40.7622 52.155C39.6321 53.3389 38.0468 54 36.3831 54Z" fill="#AF5BA0" fill-opacity="0.16"/>
</svg>
