<svg width="74" height="79" viewBox="0 0 74 79" fill="none" xmlns="http://www.w3.org/2000/svg">
<path d="M31 62C13.902 62 0 48.098 0 31C0 13.902 13.902 0 31 0C48.098 0 62 13.902 62 31C62 48.098 48.098 62 31 62ZM31 2.61972C15.3515 2.61972 2.61972 15.3515 2.61972 31C2.61972 46.6484 15.3515 59.3803 31 59.3803C46.6484 59.3803 59.3803 46.6484 59.3803 31C59.3803 15.3515 46.6484 2.61972 31 2.61972Z" fill="#005453" fill-opacity="0.16"/>
<path d="M31 55C17.767 55 7 44.233 7 31C7 20.7019 13.547 11.5673 23.2894 8.26773C23.9667 8.04197 24.7135 8.40666 24.9392 9.08394C25.165 9.76122 24.8003 10.508 24.123 10.7337C15.4399 13.686 9.60492 21.8133 9.60492 31C9.60492 42.7916 19.2084 52.3951 31 52.3951C42.7916 52.3951 52.3951 42.7916 52.3951 31C52.3951 19.2084 42.7916 9.60492 31 9.60492C30.288 9.60492 29.6975 9.01447 29.6975 8.30246C29.6975 7.59045 30.288 7 31 7C44.233 7 55 17.767 55 31C55 44.233 44.233 55 31 55Z" fill="#005453" fill-opacity="0.16"/>
<path d="M45.6814 42H16.3186C15.8456 42 15.4251 41.757 15.1798 41.3579C14.9521 40.9587 14.9346 40.4728 15.1623 40.0736L29.8437 13.6768C30.0715 13.2603 30.5095 13 31 13C31.4905 13 31.9285 13.2603 32.1563 13.6768L46.8377 40.0736C47.0654 40.4728 47.0479 40.9587 46.8202 41.3579C46.5749 41.757 46.1544 42 45.6814 42ZM18.5436 39.3968H43.4564L31 16.9916L18.5436 39.3968Z" fill="#005453" fill-opacity="0.16"/>
<path d="M66.4533 79C66.1967 79 65.94 78.9824 65.6834 78.9648C63.1512 78.6836 60.8243 77.0139 58.7883 74.0261L58.7712 74.0085L47 55.9933L49.1387 54.517L60.9099 72.5145C62.501 74.8521 64.212 76.1351 65.9742 76.3461C68.0787 76.5921 69.6356 75.2036 69.8067 75.0455C69.9778 74.8873 71.4663 73.4285 71.415 71.2491C71.3808 69.4212 70.2858 67.5582 68.1642 65.7127L52.0644 52.0388L53.7069 50L69.8238 63.6915C72.5442 66.0467 73.9472 68.5776 73.9985 71.1964C74.0498 73.7273 72.7666 75.8539 71.5519 76.9964C70.4569 77.9982 68.592 79 66.4533 79Z" fill="#005453" fill-opacity="0.16"/>
<path d="M66.7055 73C66.361 73 66.0337 72.8648 65.7752 72.6114L62.3642 69.148C61.8646 68.6411 61.8818 67.8471 62.3986 67.3571C62.9155 66.8672 63.7252 66.8841 64.2248 67.3909L67.6358 70.8544C68.1354 71.3612 68.1182 72.1553 67.6014 72.6452C67.3602 72.8817 67.0329 73 66.7055 73Z" fill="#005453" fill-opacity="0.16"/>
<path d="M31.5 34C30.68 34 30 33.4026 30 32.6823V23.3177C30 22.5974 30.68 22 31.5 22C32.32 22 33 22.5974 33 23.3177V32.6823C33 33.4026 32.32 34 31.5 34Z" fill="#005453" fill-opacity="0.16"/>
<path d="M31.5 38C30.68 38 30 37.49 30 36.875V36.125C30 35.51 30.68 35 31.5 35C32.32 35 33 35.51 33 36.125V36.875C33 37.49 32.32 38 31.5 38Z" fill="#005453" fill-opacity="0.16"/>
</svg>
