<svg width="77" height="73" viewBox="0 0 77 73" fill="none" xmlns="http://www.w3.org/2000/svg">
<path d="M76.9108 49.8838C76.5817 48.2054 75.3641 47.1702 73.6034 47.0761C72.8629 47.0291 71.2338 47.2016 66.067 48.6603V33.3201H70.7896C71.2503 33.3201 71.6617 33.0849 71.8756 32.7084C72.0895 32.332 72.0731 31.8614 71.8262 31.5006L64.3721 20.7249C63.9936 20.1759 63.2367 20.0347 62.6608 20.3955C62.0848 20.7562 61.9368 21.4778 62.3152 22.0267L68.5188 30.9673H32.3341L21.7865 13.3528H41.4996C42.1743 13.3528 42.7337 12.8195 42.7337 12.1764C42.7337 11.5333 42.1743 11 41.4996 11H19.6638C19.6144 11 19.5815 11 19.5321 11C19.4828 11 19.4334 11.0157 19.384 11.0157C19.3676 11.0157 19.3676 11.0157 19.3511 11.0314C19.3182 11.0471 19.2853 11.0471 19.2524 11.0627C19.2359 11.0627 19.2359 11.0784 19.2195 11.0784C19.1866 11.0941 19.1372 11.1098 19.1043 11.1255H19.0878C19.0385 11.1412 19.0056 11.1725 18.9562 11.2039C18.9397 11.2039 18.9397 11.2196 18.9233 11.2196C18.8904 11.2353 18.8575 11.2666 18.841 11.2823C18.8246 11.298 18.8246 11.298 18.8081 11.3137C18.7752 11.3451 18.7587 11.3608 18.7258 11.3921L18.7094 11.4078C18.6765 11.4392 18.6436 11.4862 18.6271 11.5176L5.13397 31.485C4.88715 31.8457 4.87069 32.3006 5.08461 32.6927C5.29852 33.0692 5.7099 33.3044 6.17064 33.3044H12.8349V40.5354C12.259 39.9707 11.4527 39.6256 10.5641 39.6256H3.20873C1.43159 39.6413 0 41.0216 0 42.6999V68.9414C0 70.6354 1.43159 72 3.20873 72H10.5641C11.8312 72 12.9337 71.2942 13.4438 70.2746C13.6248 70.3844 13.8387 70.4315 14.0691 70.4315H44.5602C46.5019 70.4315 48.4107 69.9295 50.0891 68.9884L74.3109 55.2481C76.2855 54.1345 77.3222 51.9699 76.9108 49.8838ZM11.3046 68.9571C11.3046 69.3335 10.9591 69.6629 10.5641 69.6629H3.20873C2.81381 69.6629 2.46826 69.3335 2.46826 68.9571V42.6999C2.46826 42.3235 2.81381 41.9941 3.20873 41.9941H10.5641C10.9591 41.9941 11.3046 42.3235 11.3046 42.6999V68.9571ZM63.5987 49.3662C62.0026 49.8367 60.1596 50.4014 58.004 51.0759C52.2447 52.8953 46.7817 54.7462 45.6792 55.1226H44.3299C44.7577 54.3227 45.1855 53.3502 45.3501 52.4091C45.564 51.1543 45.0703 49.6955 44.0172 48.5192C42.9641 47.3271 41.5161 46.5742 39.8705 46.3232V33.3201H63.5823V49.3662H63.5987ZM31.6266 33.3201H37.4187V46.2605C34.8189 46.3232 28.5001 46.3546 26.0648 44.4253C22.6421 41.7117 16.1259 41.2726 15.3032 41.2255V32.2849L23.2181 20.5053L30.5405 32.7398C30.7709 33.1005 31.1823 33.3201 31.6266 33.3201ZM19.5979 14.4351L21.8358 18.1839L13.2463 30.9673H8.44143L19.5979 14.4351ZM73.0439 53.2247L48.8221 66.965C47.5386 67.7022 46.0576 68.0787 44.5602 68.0787H14.0691C13.9703 68.0787 13.8716 68.0944 13.7729 68.11V43.5312C13.8716 43.5469 13.9703 43.5626 14.0691 43.5626C14.2665 43.5626 14.4475 43.5156 14.6121 43.4371C14.7602 43.4999 14.9247 43.5469 15.1057 43.5626C16.8829 43.641 22.0333 44.2841 24.4686 46.2134C27.7596 48.8172 34.8518 48.6603 37.8795 48.5976C38.2086 48.5976 38.4554 48.5819 38.6529 48.5819C40.5617 48.5819 41.6642 49.4916 42.1413 50.0406C42.8325 50.8249 42.997 51.5935 42.9147 52.017C42.7337 53.0522 41.9932 54.3384 41.4996 55.107H36.2011C33.7328 55.107 31.3304 55.5462 29.0267 56.3932L27.2166 57.0676C26.5749 57.3029 26.2622 57.9931 26.5091 58.5891C26.7559 59.2008 27.4799 59.4988 28.1052 59.2636L29.9153 58.5891C31.9228 57.8362 34.029 57.4598 36.1846 57.4598H42.1413H45.8766C46.0247 57.4598 46.1564 57.4441 46.288 57.397C55.5193 54.2286 71.0693 49.272 73.4388 49.4132C74.0806 49.4446 74.3438 49.6799 74.4755 50.323C74.7059 51.4523 74.1299 52.613 73.0439 53.2247Z" fill="#D9112F" fill-opacity="0.16"/>
<path d="M47.8045 13.8898C47.8206 13.8898 49.9912 14.6694 52.1136 16.5309C54.8792 18.9811 56.2941 22.0996 56.2941 25.8067C56.2941 26.459 56.8408 27 57.5 27C58.1592 27 58.7059 26.459 58.7059 25.8067C58.7059 22.0996 60.1048 18.9811 62.8864 16.5309C65.0088 14.6535 67.1794 13.8898 67.1955 13.8898C67.6778 13.7307 67.9994 13.2852 67.9994 12.7761C68.0155 12.2669 67.6939 11.8214 67.2276 11.6464C67.1472 11.6146 58.7059 8.32115 58.7059 1.19328C58.7059 0.540955 58.1592 0 57.5 0C56.8408 0 56.2941 0.540955 56.2941 1.19328C56.2941 8.32115 47.8527 11.6146 47.7724 11.6464C47.3061 11.8214 46.9845 12.2829 47.0006 12.7761C47.0167 13.2852 47.3382 13.7307 47.8045 13.8898ZM57.5 6.30053C59.1079 9.49853 62.0181 11.5987 64.0601 12.7761C63.2401 13.2534 62.3075 13.8898 61.3589 14.7171C59.6546 16.2127 58.3522 17.9629 57.5161 19.9039C56.6639 17.9629 55.3776 16.2127 53.6733 14.7171C52.7246 13.8898 51.776 13.2534 50.972 12.7761C52.998 11.5987 55.8921 9.49853 57.5 6.30053Z" fill="#D9112F" fill-opacity="0.16"/>
</svg>
