<svg width="73" height="73" viewBox="0 0 73 73" fill="none" xmlns="http://www.w3.org/2000/svg">
<path d="M71.9918 18.943L67.2812 18.2587C66.6148 18.1675 66.1604 17.544 66.2513 16.8902C66.2967 16.5708 66.4633 16.2819 66.7208 16.0843L70.5378 13.2103C71.0679 12.7998 71.189 12.0395 70.7801 11.5073L66.4179 5.66821C66.0089 5.136 65.2516 5.01435 64.7215 5.42491L60.9197 8.29883C60.3895 8.70939 59.6322 8.60295 59.2232 8.07074C59.0263 7.81224 58.9354 7.47771 58.996 7.15839L59.6625 2.42935C59.7534 1.76029 59.299 1.15205 58.6325 1.04561L51.4379 0.0116058C50.7714 -0.0796297 50.1656 0.376548 50.0595 1.04561L49.3779 5.78985C49.2871 6.45891 48.666 6.91509 48.0147 6.82386C47.6967 6.77824 47.4089 6.61097 47.212 6.35247L44.3493 2.52058C43.9403 1.98837 43.183 1.86673 42.6528 2.27729L39.0177 5.01435C37.3667 4.83188 35.7157 4.83188 34.0647 5.01435C23.2803 6.24603 14.8134 14.883 13.7683 25.74C13.738 26.0898 13.7228 26.4243 13.7077 26.774H13.329C12.7534 26.774 12.2536 27.1846 12.1476 27.7472L11.3145 31.7464L7.96711 29.4198C7.48242 29.0853 6.83112 29.1461 6.42216 29.5567L2.78698 33.2061C2.37802 33.6167 2.31743 34.2705 2.65066 34.7571L4.95294 38.1176L0.969383 38.954C0.393812 39.0908 0 39.5774 0 40.1552V45.0211C0 45.5989 0.393812 46.1007 0.969383 46.2072L4.95294 47.0435L2.65066 50.404C2.31743 50.8906 2.37802 51.5445 2.78698 51.955L6.42216 55.6044C6.83112 56.015 7.48242 56.0758 7.96711 55.7413L11.3145 53.43L12.1476 57.4291C12.2688 57.9918 12.7534 58.4023 13.329 58.4023H18.1759C18.7515 58.4023 19.2513 58.007 19.3574 57.4291L20.1904 53.43L23.5378 55.7413C24.0225 56.0758 24.6738 56.015 25.0828 55.6044L26.961 53.7037V57.1858C26.961 58.9193 27.8849 60.5159 29.3844 61.3827V68.1341C29.3844 70.8256 31.5504 73 34.2313 73H39.0782C41.7592 73 43.9252 70.8256 43.9252 68.1341V61.3827C45.4247 60.5159 46.3486 58.9193 46.3486 57.1858V52.3656C46.3789 50.3432 47.4392 48.4729 49.1507 47.3932C50.1504 46.7394 51.1047 46.0095 51.9983 45.2036L50.3776 43.3941C49.5748 44.1088 48.7266 44.7626 47.8178 45.3556C45.4095 46.8762 43.9403 49.5069 43.91 52.3656V57.1858C43.91 58.524 42.8195 59.6188 41.4866 59.6188H31.7927C30.4598 59.6188 29.3693 58.524 29.3693 57.1858V52.2743C29.339 49.4765 27.8849 46.8914 25.522 45.4013C15.9191 39.3493 13.0261 26.622 19.0544 16.9814C22.7956 11.0055 29.339 7.35606 36.367 7.32565C36.3519 7.37127 36.3367 7.41689 36.3216 7.4625C36.2761 7.78183 36.367 8.10115 36.5488 8.35965L39.4115 12.1763C39.7144 12.5717 39.7447 13.1039 39.4872 13.5297C39.2449 13.9554 38.7602 14.1835 38.2755 14.1075L33.5649 13.4384C32.8984 13.3472 32.2926 13.8034 32.1865 14.4724L31.1566 21.6952C31.0657 22.3643 31.5201 22.9725 32.1865 23.079L36.8971 23.748C37.5636 23.8393 38.018 24.4627 37.9271 25.1166C37.8817 25.4359 37.7151 25.7248 37.4576 25.9225L33.6558 28.7964C33.1256 29.207 33.0045 29.9673 33.4134 30.4995L37.7756 36.3385C38.1846 36.8707 38.9419 36.9924 39.4721 36.5818L43.289 33.7079C43.8191 33.3126 44.5916 33.419 44.9854 33.9512C45.1823 34.2097 45.2581 34.529 45.2126 34.8484L44.5462 39.5774C44.4553 40.2465 44.9097 40.8547 45.5761 40.9611L52.7708 41.9951C52.8314 41.9951 52.892 42.0103 52.9374 42.0103C53.5433 42.0103 54.0582 41.5694 54.134 40.9611L54.8004 36.2321C54.8913 35.563 55.5123 35.1069 56.1636 35.1981C56.4817 35.2437 56.7695 35.411 56.9664 35.6695L59.8291 39.4862C60.2381 40.0184 60.9954 40.14 61.5255 39.7295L67.3418 35.3502C67.8719 34.9396 67.9931 34.1793 67.5842 33.6471L64.7215 29.8304C64.4185 29.4351 64.3882 28.9028 64.6457 28.4771C64.8881 28.0513 65.3728 27.808 65.8574 27.8993L70.568 28.5683C71.2345 28.6596 71.8404 28.2034 71.9464 27.5343L72.9763 20.3115C73.1127 19.6576 72.6431 19.0494 71.9918 18.943ZM31.823 62.0517H41.5168V64.4847H31.823V62.0517ZM31.823 66.9176H41.5168V68.1341C41.5168 69.4722 40.4263 70.5671 39.0934 70.5671H34.2465C32.9136 70.5671 31.823 69.4722 31.823 68.1341V66.9176ZM22.1746 45.9335C22.8411 46.4809 23.5227 46.9827 24.2497 47.4541C25.4009 48.1839 26.2491 49.2788 26.6883 50.5713L24.0831 53.1715L21.5688 51.4228C20.4631 50.6625 18.9636 50.9362 18.1911 52.0462C18.0093 52.3047 17.8881 52.6089 17.8124 52.9282L17.1763 55.9694H14.2984L13.6774 52.9282C13.4047 51.6205 12.1173 50.769 10.7995 51.0427C10.4815 51.1035 10.1937 51.2403 9.92103 51.4228L7.40669 53.1563L5.21043 50.9514L6.93715 48.4272C7.69448 47.3172 7.42184 45.8118 6.31614 45.0363C6.05864 44.8539 5.75571 44.717 5.43763 44.6562L2.42346 44.0327V41.1436L5.43763 40.505C6.74024 40.2313 7.58845 38.9388 7.30066 37.6158C7.24008 37.2965 7.10376 37.0076 6.922 36.7491L5.18014 34.2097L7.39154 32.0049L9.90588 33.7535C11.0116 34.5138 12.5111 34.2401 13.2836 33.1301C13.4653 32.8716 13.5865 32.5675 13.6622 32.2481L13.8743 31.2294C14.0712 32.6283 14.3893 34.012 14.8285 35.3502C10.845 35.8215 7.99741 39.4558 8.46695 43.4549C8.9365 47.4541 12.5565 50.3128 16.5401 49.8414C18.9787 49.5677 21.0689 48.0927 22.1746 45.9335ZM20.2965 44.2304C19.3877 46.7546 16.6158 48.0623 14.1015 47.1651C11.5872 46.2528 10.2845 43.4701 11.1782 40.9459C11.8749 38.9996 13.7077 37.7223 15.7525 37.7223C15.7676 37.7223 15.7828 37.7223 15.7979 37.7223C16.9188 40.14 18.4334 42.3297 20.2965 44.2304ZM69.7501 25.9985L66.2361 25.4967C64.2519 25.2078 62.404 26.5915 62.1162 28.5987C61.9799 29.5567 62.2223 30.5299 62.813 31.3054L64.9486 34.1489L61.0711 37.0684L58.9354 34.2249C57.7237 32.6131 55.4517 32.2786 53.8462 33.495C53.0737 34.0729 52.5587 34.9396 52.4224 35.8976L51.9377 39.4253L47.1362 38.7411L47.6361 35.2133C47.9239 33.2213 46.5455 31.3662 44.5462 31.0773C43.5919 30.9404 42.6226 31.1837 41.8501 31.7768L39.0177 33.9208L36.1095 30.0281L38.9419 27.884C40.5475 26.6676 40.8807 24.3867 39.669 22.7749C39.0934 21.9994 38.23 21.4824 37.2758 21.3455L33.7769 20.8437L34.4585 16.0234L37.9725 16.5252C39.9567 16.8141 41.8046 15.4304 42.0924 13.4232C42.2287 12.4653 41.9864 11.4921 41.3957 10.7166L39.26 7.85786L43.1375 4.93832L45.2732 7.78183C46.4849 9.39366 48.7569 9.72819 50.3625 8.51171C51.1349 7.93389 51.6499 7.06715 51.7862 6.10918L52.2861 2.58141L57.0876 3.26567L56.5877 6.79344C56.2999 8.78542 57.6783 10.6405 59.6776 10.9295C60.6319 11.0663 61.6012 10.823 62.3737 10.23L65.2061 8.08595L68.1143 11.9787L65.2667 14.1531C63.6612 15.3696 63.328 17.6505 64.5397 19.2623C65.1153 20.0378 65.9786 20.5548 66.9329 20.6917L70.4469 21.1934L69.7501 25.9985Z" fill="#0A95FA" fill-opacity="0.16"/>
<path d="M51.5 12C46.2602 12 42 16.2602 42 21.5C42 26.7398 46.2602 31 51.5 31C56.7398 31 61 26.7398 61 21.5C61 16.2602 56.7398 12 51.5 12ZM51.5 28.625C47.5664 28.625 44.375 25.4336 44.375 21.5C44.375 17.5664 47.5664 14.375 51.5 14.375C55.4336 14.375 58.625 17.5664 58.625 21.5C58.625 25.4336 55.4336 28.625 51.5 28.625Z" fill="#0A95FA" fill-opacity="0.16"/>
<path d="M37 54H35V58H37V54Z" fill="#0A95FA" fill-opacity="0.16"/>
<path d="M31.565 41.6151C24.1551 38.7216 20.4952 30.3712 23.3901 22.9652C24.5151 20.1017 26.5251 17.658 29.135 16.0239L27.8451 14C20.0002 18.9473 17.6452 29.3067 22.5801 37.1625C24.5001 40.2058 27.3351 42.5446 30.68 43.8489C33.65 44.9882 35.6 47.8217 35.6 51H37.9999C38.0149 46.8323 35.45 43.1143 31.565 41.6151Z" fill="#0A95FA" fill-opacity="0.16"/>
<path d="M68 45H60V47H68V45Z" fill="#0A95FA" fill-opacity="0.16"/>
<path d="M59.28 51.4633L58 53L64.9141 58.7616L66.1941 57.2249L59.28 51.4633Z" fill="#0A95FA" fill-opacity="0.16"/>
<path d="M54 55H52V63H54V55Z" fill="#0A95FA" fill-opacity="0.16"/>
<path d="M10.7014 18.5744L1 21L1.48493 22.9403L11.1863 20.5147L10.7014 18.5744Z" fill="#0A95FA" fill-opacity="0.16"/>
<path d="M4.16229 7.37242L3 9L11.1368 14.8131L12.2991 13.1855L4.16229 7.37242Z" fill="#0A95FA" fill-opacity="0.16"/>
<path d="M15.9376 0.50449L14 1L16.4766 10.6885L18.4142 10.193L15.9376 0.50449Z" fill="#0A95FA" fill-opacity="0.16"/>
</svg>
