<svg width="30" height="30" viewBox="0 0 30 30" fill="none" xmlns="http://www.w3.org/2000/svg">
<g clip-path="url(#clip0)">
<path d="M1.29397 9.60477C0.679169 10.389 0.384313 11.2296 0.421955 12.0954C0.459594 13.0489 0.886196 13.7955 1.23751 14.2534C0.829732 15.2698 0.672895 16.8695 2.03425 18.1117C3.03174 19.0213 4.72559 19.4291 7.07189 19.3162C8.72183 19.2409 10.102 18.9335 10.1585 18.921L10.1647 18.921C10.4784 18.8645 10.8109 18.7955 11.1497 18.7202C11.1748 19.1217 11.1058 20.1192 10.3655 22.3651C9.4872 25.0376 9.53739 27.0828 10.5286 28.4504C11.57 29.8871 13.2325 30 13.7218 30C14.1923 30 14.6252 29.8055 14.9326 29.4479C15.629 28.6386 15.5474 27.1455 15.4596 26.4555C16.2877 24.2346 18.6089 18.7892 20.5725 17.2773C20.6102 17.2522 20.6415 17.2208 20.6729 17.1895C21.2501 16.5809 21.639 15.9222 21.9025 15.345C22.2726 15.5458 22.693 15.6587 23.1447 15.6587L26.9715 15.6587C28.4144 15.6587 29.5813 14.4856 29.5813 13.0489L29.5813 2.85446C29.5813 1.41154 28.4082 0.244671 26.9715 0.244671L23.1447 0.24467C22.5863 0.24467 22.0656 0.420327 21.639 0.721456L20.1647 0.545798C19.9389 0.51443 15.9238 0.00627589 11.8021 0.0878319C11.0556 0.0313685 10.3529 2.26352e-07 9.7005 1.69314e-07C8.57754 7.11413e-08 7.59887 0.0878296 6.78331 0.263489C4.86361 0.671268 3.55245 1.48683 2.88745 2.68507C2.3793 3.601 2.37929 4.51066 2.46085 5.08783C1.21242 6.21706 0.992846 7.46549 1.03676 8.34379C1.06186 8.85194 1.17478 9.28482 1.29397 9.60477ZM26.9715 1.93852C27.4797 1.93852 27.8874 2.35257 27.8874 2.85446L27.8874 13.0552C27.8874 13.5634 27.4734 13.9711 26.9715 13.9711L23.1447 13.9711C22.6365 13.9711 22.2287 13.5571 22.2287 13.0552L22.2287 2.86073C22.2287 2.35257 22.6428 1.94479 23.1447 1.94479L26.9715 1.94479L26.9715 1.93852ZM2.9 10.3388C3.16348 10.0627 3.21367 9.64241 3.01292 9.31618C3.01292 9.30991 2.75571 8.87077 2.72434 8.26851C2.68042 7.44668 3.07566 6.71895 3.90376 6.09787C4.19862 5.87202 4.31781 5.48306 4.19234 5.13174C4.19234 5.12547 3.92258 4.29736 4.36173 3.51317C4.78206 2.76035 5.71681 2.22083 7.13463 1.9197C8.27013 1.67503 9.81342 1.63112 11.708 1.78168C11.7331 1.78168 11.7645 1.78168 11.7959 1.78168C15.8297 1.69385 19.9075 2.22083 19.9514 2.2271L19.9577 2.2271L20.5913 2.30238C20.5537 2.47804 20.5349 2.66625 20.5349 2.85446L20.5349 13.0552C20.5349 13.325 20.5788 13.5885 20.6541 13.8331C20.5412 14.2535 20.2275 15.1882 19.4872 15.9849C16.6704 18.2183 13.9163 25.7528 13.7971 26.079C13.7469 26.2108 13.7344 26.3551 13.7595 26.4994C13.8661 27.202 13.8285 28.0615 13.6779 28.3187C13.3454 28.3124 12.4483 28.2183 11.9088 27.4718C11.2689 26.5872 11.294 25.0063 11.9841 22.9109C13.038 19.7177 13.1258 18.0364 12.2915 17.2961C11.8774 16.926 11.3253 16.9072 10.9238 17.0514C10.5412 17.1393 10.1773 17.2146 9.83224 17.271C9.80715 17.2773 9.77578 17.2836 9.75069 17.2898C7.82471 17.7102 4.37427 17.9674 3.17603 16.8758C2.15972 15.9473 2.88118 14.7177 2.96273 14.5859C3.19485 14.2346 3.12584 13.7767 2.81217 13.4944C2.80589 13.4881 2.14717 12.867 2.11581 12.0326C2.09071 11.4743 2.3542 10.9034 2.9 10.3388Z" fill="#4B4A4A"/>
</g>
<defs>
<clipPath id="clip0">
<rect width="30" height="30" fill="white" transform="translate(30 30) rotate(-180)"/>
</clipPath>
</defs>
</svg>
