<svg width="226" height="153" viewBox="0 0 226 153" fill="none" xmlns="http://www.w3.org/2000/svg">
<path d="M2.89453 13.23C5.51534 8.25057 9.74438 4.27674 14.8788 2.0354L7.69538 16.1255L2.89453 13.23Z" fill="url(#paint0_linear)"/>
<path d="M2.97819 36.9276C1.08406 33.3778 0 29.3191 0 25.0061C0 21.008 0.929196 17.228 2.57316 13.8721L10.793 18.8272C9.97099 20.7172 9.51831 22.8132 9.51831 25.0061C9.51831 25.7088 9.56596 26.3993 9.66126 27.0899L2.97819 36.9276Z" fill="url(#paint1_linear)"/>
<path d="M9.79228 44.9721C7.19529 42.9852 5.00334 40.4895 3.35938 37.6181L9.8161 28.0955C10.9359 33.6322 14.9862 38.0785 20.2517 39.6898L9.79228 44.9721Z" fill="url(#paint2_linear)"/>
<path d="M37.7633 46.1109C33.9512 48.5703 29.4362 49.9999 24.5877 49.9999C19.3223 49.9999 14.438 48.3159 10.4473 45.4446L21.3117 39.9563C22.3719 40.1986 23.4679 40.3198 24.5996 40.3198C27.4944 40.3198 30.1986 39.4959 32.4859 38.0542L37.7633 46.1109Z" fill="url(#paint3_linear)"/>
<path d="M48.7706 29.8644H48.6991C47.4244 36.4431 43.6123 42.0888 38.3469 45.7234L33.0576 37.6909C37.0365 34.9286 39.6454 30.2885 39.6454 25.0183C39.6454 24.1581 39.5739 23.3221 39.4429 22.5104L48.7587 20.4023V29.8644H48.7706Z" fill="url(#paint4_linear)"/>
<path d="M91.2996 20.1841H98.9952C101.628 20.1841 103.76 22.3527 103.76 25.0302C103.76 27.7077 101.628 29.8642 98.9952 29.8642H77.6118L76.5039 27.2837L91.2996 20.1841Z" fill="url(#paint5_linear)"/>
<path d="M80.6729 18.7061L80.6848 12.0668C80.6848 9.38935 82.8171 7.2207 85.438 7.2207C88.0588 7.2207 90.2031 9.38935 90.2031 12.0668L90.1912 19.9297L82.8767 23.431L80.6729 18.7061Z" fill="url(#paint6_linear)"/>
<path d="M73.4424 20.1841H80.5781L82.234 23.7339L76.2181 26.6173L73.4424 20.1841Z" fill="#496AB3"/>
<path d="M65.425 20.1841H72.668L76.8374 29.8642H56.4785L65.425 20.1841Z" fill="url(#paint7_linear)"/>
<path d="M49.676 20.1841H64.4478L55.5132 29.8642H49.4854V20.2204L49.676 20.1841Z" fill="url(#paint8_linear)"/>
<path d="M44.947 11.0007C46.6743 13.5934 47.9371 16.5253 48.6042 19.6874L39.3242 21.7834C39.205 21.1897 39.0383 20.6082 38.8477 20.0388L44.947 11.0007Z" fill="url(#paint9_linear)"/>
<path d="M30.3057 0.678467C36.1072 2.08385 41.1105 5.58518 44.5057 10.3586L38.5374 19.2028C37.0126 15.4107 34.0344 12.3698 30.3057 10.8069V0.678467Z" fill="url(#paint10_linear)"/>
<path d="M24.5875 0C26.3029 0 27.9826 0.18173 29.6028 0.52096V10.5403C28.0303 9.97093 26.3387 9.66804 24.5875 9.66804C18.6788 9.66804 13.5682 13.133 11.0903 18.1609L8.30273 16.4769L15.8793 1.59923C18.5835 0.569421 21.5259 0 24.5875 0Z" fill="url(#paint11_linear)"/>
<path d="M2.7 91V70H10.53C13.81 70 16.49 71 18.57 73C20.65 74.98 21.69 77.48 21.69 80.5C21.69 83.5 20.64 86 18.54 88C16.46 90 13.79 91 10.53 91H2.7ZM6.39 87.64H10.53C12.71 87.64 14.47 86.98 15.81 85.66C17.15 84.32 17.82 82.6 17.82 80.5C17.82 78.42 17.15 76.71 15.81 75.37C14.47 74.03 12.71 73.36 10.53 73.36H6.39V87.64ZM36.1668 91V70H45.5268C47.9668 70 49.8768 70.61 51.2568 71.83C52.6368 73.03 53.3268 74.65 53.3268 76.69C53.3268 78.35 52.8768 79.72 51.9768 80.8C51.0768 81.86 49.8568 82.61 48.3168 83.05L53.9868 91H49.6368L44.4168 83.68H39.8568V91H36.1668ZM39.8568 80.41H45.2568C46.5768 80.41 47.6268 80.09 48.4068 79.45C49.1868 78.81 49.5768 77.94 49.5768 76.84C49.5768 75.72 49.1968 74.86 48.4368 74.26C47.6768 73.66 46.6068 73.36 45.2268 73.36H39.8568V80.41ZM67.8465 91V70H83.4165V73.3H71.5365V78.76H82.0665V82.06H71.5365V87.7H83.5665V91H67.8465ZM96.1441 91L105.384 69.85H108.804L118.044 91H114.144L112.014 85.93H102.084L99.9241 91H96.1441ZM103.434 82.66H110.664L107.034 74.26L103.434 82.66ZM131.645 91V70H135.575L141.965 79.93L148.355 70H152.285V91H148.595V75.94L141.965 85.84H141.845L135.275 76V91H131.645ZM2.7 123V102H12.06C14.5 102 16.41 102.61 17.79 103.83C19.17 105.03 19.86 106.65 19.86 108.69C19.86 110.35 19.41 111.72 18.51 112.8C17.61 113.86 16.39 114.61 14.85 115.05L20.52 123H16.17L10.95 115.68H6.39V123H2.7ZM6.39 112.41H11.79C13.11 112.41 14.16 112.09 14.94 111.45C15.72 110.81 16.11 109.94 16.11 108.84C16.11 107.72 15.73 106.86 14.97 106.26C14.21 105.66 13.14 105.36 11.76 105.36H6.39V112.41ZM34.3797 123V102H49.9497V105.3H38.0697V110.76H48.5997V114.06H38.0697V119.7H50.0997V123H34.3797ZM62.6773 123L71.9173 101.85H75.3373L84.5773 123H80.6773L78.5473 117.93H68.6173L66.4573 123H62.6773ZM69.9673 114.66H77.1973L73.5673 106.26L69.9673 114.66ZM98.1785 123V102H101.869V119.64H112.909V123H98.1785ZM128.924 123V105.42H122.264V102H139.304V105.42H132.644V123H128.924ZM159.398 123V114.72L151.058 102H155.408L161.288 111.3L167.228 102H171.458L163.118 114.63V123H159.398Z" fill="#3F3653"/>
<defs>
<linearGradient id="paint0_linear" x1="7.19947" y1="11.7588" x2="14.4984" y2="-1.16369" gradientUnits="userSpaceOnUse">
<stop stop-color="#E5524D"/>
<stop offset="1" stop-color="#E23235"/>
</linearGradient>
<linearGradient id="paint1_linear" x1="5.07444" y1="34.7013" x2="7.38891" y2="14.1215" gradientUnits="userSpaceOnUse">
<stop stop-color="#A91F23"/>
<stop offset="1" stop-color="#D52A27"/>
</linearGradient>
<linearGradient id="paint2_linear" x1="12.7373" y1="42.3013" x2="9.46964" y2="29.4386" gradientUnits="userSpaceOnUse">
<stop stop-color="#E86724"/>
<stop offset="1" stop-color="#E54A25"/>
</linearGradient>
<linearGradient id="paint3_linear" x1="38.1048" y1="43.8491" x2="16.8547" y2="46.0649" gradientUnits="userSpaceOnUse">
<stop stop-color="#EF9921"/>
<stop offset="1" stop-color="#F9D408"/>
</linearGradient>
<linearGradient id="paint4_linear" x1="40.8501" y1="23.002" x2="41.3778" y2="40.1804" gradientUnits="userSpaceOnUse">
<stop stop-color="#4BB248"/>
<stop offset="1" stop-color="#82C141"/>
</linearGradient>
<linearGradient id="paint5_linear" x1="76.5088" y1="25.0265" x2="103.755" y2="25.0265" gradientUnits="userSpaceOnUse">
<stop stop-color="#4F409A"/>
<stop offset="1" stop-color="#7650A1"/>
</linearGradient>
<linearGradient id="paint6_linear" x1="85.9375" y1="8.50743" x2="83.6449" y2="20.2726" gradientUnits="userSpaceOnUse">
<stop stop-color="#6556A4"/>
<stop offset="1" stop-color="#4954A4"/>
</linearGradient>
<linearGradient id="paint7_linear" x1="56.4763" y1="25.0216" x2="76.8387" y2="25.0216" gradientUnits="userSpaceOnUse">
<stop stop-color="#4F7CBE"/>
<stop offset="1" stop-color="#59A8DD"/>
</linearGradient>
<linearGradient id="paint8_linear" x1="59.6688" y1="25.7531" x2="51.1054" y2="20.2072" gradientUnits="userSpaceOnUse">
<stop stop-color="#44B46C"/>
<stop offset="1" stop-color="#48B98D"/>
</linearGradient>
<linearGradient id="paint9_linear" x1="46.3803" y1="15.7286" x2="40.1155" y2="20.7466" gradientUnits="userSpaceOnUse">
<stop stop-color="#FADA07"/>
<stop offset="1" stop-color="#F7C314"/>
</linearGradient>
<linearGradient id="paint10_linear" x1="35.5156" y1="3.76479" x2="41.7897" y2="17.0484" gradientUnits="userSpaceOnUse">
<stop stop-color="#FAD00C"/>
<stop offset="1" stop-color="#E86E24"/>
</linearGradient>
<linearGradient id="paint11_linear" x1="11.4688" y1="11.3135" x2="24.7123" y2="2.85917" gradientUnits="userSpaceOnUse">
<stop stop-color="#EF9321"/>
<stop offset="1" stop-color="#EA7224"/>
</linearGradient>
</defs>
</svg>
