<svg width="336" height="32" viewBox="0 0 336 32" fill="none" xmlns="http://www.w3.org/2000/svg">
<path d="M1.62231 8.40885C3.0911 5.62039 5.46118 3.39504 8.33866 2.13989L4.31286 10.0304L1.62231 8.40885Z" fill="url(#paint0_linear)"/>
<path d="M1.66907 21.6794C0.607542 19.6915 0 17.4187 0 15.0033C0 12.7644 0.52075 10.6476 1.44208 8.76831L6.04871 11.5432C5.58805 12.6016 5.33435 13.7753 5.33435 15.0033C5.33435 15.3969 5.36106 15.7836 5.41447 16.1703L1.66907 21.6794Z" fill="url(#paint1_linear)"/>
<path d="M5.48788 26.1843C4.03245 25.0717 2.80402 23.674 1.88269 22.0661L5.50124 16.7334C6.12881 19.834 8.39874 22.3239 11.3497 23.2262L5.48788 26.1843Z" fill="url(#paint2_linear)"/>
<path d="M21.1638 26.8221C19.0274 28.1993 16.4971 28.9999 13.7798 28.9999C10.8289 28.9999 8.09166 28.0568 5.8551 26.4489L11.9439 23.3755C12.5381 23.5112 13.1523 23.579 13.7865 23.579C15.4089 23.579 16.9244 23.1177 18.2062 22.3103L21.1638 26.8221Z" fill="url(#paint3_linear)"/>
<path d="M27.3328 17.7241H27.2927C26.5783 21.4081 24.4419 24.5697 21.491 26.6051L18.5267 22.1069C20.7566 20.56 22.2187 17.9615 22.2187 15.0102C22.2187 14.5285 22.1787 14.0604 22.1052 13.6058L27.3261 12.4253V17.7241H27.3328Z" fill="url(#paint4_linear)"/>
<path d="M51.1671 12.3032H55.4799C56.9554 12.3032 58.1505 13.5177 58.1505 15.0171C58.1505 16.5165 56.9554 17.7241 55.4799 17.7241H43.496L42.8751 16.279L51.1671 12.3032Z" fill="url(#paint5_linear)"/>
<path d="M45.2118 11.4755L45.2185 7.75754C45.2185 6.25814 46.4135 5.0437 47.8823 5.0437C49.3511 5.0437 50.5528 6.25814 50.5528 7.75754L50.5461 12.1607L46.4469 14.1215L45.2118 11.4755Z" fill="url(#paint6_linear)"/>
<path d="M41.1593 12.3032H45.1584L46.0864 14.2911L42.7149 15.9058L41.1593 12.3032Z" fill="url(#paint7_linear)"/>
<path d="M36.6661 12.3032H40.7253L43.062 17.7241H31.6522L36.6661 12.3032Z" fill="url(#paint8_linear)"/>
<path d="M27.8401 12.3032H36.1187L31.1115 17.7241H27.7333V12.3236L27.8401 12.3032Z" fill="url(#paint9_linear)"/>
<path d="M25.1896 7.1604C26.1577 8.6123 26.8654 10.2542 27.2392 12.025L22.0384 13.1987C21.9716 12.8662 21.8782 12.5406 21.7714 12.2217L25.1896 7.1604Z" fill="url(#paint10_linear)"/>
<path d="M16.9845 1.37988C20.2358 2.1669 23.0399 4.12764 24.9426 6.80077L21.5978 11.7535C20.7432 9.62994 19.0742 7.92701 16.9845 7.0518V1.37988Z" fill="url(#paint11_linear)"/>
<path d="M13.7798 1C14.7412 1 15.6825 1.10177 16.5905 1.29174V6.90259C15.7092 6.58372 14.7612 6.4141 13.7798 6.4141C10.4684 6.4141 7.60424 8.35449 6.21557 11.1701L4.65332 10.227L8.89944 1.89557C10.415 1.31888 12.064 1 13.7798 1Z" fill="url(#paint12_linear)"/>
<path d="M77.62 14V1.4H82.318C84.286 1.4 85.894 2 87.142 3.2C88.39 4.388 89.014 5.888 89.014 7.7C89.014 9.5 88.384 11 87.124 12.2C85.876 13.4 84.274 14 82.318 14H77.62ZM79.834 11.984H82.318C83.626 11.984 84.682 11.588 85.486 10.796C86.29 9.992 86.692 8.96 86.692 7.7C86.692 6.452 86.29 5.426 85.486 4.622C84.682 3.818 83.626 3.416 82.318 3.416H79.834V11.984ZM101.7 14V1.4H107.316C108.78 1.4 109.926 1.766 110.754 2.498C111.582 3.218 111.996 4.19 111.996 5.414C111.996 6.41 111.726 7.232 111.186 7.88C110.646 8.516 109.914 8.966 108.99 9.23L112.392 14H109.782L106.65 9.608H103.914V14H101.7ZM103.914 7.646H107.154C107.946 7.646 108.576 7.454 109.044 7.07C109.512 6.686 109.746 6.164 109.746 5.504C109.746 4.832 109.518 4.316 109.062 3.956C108.606 3.596 107.964 3.416 107.136 3.416H103.914V7.646ZM124.708 14V1.4H134.05V3.38H126.922V6.656H133.24V8.636H126.922V12.02H134.14V14H124.708ZM145.686 14L151.23 1.31H153.282L158.826 14H156.486L155.208 10.958H149.25L147.954 14H145.686ZM150.06 8.996H154.398L152.22 3.956L150.06 8.996ZM170.987 14V1.4H173.345L177.179 7.358L181.013 1.4H183.371V14H181.157V4.964L177.179 10.904H177.107L173.165 5V14H170.987ZM212.011 14V1.4H217.627C219.091 1.4 220.237 1.766 221.065 2.498C221.893 3.218 222.307 4.19 222.307 5.414C222.307 6.41 222.037 7.232 221.497 7.88C220.957 8.516 220.225 8.966 219.301 9.23L222.703 14H220.093L216.961 9.608H214.225V14H212.011ZM214.225 7.646H217.465C218.257 7.646 218.887 7.454 219.355 7.07C219.823 6.686 220.057 6.164 220.057 5.504C220.057 4.832 219.829 4.316 219.373 3.956C218.917 3.596 218.275 3.416 217.447 3.416H214.225V7.646ZM235.018 14V1.4H244.36V3.38H237.232V6.656H243.55V8.636H237.232V12.02H244.45V14H235.018ZM255.997 14L261.541 1.31H263.593L269.137 14H266.797L265.519 10.958H259.561L258.265 14H255.997ZM260.371 8.996H264.709L262.531 3.956L260.371 8.996ZM281.298 14V1.4H283.512V11.984H290.136V14H281.298ZM303.745 14V3.452H299.749V1.4H309.973V3.452H305.977V14H303.745ZM326.029 14V9.032L321.025 1.4H323.635L327.163 6.98L330.727 1.4H333.265L328.261 8.978V14H326.029Z" fill="white"/>
<path d="M81.9102 25.3652H78.8633L78.2188 27H77.1113L79.918 20.1738H80.8906L83.6562 27H82.5547L81.9102 25.3652ZM79.2148 24.4805H81.5645L80.3984 21.498L79.2148 24.4805ZM94.2645 21.0703H90.8777V27H89.7937V20.1738H94.2645V21.0703ZM104.726 23.918H101.609V26.1152H105.236V27H100.525V20.1738H105.201V21.0703H101.609V23.0273H104.726V23.918ZM117.28 27H116.196V24.082H112.657V27H111.573V20.1738H112.657V23.1914H116.196V20.1738H117.28V27ZM129.282 21.0703H126.945V27H125.861V21.0703H123.534V20.1738H129.282V21.0703ZM141.004 24.791C140.926 25.5215 140.641 26.0879 140.148 26.4902C139.656 26.8926 139.002 27.0938 138.186 27.0938C137.311 27.0938 136.607 26.8066 136.076 26.2324C135.549 25.6543 135.285 24.8594 135.285 23.8477V23.2969C135.285 22.6562 135.404 22.0938 135.643 21.6094C135.885 21.1211 136.23 20.7441 136.68 20.4785C137.133 20.2129 137.656 20.0801 138.25 20.0801C139.047 20.0801 139.686 20.2871 140.166 20.7012C140.65 21.1113 140.93 21.6816 141.004 22.4121H139.92C139.85 21.9043 139.676 21.5371 139.398 21.3105C139.125 21.084 138.742 20.9707 138.25 20.9707C137.652 20.9707 137.189 21.1699 136.861 21.5684C136.537 21.9629 136.373 22.5293 136.369 23.2676V23.8887C136.369 24.627 136.523 25.1992 136.832 25.6055C137.145 26.0078 137.596 26.209 138.186 26.209C138.713 26.209 139.113 26.1016 139.387 25.8867C139.664 25.668 139.842 25.3027 139.92 24.791H141.004ZM152.632 21.0703H150.294V27H149.21V21.0703H146.884V20.1738H152.632V21.0703ZM158.88 27V20.1738H161.259C162.076 20.1738 162.701 20.334 163.134 20.6543C163.568 20.9707 163.785 21.4316 163.785 22.0371C163.785 22.3535 163.691 22.6348 163.504 22.8809C163.32 23.127 163.056 23.3145 162.713 23.4434C163.099 23.5371 163.406 23.7305 163.632 24.0234C163.859 24.3125 163.972 24.6543 163.972 25.0488C163.972 25.666 163.759 26.1445 163.334 26.4844C162.908 26.8242 162.302 26.9961 161.517 27H158.88ZM159.964 23.8945V26.1152H161.5C161.949 26.1152 162.293 26.0195 162.531 25.8281C162.769 25.6367 162.888 25.375 162.888 25.043C162.888 24.2773 162.429 23.8945 161.511 23.8945H159.964ZM159.964 23.0684H161.336C161.757 23.0684 162.089 22.9863 162.332 22.8223C162.574 22.6543 162.695 22.4082 162.695 22.084C162.695 21.4277 162.248 21.0898 161.353 21.0703H159.964V23.0684ZM176.268 23.7891C176.268 24.8086 175.998 25.6152 175.459 26.209C174.92 26.7988 174.198 27.0938 173.291 27.0938C172.397 27.0938 171.674 26.7949 171.123 26.1973C170.577 25.5996 170.303 24.7871 170.303 23.7598V23.3965C170.303 22.3887 170.575 21.584 171.118 20.9824C171.664 20.3809 172.385 20.0801 173.28 20.0801C174.19 20.0801 174.912 20.377 175.448 20.9707C175.987 21.5645 176.26 22.3594 176.268 23.3555V23.7891ZM175.196 23.3848C175.196 22.6113 175.028 22.0195 174.692 21.6094C174.356 21.1992 173.885 20.9941 173.28 20.9941C172.694 20.9941 172.229 21.2031 171.885 21.6211C171.545 22.0391 171.375 22.6328 171.375 23.4023V23.7891C171.375 24.5508 171.547 25.1426 171.891 25.5645C172.235 25.9824 172.702 26.1914 173.291 26.1914C173.901 26.1914 174.37 25.9863 174.698 25.5762C175.03 25.1621 175.196 24.5664 175.196 23.7891V23.3848ZM196.734 27H195.65V24.082H192.111V27H191.027V20.1738H192.111V23.1914H195.65V20.1738H196.734V27ZM207.764 23.918H204.647V26.1152H208.274V27H203.563V20.1738H208.239V21.0703H204.647V23.0273H207.764V23.918ZM214.582 26.1094L214.822 25.8223C215.099 25.4863 215.306 25.0723 215.443 24.5801C215.584 24.084 215.668 23.4141 215.695 22.5703L215.777 20.1738H220.318V26.1094H221.156V28.9922H220.072V27H215.162V28.9863H214.072L214.078 26.1094H214.582ZM215.847 26.1094H219.234V21.0703H216.82L216.75 22.8984C216.683 24.3008 216.382 25.3711 215.847 26.1094ZM227.522 27V20.1738H229.901C230.717 20.1738 231.342 20.334 231.776 20.6543C232.209 20.9707 232.426 21.4316 232.426 22.0371C232.426 22.3535 232.332 22.6348 232.145 22.8809C231.961 23.127 231.698 23.3145 231.354 23.4434C231.741 23.5371 232.047 23.7305 232.274 24.0234C232.5 24.3125 232.614 24.6543 232.614 25.0488C232.614 25.666 232.401 26.1445 231.975 26.4844C231.549 26.8242 230.944 26.9961 230.159 27H227.522ZM228.606 23.8945V26.1152H230.141C230.59 26.1152 230.934 26.0195 231.172 25.8281C231.411 25.6367 231.53 25.375 231.53 25.043C231.53 24.2773 231.071 23.8945 230.153 23.8945H228.606ZM228.606 23.0684H229.977C230.399 23.0684 230.731 22.9863 230.973 22.8223C231.215 22.6543 231.336 22.4082 231.336 22.084C231.336 21.4277 230.889 21.0898 229.995 21.0703H228.606V23.0684ZM243.866 20.1738H244.95V27H243.866V21.8203L240.275 27H239.191V20.1738H240.275V25.3535L243.866 20.1738ZM256.619 24.0586H256.039V27H254.949V24.0586H254.363L252.518 27H251.146L253.432 23.5254L251.357 20.1738H252.67L254.428 23.1562H254.949V20.1738H256.039V23.1562H256.561L258.318 20.1738H259.631L257.545 23.4727L259.842 27H258.471L256.619 24.0586ZM270.72 20.1738H271.804V27H270.72V21.8203L267.128 27H266.044V20.1738H267.128V25.3535L270.72 20.1738ZM280.033 20.1738L282.324 25.5117L284.603 20.1738H286.015V27H284.937V24.6504L285.048 21.5273L282.716 27H281.92L279.593 21.5508L279.705 24.6504V27H278.627V20.1738H280.033ZM298.557 23.7891C298.557 24.8086 298.287 25.6152 297.748 26.209C297.209 26.7988 296.487 27.0938 295.58 27.0938C294.686 27.0938 293.963 26.7949 293.412 26.1973C292.866 25.5996 292.592 24.7871 292.592 23.7598V23.3965C292.592 22.3887 292.864 21.584 293.407 20.9824C293.954 20.3809 294.674 20.0801 295.569 20.0801C296.479 20.0801 297.202 20.377 297.737 20.9707C298.276 21.5645 298.549 22.3594 298.557 23.3555V23.7891ZM297.485 23.3848C297.485 22.6113 297.317 22.0195 296.981 21.6094C296.645 21.1992 296.174 20.9941 295.569 20.9941C294.983 20.9941 294.518 21.2031 294.174 21.6211C293.834 22.0391 293.664 22.6328 293.664 23.4023V23.7891C293.664 24.5508 293.836 25.1426 294.18 25.5645C294.524 25.9824 294.991 26.1914 295.58 26.1914C296.19 26.1914 296.659 25.9863 296.987 25.5762C297.319 25.1621 297.485 24.5664 297.485 23.7891V23.3848ZM310.613 24.791C310.534 25.5215 310.249 26.0879 309.757 26.4902C309.265 26.8926 308.611 27.0938 307.794 27.0938C306.919 27.0938 306.216 26.8066 305.685 26.2324C305.157 25.6543 304.894 24.8594 304.894 23.8477V23.2969C304.894 22.6562 305.013 22.0938 305.251 21.6094C305.493 21.1211 305.839 20.7441 306.288 20.4785C306.741 20.2129 307.265 20.0801 307.859 20.0801C308.655 20.0801 309.294 20.2871 309.775 20.7012C310.259 21.1113 310.538 21.6816 310.613 22.4121H309.529C309.458 21.9043 309.284 21.5371 309.007 21.3105C308.734 21.084 308.351 20.9707 307.859 20.9707C307.261 20.9707 306.798 21.1699 306.47 21.5684C306.146 21.9629 305.982 22.5293 305.978 23.2676V23.8887C305.978 24.627 306.132 25.1992 306.441 25.6055C306.753 26.0078 307.204 26.209 307.794 26.209C308.321 26.209 308.722 26.1016 308.995 25.8867C309.273 25.668 309.45 25.3027 309.529 24.791H310.613ZM322.24 21.0703H319.902V27H318.818V21.0703H316.492V20.1738H322.24V21.0703ZM333.165 20.1738H334.249V27H333.165V21.8203L329.573 27H328.489V20.1738H329.573V25.3535L333.165 20.1738Z" fill="white"/>
<defs>
<linearGradient id="paint0_linear" x1="4.03493" y1="7.58498" x2="8.12071" y2="0.345714" gradientUnits="userSpaceOnUse">
<stop stop-color="white"/>
<stop offset="1" stop-color="white"/>
</linearGradient>
<linearGradient id="paint1_linear" x1="2.84387" y1="20.4327" x2="4.139" y2="8.90775" gradientUnits="userSpaceOnUse">
<stop stop-color="white"/>
<stop offset="1" stop-color="white"/>
</linearGradient>
<linearGradient id="paint2_linear" x1="6.3337" y1="25.2717" x2="6.78145" y2="16.7525" gradientUnits="userSpaceOnUse">
<stop stop-color="white"/>
<stop offset="1" stop-color="white"/>
</linearGradient>
<linearGradient id="paint3_linear" x1="13.0527" y1="28.3539" x2="13.1917" y2="22.3103" gradientUnits="userSpaceOnUse">
<stop stop-color="white"/>
<stop offset="1" stop-color="white"/>
</linearGradient>
<linearGradient id="paint4_linear" x1="22.667" y1="25.2358" x2="23.7458" y2="12.51" gradientUnits="userSpaceOnUse">
<stop stop-color="white"/>
<stop offset="1" stop-color="white"/>
</linearGradient>
<linearGradient id="paint5_linear" x1="50.057" y1="17.2007" x2="50.1485" y2="12.3024" gradientUnits="userSpaceOnUse">
<stop stop-color="white"/>
<stop offset="1" stop-color="white"/>
</linearGradient>
<linearGradient id="paint6_linear" x1="47.7229" y1="13.2449" x2="48.4513" y2="5.10459" gradientUnits="userSpaceOnUse">
<stop stop-color="white"/>
<stop offset="1" stop-color="white"/>
</linearGradient>
<linearGradient id="paint7_linear" x1="43.4758" y1="15.558" x2="43.601" y2="12.3063" gradientUnits="userSpaceOnUse">
<stop stop-color="white"/>
<stop offset="1" stop-color="white"/>
</linearGradient>
<linearGradient id="paint8_linear" x1="37.0167" y1="17.2007" x2="37.1391" y2="12.3037" gradientUnits="userSpaceOnUse">
<stop stop-color="white"/>
<stop offset="1" stop-color="white"/>
</linearGradient>
<linearGradient id="paint9_linear" x1="31.6758" y1="17.2007" x2="31.8424" y2="12.3063" gradientUnits="userSpaceOnUse">
<stop stop-color="white"/>
<stop offset="1" stop-color="white"/>
</linearGradient>
<linearGradient id="paint10_linear" x1="24.3421" y1="12.6156" x2="24.6584" y2="7.17593" gradientUnits="userSpaceOnUse">
<stop stop-color="white"/>
<stop offset="1" stop-color="white"/>
</linearGradient>
<linearGradient id="paint11_linear" x1="20.7261" y1="10.7518" x2="21.3666" y2="1.41893" gradientUnits="userSpaceOnUse">
<stop stop-color="white"/>
<stop offset="1" stop-color="white"/>
</linearGradient>
<linearGradient id="paint12_linear" x1="10.2657" y1="10.188" x2="10.6772" y2="1.01365" gradientUnits="userSpaceOnUse">
<stop stop-color="white"/>
<stop offset="1" stop-color="white"/>
</linearGradient>
</defs>
</svg>
