<svg width="77" height="78" viewBox="0 0 77 78" fill="none" xmlns="http://www.w3.org/2000/svg">
<path d="M75.8067 6.09137H72.1386V4.8731C72.1386 2.19289 69.9378 0 67.2478 0H22.0084C19.3185 0 17.1176 2.19289 17.1176 4.8731V6.09137H1.22269C0.55021 6.09137 0 6.63959 0 7.30964V62.1167C0 62.1624 0 62.2081 0 62.2538C0 62.2843 0.0152836 62.3299 0.0152836 62.3604C0.0152836 62.3756 0.0152836 62.3909 0.0305672 62.4061C0.0305672 62.4365 0.0458508 62.4518 0.0458508 62.4822C0.0458508 62.4975 0.0611344 62.5279 0.0611344 62.5431C0.0611344 62.5584 0.076418 62.5736 0.076418 62.5888C0.0917016 62.6193 0.0917016 62.6345 0.106985 62.665C0.106985 62.6802 0.122269 62.6802 0.122269 62.6954C0.137552 62.7259 0.152836 62.7563 0.16812 62.7868V62.802C0.21397 62.8782 0.275105 62.9391 0.336239 63L6.4344 69.0761C6.49553 69.1371 6.55666 69.198 6.63308 69.2437C6.66365 69.2589 6.69422 69.2893 6.74007 69.3046C6.74007 69.3046 6.75535 69.3046 6.75535 69.3198C6.78592 69.335 6.81649 69.3503 6.84705 69.3655C6.86234 69.3655 6.86234 69.3655 6.87762 69.3807C6.90819 69.3959 6.93875 69.3959 6.96932 69.4112C6.98461 69.4112 6.98461 69.4112 6.99989 69.4264C7.03046 69.4264 7.06102 69.4416 7.07631 69.4416C7.09159 69.4416 7.10687 69.4416 7.12216 69.4569C7.13744 69.4569 7.16801 69.4569 7.18329 69.4721C7.22914 69.4721 7.25971 69.4721 7.30556 69.4721H17.0871V73.1269C17.0871 75.8071 19.2879 78 21.9778 78H67.2173C69.9072 78 72.108 75.8071 72.108 73.1269V28.5228L76.6473 24C76.8765 23.7716 76.9988 23.467 76.9988 23.132V7.30964C77.0294 6.63959 76.4791 6.09137 75.8067 6.09137ZM22.0084 2.43655H67.2478C68.5928 2.43655 69.6932 3.53299 69.6932 4.8731V28.0051V28.0203V65.7868C69.6932 67.1269 68.5928 68.2234 67.2478 68.2234H22.0084C21.1219 68.2234 20.2813 68.467 19.563 68.8782V4.8731C19.563 3.53299 20.6634 2.43655 22.0084 2.43655ZM64.8025 71.8782H24.4538V70.6599H64.8025V71.8782ZM6.11344 65.2843L4.17242 63.3503H6.11344V65.2843ZM8.55882 67.0051V62.132C8.55882 61.4619 8.00861 60.9137 7.33613 60.9137H2.44538V8.52792H17.1176V23.1472H9.7815C9.10903 23.1472 8.55882 23.6954 8.55882 24.3655C8.55882 25.0355 9.10903 25.5838 9.7815 25.5838H17.1176V30.4569H9.7815C9.10903 30.4569 8.55882 31.0051 8.55882 31.6751C8.55882 32.3452 9.10903 32.8934 9.7815 32.8934H17.1176V37.7665H9.7815C9.10903 37.7665 8.55882 38.3147 8.55882 38.9848C8.55882 39.6548 9.10903 40.203 9.7815 40.203H17.1176V45.0761H9.7815C9.10903 45.0761 8.55882 45.6244 8.55882 46.2944C8.55882 46.9645 9.10903 47.5127 9.7815 47.5127H17.1176V67.0051H8.55882ZM67.2478 75.533H22.0084C20.6634 75.533 19.563 74.4365 19.563 73.0965C19.563 71.7563 20.6634 70.6599 22.0084 70.6599V73.0965C22.0084 73.7665 22.5586 74.3147 23.2311 74.3147H66.0252C66.6976 74.3147 67.2478 73.7665 67.2478 73.0965V70.6599C68.1343 70.6599 68.9749 70.4162 69.6932 70.0051V73.0965C69.6932 74.4365 68.5928 75.533 67.2478 75.533ZM74.584 22.6447L72.1386 25.0812V8.52792H74.584V22.6447Z" fill="#5D2352" fill-opacity="0.16"/>
<path d="M30.2302 53H59.7698C60.4464 53 61 52.55 61 52C61 51.45 60.4464 51 59.7698 51H30.2302C29.5536 51 29 51.45 29 52C29 52.55 29.5536 53 30.2302 53Z" fill="#5D2352" fill-opacity="0.16"/>
<path d="M52.7857 55H38.2143C37.5464 55 37 55.45 37 56C37 56.55 37.5464 57 38.2143 57H52.7857C53.4536 57 54 56.55 54 56C54 55.45 53.4536 55 52.7857 55Z" fill="#5D2352" fill-opacity="0.16"/>
<path d="M33.8973 35.4054C36.5922 35.4054 38.7943 33.2733 38.8251 30.6456C38.8251 30.5556 38.8251 30.4655 38.8097 30.3604C38.8097 30.3604 38.8097 30.3604 38.8097 30.3453C38.8097 30.3153 38.7943 30.2853 38.7943 30.2553C38.7943 30.2402 38.7943 30.2402 38.7789 30.2252V30.2102L35.622 20.976H43.7528V42.5976H35.1292C34.4517 42.5976 33.8973 43.1381 33.8973 43.7988C33.8973 44.4595 34.4517 45 35.1292 45H54.8403C55.5179 45 56.0722 44.4595 56.0722 43.7988C56.0722 43.1381 55.5179 42.5976 54.8403 42.5976H46.2167V20.976H54.3629L51.2061 30.1952C51.1753 30.2703 51.1599 30.3453 51.1445 30.4354C51.1445 30.4354 51.1445 30.4354 51.1445 30.4504C51.1445 30.4805 51.1445 30.5105 51.1445 30.5405C51.1445 30.5556 51.1445 30.5556 51.1445 30.5706V30.5856C51.1445 33.2282 53.362 35.3904 56.0722 35.3904C58.7671 35.3904 60.9692 33.2583 61 30.6306C61 30.5405 61 30.4504 60.9846 30.3453C60.9846 30.3453 60.9846 30.3453 60.9846 30.3303C60.9846 30.3003 60.9692 30.2703 60.9692 30.2402C60.9692 30.2252 60.9692 30.2252 60.9538 30.2102V30.1952L57.258 19.3844C57.258 19.3694 57.2426 19.3694 57.2426 19.3544C57.2426 19.3393 57.2272 19.3243 57.2272 19.3093C57.2272 19.2943 57.2272 19.2943 57.2118 19.2793C57.2118 19.2643 57.1964 19.2492 57.1964 19.2342C57.1964 19.2192 57.181 19.2192 57.181 19.2042C57.181 19.1892 57.1656 19.1892 57.1656 19.1742C57.1502 19.1592 57.1502 19.1441 57.1348 19.1291C57.1348 19.1141 57.1194 19.1141 57.1194 19.0991C57.1194 19.0841 57.104 19.0841 57.104 19.0691C57.0886 19.0541 57.0886 19.039 57.0732 19.024C57.0732 19.009 57.0578 19.009 57.0578 19.009L57.0424 18.994C57.027 18.979 57.0116 18.964 56.9962 18.9489L56.9808 18.9339C56.9808 18.9339 56.9808 18.9339 56.9654 18.9189C56.95 18.9039 56.9346 18.8889 56.9192 18.8739C56.9038 18.8739 56.9038 18.8589 56.8884 18.8589C56.8884 18.8589 56.8884 18.8589 56.873 18.8438C56.8576 18.8288 56.8422 18.8138 56.8268 18.7988C56.8114 18.7988 56.8114 18.7838 56.796 18.7838C56.796 18.7838 56.7806 18.7838 56.7806 18.7688C56.7652 18.7538 56.7498 18.7387 56.719 18.7387C56.7036 18.7387 56.7036 18.7237 56.6882 18.7237H56.6728C56.6574 18.7087 56.6266 18.7087 56.6112 18.6937C56.5958 18.6937 56.5958 18.6787 56.5804 18.6787C56.5804 18.6787 56.5804 18.6787 56.565 18.6787C56.5342 18.6637 56.5188 18.6637 56.488 18.6486H56.4726H56.4572C56.4264 18.6336 56.411 18.6336 56.3802 18.6336C56.3648 18.6336 56.3648 18.6336 56.3494 18.6186C56.3186 18.6186 56.3032 18.6036 56.2724 18.6036C56.257 18.6036 56.2416 18.6036 56.2262 18.6036C56.2108 18.6036 56.18 18.6036 56.1646 18.6036C56.1338 18.6036 56.1184 18.6036 56.0876 18.6036C56.0722 18.6036 56.0722 18.6036 56.0568 18.6036H46.2167V16.2012C46.2167 15.5405 45.6623 15 44.9848 15C44.3072 15 43.7528 15.5405 43.7528 16.2012V18.6036H33.9435C33.9281 18.6036 33.9127 18.6036 33.8973 18.6036C33.8819 18.6036 33.8665 18.6036 33.8665 18.6036C33.8357 18.6036 33.8049 18.6036 33.7741 18.6036H33.7587C33.7279 18.6036 33.6817 18.6186 33.6509 18.6186C33.5739 18.6336 33.4969 18.6637 33.4199 18.6937C33.3891 18.7087 33.3737 18.7237 33.3429 18.7387C33.3275 18.7387 33.3275 18.7538 33.3275 18.7538C33.3275 18.7538 33.3275 18.7538 33.3121 18.7538C33.2967 18.7688 33.2659 18.7838 33.2505 18.7988C33.2505 18.7988 33.2505 18.7988 33.2351 18.7988C33.2351 18.7988 33.2197 18.7988 33.2197 18.8138C33.2197 18.8138 33.2043 18.8138 33.2043 18.8288C33.1889 18.8438 33.1735 18.8589 33.1581 18.8739L33.1427 18.8889L33.1273 18.9039C33.1119 18.9189 33.0965 18.9339 33.0811 18.9489L33.0657 18.964L33.0503 18.979C33.0349 18.994 33.0349 19.009 33.0195 19.009C33.0041 19.024 33.0041 19.024 32.9887 19.039C32.9887 19.0541 32.9733 19.0541 32.9733 19.0691C32.9579 19.0841 32.9579 19.0841 32.9425 19.0991C32.9271 19.1141 32.9271 19.1291 32.9117 19.1441C32.9117 19.1592 32.8963 19.1592 32.8963 19.1742C32.8963 19.1892 32.8809 19.1892 32.8809 19.2042C32.8655 19.2192 32.8655 19.2342 32.8501 19.2492C32.8501 19.2643 32.8347 19.2643 32.8347 19.2793C32.8347 19.2793 32.8347 19.2943 32.8193 19.2943C32.8039 19.3093 32.8039 19.3243 32.7885 19.3544C32.7885 19.3694 32.7885 19.3694 32.7731 19.3844C32.7577 19.4144 32.7577 19.4294 32.7423 19.4595L29.0619 30.2252C29.0311 30.3003 29.0157 30.3754 29.0003 30.4655C29.0003 30.4655 29.0003 30.4655 29.0003 30.4805C29.0003 30.5105 29.0003 30.5405 29.0003 30.5706C29.0003 30.5856 29.0003 30.5856 29.0003 30.6006V30.6156C28.9695 33.2432 31.1716 35.4054 33.8973 35.4054ZM58.0587 29.3994H54.0703L56.0568 23.5886L58.0587 29.3994ZM56.0568 33.003C55.1483 33.003 54.3475 32.5225 53.9317 31.8018H58.1973C57.7662 32.5075 56.9654 33.003 56.0568 33.003ZM33.8973 23.5736L35.8838 29.3844H31.9108L33.8973 23.5736ZM33.8973 33.003C32.9887 33.003 32.188 32.5225 31.7722 31.8018H36.0378C35.5912 32.5075 34.8058 33.003 33.8973 33.003Z" fill="#5D2352" fill-opacity="0.16"/>
</svg>
