<svg width="75" height="75" viewBox="0 0 75 75" fill="none" xmlns="http://www.w3.org/2000/svg">
<path d="M73.75 25H65.5C59.5 25 53.9844 21.7031 51.1562 16.3906L49.625 13.5156C48.0938 10.625 45.5625 8.375 42.5 7.1875V5C42.5 2.23438 40.2656 0 37.5 0C34.7344 0 32.5 2.23438 32.5 5V7.1875C29.4375 8.375 26.9062 10.625 25.375 13.5312L23.8438 16.4062C21.0312 21.7031 15.5156 25.0156 9.5 25.0156H1.25C0.5625 25.0156 0 25.5781 0 26.2656V31.2656C0 31.9531 0.5625 32.5156 1.25 32.5156H9.46875L5.375 43.7656H3.75C3.0625 43.7656 2.5 44.3281 2.5 45.0156C2.5 50.5312 6.98438 55.0156 12.5 55.0156C18.0156 55.0156 22.5 50.5312 22.5 45.0156C22.5 44.3281 21.9375 43.7656 21.25 43.7656H19.625L15.5312 32.5156H18.5781C22.2188 32.5156 25.7188 31.2031 28.4531 28.7969L31.75 25.9219C31.9844 25.7188 32.2344 25.5156 32.5 25.3438V58.4688L30.4844 62.5H27.5C27.1094 62.5 26.7344 62.6875 26.5 63L23.125 67.5H17.5C16.8125 67.5 16.25 68.0625 16.25 68.75V73.75C16.25 74.4375 16.8125 75 17.5 75H57.5C58.1875 75 58.75 74.4375 58.75 73.75V68.75C58.75 68.0625 58.1875 67.5 57.5 67.5H51.875L48.5 63C48.2656 62.6875 47.8906 62.5 47.5 62.5H44.5156L42.5 58.4531V25.3281C42.7656 25.5156 43.0156 25.7031 43.25 25.9062L46.5469 28.7812C49.2812 31.1719 52.7969 32.5 56.4219 32.5H59.4688L55.375 43.75H53.75C53.0625 43.75 52.5 44.3125 52.5 45C52.5 50.5156 56.9844 55 62.5 55C68.0156 55 72.5 50.5156 72.5 45C72.5 44.3125 71.9375 43.75 71.25 43.75H69.625L65.5312 32.5H73.75C74.4375 32.5 75 31.9375 75 31.25V26.25C75 25.5625 74.4375 25 73.75 25ZM35 5C35 3.625 36.125 2.5 37.5 2.5C38.875 2.5 40 3.625 40 5V6.48438C38.3438 6.17188 36.6562 6.17188 35 6.48438V5ZM12.5 52.5C8.84375 52.5 5.71875 49.8594 5.10938 46.25H19.9062C19.2812 49.8594 16.1562 52.5 12.5 52.5ZM16.9688 43.75H8.03125L12.125 32.5H12.875L16.9688 43.75ZM56.25 72.5H18.75V70H56.25V72.5ZM48.75 67.5H26.25L28.125 65H46.875L48.75 67.5ZM40.125 59.3125L41.7188 62.5H33.2656L34.8594 59.3125C34.9531 59.1406 34.9844 58.9531 34.9844 58.75V24.125C36.6094 23.6406 38.3594 23.6406 39.9844 24.125V58.75C40 58.9375 40.0469 59.1406 40.125 59.3125ZM62.5 52.5C58.8438 52.5 55.7188 49.8594 55.1094 46.25H69.9062C69.2812 49.8594 66.1562 52.5 62.5 52.5ZM66.9688 43.75H58.0312L62.125 32.5H62.875L66.9688 43.75ZM72.5 30H56.4219C53.3906 30 50.4688 28.9062 48.1875 26.9062L44.8906 24.0312C40.6562 20.3281 34.3281 20.3281 30.0938 24.0312L26.7969 26.9062C24.5312 28.9062 21.6094 30 18.5781 30H2.5V27.5H9.5C16.4219 27.5 22.7969 23.6875 26.0469 17.5781L27.5781 14.7031C30.5 9.21875 37.3125 7.14062 42.7969 10.0781C44.7656 11.125 46.375 12.7344 47.4219 14.7031L48.9531 17.5781C52.2031 23.6875 58.5781 27.5156 65.5 27.5H72.5V30Z" fill="#D9112F" fill-opacity="0.16"/>
<path d="M37.5 11C35.5604 11 34 12.5604 34 14.5C34 16.4396 35.5604 18 37.5 18C39.4396 18 41 16.4396 41 14.5C41 12.575 39.425 11 37.5 11ZM37.5 15.6667C36.8583 15.6667 36.3333 15.1417 36.3333 14.5C36.3333 13.8583 36.8583 13.3333 37.5 13.3333C38.1417 13.3333 38.6667 13.8583 38.6667 14.5C38.6667 15.1417 38.1417 15.6667 37.5 15.6667Z" fill="#D9112F" fill-opacity="0.16"/>
</svg>
