<svg width="21" height="21" viewBox="0 0 21 21" fill="none" xmlns="http://www.w3.org/2000/svg">
<path d="M10.0384 10.6576C11.4244 10.6576 12.548 9.53486 12.548 8.14991C12.548 6.76496 11.4244 5.64224 10.0384 5.64224C8.65239 5.64224 7.52881 6.76496 7.52881 8.14991C7.52881 9.53486 8.65239 10.6576 10.0384 10.6576Z" stroke="#005453" stroke-linecap="round" stroke-linejoin="round"/>
<path d="M16.3121 8.14991C16.3121 13.7922 10.0381 18.1806 10.0381 18.1806C10.0381 18.1806 3.76416 13.7922 3.76416 8.14991C3.76416 6.48722 4.42517 4.89263 5.60176 3.71694C6.77836 2.54124 8.37417 1.88074 10.0381 1.88074C11.7021 1.88074 13.2979 2.54124 14.4745 3.71694C15.6511 4.89263 16.3121 6.48722 16.3121 8.14991V8.14991Z" stroke="#005453" stroke-linecap="round" stroke-linejoin="round"/>
</svg>
