<svg width="56" height="56" viewBox="0 0 56 56" fill="none" xmlns="http://www.w3.org/2000/svg">
<path d="M45.3327 23.6094V15.5541C45.3327 14.1946 44.2266 13.0884 42.8669 13.0884C41.5073 13.0884 40.4012 14.1946 40.4012 15.5541V20.0589H38.2881V10.288C38.2881 4.61519 33.6729 0 28 0C26.3187 0 24.6502 0.414859 23.1749 1.19963C22.7743 1.4128 22.6222 1.91045 22.8353 2.3112C23.0484 2.71173 23.5459 2.86442 23.9469 2.65081C25.1854 1.99216 26.5869 1.64391 28 1.64391C32.4714 1.64391 36.1606 5.05662 36.6001 9.41412H34.1854C33.7314 9.41412 33.3634 9.78206 33.3634 10.2361C33.3634 10.6901 33.7314 11.058 34.1854 11.058H36.6441V13.6721H34.1854C33.7314 13.6721 33.3634 14.04 33.3634 14.494C33.3634 14.9481 33.7314 15.316 34.1854 15.316H36.6441V17.9302H34.1854C33.7314 17.9302 33.3634 18.2981 33.3634 18.7521C33.3634 19.2061 33.7314 19.5741 34.1854 19.5741H36.6441V22.1881H34.1854C33.7314 22.1881 33.3634 22.5561 33.3634 23.0101C33.3634 23.4641 33.7314 23.832 34.1854 23.832H36.6001C36.1605 28.1894 32.4714 31.6022 28 31.6022C23.5287 31.6022 19.8394 28.1894 19.4 23.832H21.8146C22.2687 23.832 22.6366 23.4641 22.6366 23.0101C22.6366 22.5561 22.2687 22.1881 21.8146 22.1881H19.3559V19.5741H21.8146C22.2687 19.5741 22.6366 19.2061 22.6366 18.7521C22.6366 18.2981 22.2687 17.9302 21.8146 17.9302H19.3559V15.3158H21.8146C22.2687 15.3158 22.6366 14.9478 22.6366 14.4938C22.6366 14.0398 22.2687 13.6719 21.8146 13.6719H19.3559V11.0578H21.8146C22.2687 11.0578 22.6366 10.6899 22.6366 10.2359C22.6366 9.78184 22.2687 9.41391 21.8146 9.41391H19.4013C19.5855 7.59227 20.341 5.87377 21.5774 4.50231C21.8814 4.16522 21.8545 3.64547 21.5173 3.34152C21.1803 3.03745 20.6603 3.06447 20.3565 3.40167C18.6511 5.29331 17.712 7.73883 17.712 10.2878V20.0588H15.5989V15.554C15.5989 14.1945 14.4927 13.0883 13.1331 13.0883C11.7735 13.0883 10.6674 14.1945 10.6674 15.554V23.6093C10.6674 32.1538 16.8825 39.2732 25.0293 40.6862V50.6628H17.5963C16.1248 50.6628 14.9277 51.8599 14.9277 53.3314C14.9277 54.8028 16.1248 55.9998 17.5963 55.9998H21.2485C21.7025 55.9998 22.0705 55.6318 22.0705 55.1778C22.0705 54.7238 21.7025 54.3559 21.2485 54.3559H17.5963C17.0312 54.3559 16.5715 53.8962 16.5715 53.3311C16.5715 52.7662 17.0312 52.3065 17.5963 52.3065H38.4037C38.9687 52.3065 39.4284 52.7662 39.4284 53.3312C39.4284 53.8962 38.9687 54.3559 38.4037 54.3559H24.5363C24.0823 54.3559 23.7144 54.7238 23.7144 55.1778C23.7144 55.6318 24.0823 55.9998 24.5363 55.9998H38.4038C39.8752 55.9998 41.0723 54.8027 41.0723 53.3312C41.0723 51.8598 39.8752 50.6628 38.4038 50.6628H30.9709V40.6862C39.1175 39.2733 45.3327 32.1538 45.3327 23.6094ZM12.3113 23.6094V15.5541C12.3113 15.1009 12.68 14.7322 13.1332 14.7322C13.5865 14.7322 13.9552 15.1009 13.9552 15.5541V23.6094C13.9552 31.3538 20.2557 37.6543 28.0001 37.6543C30.855 37.6543 33.6048 36.7991 35.9521 35.1811C36.326 34.9234 36.4201 34.4117 36.1625 34.0379C35.9051 33.6642 35.3931 33.5697 35.0194 33.8276C32.9475 35.2556 30.5202 36.0104 28.0001 36.0104C21.1621 36.0104 15.599 30.4473 15.599 23.6093V21.7026H17.7121V22.9576C17.7121 28.6304 22.3273 33.2456 28.0001 33.2456C33.673 33.2456 38.2882 28.6304 38.2882 22.9576V21.7026H40.4013V23.6093C40.4013 26.6122 39.3094 29.5118 37.3268 31.7737C37.0275 32.1149 37.0616 32.6342 37.4031 32.9335C37.7442 33.2328 38.2637 33.1986 38.5629 32.8571C40.8085 30.2953 42.0452 27.0111 42.0452 23.6093V15.554C42.0452 15.1007 42.4139 14.732 42.8671 14.732C43.3204 14.732 43.6891 15.1007 43.6891 15.554V23.6093C43.6891 32.26 36.6511 39.298 28.0003 39.298C19.3495 39.298 12.3113 32.2602 12.3113 23.6094ZM29.327 50.6629H26.6732V40.8916C27.1112 40.925 27.5537 40.9419 28 40.9419C28.4465 40.9419 28.8889 40.9248 29.327 40.8916V50.6629Z" fill="#4B4A4A"/>
</svg>
