<svg width="69" height="69" viewBox="0 0 69 69" fill="none" xmlns="http://www.w3.org/2000/svg">
<path d="M21.1623 4.04218C20.6097 4.04218 20.1514 4.50029 20.1514 5.05272C20.1514 5.60516 20.6097 6.06327 21.1623 6.06327C21.715 6.06327 22.1733 5.60516 22.1733 5.05272C22.1733 4.50029 21.7284 4.04218 21.1623 4.04218ZM25.2061 4.04218C24.6534 4.04218 24.1951 4.50029 24.1951 5.05272C24.1951 5.60516 24.6534 6.06327 25.2061 6.06327C25.7587 6.06327 26.217 5.60516 26.217 5.05272C26.217 4.50029 25.7722 4.04218 25.2061 4.04218ZM17.1186 4.04218C16.5659 4.04218 16.1076 4.50029 16.1076 5.05272C16.1076 5.60516 16.5659 6.06327 17.1186 6.06327C17.6712 6.06327 18.1295 5.60516 18.1295 5.05272C18.1295 4.50029 17.6847 4.04218 17.1186 4.04218ZM64.8618 4.04218H56.9495V2.62742C56.9495 1.17223 55.7634 0 54.3211 0H14.6923C13.25 0 12.0639 1.17223 12.0639 2.62742V5.79379H5.05469C2.2645 5.79379 0 8.07088 0 10.8465V48.9104C0 51.6995 2.2645 53.9631 5.05469 53.9631H28.6972L27.9289 59.6895H26.7966C25.8665 59.6895 25.0308 60.3228 24.7882 61.2255L23.3594 66.3591C23.1842 66.9924 23.3055 67.6526 23.7099 68.1781C24.1143 68.7036 24.7208 69 25.3678 69H43.6321C44.2926 69 44.8992 68.7036 45.29 68.1781C45.6809 67.6526 45.8157 66.9924 45.6405 66.3591L44.2117 61.2255C43.9556 60.3228 43.1334 59.6895 42.2033 59.6895H41.0711L40.3027 53.9631H63.9452C66.7354 53.9631 68.9999 51.6995 68.9999 48.9104V8.19215C69.0134 5.90158 67.1533 4.04218 64.8618 4.04218ZM14.0857 10.1054H30.4629C31.0156 10.1054 31.4739 9.64733 31.4739 9.0949C31.4739 8.54247 31.0156 8.08436 30.4629 8.08436H14.0857V2.62742C14.0857 2.29057 14.3553 2.02109 14.6923 2.02109H54.3211C54.6581 2.02109 54.9277 2.29057 54.9277 2.62742V4.04218H48.2689C46.0179 4.04218 44.1713 5.84769 44.1174 8.08436H35.1807C34.628 8.08436 34.1697 8.54247 34.1697 9.0949C34.1697 9.64733 34.628 10.1054 35.1807 10.1054H44.1039V15.3468C44.1039 17.6374 45.964 19.4968 48.2555 19.4968H50.2639V21.437C50.2639 22.0164 50.6143 22.5419 51.14 22.7575C51.6657 22.9731 52.2857 22.8653 52.7036 22.4476L54.9277 20.2244V36.0023C54.9277 36.5548 55.386 37.0129 55.9386 37.0129C56.4912 37.0129 56.9495 36.5548 56.9495 36.0023V19.4968H62.9478V45.8653H56.9495V40.7182C56.9495 40.1658 56.4912 39.7077 55.9386 39.7077C55.386 39.7077 54.9277 40.1658 54.9277 40.7182V45.8653H46.9884V39.8828C46.9884 37.1476 45.344 34.7358 42.7964 33.7253L40.0601 32.6473C39.3592 32.3779 38.9144 31.7176 38.9144 30.9631V29.8178C40.6128 28.4974 41.7046 26.4359 41.7046 24.1318V16.5864C41.7046 14.2419 39.804 12.3421 37.4586 12.3421H31.5548C29.2094 12.3421 27.3088 14.2419 27.3088 16.5864V24.1318C27.3088 26.4359 28.4006 28.4974 30.099 29.8178V30.9631C30.099 31.7176 29.6542 32.3779 28.9533 32.6473L26.217 33.7253C23.6694 34.7223 22.025 37.1476 22.025 39.8828V45.8653H14.0857V10.1054ZM39.9119 42.0656C39.3592 42.0656 38.9009 42.5237 38.9009 43.0762V45.8653H30.1125V43.0762C30.1125 42.5237 29.6542 42.0656 29.1016 42.0656C28.5489 42.0656 28.0906 42.5237 28.0906 43.0762V45.8653H24.0469V39.8828C24.0469 37.983 25.1926 36.2988 26.9584 35.6116L29.4385 34.628C30.7864 35.9484 32.5927 36.6895 34.4932 36.6895C36.4073 36.6895 38.2135 35.9484 39.5479 34.628L42.0416 35.6116C43.8073 36.3122 44.9531 37.983 44.9531 39.8828V45.8653H40.9093V43.0762C40.9228 42.5237 40.4645 42.0656 39.9119 42.0656ZM30.0855 22.6227C31.5008 22.6227 32.9162 22.3802 34.2236 21.9086C34.9785 21.6391 35.7198 21.2888 36.4207 20.8711C36.7847 21.2753 37.2834 21.72 37.9709 22.0434C38.5909 22.3398 39.184 22.4745 39.6962 22.5149V24.1722C39.6962 27.0287 37.3778 29.3462 34.5202 29.3462C31.6626 29.3462 29.3442 27.0287 29.3442 24.1722V22.6093C29.5868 22.6093 29.8294 22.6227 30.0855 22.6227ZM29.3307 20.5612V16.5999C29.3307 15.3738 30.3282 14.3767 31.5548 14.3767H37.4586C38.6852 14.3767 39.6827 15.3738 39.6827 16.5999V20.4669C39.4266 20.4265 39.1301 20.3591 38.847 20.2109C38.2404 19.9145 37.8765 19.4833 37.6608 19.1734C37.4721 18.8905 37.1756 18.6883 36.8386 18.621C36.5016 18.5536 36.1512 18.621 35.8681 18.8231C35.1402 19.3216 34.3584 19.7124 33.5497 20.0088C32.2152 20.4804 30.773 20.669 29.3307 20.5612ZM37.8226 33.4962C36.8925 34.2642 35.7333 34.6954 34.5067 34.6954C33.2801 34.6954 32.1074 34.2642 31.1908 33.4962C31.7839 32.8225 32.1209 31.9332 32.1209 30.99V30.9496C32.8622 31.2191 33.671 31.3538 34.5067 31.3538C35.3424 31.3538 36.1512 31.2056 36.8925 30.9496V30.99C36.8925 31.9332 37.243 32.809 37.8226 33.4962ZM42.2168 61.6971C42.2438 61.6971 42.2707 61.7106 42.2842 61.751L43.713 66.8846C43.7265 66.9115 43.686 66.9789 43.6456 66.9654H25.3813C25.3409 66.9654 25.3004 66.9115 25.3139 66.8846L26.7427 61.751C26.7562 61.7241 26.7831 61.6971 26.8101 61.6971H42.2168ZM29.9642 59.676L30.7325 53.9496H38.2809L39.0492 59.676H29.9642ZM66.9915 48.9104C66.9915 50.5811 65.6301 51.942 63.9587 51.942H5.05469C3.38327 51.942 2.02188 50.5811 2.02188 48.9104V10.8465C2.02188 9.17575 3.38327 7.81488 5.05469 7.81488H12.0639V9.83597H5.59386C4.74467 9.83597 4.04375 10.5366 4.04375 11.3855V46.3503C4.04375 47.1992 4.74467 47.8998 5.59386 47.8998H63.4195C64.2687 47.8998 64.9697 47.1992 64.9697 46.3503V19.4968C65.711 19.4833 66.3984 19.2677 66.9915 18.9039V48.9104ZM12.0639 11.8571V45.8653H6.06563V11.8571H12.0639ZM66.9915 15.3468C66.9915 16.519 66.0345 17.4757 64.8618 17.4757C63.7296 17.4757 56.68 17.4757 55.5477 17.4757C55.0759 17.4757 54.6446 17.6509 54.3211 17.9877L52.2992 20.0088V19.2273C52.2992 18.2707 51.5174 17.4892 50.5604 17.4892H48.2824C47.1097 17.4892 46.1527 16.5325 46.1527 15.3603V8.19215C46.1527 7.01992 47.1097 6.06327 48.2824 6.06327H64.8753C66.048 6.06327 67.005 7.01992 67.005 8.19215L66.9915 15.3468ZM63.433 12.7868H49.6977C49.1451 12.7868 48.6868 13.2449 48.6868 13.7973C48.6868 14.3497 49.1451 14.8078 49.6977 14.8078H63.433C63.9857 14.8078 64.444 14.3497 64.444 13.7973C64.444 13.2449 63.9857 12.7868 63.433 12.7868ZM63.433 8.74458H49.6977C49.1451 8.74458 48.6868 9.20269 48.6868 9.75513C48.6868 10.3076 49.1451 10.7657 49.6977 10.7657H63.433C63.9857 10.7657 64.444 10.3076 64.444 9.75513C64.444 9.20269 63.9857 8.74458 63.433 8.74458Z" fill="#D9112F" fill-opacity="0.16"/>
</svg>
