<svg width="55" height="72" viewBox="0 0 55 72" fill="none" xmlns="http://www.w3.org/2000/svg">
<path d="M55 59.5969C54.8451 49.8094 44.8195 46.9266 37.5115 44.8031C36.6526 44.55 35.8359 44.325 35.0614 44.0859V40.05C36.554 39.1078 37.8635 37.9125 38.9196 36.5063H43.3692C45.5517 36.5063 47.3259 34.7344 47.3259 32.5547V27.7734C47.5934 27.1547 47.7343 26.4797 47.7343 25.7766V24.2859C47.7343 23.5688 47.5934 22.8937 47.3259 22.2891V19.8281C47.34 8.8875 38.4409 0 27.5 0C16.5591 0 7.67409 8.8875 7.67409 19.8141V22.2047C7.67409 22.2188 7.67409 22.2469 7.67409 22.2609C7.40655 22.8797 7.25166 23.5688 7.25166 24.2719V25.7625C7.25166 28.575 9.53277 30.8531 12.349 30.8531H13.5177C14.3203 34.7062 16.6999 38.0109 19.9386 40.0359V44.0719C19.1641 44.3109 18.3474 44.55 17.4885 44.7891C10.1805 46.9125 0.15489 49.8094 0 59.5969C0 59.6109 0 59.6109 0 59.625V70.5938C0 71.3672 0.633641 72 1.40809 72H5.57604C6.35049 72 6.98413 71.3672 6.98413 70.5938C6.98413 69.8203 6.35049 69.1875 5.57604 69.1875H2.81618V59.625C2.8725 56.2078 4.44956 53.6484 7.75858 51.5672C9.94112 50.1891 12.6165 49.2188 15.2496 48.4031L18.6572 55.0266C19.0374 55.7578 20.009 56.0109 20.6989 55.5469L22.2197 54.5203L23.5151 59.4141L21.2762 69.1875H18.2207C17.4462 69.1875 16.8126 69.8203 16.8126 70.5938C16.8126 71.3672 17.4462 72 18.2207 72H53.5919C54.3664 72 55 71.3672 55 70.5938V59.6109V59.5969ZM36.7371 47.5031C36.8356 47.5312 36.9201 47.5594 37.0187 47.5875L34.5827 52.3266L30.0205 49.2609L33.8787 46.6594C34.7798 46.9406 35.7373 47.2219 36.7371 47.5031ZM27.5 50.9625L30.3303 52.8609L28.9644 57.9797H26.0497L24.6838 52.8609L27.5 50.9625ZM27.5 47.5594L22.7547 44.3531V41.3859C24.2473 41.9062 25.8385 42.2016 27.5 42.2016C29.1615 42.2016 30.7668 41.9203 32.2453 41.3859V44.3391L27.5 47.5594ZM38.9759 20.0672C38.9619 20.0531 38.9337 20.0391 38.9196 20.025C36.033 18.1828 33.5407 16.6078 29.6262 17.7188C29.584 17.7328 29.5558 17.7469 29.5136 17.7609C28.6828 18.0703 27.9365 18.3656 27.2043 18.6469C22.7547 20.3625 20.3187 21.2906 16.0381 21.1781V20.0531C16.0381 13.7391 21.1777 8.59219 27.5141 8.59219C33.8505 8.59219 38.99 13.725 38.99 20.0531L38.9759 20.0672ZM44.5238 32.5547C44.5238 33.1875 44.0169 33.6938 43.3833 33.6938H40.5812C40.9754 32.7938 41.2852 31.8516 41.4964 30.8672H42.6651C43.3269 30.8672 43.9606 30.7406 44.5379 30.5156L44.5238 32.5547ZM44.9322 25.7625C44.9322 27.0281 43.9043 28.0406 42.6511 28.0406H41.7921C41.7921 28.0125 41.7921 21.9937 41.7921 21.9937H42.6511C43.9043 21.9937 44.9322 23.0203 44.9322 24.2719V25.7625ZM12.349 28.0547C11.0957 28.0547 10.0678 27.0281 10.0678 25.7766V24.2859C10.0678 23.0344 11.0957 22.0078 12.349 22.0078H13.2079C13.2079 22.0078 13.2079 28.0266 13.2079 28.0547H12.349ZM13.236 19.1953H12.349C11.6871 19.1953 11.0676 19.3219 10.4903 19.5469C10.6311 10.2937 18.2066 2.8125 27.5 2.8125C36.7934 2.8125 44.3689 10.2937 44.5238 19.5469C43.9465 19.3219 43.3129 19.1953 42.6511 19.1953H41.764C41.3134 11.7281 35.0896 5.77969 27.5 5.77969C19.9104 5.77969 13.6866 11.7141 13.236 19.1953ZM16.1226 29.3203C16.1226 29.3203 16.1086 29.3203 16.1226 29.3203C16.0663 28.8703 16.0381 28.4203 16.0381 27.9563V23.9906C20.8538 24.1031 23.7263 23.0063 28.2181 21.2766C28.9222 21.0094 29.6544 20.7281 30.457 20.4187C33.1183 19.6734 34.6531 20.6438 37.413 22.4016C37.8917 22.7109 38.4127 23.0344 38.9759 23.3859V27.9422C38.9759 30.0375 38.4127 31.9922 37.427 33.6797H27.5C26.7256 33.6797 26.0919 34.3125 26.0919 35.0859C26.0919 35.8594 26.7256 36.4922 27.5 36.4922H35.1178C33.0901 38.2922 30.4147 39.3891 27.5 39.3891C21.6423 39.4031 16.7985 34.9875 16.1226 29.3203ZM20.4314 52.3266L17.9954 47.5875C18.094 47.5594 18.1784 47.5312 18.277 47.5031C19.2768 47.2219 20.2343 46.9406 21.1214 46.6594L24.9795 49.2609L20.4314 52.3266ZM24.1628 69.1875L26.0778 60.7922H28.9222L30.8372 69.1875H24.1628ZM52.1838 69.1875H33.7238L31.4849 59.4141L32.7944 54.5203L34.3152 55.5469C35.0051 56.0109 35.9767 55.7578 36.3569 55.0266L39.7504 48.4031C42.3835 49.2188 45.0589 50.2031 47.2414 51.5672C50.5504 53.6484 52.1275 56.2078 52.1838 59.625V69.1875Z" fill="#5D2352" fill-opacity="0.16"/>
<path d="M46.5795 62H39.4205C38.6392 62 38 62.675 38 63.5C38 64.325 38.6392 65 39.4205 65H46.5795C47.3608 65 48 64.325 48 63.5C48 62.675 47.375 62 46.5795 62Z" fill="#5D2352" fill-opacity="0.16"/>
<path d="M11.5 69C10.675 69 10 69.675 10 70.5C10 71.325 10.675 72 11.5 72C12.325 72 13 71.325 13 70.5C13 69.675 12.34 69 11.5 69Z" fill="#5D2352" fill-opacity="0.16"/>
</svg>
