<svg width="72" height="72" viewBox="0 0 72 72" fill="none" xmlns="http://www.w3.org/2000/svg">
<path d="M12.5853 55.261C11.5796 55.261 10.6158 55.5123 9.76374 55.9729C5.266 50.2221 2.79363 43.0615 2.79363 35.7333C2.79363 17.5735 17.5859 2.79167 35.7585 2.79167C37.9655 2.79167 40.1724 3.015 42.3235 3.44771C43.0778 3.60125 43.8181 3.11271 43.9718 2.35896C44.1254 1.60521 43.6365 0.865417 42.8822 0.711875C40.5496 0.237292 38.147 0 35.7585 0C26.2043 0 17.2227 3.71292 10.4761 10.4688C3.7295 17.2246 0 26.1858 0 35.7333C0 43.7594 2.72379 51.604 7.69646 57.8852C7.05392 58.8344 6.71868 59.965 6.71868 61.1375C6.71868 62.7008 7.33328 64.1804 8.43677 65.2831C9.54025 66.3858 11.0209 67 12.5853 67C14.1497 67 15.6304 66.3858 16.7339 65.2831C17.8373 64.1804 18.4519 62.7008 18.4519 61.1375C18.4519 59.5742 17.8373 58.0946 16.7339 56.9919C15.6164 55.8752 14.1497 55.261 12.5853 55.261ZM14.7504 63.301C14.1637 63.8873 13.3955 64.1944 12.5713 64.1944C11.7472 64.1944 10.979 63.8733 10.3923 63.301C9.80565 62.7288 9.49835 61.9471 9.49835 61.1235C9.49835 60.3 9.81962 59.5323 10.3923 58.946C10.979 58.3598 11.7472 58.0527 12.5713 58.0527C13.3955 58.0527 14.1637 58.3737 14.7504 58.946C15.337 59.5323 15.6443 60.3 15.6443 61.1235C15.6583 61.9471 15.337 62.7148 14.7504 63.301Z" fill="#D9112F" fill-opacity="0.16"/>
<path d="M64.3053 13.1148C65.8302 10.8396 65.5784 7.72687 63.5638 5.71687C62.4585 4.61417 60.9756 4 59.4086 4C57.8417 4 56.3587 4.61417 55.2535 5.71687C54.1483 6.81958 53.5327 8.29917 53.5327 9.8625C53.5327 11.4258 54.1483 12.9054 55.2535 14.0081C56.3587 15.1108 57.8417 15.725 59.4086 15.725C60.4159 15.725 61.3813 15.4738 62.2347 15.0131C66.7396 20.7779 69.2159 27.9385 69.2159 35.2667C69.2159 53.4265 54.4001 68.2083 36.1986 68.2083C34.0022 68.2083 31.8197 67.999 29.6791 67.5662C28.9237 67.4127 28.1822 67.9013 28.0283 68.655C27.8744 69.4088 28.364 70.1485 29.1195 70.3021C31.4279 70.7627 33.8063 71 36.1847 71C45.7541 71 54.7498 67.2871 61.5072 60.5312C68.2645 53.7754 71.9999 44.8142 71.9999 35.2667C72.0139 27.2406 69.2858 19.396 64.3053 13.1148ZM57.2401 12.04C56.6525 11.4537 56.3447 10.686 56.3447 9.8625C56.3447 9.03896 56.6665 8.27125 57.2401 7.685C57.8277 7.09875 58.5972 6.79167 59.4226 6.79167C60.2481 6.79167 61.0175 7.11271 61.6051 7.685C62.8083 8.88542 62.8083 10.8256 61.6051 12.026C61.0175 12.6123 60.2481 12.9194 59.4226 12.9194C58.5972 12.9473 57.8137 12.6263 57.2401 12.04Z" fill="#D9112F" fill-opacity="0.16"/>
<path d="M29.7135 59.5989C29.7135 60.3695 30.344 61 31.1146 61H39.8714C40.642 61 41.2725 60.3695 41.2725 59.5989V56.8808C43.108 56.3904 44.8734 55.6478 46.5267 54.6951L48.4462 56.6146C48.7124 56.8808 49.0626 57.0209 49.4409 57.0209C49.8052 57.0209 50.1695 56.8668 50.4357 56.6146L56.6286 50.4217C57.175 49.8753 57.175 48.9926 56.6286 48.4462L54.7091 46.5267C55.6618 44.8734 56.3904 43.108 56.8948 41.2725H59.5989C60.3695 41.2725 61 40.642 61 39.8714V31.1146C61 30.344 60.3695 29.7135 59.5989 29.7135H56.8948C56.4044 27.878 55.6758 26.1126 54.7091 24.4593L56.6146 22.5538C56.8808 22.2876 57.0209 21.9374 57.0209 21.5591C57.0209 21.1808 56.8668 20.8305 56.6146 20.5643L50.4217 14.3714C49.8753 13.825 48.9926 13.825 48.4462 14.3714L46.5407 16.2769C44.8874 15.3242 43.122 14.5956 41.2865 14.0912V11.4011C41.2865 10.6305 40.656 10 39.8854 10H31.1286C30.358 10 29.7275 10.6305 29.7275 11.4011V14.0912C27.892 14.5816 26.1266 15.3102 24.4734 16.2769L22.5679 14.3714C22.0214 13.825 21.1387 13.825 20.5923 14.3714L14.3995 20.5643C14.1332 20.8305 13.9931 21.1808 13.9931 21.5591C13.9931 21.9374 14.1473 22.2876 14.3995 22.5538L16.3049 24.4593C15.3522 26.1126 14.6236 27.878 14.1192 29.7135H11.4011C10.6305 29.7135 10 30.344 10 31.1146V39.8714C10 40.2497 10.1541 40.6 10.4063 40.8662C10.6585 41.1324 11.0228 41.2725 11.4011 41.2725H14.1052C14.5956 43.108 15.3382 44.8734 16.2909 46.5267L14.3714 48.4462C13.825 48.9926 13.825 49.8753 14.3714 50.4217L20.5643 56.6146C20.8305 56.8808 21.1808 57.0209 21.5591 57.0209C21.9374 57.0209 22.2876 56.8668 22.5538 56.6146L24.4734 54.6951C26.1266 55.6478 27.892 56.3764 29.7275 56.8808V59.5989H29.7135ZM25.0058 51.7528C24.4453 51.3885 23.7168 51.4725 23.2544 51.9349L21.5451 53.6442L17.3277 49.4269L19.0371 47.7176C19.4995 47.2552 19.5835 46.5267 19.2192 45.9662C17.9442 44.0047 17.0615 41.847 16.5712 39.5632C16.431 38.9187 15.8566 38.4563 15.1981 38.4563H12.8022V32.5016H15.2121C15.8706 32.5016 16.4451 32.0393 16.5852 31.3948C17.0755 29.111 17.9723 26.9533 19.2332 24.9918C19.5975 24.4313 19.5135 23.7027 19.0511 23.2404L17.3558 21.5451L21.5731 17.3277L23.2684 19.0231C23.7308 19.4854 24.4593 19.5695 25.0198 19.2052C26.9813 17.9302 29.139 17.0475 31.4228 16.5571C32.0673 16.417 32.5297 15.8426 32.5297 15.1841V12.8022H38.4843V15.1981C38.4843 15.8566 38.9467 16.431 39.5912 16.5712C41.875 17.0615 44.0327 17.9582 45.9942 19.2192C46.5547 19.5835 47.2832 19.4995 47.7456 19.0371L49.4409 17.3418L53.6582 21.5591L51.9629 23.2544C51.5006 23.7168 51.4165 24.4453 51.7808 25.0058C53.0558 26.9673 53.9385 29.125 54.4288 31.4088C54.569 32.0533 55.1434 32.5157 55.8019 32.5157H58.1978V38.4703H55.7879C55.1294 38.4703 54.5549 38.9327 54.4148 39.5772C53.9245 41.861 53.0278 44.0187 51.7668 45.9802C51.4025 46.5407 51.4865 47.2692 51.9489 47.7316L53.6582 49.4409L49.4409 53.6582L47.7316 51.9489C47.2692 51.4865 46.5407 51.4025 45.9802 51.7668C44.0187 53.0418 41.861 53.9245 39.5772 54.4148C38.9327 54.5549 38.4703 55.1294 38.4703 55.7879V58.1978H32.5157V55.7739C32.5157 55.1154 32.0533 54.5409 31.4088 54.4008C29.125 53.9244 26.9813 53.0277 25.0058 51.7528Z" fill="#D9112F" fill-opacity="0.16"/>
<path d="M47 35.5C47 29.1513 41.8347 24 35.5 24C29.1653 24 24 29.1653 24 35.5C24 41.8347 29.1653 47 35.5 47C41.8347 47 47 41.8487 47 35.5ZM26.7845 35.5C26.7845 30.6967 30.6967 26.7845 35.5 26.7845C40.3033 26.7845 44.2155 30.6967 44.2155 35.5C44.2155 40.3033 40.3033 44.2155 35.5 44.2155C30.6967 44.2155 26.7845 40.3033 26.7845 35.5Z" fill="#D9112F" fill-opacity="0.16"/>
<path d="M49.5 6C49.89 6 50.28 5.835 50.565 5.565C50.85 5.28 51 4.905 51 4.5C51 4.11 50.835 3.72 50.565 3.435C50.28 3.15 49.905 3 49.5 3C49.11 3 48.72 3.165 48.435 3.435C48.15 3.72 48 4.095 48 4.5C48 4.89 48.165 5.28 48.435 5.565C48.72 5.85 49.095 6 49.5 6Z" fill="#D9112F" fill-opacity="0.16"/>
<path d="M23.5 67C23.11 67 22.72 67.165 22.435 67.435C22.15 67.705 22 68.095 22 68.5C22 68.89 22.165 69.28 22.435 69.565C22.705 69.85 23.095 70 23.5 70C23.905 70 24.28 69.835 24.565 69.565C24.85 69.295 25 68.905 25 68.5C25 68.095 24.835 67.72 24.565 67.435C24.295 67.15 23.89 67 23.5 67Z" fill="#D9112F" fill-opacity="0.16"/>
</svg>
