<svg width="68" height="78" viewBox="0 0 68 78" fill="none" xmlns="http://www.w3.org/2000/svg">
<path d="M35.2613 18H52.7387C53.4414 18 54 17.5571 54 17C54 16.4429 53.4414 16 52.7387 16H35.2613C34.5586 16 34 16.4429 34 17C34 17.5571 34.5586 18 35.2613 18Z" fill="#D9112F" fill-opacity="0.16"/>
<path d="M34 22C34 22.5571 34.5586 23 35.2613 23H52.7387C53.4414 23 54 22.5571 54 22C54 21.4429 53.4414 21 52.7387 21H35.2613C34.5586 21 34 21.4429 34 22Z" fill="#D9112F" fill-opacity="0.16"/>
<path d="M35.2613 28H52.7387C53.4414 28 54 27.5571 54 27C54 26.4429 53.4414 26 52.7387 26H35.2613C34.5586 26 34 26.4429 34 27C34 27.5571 34.5586 28 35.2613 28Z" fill="#D9112F" fill-opacity="0.16"/>
<path d="M54 55C54 54.4429 53.464 54 52.7896 54H37.2104C36.536 54 36 54.4429 36 55C36 55.5571 36.536 56 37.2104 56H52.7896C53.464 56 54 55.5571 54 55Z" fill="#D9112F" fill-opacity="0.16"/>
<path d="M28 45C28 44.4429 27.4414 44 26.7387 44H9.26126C8.55856 44 8 44.4429 8 45C8 45.5571 8.55856 46 9.26126 46H26.7387C27.4414 45.9857 28 45.5429 28 45Z" fill="#D9112F" fill-opacity="0.16"/>
<path d="M9.26126 41H26.7387C27.4414 41 28 40.5571 28 40C28 39.4429 27.4414 39 26.7387 39H9.26126C8.55856 39 8 39.4429 8 40C8.01802 40.5571 8.57658 41 9.26126 41Z" fill="#D9112F" fill-opacity="0.16"/>
<path d="M19.5 11C12.6017 11 7 15.9295 7 22C7 28.0705 12.6017 33 19.5 33C26.3983 33 32 28.0705 32 22C32 15.9295 26.381 11 19.5 11ZM19.5 30.7178C14.0367 30.7178 9.59336 26.8077 9.59336 22C9.59336 17.5726 13.3451 13.9212 18.2033 13.3582V22C18.2033 22.6238 18.7911 23.1411 19.5 23.1411H29.3202C28.6805 27.4163 24.5138 30.7178 19.5 30.7178ZM20.7967 20.8589V13.3582C25.2227 13.8755 28.7324 16.964 29.3202 20.8589H20.7967Z" fill="#D9112F" fill-opacity="0.16"/>
<path d="M31 36.8687V47.1313C31 48.1575 31.9759 49 33.1647 49H53.8353C55.0241 49 56 48.1575 56 47.1313V36.8687C56 35.8425 55.0241 35 53.8353 35H33.1647C31.9759 35 31 35.8425 31 36.8687ZM33.6615 37.2976H53.3208V46.6871H33.6615V37.2976Z" fill="#D9112F" fill-opacity="0.16"/>
<path d="M6.01782 68.1618C6.01782 69.1713 6.99777 70 8.19154 70H11.8263C13.02 70 14 69.1713 14 68.1618V52.8232C14 51.8136 13.02 51 11.8263 51H8.17372C6.97996 51 6 51.8287 6 52.8232L6.01782 68.1618ZM8.69042 53.2601H11.3096V67.7248H8.69042V53.2601Z" fill="#D9112F" fill-opacity="0.16"/>
<path d="M18.1786 55C16.9821 55 16 55.8308 16 56.8278V68.1571C16 69.1692 16.9821 70 18.1786 70H21.8214C23.0179 70 24 69.1692 24 68.1571V56.8278C24 55.8157 23.0179 55 21.8214 55H18.1786ZM21.3036 67.7341H18.6786V57.2659H21.3036V67.7341Z" fill="#D9112F" fill-opacity="0.16"/>
<path d="M28.1786 70H31.8214C33.0179 70 34 69.1692 34 68.1571V61.8429C34 60.8308 33.0179 60 31.8214 60H28.1786C26.9821 60 26 60.8308 26 61.8429V68.1722C26 69.1843 26.9821 70 28.1786 70ZM28.6786 62.281H31.3036V67.7341H28.6786V62.281Z" fill="#D9112F" fill-opacity="0.16"/>
<path d="M52.7896 59H37.2104C36.536 59 36 59.4429 36 60C36 60.5571 36.536 61 37.2104 61H52.7896C53.464 61 54 60.5571 54 60C54 59.4571 53.464 59 52.7896 59Z" fill="#D9112F" fill-opacity="0.16"/>
<path d="M52.7896 65H37.2104C36.536 65 36 65.4429 36 66C36 66.5571 36.536 67 37.2104 67H52.7896C53.464 67 54 66.5571 54 66C54 65.4429 53.464 65 52.7896 65Z" fill="#D9112F" fill-opacity="0.16"/>
<path d="M66.6774 14.168C67.4004 14.168 68 13.65 68 13.0254V3.82383C68 1.70625 66.0073 0 63.5737 0H10.5456C8.11203 0 6.1193 1.72148 6.1193 3.82383V5.28633H4.42635C1.99274 5.28633 0 7.00781 0 9.11016V58.0582C0 58.6828 0.599585 59.2008 1.32261 59.2008C2.04564 59.2008 2.64523 58.6828 2.64523 58.0582V9.11016C2.64523 8.25703 3.4388 7.57148 4.42635 7.57148H57.4367C58.4243 7.57148 59.2178 8.25703 59.2178 9.11016V74.1609C59.2178 75.0141 58.4243 75.6996 57.4367 75.6996H4.42635C3.4388 75.6996 2.64523 75.0141 2.64523 74.1609V63.3902C2.64523 62.7656 2.04564 62.2477 1.32261 62.2477C0.599585 62.2477 0 62.7656 0 63.4055V74.1762C0 76.2785 1.99274 78 4.42635 78H57.4367C59.888 78 61.8631 76.2785 61.8631 74.1762V72.7137H63.556C66.0073 72.7137 67.9824 70.9922 67.9824 68.8898V18.3574C67.9824 17.7328 67.3828 17.2148 66.6598 17.2148C65.9367 17.2148 65.3371 17.7328 65.3371 18.3574V68.8898C65.3371 69.743 64.5436 70.4285 63.556 70.4285H61.8631V9.11016C61.8631 6.99258 59.8703 5.28633 57.4367 5.28633C54.7562 5.28633 11.6214 5.28633 8.76452 5.28633V3.82383C8.76452 2.9707 9.55809 2.28516 10.5456 2.28516H63.556C64.5436 2.28516 65.3371 2.9707 65.3371 3.82383V13.0254C65.3548 13.65 65.9367 14.168 66.6774 14.168Z" fill="#D9112F" fill-opacity="0.16"/>
</svg>
