<svg width="62" height="62" viewBox="0 0 62 62" fill="none" xmlns="http://www.w3.org/2000/svg">
<g clip-path="url(#clip0)">
<path d="M61.8836 14.6893C61.664 13.9012 61.1473 13.2165 60.4369 12.8031C59.7265 12.3897 58.874 12.2734 58.0861 12.493C57.2981 12.7126 56.6136 13.2294 56.2002 13.94L55.6836 14.8443C55.1927 14.5601 54.5598 14.7281 54.2756 15.219L51.6536 19.6891L50.7494 19.1723C50.5169 19.0302 50.2327 18.9914 49.9615 19.069C49.6902 19.1465 49.4706 19.3144 49.3286 19.5599C49.0444 20.0508 49.2252 20.6839 49.7161 20.9681L50.6202 21.4849L41.8369 36.7039L39.6669 42.5047L38.6335 44.4426C38.0265 45.4891 38.091 46.8068 38.8015 47.7887L36.4765 50.6439L35.8306 49.016C35.5335 48.2926 34.8619 47.7887 34.074 47.7241C33.286 47.6595 32.5369 48.0471 32.1365 48.7189L31.7619 49.3519L31.4131 45.2177C31.3356 44.2359 30.5735 43.4478 29.6048 43.3315C28.636 43.2152 27.706 43.7966 27.396 44.7268L24.8515 52.3492C24.6706 52.8918 24.9677 53.4732 25.4973 53.6541C25.6006 53.7058 25.704 53.7316 25.8202 53.7316C26.2594 53.7316 26.6598 53.4474 26.8019 53.034L29.3335 45.4115L29.6952 49.6103C29.7727 50.5018 30.4185 51.2511 31.284 51.4578C32.1623 51.6645 33.0665 51.2769 33.5185 50.5018L33.906 49.8687L34.5519 51.4966C34.8231 52.1813 35.4431 52.6722 36.1665 52.7756C36.8898 52.8789 37.626 52.5947 38.091 52.0263L40.4935 48.9773C40.7648 49.0419 41.036 49.0806 41.3073 49.0806C42.4181 49.0936 43.4386 48.5122 44.0069 47.5562L45.0402 45.825L48.9798 41.0448L57.8536 25.632L58.7577 26.1488C59.0031 26.2909 59.1711 26.5105 59.2486 26.7818C59.3261 27.0531 59.2873 27.3244 59.1452 27.5699L55.0119 34.7272C54.8569 34.9598 54.8052 35.2569 54.8698 35.5282C54.9344 35.7995 55.1023 36.045 55.3477 36.1871C55.5802 36.3292 55.8644 36.368 56.1356 36.2905C56.4069 36.213 56.6265 36.045 56.7686 35.7995L60.9019 28.6422C61.3152 27.9316 61.4315 27.079 61.2119 26.2909C60.9923 25.5028 60.4756 24.8181 59.7652 24.4047L58.8611 23.8879L61.4444 19.4178C61.7286 18.9269 61.5606 18.2938 61.0698 18.0096L61.5865 17.1052C61.9998 16.3688 62.1161 15.5032 61.8836 14.6893ZM57.9956 14.9864C58.1377 14.741 58.3573 14.573 58.6286 14.4955C58.8998 14.4309 59.1711 14.4697 59.4165 14.5989C59.6619 14.741 59.8298 14.9606 59.9073 15.2319C59.9719 15.5032 59.9331 15.7745 59.804 16.02L59.2873 16.9243L57.4919 15.8908L57.9956 14.9864ZM43.9036 43.8354L43.3869 43.5382L41.8627 42.6468L43.3352 38.7193L46.5902 40.6055L43.9036 43.8354ZM40.8035 46.8197C40.3644 46.5097 40.2352 45.9283 40.4935 45.4632L41.0102 44.5589L42.8056 45.5924L42.289 46.4838C42.1469 46.7293 41.9015 46.9102 41.6173 46.9748C41.3461 47.0523 41.049 46.9877 40.8035 46.8197ZM47.7656 38.9131L44.1877 36.846L52.4544 22.5184L56.0323 24.5855L47.7656 38.9131ZM57.0656 22.8027L53.4877 20.7356L55.5544 17.1569L59.1323 19.224L57.0656 22.8027Z" fill="#8E67FF"/>
<path d="M16.3008 46.303L12.6453 49.9463L10.4495 47.75C10.0491 47.3495 9.39035 47.3495 8.98993 47.75C8.79618 47.9438 8.67993 48.2022 8.67993 48.4864C8.67993 48.7706 8.79618 49.029 8.98993 49.2228L11.1858 51.4191C11.5733 51.8066 12.1028 52.0134 12.6453 52.0134C13.1878 52.0134 13.7174 51.8066 14.1178 51.4191L17.7603 47.7629C18.1091 47.3495 18.0833 46.7423 17.7087 46.3547C17.3212 45.98 16.7141 45.9542 16.3008 46.303Z" fill="#8E67FF"/>
<path d="M4.1333 49.0807C4.1333 53.9384 8.05997 57.8659 12.9166 57.8659C17.7733 57.8659 21.7 53.9384 21.7 49.0807C21.7 48.5123 21.235 48.0472 20.6666 48.0472C20.0983 48.0472 19.6333 48.5123 19.6333 49.0807C19.6333 52.7886 16.6237 55.7988 12.9166 55.7988C9.20955 55.7988 6.19997 52.7886 6.19997 49.0807C6.19997 45.3729 9.20955 42.3626 12.9166 42.3626C14.3762 42.3626 15.7841 42.8277 16.9466 43.7063C17.3987 44.0551 18.0445 43.9517 18.3933 43.4995C18.742 43.0474 18.6387 42.4014 18.1866 42.0526C15.5258 40.0501 11.9608 39.74 8.98997 41.2257C6.00622 42.7115 4.1333 45.7604 4.1333 49.0807Z" fill="#8E67FF"/>
<path d="M37.2 8.26839C37.7684 8.26839 38.2334 7.80329 38.2334 7.23484C38.2334 6.66639 37.7684 6.20129 37.2 6.20129H10.3334C9.76505 6.20129 9.30005 6.66639 9.30005 7.23484V11.369C9.30005 11.9375 9.76505 12.4026 10.3334 12.4026H37.2C37.7684 12.4026 38.2334 11.9375 38.2334 11.369C38.2334 10.8006 37.7684 10.3355 37.2 10.3355H11.3667V8.26839H37.2Z" fill="#8E67FF"/>
<path d="M13.4335 14.4697C12.8651 14.4697 12.4001 14.9348 12.4001 15.5033C12.4001 16.0717 12.8651 16.5368 13.4335 16.5368H34.1001C34.6685 16.5368 35.1335 16.0717 35.1335 15.5033C35.1335 14.9348 34.6685 14.4697 34.1001 14.4697H13.4335Z" fill="#8E67FF"/>
<path d="M40.287 21.7045H17.5665C16.9982 21.7045 16.5332 22.1696 16.5332 22.738C16.5332 23.3065 16.9982 23.7716 17.5665 23.7716H40.2999C40.8682 23.7716 41.3332 23.3065 41.3332 22.738C41.3203 22.1696 40.8682 21.7045 40.287 21.7045Z" fill="#8E67FF"/>
<path d="M29.9667 28.9393C29.9667 28.3709 29.5017 27.9058 28.9334 27.9058H8.26673C7.6984 27.9058 7.2334 28.3709 7.2334 28.9393C7.2334 29.5078 7.6984 29.9729 8.26673 29.9729H28.9334C29.5017 29.9729 29.9667 29.5078 29.9667 28.9393Z" fill="#8E67FF"/>
<path d="M40.2867 27.9058H33.0534C32.485 27.9058 32.02 28.3709 32.02 28.9393C32.02 29.5078 32.485 29.9729 33.0534 29.9729H40.2867C40.855 29.9729 41.32 29.5078 41.32 28.9393C41.32 28.3579 40.8679 27.9058 40.2867 27.9058Z" fill="#8E67FF"/>
<path d="M18.6001 35.1407C19.1684 35.1407 19.6334 34.6756 19.6334 34.1072C19.6334 33.5387 19.1684 33.0736 18.6001 33.0736H8.26673C7.6984 33.0736 7.2334 33.5387 7.2334 34.1072C7.2334 34.6756 7.6984 35.1407 8.26673 35.1407H18.6001Z" fill="#8E67FF"/>
<path d="M22.7333 35.1407H29.9666C30.535 35.1407 31 34.6756 31 34.1072C31 33.5387 30.535 33.0736 29.9666 33.0736H22.7333C22.165 33.0736 21.7 33.5387 21.7 34.1072C21.7 34.6756 22.165 35.1407 22.7333 35.1407Z" fill="#8E67FF"/>
<path d="M46.4871 47.5303C45.9187 47.5303 45.4537 47.9954 45.4537 48.5639V58.8994C45.4537 59.4678 44.9887 59.9329 44.4204 59.9329H3.1C2.53167 59.9329 2.06667 59.4678 2.06667 58.8994V3.10065C2.06667 2.53219 2.53167 2.0671 3.1 2.0671H44.4204C44.9887 2.0671 45.4537 2.53219 45.4537 3.10065V22.5055C45.4537 23.074 45.9187 23.5391 46.4871 23.5391C47.0554 23.5391 47.5204 23.074 47.5204 22.5055V3.10065C47.5204 1.38237 46.1383 0 44.4204 0H3.1C1.38208 0 0 1.38237 0 3.10065V58.8994C0 60.6176 1.38208 62 3.1 62H44.4204C46.1383 62 47.5204 60.6176 47.5204 58.8994V48.5639C47.5204 47.9954 47.0683 47.5303 46.4871 47.5303Z" fill="#8E67FF"/>
</g>
<defs>
<clipPath id="clip0">
<rect width="62" height="62" fill="white"/>
</clipPath>
</defs>
</svg>
