<svg width="31" height="31" viewBox="0 0 31 31" fill="none" xmlns="http://www.w3.org/2000/svg">
<path d="M19.6433 11.6638L13.2395 0.475151C13.0715 0.182114 12.7556 0 12.4147 0H5.94881C5.60794 0 5.30229 0.173363 5.13054 0.463798C4.95879 0.754471 4.9564 1.10262 5.12407 1.39542L11.2134 12.0349C7.92933 13.6994 5.67693 17.0785 5.67693 20.9672C5.67693 26.4992 10.2354 31 15.8385 31C21.4415 31 26 26.4992 26 20.967C26 16.7625 23.367 13.1538 19.6433 11.6638ZM5.92462 0.948647C5.9215 0.94297 5.91695 0.935165 5.92486 0.921684C5.93276 0.908203 5.9421 0.908203 5.94881 0.908203H12.4147C12.4245 0.908203 12.4339 0.913406 12.4387 0.921921L18.3462 11.2433C17.5438 11.0415 16.7037 10.9342 15.8385 10.9342C14.5014 10.9342 13.2236 11.1905 12.0533 11.656L5.92462 0.948647ZM15.8385 30.0918C10.7427 30.0918 6.59677 25.9985 6.59677 20.967C6.59677 15.9357 10.7427 11.8424 15.8385 11.8424C20.9342 11.8424 25.0802 15.9357 25.0802 20.9672C25.0802 25.9985 20.9342 30.0918 15.8385 30.0918Z" fill="#D9112F"/>
<path d="M15.5 13C11.7045 13 8.48202 15.7933 8.00367 19.4974C7.97212 19.7414 8.1475 19.9643 8.39515 19.9954C8.64304 20.0264 8.86903 19.8536 8.90057 19.6096C9.32148 16.3492 12.1586 13.8904 15.5 13.8904C18.8419 13.8904 21.6792 16.3497 22.0997 19.6106C22.1286 19.8356 22.3233 20 22.5474 20C22.5665 20 22.5855 19.9988 22.6051 19.9963C22.8525 19.9652 23.0279 19.7423 22.9963 19.4983C22.5187 15.7937 19.296 13 15.5 13Z" fill="#D9112F"/>
<path d="M18.982 19.0281C18.9394 18.89 18.8287 18.7921 18.6924 18.7698L16.3713 18.4046L15.3237 16.2093C15.264 16.0802 15.1405 16 15 16C14.8637 16 14.7402 16.0802 14.6763 16.2093L13.6287 18.4046L11.3076 18.7698C11.1713 18.7921 11.0606 18.89 11.018 19.0281C10.9754 19.1661 11.0095 19.3131 11.1075 19.4155L12.7769 21.1388L12.3936 23.5568C12.3723 23.6993 12.4277 23.8418 12.5384 23.9264C12.6491 24.011 12.7939 24.0244 12.9175 23.9576L15 22.8265L17.0826 23.9576C17.2061 24.0244 17.3509 24.011 17.4616 23.9264C17.5723 23.8418 17.6277 23.6993 17.6064 23.5568L17.2231 21.1388L18.8925 19.4155C18.9905 19.3131 19.0246 19.1661 18.982 19.0281ZM16.58 20.7336C16.4948 20.8182 16.4565 20.9429 16.4778 21.0631L16.7759 22.9289L15.1661 22.0606C15.0639 22.0072 14.9361 22.0072 14.8339 22.0606L13.2283 22.9334L13.5265 21.0676C13.5478 20.9473 13.5094 20.8226 13.4242 20.738L12.1338 19.411L13.9225 19.1305C14.0375 19.1127 14.1397 19.037 14.1908 18.9256L15 17.2335L15.8092 18.9256C15.8603 19.037 15.9625 19.1127 16.0775 19.1305L17.8662 19.411L16.58 20.7336Z" fill="#D9112F"/>
<path d="M22.6049 21.0054C22.3573 20.9743 22.131 21.1469 22.0995 21.3909C21.6786 24.6509 18.8415 27.1094 15.5001 27.1094C12.1578 27.1094 9.32072 24.6504 8.90052 21.3892C8.86897 21.1455 8.64275 20.9727 8.3951 21.0036C8.14745 21.0346 7.97231 21.2575 8.00362 21.5015C8.48102 25.2063 11.7037 28 15.5001 28C19.2956 28 22.518 25.207 22.9964 21.5033C23.0277 21.2594 22.8525 21.0363 22.6049 21.0054Z" fill="#D9112F"/>
<path d="M25.8725 0.456626C25.7048 0.170682 25.4064 0 25.0738 0H18.76C18.4272 0 18.1187 0.179297 17.9547 0.467803L16.0583 3.80878C15.9362 4.02371 16.0122 4.29638 16.2281 4.41793C16.444 4.53948 16.7181 4.46357 16.8402 4.24865L18.7366 0.907663C18.7413 0.89928 18.7502 0.894158 18.76 0.894158H25.0735C25.0801 0.894158 25.089 0.894158 25.0967 0.90743C25.1044 0.920703 25.1 0.928387 25.0969 0.933975L19.7618 10.3329C19.6397 10.5478 19.7157 10.8207 19.9316 10.942C20.0015 10.9814 20.0773 11 20.1521 11C20.3089 11 20.4609 10.9183 20.5435 10.7727L25.8788 1.37384C26.0426 1.08556 26.0402 0.742803 25.8725 0.456626Z" fill="#D9112F"/>
</svg>
