<svg width="14" height="18" viewBox="0 0 14 18" fill="none" xmlns="http://www.w3.org/2000/svg">
<path d="M2 17H13" stroke="#4B4A4A" stroke-linecap="round" stroke-linejoin="round"/>
<path d="M7.5 10C8.88071 10 10 8.88071 10 7.5C10 6.11929 8.88071 5 7.5 5C6.11929 5 5 6.11929 5 7.5C5 8.88071 6.11929 10 7.5 10Z" stroke="#4B4A4A" stroke-linecap="round" stroke-linejoin="round"/>
<path d="M13 7.15385C13 12.6923 7 17 7 17C7 17 1 12.6923 1 7.15385C1 5.52174 1.63214 3.95649 2.75736 2.80242C3.88258 1.64835 5.4087 1 7 1C8.5913 1 10.1174 1.64835 11.2426 2.80242C12.3679 3.95649 13 5.52174 13 7.15385V7.15385Z" stroke="#4B4A4A" stroke-linecap="round" stroke-linejoin="round"/>
</svg>
