<svg width="81" height="69" viewBox="0 0 81 69" fill="none" xmlns="http://www.w3.org/2000/svg">
<path d="M80.9052 67.6577L76.1629 42.7121C76.0523 42.0938 75.42 41.6866 74.7877 41.7921C74.1396 41.8977 73.7128 42.501 73.8234 43.1043L75.831 53.6466L60.3714 36.5285L70.7726 34.3115L72.3059 35.1259L72.9699 38.64C73.0805 39.2584 73.7128 39.6656 74.3451 39.56C74.9932 39.4544 75.42 38.8512 75.3093 38.2479L74.5348 34.2059C74.4715 33.8741 74.2503 33.5875 73.9499 33.4216L71.5314 32.1397L63.8648 28.0675L57.9529 24.9305C57.9054 24.9003 57.858 24.8852 57.8106 24.8702C57.7948 24.8702 57.779 24.8551 57.7632 24.8551C57.7315 24.84 57.6999 24.84 57.6683 24.8249C57.6525 24.8249 57.6367 24.8249 57.6051 24.8098C57.5735 24.8098 57.5419 24.7948 57.5102 24.7948C57.4944 24.7948 57.4628 24.7948 57.447 24.7948C57.4154 24.7948 57.3838 24.7948 57.3522 24.7948C57.3364 24.7948 57.3047 24.7948 57.2889 24.7948C57.2573 24.7948 57.2257 24.7948 57.1941 24.8098C57.1783 24.8098 57.1467 24.8098 57.1309 24.8249C57.0993 24.8249 57.0676 24.84 57.0518 24.84C57.036 24.84 57.0044 24.8551 56.9886 24.8551C56.957 24.8702 56.9412 24.8702 56.9096 24.8852C56.8938 24.9003 56.8621 24.9003 56.8463 24.9154C56.8305 24.9154 56.8305 24.9154 56.8147 24.9305L54.0958 26.2728C56.1192 22.6833 57.1309 19.1993 57.1309 15.8813C57.1467 7.11869 49.6856 0 40.5331 0C31.3807 0 23.9196 7.11869 23.9196 15.8511C23.9196 19.2144 24.9629 22.7285 27.0178 26.3482L24.0935 24.9003C24.0777 24.9003 24.0777 24.8852 24.0618 24.8852C24.046 24.8702 24.0144 24.8702 23.9986 24.8551C23.967 24.84 23.9512 24.84 23.9196 24.8249C23.9038 24.8249 23.8722 24.8098 23.8564 24.8098C23.8247 24.8098 23.7931 24.7948 23.7773 24.7948C23.7615 24.7948 23.7299 24.7797 23.7141 24.7797C23.6825 24.7797 23.6509 24.7797 23.6192 24.7646C23.6034 24.7646 23.5718 24.7646 23.556 24.7646C23.5244 24.7646 23.4928 24.7646 23.4612 24.7646C23.4454 24.7646 23.4137 24.7646 23.3979 24.7646C23.3663 24.7646 23.3347 24.7797 23.3031 24.7797C23.2873 24.7797 23.2557 24.7797 23.2399 24.7948C23.2083 24.8098 23.1766 24.8098 23.145 24.8249C23.1292 24.8249 23.1134 24.84 23.0976 24.84C23.0502 24.8551 23.0028 24.8852 22.9553 24.9003L6.95827 33.4216C6.64213 33.5875 6.43663 33.8741 6.3734 34.2059L1.85249 57.9148C1.74184 58.5331 2.16864 59.1213 2.81674 59.2269C3.46484 59.3325 4.08133 58.9252 4.19198 58.3069L5.55142 51.1882L20.932 43.4361L19.699 58.6689L2.75351 65.9384L3.35419 62.8013C3.46484 62.1829 3.03805 61.5948 2.38994 61.4892C1.74184 61.3836 1.12535 61.7908 1.0147 62.4092L0.0188374 67.6577C-0.0601995 68.0649 0.113682 68.4872 0.461444 68.7587C0.66694 68.9246 0.935665 69 1.18858 69C1.34666 69 1.52054 68.9698 1.67861 68.8944L20.8371 60.6898L39.9799 68.8944C39.9957 68.8944 39.9957 68.9095 40.0115 68.9095C40.0273 68.9095 40.0431 68.9246 40.0589 68.9246C40.0747 68.9246 40.0905 68.9397 40.1063 68.9397C40.1221 68.9397 40.1221 68.9397 40.1379 68.9548C40.1538 68.9548 40.1696 68.9698 40.1854 68.9698C40.217 68.9698 40.2328 68.9849 40.2644 68.9849C40.2802 68.9849 40.2802 68.9849 40.296 68.9849C40.3118 68.9849 40.3118 68.9849 40.3276 68.9849C40.3751 68.9849 40.4067 68.9849 40.4541 68.9849H40.4699C40.5173 68.9849 40.5647 68.9849 40.6122 68.9698H40.628C40.6438 68.9698 40.6438 68.9698 40.6596 68.9698C40.6912 68.9698 40.7386 68.9548 40.7702 68.9397C40.786 68.9397 40.786 68.9397 40.8019 68.9397C40.8019 68.9397 40.8018 68.9397 40.8177 68.9397C40.8651 68.9246 40.9125 68.9095 40.9599 68.8944L60.1185 60.6898L79.277 68.8944C79.2928 68.9095 79.3086 68.9095 79.3402 68.9095C79.356 68.9095 79.3718 68.9246 79.4035 68.9246C79.4351 68.9397 79.4509 68.9397 79.4825 68.9397C79.4983 68.9397 79.5141 68.9548 79.5299 68.9548C79.5615 68.9548 79.5931 68.9698 79.6248 68.9698C79.6406 68.9698 79.6406 68.9698 79.6564 68.9698C79.7038 68.9698 79.7354 68.9698 79.7828 68.9698C79.8461 68.9698 79.8935 68.9698 79.9567 68.9548C79.9725 68.9548 79.9883 68.9548 80.0041 68.9548C80.0674 68.9397 80.1148 68.9397 80.178 68.9095C80.178 68.9095 80.178 68.9095 80.1938 68.9095C80.2254 68.8944 80.2729 68.8793 80.3045 68.8643C80.3203 68.8643 80.3203 68.8492 80.3361 68.8492C80.3677 68.8341 80.3993 68.819 80.4309 68.8039C80.4625 68.7889 80.4942 68.7738 80.51 68.7436C80.5258 68.7436 80.5258 68.7285 80.5416 68.7285C80.5574 68.7134 80.5732 68.6984 80.6048 68.6833C80.6206 68.6682 80.6364 68.6531 80.6522 68.638C80.6838 68.6079 80.7155 68.5626 80.7471 68.5325L80.7629 68.5174C80.7945 68.4721 80.8261 68.4269 80.8577 68.3666C80.8577 68.3515 80.8735 68.3364 80.8735 68.3213C80.8893 68.2911 80.9052 68.2459 80.921 68.2157C80.921 68.2007 80.9368 68.1705 80.9368 68.1554C80.9526 68.1252 80.9526 68.08 80.9684 68.0498C80.9684 68.0348 80.9684 68.0046 80.9842 67.9895C80.9842 67.9443 80.9842 67.9141 81 67.8689C81 67.8538 81 67.8387 81 67.8085C80.921 67.7784 80.921 67.718 80.9052 67.6577ZM60.0236 28.6105L58.8064 28.882L58.7274 27.9167L60.0236 28.6105ZM57.4312 41.3095L52.4677 37.6144C52.1199 37.358 51.6615 37.2977 51.2663 37.4636L41.6555 41.4754V40.2387C42.3668 39.6807 44.0107 38.3685 45.9709 36.4682L56.6883 31.9738L57.4312 41.3095ZM56.3247 27.7056L56.4828 29.5757L49.7804 32.381C50.4443 31.5967 51.0608 30.8125 51.6457 30.0282L56.3247 27.7056ZM24.5835 27.7056L29.4996 30.1489C30.2267 31.1292 31.0329 32.1095 31.9023 33.1049C32.6611 33.9797 33.4198 34.779 34.147 35.518L24.046 34.1456L24.5835 27.7056ZM21.1375 40.7816L6.08887 48.3679L6.81601 44.5069L6.83181 44.4013L21.4378 37.0564L21.1375 40.7816ZM21.6591 34.402L7.38507 41.581L8.61805 35.141L22.1966 27.9318L21.8488 32.1397L21.6591 34.402ZM22.0701 58.7443L23.1924 44.8839L37.2294 65.2295L22.0701 58.7443ZM39.2685 54.3705L31.9497 43.3607L39.2685 44.1902V54.3705ZM39.2685 41.9128L29.7525 40.8269C29.2941 40.7816 28.8515 40.9777 28.5986 41.3548C28.3615 41.7318 28.3615 42.1993 28.5986 42.5613L39.2685 58.5934V64.0682L23.4928 41.1889L23.888 36.4079L36.9923 38.2026C37.9881 39.0774 38.7785 39.7259 39.2685 40.118V41.9128ZM40.5331 38.1574C37.5297 35.7443 26.2907 26.0164 26.2907 15.8511C26.2907 8.35541 32.6769 2.2623 40.5331 2.2623C48.3894 2.2623 54.7756 8.35541 54.7756 15.8511C54.7756 26.0164 43.5365 35.7443 40.5331 38.1574ZM41.6396 66.1043V61.082L45.1963 64.5961L41.6396 66.1043ZM47.5042 63.6007L41.6555 57.8092V43.9338L51.5825 39.8164L57.6999 44.3712L58.8697 58.7292L47.5042 63.6007ZM58.9961 31.1744L63.1219 30.2544L66.0462 31.8079L67.6586 32.6675L59.2649 34.4472L58.9961 31.1744ZM61.225 58.6839L60.2923 47.2518L75.5465 64.8223L61.225 58.6839ZM59.9762 43.3456L59.66 39.3639L59.6442 39.198L76.6688 58.0656L77.7595 63.8118L59.9762 43.3456Z" fill="#5D2352" fill-opacity="0.16"/>
<path d="M40.5 9C39.8373 9 39.2877 9.51293 39.2877 10.1315C39.2877 10.75 39.8373 11.2629 40.5 11.2629C43.2963 11.2629 45.5754 13.3901 45.5754 16C45.5754 18.6099 43.2963 20.7371 40.5 20.7371C37.7037 20.7371 35.4246 18.6099 35.4246 16C35.4246 14.7478 35.9418 13.5711 36.8793 12.681C37.3481 12.2284 37.3481 11.5194 36.8631 11.0819C36.3782 10.6444 35.6185 10.6444 35.1498 11.097C33.7597 12.4095 33 14.1595 33 16C33 19.8621 36.3621 23 40.5 23C44.6379 23 48 19.8621 48 16C48 12.1379 44.6379 9 40.5 9Z" fill="#5D2352" fill-opacity="0.16"/>
</svg>
