<svg width="72" height="72" viewBox="0 0 72 72" fill="none" xmlns="http://www.w3.org/2000/svg">
<path d="M30.2317 3.32731C26.6317 3.94394 23.4431 5.06158 20.4345 6.69309C19.3674 7.27118 18.3388 7.92636 17.3102 8.58153C16.2431 9.26239 15.446 9.26239 14.9188 8.50445C14.3788 7.73366 14.6359 6.97571 15.6774 6.25631C27.7246 -2.05538 44.0918 -2.09392 56.1518 6.19208C56.7433 6.60317 57.1547 6.62886 57.8104 6.282C60.0347 5.07443 62.8376 5.54975 64.6376 7.34826C66.4376 9.14677 66.9262 11.9473 65.6919 14.1698C65.3061 14.8763 65.4347 15.3003 65.8461 15.904C79.1533 35.2894 69.8962 62.7553 47.5247 70.0392C36.2489 73.7133 25.5903 72.2103 15.6774 65.6457C15.2017 65.3246 14.8545 65.286 14.3402 65.5686C11.9745 66.8533 9.21021 66.4551 7.34592 64.5923C5.49449 62.7424 5.05734 59.9419 6.36877 57.6038C6.72878 56.9615 6.5102 56.6018 6.18877 56.1136C-1.93697 44.282 -2.0784 28.211 5.86734 16.3023C6.16306 15.8655 6.72878 15.4673 7.24306 15.3773C7.60307 15.3131 8.27164 15.6856 8.42592 16.0325C8.60593 16.4693 8.5545 17.1373 8.33592 17.5869C7.52592 19.2056 6.61306 20.76 5.75163 22.353C5.66163 22.5071 5.62306 22.687 5.5202 22.9568C5.81592 22.9825 6.03449 23.021 6.26592 23.021C10.3288 23.021 14.3917 23.0082 18.4545 23.0339C19.0331 23.0339 19.316 22.9054 19.5345 22.3273C20.2931 20.4003 21.6945 19.1414 23.7517 18.7046C24.3817 18.5761 24.6646 18.3192 24.806 17.6512C25.6674 13.4247 26.8246 9.27524 28.9331 5.47267C29.2931 4.80465 29.7174 4.16233 30.2317 3.32731ZM48.5404 25.8858C48.5147 26.0656 48.4889 26.1556 48.5018 26.2455C48.8875 31.2299 49.1318 36.2144 48.7718 41.2117C48.7332 41.7641 48.9904 41.9696 49.4275 42.188C50.8418 42.8689 51.8575 43.9351 52.3975 45.4125C52.5904 45.952 52.8732 46.1062 53.4132 46.0933C57.8875 46.0676 62.349 46.0676 66.8233 46.0933C67.4276 46.0933 67.6847 45.9135 67.8519 45.3225C69.2276 40.5308 69.5619 35.6877 68.7904 30.7675C68.5333 29.1231 68.0704 27.5044 67.7104 25.8729C61.2304 25.8858 54.9175 25.8858 48.5404 25.8858ZM19.2645 25.8986C14.2759 25.8986 9.33879 25.8986 4.36305 25.8986C2.3059 32.643 2.28019 39.3361 4.36305 46.0163C10.8045 46.0163 17.1302 46.0163 23.2117 46.0163C23.2117 40.8391 23.2117 35.7262 23.1988 30.6133C23.1988 30.3692 22.9803 30.0224 22.7617 29.9196C21.0131 29.1103 19.856 27.7999 19.2645 25.8986ZM45.6604 25.8601C40.7232 25.8601 35.9789 25.8472 31.2346 25.8858C31.016 25.8858 30.6946 26.2326 30.5917 26.4896C29.8717 28.2367 28.6631 29.4828 26.8503 30.0352C26.2331 30.2279 25.9888 30.4848 26.0146 31.1272C26.1174 35.8033 26.1946 40.4794 26.2974 45.1555C26.2974 45.451 26.4003 45.7465 26.4517 46.0034C26.5931 46.042 26.6574 46.0676 26.7089 46.0676C31.3246 46.0805 35.9532 46.0933 40.5689 46.0548C40.8261 46.0548 41.1989 45.7208 41.3146 45.4639C42.0603 43.6397 43.3203 42.3807 45.2232 41.854C45.8532 41.6741 45.9818 41.3787 45.9946 40.8134C46.0204 38.2827 46.1361 35.7647 46.0846 33.234C46.0204 30.806 45.8018 28.3908 45.6604 25.8601ZM45.1718 22.9953C45.1846 22.8155 45.2104 22.687 45.1975 22.5714C44.4389 17.5227 43.3975 12.5639 41.1603 7.92636C40.3889 6.32054 39.4889 4.77896 38.0489 3.64847C36.6603 2.55651 35.3617 2.46659 34.0503 3.59708C33.1889 4.32933 32.4046 5.22859 31.8003 6.19208C29.4346 9.9818 28.3417 14.2468 27.506 18.5761C27.4674 18.7945 27.7374 19.1671 27.9689 19.3084C29.1517 20.0535 30.0517 21.017 30.5146 22.3273C30.7203 22.9182 31.016 23.0467 31.5946 23.0467C35.8375 23.021 40.0932 23.0339 44.3361 23.0339C44.6061 23.0339 44.8761 23.0082 45.1718 22.9953ZM26.8117 48.9067C26.786 49.1251 26.7603 49.2279 26.7731 49.3178C27.5317 54.4564 28.5603 59.5436 30.9389 64.2069C31.646 65.6072 32.6103 66.9304 33.6903 68.0609C35.1175 69.5511 36.7246 69.4868 38.2546 68.0994C38.9103 67.4956 39.5146 66.7891 40.0032 66.0311C42.4589 62.1643 43.5903 57.8222 44.4518 53.403C44.4903 53.1975 44.1946 52.8249 43.9632 52.6707C42.7803 51.9385 41.8289 51.0007 41.3918 49.6775C41.1603 48.971 40.7746 48.8939 40.1575 48.8939C37.3803 48.9196 34.5903 48.9067 31.8132 48.9067C30.1803 48.9067 28.5346 48.9067 26.8117 48.9067ZM41.9318 68.4977C50.7004 68.1765 64.6504 57.0514 66.3861 48.971C66.2962 48.9453 66.219 48.9067 66.129 48.9067C61.8218 48.9067 57.5147 48.8939 53.2075 48.9196C52.9504 48.9196 52.5647 49.2407 52.449 49.4977C51.6132 51.476 50.2118 52.7864 48.0904 53.236C47.5504 53.3516 47.3318 53.6085 47.2289 54.1481C46.5475 57.5781 45.6604 60.9567 44.1946 64.1427C43.5132 65.6329 42.6903 67.0588 41.9318 68.4977ZM16.8474 63.0507C20.9103 65.8641 25.2431 67.7654 30.2317 68.6004C26.2203 62.5497 24.9474 55.7925 23.8417 48.9581C17.7088 48.9581 11.6531 48.9581 5.30163 48.9581C6.53592 51.1292 7.66735 53.1461 8.79878 55.1373C11.4731 54.0839 13.7617 54.3536 15.6774 56.2292C17.5931 58.1562 17.876 60.4686 16.8474 63.0507ZM66.7076 23.0082C65.4604 20.7986 64.3419 18.8074 63.2104 16.8033C60.5876 17.8439 58.2861 17.6126 56.3704 15.737C54.3904 13.8101 54.1204 11.4591 55.1104 8.95408C52.269 6.50039 44.2975 3.21169 41.8675 3.50716C45.7889 9.41655 47.0489 16.1867 48.1547 23.0082C54.2875 23.0082 60.3433 23.0082 66.7076 23.0082ZM28.1103 24.4855C28.136 22.7898 26.7474 21.3767 25.0374 21.3767C23.366 21.3638 21.9903 22.6998 21.9388 24.3699C21.9003 26.0785 23.2631 27.5044 24.9603 27.5301C26.6574 27.5687 28.0846 26.1812 28.1103 24.4855ZM63.5447 11.4977C63.5319 9.81479 62.0918 8.41452 60.4076 8.44022C58.749 8.46591 57.3861 9.84049 57.3733 11.4977C57.3604 13.1806 58.7875 14.6065 60.4718 14.6065C62.169 14.6065 63.5576 13.1934 63.5447 11.4977ZM14.6102 60.4557C14.6359 58.7728 13.2217 57.334 11.5374 57.334C9.87879 57.3212 8.49021 58.6701 8.43878 60.3273C8.38735 62.0102 9.77593 63.4618 11.4602 63.5004C13.1574 63.5389 14.5845 62.1515 14.6102 60.4557ZM49.9289 47.5065C49.9418 45.7722 48.5789 44.3976 46.8689 44.4104C45.1718 44.4104 43.7832 45.8107 43.7961 47.5193C43.8089 49.1893 45.1589 50.5511 46.8175 50.5768C48.5275 50.6025 49.9161 49.2279 49.9289 47.5065Z" fill="#5D2352" fill-opacity="0.16"/>
<path d="M13 12.4931C13 13.3083 12.3641 13.9715 11.5622 13.9992C10.7189 14.0268 10 13.3498 10 12.5069C10 11.664 10.7051 10.9732 11.5484 11.0008C12.3502 11.0146 13 11.6779 13 12.4931Z" fill="#5D2352" fill-opacity="0.16"/>
</svg>
