<svg width="82" height="56" viewBox="0 0 82 56" fill="none" xmlns="http://www.w3.org/2000/svg">
<path d="M74.2645 55.5752C53.5402 47.0295 29.6449 46.5476 7.73555 55.5752C4.05195 57.0852 0 54.3865 0 50.3707V5.61797C0 1.63424 4.05195 -1.09654 7.73555 0.429484C28.4598 8.97523 52.3551 9.45713 74.2645 0.429484C77.9481 -1.09654 82 1.63424 82 5.63403V50.3707C82 54.3705 77.9481 57.0852 74.2645 55.5752ZM3.20312 5.61797V50.3546C3.20312 52.0573 4.9168 53.246 6.51836 52.5874C27.9953 43.7365 52.7715 43.2225 75.4816 52.5874C77.0672 53.23 78.7969 52.0734 78.7969 50.3546V5.61797C78.7969 3.91525 77.0672 2.72655 75.4816 3.38515C54.0047 12.2361 29.2285 12.7501 6.51836 3.38515C4.94883 2.74262 3.20312 3.89918 3.20312 5.61797Z" fill="#5D2352" fill-opacity="0.16"/>
<path d="M40.5 37C35.2559 37 31 32.7282 31 27.5C31 22.2718 35.2718 18 40.5 18C45.7441 18 50 22.2718 50 27.5C50 32.7282 45.7441 37 40.5 37ZM40.5 21.172C37.0092 21.172 34.1879 24.0092 34.1879 27.4841C34.1879 30.9589 37.0092 33.8121 40.5 33.8121C43.9908 33.8121 46.8121 30.9748 46.8121 27.5C46.8121 24.0252 43.9908 21.172 40.5 21.172Z" fill="#5D2352" fill-opacity="0.16"/>
<path d="M25.6667 26C24.75 26 24 25.25 24 24.3333V19.6167C24 17.0667 26.0667 15 28.6167 15H33.3333C34.25 15 35 15.75 35 16.6667C35 17.5833 34.25 18.3333 33.3333 18.3333H28.6167C27.9 18.3333 27.3333 18.9167 27.3333 19.6167V24.3333C27.3333 25.25 26.5833 26 25.6667 26Z" fill="#5D2352" fill-opacity="0.16"/>
<path d="M57.3333 26C56.4167 26 55.6667 25.25 55.6667 24.3333V19.6167C55.6667 18.9 55.0833 18.3333 54.3833 18.3333H49.6667C48.75 18.3333 48 17.5833 48 16.6667C48 15.75 48.75 15 49.6667 15H54.3833C56.9333 15 59 17.0667 59 19.6167V24.3333C59 25.25 58.2667 26 57.3333 26Z" fill="#5D2352" fill-opacity="0.16"/>
<path d="M54.3833 42H49.6667C48.75 42 48 41.25 48 40.3333C48 39.4167 48.75 38.6667 49.6667 38.6667H54.3833C55.1 38.6667 55.6667 38.0833 55.6667 37.3833V32.6667C55.6667 31.75 56.4167 31 57.3333 31C58.25 31 59 31.75 59 32.6667V37.3833C59 39.9167 56.9333 42 54.3833 42Z" fill="#5D2352" fill-opacity="0.16"/>
<path d="M33.3333 42H28.6167C26.0667 42 24 39.9333 24 37.3833V32.6667C24 31.75 24.75 31 25.6667 31C26.5833 31 27.3333 31.75 27.3333 32.6667V37.3833C27.3333 38.1 27.9167 38.6667 28.6167 38.6667H33.3333C34.25 38.6667 35 39.4167 35 40.3333C35 41.25 34.2667 42 33.3333 42Z" fill="#5D2352" fill-opacity="0.16"/>
<path d="M74.5 20C73.675 20 73 19.2612 73 18.3582V10.6418C73 9.73881 73.675 9 74.5 9C75.325 9 76 9.73881 76 10.6418V18.3582C76 19.2612 75.325 20 74.5 20Z" fill="#5D2352" fill-opacity="0.16"/>
<path d="M74.5 26C73.675 26 73 25.325 73 24.5C73 23.675 73.675 23 74.5 23C75.325 23 76 23.675 76 24.5C76 25.325 75.325 26 74.5 26Z" fill="#5D2352" fill-opacity="0.16"/>
</svg>
