<svg width="72" height="72" viewBox="0 0 72 72" fill="none" xmlns="http://www.w3.org/2000/svg">
<path d="M4.50739 53.5216C4.00153 53.5216 3.62682 53.5216 3.25211 53.5216C1.52845 53.5403 0.610413 54.1028 0.179497 55.4338C-0.232681 56.6712 0.216965 57.7398 1.54718 58.7146C2.91487 59.7082 4.26382 60.7206 5.65025 61.6767C6.23105 62.0892 6.3622 62.5204 6.13737 63.1765C5.55657 64.8263 5.05071 66.4948 4.50739 68.1634C4.05773 69.5694 4.35751 70.6568 5.38795 71.4254C6.4184 72.1941 7.58 72.1753 8.76034 71.3317C10.1842 70.3193 11.6081 69.3069 12.9946 68.2383C13.5941 67.7884 14.0437 67.7509 14.6433 68.2196C15.8798 69.1757 17.1538 70.0568 18.4278 70.9755C20.6948 72.6253 22.1562 72.2878 23.4677 69.7569C33.1352 73.1127 42.6528 72.7752 51.9081 68.2571C59.1962 64.6951 64.667 59.2208 68.2642 51.9655C75.5523 37.1925 71.9364 19.4387 59.5147 8.73387C47.0369 -2.02718 28.9946 -2.90831 15.3927 6.44668C2.16545 15.5579 -5.34747 35.449 4.50739 53.5216ZM10.2592 50.297C10.0344 49.9033 9.9032 49.6971 9.79079 49.4721C6.64323 43.248 5.76266 36.7238 7.14909 29.8998C11.2896 9.72749 34.8776 -0.0399459 52.0955 11.2835C52.9573 11.846 53.7629 12.5021 54.606 13.0833C55.1306 13.4395 55.6927 13.4582 56.1049 12.9146C56.4983 12.3896 56.3672 11.8647 55.8801 11.4335C55.7302 11.3023 55.599 11.1898 55.4491 11.0773C47.3741 5.00312 38.3999 2.99714 28.5637 5.28434C10.3529 9.54001 -0.176483 29.1874 6.30599 46.735C7.03667 48.7222 8.1046 50.5595 9.04137 52.4717C9.22873 52.8654 9.5847 53.2591 8.89149 53.5028C7.87978 53.8403 6.98047 53.5028 6.47461 52.5842C2.2966 44.9165 1.11626 36.8363 3.04602 28.2875C7.28024 9.615 26.7839 -1.91469 45.1634 3.37209C61.0885 7.96522 71.5429 23.0944 69.6319 39.461C68.0581 53.0529 60.6201 62.5391 47.9549 67.6384C39.9174 70.863 31.73 70.638 23.6363 67.5072C23.2991 67.376 22.8869 67.1135 22.7557 66.7948C22.4185 66.0824 22.2311 65.295 21.9501 64.3951C22.3061 64.5263 22.5122 64.5826 22.6995 64.6763C30.0626 67.9946 37.613 68.5383 45.3507 66.2136C66.7841 59.727 74.7467 32.8056 60.2454 15.7267C59.3274 14.6393 58.784 14.4518 58.1845 14.9768C57.6412 15.4642 57.7536 16.0641 58.6154 17.0765C67.3087 27.3501 67.7958 42.5543 59.7958 53.3903C59.6084 53.6341 59.3836 53.859 59.0276 54.2902C59.0276 53.0154 59.0276 52.003 59.0276 51.0094C59.0089 46.4913 55.8801 43.3417 51.4023 43.2667C50.1095 43.248 49.5475 43.5667 49.5662 44.3353C49.5849 45.0665 50.0721 45.3477 51.3461 45.3664C54.6248 45.4227 56.873 47.6161 56.9292 50.9157C56.9667 52.6404 56.9292 54.3465 56.9292 56.0712C56.9292 56.3337 56.9292 56.6899 56.7794 56.8586C55.2618 58.4709 53.5194 59.8207 51.4397 61.1331C51.4397 59.7082 51.4397 58.5084 51.4397 57.3086C51.4397 56.5587 51.2337 55.9587 50.3906 55.9587C49.5475 55.9587 49.3226 56.5587 49.3226 57.3086C49.3226 58.6771 49.2852 60.0644 49.3226 61.433C49.3414 62.1267 49.0978 62.4829 48.4608 62.7641C41.6973 65.8199 34.7464 66.3636 27.627 64.2639C25.6785 63.6827 23.8237 62.8016 21.6691 61.9767C23.3553 60.7394 24.7604 59.727 26.1656 58.6959C27.4209 57.7585 27.8705 56.6899 27.4958 55.4901C27.1024 54.1965 26.1469 53.5778 24.5356 53.5591C22.9806 53.5403 21.4068 53.5028 19.8517 53.5778C18.8213 53.6341 18.2405 53.3341 17.9969 52.2655C17.7346 51.1406 17.3037 50.072 16.9477 48.9659C16.3107 47.0537 16.5543 46.4913 18.5028 45.7976C19.196 45.5539 19.9642 45.4227 20.6948 45.4039C22.7557 45.3477 24.8166 45.4039 26.8775 45.3664C27.552 45.3477 27.833 45.5352 27.9829 46.2476C28.7511 49.6034 31.5427 52.1343 34.8589 52.5655C38.4186 53.0341 41.7348 51.3656 43.3648 48.1973C43.7957 47.3537 44.058 46.3975 44.4139 45.4227C44.62 45.4039 44.9011 45.3852 45.1821 45.3852C45.9502 45.4039 46.6809 45.3477 46.7559 44.3541C46.8121 43.6229 46.2875 43.2855 45.1446 43.2855C44.3203 43.2855 43.4772 43.2855 42.5404 43.2855C42.5404 42.723 42.5779 42.2731 42.5404 41.8606C42.4092 40.8295 42.7277 40.0984 43.5896 39.386C45.4444 37.8487 46.6435 35.8615 47.0182 33.4243C47.0556 33.1431 47.4678 32.7869 47.7676 32.6931C50.2407 31.887 51.6833 29.9373 51.6458 27.3501C51.6084 25.5129 50.3531 24.163 48.5357 23.9943C48.2735 23.9756 48.0112 23.9381 47.7489 23.9006C47.7489 23.4881 47.7489 23.1882 47.7489 22.8695C47.8425 19.5137 46.7559 16.6078 44.4139 14.2081C41.8847 11.621 38.7371 10.5524 35.1586 10.7024C34.4654 10.7211 33.997 11.0398 33.997 11.771C33.997 12.5209 34.4841 12.8021 35.1774 12.8021C35.5146 12.8021 35.8706 12.7833 36.2078 12.8021C39.88 13.0083 42.709 14.6393 44.5076 17.8826C45.5193 19.7199 45.8378 21.6884 45.4631 23.7881C44.9947 22.7945 44.6575 21.7634 44.2453 20.751C43.1774 18.2201 41.2851 17.339 38.6622 18.0889C36.7886 18.6325 34.8963 18.5575 33.0415 17.9576C31.5052 17.4702 30.1562 17.7889 29.1258 18.9887C28.5075 19.7011 28.0579 20.5823 27.6457 21.4447C27.2523 22.2695 27.0087 23.1507 26.7089 23.9381C26.1094 22.682 25.5473 21.4259 24.9291 20.2073C23.9173 18.2013 23.3365 16.0829 23.2616 13.8332C23.2429 13.0645 23.5052 12.7646 24.2733 12.7833C26.0907 12.8208 27.8893 12.7833 29.7066 12.8021C30.4373 12.8021 31.0368 12.6146 31.1118 11.771C31.168 11.0961 30.6246 10.7024 29.6691 10.7024C27.7956 10.7024 25.922 10.6836 24.0485 10.7024C22.1375 10.7024 21.0883 11.771 21.1258 13.6832C21.182 16.6828 22.0251 19.4574 23.5052 22.0633C23.8237 22.6257 24.0485 23.2257 24.3483 23.8818C24.011 23.9381 23.8424 23.9756 23.6738 23.9943C21.7066 24.2005 20.4887 25.5129 20.4887 27.4813C20.47 29.956 21.9314 31.9057 24.292 32.6931C24.6105 32.8056 25.0789 33.1056 25.1164 33.368C25.5286 36.0864 26.99 38.1486 29.0321 39.8734C29.2569 40.0609 29.538 40.3421 29.5567 40.5858C29.6129 41.4482 29.5755 42.3106 29.5755 43.3042C29.1258 43.3042 28.7886 43.3042 28.4513 43.3042C25.8284 43.3042 23.2054 43.323 20.5824 43.3042C18.6152 43.3042 16.929 43.9604 15.4489 45.2352C15.1866 45.4602 14.737 45.5726 14.381 45.5352C12.8072 45.4039 11.833 45.9851 11.2709 47.4849C10.8962 48.3473 10.6152 49.2284 10.2592 50.297ZM26.8401 30.7059C27.0087 29.9373 27.1024 29.1311 27.3459 28.3812C28.0579 26.244 28.8073 24.1255 29.5942 22.0258C29.8003 21.4634 30.1188 20.826 30.5684 20.4698C30.9993 20.1323 31.7488 19.8511 32.2171 19.9824C34.7652 20.7135 37.2383 20.6948 39.7863 19.9636C40.2547 19.8324 41.0041 20.1323 41.435 20.4698C41.8847 20.8447 42.1844 21.4634 42.4092 22.0258C43.1774 24.0693 43.9081 26.1315 44.62 28.1937C45.4069 30.4809 45.1446 32.8056 44.2266 34.9428C43.0088 37.7737 40.5357 39.3297 37.7254 40.3796C36.5638 40.8108 35.4209 40.7733 34.2406 40.3796C29.5942 38.8423 27.2523 35.749 26.8401 30.7059ZM21.6691 55.6588C22.6059 55.6588 23.5426 55.6213 24.4794 55.6775C24.7979 55.6963 25.1164 55.9213 25.4349 56.0525C25.2663 56.3524 25.1726 56.7461 24.9103 56.9336C23.5614 57.946 22.1937 58.9208 20.826 59.9145C19.196 61.1143 18.915 62.0329 19.552 63.9639C20.0766 65.5387 20.6012 67.0947 21.0695 68.6883C21.1632 68.9882 21.0133 69.3819 20.9759 69.7194C20.6386 69.6444 20.2452 69.6631 19.9829 69.4757C18.5215 68.4633 17.0976 67.3947 15.655 66.3636C14.3248 65.4075 13.2943 65.4075 11.9641 66.3636C10.5402 67.376 9.15378 68.4446 7.71115 69.4382C7.43012 69.6444 6.99921 69.6257 6.64323 69.7194C6.6245 69.3444 6.47461 68.932 6.58702 68.5945C7.07414 66.9823 7.61748 65.3887 8.12334 63.7764C8.6854 61.9767 8.38563 61.0768 6.86806 59.9707C5.50037 58.9771 4.13268 58.0022 2.78372 56.9899C2.50269 56.7836 2.39028 56.3712 2.20293 56.0525C2.5589 55.9213 2.89614 55.6775 3.25211 55.6775C4.97578 55.64 6.6807 55.6588 8.40437 55.6588C10.1093 55.64 10.9899 55.0026 11.5145 53.3716C12.0578 51.7031 12.5824 50.0345 13.1632 48.3848C13.2756 48.0848 13.6128 47.8598 13.8377 47.6161C14.0625 47.8786 14.3997 48.1036 14.4934 48.4035C15.0742 50.0533 15.58 51.7218 16.1234 53.3903C16.648 54.9839 17.5285 55.64 19.1585 55.6588C19.9829 55.6588 20.826 55.6588 21.6691 55.6588ZM41.9596 45.7789C41.6411 48.441 38.7371 50.6907 35.627 50.4845C32.6855 50.297 30.0626 47.8973 30.0626 45.3477C31.9549 44.8227 31.6551 43.1917 31.6738 41.5794C34.5966 43.173 37.4069 43.1542 40.2547 41.6169C40.3296 42.4793 40.2359 43.248 40.4795 43.8666C40.7418 44.504 41.3413 44.9915 41.9596 45.7789ZM24.8541 30.4809C23.4864 30.4434 22.2499 28.5874 22.5496 27.0876C22.6995 26.3752 23.2241 26.0378 23.9361 26.1128C24.1422 26.1315 24.5169 26.3377 24.5356 26.4877C24.6855 27.8188 24.7604 29.1311 24.8541 30.4809ZM47.1493 30.5184C47.2617 29.1124 47.3367 27.8188 47.4678 26.5252C47.4866 26.3752 47.6926 26.1503 47.8425 26.1128C48.6107 25.8878 49.3601 26.4127 49.4725 27.2189C49.6786 28.6249 48.7231 30.0685 47.1493 30.5184Z" fill="#0A95FA" fill-opacity="0.16"/>
</svg>
