<svg width="76" height="82" viewBox="0 0 76 82" fill="none" xmlns="http://www.w3.org/2000/svg">
<path d="M4.4 26.8026H2V22.0028C2 18.688 4.685 16.0031 8 16.0031H48.8V13.6032H46.4C45.74 13.6032 45.2 13.0633 45.2 12.4033C45.2 12.0883 45.32 11.7733 45.545 11.5484L52.745 4.34873C53.21 3.88376 53.975 3.88376 54.44 4.34873L61.64 11.5484C62.105 12.0133 62.105 12.7783 61.64 13.2433C61.415 13.4683 61.115 13.5883 60.785 13.5883H58.385V15.9881H63.185C66.5 15.9881 69.185 18.673 69.185 21.9878V45.9866H66.785V22.0028C66.785 20.0229 65.165 18.403 63.185 18.403H58.385V40.0019H55.985V12.4033C55.985 11.7433 56.525 11.2034 57.185 11.2034H57.89L53.6 6.8986L49.295 11.2034H50C50.66 11.2034 51.2 11.7433 51.2 12.4033V41.2018H48.8V18.403H8C6.02 18.403 4.4 20.0229 4.4 22.0028V26.8026ZM8 64.0006H27.98L25.1 73.6001H22.4V76H48.8V73.6001H46.1L44.555 68.4554L42.26 69.1454L43.595 73.6001H27.605L30.485 64.0006H39.2V61.6007H8C6.02 61.6007 4.4 59.9808 4.4 58.0009V56.801H38V54.4011H4.4V29.2024H2V58.0009C2 61.3158 4.685 64.0006 8 64.0006ZM44 43.6017V24.4027H39.2V52.0012H8V49.6014H12.8V40.0019C12.8 39.3419 13.34 38.8019 14 38.8019H21.2C21.86 38.8019 22.4 39.3419 22.4 40.0019V49.6014H24.8V31.6023C24.8 30.9423 25.34 30.4024 26 30.4024H33.2C33.86 30.4024 34.4 30.9423 34.4 31.6023V49.6014H36.8V23.2027C36.8 22.5428 37.34 22.0028 38 22.0028H45.2C45.86 22.0028 46.4 22.5428 46.4 23.2027V43.6017H44ZM20 41.2018H15.2V49.6014H20V41.2018ZM32 32.8022H27.2V49.6014H32V32.8022ZM8 20.8029V23.2027H10.4V20.8029H8ZM15.2 20.8029H12.8V23.2027H15.2V20.8029ZM17.6 20.8029V23.2027H20V20.8029H17.6ZM72.95 69.8503C73.625 70.5253 74 71.4402 74 72.4002C74 74.3801 72.395 76 70.4 76C69.44 75.985 68.54 75.61 67.85 74.9501L62.105 69.2054C55.25 73.2551 46.415 70.9753 42.365 64.1206C38.315 57.266 40.595 48.4314 47.45 44.3816C54.305 40.3319 63.14 42.6117 67.19 49.4664C69.86 53.9811 69.86 59.5909 67.19 64.1056L72.95 69.8503ZM66.8 56.801C66.8 50.1713 61.43 44.8016 54.8 44.8016C48.17 44.8016 42.8 50.1713 42.8 56.801C42.8 63.4307 48.17 68.8004 54.8 68.8004C61.43 68.8004 66.785 63.4307 66.8 56.801ZM71.255 71.5452L65.795 66.1005C65.27 66.7155 64.715 67.2854 64.1 67.7954L69.56 73.2551C70.01 73.7351 70.775 73.7501 71.255 73.3001C71.735 72.8502 71.75 72.0852 71.3 71.6052C71.27 71.5752 71.255 71.5602 71.255 71.5452ZM64.4 56.801C64.4 62.0957 60.095 66.4005 54.8 66.4005C49.505 66.4005 45.2 62.0957 45.2 56.801C45.2 51.5063 49.505 47.2015 54.8 47.2015C60.095 47.2015 64.4 51.5063 64.4 56.801ZM62 56.801C62 52.8262 58.775 49.6014 54.8 49.6014C50.825 49.6014 47.6 52.8262 47.6 56.801C47.6 60.7758 50.825 64.0006 54.8 64.0006C58.775 64.0006 62 60.7758 62 56.801ZM50 56.801H52.4C52.4 55.4811 53.48 54.4011 54.8 54.4011V52.0012C52.145 52.0012 50 54.1461 50 56.801ZM65.6 11.2034H68C68 7.22858 64.775 4.00375 60.8 4.00375V6.40362C63.455 6.40362 65.6 8.54851 65.6 11.2034Z" fill="#0A95FA" fill-opacity="0.16"/>
</svg>
