<svg width="85" height="74" viewBox="0 0 85 74" fill="none" xmlns="http://www.w3.org/2000/svg">
<g clip-path="url(#clip0)">
<path d="M1.24512 71.8411H9.31348V29.0795C9.31348 28.4894 9.87793 28 10.5586 28H23.873C24.5703 28 25.1182 28.4894 25.1182 29.0795V71.8411H34.5977V41.7741C34.5977 41.184 35.1621 40.6946 35.8428 40.6946H49.1572C49.8545 40.6946 50.4023 41.184 50.4023 41.7741V71.8411H59.8818V47.5313C59.8818 46.9412 60.4463 46.4518 61.127 46.4518H74.4414C75.1387 46.4518 75.6865 46.9412 75.6865 47.5313V71.8411H83.7549C84.4521 71.8411 85 72.3304 85 72.9205C85 73.5106 84.4355 74 83.7549 74H1.24512C0.547852 74 0 73.5106 0 72.9205C0 72.316 0.564453 71.8411 1.24512 71.8411ZM62.3721 71.8411H73.1963V48.6252H62.3887L62.3721 71.8411ZM37.0879 71.8411H47.8955V42.8536H37.0879V71.8411ZM11.8037 71.8411H22.6113V30.1589H11.8037V71.8411Z" fill="#005453" fill-opacity="0.16"/>
<path d="M84.0238 33.6066C83.9199 32.5409 83.3794 31.5213 82.5211 30.8012L74.3741 23.8505C72.7584 22.4749 70.4385 22.5383 69.2644 24.0092C68.0797 25.4902 68.4486 27.8349 70.0977 29.2247L70.764 29.7835C52.1282 29.3818 36.479 22.7672 26.4407 17.1417C13.9211 10.1346 6.34549 2.62284 6.27716 2.5503C4.75442 1.01863 2.43796 0.873441 1.11665 2.20931C-0.194063 3.5352 -0.0807406 5.77846 1.37685 7.32587C1.39962 7.35005 1.43378 7.38632 1.45656 7.4105C1.79739 7.7511 9.79512 15.7322 23.3783 23.3802C31.0248 27.6766 38.9442 31.0315 46.925 33.3475C47.5559 33.529 48.1677 33.1808 48.2547 32.5513C48.353 31.9339 47.9238 31.2659 47.2823 31.0944C39.4896 28.8294 31.7598 25.5697 24.3029 21.3685C11.0551 13.9066 3.31923 6.20353 2.98978 5.87501L2.95562 5.83874C2.4318 5.28264 2.38053 4.46395 2.86714 3.98277C3.35376 3.50158 4.18833 3.55963 4.74473 4.10786C4.82444 4.19248 12.5944 11.9318 25.5274 19.1656C36.338 25.25 53.5517 32.4215 74.004 32.1617C75.0219 32.1384 75.3587 30.84 74.5224 30.122L71.4601 27.5079C70.9289 27.0501 70.7595 26.297 71.0686 25.7549C71.4398 25.1086 72.3788 25.0227 73.0117 25.5673L81.1587 32.518C81.7916 33.0626 81.8916 34.0179 81.3512 34.5269L74.5593 40.9246C74.0613 41.3937 73.226 41.3136 72.6908 40.7454C72.1555 40.1772 72.1255 39.3385 72.6235 38.8694L74.6897 36.9232C75.0181 36.6138 75.0871 36.0925 74.8734 35.6322C74.6483 35.1597 74.1544 34.8264 73.6617 34.8341C66.8169 34.8705 59.889 34.118 53.0426 32.5816C52.4019 32.4322 51.825 32.8387 51.7706 33.4603C51.7162 34.082 52.1886 34.7321 52.8179 34.8694C58.7811 36.2112 64.8108 36.9654 70.776 37.1417C69.5199 38.4618 69.6332 40.705 71.068 42.2283C72.5484 43.7999 74.8672 44.0113 76.2341 42.7238L83.0472 36.3061C83.7799 35.6616 84.1278 34.6723 84.0238 33.6066Z" fill="#005453" fill-opacity="0.16"/>
<path d="M51.3234 15.0907C50.9502 15.0907 50.6278 14.9908 50.3733 14.8052C50.1188 14.6196 50 14.377 50 14.063C50 13.749 50.1188 13.492 50.3733 13.2922C50.6278 13.0924 50.9332 12.9924 51.3234 12.9924H55.0053V15.0764H51.3234V15.0907ZM51.3234 18.1167C50.9502 18.1167 50.6278 18.0311 50.3733 17.8598C50.1188 17.6885 50 17.4887 50 17.246C50 16.9891 50.1188 16.775 50.3733 16.618C50.6278 16.461 50.9332 16.3753 51.3234 16.3753H58.8738C59.2641 16.3753 59.5864 16.461 59.8409 16.618C60.0954 16.775 60.2142 16.9891 60.2142 17.246C60.2142 17.4887 60.0954 17.7028 59.8409 17.8598C59.5864 18.0311 59.2641 18.1167 58.8738 18.1167H51.3234ZM54.1909 21C53.8176 21 53.4952 20.8858 53.2407 20.6717C52.9862 20.4576 52.8505 20.1864 52.8505 19.8724V5.12762C52.8505 4.79933 52.9862 4.52813 53.2407 4.31402C53.4952 4.09992 53.8176 4 54.1909 4H59.3659C60.6554 4 61.8091 4.24265 62.8102 4.71369C63.8112 5.19899 64.5917 5.85558 65.1516 6.71201C65.7116 7.55416 66 8.53904 66 9.63812C66 10.6944 65.7116 11.6364 65.1516 12.4643C64.5917 13.2922 63.8112 13.9345 62.8102 14.4055C61.8091 14.8766 60.6554 15.105 59.3659 15.105H55.5313V19.8724C55.5313 20.1864 55.4125 20.4576 55.158 20.6717C54.9035 20.8858 54.5811 21 54.1909 21ZM55.5313 13.0067H59.3659C60.1633 13.0067 60.859 12.864 61.4698 12.5642C62.0806 12.2788 62.5557 11.8791 62.895 11.3652C63.2344 10.8514 63.421 10.2804 63.421 9.62385C63.421 8.92443 63.2513 8.31066 62.895 7.78254C62.5557 7.25441 62.0806 6.84047 61.4698 6.52645C60.859 6.2267 60.1633 6.06969 59.3659 6.06969H55.5313V13.0067Z" fill="#005453" fill-opacity="0.16"/>
</g>
<defs>
<clipPath id="clip0">
<rect width="85" height="74" fill="white"/>
</clipPath>
</defs>
</svg>
