<svg width="70" height="70" viewBox="0 0 70 70" fill="none" xmlns="http://www.w3.org/2000/svg">
<g clip-path="url(#clip0)">
<path d="M53.6891 58.5293C52.4176 59.5136 51.1461 60.457 49.8883 61.3457C49.5875 61.5644 49.4235 61.9199 49.4645 62.289C49.4645 62.33 49.8063 65.8164 49.4645 68.8789C49.3961 69.4394 49.8063 69.9453 50.3668 70.0136C50.4078 70.0136 50.4489 70.0136 50.4762 70.0136C50.9957 70.0136 51.4332 69.6308 51.4879 69.0976C51.775 66.5683 51.6246 63.8613 51.5426 62.6855C52.6637 61.8925 53.7985 61.0312 54.9332 60.1562C55.3844 59.8144 55.4664 59.1582 55.111 58.7207C54.7828 58.2558 54.1403 58.1738 53.6891 58.5293Z" fill="#005453" fill-opacity="0.16"/>
<path d="M70.0009 45.7734C69.2079 32.6621 69.9872 20.3984 70.0009 20.2754C70.0146 19.9883 69.9189 19.7148 69.7275 19.5097C69.536 19.3047 69.2626 19.1816 68.9755 19.1816C65.0107 19.1816 62.7958 20.5215 61.6884 23.6387C60.0614 23.789 58.7353 24.4043 57.7099 25.4844C54.7157 28.6699 55.1259 35.2597 55.4814 41.0703C55.495 41.248 55.5087 41.4121 55.5087 41.5898C54.456 41.4394 53.3759 41.6172 52.2001 42.1094C49.4384 43.2578 46.1982 46.0879 40.8525 50.791C39.7587 51.748 38.6376 52.7324 37.4071 53.8125C37.2157 53.9902 37.0927 54.2226 37.0653 54.4824C37.038 54.7558 36.3954 61.2637 36.9833 69.0429C37.0243 69.5762 37.4755 69.9863 38.0087 69.9863C38.036 69.9863 38.0634 69.9863 38.0907 69.9863C38.6513 69.9453 39.0751 69.4531 39.0341 68.8926C38.5419 62.3711 38.9384 56.6289 39.0751 55.0976C40.1962 54.1269 41.2216 53.2246 42.2196 52.3496C52.2138 43.5722 54.4696 41.7949 58.1064 45.3359C56.6845 46.5937 53.4989 49.3965 49.8896 52.3222C49.4521 52.6777 49.3837 53.3203 49.7392 53.7578C50.0946 54.1953 50.7372 54.2636 51.1747 53.9082C56.0966 49.9297 60.2255 46.1836 60.2665 46.1426C60.4716 45.9648 60.5946 45.7051 60.6083 45.4316C60.622 45.1582 60.5263 44.8984 60.3349 44.6933C59.9931 44.3242 59.665 43.9824 59.3368 43.6816L62.2626 41.0156C62.4814 40.8242 62.5907 40.5508 62.5907 40.2637C62.5907 32.7031 62.5907 27.7129 63.4794 24.7734C64.163 22.4902 65.3661 21.4922 67.8817 21.3008C67.704 24.6094 67.2939 34.7265 67.9228 45.4863C66.87 46.6347 62.9189 50.832 57.4501 55.4804C57.0126 55.8496 56.9716 56.4922 57.3271 56.9297C57.5321 57.1621 57.8192 57.2851 58.1064 57.2851C58.3388 57.2851 58.5712 57.2031 58.7626 57.039C65.2841 51.5156 69.6864 46.5801 69.7275 46.5254C69.9189 46.3203 70.0146 46.0469 70.0009 45.7734ZM60.5536 39.7988L57.6962 42.4101C57.6689 42.3965 57.6552 42.3828 57.6278 42.3691C57.6005 41.9043 57.5732 41.4394 57.5458 40.9609C57.2177 35.5605 56.8349 29.4355 59.2138 26.9062C59.7333 26.3594 60.3622 26.0039 61.1415 25.8125C60.5673 28.9707 60.5536 33.4961 60.5536 39.7988Z" fill="#005453" fill-opacity="0.16"/>
<path d="M32.5935 53.8262C31.363 52.7461 30.2283 51.7617 29.1482 50.8047C27.7947 49.6152 26.5095 48.4941 25.3748 47.5098C24.9509 47.1406 24.2947 47.1953 23.9255 47.6191C23.5564 48.043 23.6111 48.6992 24.0349 49.0684C25.1697 50.0391 26.3865 51.1055 27.7947 52.3359C28.7927 53.2109 29.8181 54.1133 30.9392 55.084C31.0623 56.6152 31.4724 62.3711 30.9802 68.8789C30.9392 69.4395 31.363 69.9316 31.9236 69.9727C31.9509 69.9727 31.9783 69.9727 32.0056 69.9727C32.5388 69.9727 32.99 69.5625 33.031 69.0293C33.6189 61.25 32.9763 54.7422 32.949 54.4687C32.908 54.2363 32.7849 53.9902 32.5935 53.8262Z" fill="#005453" fill-opacity="0.16"/>
<path d="M21.3275 44.2423C18.5521 42.2051 16.4193 41.3165 14.4368 41.6173C14.4505 41.4258 14.4642 41.2344 14.4779 41.043C14.8333 35.2462 15.2435 28.67 12.263 25.4981C11.2513 24.418 9.92512 23.8028 8.29816 23.6524C7.19074 20.5352 4.9759 19.1954 1.01105 19.1954C0.450507 19.1954 -0.0143365 19.6602 -0.0143365 20.2208C-0.0143365 20.2481 -0.0143365 20.2618 -0.0143365 20.2891C0.792304 32.5118 0.792304 32.5118 -0.0143365 45.7872C-0.0280084 46.0606 0.0676947 46.3204 0.245429 46.5255C0.32746 46.6075 8.10676 55.3165 18.429 62.6719C18.347 63.8477 18.1966 66.5684 18.4837 69.084C18.5384 69.6036 18.9896 70.0001 19.4954 70.0001C19.5364 70.0001 19.5775 70.0001 19.6048 70.0001C20.1653 69.9317 20.5755 69.4258 20.5071 68.8653C20.1653 65.8165 20.5071 62.3165 20.5071 62.2755C20.5482 61.9063 20.3841 61.5508 20.0833 61.3321C10.8411 54.8243 3.56769 47.0997 2.07746 45.4727C2.82941 32.9219 2.85676 32.4024 2.11848 21.2872C4.6341 21.4922 5.82355 22.4766 6.50715 24.7598C7.39582 27.6993 7.39582 32.7032 7.39582 40.2501C7.39582 40.5372 7.51887 40.8106 7.72394 41.002L10.6634 43.6817C10.3353 43.9825 10.0071 44.3243 9.66535 44.6934C9.48762 44.8985 9.39191 45.1583 9.39191 45.4317C9.40558 45.7051 9.52863 45.9649 9.73371 46.1426C9.77472 46.1837 13.9173 49.9161 18.8255 53.9083C19.0169 54.0587 19.2493 54.1407 19.4681 54.1407C19.7689 54.1407 20.056 54.0176 20.2611 53.7579C20.6165 53.3204 20.5482 52.6778 20.1107 52.3223C16.5013 49.3966 13.3157 46.6075 11.8939 45.336C13.1107 44.1602 14.1087 43.6407 15.1478 43.6133C16.3919 43.586 17.9232 44.2833 20.1107 45.8966C20.5618 46.2383 21.2044 46.129 21.5462 45.6778C21.8743 45.213 21.7786 44.5704 21.3275 44.2423ZM12.4271 40.9063C12.3997 41.4122 12.3587 41.9044 12.3314 42.3829C12.3177 42.3829 12.304 42.3965 12.304 42.3965L9.4466 39.7852C9.4466 33.4825 9.43293 28.9571 8.85871 25.7852C9.62434 25.963 10.2532 26.3321 10.7728 26.8653C13.1517 29.4083 12.7689 35.5196 12.4271 40.9063Z" fill="#005453" fill-opacity="0.16"/>
<path d="M23.7344 24.2402C23.5293 23.707 22.9414 23.4472 22.4082 23.6523C21.875 23.8574 21.6152 24.4453 21.8203 24.9785C22.8457 27.6172 24.623 29.873 26.9473 31.4863C29.3398 33.1543 32.1426 34.0293 35.0547 34.0293C42.8887 34.0293 49.2461 27.6582 49.2461 19.8379C49.2461 12.0176 42.875 5.64646 35.0547 5.64646C27.2344 5.64646 20.8633 12.0312 20.8633 19.8515C20.8633 20.4121 21.3281 20.8769 21.8887 20.8769C22.4492 20.8769 22.9141 20.4121 22.9141 19.8515C22.9141 13.1523 28.3691 7.71091 35.0547 7.71091C41.7402 7.71091 47.1953 13.1523 47.1953 19.8515C47.1953 26.5508 41.7676 31.9922 35.0684 31.9922C32.5664 31.9922 30.1738 31.2402 28.1367 29.8183C26.127 28.4238 24.6094 26.4961 23.7344 24.2402Z" fill="#005453" fill-opacity="0.16"/>
<path d="M54.9336 19.8516C54.9336 15.6543 53.6348 11.6348 51.1738 8.23047C50.8457 7.76562 50.2031 7.66992 49.7383 7.99805C49.2734 8.32617 49.1777 8.96875 49.5059 9.43359C51.707 12.4824 52.8691 16.0781 52.8691 19.8516C52.8691 29.668 44.8711 37.6523 35.0547 37.6523C25.2383 37.6523 17.2539 29.668 17.2539 19.8516C17.2539 10.0352 25.2383 2.05078 35.0684 2.05078C39.2109 2.05078 43.2578 3.5 46.4434 6.15234C46.8809 6.50781 47.5234 6.45312 47.8926 6.01562C48.248 5.57812 48.1934 4.93555 47.7559 4.56641C44.1875 1.62695 39.6895 0 35.0684 0C24.1172 0 15.2031 8.90039 15.2031 19.8516C15.2031 30.8027 24.1172 39.7031 35.0684 39.7031C46.0195 39.7031 54.9336 30.8027 54.9336 19.8516Z" fill="#005453" fill-opacity="0.16"/>
<path d="M30.3652 21.6562C30.1055 21.6562 29.9004 21.5742 29.7227 21.4238C29.5586 21.2734 29.4629 21.0683 29.4629 20.8222C29.4629 20.5624 29.5449 20.3574 29.7227 20.207C29.8867 20.0429 30.1055 19.9745 30.3652 19.9745H32.8535V21.6562H30.3652ZM30.3652 24.0898C30.1055 24.0898 29.9004 24.0214 29.7227 23.8847C29.5586 23.748 29.4629 23.5839 29.4629 23.3925C29.4629 23.1874 29.5449 23.0097 29.7227 22.8867C29.8867 22.7636 30.1055 22.6952 30.3652 22.6952H35.4785C35.752 22.6952 35.9707 22.7636 36.1348 22.8867C36.2988 23.0097 36.3945 23.1874 36.3945 23.3925C36.3945 23.5976 36.3125 23.7617 36.1348 23.8847C35.9707 24.0214 35.752 24.0898 35.4785 24.0898H30.3652ZM32.3066 26.4003C32.0469 26.4003 31.8281 26.3183 31.6641 26.1406C31.4863 25.9628 31.4043 25.7441 31.4043 25.498V13.6445C31.4043 13.371 31.4863 13.1523 31.6641 12.9882C31.8418 12.8242 32.0605 12.7284 32.3066 12.7284H35.8066C36.6816 12.7284 37.4609 12.9199 38.1309 13.3027C38.8008 13.6855 39.334 14.2187 39.7168 14.9023C40.0996 15.5859 40.291 16.3652 40.291 17.2538C40.291 18.1015 40.0996 18.8671 39.7168 19.5234C39.334 20.1933 38.8145 20.7128 38.1309 21.082C37.4473 21.4511 36.6816 21.6425 35.8066 21.6425H33.2227V25.4706C33.2227 25.7304 33.1406 25.9492 32.9629 26.1132C32.7988 26.3183 32.5801 26.4003 32.3066 26.4003ZM33.2227 19.9882H35.8066C36.3398 19.9882 36.8184 19.8652 37.2285 19.6327C37.6387 19.4003 37.9531 19.0722 38.1855 18.6757C38.418 18.2656 38.541 17.8007 38.541 17.2812C38.541 16.7206 38.418 16.2284 38.1855 15.8046C37.9531 15.3808 37.625 15.039 37.2285 14.7929C36.8184 14.5468 36.3535 14.4238 35.8066 14.4238H33.2227V19.9882Z" fill="#005453" fill-opacity="0.16"/>
</g>
<defs>
<clipPath id="clip0">
<rect width="70" height="70" fill="white"/>
</clipPath>
</defs>
</svg>
