<svg width="85" height="74" viewBox="0 0 85 74" fill="none" xmlns="http://www.w3.org/2000/svg">
<path d="M83.7549 71.8411H75.6865V29.0795C75.6865 28.4894 75.1221 28 74.4414 28H61.127C60.4297 28 59.8818 28.4894 59.8818 29.0795V71.8411H50.4023V41.7741C50.4023 41.184 49.8379 40.6946 49.1572 40.6946H35.8428C35.1455 40.6946 34.5977 41.184 34.5977 41.7741V71.8411H25.1182V47.5313C25.1182 46.9412 24.5537 46.4518 23.873 46.4518H10.5586C9.86133 46.4518 9.31348 46.9412 9.31348 47.5313V71.8411H1.24512C0.547852 71.8411 0 72.3304 0 72.9205C0 73.5106 0.564453 74 1.24512 74H83.7549C84.4521 74 85 73.5106 85 72.9205C85 72.316 84.4355 71.8411 83.7549 71.8411ZM22.6279 71.8411H11.8037V48.6252H22.6113L22.6279 71.8411ZM47.9121 71.8411H37.1045V42.8536H47.9121V71.8411ZM73.1963 71.8411H62.3887V30.1589H73.1963V71.8411Z" fill="#5D2352" fill-opacity="0.16"/>
<path d="M80.703 0.859488C79.856 0.204454 78.7433 -0.101229 77.6305 0.0297781L66.9849 1.19428C64.8757 1.42718 63.3312 3.15938 63.5969 5.02259C63.8626 6.90036 65.8223 8.23954 67.9648 7.99208L68.8284 7.89018C55.758 21.1801 40.213 28.0361 29.2352 31.486C15.5504 35.7946 4.88813 36.1585 4.78848 36.1585C2.62946 36.2168 0.935458 37.8034 1.00189 39.6812C1.06832 41.5444 2.77893 43 4.90473 43C4.93795 43 4.98777 43 5.02099 43C5.50262 42.9854 16.796 42.6361 31.6766 37.9926C40.047 35.3725 47.9191 31.9081 55.0771 27.6868C55.6417 27.352 55.8078 26.6678 55.4092 26.1729C55.0272 25.678 54.2467 25.5324 53.682 25.8818C46.6901 30.0012 39.0173 33.3928 30.8462 35.9402C16.3309 40.4672 5.41958 40.8166 4.95456 40.8311H4.90473C4.14077 40.8311 3.50967 40.3071 3.49307 39.6229C3.47646 38.9388 4.09095 38.3711 4.87152 38.342C4.98777 38.342 15.949 37.9926 30.0822 33.5384C41.9236 29.8411 58.9467 22.2281 72.781 7.16237C73.462 6.40544 72.7478 5.27005 71.6517 5.3865L67.6492 5.82319C66.9517 5.89597 66.2874 5.50295 66.1047 4.90614C65.8888 4.19288 66.47 3.45051 67.3004 3.36317L77.9461 2.19867C78.7765 2.11133 79.5404 2.69358 79.5404 3.43595V12.7665C79.5404 13.4507 78.9093 14.0038 78.1288 14.0038C77.3482 14.0038 76.7171 13.4507 76.7171 12.7665V9.92807C76.7171 9.47682 76.3849 9.06925 75.9033 8.90913C75.4051 8.74901 74.8238 8.88001 74.4916 9.24392C69.8248 14.2513 64.5269 18.7783 58.7142 22.7085C58.1661 23.0724 58.0665 23.7711 58.4817 24.2369C58.8969 24.7027 59.694 24.8046 60.2255 24.4407C65.2909 21.02 69.9743 17.148 74.1927 12.9267C74.2923 14.7462 76.003 16.2018 78.0955 16.2018C80.2546 16.2018 81.9984 14.6589 81.9984 12.7811V3.4214C82.0316 2.44613 81.55 1.51452 80.703 0.859488Z" fill="#5D2352" fill-opacity="0.16"/>
<path d="M10.3234 20.0907C9.95016 20.0907 9.62778 19.9908 9.37328 19.8052C9.11877 19.6196 9 19.377 9 19.063C9 18.749 9.11877 18.492 9.37328 18.2922C9.62778 18.0924 9.93319 17.9924 10.3234 17.9924H14.0053V20.0764H10.3234V20.0907ZM10.3234 23.1167C9.95016 23.1167 9.62778 23.0311 9.37328 22.8598C9.11877 22.6885 9 22.4887 9 22.246C9 21.9891 9.11877 21.775 9.37328 21.618C9.62778 21.461 9.93319 21.3753 10.3234 21.3753H17.8738C18.2641 21.3753 18.5864 21.461 18.8409 21.618C19.0954 21.775 19.2142 21.9891 19.2142 22.246C19.2142 22.4887 19.0954 22.7028 18.8409 22.8598C18.5864 23.0311 18.2641 23.1167 17.8738 23.1167H10.3234ZM13.1909 26C12.8176 26 12.4952 25.8858 12.2407 25.6717C11.9862 25.4576 11.8505 25.1864 11.8505 24.8724V10.1276C11.8505 9.79933 11.9862 9.52813 12.2407 9.31402C12.4952 9.09992 12.8176 9 13.1909 9H18.3659C19.6554 9 20.8091 9.24265 21.8102 9.71369C22.8112 10.199 23.5917 10.8556 24.1516 11.712C24.7116 12.5542 25 13.539 25 14.6381C25 15.6944 24.7116 16.6364 24.1516 17.4643C23.5917 18.2922 22.8112 18.9345 21.8102 19.4055C20.8091 19.8766 19.6554 20.105 18.3659 20.105H14.5313V24.8724C14.5313 25.1864 14.4125 25.4576 14.158 25.6717C13.9035 25.8858 13.5811 26 13.1909 26ZM14.5313 18.0067H18.3659C19.1633 18.0067 19.859 17.864 20.4698 17.5642C21.0806 17.2788 21.5557 16.8791 21.895 16.3652C22.2344 15.8514 22.421 15.2804 22.421 14.6238C22.421 13.9244 22.2513 13.3107 21.895 12.7825C21.5557 12.2544 21.0806 11.8405 20.4698 11.5264C19.859 11.2267 19.1633 11.0697 18.3659 11.0697H14.5313V18.0067Z" fill="#5D2352" fill-opacity="0.16"/>
</svg>
