<svg width="70" height="70" viewBox="0 0 70 70" fill="none" xmlns="http://www.w3.org/2000/svg">
<path d="M53.3218 58.226C52.0234 59.2352 50.7249 60.2023 49.4404 61.1134C49.1333 61.3377 48.9657 61.7021 49.0076 62.0806C49.0076 62.1226 49.3567 65.6969 49.0076 68.8366C48.9378 69.4113 49.3567 69.9299 49.9291 70C49.971 70 50.0129 70 50.0408 70C50.5713 70 51.0181 69.6075 51.074 69.0609C51.3672 66.4678 51.2136 63.6925 51.1298 62.4871C52.2747 61.6741 53.4335 60.791 54.5924 59.894C55.0531 59.5436 55.1369 58.8708 54.7739 58.4222C54.4388 57.9457 53.7826 57.8616 53.3218 58.226Z" fill="#AF5BA0" fill-opacity="0.16"/>
<path d="M69.9987 45.694C69.2121 32.5323 69.9852 20.2215 69.9987 20.098C70.0123 19.8097 69.9174 19.5353 69.7275 19.3294C69.5376 19.1235 69.2663 19 68.9815 19C65.0484 19 62.8512 20.345 61.7527 23.4742C60.1387 23.6251 58.8231 24.2427 57.8059 25.327C54.8357 28.5248 55.2426 35.1399 55.5952 40.9728C55.6088 41.1512 55.6224 41.3159 55.6224 41.4944C54.578 41.3434 53.5066 41.5218 52.3402 42.0159C49.6006 43.1687 46.3862 46.0097 41.0832 50.7309C39.9982 51.6916 38.8861 52.6798 37.6655 53.764C37.4756 53.9424 37.3535 54.1757 37.3264 54.4365C37.2993 54.711 36.6618 61.2438 37.245 69.053C37.2857 69.5883 37.7333 70 38.2622 70C38.2893 70 38.3165 70 38.3436 70C38.8997 69.9588 39.3201 69.4647 39.2794 68.902C38.7912 62.3555 39.1845 56.5912 39.3201 55.0541C40.4322 54.0797 41.4494 53.1738 42.4395 52.2955C52.3538 43.4844 54.5916 41.7002 58.1993 45.2548C56.7887 46.5175 53.6287 49.331 50.0481 52.268C49.6141 52.6249 49.5463 53.2699 49.8989 53.7091C50.2516 54.1483 50.889 54.2169 51.323 53.8601C56.2055 49.8663 60.3015 46.1058 60.3421 46.0646C60.5456 45.8862 60.6676 45.6254 60.6812 45.3509C60.6948 45.0764 60.5998 44.8157 60.41 44.6098C60.0709 44.2392 59.7454 43.8961 59.4199 43.5942L62.3223 40.9179C62.5393 40.7258 62.6478 40.4513 62.6478 40.1631C62.6478 32.5735 62.6478 27.564 63.5294 24.6133C64.2075 22.3213 65.401 21.3194 67.8965 21.1273C67.7202 24.4486 67.3133 34.6047 67.9372 45.4058C66.8929 46.5587 62.9733 50.7721 57.5482 55.4384C57.1142 55.8089 57.0736 56.454 57.4262 56.8932C57.6296 57.1265 57.9144 57.25 58.1993 57.25C58.4298 57.25 58.6604 57.1677 58.8503 57.003C65.3196 51.4583 69.6868 46.5038 69.7275 46.4489C69.9174 46.243 70.0123 45.9685 69.9987 45.694ZM60.627 39.6964L57.7924 42.3178C57.7652 42.3041 57.7517 42.2904 57.7246 42.2766C57.6974 41.81 57.6703 41.3434 57.6432 40.863C57.3177 35.4419 56.9379 29.2933 59.2978 26.7543C59.8132 26.2053 60.4371 25.8485 61.2102 25.6564C60.6405 28.8267 60.627 33.3695 60.627 39.6964Z" fill="#AF5BA0" fill-opacity="0.16"/>
<path d="M33.2869 53.6464C32.0049 52.5525 30.8226 51.5555 29.6974 50.5862C28.2872 49.3815 26.9483 48.246 25.766 47.249C25.3244 46.8751 24.6407 46.9305 24.2561 47.3598C23.8715 47.789 23.9285 48.4537 24.3701 48.8276C25.5523 49.8107 26.8201 50.8908 28.2872 52.1371C29.327 53.0233 30.3953 53.9372 31.5633 54.9204C31.6915 56.4713 32.1189 62.3009 31.6061 68.8922C31.5633 69.46 32.0049 69.9585 32.5889 70C32.6174 70 32.6459 70 32.6744 70C33.2299 70 33.6999 69.5846 33.7427 69.0445C34.3552 61.1655 33.6857 54.5742 33.6572 54.2972C33.6145 54.0618 33.4863 53.8126 33.2869 53.6464Z" fill="#AF5BA0" fill-opacity="0.16"/>
<path d="M21.5819 44.1432C18.7755 42.0982 16.6188 41.2061 14.6142 41.5081C14.628 41.3159 14.6418 41.1238 14.6557 40.9316C15.0151 35.1125 15.4299 28.511 12.416 25.327C11.393 24.2427 10.052 23.6251 8.40683 23.4742C7.28701 20.345 5.04738 19 1.03817 19C0.471349 19 0.00130291 19.4666 0.00130291 20.0293C0.00130291 20.0568 0.00130291 20.0705 0.00130291 20.098C0.816971 32.3676 0.816971 32.3676 0.00130291 45.694C-0.012522 45.9685 0.0842522 46.2293 0.263976 46.4351C0.346925 46.5175 8.21328 55.26 18.6511 62.6437C18.5681 63.824 18.416 66.5552 18.7064 69.0805C18.7617 69.602 19.2179 70 19.7294 70C19.7709 70 19.8124 70 19.84 70C20.4068 69.9314 20.8216 69.4236 20.7524 68.8609C20.4068 65.8003 20.7524 62.2869 20.7524 62.2457C20.7939 61.8751 20.628 61.5183 20.3239 61.2987C10.9783 54.7659 3.62342 47.0116 2.11651 45.3784C2.87688 32.7793 2.90453 32.2578 2.15798 21.0998C4.70176 21.3057 5.90453 22.2939 6.59577 24.5858C7.49439 27.5366 7.49439 32.5597 7.49439 40.1356C7.49439 40.4238 7.61881 40.6983 7.82618 40.8905L10.7985 43.5805C10.4667 43.8824 10.1349 44.2255 9.78932 44.5961C9.60959 44.8019 9.51282 45.0627 9.51282 45.3372C9.52664 45.6117 9.65107 45.8724 9.85844 46.0509C9.89991 46.092 14.0889 49.8388 19.052 53.8463C19.2455 53.9973 19.4806 54.0797 19.7018 54.0797C20.0059 54.0797 20.2962 53.9561 20.5036 53.6954C20.863 53.2562 20.7939 52.6111 20.3515 52.2543C16.7018 49.3173 13.4806 46.5175 12.0428 45.2411C13.2732 44.0608 14.2824 43.5393 15.3331 43.5118C16.5912 43.4844 18.1395 44.1843 20.3515 45.8038C20.8077 46.1469 21.4575 46.0371 21.8031 45.5842C22.1349 45.1176 22.0382 44.4726 21.5819 44.1432ZM12.5819 40.7944C12.5543 41.3022 12.5128 41.7963 12.4852 42.2766C12.4713 42.2766 12.4575 42.2904 12.4575 42.2904L9.56812 39.669C9.56812 33.342 9.55429 28.7992 8.97365 25.6152C9.74784 25.7936 10.3838 26.1642 10.9091 26.6994C13.3147 29.2522 12.9276 35.387 12.5819 40.7944Z" fill="#AF5BA0" fill-opacity="0.16"/>
<path d="M23.8324 24.343C23.6301 23.817 23.0501 23.5607 22.5241 23.763C21.9981 23.9653 21.7418 24.5453 21.9441 25.0713C22.9557 27.6744 24.7091 29.8998 27.0019 31.4913C29.3622 33.1368 32.1272 34 35 34C42.7283 34 49 27.7148 49 20C49 12.2852 42.7148 6 35 6C27.2852 6 21 12.2987 21 20.0135C21 20.5665 21.4586 21.025 22.0116 21.025C22.5645 21.025 23.0231 20.5665 23.0231 20.0135C23.0231 13.4046 28.4046 8.03661 35 8.03661C41.5954 8.03661 46.9769 13.4046 46.9769 20.0135C46.9769 26.6224 41.6224 31.9904 35.0135 31.9904C32.5453 31.9904 30.185 31.2486 28.1753 29.8459C26.1927 28.4701 24.6956 26.5684 23.8324 24.343Z" fill="#AF5BA0" fill-opacity="0.16"/>
<path d="M55 20C55 15.7713 53.6924 11.7218 51.2147 8.29201C50.8844 7.82369 50.2374 7.72727 49.7694 8.05785C49.3014 8.38843 49.2051 9.03581 49.5354 9.50413C51.7516 12.5758 52.9215 16.1983 52.9215 20C52.9215 29.8898 44.8692 37.9339 34.9862 37.9339C25.1032 37.9339 17.0647 29.8898 17.0647 20C17.0647 10.1102 25.1032 2.06612 35 2.06612C39.1707 2.06612 43.245 3.52617 46.4522 6.19835C46.8926 6.55647 47.5396 6.50138 47.9112 6.06061C48.2691 5.61983 48.214 4.97245 47.7736 4.60055C44.181 1.63912 39.6524 0 35 0C23.9745 0 15 8.96694 15 20C15 31.0331 23.9745 40 35 40C46.0255 40 55 31.0331 55 20Z" fill="#AF5BA0" fill-opacity="0.16"/>
<path d="M29.9167 22.142C29.6528 22.142 29.4444 22.058 29.2639 21.904C29.0972 21.75 29 21.54 29 21.288C29 21.022 29.0833 20.812 29.2639 20.658C29.4306 20.49 29.6528 20.42 29.9167 20.42H32.4444V22.142H29.9167ZM29.9167 24.634C29.6528 24.634 29.4444 24.564 29.2639 24.424C29.0972 24.284 29 24.116 29 23.92C29 23.71 29.0833 23.528 29.2639 23.402C29.4306 23.276 29.6528 23.206 29.9167 23.206H35.1111C35.3889 23.206 35.6111 23.276 35.7778 23.402C35.9444 23.528 36.0417 23.71 36.0417 23.92C36.0417 24.13 35.9583 24.298 35.7778 24.424C35.6111 24.564 35.3889 24.634 35.1111 24.634H29.9167ZM31.8889 27C31.625 27 31.4028 26.916 31.2361 26.734C31.0556 26.552 30.9722 26.328 30.9722 26.076V13.938C30.9722 13.658 31.0556 13.434 31.2361 13.266C31.4167 13.098 31.6389 13 31.8889 13H35.4444C36.3333 13 37.125 13.196 37.8056 13.588C38.4861 13.98 39.0278 14.526 39.4167 15.226C39.8056 15.926 40 16.724 40 17.634C40 18.502 39.8056 19.286 39.4167 19.958C39.0278 20.644 38.5 21.176 37.8056 21.554C37.1111 21.932 36.3333 22.128 35.4444 22.128H32.8194V26.048C32.8194 26.314 32.7361 26.538 32.5556 26.706C32.3889 26.916 32.1667 27 31.8889 27ZM32.8194 20.434H35.4444C35.9861 20.434 36.4722 20.308 36.8889 20.07C37.3056 19.832 37.625 19.496 37.8611 19.09C38.0972 18.67 38.2222 18.194 38.2222 17.662C38.2222 17.088 38.0972 16.584 37.8611 16.15C37.625 15.716 37.2917 15.366 36.8889 15.114C36.4722 14.862 36 14.736 35.4444 14.736H32.8194V20.434Z" fill="#AF5BA0" fill-opacity="0.16"/>
</svg>
