<svg width="58" height="76" viewBox="0 0 58 76" fill="none" xmlns="http://www.w3.org/2000/svg">
<path d="M57.6839 74.03L44.6561 61.0071C39.0535 53.8833 48.4061 49.5971 41.4589 34.5132C40.2487 31.0484 38.6502 26.5381 38.6352 26.5082C37.7537 23.9843 36.0655 21.8039 33.8544 20.2955V6.88422C33.8544 3.64342 31.3594 1 28.2966 1H5.55773C2.495 1 0 3.64342 0 6.88422V15.3223C0 15.9495 0.507965 16.4573 1.13545 16.4573C1.76294 16.4573 2.2709 15.9495 2.2709 15.3223V11.6334H31.5835V47.8497L26.3694 44.594V38.3364C26.3694 34.6327 24.218 31.4217 21.1104 29.8835C22.7688 28.7484 23.9341 26.9712 24.2479 24.9102H28.0576C28.6851 24.9102 29.193 24.4025 29.193 23.7752C29.193 23.148 28.6851 22.6402 28.0576 22.6402H24.2479C23.6951 19.1007 20.6323 16.3677 16.9272 16.3677C13.222 16.3677 10.1593 19.0858 9.60651 22.6402H5.79678C5.16929 22.6402 4.66132 23.148 4.66132 23.7752C4.66132 24.4025 5.16929 24.9102 5.79678 24.9102H9.60651C9.92026 26.9712 11.1005 28.7484 12.7439 29.8835C9.63639 31.4217 7.48501 34.6327 7.48501 38.3364V50.0003H2.25596V21.55C2.25596 20.9227 1.748 20.4149 1.12051 20.4149C0.493025 20.4149 0 20.9227 0 21.55V54.9735C0 58.2143 2.495 60.8578 5.55773 60.8578H9.92026C10.9959 63.1278 12.8336 64.92 15.1493 65.9654C22.4849 69.0568 23.471 71.6853 28.3415 75.6878C28.5207 76.1806 32.3454 75.9267 32.7189 75.9865C33.3464 75.9865 33.8544 75.4787 33.8544 74.8514C33.8544 74.2242 33.3464 73.7164 32.7189 73.7164H29.5367L22.47 67.3543C22.7987 66.7868 13.8495 63.6505 12.5049 60.8578C12.5049 60.8578 28.6552 60.8428 28.8195 60.8279L31.2548 63.0681C32.3305 64.0538 33.8693 62.396 32.7936 61.3954L29.955 58.7818L17.4053 47.1628C16.4939 46.2368 16.5238 44.7434 17.4202 43.8473C18.3614 42.9064 19.5716 43.0557 20.6174 43.7129L31.942 50.762C32.6592 51.4191 33.8544 50.9113 33.8544 49.9257V23.2077C35.0346 24.3278 35.946 25.7167 36.4838 27.2699C37.44 30.2718 41.3394 40.1435 41.6382 43.0707C43.1471 51.5685 37.3205 56.8553 43.0276 62.62L54.1281 73.7015H38.0974C37.4699 73.7015 36.9619 74.2093 36.9619 74.8365C36.9619 75.4638 37.4699 75.9715 38.0974 75.9715H56.8771C57.8632 75.9715 58.3711 74.732 57.6839 74.03ZM2.2709 9.36336V6.88422C2.2709 4.89792 3.73504 3.27005 5.55773 3.27005H28.3116C30.1193 3.27005 31.5984 4.88299 31.5984 6.86929V9.34842H2.2709V9.36336ZM16.9272 18.6377C19.3624 18.6377 21.4092 20.3552 21.9321 22.6402H11.9222C12.4451 20.3552 14.4919 18.6377 16.9272 18.6377ZM21.9321 24.9102C21.4092 27.1952 19.3624 28.9127 16.9272 28.9127C14.4919 28.9127 12.4451 27.1952 11.9222 24.9102H21.9321ZM5.55773 58.5728C3.74998 58.5728 2.2709 56.9598 2.2709 54.9586V52.2704H19.5865L26.3992 58.5578H5.55773V58.5728ZM19.0786 40.8753C16.6134 40.8753 14.5069 42.9363 14.4471 45.3855C14.3874 47.4913 15.732 48.716 17.1363 50.0153H9.77085V38.3514C9.77085 34.4086 12.983 31.1828 16.9421 31.1828C20.8863 31.1828 24.1134 34.3937 24.1134 38.3514V43.2051C22.5746 42.2493 20.961 40.8753 19.0786 40.8753Z" fill="#5D2352" fill-opacity="0.16"/>
<path d="M14.1386 55C13.5094 55 13 55.4474 13 56C13 56.5526 13.5094 57 14.1386 57H19.8614C20.4906 57 21 56.5526 21 56C21 55.4474 20.4906 55 19.8614 55H14.1386Z" fill="#5D2352" fill-opacity="0.16"/>
<path d="M18.9271 6H15.0729C14.48 6 14 6.44737 14 7C14 7.55263 14.48 8 15.0729 8H18.9271C19.52 8 20 7.55263 20 7C20 6.44737 19.5059 6 18.9271 6Z" fill="#5D2352" fill-opacity="0.16"/>
<path d="M25 6C24.4444 6 24 6.44444 24 7C24 7.55556 24.4444 8 25 8C25.5556 8 26 7.55556 26 7C26 6.44444 25.5432 6 25 6Z" fill="#5D2352" fill-opacity="0.16"/>
<path d="M38.1046 4C38.3956 4 38.672 3.88489 38.8903 3.66907L40.6798 1.87055C41.1163 1.43891 41.1018 0.748275 40.6653 0.31663C40.2288 -0.115015 39.5304 -0.100627 39.0939 0.331018L37.3044 2.12954C36.6351 2.80578 37.1443 4 38.1046 4Z" fill="#5D2352" fill-opacity="0.16"/>
<path d="M39.1122 13.6711C40.113 14.6803 41.6795 13.1376 40.6787 12.1284L38.8946 10.3262C38.4595 9.89369 37.7633 9.89369 37.3282 10.3118C36.8931 10.7443 36.8931 11.4364 37.3137 11.8689L39.1122 13.6711Z" fill="#5D2352" fill-opacity="0.16"/>
<path d="M39 7C39 7.55263 39.5167 8 40.155 8H42.845C43.4833 8 44 7.55263 44 7C44 6.44737 43.4833 6 42.845 6H40.155C39.5167 6 39 6.44737 39 7Z" fill="#5D2352" fill-opacity="0.16"/>
</svg>
