<svg width="36" height="40" viewBox="0 0 36 40" fill="none" xmlns="http://www.w3.org/2000/svg">
<g clip-path="url(#clip0)">
<path d="M35.7547 15.2997L18.4413 0.168918C18.4413 0.168918 18.4336 0.168918 18.4336 0.160929C18.426 0.15294 18.4106 0.144952 18.3953 0.136963C18.3876 0.128974 18.3799 0.128974 18.3723 0.120985C18.3646 0.112996 18.3493 0.105007 18.3339 0.0970187C18.3262 0.0890298 18.3186 0.0890298 18.3109 0.081041C18.3032 0.0730522 18.2879 0.0730522 18.2802 0.0650634C18.2725 0.0570746 18.2572 0.0570746 18.2495 0.0490858C18.2419 0.041097 18.2265 0.041097 18.2188 0.041097C18.2112 0.0331081 18.1958 0.0331081 18.1882 0.0251193C18.1805 0.0251193 18.1728 0.0171305 18.1575 0.0171305C18.1421 0.0171305 18.1345 0.00914169 18.1191 0.00914169C18.1115 0.00914169 18.0961 0.00914169 18.0884 0.00115288C18.0731 0.00115288 18.0654 0.00115288 18.0501 -0.00683594C18.0424 -0.00683594 18.0271 -0.00683594 18.0194 -0.00683594C18.0117 -0.00683594 17.9964 -0.00683594 17.9887 -0.00683594C17.9734 -0.00683594 17.9657 -0.00683594 17.9504 -0.00683594C17.9427 -0.00683594 17.935 -0.00683594 17.9197 -0.00683594C17.9043 -0.00683594 17.889 -0.00683594 17.8813 0.00115288C17.8736 0.00115288 17.866 0.00115288 17.8583 0.00115288C17.843 0.00115288 17.8276 0.00914169 17.82 0.00914169C17.8123 0.00914169 17.8046 0.00914169 17.7969 0.0171305C17.7816 0.0171305 17.7739 0.0251193 17.7586 0.0331081C17.7509 0.0331081 17.7432 0.041097 17.7356 0.041097C17.7279 0.0490858 17.7126 0.0490858 17.7049 0.0570746C17.6972 0.0650634 17.6819 0.0650634 17.6742 0.0730522C17.6665 0.081041 17.6589 0.081041 17.6435 0.0890298C17.6358 0.0970187 17.6205 0.105007 17.6128 0.112996C17.6052 0.120985 17.5975 0.120985 17.5898 0.128974C17.5822 0.136963 17.5668 0.144952 17.5591 0.15294C17.5591 0.15294 17.5515 0.15294 17.5515 0.160929L0.24569 15.2997C-0.0458077 15.5554 -0.0841627 16.0107 0.161309 16.3143C0.299387 16.4821 0.491162 16.57 0.690608 16.57C0.844028 16.57 1.00512 16.514 1.13553 16.4022L18.0041 1.65484L34.8726 16.4022C35.003 16.514 35.1564 16.57 35.3175 16.57C35.5169 16.57 35.7087 16.4821 35.8468 16.3143C36.0846 16.0107 36.0462 15.5554 35.7547 15.2997Z" fill="#005453"/>
<path d="M31.8885 16.6484L18.3646 4.82492C18.3646 4.82492 18.3569 4.82492 18.3569 4.81693C18.3492 4.80895 18.3339 4.80096 18.3262 4.79297C18.3185 4.78498 18.3109 4.78498 18.3032 4.77699C18.2955 4.769 18.2802 4.76101 18.2725 4.75302C18.2649 4.74504 18.2572 4.74504 18.2495 4.73705C18.2418 4.72906 18.2265 4.72906 18.2188 4.72107C18.2112 4.71308 18.1958 4.71308 18.1881 4.70509C18.1805 4.70509 18.1728 4.6971 18.1575 4.6971C18.1421 4.68911 18.1344 4.68911 18.1191 4.68112C18.1114 4.68112 18.1038 4.67314 18.0961 4.67314C18.0807 4.67314 18.0731 4.66515 18.0577 4.66515C18.0501 4.66515 18.0424 4.66515 18.027 4.65716C18.0117 4.65716 18.004 4.64917 17.9887 4.64917C17.981 4.64917 17.9657 4.64917 17.958 4.64917C17.9427 4.64917 17.935 4.64917 17.9197 4.64917C17.9043 4.64917 17.8966 4.64917 17.8813 4.64917C17.8736 4.64917 17.8583 4.64917 17.8506 4.64917C17.8353 4.64917 17.8276 4.64917 17.8123 4.65716C17.8046 4.65716 17.7969 4.65716 17.7816 4.66515C17.7662 4.66515 17.7586 4.67314 17.7432 4.67314C17.7356 4.67314 17.7279 4.68112 17.7202 4.68112C17.7049 4.68112 17.6972 4.68911 17.6819 4.6971C17.6742 4.6971 17.6665 4.70509 17.6512 4.70509C17.6435 4.71308 17.6282 4.71308 17.6205 4.72107C17.6128 4.72906 17.5975 4.72906 17.5898 4.73705C17.5821 4.74504 17.5745 4.74504 17.5668 4.75302C17.5591 4.76101 17.5438 4.769 17.5361 4.77699C17.5284 4.78498 17.5208 4.78498 17.5131 4.79297C17.5054 4.80096 17.4901 4.80895 17.4824 4.81693C17.4824 4.81693 17.4747 4.81694 17.4747 4.82492L3.95077 16.6484C3.65927 16.904 3.62092 17.3594 3.86639 17.6629C4.00447 17.8307 4.19624 17.9186 4.39569 17.9186C4.54911 17.9186 4.7102 17.8627 4.8406 17.7508L5.79948 16.912V32.1706C5.79948 32.5701 6.10632 32.8896 6.48987 32.8896H10.4634V39.2807C10.4634 39.6801 10.7703 39.9997 11.1538 39.9997H24.6778C25.0614 39.9997 25.3682 39.6801 25.3682 39.2807V32.8896H29.5029C29.8864 32.8896 30.1933 32.5701 30.1933 32.1706V17.0478L30.9987 17.7508C31.1291 17.8627 31.2825 17.9186 31.4436 17.9186C31.6431 17.9186 31.8348 17.8307 31.9729 17.6629C32.2184 17.3594 32.18 16.904 31.8885 16.6484ZM23.9951 38.5617H11.8519V19.8119L17.9273 14.9068L24.0028 19.8119V38.5617H23.9951ZM28.8201 31.4516H25.3759V19.4604C25.3759 19.2367 25.2761 19.029 25.1074 18.8932L18.3416 13.4209C18.0961 13.2212 17.7432 13.2212 17.4978 13.4209L10.7319 18.8852C10.5632 19.021 10.4634 19.2288 10.4634 19.4524V31.4437H7.18793V15.7057L17.9273 6.31883L28.8201 15.8415V31.4516Z" fill="#005453"/>
<path d="M19.124 26.9061C18.7865 26.7144 18.426 26.5626 18.0654 26.4108C17.8583 26.3229 17.6589 26.2191 17.4824 26.0753C17.1372 25.7877 17.2063 25.3243 17.6052 25.1406C17.7202 25.0847 17.843 25.0687 17.958 25.0607C18.426 25.0367 18.8709 25.1246 19.2928 25.3403C19.5076 25.4442 19.5766 25.4122 19.6457 25.1805C19.7224 24.9409 19.7837 24.6932 19.8528 24.4456C19.8988 24.2778 19.8451 24.1739 19.6917 24.1021C19.4232 23.9742 19.1394 23.8864 18.8479 23.8384C18.4643 23.7745 18.4643 23.7745 18.4643 23.3751C18.4643 22.8079 18.4643 22.8079 17.9197 22.8079C17.843 22.8079 17.7586 22.8079 17.6819 22.8079C17.4287 22.8159 17.3827 22.8638 17.375 23.1274C17.375 23.2472 17.375 23.3671 17.375 23.4869C17.375 23.8384 17.375 23.8384 17.0452 23.9583C16.2551 24.2538 15.7718 24.8131 15.7181 25.7078C15.6721 26.4987 16.071 27.0339 16.6923 27.4254C17.0759 27.6651 17.5054 27.8089 17.912 27.9926C18.0731 28.0645 18.2265 28.1524 18.3569 28.2642C18.7481 28.5998 18.6791 29.159 18.2112 29.3747C17.9657 29.4865 17.6972 29.5185 17.4287 29.4785C17.0145 29.4226 16.6156 29.3108 16.2397 29.111C16.0173 28.9912 15.9559 29.0232 15.8792 29.2708C15.8178 29.4865 15.7564 29.7022 15.7028 29.9179C15.626 30.2055 15.6567 30.2774 15.9175 30.4132C16.2551 30.581 16.6233 30.6689 16.9915 30.7328C17.283 30.7807 17.2907 30.7967 17.2907 31.1082C17.2907 31.252 17.2907 31.3958 17.2907 31.5316C17.2907 31.7074 17.375 31.8113 17.5515 31.8192C17.7509 31.8192 17.9504 31.8192 18.1575 31.8192C18.3186 31.8192 18.4029 31.7234 18.4029 31.5476C18.4029 31.3559 18.4106 31.1562 18.4029 30.9644C18.3953 30.7647 18.4797 30.6689 18.6561 30.6129C19.078 30.4931 19.4309 30.2614 19.707 29.9099C20.4971 28.9433 20.2056 27.5293 19.124 26.9061Z" fill="#005453"/>
</g>
<defs>
<clipPath id="clip0">
<rect width="36" height="40" fill="white"/>
</clipPath>
</defs>
</svg>
