<svg width="86" height="84" viewBox="0 0 86 84" fill="none" xmlns="http://www.w3.org/2000/svg">
<path d="M80.4225 48.6937C80.2485 47.9555 79.6157 47.4305 78.8881 47.4305C76.7367 47.4305 72.8769 46.3148 69.6025 44.8383V37.7344C69.6025 35.0273 67.4669 32.8125 64.8568 32.8125H61.6931V3.28125C61.6931 1.47656 60.2694 0 58.5293 0H11.0731C9.33306 0 7.90937 1.47656 7.90937 3.28125V22.9688H3.16375C1.42369 22.9688 0 24.4453 0 26.25V73.8281C0 76.5352 2.13553 78.75 4.74562 78.75H56.1249C57.9915 80.5383 60.1903 82.2281 62.8004 83.7867C63.0377 83.9344 63.3066 84 63.5913 84C63.8603 84 64.1292 83.9344 64.3823 83.7867C75.3288 77.3063 79.1253 68.1188 80.375 61.5563C81.7196 54.4523 80.4857 48.9398 80.4225 48.6937ZM11.0731 3.28125H58.5293V32.8125H31.1313L28.4737 25.9383C27.7777 24.1336 26.1642 22.9688 24.3767 22.9688H11.0731V3.28125ZM3.16375 73.8281V72.1875H11.3895C12.2595 72.1875 12.9714 71.4492 12.9714 70.5469C12.9714 69.6445 12.2595 68.9062 11.3895 68.9062H3.16375V26.25H24.3767C24.9303 26.25 25.3574 26.7094 25.5314 27.1523L28.5845 35.0602C28.8217 35.6836 29.407 36.0938 30.0556 36.0938H64.8568C65.7269 36.0938 66.4387 36.832 66.4387 37.7344V43.1813C65.7427 42.7383 65.1416 42.2789 64.6986 41.8195C64.0817 41.1797 63.0851 41.1797 62.4682 41.8195C59.8739 44.4773 51.7906 47.4469 48.2788 47.4469C47.5511 47.4469 46.9026 47.9719 46.7444 48.7102C46.6969 48.9398 45.4631 54.4688 46.8077 61.5727C47.5828 65.625 49.3228 70.6781 53.1193 75.4852H4.74562C3.87559 75.4688 3.16375 74.7305 3.16375 73.8281ZM77.2587 60.9164C75.6769 69.2016 71.0894 75.7641 63.5913 80.4562C56.1407 75.7969 51.5533 69.2672 49.9556 61.0477C49.0539 56.4375 49.3861 52.5164 49.6392 50.6297C53.7204 50.1539 60.1587 47.7586 63.5913 45.1172C67.024 47.7586 73.4622 50.1539 77.5435 50.6297C77.8124 52.4836 78.1288 56.3555 77.2587 60.9164Z" fill="#005453" fill-opacity="0.16"/>
<path d="M16.5789 10H52.4211C53.2895 10 54 9.325 54 8.5C54 7.675 53.2895 7 52.4211 7H16.5789C15.7105 7 15 7.675 15 8.5C15 9.325 15.7105 10 16.5789 10Z" fill="#005453" fill-opacity="0.16"/>
<path d="M54 14.5C54 13.675 53.2895 13 52.4211 13H16.5789C15.7105 13 15 13.675 15 14.5C15 15.325 15.7105 16 16.5789 16H52.4211C53.2895 16 54 15.325 54 14.5Z" fill="#005453" fill-opacity="0.16"/>
<path d="M52.427 20H34.573C33.7079 20 33 20.675 33 21.5C33 22.325 33.7079 23 34.573 23H52.427C53.2921 23 54 22.325 54 21.5C54 20.675 53.2921 20 52.427 20Z" fill="#005453" fill-opacity="0.16"/>
<path d="M52.481 26H43.519C42.6835 26 42 26.675 42 27.5C42 28.325 42.6835 29 43.519 29H52.481C53.3165 29 54 28.325 54 27.5C54 26.675 53.3165 26 52.481 26Z" fill="#005453" fill-opacity="0.16"/>
<path d="M69.326 54C68.0785 54 66.909 54.5129 66.0202 55.4559L61.7165 60.0221L60.9837 59.2445C60.0949 58.3015 58.9254 57.7886 57.6779 57.7886C56.4305 57.7886 55.261 58.3015 54.3722 59.2445C53.4834 60.1875 53 61.4283 53 62.7518C53 64.0754 53.4834 65.3162 54.3722 66.2592L58.4108 70.5441C59.3152 71.5037 60.5159 72 61.7165 72C62.9172 72 64.1179 71.5202 65.0223 70.5441L72.6317 62.4706C74.4561 60.5349 74.4561 57.3915 72.6317 55.4559C71.7585 54.5129 70.589 54 69.326 54ZM70.4331 60.1379L62.8237 68.2114C62.2155 68.8566 61.2332 68.8566 60.625 68.2114L56.5864 63.9265C56.2901 63.6121 56.1342 63.1985 56.1342 62.7518C56.1342 62.3051 56.2901 61.8915 56.5864 61.5772C56.8827 61.2629 57.2725 61.0974 57.6935 61.0974C58.1145 61.0974 58.5044 61.2629 58.8006 61.5772L60.6406 63.5294C60.9369 63.8438 61.3267 64.0092 61.7477 64.0092C62.1687 64.0092 62.5586 63.8272 62.8548 63.5294L68.2656 57.7886C68.5619 57.4743 68.9517 57.3088 69.3728 57.3088C69.7938 57.3088 70.1836 57.4743 70.4799 57.7886C71.0412 58.4338 71.0412 59.4926 70.4331 60.1379Z" fill="#005453" fill-opacity="0.16"/>
<path d="M18.5 69C17.675 69 17 69.675 17 70.5C17 71.325 17.675 72 18.5 72C19.325 72 20 71.325 20 70.5C20 69.675 19.325 69 18.5 69Z" fill="#005453" fill-opacity="0.16"/>
</svg>
