<svg width="68" height="74" viewBox="0 0 68 74" fill="none" xmlns="http://www.w3.org/2000/svg">
<path d="M50.2398 36.1017C54.018 31.1048 56 25.2464 56 19.1583V5.56045C56 4.88559 55.5045 4.31124 54.7922 4.16765L34.8329 0.0323073C34.6161 -0.0107691 34.3839 -0.0107691 34.1671 0.0323073L14.2078 4.16765C13.4955 4.31124 13 4.89995 13 5.56045V19.1583C13 25.2607 14.9975 31.1191 18.7602 36.1017C22.5384 41.0985 27.7875 44.8318 33.9658 46.9138C34.1361 46.9713 34.3219 47 34.4923 47C34.6781 47 34.8484 46.9713 35.0187 46.9138C41.2125 44.8318 46.4617 41.0985 50.2398 36.1017ZM34.5077 44.0421C29.1656 42.1324 24.5978 38.8298 21.2996 34.4648C17.8931 29.9561 16.0969 24.6577 16.0969 19.1583V6.70916L34.5077 2.90407L52.9186 6.70916V19.1583C52.9186 24.6577 51.1224 29.9561 47.7159 34.4648C44.4022 38.8155 39.8498 42.1324 34.5077 44.0421Z" fill="#D9112F" fill-opacity="0.16"/>
<path d="M48.9696 9.38778C48.9696 8.70997 48.4832 8.1331 47.784 7.98888L33.8147 5.03245C33.6019 4.98918 33.3739 4.98918 33.1611 5.03245L19.1919 7.98888C18.371 8.16194 17.8542 8.92629 18.0366 9.70506C18.219 10.4838 19.0246 10.9742 19.8455 10.8011L33.4955 7.91678L45.9599 10.5559V18.7763C45.9599 23.2037 44.5463 27.4581 41.871 31.0923C39.7125 34.0055 36.8396 36.3707 33.5107 37.957C30.1818 36.3707 27.2937 34.0055 25.1504 31.0923C22.84 27.9484 21.4415 24.2853 21.1223 20.4924C21.0919 20.1752 21.0767 19.8579 21.0615 19.5406C21.0311 18.7474 20.3319 18.1273 19.4959 18.1561C18.6598 18.185 18.0062 18.8484 18.0366 19.6416C18.0518 20.0021 18.067 20.3626 18.0974 20.7232C18.4622 25.0353 20.0279 29.2031 22.6576 32.7508C25.2568 36.2697 28.7834 39.0675 32.8723 40.8702C33.0699 40.9567 33.2979 41 33.5107 41C33.7235 41 33.9515 40.9567 34.1491 40.8702C38.2381 39.0819 41.7646 36.2697 44.3639 32.7508C47.4039 28.6407 49 23.8094 49 18.7907L48.9696 9.38778Z" fill="#D9112F" fill-opacity="0.16"/>
<path d="M30.2006 26.5087C30.461 26.8035 30.8592 26.9719 31.2728 27C31.3035 27 31.3341 27 31.38 27C31.763 27 32.1306 26.8737 32.4063 26.635L43.4965 17.4407C44.1245 16.9213 44.1705 16.0369 43.6037 15.4614C43.037 14.8859 42.0719 14.8438 41.4439 15.3631L31.5332 23.5749L28.6994 20.5148C28.148 19.9252 27.1829 19.8551 26.5396 20.3464C25.8962 20.8517 25.8197 21.736 26.3558 22.3256L30.2006 26.5087Z" fill="#D9112F" fill-opacity="0.16"/>
<path d="M21.2409 47.7454C20.4222 46.7429 19.2481 46.1036 17.9196 45.9438C16.5911 45.784 15.278 46.1327 14.2275 46.9172C13.7332 47.2805 13.3315 47.7309 13.038 48.2104L12.59 47.6582C12.1884 47.1642 11.9721 46.554 11.9721 45.9292V32.8528C11.9721 30.1794 9.65486 28 6.81242 28C4.1399 28 1.93082 29.8888 1.68365 32.3879L0.0307042 48.7625C-0.123777 50.2009 0.30877 51.6248 1.23566 52.7726L14.3356 68.8275V72.5471C14.3356 73.3462 15.0308 74 15.8804 74C16.7301 74 17.4253 73.3462 17.4253 72.5471V68.3335C17.4253 68.0139 17.3171 67.7088 17.1008 67.4473L3.6919 51.0145C3.22846 50.4479 3.02763 49.7505 3.08943 49.0385L4.74237 32.6639C4.85051 31.6614 5.73105 30.9059 6.79697 30.9059C7.94013 30.9059 8.86701 31.7776 8.86701 32.8528V45.9292C8.86701 47.1788 9.31501 48.4283 10.1338 49.4163L13.3624 53.3683L13.3779 53.3828L15.9886 56.5793C16.5138 57.2186 17.4716 57.3348 18.1513 56.8408C18.831 56.3468 18.9546 55.446 18.4294 54.8067L15.8187 51.6102C15.2162 50.8547 15.3552 49.765 16.1431 49.1838C16.5447 48.8932 17.0391 48.7625 17.5334 48.8206C18.0277 48.8787 18.4757 49.1257 18.7847 49.5035L25.0103 57.204C26.2307 58.7151 26.9104 60.6039 26.9104 62.5073V72.5471C26.9104 73.3462 27.6055 74 28.4552 74C29.3048 74 30 73.3462 30 72.5471V62.4927C30 59.9646 29.104 57.451 27.4665 55.4315L21.2409 47.7454Z" fill="#D9112F" fill-opacity="0.16"/>
<path d="M67.9745 48.7559L66.3212 32.3865C66.074 29.8882 63.8646 28 61.1916 28C58.3486 28 56.031 30.1787 56.031 32.8513V45.9236C56.031 46.5482 55.8147 47.1582 55.413 47.652L54.9649 48.204C54.6714 47.7247 54.2696 47.2744 53.7752 46.9113C52.7246 46.1269 51.4113 45.7783 50.0825 45.9381C48.7537 46.0979 47.564 46.737 46.7606 47.7392L40.5339 55.4373C38.8961 57.4563 38 59.9545 38 62.4964V72.533C38 73.3319 38.6953 73.9855 39.5451 73.9855C40.3949 73.9855 41.0902 73.3319 41.0902 72.533V62.4818C41.0902 60.5791 41.77 58.7054 42.9906 57.1803L49.2172 49.4822C49.5263 49.1045 49.9743 48.8576 50.4688 48.7995C50.9632 48.7414 51.4576 48.8721 51.8593 49.1626C52.6473 49.7581 52.7864 50.833 52.1838 51.5883L49.5572 54.8128C49.0318 55.4518 49.1709 56.3524 49.8353 56.8462C50.4997 57.3401 51.4731 57.2093 51.9984 56.5848L54.6096 53.3893L54.625 53.3748L57.8542 49.4241C58.6731 48.4219 59.1212 47.1872 59.1212 45.9381V32.8658C59.1212 31.791 60.0482 30.9195 61.1916 30.9195C62.2577 30.9195 63.1538 31.6748 63.2465 32.677L64.8998 49.0464C64.977 49.7581 64.7607 50.4553 64.3126 51.0218L50.8859 67.4493C50.6851 67.6962 50.5615 68.0158 50.5615 68.3353V72.5475C50.5615 73.3464 51.2567 74 52.1065 74C52.9563 74 53.6516 73.3464 53.6516 72.5475V68.8292L66.7693 52.7793C67.6809 51.6173 68.1135 50.1939 67.9745 48.7559Z" fill="#D9112F" fill-opacity="0.16"/>
<path d="M18.6623 16.7531C19.1899 17.0989 19.9135 17.0839 20.4109 16.6929C20.8783 16.3321 21.1044 15.6856 20.9536 15.1142C20.7878 14.4978 20.23 14.0467 19.5818 14.0016C18.9487 13.9716 18.3457 14.3625 18.1045 14.9488C17.8482 15.5954 18.0743 16.3622 18.6623 16.7531Z" fill="#D9112F" fill-opacity="0.16"/>
</svg>
