<svg width="15" height="15" viewBox="0 0 15 15" fill="none" xmlns="http://www.w3.org/2000/svg">
<path d="M14.3649 4.18482C14.331 3.42698 14.207 2.90876 14.0294 2.4574C13.8461 1.97818 13.5642 1.55189 13.1976 1.19526C12.8367 0.833063 12.3997 0.55166 11.9233 0.376132C11.4637 0.200604 10.9421 0.0780125 10.1752 0.0445786C9.40271 0.00835845 9.16024 0 7.20357 0C5.24691 0 5.00162 0.00835849 4.23474 0.0417925C3.46786 0.0752264 2.94346 0.197818 2.48671 0.373346C2.00177 0.554447 1.57041 0.833063 1.20952 1.19526C0.843002 1.55189 0.558242 1.98375 0.380619 2.45461C0.202997 2.90876 0.0789426 3.4242 0.0451098 4.18203C0.00845752 4.94544 0 5.18505 0 7.11865C0 9.05225 0.00845821 9.29464 0.042291 10.0525C0.0761239 10.8103 0.200178 11.3285 0.377801 11.7799C0.561062 12.2591 0.845822 12.6854 1.20952 13.042C1.57041 13.4042 2.00741 13.6856 2.48389 13.8612C2.94346 14.0367 3.46505 14.1593 4.23192 14.1927C4.9988 14.2262 5.24409 14.2345 7.20076 14.2345C9.15742 14.2345 9.40271 14.2262 10.1696 14.1927C10.9365 14.1593 11.4609 14.0367 11.9176 13.8612C12.8847 13.4906 13.6515 12.7356 14.0265 11.7771C14.2042 11.323 14.3282 10.8075 14.362 10.0497C14.3959 9.28907 14.4043 9.04946 14.4043 7.11586C14.4043 5.18227 14.3987 4.94544 14.3649 4.18482ZM13.0651 9.99676C13.0341 10.6933 12.9157 11.0666 12.817 11.3174C12.5745 11.9387 12.0755 12.4291 11.4496 12.6687C11.1959 12.7662 10.8124 12.8832 10.1132 12.9139C9.35196 12.9473 9.12641 12.9557 7.20357 12.9557C5.28074 12.9557 5.04955 12.9473 4.29395 12.9139C3.5891 12.8832 3.2113 12.7662 2.95755 12.6687C2.6446 12.5545 2.35984 12.3734 2.13147 12.1365C1.89182 11.9053 1.70856 11.6267 1.59296 11.3202C1.49428 11.0694 1.37587 10.6905 1.34485 9.99954C1.31102 9.24728 1.30256 9.02439 1.30256 7.12422C1.30256 5.22406 1.31102 4.99559 1.34485 4.2489C1.37587 3.55236 1.49428 3.17901 1.59296 2.92826C1.70856 2.61899 1.89182 2.33759 2.13429 2.10913C2.3683 1.8723 2.65024 1.6912 2.96037 1.57697C3.21412 1.47945 3.59756 1.36243 4.29677 1.33179C5.05801 1.29835 5.28356 1.28999 7.20639 1.28999C9.13205 1.28999 9.36042 1.29835 10.116 1.33179C10.8209 1.36243 11.1987 1.47945 11.4524 1.57697C11.7654 1.6912 12.0501 1.8723 12.2785 2.10913C12.5181 2.34038 12.7014 2.61899 12.817 2.92826C12.9157 3.17901 13.0341 3.55793 13.0651 4.2489C13.0989 5.00116 13.1074 5.22406 13.1074 7.12422C13.1074 9.02439 13.0989 9.24728 13.0651 9.99676Z" fill="#4B4A4A"/>
<path d="M7.20067 3.46045C5.15659 3.46045 3.49878 5.09871 3.49878 7.11868C3.49878 9.13865 5.15659 10.7769 7.20067 10.7769C9.24474 10.7769 10.9025 9.13865 10.9025 7.11868C10.9025 5.09871 9.24474 3.46045 7.20067 3.46045ZM7.20067 9.49249C5.87554 9.49249 4.79853 8.43097 4.79853 7.11868C4.79853 5.8064 5.87272 4.74487 7.20067 4.74487C8.52579 4.74487 9.60281 5.8064 9.60281 7.11868C9.60281 8.43097 8.52579 9.49249 7.20067 9.49249Z" fill="#4B4A4A"/>
<path d="M11.912 3.3184C11.912 3.78926 11.5257 4.17097 11.0493 4.17097C10.5728 4.17097 10.1865 3.78926 10.1865 3.3184C10.1865 2.84754 10.5728 2.46584 11.0493 2.46584C11.5257 2.46305 11.912 2.84475 11.912 3.3184Z" fill="#4B4A4A"/>
</svg>
