<svg width="17" height="12" viewBox="0 0 17 12" fill="none" xmlns="http://www.w3.org/2000/svg">
<path d="M16.6491 1.87852C16.4524 1.14426 15.8783 0.565431 15.15 0.367128C13.8211 -7.66688e-08 8.49997 0 8.49997 0C8.49997 0 3.1815 -7.66688e-08 1.8499 0.353729C1.13492 0.552032 0.547527 1.14426 0.350842 1.87852C-1.29273e-06 3.2184 0 6 0 6C0 6 -1.29273e-06 8.795 0.350842 10.1215C0.547527 10.8557 1.12163 11.4346 1.8499 11.6329C3.19479 12 8.49997 12 8.49997 12C8.49997 12 13.8184 12 15.15 11.6463C15.8783 11.448 16.4524 10.8691 16.6491 10.1349C16.9999 8.795 16.9999 6.0134 16.9999 6.0134C16.9999 6.0134 17.0132 3.2184 16.6491 1.87852ZM6.80954 8.56722V3.4301L11.2323 6L6.80954 8.56722Z" fill="#4B4A4A"/>
</svg>
