<svg width="18" height="15" viewBox="0 0 18 15" fill="none" xmlns="http://www.w3.org/2000/svg">
<path d="M17.8305 1.69286C17.1689 1.98189 16.4621 2.17113 15.724 2.26403C16.483 1.81673 17.061 1.11481 17.3326 0.268381C16.6258 0.684716 15.8458 0.977182 15.0137 1.14234C14.3417 0.43698 13.3877 0 12.3431 0C10.3202 0 8.69066 1.62405 8.69066 3.61282C8.69066 3.89841 8.71503 4.17367 8.77422 4.43517C5.73458 4.28722 3.0466 2.84897 1.23953 0.65719C0.922685 1.19739 0.738147 1.81673 0.738147 2.48424C0.738147 3.73669 1.38925 4.84462 2.36068 5.48461C1.77225 5.47429 1.19775 5.30569 0.710295 5.04075C0.710295 5.05107 0.710295 5.06483 0.710295 5.08204C0.710295 6.83683 1.97768 8.29573 3.63852 8.62948C3.34256 8.70862 3.01527 8.74991 2.68101 8.74991C2.44773 8.74991 2.21096 8.73615 1.98813 8.68798C2.46166 10.1193 3.80564 11.1688 5.4038 11.2032C4.16079 12.1632 2.58004 12.7447 0.87394 12.7447C0.574502 12.7447 0.28551 12.7309 0 12.6965C1.61905 13.7287 3.53754 14.3171 5.60575 14.3171C12.3327 14.3171 16.0095 8.81184 16.0095 4.03948C16.0095 3.8812 16.0025 3.72637 15.9955 3.57153C16.7232 3.05886 17.3326 2.42575 17.8305 1.69286Z" fill="#4B4A4A"/>
</svg>
