<svg width="47" height="52" viewBox="0 0 47 52" fill="none" xmlns="http://www.w3.org/2000/svg">
<g clip-path="url(#clip0)">
<path d="M18.4346 22.5831C16.985 21.1745 15.0467 20.3911 12.9945 20.3911C10.9422 20.3911 9.01216 21.1666 7.55442 22.5831C6.10482 23.9917 5.29858 25.8671 5.29858 27.8692C5.29858 29.8634 6.09668 31.7467 7.55442 33.1553C9.00402 34.5639 10.9341 35.3394 12.9945 35.3394C14.8106 35.3394 16.5778 34.7142 17.9541 33.5826L19.0046 34.6034C18.7766 34.9833 18.6544 35.4185 18.6544 35.8616C18.6544 36.5343 18.9232 37.1594 19.4037 37.6263L23.8909 41.9786C24.3795 42.4455 25.0229 42.7067 25.707 42.7067C26.3992 42.7067 27.0426 42.4455 27.5231 41.9786C28.0035 41.5118 28.2723 40.8787 28.2723 40.214C28.2723 39.5493 28.0035 38.9241 27.5231 38.4493L26.2608 37.2227C26.1386 37.104 25.9757 37.0407 25.7966 37.0407C25.6174 37.0407 25.4627 37.104 25.3324 37.2227C25.2021 37.3414 25.1451 37.4997 25.1451 37.6738C25.1451 37.84 25.2102 37.9982 25.3324 38.1249L26.5947 39.3514C26.8308 39.5809 26.9611 39.8895 26.9611 40.2219C26.9611 40.5542 26.8308 40.8629 26.5947 41.0924C26.3585 41.3218 26.0409 41.4485 25.6988 41.4485C25.3568 41.4485 25.0392 41.3218 24.803 41.0924L20.3158 36.7321C20.0796 36.5026 19.9493 36.1861 19.9493 35.8616C19.9493 35.5293 20.0796 35.2207 20.3158 34.9912C20.552 34.7617 20.8696 34.6351 21.2116 34.6351C21.5536 34.6351 21.8713 34.7617 22.1074 34.9912L23.3697 36.2177C23.6222 36.4631 24.0375 36.4631 24.29 36.2177C24.5424 35.9724 24.5424 35.5689 24.29 35.3235L23.0277 34.097C22.5472 33.6301 21.8957 33.369 21.2116 33.369C20.7555 33.369 20.3076 33.4877 19.9167 33.7092L18.8662 32.6884C20.0307 31.3431 20.6741 29.6339 20.6741 27.8692C20.6823 25.8671 19.8842 23.9917 18.4346 22.5831ZM19.3792 27.8692C19.3792 29.531 18.7114 31.0899 17.5062 32.2611C16.3009 33.4323 14.6965 34.0812 12.9863 34.0812C11.2843 34.0812 9.67996 33.4323 8.46653 32.2611C7.26124 31.0899 6.59345 29.531 6.59345 27.8692C6.59345 26.2074 7.26124 24.6485 8.46653 23.4773C9.67181 22.3061 11.2761 21.6572 12.9863 21.6572C14.6965 21.6572 16.3009 22.3061 17.5062 23.4773C18.7196 24.6485 19.3792 26.2074 19.3792 27.8692Z" fill="#005453"/>
<path d="M15.6331 28.075C15.1038 28.075 14.607 28.3044 14.2405 28.7159C13.8985 29.1037 13.7112 29.6022 13.7112 30.1403C13.7112 30.6705 13.8985 31.177 14.2405 31.5647C14.607 31.9762 15.1038 32.2057 15.6331 32.2057C16.1625 32.2057 16.6592 31.9762 17.0257 31.5647C17.3678 31.177 17.5551 30.6705 17.5551 30.1403C17.5551 29.6022 17.3678 29.1037 17.0257 28.7159C16.6592 28.3044 16.1625 28.075 15.6331 28.075ZM16.2521 30.1403C16.2521 30.3698 16.1788 30.5835 16.0322 30.7417C15.9182 30.8684 15.7797 30.9396 15.6331 30.9396C15.4865 30.9396 15.3399 30.8684 15.2259 30.7417C15.0875 30.5835 15.0142 30.3698 15.0142 30.1403C15.0142 29.9029 15.0875 29.6893 15.2259 29.5389C15.3399 29.4123 15.4784 29.3411 15.6331 29.3411C15.7797 29.3411 15.9263 29.4123 16.0403 29.5389C16.1788 29.6972 16.2521 29.9108 16.2521 30.1403Z" fill="#005453"/>
<path d="M43.7374 22.6069C43.379 22.6069 43.0858 22.8918 43.0858 23.24V44.2419H3.91409V42.5722C3.91409 42.224 3.62092 41.9392 3.26259 41.9392C2.90426 41.9392 2.61108 42.224 2.61108 42.5722V44.875C2.61108 45.2232 2.90426 45.5081 3.26259 45.5081H43.7374C44.0957 45.5081 44.3889 45.2232 44.3889 44.875V23.2321C44.3889 22.8839 44.0957 22.6069 43.7374 22.6069Z" fill="#005453"/>
<path d="M11.7403 27.0147C12.0824 26.6269 12.2697 26.1205 12.2697 25.5903C12.2697 25.0601 12.0824 24.5536 11.7403 24.1659C11.3738 23.7544 10.8771 23.5249 10.3477 23.5249C9.81837 23.5249 9.3216 23.7544 8.95513 24.1659C8.61309 24.5536 8.42578 25.0522 8.42578 25.5903C8.42578 26.1205 8.61309 26.6269 8.95513 27.0147C9.3216 27.4262 9.81837 27.6557 10.3477 27.6557C10.8771 27.6557 11.3738 27.4262 11.7403 27.0147ZM10.9667 25.5903C10.9667 25.8198 10.8934 26.0413 10.7549 26.1917C10.6409 26.3183 10.4943 26.3895 10.3477 26.3895C10.2011 26.3895 10.0545 26.3183 9.94053 26.1917C9.80209 26.0334 9.72879 25.8198 9.72879 25.5903C9.72879 25.3608 9.80209 25.1471 9.94053 24.9889C10.0545 24.8623 10.2011 24.791 10.3477 24.791C10.4943 24.791 10.6409 24.8623 10.7549 24.9889C10.8934 25.1471 10.9667 25.3608 10.9667 25.5903Z" fill="#005453"/>
<path d="M15.4455 24.2767C15.3967 24.1184 15.2827 23.9839 15.1279 23.9047C14.8103 23.7465 14.4194 23.8652 14.2484 24.1738L10.6733 30.8289C10.5918 30.9792 10.5755 31.1454 10.6244 31.3116C10.6733 31.4699 10.7873 31.6044 10.942 31.6835C11.0397 31.731 11.1375 31.7547 11.2433 31.7547C11.3085 31.7547 11.3736 31.7468 11.4388 31.7231C11.6017 31.6756 11.7401 31.5648 11.8216 31.4145L15.3967 24.7594C15.4863 24.609 15.4944 24.4349 15.4455 24.2767Z" fill="#005453"/>
<path d="M27.36 30.0374H39.6897C40.0481 30.0374 40.3412 29.7525 40.3412 29.4043C40.3412 29.0561 40.0481 28.7712 39.6897 28.7712H27.36C27.0017 28.7712 26.7085 29.0561 26.7085 29.4043C26.7085 29.7525 27.0017 30.0374 27.36 30.0374Z" fill="#005453"/>
<path d="M31.9938 16.5689H33.533C33.8913 16.5689 34.1845 16.284 34.1845 15.9358C34.1845 15.5876 33.8913 15.3027 33.533 15.3027H31.9938C31.6355 15.3027 31.3423 15.5876 31.3423 15.9358C31.3423 16.284 31.6355 16.5689 31.9938 16.5689Z" fill="#005453"/>
<path d="M27.36 26.9671H39.6897C40.0481 26.9671 40.3412 26.6822 40.3412 26.334C40.3412 25.9858 40.0481 25.7009 39.6897 25.7009H27.36C27.0017 25.7009 26.7085 25.9858 26.7085 26.334C26.7085 26.6822 27.0017 26.9671 27.36 26.9671Z" fill="#005453"/>
<path d="M43.7374 13H3.26259C2.90426 13 2.61108 13.2849 2.61108 13.6331V39.8736C2.61108 40.2218 2.90426 40.5067 3.26259 40.5067C3.62092 40.5067 3.91409 40.2218 3.91409 39.8736V18.8717H43.0858V20.5414C43.0858 20.8896 43.379 21.1745 43.7374 21.1745C44.0957 21.1745 44.3889 20.8896 44.3889 20.5414V13.6331C44.3889 13.2849 44.0957 13 43.7374 13ZM43.0858 14.2661V17.6135H3.91409V14.2661H43.0858Z" fill="#005453"/>
<path d="M35.9113 16.5689H37.4505C37.8088 16.5689 38.102 16.284 38.102 15.9358C38.102 15.5876 37.8088 15.3027 37.4505 15.3027H35.9113C35.5529 15.3027 35.2598 15.5876 35.2598 15.9358C35.2598 16.284 35.5529 16.5689 35.9113 16.5689Z" fill="#005453"/>
<path d="M27.36 23.8887H39.6897C40.0481 23.8887 40.3412 23.6038 40.3412 23.2556C40.3412 22.9074 40.0481 22.6226 39.6897 22.6226H27.36C27.0017 22.6226 26.7085 22.9074 26.7085 23.2556C26.7085 23.6038 27.0017 23.8887 27.36 23.8887Z" fill="#005453"/>
<path d="M27.36 33.1077H35.1048C35.4631 33.1077 35.7563 32.8228 35.7563 32.4746C35.7563 32.1264 35.4631 31.8416 35.1048 31.8416H27.36C27.0017 31.8416 26.7085 32.1264 26.7085 32.4746C26.7085 32.8228 27.0017 33.1077 27.36 33.1077Z" fill="#005453"/>
<path d="M39.8283 16.5689H41.3674C41.7258 16.5689 42.019 16.284 42.019 15.9358C42.019 15.5876 41.7258 15.3027 41.3674 15.3027H39.8283C39.4699 15.3027 39.1768 15.5876 39.1768 15.9358C39.1768 16.284 39.4699 16.5689 39.8283 16.5689Z" fill="#005453"/>
</g>
<defs>
<clipPath id="clip0">
<rect width="41.7778" height="32.5" fill="white" transform="translate(2.61108 13)"/>
</clipPath>
</defs>
</svg>
