<svg width="23" height="28" viewBox="0 0 23 28" fill="none" xmlns="http://www.w3.org/2000/svg">
<path d="M11.5 6C12.8807 6 14 4.88071 14 3.5C14 2.11929 12.8807 1 11.5 1C10.1193 1 9 2.11929 9 3.5C9 4.88071 10.1193 6 11.5 6Z" stroke="#005453" stroke-width="2" stroke-miterlimit="10" stroke-linecap="round" stroke-linejoin="round"/>
<path d="M9.77655 8.02728L5.56207 12.3647L1.72414 11.9555L1 14.6561L6.76414 15.0653L9.87793 12.1601V16.0883L6.57586 19.3209L4.6931 26.3862L7.12621 27L9.54483 20.5894L14.1503 16.4975V11.3417L17.2207 13.224L19.5814 17.2067L22 15.8837L19.3931 10.9325L14.02 8" stroke="#005453" stroke-width="2" stroke-miterlimit="10" stroke-linecap="round" stroke-linejoin="round"/>
<path d="M11 19.4805L13.2712 23.5195L18.0956 27L20 25.3766L15.6411 21.7662L13.8777 17" stroke="#005453" stroke-width="2" stroke-miterlimit="10" stroke-linecap="round" stroke-linejoin="round"/>
</svg>
