<svg width="68" height="76" viewBox="0 0 68 76" fill="none" xmlns="http://www.w3.org/2000/svg">
<path d="M31.4128 41.8293C28.9198 41.6962 26.602 41.7362 24.3247 41.4034C19.5544 40.6979 15.6196 38.4482 12.7762 34.5213C12.6011 34.2817 12.4394 34.0288 12.2911 33.7626C11.9138 33.1103 11.9812 32.5246 12.655 32.1386C13.3287 31.7525 13.8678 32.0188 14.2585 32.6444C15.4579 34.5746 17.0749 36.0788 19.0423 37.2369C22.5325 39.2868 26.346 39.7128 30.2943 39.3933C32.8951 39.1803 33.6766 39.9125 33.6901 42.5082C33.7171 45.2371 33.7171 47.9393 32.4773 50.4818C31.5071 52.4652 30.2 54.1558 28.3943 55.4337C27.8013 55.8597 27.5857 56.3123 27.6262 57.0045C27.6801 58.0827 27.6396 59.1609 27.6396 60.3856C28.1248 60.2125 28.3808 60.1593 28.6099 60.0395C31.1567 58.7882 33.7171 57.5369 36.2504 56.259C37.6249 55.5668 37.7462 54.9012 37.3554 53.4104C36.8568 51.5334 36.4526 49.6166 36.2909 47.6864C36.0214 44.4916 35.9809 41.2836 35.8192 38.0888C35.7788 37.3966 35.9944 36.8908 36.7086 36.7577C37.4093 36.6245 37.9214 36.9973 38.0157 37.6761C38.2313 39.3135 38.4334 40.9508 38.5278 42.6014C38.676 45.2371 38.676 47.8861 38.8647 50.5218C38.9186 51.3604 39.3228 52.1724 39.5923 52.9844C40.32 55.1409 39.5923 57.0444 37.5576 58.1093C35.3611 59.2408 33.1241 60.3057 30.9142 61.4106C30.6177 61.557 30.3482 61.7167 29.8766 61.9697C31.278 62.6086 32.5177 63.1677 33.744 63.7268C34.9298 64.2592 36.1292 64.7784 37.315 65.3242C39.6328 66.3891 40.8456 68.2128 40.9668 70.7153C41.0342 72.0066 40.9803 73.2978 40.9668 74.589C40.9534 75.3211 40.6973 75.9468 39.8484 75.9601C38.9455 75.9601 38.6895 75.3078 38.676 74.5357C38.6625 73.3776 38.6625 72.2195 38.676 71.0614C38.703 69.2777 37.881 68.0397 36.2235 67.3209C34.7816 66.6953 33.3667 66.0031 31.9113 65.4174C31.534 65.2709 30.995 65.2709 30.6312 65.4307C28.0978 66.5621 25.5644 67.7069 23.0849 68.9316C21.3197 69.7968 19.6487 69.8101 17.8969 68.9449C15.4309 67.7335 12.9514 66.5888 10.445 65.4839C10.0273 65.2975 9.40739 65.2842 8.97618 65.444C7.48041 66.0297 6.03854 66.7219 4.56971 67.3875C3.06047 68.1196 2.29237 69.3309 2.25194 70.9683C2.22499 72.1929 2.23847 73.4176 2.23847 74.6422C2.23847 75.401 1.98243 76 1.13348 76C0.298005 76 -0.0254051 75.4276 0.00154578 74.6688C0.041972 72.9517 -0.0388805 71.2212 0.203677 69.5306C0.473186 67.6404 1.69945 66.3092 3.45125 65.4972C5.60732 64.4989 7.77686 63.5404 9.93293 62.5554C10.2563 62.4089 10.5663 62.2359 11.0783 61.983C9.0166 60.9447 7.14352 60.0129 5.27044 59.0811C4.58319 58.735 3.88247 58.4288 3.2087 58.0561C1.38951 57.0444 0.567514 55.1275 1.32214 53.224C2.21151 50.9477 2.46755 48.6182 2.4406 46.2221C2.42712 43.8394 2.34627 41.4433 2.64273 39.0872C3.32998 33.6028 6.20024 29.4097 10.8493 26.3747C11.0783 26.2282 11.3344 25.9753 11.5365 26.0019C12.0216 26.0552 12.7089 26.1217 12.8975 26.4279C13.0997 26.7474 12.8436 27.373 12.6954 27.8256C12.6415 27.9987 12.3316 28.0919 12.1294 28.225C7.30523 31.3532 4.8527 35.7859 4.67752 41.4433C4.61014 43.5332 4.63709 45.6098 4.66404 47.6997C4.69099 49.7098 4.32716 51.6532 3.61296 53.5302C3.08742 54.9146 3.35693 55.6467 4.67752 56.299C7.4265 57.67 10.189 59.0145 13.194 60.4921C13.2344 59.5337 13.194 58.7616 13.3018 58.0161C13.4904 56.685 13.0323 55.8197 11.9273 54.9412C8.88185 52.4919 7.38608 49.1906 7.2648 45.317C7.23785 44.5183 7.33218 43.7196 7.23785 42.9342C6.96834 40.5115 8.05985 38.7278 9.85208 37.2369C10.418 36.771 10.9975 36.5713 11.55 37.1038C12.1429 37.6761 11.9812 38.3018 11.4422 38.8476C11.0649 39.2203 10.6471 39.5664 10.3237 39.979C10.0273 40.3651 9.64995 40.8044 9.623 41.2569C9.35349 44.4783 9.29959 47.6731 11.0783 50.6016C13.6252 54.7814 18.5303 56.7382 23.4084 55.487C27.963 54.3289 31.305 50.0958 31.4128 45.3303C31.4397 44.1189 31.4128 42.9342 31.4128 41.8293ZM28.5425 63.9398C25.497 62.5287 25.1332 60.0395 25.4162 57.1642C22.0743 58.4155 18.8671 58.3356 15.4983 57.2175C15.7274 60.0661 15.4713 62.5554 12.372 63.9265C15.0266 65.1378 17.3983 66.256 19.7969 67.2943C20.1877 67.4673 20.7806 67.454 21.158 67.2943C23.5835 66.2427 25.9552 65.1378 28.5425 63.9398Z" fill="#D9112F" fill-opacity="0.16"/>
<path d="M28.5541 7.00002C36.4939 7.01355 42.9729 13.5061 42.9999 21.4729C43.027 29.4398 36.4668 36.0135 28.5 36C20.506 35.9865 14 29.4669 14 21.4729C14.0135 13.479 20.5466 6.98649 28.5541 7.00002ZM28.4594 33.687C35.2089 33.7141 40.6599 28.3036 40.687 21.5541C40.714 14.8181 35.3036 9.32651 28.5811 9.25888C21.8722 9.20478 16.2859 14.7505 16.2724 21.4729C16.2589 28.1819 21.7369 33.6735 28.4594 33.687Z" fill="#D9112F" fill-opacity="0.16"/>
<path d="M44.0012 12.1486C43.907 5.57662 49.1859 0.095519 55.6768 0.00124942C62.3832 -0.0930202 67.9045 5.15914 67.9988 11.7176C68.093 18.5185 62.8141 23.9592 56.0673 23.9996C49.4418 24.0535 44.082 18.7878 44.0012 12.1486ZM55.9461 21.7371C61.3058 21.7506 65.7094 17.4142 65.7498 12.0812C65.7902 6.72132 61.3462 2.25025 55.9865 2.25025C50.6538 2.25025 46.2771 6.62705 46.2636 11.987C46.2636 17.3738 50.573 21.7237 55.9461 21.7371Z" fill="#D9112F" fill-opacity="0.16"/>
<path d="M48.3966 38.0958C48.3966 37.8315 48.3966 37.5671 48.3966 37.3028C48.3966 35.4524 48.3966 35.4524 50.0848 34.9898C51.1974 34.6859 51.9264 33.5756 51.8113 32.3729C51.6962 31.2363 50.7626 30.3243 49.6499 30.245C48.4733 30.1657 47.4629 30.9587 47.2199 32.1482C47.1944 32.2804 47.1944 32.4126 47.1688 32.5447C47.0665 33.2849 46.734 33.84 45.941 33.7342C45.1609 33.6285 44.9562 33.0205 45.0074 32.2804C45.1353 30.1657 46.8363 28.3153 48.8954 28.0378C51.0951 27.747 53.1926 29.1612 53.8193 31.3552C54.4204 33.4567 53.4868 35.8886 51.5428 36.7477C50.6731 37.131 50.5196 37.6464 50.5708 38.4659C50.6091 38.9813 50.5963 39.5232 50.5324 40.0387C50.4429 40.6731 50.008 41.1357 49.4197 40.9639C49.036 40.8449 48.5884 40.3691 48.4733 39.9594C48.307 39.3778 48.4349 38.717 48.4349 38.0958C48.4094 38.0958 48.3966 38.0958 48.3966 38.0958Z" fill="#D9112F" fill-opacity="0.16"/>
<path d="M27.2828 23.1987C27.2828 22.8902 27.2828 22.5676 27.2828 22.259C27.2828 20.7584 27.3845 20.6321 28.9097 20.3096C30.1443 20.0431 30.8561 18.879 30.4639 17.757C30.0862 16.6771 28.7644 16.0179 27.7622 16.5789C27.1957 16.9015 26.7018 17.6027 26.4839 18.2338C26.237 18.9772 25.9901 19.6083 25.0895 19.5101C24.1163 19.4119 23.942 18.6967 24.0146 17.8832C24.1744 15.9758 25.8448 14.3068 27.8638 14.0404C29.9846 13.7599 32.0472 14.966 32.7444 16.9015C33.4416 18.865 32.6863 21.1511 30.798 22.0487C29.8248 22.5115 29.5633 23.0725 29.6795 23.9981C29.7231 24.3067 29.7957 24.6994 29.6505 24.9238C29.3745 25.3305 28.9823 25.8494 28.5465 25.9616C27.8638 26.144 27.37 25.6531 27.2973 24.9799C27.2247 24.3908 27.2828 23.8018 27.2828 23.1987C27.2973 23.1987 27.2973 23.1987 27.2828 23.1987Z" fill="#D9112F" fill-opacity="0.16"/>
<path d="M54.8544 13.2842C54.8544 13.0058 54.8683 12.7274 54.8544 12.4489C54.7712 11.3908 55.1319 10.7643 56.2835 10.5972C57.324 10.458 57.8512 9.48345 57.5599 8.50889C57.2963 7.63179 56.3528 7.04705 55.5204 7.46472C55.0348 7.7014 54.5492 8.27221 54.3966 8.78734C54.1607 9.62268 53.911 10.2631 52.9121 10.11C52.1351 9.99858 51.8437 9.2607 52.0796 8.18868C52.4958 6.32309 54.0359 5.02831 55.9089 5.00047C57.7264 4.97263 59.3774 6.18387 59.8491 7.92416C60.3486 9.73406 59.5855 11.6414 57.8929 12.5046C57.2408 12.8387 57.1298 13.2564 57.1437 13.8829C57.1714 15.4144 56.8107 16.0269 55.9644 15.9991C55.1458 15.9713 54.8406 15.4004 54.8406 13.9107C54.8544 13.688 54.8544 13.4931 54.8544 13.2842Z" fill="#D9112F" fill-opacity="0.16"/>
<path d="M28.5 29C29.3284 29 30 28.5523 30 28C30 27.4477 29.3284 27 28.5 27C27.6716 27 27 27.4477 27 28C27 28.5523 27.6716 29 28.5 29Z" fill="#D9112F" fill-opacity="0.16"/>
<path d="M50 45C50.5523 45 51 44.5523 51 44C51 43.4477 50.5523 43 50 43C49.4477 43 49 43.4477 49 44C49 44.5523 49.4477 45 50 45Z" fill="#D9112F" fill-opacity="0.16"/>
<path d="M56 19C56.5523 19 57 18.5523 57 18C57 17.4477 56.5523 17 56 17C55.4477 17 55 17.4477 55 18C55 18.5523 55.4477 19 56 19Z" fill="#D9112F" fill-opacity="0.16"/>
</svg>
