<svg width="104" height="113" viewBox="0 0 104 113" fill="none" xmlns="http://www.w3.org/2000/svg">
    <g id="icon">
        <path d="M6.02103 36.6772H2.73682V30.1091C2.73682 25.573 6.41103 21.899 10.9473 21.899H66.7789V18.615H63.4947C62.5916 18.615 61.8526 17.8761 61.8526 16.973C61.8526 16.5419 62.0168 16.1109 62.3247 15.803L72.1773 5.95091C72.8137 5.31462 73.8605 5.31462 74.4968 5.95091L84.3494 15.803C84.9858 16.4393 84.9858 17.4861 84.3494 18.1224C84.0415 18.4303 83.631 18.5945 83.1794 18.5945H79.8952V21.8785H86.4637C91 21.8785 94.6742 25.5525 94.6742 30.0886V62.929H91.39V30.1091C91.39 27.3998 89.1731 25.1831 86.4637 25.1831H79.8952V54.7394H76.611V16.973C76.611 16.0699 77.35 15.3309 78.2531 15.3309H79.2179L73.3473 9.4402L67.4563 15.3309H68.421C69.3242 15.3309 70.0631 16.0699 70.0631 16.973V56.3814H66.7789V25.1831H10.9473C8.23787 25.1831 6.02103 27.3998 6.02103 30.1091V36.6772ZM10.9473 87.5798H38.2884L34.3473 100.716H30.6526V104H66.7789V100.716H63.0842L60.97 93.6758L57.8294 94.62L59.6563 100.716H37.7752L41.7163 87.5798H53.6421V84.2958H10.9473C8.23787 84.2958 6.02103 82.079 6.02103 79.3697V77.7277H52V74.4437H6.02103V39.9612H2.73682V79.3697C2.73682 83.9058 6.41103 87.5798 10.9473 87.5798ZM60.2105 59.6655V33.3932H53.6421V71.1596H10.9473V67.8756H17.5158V54.7394C17.5158 53.8363 18.2547 53.0974 19.1579 53.0974H29.0105C29.9137 53.0974 30.6526 53.8363 30.6526 54.7394V67.8756H33.9368V43.2453C33.9368 42.3422 34.6758 41.6033 35.5789 41.6033H45.4316C46.3347 41.6033 47.0737 42.3422 47.0737 43.2453V67.8756H50.3579V31.7511C50.3579 30.848 51.0968 30.1091 52 30.1091H61.8526C62.7558 30.1091 63.4947 30.848 63.4947 31.7511V59.6655H60.2105ZM27.3684 56.3814H20.8V67.8756H27.3684V56.3814ZM43.7894 44.8873H37.221V67.8756H43.7894V44.8873ZM10.9473 28.4671V31.7511H14.2316V28.4671H10.9473ZM20.8 28.4671H17.5158V31.7511H20.8V28.4671ZM24.0842 28.4671V31.7511H27.3684V28.4671H24.0842ZM99.8263 95.5847C100.75 96.5083 101.263 97.7603 101.263 99.074C101.263 101.783 99.0668 104 96.3368 104C95.0231 103.979 93.7915 103.466 92.8473 102.563L84.9858 94.7021C75.6052 100.244 63.5152 97.124 57.9731 87.744C52.431 78.364 55.551 66.2746 64.9316 60.7328C74.3121 55.191 86.4021 58.3108 91.9442 67.6908C95.5979 73.8689 95.5979 81.5454 91.9442 87.7235L99.8263 95.5847ZM91.4105 77.7277C91.4105 68.6555 84.0621 61.3075 74.9894 61.3075C65.9168 61.3075 58.5684 68.6555 58.5684 77.7277C58.5684 86.7999 65.9168 94.1479 74.9894 94.1479C84.0621 94.1479 91.39 86.7999 91.4105 77.7277ZM97.5068 97.904L90.0352 90.4533C89.3168 91.2949 88.5573 92.0748 87.7158 92.7727L95.1873 100.244C95.8031 100.901 96.85 100.921 97.5068 100.305C98.1637 99.6897 98.1842 98.6429 97.5684 97.9861C97.5273 97.9451 97.5068 97.9245 97.5068 97.904ZM88.1263 77.7277C88.1263 84.9731 82.2352 90.8639 74.9894 90.8639C67.7437 90.8639 61.8526 84.9731 61.8526 77.7277C61.8526 70.4823 67.7437 64.5915 74.9894 64.5915C82.2352 64.5915 88.1263 70.4823 88.1263 77.7277ZM84.8421 77.7277C84.8421 72.2885 80.4289 67.8756 74.9894 67.8756C69.55 67.8756 65.1368 72.2885 65.1368 77.7277C65.1368 83.1669 69.55 87.5798 74.9894 87.5798C80.4289 87.5798 84.8421 83.1669 84.8421 77.7277ZM68.421 77.7277H71.7052C71.7052 75.9215 73.1831 74.4437 74.9894 74.4437V71.1596C71.3563 71.1596 68.421 74.0947 68.421 77.7277ZM89.7684 15.3309H93.0526C93.0526 9.89175 88.6394 5.47883 83.2 5.47883V8.76286C86.8331 8.76286 89.7684 11.698 89.7684 15.3309Z" fill="currentColor"/>
    </g>
</svg>
