<svg width="98" height="98" viewBox="0 0 98 98" fill="none" xmlns="http://www.w3.org/2000/svg">
    <g id="icon">
        <path d="M96.4194 34.7742C97.2887 34.7742 98 34.0629 98 33.1936V7.90323C98 7.03387 97.2887 6.32258 96.4194 6.32258H94.8387V1.58065C94.8387 0.71129 94.1274 0 93.2581 0H4.74194C3.87258 0 3.16129 0.71129 3.16129 1.58065V6.32258H1.58065C0.71129 6.32258 0 7.03387 0 7.90323V33.1936C0 34.0629 0.71129 34.7742 1.58065 34.7742H3.16129V88.5161H1.58065C0.71129 88.5161 0 89.2274 0 90.0968V96.4194C0 97.2887 0.71129 98 1.58065 98H96.4194C97.2887 98 98 97.2887 98 96.4194V90.0968C98 89.2274 97.2887 88.5161 96.4194 88.5161H94.8387V34.7742H96.4194ZM6.32258 3.16129H91.6774V6.32258H6.32258V3.16129ZM3.16129 9.48387H94.8387V31.6129H3.16129V9.48387ZM91.6774 50.5806H72.7097V41.0968H91.6774V50.5806ZM69.5484 50.5806H50.5806V41.0968H69.5484V50.5806ZM47.4194 50.5806H28.4516V41.0968H47.4194V50.5806ZM25.2903 50.5806H6.32258V41.0968H25.2903V50.5806ZM94.8387 94.8387H3.16129V91.6774H94.8387V94.8387ZM53.7419 88.5161H50.5806V64.8064C50.5806 63.9371 49.8694 63.2258 49 63.2258H17.3871C16.5177 63.2258 15.8065 63.9371 15.8065 64.8064V88.5161H12.6452V60.0645H53.7419V88.5161ZM18.9677 88.5161V66.3871H31.6129V88.5161H18.9677ZM34.7742 66.3871H47.4194V88.5161H34.7742V66.3871ZM85.3548 88.5161H66.3871V60.0645H85.3548V88.5161ZM88.5161 88.5161V58.4839C88.5161 57.6145 87.8048 56.9032 86.9355 56.9032H64.8064C63.9371 56.9032 63.2258 57.6145 63.2258 58.4839V88.5161H56.9032V58.4839C56.9032 57.6145 56.1919 56.9032 55.3226 56.9032H11.0645C10.1952 56.9032 9.48387 57.6145 9.48387 58.4839V88.5161H6.32258V53.7419H91.6774V88.5161H88.5161ZM91.6774 37.9355H6.32258V34.7742H91.6774V37.9355Z" fill="currentColor"/>
        <path d="M71.1921 76.6957H80.779C81.6578 76.6957 82.3768 75.9767 82.3768 75.0979V65.5109C82.3768 64.6321 81.6578 63.9131 80.779 63.9131H71.1921C70.3133 63.9131 69.5942 64.6321 69.5942 65.5109V75.0979C69.5942 75.9767 70.3133 76.6957 71.1921 76.6957ZM72.7899 67.1087H79.1812V73.5H72.7899V67.1087Z" fill="currentColor"/>
        <path d="M27.0059 15.6232H36.104V17.8033H30.0318V19.4008H32.8518C34.1691 19.4008 35.1777 19.6639 35.8776 20.1713C36.5775 20.6788 36.9274 21.4117 36.9274 22.3702C36.9274 23.3663 36.5363 24.1556 35.7541 24.7195C34.9719 25.2833 33.8604 25.5652 32.4401 25.5652H26.9854V15.6232H27.0059ZM32.2342 23.5542C32.7488 23.5542 33.1399 23.4603 33.4075 23.2723C33.6751 23.0844 33.8192 22.8213 33.8192 22.4642C33.8192 21.7688 33.284 21.4117 32.2342 21.4117H30.0318V23.5542H32.2342Z" fill="currentColor"/>
        <path d="M45.6361 23.6294H40.9803L40.1073 25.5652H36.9272L41.7909 15.6232H44.8462L49.7099 25.5652H46.4674L45.6361 23.6294ZM44.7215 21.5433L43.3082 18.3671L41.8948 21.5433H44.7215Z" fill="currentColor"/>
        <path d="M59.652 15.6232V25.5652H56.6931V21.6936H52.6689V25.5652H49.71V15.6232H52.6689V19.3632H56.6931V15.6232H59.652Z" fill="currentColor"/>
        <path d="M66.7648 21.7572H65.4261V25.5652H62.4927V15.6232H65.4261V19.4874H66.8435L69.3241 15.6232H72.415L69.1469 20.4254L72.4347 25.5652H69.1076L66.7648 21.7572Z" fill="currentColor"/>
    </g>
</svg>
