<svg xmlns="http://www.w3.org/2000/svg" viewBox="0 0 3307.27 2000"><rect width="3307.27" height="2000" style="fill:#fff"/><path d="M3035.84,1783.67l-1204.75.26-263.7.06-87.2,0-263.19.06-987.41,4.1q-1-2.72-1.88-5.4c-106.88-312.11,217.55-308.21,307.16-405.21,31.91-34.52,34.06-81.83-23.57-160.72-.27-.38-.56-.75-.83-1.13-34.38-47.26-59.4-93.65-76-139-34.68-94.92-32.26-185.12-1.06-268.47,23.65-63.19,63.86-122.45,117-176.84a767.31,767.31,0,0,1,67.76-61.32C1108.51,175.13,2306.58-4.36,2472,685.77c93.82,391.28,221.75,171.76,526.93,449.73,100.75,91.77,152.82,283,154,366.17C3155.05,1661.55,3035.84,1783.67,3035.84,1783.67Z" transform="translate(0)" style="fill:#e0f0ee"/><path d="M3041.84,1783.67l-1204.75.26-263.7.06-87.2,0-263.19.06-987.41,4.1q-1-2.72-1.88-5.4c-106.88-312.11,217.55-308.22,307.16-405.21,31.91-34.52,34.06-81.83-23.57-160.72-.27-.38-.56-.75-.83-1.13,314.67-113.84,313.51-101.62,649-52.34,414,60.81,754.79,131.45,923.56,54.76s532.54-21.33,632.57,89.14,77.81,219.91,181.55,210.73c74-6.54,166.87-38.29,255.74-16.34C3161.05,1661.55,3041.84,1783.67,3041.84,1783.67Z" transform="translate(0)" style="fill:#cae6e1"/><rect x="1779.26" y="435.45" width="944.81" height="1201.85" transform="translate(350.18 -553.72) rotate(15.19)" style="fill:#fae0cb"/><path d="M2174.19,554.92q-8.08,1.51-19.62-1.61-15-4.08-21.24-15.26t-2.22-25.89q4.26-15.67,16.58-22.8t27.78-2.93a48.59,48.59,0,0,1,15.47,6.8l-3.84,14.17a29.69,29.69,0,0,0-13.89-8q-9.2-2.49-16.42,1.76t-9.9,14.13q-2.58,9.48,1.23,16.55t12.82,9.53a31.7,31.7,0,0,0,16.9.09Z" transform="translate(0)" style="fill:#f99746"/><path d="M2211,568.63q-14-3.81-20.39-15.34t-2.37-26.21q4.2-15.48,15.77-22.62t26.39-3.11q14,3.79,20.13,15.3t2.08,26.49q-4.18,15.4-15.7,22.4T2211,568.63Zm15.55-54.73a15.38,15.38,0,0,0-13.88,2.47q-6.14,4.57-8.73,14.14t.39,16.6a16.28,16.28,0,0,0,24,6.67q6-4.28,8.61-14,2.74-10.17,0-17A14.64,14.64,0,0,0,2226.57,513.9Z" transform="translate(0)" style="fill:#f99746"/><path d="M2313.25,595.16l-14.85-4-15.78-48.36a61.82,61.82,0,0,1-1.81-6.31l-.18-.05q-.59,3.55-2.51,10.67l-9.74,35.9-13.9-3.77,17.74-65.34,15.85,4.31L2303.2,565c.7,2.11,1.31,4.19,1.83,6.22l.18,0a71.53,71.53,0,0,1,2.08-9.07l9.8-36.13,13.9,3.77Z" transform="translate(0)" style="fill:#f99746"/><path d="M2388.56,558.32l-18.63-5.06-14.49,53.36-14.76-4,14.49-53.35-18.55-5,3.26-12,51.93,14.1Z" transform="translate(0)" style="fill:#f99746"/><path d="M2437.68,628.94l-16.9-4.59-5.6-19.57c-.41-1.48-.83-2.82-1.26-4a19.29,19.29,0,0,0-1.42-3.15,8.84,8.84,0,0,0-1.78-2.24,6,6,0,0,0-2.38-1.26l-4-1.08-6.79,25-14.72-4,17.74-65.33,23.33,6.33q23.78,6.45,18.95,24.23a18.77,18.77,0,0,1-2.76,6,18.13,18.13,0,0,1-4.37,4.41,19.2,19.2,0,0,1-5.72,2.76,24.57,24.57,0,0,1-6.75,1l-.05.18a9.66,9.66,0,0,1,2.42,2.25,21.27,21.27,0,0,1,2,3.11,34.8,34.8,0,0,1,1.63,3.6c.49,1.26.92,2.48,1.29,3.65Zm-25.35-65.19-4.93,18.18,6.37,1.73a11,11,0,0,0,8.36-.67,9.44,9.44,0,0,0,4.78-6.09q2.33-8.56-7.93-11.35Z" transform="translate(0)" style="fill:#f99746"/><path d="M2501.24,646.2l-16-4.36-.7-15.79-23.24-6.31L2452.72,633l-15.95-4.33,41.52-58.87,17.45,4.73Zm-17-32.37L2483.14,590a30.19,30.19,0,0,1,.5-6.18l-.36-.1a25.6,25.6,0,0,1-2.69,5.39l-13.12,20.21Z" transform="translate(0)" style="fill:#f99746"/><path d="M2555.63,658.47q-8.09,1.51-19.62-1.61-15-4.08-21.25-15.26t-2.21-25.89q4.26-15.68,16.58-22.8t27.78-2.92a48.69,48.69,0,0,1,15.47,6.79L2568.53,611a29.61,29.61,0,0,0-13.88-8q-9.2-2.49-16.42,1.76t-9.91,14.14q-2.57,9.46,1.23,16.55t12.83,9.52a31.7,31.7,0,0,0,16.9.09Z" transform="translate(0)" style="fill:#f99746"/><path d="M2626.76,623l-18.64-5.06-14.48,53.35-14.77-4,14.49-53.35-18.54-5,3.25-12L2630,611Z" transform="translate(0)" style="fill:#f99746"/><path d="M2699.92,777.43l-704-191.13a14.38,14.38,0,0,1-10.11-17.64h0a14.38,14.38,0,0,1,17.64-10.11l704,191.13a14.37,14.37,0,0,1,10.1,17.64h0A14.38,14.38,0,0,1,2699.92,777.43Z" transform="translate(0)" style="fill:#f0c8a7"/><path d="M2685.8,829.45l-704-191.13a14.37,14.37,0,0,1-10.11-17.64h0a14.38,14.38,0,0,1,17.64-10.11l704,191.13a14.38,14.38,0,0,1,10.11,17.64h0A14.38,14.38,0,0,1,2685.8,829.45Z" transform="translate(0)" style="fill:#f0c8a7"/><path d="M2671.68,881.47l-704-191.13a14.37,14.37,0,0,1-10.1-17.64h0a14.37,14.37,0,0,1,17.64-10.1l704,191.13a14.38,14.38,0,0,1,10.11,17.64h0A14.37,14.37,0,0,1,2671.68,881.47Z" transform="translate(0)" style="fill:#f0c8a7"/><path d="M2657.55,933.49l-704-191.13a14.37,14.37,0,0,1-10.11-17.63h0a14.37,14.37,0,0,1,17.64-10.11l704,191.13a14.37,14.37,0,0,1,10.1,17.64h0A14.37,14.37,0,0,1,2657.55,933.49Z" transform="translate(0)" style="fill:#f0c8a7"/><path d="M2643.43,985.52l-704-191.13a14.38,14.38,0,0,1-10.11-17.64h0a14.38,14.38,0,0,1,17.64-10.11l704,191.13a14.37,14.37,0,0,1,10.11,17.64h0A14.38,14.38,0,0,1,2643.43,985.52Z" transform="translate(0)" style="fill:#f0c8a7"/><path d="M2629.31,1037.54l-704-191.13a14.37,14.37,0,0,1-10.1-17.64h0a14.38,14.38,0,0,1,17.64-10.11l704,191.13a14.38,14.38,0,0,1,10.11,17.64h0A14.38,14.38,0,0,1,2629.31,1037.54Z" transform="translate(0)" style="fill:#f0c8a7"/><path d="M2615.19,1089.56l-704-191.13A14.38,14.38,0,0,1,1901,880.79h0a14.37,14.37,0,0,1,17.64-10.1l704,191.13a14.36,14.36,0,0,1,10.1,17.63h0A14.36,14.36,0,0,1,2615.19,1089.56Z" transform="translate(0)" style="fill:#f0c8a7"/><path d="M2601.06,1141.58,1897,950.45a14.38,14.38,0,0,1-10.11-17.64h0a14.37,14.37,0,0,1,17.64-10.1l704,191.13a14.37,14.37,0,0,1,10.1,17.64h0A14.37,14.37,0,0,1,2601.06,1141.58Z" transform="translate(0)" style="fill:#f0c8a7"/><path d="M2586.94,1193.61l-704-191.13a14.37,14.37,0,0,1-10.11-17.64h0a14.38,14.38,0,0,1,17.64-10.11l704,191.13a14.38,14.38,0,0,1,10.11,17.64h0A14.38,14.38,0,0,1,2586.94,1193.61Z" transform="translate(0)" style="fill:#f0c8a7"/><path d="M2548.34,1335.8l-704-191.13a14.37,14.37,0,0,1-10.1-17.64h0a14.38,14.38,0,0,1,17.64-10.11l704,191.13a14.38,14.38,0,0,1,10.11,17.64h0A14.38,14.38,0,0,1,2548.34,1335.8Z" transform="translate(0)" style="fill:#f0c8a7"/><path d="M2534.21,1387.82l-704-191.13a14.38,14.38,0,0,1-10.11-17.64h0a14.37,14.37,0,0,1,17.64-10.1l704,191.13a14.37,14.37,0,0,1,10.1,17.64h0A14.37,14.37,0,0,1,2534.21,1387.82Z" transform="translate(0)" style="fill:#f0c8a7"/><path d="M2088.81,1331.14l-274.87-74.63a14.37,14.37,0,0,1-10.11-17.63h0a14.37,14.37,0,0,1,17.64-10.11l274.87,74.62a14.37,14.37,0,0,1,10.11,17.64h0A14.38,14.38,0,0,1,2088.81,1331.14Z" transform="translate(0)" style="fill:#f0c8a7"/><path d="M2518,1447.64,2243.1,1373a14.37,14.37,0,0,1-10.1-17.64h0a14.36,14.36,0,0,1,17.63-10.1l274.88,74.62a14.37,14.37,0,0,1,10.1,17.64h0A14.37,14.37,0,0,1,2518,1447.64Z" transform="translate(0)" style="fill:#f0c8a7"/><path d="M2076.1,1378l-274.87-74.62a14.38,14.38,0,0,1-10.11-17.64h0a14.37,14.37,0,0,1,17.64-10.1l274.87,74.62a14.37,14.37,0,0,1,10.11,17.64h0A14.37,14.37,0,0,1,2076.1,1378Z" transform="translate(0)" style="fill:#f0c8a7"/><path d="M2505.26,1494.46l-274.87-74.62a14.37,14.37,0,0,1-10.1-17.64h0a14.37,14.37,0,0,1,17.63-10.11l274.88,74.63a14.37,14.37,0,0,1,10.1,17.64h0A14.37,14.37,0,0,1,2505.26,1494.46Z" transform="translate(0)" style="fill:#f0c8a7"/><path d="M2359.67,1452.24a114.42,114.42,0,0,1-10,24.26,101.27,101.27,0,0,1-20.58,25.71,91.69,91.69,0,0,1-58.81,23.62,87.54,87.54,0,0,1-28.49-3.92,93.41,93.41,0,0,1-28.7-14.55c-12.69-9.26-22.57-21.8-29.87-35.61a101.25,101.25,0,0,1-10.21-61.16,96.1,96.1,0,0,1,26.44-53.52,97.88,97.88,0,0,1,51.15-27.19,96.6,96.6,0,0,1,26.62-1.32,101.09,101.09,0,0,1,26.08,6.12,92,92,0,0,1,45.57,37.62,101,101,0,0,1,14,62.78A115,115,0,0,1,2359.67,1452.24Zm-.86-.24c.86-3.64,1.69-7.27,2.2-11a88.36,88.36,0,0,0,.68-15,85.25,85.25,0,0,0-7.41-31.37,96.76,96.76,0,0,0-42.23-45.65,94,94,0,0,0-56.5-10.49,95,95,0,0,0-29.32,9.08,93.66,93.66,0,0,0-49.55,67.15,87.27,87.27,0,0,0,11.2,59.5,89.34,89.34,0,0,0,41.6,35.67,99.81,99.81,0,0,0,58.59,5.81c21.45-4.35,41.33-15.75,55.11-32.87a82.78,82.78,0,0,0,10.53-16.91A105.49,105.49,0,0,0,2358.81,1452Z" transform="translate(0)" style="fill:#349b86"/><path d="M2069.69,1373.52a114.67,114.67,0,0,1-10,24.26,101.23,101.23,0,0,1-20.57,25.7,91.68,91.68,0,0,1-58.82,23.63,87.75,87.75,0,0,1-28.48-3.92,93.95,93.95,0,0,1-28.71-14.56c-12.68-9.25-22.57-21.79-29.86-35.6a101.27,101.27,0,0,1-10.22-61.16,96.12,96.12,0,0,1,26.44-53.53,97.89,97.89,0,0,1,51.16-27.18,96.58,96.58,0,0,1,26.62-1.32,100.37,100.37,0,0,1,26.08,6.12,92,92,0,0,1,45.57,37.62,100.94,100.94,0,0,1,14,62.77A114.88,114.88,0,0,1,2069.69,1373.52Zm-.87-.25c.87-3.64,1.69-7.27,2.2-11a89.36,89.36,0,0,0,.69-15,85.5,85.5,0,0,0-7.41-31.37,96.85,96.85,0,0,0-42.23-45.65,94.18,94.18,0,0,0-56.5-10.49,94.58,94.58,0,0,0-29.32,9.09,93.7,93.7,0,0,0-49.56,67.15,87.22,87.22,0,0,0,11.21,59.5,89.22,89.22,0,0,0,41.6,35.66,99.77,99.77,0,0,0,58.58,5.81c21.46-4.34,41.34-15.75,55.12-32.86a83.56,83.56,0,0,0,10.53-16.92A106.88,106.88,0,0,0,2068.82,1373.27Z" transform="translate(0)" style="fill:#cc2e76"/><path d="M895.15,1250.39s-125.59-20.72-210.84,49.31S649.43,1489.37,579,1504.86c-101.48,22.33-334.89,54.36-310.54,273.78,2.47,22.19,712.41,0,712.41,0L950.47,1306Z" transform="translate(0)" style="fill:#bde5b3"/><rect x="712.83" y="846.46" width="1194.4" height="871.51" style="fill:#349b86"/><polygon points="1969.52 872.85 650.53 872.85 650.53 820.08 1310.03 547.6 1969.52 820.08 1969.52 872.85" style="fill:#79c6bb"/><rect x="1420.19" y="1056.6" width="326.27" height="433.7" style="fill:#ffcb9c"/><path d="M1754.44,1482.2h-7V1048.5H1405.26v433.7h-7a31.61,31.61,0,0,0-31.61,31.61v1.1h419.39v-1.1A31.61,31.61,0,0,0,1754.44,1482.2Zm-333.26-417.78h310.36v76.69H1421.18Zm0,94.6h310.36V1482.2H1421.18Z" transform="translate(0)" style="fill:#78c6bb"/><rect x="697.07" y="1616.16" width="1225.91" height="167.79" style="fill:#79c6bb"/><rect x="893.59" y="1056.6" width="326.27" height="433.7" style="fill:#fff;opacity:0.5"/><rect x="901.86" y="1064.56" width="310.36" height="417.79" style="fill:#ffcb9c"/><rect x="907.36" y="1071.28" width="300.06" height="15.09" style="fill:#fff"/><rect x="907.36" y="1094.97" width="300.06" height="15.09" style="fill:#fff"/><rect x="907.36" y="1118.67" width="300.06" height="15.09" style="fill:#fff"/><rect x="907.36" y="1140.87" width="300.06" height="15.09" style="fill:#fff"/><rect x="907.36" y="1165.83" width="300.06" height="15.09" style="fill:#fff"/><rect x="921.29" y="1064.17" width="2.9" height="128.99" style="fill:#fff"/><rect x="1192.33" y="1064.17" width="2.9" height="128.99" style="fill:#fff"/><path d="M1235,1482.2h-7V1048.5H885.82v433.7h-7a31.61,31.61,0,0,0-31.61,31.61v1.1h419.39v-1.1A31.61,31.61,0,0,0,1235,1482.2ZM901.74,1064.42H1212.1v76.69H901.74Zm0,94.6H1212.1V1482.2H901.74Z" transform="translate(0)" style="fill:#78c6bb"/><rect x="860.8" y="932.09" width="393.18" height="84.07" style="fill:#78c6bb"/><rect x="1379.57" y="932.09" width="393.18" height="84.07" style="fill:#78c6bb"/><path d="M1170.6,1785s-22.72-81.63-117.09-109-88.29-13.7-173.53-62.41-219.19-18.27-246.59,21.31-91.33,60.89-179.61,59.37S361,1778.64,361,1778.64Z" transform="translate(0)" style="fill:#a8d29f"/><path d="M2834.7,1419.14s-4.15,4.32-4.41,6.12c-.84,5.78-2.77,8.27-1.8,8.9,2,1.31,4.67-3,5.94-6.81A17.48,17.48,0,0,0,2834.7,1419.14Z" transform="translate(0)" style="fill:#ffb27d"/><path d="M2735.24,1209.65l-26.87,51-8.47,1.1-.84,7.49-26.95,81.16S2657.21,1247.27,2735.24,1209.65Z" transform="translate(0)" style="fill:#0b5553"/><path d="M2690.41,1254.73s-25.85,104.22-28.71,208.76c0,0,20.78,13.92,59.5,7.12C2760.11,1463.77,2690.41,1254.73,2690.41,1254.73Z" transform="translate(0)" style="fill:#0b5553"/><path d="M2548.12,1406.64c8-.15,19.2.84,22.91-3.22a11.22,11.22,0,0,1,9.16-3.93l-1-5.26L2578,1388s-.46-.57-2.09-.55c0,0-5.78.25-8.54-.74-6.71-2.4-33.44,13.61-32.53,18.06C2535.16,1406.38,2544.72,1406.7,2548.12,1406.64Z" transform="translate(0)" style="fill:#e2915a"/><path d="M2693.76,1252.58s-45.14,93.24-59.11,103.25-63.77,31.65-63.77,31.65a12.71,12.71,0,0,0-.09,7.64c1.25,4.73,3.74,6.06,3.74,6.06s69.62-6.21,85.81-16.29,51.88-50.23,51.88-50.23Z" transform="translate(0)" style="fill:#0b5553"/><path d="M2825.88,1779.85h26.72c3.36-1.85,6.36-6.08,7.31-12.39,1.3-8.72,11-13.47,13-20.6s-8.61-17.15-8.61-17.15l-1.79-2.33-1.86-2.43-17.73,4.23s-.44,4.28-.71,9.72c-.19,3.93-.29,8.47-.08,12.46.53,9.5-2.62,19.73-11,21.58C2825,1774.31,2825.32,1778,2825.88,1779.85Z" transform="translate(0)" style="fill:#0b5553"/><path d="M2670.83,1779.85h61.1c2.94-3.63,1.86-17,1.41-21.4-.09-.88-.15-1.39-.15-1.39s-20.87-16.9-23.73-4c-.09.4-.19.8-.31,1.19-3.61,12.1-19.81,17.6-29.16,19.13C2673.91,1774.42,2671.67,1777.62,2670.83,1779.85Z" transform="translate(0)" style="fill:#0b5553"/><path d="M2682.48,1434.57s3.16,40,6.89,88.12c5.06,65.35,11.14,145.61,11.75,160.82,1,26.4,5.21,68.63,5.21,68.63s9.91,10,29.73,5.81c0,0,17.66-60.29,22.71-124.08.07-1,.15-2.1.23-3.15,4.69-64.94,12-201.69,12-201.69Z" transform="translate(0)" style="fill:#ac1453"/><path d="M2682.48,1434.57s3.16,40,6.89,88.12l69.4,111.18c.07-1,.15-2.1.23-3.15,4.69-64.94,12-201.69,12-201.69Z" transform="translate(0)" style="fill:#861246"/><path d="M2696.94,1439.33s57.11,144.92,94.65,213,49.28,87.11,49.28,87.11,21.51-8.71,23.47-14.65c0,0-14.36-131.48-39.5-163.53-14.21-18.12-30.9-72.47-31.68-91.47s-5.09-56.63-5.09-56.63Z" transform="translate(0)" style="fill:#ac1453"/><path d="M2711.16,1230.33c22.31,7,60.92-12,60.92-12s-20.57-15.44-19.49-47.54l-17.26,13.9-11.72,9.45a140.92,140.92,0,0,0,1.33,15.32c.24,1.78.51,3.7.83,5.75a4.14,4.14,0,0,1-1.87,4.17A52.79,52.79,0,0,0,2711.16,1230.33Z" transform="translate(0)" style="fill:#ffb27d"/><path d="M2680,1437.6a3.64,3.64,0,0,0,2.35.9c8.38-.12,32.81,4.54,53.49,2.42,17.43-1.68,32.86-6.84,49.42-14.27,2.2-1,7.27-3.69,7.15-6.15-.07-2.69-.34-6.59-.67-11.51-1.18-17.1-3.22-46.52-1.23-80.45.36-6.32.55-12.59.57-18.76.17-46-9-86.44-27.27-100.13,0,0-12.78,7.17-21.62,10-8.67,2.77-13.13,2.21-17.62-.77,0,0-8.75,4.35-12.5,8.42-8.65,9.44-15.41,22-19.88,40-3.81,15.31-7.37,37.63-8.6,66.23C2683.05,1346.46,2679.46,1437.15,2680,1437.6Z" transform="translate(0)" style="fill:#fff"/><path d="M2788.38,1285.64l-24.56-76s-59,22.24-61.7,105.51c-1.08,19-5.63,96.74,2.61,161.18,0,0,45.94,17.9,102.27-17.42Z" transform="translate(0)" style="fill:#096c6d"/><path d="M2723.61,1194.17a140.92,140.92,0,0,0,1.33,15.32c13-2.23,27.72-23.22,27.72-23.22a41.54,41.54,0,0,0-17.33-1.55Z" transform="translate(0)" style="fill:#ed975d"/><path d="M2714,1193.57s40.19,6.68,44-18.42,11.5-41.13-14-46.45-31.94,3.5-35.23,11.57S2703.59,1191.19,2714,1193.57Z" transform="translate(0)" style="fill:#ffb27d"/><path d="M2831.2,1451l-3.78,1.73a7.23,7.23,0,0,1-9.58-3.57l-5.63-12.31a7.23,7.23,0,0,1,3.57-9.58l3.78-1.73a7.23,7.23,0,0,1,9.58,3.57l5.63,12.31A7.23,7.23,0,0,1,2831.2,1451Zm-13.65-19.85a3,3,0,0,0-1.46,3.93l5.63,12.31a3,3,0,0,0,3.93,1.46l3.77-1.73a3,3,0,0,0,1.46-3.92l-5.63-12.31a3,3,0,0,0-3.92-1.47Z" transform="translate(0)" style="fill:#349b86"/><path d="M2866.05,1422.37l-34.66,15.85-2.07-4.53,34.65-15.85a2.5,2.5,0,0,1,3.31,1.23h0A2.49,2.49,0,0,1,2866.05,1422.37Z" transform="translate(0)" style="fill:#349b86"/><path d="M2857.54,1424.85c3,7.52,3.33,8.27,4.83,7.61a36,36,0,0,1,3.67-1.31l-3.67-9.37Z" transform="translate(0)" style="fill:#349b86"/><path d="M2868,1433.33h0a2,2,0,0,1-2.65-1l-4.07-8.89,3.64-1.67,4.07,8.89A2,2,0,0,1,2868,1433.33Z" transform="translate(0)" style="fill:#349b86"/><path d="M2827.9,1412.3s4.31,5.74,4.49,8c1.15,15.55-5.95,17.7,12.44,26.34,0,0,7.85,3,8-3.1s-5.45-6.2-4.43-14.73c1.18-9.85,1.06-9.94-5.4-15.08l-4.28-7.07Z" transform="translate(0)" style="fill:#ffb27d"/><path d="M2838.86,1416.7a63,63,0,0,1-14.44.8s-20.56-63.54-23.21-69.34-61.1-74.51-61.1-74.51l23.71-64s13.9,8.14,28.61,33.51c18.16,31.33,38.12,81.79,41.67,90,10.61,24.52,14.29,79.5,14.29,79.5A26.43,26.43,0,0,1,2838.86,1416.7Z" transform="translate(0)" style="fill:#096c6d"/><path d="M2757.94,1172.74s-4.12-.69-3.45-6.37.65-13.11-4-11.72-4.84,5.08-6.74,2.92-1.94-11.26-15.68-11.89-19.33,4.15-25.72,1.34-6.73-12.48-6.73-12.48,1.82,3.45,4.57,4.55c0,0-10.66-14.59,1.68-24.59s24.93-3.45,32.08-3c15.74,1,25.9,1.9,31,12.24S2768,1162.78,2757.94,1172.74Z" transform="translate(0)" style="fill:#386c6b"/><path d="M2711.16,1179.33s1.56,4.14,5.48,4.25,6.93-3.69,6.93-3.69S2715.07,1177.92,2711.16,1179.33Z" transform="translate(0)" style="fill:#fff"/><path d="M2501.45,1564l81.6-18.91a19.88,19.88,0,0,0,14.84-23.78l-8.2-35.36a19.88,19.88,0,0,0-23.78-14.84L2484.3,1490a19.87,19.87,0,0,0-14.83,23.78l8.19,35.37A19.88,19.88,0,0,0,2501.45,1564Z" transform="translate(0)" style="fill:#861246"/><path d="M2574.14,1479.42h0a20,20,0,0,0-17.14-6.24h0a18.4,18.4,0,0,0-1.92.34l-16.25,3.77-1.77-7.63a6.55,6.55,0,0,0-7.87-4.91l-4.24,1-17.07,4-3.07.71a6.58,6.58,0,0,0-4.91,7.88l1.77,7.63-28.05,6.5a20,20,0,0,0-14.9,23.87l8.3,35.78a20,20,0,0,0,23.87,14.89l81.46-18.87a19.64,19.64,0,0,0,4.07-1.44h0a19.66,19.66,0,0,0,5.43-3.85,19.94,19.94,0,0,0,5.37-18.59l-8.29-35.77A19.72,19.72,0,0,0,2574.14,1479.42Zm-70.26-2.07a2.48,2.48,0,0,1,1.16-2.67,2.54,2.54,0,0,1,.68-.27l3.62-.84,13.43-3.11,7.32-1.7a2.45,2.45,0,0,1,2.94,1.84l1.77,7.63-29.15,6.75Z" transform="translate(0)" style="fill:#ac1453"/><path d="M2520.63,1433.39s-2.46,8.75-1.62,11.53c5.73,18.87,15.65,31.22-11,28,0,0,1.1-1.09-4-10.69-5.88-11.08-5.79-11.24-.51-20.25l1.82-10.3Z" transform="translate(0)" style="fill:#ffb27d"/><path d="M2554.16,1410.92c-8-.49-17.85-2.59-21.43-6.85-4.05-4.82-8.09-6.11-8.09-6.11l1.23-5.27,1.48-6.29s.48-.56,2.13-.47c0,0,6.31,1.43,8.65-.38s6.63-.71,9.27,1c3.35,2.23,7.88,1.87,7.77,3,0,0-6.65,3.27-6,3.82,6.09,5.41,22.13,7.56,21.08,11.78C2569.81,1406.81,2557.58,1411.13,2554.16,1410.92Z" transform="translate(0)" style="fill:#ffb27d"/><path d="M2442,1205.39l0,4.37s1.19,13.68-15.65,15.68-30.65,1.74-30.2-8.82c1.52-8.17,4.24-20.85,4.35-27.62a47.48,47.48,0,0,0-.6-8.18l32.64-.66,9.61,1.57Z" transform="translate(0)" style="fill:#ffb27d"/><path d="M2442.17,1181.73l-.13,23.66a27.57,27.57,0,0,1-11.76,2.6c-15,0-24.69-11-29.76-19a47.48,47.48,0,0,0-.6-8.18l32.64-.66Z" transform="translate(0)" style="fill:#e2915a"/><path d="M2397.42,1175.56c3.79,20.38,30.08,19.71,41.44,18.43,3.2-.35,5.21-.76,5.21-.76,3.61-1,5.62-6.64,6.56-14.08,1.85-14.73-.49-36.34-3-41.86-3.74-8.32-10.79-17.32-37.27-10.83S2392.56,1149.46,2397.42,1175.56Z" transform="translate(0)" style="fill:#ffb27d"/><path d="M2375.91,1778.87h37.26a89.67,89.67,0,0,0-3-13.37,37.53,37.53,0,0,0-2.11-5.37c-3.62-7.23-26.64-2.63-26.64-2.63s-2.13,1.83-3.8,8.83A74.16,74.16,0,0,0,2375.91,1778.87Z" transform="translate(0)" style="fill:#0b5553"/><path d="M2488.5,1767.11c.1,5.07.74,9.87,2.58,11.76h73.69c-.93-2.66-3.59-6.67-11.15-7.9-8.6-1.39-22-5.53-29.83-13.8a22.29,22.29,0,0,1-5.77-10.46c-3.47-15.44-28.67,4.73-28.67,4.73A123.79,123.79,0,0,0,2488.5,1767.11Z" transform="translate(0)" style="fill:#0b5553"/><path d="M2439.48,1600.25a114.6,114.6,0,0,1,1.85,13.61c2.34,45.7,38.47,150.18,44.93,152.62,10,3.77,25.74-4.25,34-6.87a7.06,7.06,0,0,0,5-8c-17.89-82.25-24.46-200.67-26.85-270.79-1.21-35.31-7.27-59.71-7.27-59.71s-88.11-23.5-88.63,6.23C2402,1453.64,2431.62,1556.84,2439.48,1600.25Z" transform="translate(0)" style="fill:#096c6d"/><path d="M2439.48,1600.25l58.86-119.45c-1.21-35.31-7.27-59.71-7.27-59.71s-88.11-23.5-88.63,6.23C2402,1453.64,2431.62,1556.84,2439.48,1600.25Z" transform="translate(0)" style="fill:#0b5553"/><path d="M2459.08,1427.43,2412.51,1765s-20.46,4.93-36.37,1c0,0-13.63-179.54-12.5-222.94s-9.78-116.15,2.5-124.17S2459.08,1427.43,2459.08,1427.43Z" transform="translate(0)" style="fill:#096c6d"/><path d="M2448.67,1140.47c-7.27,2.3-22.66,0-29.09,5.16s-.31,13.78-7.66,16.84l0,0a3.63,3.63,0,0,1-4.22-1.06c-2-2.54-4.85-5.08-7.43-4-2.11.87-2.22,3.6-1.28,6.25a7.4,7.4,0,0,1-.79,6.67,3.62,3.62,0,0,0-.8,2.69c.61,3.36,2.28,7.74,2.89,10l.17,2.35s-12.32-13.33-17.5-24.55c-3.56-7.69-3.49-36.46,13.92-44.87a.61.61,0,0,1-.17-.19c-.37-.67-1.42-.52-1.42-.52a7.85,7.85,0,0,1,3.82-.24s0-.15.25-.31a6.2,6.2,0,0,1,2.35-3.49,6.9,6.9,0,0,0-1.11,2.75c4.57-2.41,18.65-7.75,29.8-2.89a93.26,93.26,0,0,0,19.17,5.94,8,8,0,0,1,6.47,8.14C2455.81,1130.63,2453.88,1138.58,2448.67,1140.47Z" transform="translate(0)" style="fill:#0b5553"/><path d="M2392.2,1222.49l10.73,230.09s89.5,1.46,86.94-18.8-32.26-204.25-32.26-204.25l-12.92-8.78-14,4.94Z" transform="translate(0)" style="fill:#e9f3fe"/><path d="M2457.23,1415a29.88,29.88,0,0,1-7.09,17.3l-6.31,7.12a3.21,3.21,0,0,1-5.34-.46l-7.62-12a18.38,18.38,0,0,1-2.63-11.38c.82-9.12,2.33-26.69,3.58-43.65,1-13.74,1.84-27.09,2-35.2.42-25.91-3-108.48-3-108.48l5.06.26s12.27,31.93,18.44,75.48c1.52,10.73,2.67,22.15,3.17,34C2457.49,1338,2459.68,1385.12,2457.23,1415Z" transform="translate(0)" style="fill:#ac1453"/><path d="M2421.71,1366.62s-4.55,61.45-13.27,100c0,0-52.23,2.77-64.63-17.39,0,0,9.81-83,9.81-99.86,0-5.92-.45-14-1.18-23-1.08-13.62-2.77-29.41-4.37-43.15-2.22-19.15-4.26-34.37-4.26-34.37l43.06-35Z" transform="translate(0)" style="fill:#096c6d"/><path d="M2525.34,1439.33s-9.74,6.1-25.09,4.05c-5.58,13.7-18.76,18.35-18.76,17.11,0-.15-2.95-25.87-6.45-56.18-.34-3-.69-6.1-1.05-9.19,0-.26-.07-.53-.09-.79-.59-5.08-1.18-10.21-1.77-15.33-4.21-36.5-8.24-71.49-8.24-71.49-9.16-56.06-16.92-93.12-16.92-93.12,19.54,2,32.73,9,38,18.11,15.59,27,26.88,94.64,33.5,145.24,0,.13,0,.26.05.39,1.14,8.74,2.14,17,3,24.37.06.47.11.93.16,1.38C2524.1,1425.09,2525.34,1439.33,2525.34,1439.33Z" transform="translate(0)" style="fill:#096c6d"/><path d="M2434.73,1178.92s.85,2.62,7.49,1.66c0,0,5.57-.8,5.15-3.73C2447.37,1176.85,2441.77,1175.2,2434.73,1178.92Z" transform="translate(0)" style="fill:#fff"/><path d="M2389.67,1213.65c-.11-2.19,10.29-5.22,10.29-5.22s11.9,16.5,31.51,16.79c0,0-5.58,10.87-12.17,13.69C2419.3,1238.91,2390.31,1226.7,2389.67,1213.65Z" transform="translate(0)" style="fill:#e9f3fe"/><path d="M2431.47,1224.83s10.39-6.16,10.43-12.84c0,0,6.71-.84,9.64,2.42,0,0,2.47,11.44-.8,18.09C2450.74,1232.5,2435.78,1230.22,2431.47,1224.83Z" transform="translate(0)" style="fill:#e9f3fe"/><path d="M2424.42,1223.84l14.09-3.38a2.14,2.14,0,0,1,1.79,2.46c-.05,2.29-4,9-5.7,9.53S2421.09,1228.48,2424.42,1223.84Z" transform="translate(0)" style="fill:#ac1453"/><path d="M2391.31,1212.52c-.11-2.19,6.93-6.72,6.93-6.72s13.62,15.93,33.23,16.21c0,0-5.58,10.88-12.17,13.7C2419.3,1235.71,2392,1225.56,2391.31,1212.52Z" transform="translate(0)" style="fill:#e9f3fe"/><path d="M2431.47,1222s10.51-5.57,10.55-12.25c0,0,6.34,2.79,9.27,6,0,0,2.72,7.22-.55,13.87C2450.74,1229.68,2435.78,1227.4,2431.47,1222Z" transform="translate(0)" style="fill:#e9f3fe"/><path d="M2457.23,1415a29.88,29.88,0,0,1-7.09,17.3l-6.31,7.12a3.21,3.21,0,0,1-5.34-.46l-7.62-12a18.38,18.38,0,0,1-2.63-11.38c.82-9.12,2.33-26.69,3.58-43.65,14.18-19.45,20.12-46.16,22.5-67.94,1.52,10.73,2.67,22.15,3.17,34C2457.49,1338,2459.68,1385.12,2457.23,1415Z" transform="translate(0)" style="fill:#861246"/><path d="M2398.24,1205.8s27.89,116.83,23.45,160.84c0,0-10.26-47-34.94-85.55,0,0,9-7.92,8.52-10.84a30.88,30.88,0,0,0-13.17-.65s.72-50.36,4.76-55.68S2398.24,1205.8,2398.24,1205.8Z" transform="translate(0)" style="fill:#0b5553"/><path d="M2442,1209.76c-4.18.34,27.64,114.17,30,150.65,0,0-2.8-65.1-2.52-83.87,0,0-11.59-6.13-11.59-8.28s12.36-8,12.36-8-7.82-40.1-12.09-44.52S2442,1209.76,2442,1209.76Z" transform="translate(0)" style="fill:#0b5553"/><path d="M2500.27,1448s-1.93,2.62-.7,9.18.55,10.2,2.25,9.06,5.21-9,5.21-9Z" transform="translate(0)" style="fill:#ffb27d"/><path d="M2418.3,1384.62c-32.48-4.85-54.19-35.2-65.86-58.18-1.08-13.62-2.77-29.41-4.37-43.15l7.6-21.68Z" transform="translate(0)" style="fill:#0b5553"/><path d="M2521.66,1403.88c-6.46,1.49-26.08,5.16-46.62.43-.34-3-.69-6.1-1.05-9.19,0-.26-.07-.53-.09-.79.67-2.64,1.35-5.27,2-7.91,11.62,4.16,37.59,13.28,45.58,16.08C2521.56,1403,2521.61,1403.43,2521.66,1403.88Z" transform="translate(0)" style="fill:#0b5553"/><path d="M2386.86,1213.92s-28.53,3.6-41.56,21.79,14.95,117.2,73,148.91c27.92,15.25,108.5,18.69,108.5,18.69s4.43.44,6.18-8.48c.62-3.11,0-8.41,0-8.41s-91.72-34.39-99.78-41S2386.86,1213.92,2386.86,1213.92Z" transform="translate(0)" style="fill:#096c6d"/><path d="M2567.36,1386.66s-9.59-2.4-12.34-3c-3.22-.68-6.15-3.1-7.09-2-1.74,2.11,5.6,5.84,8.5,12.37,1.42,3.21,4.29,5,10,2.59C2569.35,1395.5,2571.65,1389.5,2567.36,1386.66Z" transform="translate(0)" style="fill:#e2915a"/><path d="M597,1176.06h11.67a0,0,0,0,1,0,0v604.61a5.84,5.84,0,0,1-5.84,5.84h0a5.84,5.84,0,0,1-5.84-5.84V1176.06a0,0,0,0,1,0,0Z" transform="translate(1205.64 2962.57) rotate(180)" style="fill:#2b478b"/><polygon points="452.09 1311.6 727.98 1311.6 795.56 1250.33 727.98 1190.95 452.09 1190.95 452.09 1311.6" style="fill:#ac1453"/><path d="M493,1268.47l10.78-4.8a20.39,20.39,0,0,0,5.58,7.37,13.34,13.34,0,0,0,14.8.14,7,7,0,0,0,2.76-5.85,6.56,6.56,0,0,0-2-4.91q-2-2-7.34-3.92c-.48-.2-1.18-.46-2.08-.77q-9.3-3.39-12.95-5.77a15.55,15.55,0,0,1-5.52-5.86,16.83,16.83,0,0,1-1.91-8.06,15.41,15.41,0,0,1,5.71-12.42q5.71-4.77,14.92-4.77,8.07,0,13.44,3.48a20,20,0,0,1,7.87,10.31l-10.78,3.95a15.43,15.43,0,0,0-4.71-6.18,11.34,11.34,0,0,0-6.71-1.93,9.4,9.4,0,0,0-6.09,1.8,6,6,0,0,0-2.23,4.91q0,4.8,10.91,9.08c2.23.88,4,1.59,5.26,2.12q9.13,3.87,12.42,7.9t3.29,10.53q0,8.75-5.73,13.75t-15.75,5a27,27,0,0,1-14.75-3.82A23.61,23.61,0,0,1,493,1268.47Z" transform="translate(0)" style="fill:#fff"/><path d="M544.86,1251.28q0-15.33,7-23.92t19.27-8.6q12.31,0,19.3,8.6t7,23.92q0,15.24-7,23.87t-19.28,8.64q-12.23,0-19.23-8.64T544.86,1251.28Zm12.06,0q0,10.74,3.6,16.27a12.85,12.85,0,0,0,21.14,0q3.62-5.54,3.61-16.27t-3.61-16.43a12.76,12.76,0,0,0-21.14,0Q556.92,1240.45,556.92,1251.28Z" transform="translate(0)" style="fill:#fff"/><path d="M607.56,1282.73v-63.21h12.09V1272h26.66v10.78Z" transform="translate(0)" style="fill:#fff"/><path d="M655.27,1282.73v-63.21h19.31q14.65,0,22.14,7.94t7.49,23.43q0,15.88-7.53,23.86t-22.56,8Zm11.93-10.44h6.49q9.76,0,14.09-5t4.33-16.37q0-10.74-4.5-15.79t-14.09-5H667.2Z" transform="translate(0)" style="fill:#fff"/><path d="M3167.7,1786.51H139.57a4.33,4.33,0,0,1-4.31-4.32h0a4.33,4.33,0,0,1,4.31-4.32H3167.7a4.33,4.33,0,0,1,4.32,4.32h0A4.34,4.34,0,0,1,3167.7,1786.51Z" transform="translate(0)" style="fill:#0b5553"/></svg>