<?xml version="1.0" encoding="UTF-8" standalone="no"?>
<svg
   xmlns:dc="http://purl.org/dc/elements/1.1/"
   xmlns:cc="http://creativecommons.org/ns#"
   xmlns:rdf="http://www.w3.org/1999/02/22-rdf-syntax-ns#"
   xmlns:svg="http://www.w3.org/2000/svg"
   xmlns="http://www.w3.org/2000/svg"
   xmlns:sodipodi="http://sodipodi.sourceforge.net/DTD/sodipodi-0.dtd"
   xmlns:inkscape="http://www.inkscape.org/namespaces/inkscape"
   version="1.1"
   id="svg2"
   xml:space="preserve"
   width="3333.3333"
   height="2666.6667"
   viewBox="0 0 3333.3333 2666.6667"
   sodipodi:docname="Семья.eps"><metadata
     id="metadata8"><rdf:RDF><cc:Work
         rdf:about=""><dc:format>image/svg+xml</dc:format><dc:type
           rdf:resource="http://purl.org/dc/dcmitype/StillImage" /></cc:Work></rdf:RDF></metadata><defs
     id="defs6" /><sodipodi:namedview
     pagecolor="#ffffff"
     bordercolor="#666666"
     borderopacity="1"
     objecttolerance="10"
     gridtolerance="10"
     guidetolerance="10"
     inkscape:pageopacity="0"
     inkscape:pageshadow="2"
     inkscape:window-width="640"
     inkscape:window-height="480"
     id="namedview4" /><g
     id="g10"
     inkscape:groupmode="layer"
     inkscape:label="ink_ext_XXXXXX"
     transform="matrix(1.3333333,0,0,-1.3333333,0,2666.6667)"><g
       id="g12"
       transform="scale(0.1)"><path
         d="M 0,0 H 25000 V 20000 H 0 Z"
         style="fill:#ffffff;fill-opacity:1;fill-rule:nonzero;stroke:none"
         id="path14" /><path
         d="M 21339,1772.1 9508.95,1759 l -301.92,-0.4 h -1.17 l -2373.51,-2.5 -2836.43,-3.2 c 0,0 -3883.279,2826.5 -563.33,6484.1 465.89,513.3 802.65,1002 1044.95,1469.5 317.42,612 473,1187.4 544.41,1733.2 19.44,148.9 32.72,295.5 41.34,440.1 28.9,487.8 4.56,952.1 -12.23,1398.6 -74.6,1976.6 -3.39,3601.2 5474.44,5349 5328.9,1700.2 10899.9,-2293.1 10920.3,-4922.7 1.6,-200.4 -2.5,-391.7 -11.5,-574.2 -79.2,-1610.7 -540.3,-2554.6 -889.6,-3250.7 -422,-840.9 -681,-1320.1 93.1,-2175.6 1487.8,-1644.2 1806.4,-3347 701.2,-5932.1"
         style="fill:#d3f0e6;fill-opacity:1;fill-rule:nonzero;stroke:none"
         id="path16" /><path
         d="m 14718.1,6161.1 c 0,0 437.3,1279.7 1360.4,1903.7 560.9,379.2 1070.6,540.6 1376.4,540.6 197.4,0 309.9,-67.3 296.3,-186.6 -34.5,-304.1 -1349.8,-518.6 -1973.2,-1088.4 -623.5,-569.7 -1059.9,-1169.3 -1059.9,-1169.3"
         style="fill:#c5ebdf;fill-opacity:1;fill-rule:nonzero;stroke:none"
         id="path18" /><path
         d="m 14809.8,5765.8 c 0,0 398.8,902.3 1109.1,1297.4 392.5,218.3 742.9,308.4 970.3,308.4 184.2,0 287.7,-59 267.8,-157 -44.3,-218.8 -1013.8,-291.5 -1502.9,-666.1 -489.2,-374.6 -844.3,-782.7 -844.3,-782.7"
         style="fill:#c5ebdf;fill-opacity:1;fill-rule:nonzero;stroke:none"
         id="path20" /><path
         d="m 10378.7,8663.5 c 0,0 -461.3,589.5 -1110.1,1142.2 -648.8,552.7 -1982.89,722.9 -2028.44,1028.4 -18.81,126.3 105.3,199.1 324.78,199.1 311.68,0 815.58,-147.1 1374.78,-497.4 952.98,-597 1438.98,-1872.3 1438.98,-1872.3"
         style="fill:#c5ebdf;fill-opacity:1;fill-rule:nonzero;stroke:none"
         id="path22" /><path
         d="m 10300.1,8261.6 c 0,0 -372.57,399.2 -879.07,759.8 -506.51,360.6 -1486.85,399.9 -1539.28,619.1 -24.79,103.6 90.81,168.3 296.84,168.3 229.8,0 572.1,-80.6 957.21,-277.6 730.38,-373.6 1164.3,-1269.6 1164.3,-1269.6"
         style="fill:#c5ebdf;fill-opacity:1;fill-rule:nonzero;stroke:none"
         id="path24" /><path
         d="m 6105.83,8746 c 237.25,675.1 1383.68,374.3 1383.68,374.3 0,0 700.48,-1263.5 927.95,-1309.1 227.48,-45.6 -387.96,1197.2 -387.96,1197.2 448,10.3 1541.44,-618.4 1541.44,-618.4 0,0 -175.27,-1401 56.43,-1389.2 231.71,11.8 91.91,1248.4 91.91,1248.4 420.92,-160.8 785.72,-692.6 785.72,-692.6 442.1,-854.9 -678.5,-1378.4 -678.5,-1378.4 0,0 -50.25,-486.8 209.9,-1068.6 v 0 c 0,0 60.4,-108.3 116.6,-289 l -117.4,8.6 c -7.2,32.2 -15.6,63.4 -25.1,93.4 l -0.2,0.6 -0.4,1.3 c -6.7,18.7 -16.38,45.4 -28.46,77.9 l -0.05,0.1 -0.07,0.2 c -30.68,72.8 -51.09,126.4 -63.65,165 l -0.1,0.3 c -91.21,228.3 -224.85,526.7 -323.64,594.6 0,0 14.33,17.3 29.08,51.9 -9.27,-16.5 -18.94,-33.8 -29.08,-51.9 -232.58,-415.7 -1242.3,-413.5 -1793.47,-257.6 -551.17,156 -295.61,295.9 24.58,529.9 320.19,234 946.58,120 1140.52,206.7 193.93,86.7 -71.31,207.2 -446.5,206 -375.19,-1.2 -589.2,-360.6 -1196.09,-373.6 -606.89,-13 -982.61,1154.4 -982.61,1154.4 406.62,-159.8 1169.67,14.8 1208.94,156.2 39.25,141.4 -1066.69,208.4 -1235.71,264.1 -169.02,55.7 -445,422.3 -207.76,1097.3"
         style="fill:#a7e1d0;fill-opacity:1;fill-rule:nonzero;stroke:none"
         id="path26" /><path
         d="m 8339.48,1756.1 c 0.61,0.5 1.22,1.1 1.84,1.6 l 864.54,0.9 h 1.17 l 301.92,0.4 955.25,1.1 c 0.1,-0.6 0.2,-1.1 0.3,-1.7 l -2125.02,-2.3"
         style="fill:#d0efe5;fill-opacity:1;fill-rule:nonzero;stroke:none"
         id="path28" /><path
         d="m 8341.32,1757.7 c 50.42,44.3 110.63,92.5 173.48,145 291.24,243.5 896.6,173.6 1076.48,268.5 160.83,84.9 -30.9,172.7 -329.61,172.7 -35.22,0 -71.92,-1.2 -109.71,-3.8 -358.23,-24.5 -540.3,-381 -1119.17,-431.3 -13,-1.1 -25.95,-1.7 -38.8,-1.7 -559.17,0 -971.62,1043.1 -971.62,1043.1 85.45,-27.3 185.6,-38.9 290.49,-38.9 384.16,0 831.97,155.4 854.51,263.4 28.68,137.5 -1031.77,132.6 -1196.72,175.3 -164.86,42.7 -451.29,375.6 -266.78,1035.1 111.56,398.6 562.45,477.4 901.77,477.4 222.19,0 396.53,-33.8 396.53,-33.8 0,0 747.77,-1163.1 967.9,-1192.4 2.78,-0.4 5.43,-0.6 7.93,-0.6 195.41,0 -453.08,1119.8 -453.08,1119.8 14.6,1.3 30.01,1.9 46.08,1.9 454.03,0 1464.7,-496.5 1464.7,-496.5 0,0 -78.57,-1323.8 134.3,-1323.8 2,0 4,0.2 6.1,0.4 220.6,25.7 10.1,1198.1 10.1,1198.1 412,-127.4 793.6,-612.6 793.6,-612.6 475.4,-789 -562.3,-1358.7 -562.3,-1358.7 0,0 -6,-161.5 46.7,-404.2 l -955.25,-1.1 -301.92,-0.4 h -1.17 l -864.54,-0.9"
         style="fill:#bce8da;fill-opacity:1;fill-rule:nonzero;stroke:none"
         id="path30" /><path
         d="m 17579.8,1812.5 h -2963.7 c 0.1,24 -0.1,46.6 -0.6,67.7 -2.7,124.7 -13.2,196.2 -13.2,196.2 0,0 -1533.9,635.7 -991.7,1808.4 0,0 457.8,734.8 1012.9,975.5 0,0 -114.3,-1666.8 197.1,-1668.8 0.2,0 0.4,0 0.6,0 310.7,0 -7.1,1866.4 -7.1,1866.4 0,0 1429.3,908 2030.8,920.7 0,0 -719.9,-1631 -467.5,-1631 5.6,0 11.5,0.8 18,2.4 302.4,74.7 1167.1,1810.6 1167.1,1810.6 0,0 401.5,124.5 840.4,124.5 415,0 863.5,-111.3 1037.6,-544.5 358.2,-891.3 9.7,-1399.3 -213.8,-1484 -223.3,-84.7 -1702.6,-240.1 -1641.7,-427.4 40.6,-124.5 511,-249.8 979.3,-249.8 236.2,0 471.8,31.9 651.5,111.8 0,0 -434.9,-1587.9 -1249.6,-1606.5 -15.6,-0.3 -31.1,-0.5 -46.4,-0.5 -381.6,0 -649.8,107.9 -881.9,215.8 -232.1,107.8 -428.3,215.7 -665.8,215.7 -10.6,0 -21.3,-0.2 -32.2,-0.7 -503.3,-20.4 -851.9,-197.8 -586.7,-302.7 75.8,-29.9 198,-35.8 344.1,-35.8 47.3,0 97.2,0.6 148.7,1.3 51.6,0.6 105,1.2 159.4,1.2 311.2,0 655.1,-20.2 889.8,-176.3 65,-43.2 128.2,-84 186.1,-122.5 34.9,-23.3 68,-45.8 98.5,-67.7"
         style="fill:#b6e6d8;fill-opacity:1;fill-rule:nonzero;stroke:none"
         id="path32" /><path
         d="m 13740.2,8258.8 -105.7,0.1 c 62.4,158.1 123.7,251.1 123.7,251.1 v 0 c 271.6,503.7 259,943 259,943 0,0 -968.7,543.2 -516.1,1279.4 0,0 362.1,452 749.8,568.1 0,0 -207.4,-1098.1 -0.7,-1124.1 2.1,-0.3 4.1,-0.4 6.2,-0.4 199.2,0.1 136.7,1240.7 136.7,1240.7 0,0 944.4,453.5 1372.9,453.5 17,0 33.3,-0.7 48.6,-2.2 0,0 -618.8,-1046.8 -434,-1046.7 2.2,0 4.5,0.1 7,0.4 206.7,25.7 918,1110.6 918,1110.6 0,0 154.2,28.4 353.7,28.4 320.2,0 757.3,-73.3 860.6,-455.5 167.6,-620.3 -104,-930.3 -259,-968.9 -155.1,-38.7 -1150,-25.1 -1124.2,-154.4 20.4,-102.6 448.3,-254.3 811.3,-254.3 94.1,0 183.8,10.2 260.9,34 0,0 -393.7,-970.3 -916.4,-970.3 -13.4,0 -26.8,0.6 -40.3,1.9 -542.6,52 -710.3,388 -1046.3,414.1 -39.9,3.1 -78.6,4.5 -115.5,4.5 -272.9,0 -445.9,-79.5 -298,-159.3 167.9,-90.5 736.4,-30.1 1007.6,-260.9 271.2,-230.9 490.8,-373.1 -13.2,-476.2 -137.2,-28 -304.1,-43.6 -478,-43.6 -464.8,0 -979.5,111.3 -1111,393.5 v 0 c -93,-54.2 -232.5,-312.6 -329.3,-510.9 l -0.2,-0.3 c -13.8,-33.7 -35.6,-80.4 -67.9,-143.6 l -0.1,-0.1 v -0.1 c -13,-28.3 -23.4,-51.6 -30.7,-67.9 l -0.5,-1.1 -0.2,-0.5 c -10.5,-26.3 -20,-53.7 -28.7,-82 m 435,854.9 c 10.9,-32 22.6,-48.4 22.6,-48.4 -7.9,16.9 -15.4,33 -22.6,48.4"
         style="fill:#c5ebdf;fill-opacity:1;fill-rule:nonzero;stroke:none"
         id="path34" /><path
         d="m 10041.2,10371.8 c -40.1,77.3 874.8,355.8 889.3,-407.4 0,0 1714,42.1 895.6,997.4 -283.3,330.7 -254.2,604.2 -245.7,858.7 8.6,254.6 -176.4,994.4 -810.8,919.9 0,0 -166.2,67.7 -373.5,-39.9 -471.54,-244.6 -1527.8,-2610.2 -354.9,-2328.7"
         style="fill:#125452;fill-opacity:1;fill-rule:nonzero;stroke:none"
         id="path36" /><path
         d="m 12843.3,9518.5 c 0,0 111.5,169.8 201.4,173.2 90,3.3 256.5,49.9 243.1,16.6 -13.3,-33.3 -116.5,-36.6 -126.5,-56.6 -10,-20 153.2,-50 199.8,-53.3 46.6,-3.3 156.5,0 153.2,-23.3 -3.3,-23.3 -198.1,-119.9 -335.5,-106.6 -137.4,13.3 -307.2,-39.9 -307.2,-39.9 l -28.3,89.9"
         style="fill:#f79765;fill-opacity:1;fill-rule:nonzero;stroke:none"
         id="path38" /><path
         d="m 11229.8,9463.5 c 0,0 60.6,-120.1 170.6,-258 132.6,-166.1 337,-357.9 593.7,-395.8 122.6,-18 242.4,8.3 352.6,57.3 l 0.4,0.1 c 311.7,138.4 546.1,456.6 546.1,456.6 55,149.8 -34.9,251.4 -34.9,251.4 0,0 -629.5,-141.5 -689.4,-111.6 -59.9,30 -409.6,1037.4 -492.8,1163.9 -83.4,126.6 -367.1,192.4 -367.1,192.4 l -79.2,-1356.3"
         style="fill:#a51256;fill-opacity:1;fill-rule:nonzero;stroke:none"
         id="path40" /><path
         d="m 11400.4,9205.5 c 132.6,-166.1 337,-357.9 593.7,-395.8 122.6,-18 242.4,8.3 352.6,57.3 -12.2,-1.6 -323.5,-40.1 -447.5,181.9 -126.6,226.5 -263.5,586.2 -451.5,466.3 -81.1,-51.8 -77.5,-180.3 -47.3,-309.7"
         style="fill:#7d0f44;fill-opacity:1;fill-rule:nonzero;stroke:none"
         id="path42" /><path
         d="m 8881.58,2669.4 c 0,0 -192.06,-175.2 -154.58,-299.8 37.47,-124.5 210.79,-207.5 234.21,-359.8 23.42,-152.2 117.11,-235.2 201.43,-235.2 84.31,0 401.98,0 401.98,0 0,0 62.07,107.1 -87.83,139.4 -149.9,32.3 -206.42,211.2 -197.05,377.2 9.37,166 -14.05,387.4 -14.05,387.4 l -318.53,73.8 -65.58,-83"
         style="fill:#125452;fill-opacity:1;fill-rule:nonzero;stroke:none"
         id="path44" /><path
         d="m 10507.1,2595 c 0,0 -69.1,-742.5 15.3,-784 l 1079,2.2 c 0,0 0,124.5 -173.3,152.2 -173.3,27.7 -477.8,129.2 -529.3,355.2 -51.5,226 -391.7,274.4 -391.7,274.4"
         style="fill:#125452;fill-opacity:1;fill-rule:nonzero;stroke:none"
         id="path46" /><path
         d="m 9738.17,7921.9 c 222.05,498 357.93,640.9 332.03,795.5 -19.3,115 58.7,2144.9 58.7,2144.9 26.4,8.1 79.2,15.4 108.1,21.9 91.1,20.2 166.5,84.2 197.8,172 37.8,105.9 67.9,262.2 67.2,458 l 28.4,-5.6 478.3,-94.7 c 0,0 -10.9,-150.5 -11.2,-292.3 0,-1.2 0,-2.4 0,-3.5 -0.6,-123.2 80.2,-231.9 198.5,-266 60.4,-17.5 113,-32.4 113,-32.4 0,0 175.6,-501.4 209.1,-1016.4 33.6,-515.1 -319.3,-738.9 2.7,-1768.2 328.7,-1051.3 -1905.29,-388.4 -1782.63,-113.2"
         style="fill:#f79765;fill-opacity:1;fill-rule:nonzero;stroke:none"
         id="path48" /><path
         d="m 11008.7,11413.9 c 0,0 -10.9,-150.5 -11.2,-292.3 -267.7,7.5 -409.1,251.7 -467.1,387 l 478.3,-94.7"
         style="fill:#f57e43;fill-opacity:1;fill-rule:nonzero;stroke:none"
         id="path50" /><path
         d="m 11098.1,11279.6 c 0,0 -633.3,-10.4 -633.7,384 -0.4,394.5 -82.4,658.8 321.8,682.1 404.3,23.4 483,-127.1 515.2,-258.7 32.2,-131.6 -38.6,-794.5 -203.3,-807.4"
         style="fill:#f79765;fill-opacity:1;fill-rule:nonzero;stroke:none"
         id="path52" /><path
         d="m 11074.6,12355.4 c 0,0 -173.3,-462.8 -439.4,-531.2 -266.1,-68.4 -381.5,2.9 -381.5,2.9 0,0 204.1,162.1 246.4,445.1 0,0 443.7,303.4 574.5,83.2"
         style="fill:#125452;fill-opacity:1;fill-rule:nonzero;stroke:none"
         id="path54" /><path
         d="m 11031.7,12317.8 c 0,0 128.5,-48.1 181.4,-141.8 51.8,-91.7 95.9,-213.2 85.6,-362.1 0,0 130.7,314.5 -16.1,492.4 -155.7,188.7 -250.9,11.5 -250.9,11.5"
         style="fill:#125452;fill-opacity:1;fill-rule:nonzero;stroke:none"
         id="path56" /><path
         d="m 9677.06,9964.4 c 0,0 -16.08,-226.8 0,-498.8 10.69,-180.3 193.11,-421.9 218.98,-481.6 64.94,-149.9 138.16,-174.3 138.16,-174.3 l 566.6,-138.8 199.2,-48.8 628.2,187.6 c 0,0 286.1,798.7 171.2,1248.3 -114.9,449.6 -290.4,761.8 -290.4,761.8 0,0 -512.6,-502 -1180.1,42.5 l -451.84,-897.9"
         style="fill:#a51256;fill-opacity:1;fill-rule:nonzero;stroke:none"
         id="path58" /><path
         d="m 9842.89,9392 c 10.69,-180.3 27.28,-348.3 53.15,-408 64.94,-149.9 138.16,-174.3 138.16,-174.3 l 566.6,-138.8 400,63.2 c 0,0 -745.8,-87.7 -778.5,1044.7 L 9842.89,9392"
         style="fill:#7d0f44;fill-opacity:1;fill-rule:nonzero;stroke:none"
         id="path60" /><path
         d="m 11388.2,8688.5 c 0,0 311.1,-968.3 331.1,-1298 20,-329.7 -594.7,-4683.5 -619.4,-4835.5 -23.3,-143.2 -201.1,-234.4 -201.1,-234.4 0,0 -81.8,-48.3 -198.5,-15.3 -162,45.7 -213.2,100.5 -213.2,100.5 0,0 -242.1,3105.1 -92.2,4214.3 149.8,1109.2 151.6,2068.4 151.6,2068.4 h 841.7"
         style="fill:#2ca98a;fill-opacity:1;fill-rule:nonzero;stroke:none"
         id="path62" /><path
         d="m 10070.2,8717.4 c 0,0 -474.59,-636.7 -518.83,-1067.2 -44.24,-430.4 -69.41,-1942.3 -163.66,-2361.9 -94.25,-419.6 -440.55,-1227.1 -440.55,-2535.9 0,0 35.99,-75 147.14,-114.9 35.54,-12.8 83.16,-25.2 129.39,-35.8 91.66,-21 185.7,23.8 227.53,108 234.12,471.4 979.88,1991.7 1018.08,2307.3 27.1,223.3 262.6,1701.5 776.2,2568.8 123.3,208.2 -75.7,1036.3 -75.7,1036.3 l -1099.6,95.3"
         style="fill:#65cab2;fill-opacity:1;fill-rule:nonzero;stroke:none"
         id="path64" /><path
         d="m 11437.9,8838 c 0,0 -124.9,-98.8 -373,-103.8 -296.3,-5.9 -1030.7,75.6 -1030.7,75.6 0,0 -32.6,-91.2 -31.3,-187.4 0,0 896.9,-226.3 1416.6,-33.1 0,0 67,126.1 18.4,248.7"
         style="fill:#125452;fill-opacity:1;fill-rule:nonzero;stroke:none"
         id="path66" /><path
         d="m 11045.6,8631.9 c 0,-59.7 40.6,-108.2 90.4,-108.2 49.9,0 90.4,48.5 90.4,108.2 0,59.7 -40.5,108.2 -90.4,108.2 -49.8,0 -90.4,-48.5 -90.4,-108.2 z m -44.8,0 c 0,84.4 60.7,153 135.2,153 74.6,0 135.3,-68.6 135.3,-153 0,-84.4 -60.7,-153.1 -135.3,-153.1 -74.5,0 -135.2,68.7 -135.2,153.1"
         style="fill:#ffffff;fill-opacity:1;fill-rule:nonzero;stroke:none"
         id="path68" /><path
         d="m 10695.1,7985.2 c 0,0 171.8,-240.6 220,-278.4 48.2,-37.8 140.8,-161.2 157.4,-226.3 0,0 -0.8,-26.6 -25.6,-26.6 -24.8,0 -80.6,95.4 -121.4,80.1 0,0 51.9,-126.2 82.4,-158.2 30.5,-32 47.9,-192.7 41.7,-227.6 -6.2,-34.9 -215.8,131.5 -303.7,207.1 -46.7,40.3 -25.4,177.3 -39.9,287.7 -12.7,96.9 -217.4,213 -217.4,213 l 206.5,129.2"
         style="fill:#f79765;fill-opacity:1;fill-rule:nonzero;stroke:none"
         id="path70" /><path
         d="m 10128.9,10862.3 c 0,0 -501.41,-50.6 -621.77,-425.8 -120.36,-375.2 54.32,-1482.7 199.89,-1765.6 145.57,-283 640.48,-897.9 975.28,-972.9 l 164.5,117.7 c 0,0 -586.6,1061.6 -586.6,1118.6 0,57.1 -29.1,1091.1 -36.4,1200 -7.3,109 -94.9,728 -94.9,728"
         style="fill:#a51256;fill-opacity:1;fill-rule:nonzero;stroke:none"
         id="path72" /><path
         d="m 13016.2,11623.8 c 0,0 -917.8,-1604 -733.7,-2157.1 184,-553.2 799.9,-588.5 799.9,-588.5 l -66.2,2745.6"
         style="fill:#65cab2;fill-opacity:1;fill-rule:nonzero;stroke:none"
         id="path74" /><path
         d="m 12639.1,9716.6 c 0,0 -284.4,-103.4 -212.3,-404.5 72.1,-301.2 337.1,-65 337.1,-65 l 15.5,199.2 -140.3,270.3"
         style="fill:#2ca98a;fill-opacity:1;fill-rule:nonzero;stroke:none"
         id="path76" /><path
         d="m 12540.2,1752.9 h 1281.5 c 91.8,62.2 -24.8,671 -24.8,671 0,0 -349.7,132.7 -410.1,-137.2 -60.6,-269.6 -445.5,-355.4 -649.2,-388.3 -139.4,-22.7 -183.4,-99.2 -197.4,-145.5"
         style="fill:#125452;fill-opacity:1;fill-rule:nonzero;stroke:none"
         id="path78" /><path
         d="m 14440.7,1752.9 h 1281.4 c 91.8,62.2 -24.7,671 -24.7,671 0,0 -349.8,132.7 -410.2,-137.2 -60.6,-269.6 -445.4,-355.4 -649.1,-388.3 -139.4,-22.7 -183.5,-99.2 -197.4,-145.5"
         style="fill:#125452;fill-opacity:1;fill-rule:nonzero;stroke:none"
         id="path80" /><path
         d="m 12885,7962.9 c 0,0 57.6,-718.7 125.3,-1582.4 92,-1173.4 340.2,-4082.7 340.2,-4082.7 0,0 162.7,-138.8 523,-62.9 0,0 306.8,1003.7 398.5,2149.2 1.4,18.8 2.9,37.7 4.3,56.6 85.3,1166.1 218,3621.7 218,3621.7 L 12885,7962.9"
         style="fill:#177071;fill-opacity:1;fill-rule:nonzero;stroke:none"
         id="path82" /><path
         d="m 12809.6,8337.3 c 0,0 133,-1093.1 200.7,-1956.8 L 14272,4384.1 c 1.4,18.8 2.9,37.7 4.3,56.6 85.3,1166.1 218,3621.7 218,3621.7 l -1684.7,274.9"
         style="fill:#125452;fill-opacity:1;fill-rule:nonzero;stroke:none"
         id="path84" /><path
         d="m 13233.1,8211.2 c 0,0 915.1,-2277.8 1207.6,-3141.3 208.4,-615 796,-2772.6 796,-2772.6 0,0 255.6,-77.7 470.4,72.6 0,0 218.6,2204.3 -223,2825.9 -234.3,329.7 -4.1,3618.4 -954.2,3645 -950,26.5 -1296.8,-629.6 -1296.8,-629.6"
         style="fill:#177071;fill-opacity:1;fill-rule:nonzero;stroke:none"
         id="path86" /><path
         d="m 13641.8,11569 c 139.7,-73.6 276.1,-78.1 394.3,-53 108.1,22.7 200.9,70.4 267,112.7 67.9,43.4 107.8,81.1 107.8,81.1 0,0 -4.7,6.9 -12.7,20.3 -41.2,70.6 -166.4,324.4 -110.7,732.2 0.7,5.3 -39.7,-2.3 -100.7,-16.7 -181.6,-43 -546.6,-146.5 -562.7,-151.1 h -0.7 c 0,0 -4.4,-85.8 -19.5,-239.5 -1.2,-13.6 -2.6,-27.7 -4.1,-42.4 -1.8,-18 -3.7,-37.2 -5.9,-56.8 -16.9,-159.8 47.9,-386.8 47.9,-386.8"
         style="fill:#f79765;fill-opacity:1;fill-rule:nonzero;stroke:none"
         id="path88" /><path
         d="m 13603.9,12055 c 271.1,-62.2 675.6,338 675.6,338 -29.5,22 -60.6,39.4 -92.7,52.6 -181.6,-43 -546.6,-146.5 -562.7,-151.1 h -0.7 c 0,0 -4.4,-85.8 -19.5,-239.5"
         style="fill:#f57f47;fill-opacity:1;fill-rule:nonzero;stroke:none"
         id="path90" /><path
         d="m 12741.9,8594.8 c 19.7,-261.1 52.7,-488.3 52.7,-488.3 895,-258.6 2318.1,29.4 2299,176.7 -10.1,78.5 -19.6,204.7 -24.6,321.3 -0.3,7.5 -0.7,15 -1,22.6 -14.2,341.3 -11.9,811.4 -13.6,1261.5 -1.3,276.4 -4,545.1 -13.3,771.8 0,0 126.9,890.4 -13.9,1036.5 -165,170.9 -698.1,221 -707.4,222.6 0,0 -461.6,-268.4 -728.7,-30.3 0,0 -446.3,-129.4 -574.9,-265.4 -44.4,-46.8 -221.6,-334.2 -226.5,-649.9 -6.6,-440.1 10.6,-940 10.6,-940.1 -4.7,-71.6 -12.4,-163.7 -20.8,-268.9 -8.9,-112.1 -18.9,-238.7 -27.3,-370.7 -4.2,-66.5 -8,-134.4 -11.2,-202.3 -9.5,-209.6 -12.5,-420.4 0.9,-597.1"
         style="fill:#65cab2;fill-opacity:1;fill-rule:nonzero;stroke:none"
         id="path92" /><path
         d="m 13511.8,12316.1 c 0,0 111.5,-40 253.6,-59.1 207.8,-28 481.1,-11.5 566.9,239.9 144.6,423.2 329.3,677 -96.2,849.8 -227.8,92.5 -373.5,97.4 -472.5,62.1 -86,-30.5 -136.6,-91.4 -175,-151.6 -82.7,-129.5 -248.9,-867 -76.8,-941.1"
         style="fill:#f79765;fill-opacity:1;fill-rule:nonzero;stroke:none"
         id="path94" /><path
         d="m 13556.3,13512.8 c -96.1,-23.3 -139.3,-174.7 -47.8,-237.7 164,-112.8 364.4,-68.5 438.3,-101.4 105.8,-47 124.8,-224.5 126.7,-280.8 1.9,-56.5 9.3,-104.1 153,-70.3 23.6,5.5 40.6,3.9 52.2,-3.1 59.6,-35.4 -16.5,-206.8 -39.5,-243.9 0,0 -33.1,-122.8 40.3,-182.6 8.9,-7.1 153,-70.2 500.4,461.4 54.6,83.5 106.7,271.5 22.4,452.5 -84.2,181 -344.7,405.1 -657.3,405.2 -247.3,0 -385.3,-149.9 -588.7,-199.3"
         style="fill:#125452;fill-opacity:1;fill-rule:nonzero;stroke:none"
         id="path96" /><path
         d="m 13969.5,8906.5 c 0,0 -343.4,-226.6 -476,-241.1 -90.2,-9.9 -446.4,4.7 -448.4,49.7 -2.8,63.6 217.6,130.8 274.7,156.3 57.1,25.6 101.8,55 101.4,79.7 -0.4,24.6 -220.8,-57 -197,-3.2 23.7,53.8 227.4,147.4 276.6,156.3 49.2,9.1 207.8,-44.8 269.5,-16.3 61.7,28.5 199.2,-181.4 199.2,-181.4"
         style="fill:#f57f47;fill-opacity:1;fill-rule:nonzero;stroke:none"
         id="path98" /><path
         d="m 13818.8,9105.3 c -45.7,-85.7 150.7,-198.8 150.7,-198.8 0,0 542.9,-258.1 1099.5,-302 -0.3,7.5 -0.7,15 -1,22.6 -14.2,341.3 2.7,1336 1,1786 0,0 -142.6,-549.2 -628.5,-877.7 -307.4,-207.9 -589.3,-369.3 -621.7,-430.1"
         style="fill:#2ca98a;fill-opacity:1;fill-rule:nonzero;stroke:none"
         id="path100" /><path
         d="m 14908.2,11779.7 c 0,0 235.2,-99.3 514.7,-621.7 279.6,-522.4 544.1,-1628.5 430.7,-1808.4 -113.3,-179.9 -1067.8,-591.6 -1899.9,-481.9 0,0 -206.4,188 -164.7,260.5 0,0 1395.1,568.7 1395.9,636.7 0.9,68 -497.7,654.2 -526,946 -28.3,291.8 249.3,1068.8 249.3,1068.8"
         style="fill:#65cab2;fill-opacity:1;fill-rule:nonzero;stroke:none"
         id="path102" /><path
         d="m 13527.8,10458.3 c 0,0 16.6,-178.9 0,-225.3 -16.5,-46.4 -491.7,-56.8 -503.7,-13.3 -12,43.6 -29.8,175.7 0,198.9 29.8,23.2 503.7,39.7 503.7,39.7"
         style="fill:#f79765;fill-opacity:1;fill-rule:nonzero;stroke:none"
         id="path104" /><path
         d="m 13214.2,8796.7 h 106.8 c 264.5,0 480.9,216.4 480.9,480.9 v 460.8 c 0,264.5 -5.7,499.5 -290.1,586.8 l -499.9,-37.7 c -431.8,-119.2 -278.5,-284.6 -278.5,-549.1 v -460.8 c 0,-264.5 216.4,-480.9 480.8,-480.9"
         style="fill:#f79765;fill-opacity:1;fill-rule:nonzero;stroke:none"
         id="path106" /><path
         d="m 13023.6,10293.9 c 0,0 -117.8,-30.2 -202,16.3 -121.5,67.1 -266.8,104.6 -292.2,135.2 -43,51.9 -252.7,265.5 -252.7,265.5 l -100.7,-67.3 c 0,0 97,-394.5 175.6,-464.9 78.6,-70.5 219.3,-320.6 456.4,-356.1 123.2,-18.4 215.6,471.3 215.6,471.3"
         style="fill:#f79765;fill-opacity:1;fill-rule:nonzero;stroke:none"
         id="path108" /><path
         d="m 12276.7,10710.9 c 0,0 36.8,99.2 6.5,112.2 -30.4,13 -48.1,-59.3 -48.1,-59.3 0,0 -79.1,164.2 -159.5,93.3 -80.4,-70.9 100.4,-213.5 100.4,-213.5 l 100.7,67.3"
         style="fill:#f79765;fill-opacity:1;fill-rule:nonzero;stroke:none"
         id="path110" /><path
         d="m 13529.9,10319.8 c 0,0 117.9,-30.2 202.1,16.3 121.4,67 266.7,104.6 292.1,135.2 43.1,51.9 252.7,265.4 252.7,265.4 l 100.7,-67.3 c 0,0 -97,-394.4 -175.6,-464.9 -78.5,-70.4 -219.2,-320.6 -456.4,-356 -123.1,-18.4 -215.6,471.3 -215.6,471.3"
         style="fill:#f79765;fill-opacity:1;fill-rule:nonzero;stroke:none"
         id="path112" /><path
         d="m 14276.8,10736.7 c 0,0 -36.8,99.2 -6.4,112.2 30.4,13 48.1,-59.2 48.1,-59.2 0,0 79.1,164.1 159.5,93.3 80.4,-70.9 -100.5,-213.6 -100.5,-213.6 l -100.7,67.3"
         style="fill:#f79765;fill-opacity:1;fill-rule:nonzero;stroke:none"
         id="path114" /><path
         d="m 12817.6,9466.7 c 0,0 -279.6,-122.7 -427.2,-166.1 -137.6,-40.4 -307.8,-136.9 -311.3,-152.6 -3.5,-15.6 -5.3,-152.2 64.4,-178.9 69.7,-26.8 826.6,-135 938.9,-90.9 0,0 -80.7,542.6 -264.8,588.5"
         style="fill:#f79765;fill-opacity:1;fill-rule:nonzero;stroke:none"
         id="path116" /><path
         d="m 12089.6,9432.2 c 0,0 133.3,-9.3 211.8,-107.3 0,0 31.9,-42.6 89,-24.3 0,0 209.9,-134 76.1,-387.1 0,0 -282.8,17.7 -323,55.6 -40.3,37.9 -53.9,463.1 -53.9,463.1"
         style="fill:#ffffff;fill-opacity:1;fill-rule:nonzero;stroke:none"
         id="path118" /><path
         d="m 12143.5,8969.1 c 0,0 -141.3,33.4 -166.7,174.7 -25.5,141.4 0.8,275.2 93.8,286.9 93.1,11.8 151.8,-38.5 177.3,-106 25.5,-67.4 100.4,-362.4 -104.4,-355.6"
         style="fill:#65cab2;fill-opacity:1;fill-rule:nonzero;stroke:none"
         id="path120" /><path
         d="m 13229.6,11412.7 c 0,0 -282.1,12.7 -389.6,-255.5 -107.5,-268.1 -128.6,-729.1 120.7,-801.8 170.1,-49.6 353.3,-14.6 517.4,48.3 86.7,33.2 116.2,106.2 165.7,164 318.1,371.1 215.4,811.9 -414.2,845"
         style="fill:#f79765;fill-opacity:1;fill-rule:nonzero;stroke:none"
         id="path122" /><path
         d="m 13801.9,9533.3 c 0,0 -554.3,-118.8 -1067.9,0 0,0 -58.7,-100.1 -66.3,-130 -16.2,-63.5 12.9,-167.6 127.1,-300.3 168.1,-195 742.1,-340.6 943.4,-215.9 176.5,109.4 216.3,481.7 63.7,646.2"
         style="fill:#ffffff;fill-opacity:1;fill-rule:nonzero;stroke:none"
         id="path124" /><path
         d="m 13181.5,9297.2 c -103,-35.9 -252.3,-119.2 -386.7,-194.2 -125.2,-69.9 -269.8,-201.7 -269.8,-217.7 0,-16 28.5,-149.6 102.4,-160.3 73.9,-10.6 836,51.3 935.8,119.2 0,0 115.4,33 130.3,164.7 21.7,191.6 -72.4,441.4 -512,288.3"
         style="fill:#f79765;fill-opacity:1;fill-rule:nonzero;stroke:none"
         id="path126" /><path
         d="m 12472.4,9164.8 c 0,0 132.1,20.4 230.3,-57.8 0,0 40.6,-34.5 92.1,-4 0,0 234.4,-84.2 160,-360.7 0,0 -279.8,-45.3 -327.4,-17.3 -47.6,28.1 -155,439.8 -155,439.8"
         style="fill:#ffffff;fill-opacity:1;fill-rule:nonzero;stroke:none"
         id="path128" /><path
         d="m 12627.4,8725 c 0,0 -145.1,1.4 -201.2,133.6 -56.1,132.2 -60.1,268.5 28,300.5 88.2,32.1 156.6,-4 196.4,-64.1 39.8,-60.1 178.1,-331.2 -23.2,-370"
         style="fill:#65cab2;fill-opacity:1;fill-rule:nonzero;stroke:none"
         id="path130" /><path
         d="m 13116.8,10605.4 c 0,0 -56.9,-67.1 -131.7,-42.7 -74.8,24.4 -86.3,105.7 -86.3,105.7 0,0 109,0 218,-63"
         style="fill:#ffffff;fill-opacity:1;fill-rule:nonzero;stroke:none"
         id="path132" /><path
         d="m 13474.8,10776.4 c 0,0 109.4,95.9 144.1,26.3 34.8,-69.6 -44.7,-171.4 -109.3,-172.7 -64.6,-1.3 -77.8,115.8 -34.8,146.4"
         style="fill:#f57f47;fill-opacity:1;fill-rule:nonzero;stroke:none"
         id="path134" /><path
         d="m 13458.6,10780.2 c 0,0 83.5,73.2 110,20 26.6,-53.1 -34.1,-130.9 -83.5,-131.8 -49.3,-1 -59.4,88.3 -26.5,111.8"
         style="fill:#f79765;fill-opacity:1;fill-rule:nonzero;stroke:none"
         id="path136" /><path
         d="m 13556.9,11272 c 0,0 -135.4,-184 -419.9,-177.2 0,0 -111.8,16.1 -159.2,88.5 0,0 89.7,-36 137.2,-20.8 0,0 -268.3,41 -264.9,112.7 3.4,71.7 144.2,152.1 246.9,164.4 81.8,9.8 329,8.2 403.8,-32.8 74.9,-41.1 77.1,-110.9 56.1,-134.8"
         style="fill:#f57f2f;fill-opacity:1;fill-rule:nonzero;stroke:none"
         id="path138" /><path
         d="m 13436.2,11427.3 c 0,0 310.5,-50.4 365.7,-297.9 22.2,-99.6 -24.8,-244.8 -24.8,-244.8 0,0 6.3,294.6 -241.9,306.9 -180.7,9 -299,27.4 -299,27.4 l 200,208.4"
         style="fill:#f57f2f;fill-opacity:1;fill-rule:nonzero;stroke:none"
         id="path140" /><path
         d="m 13391.5,9943.9 c 0,-10.3 8.4,-18.7 18.7,-18.7 10.3,0 18.6,8.4 18.6,18.7 0,10.3 -8.3,18.6 -18.6,18.6 -10.3,0 -18.7,-8.3 -18.7,-18.6"
         style="fill:#f57f47;fill-opacity:1;fill-rule:nonzero;stroke:none"
         id="path142" /><path
         d="m 12924.7,9943.9 c 0,-10.3 8.3,-18.7 18.6,-18.7 10.3,0 18.7,8.4 18.7,18.7 0,10.3 -8.4,18.6 -18.7,18.6 -10.3,0 -18.6,-8.3 -18.6,-18.6"
         style="fill:#f57f47;fill-opacity:1;fill-rule:nonzero;stroke:none"
         id="path144" /><path
         d="m 12533.2,9591.1 c 14.6,55.5 53.8,101.3 105.9,125.5 66.4,30.7 160.5,71.9 203.3,79.7 69.9,12.7 212.9,96.8 224.5,53.1 11.7,-43.7 -100.9,-94.3 -101.4,-142.4 -0.6,-48.1 316,-165.9 307.6,-215.8 -8.4,-50 -98.7,-161.7 -221.4,-131.8 -122.6,29.8 -427.4,101.2 -497.7,121 -37.3,10.4 -33.5,62.2 -20.8,110.7"
         style="fill:#f57f47;fill-opacity:1;fill-rule:nonzero;stroke:none"
         id="path146" /><path
         d="m 11499.4,8534.1 c 0,0 -239.6,-98.4 -320.8,-231.3 -81.1,-132.8 -161.8,-400.7 -104.9,-535.2 57,-134.5 -282.3,-131.8 -242.8,-362.9 39.6,-231 269.1,-103.7 168.2,-308.5 -100.9,-204.8 181.1,-272.8 435,-238 253.9,34.7 1003.7,38.7 1039.2,199.2 35.6,160.5 -277.9,232.5 -151.6,354.3 126.3,121.7 259.1,100.1 118,398.7 -141.1,298.7 -283.7,888.5 -940.3,723.7"
         style="fill:#125452;fill-opacity:1;fill-rule:nonzero;stroke:none"
         id="path148" /><path
         d="m 12479.3,4989.7 c 0,0 -132.3,-935.7 -227.5,-1750.6 -82.5,-14.2 -304.4,-42.6 -490.7,27.1 -28.4,11.3 -52.6,15.6 -73.9,17 -14.2,113.8 -21.3,210.5 -14.2,273 35.5,317.2 -284.5,1618.4 9.9,1733.6 295.8,113.7 796.4,-300.1 796.4,-300.1"
         style="fill:#f57f47;fill-opacity:1;fill-rule:nonzero;stroke:none"
         id="path150" /><path
         d="m 11686.8,3282.8 c 56.3,-450.9 240,-1171 240,-1171 l 230.2,-27.9 c -16.8,127.3 31.1,615 94.7,1155.3 -81.9,-14.4 -304.2,-43 -490.1,27 -28.5,10.9 -53.4,15.9 -74.8,16.6"
         style="fill:#e2f5ed;fill-opacity:1;fill-rule:nonzero;stroke:none"
         id="path152" /><path
         d="m 12147.9,4986.9 c 0,0 -193.4,-959.9 -338.4,-1783.3 -122.3,-11.4 -345.6,-21.4 -551.8,42.6 -12.8,152.2 -15.6,281.6 -2.8,359.8 54,312.9 -184.9,1632.6 116.6,1729.3 301.5,95.3 776.4,-348.4 776.4,-348.4"
         style="fill:#f79765;fill-opacity:1;fill-rule:nonzero;stroke:none"
         id="path154" /><path
         d="m 12154.2,2124.2 c 0,0 54.7,-100.4 158.9,-123.7 65.6,-14.7 121.7,-49.2 156.4,-97.4 29.4,-40.7 0.4,-97.5 -49.8,-97.2 l -529.4,3 c -45.1,0.3 -80.1,39.4 -75.3,84.2 4.2,39.2 8.5,84.9 10.5,119.9 4.4,76.4 87.2,145.1 87.2,145.1 0,0 72.7,-41.7 100.7,-46.6 61,-10.7 140.8,12.7 140.8,12.7"
         style="fill:#7d0f44;fill-opacity:1;fill-rule:nonzero;stroke:none"
         id="path156" /><path
         d="m 12255.1,7230.6 c 0,0 346,-583.3 415.8,-1059 0,0 -168.3,-227 -236.7,-67.6 -68.5,159.4 -559.7,1013 -179.1,1126.6"
         style="fill:#f79765;fill-opacity:1;fill-rule:nonzero;stroke:none"
         id="path158" /><path
         d="m 12189.2,8266.2 c -3.7,6.1 -158.5,250.9 -447.9,299.8 -234.5,39.5 -453.9,-126.1 -490,-361.1 -36.2,-236.2 0.7,-542.2 386.1,-652.4"
         style="fill:#125452;fill-opacity:1;fill-rule:nonzero;stroke:none"
         id="path160" /><path
         d="m 12118.5,7213.8 -436.1,-259 -110.1,306.9 c 0,0 50.5,111.9 65.2,290.8 6.1,75.2 6,162.3 -7,257.9 l 379.1,-164.6 c 0,0 -6.6,-34.6 -9.2,-85 -2.9,-54.6 -1,-127.8 18.8,-196.1 17,-58.7 47.3,-113.9 99.3,-150.9"
         style="fill:#f79765;fill-opacity:1;fill-rule:nonzero;stroke:none"
         id="path162" /><path
         d="m 12019,7364.7 c -209.1,-7.7 -381.6,187.8 -381.6,187.8 l 362.8,8.3 c -2.8,-54.6 -1,-127.7 18.8,-196.1"
         style="fill:#f57f47;fill-opacity:1;fill-rule:nonzero;stroke:none"
         id="path164" /><path
         d="m 12112.9,7487.5 c 0,0 -409.5,-136.5 -574.2,185.6 -177.8,347.5 -24.3,618.8 116,645.3 279.9,53 450.5,-44.1 507.3,-154.7 56.8,-110.5 177,-603 -49.1,-676.2"
         style="fill:#f79765;fill-opacity:1;fill-rule:nonzero;stroke:none"
         id="path166" /><path
         d="m 11936,7663.4 c 0,0 20.1,-41.8 128.5,-10.7 0,0 90.9,26.1 77.4,74 0,0 -97.1,14.7 -205.9,-63.3"
         style="fill:#ffffff;fill-opacity:1;fill-rule:nonzero;stroke:none"
         id="path168" /><path
         d="m 11074.8,3891.2 c 118.4,-113 992.5,-346.8 1485.1,-178.7 88.3,30 -53,2753.9 -137.2,3279.9 -23.1,144.2 -137.6,256.4 -282.4,276 -24.4,3.4 -50.9,6.6 -79.6,9.4 6.1,-64.7 -16,-125.5 -128.7,-147.6 -150,-29.3 -291.8,65.3 -364.8,131.1 -117.4,-24.4 -185.7,-33.4 -279,-72.3 -102.2,-42.9 -163.2,-149.1 -148.3,-259 l 28.2,-207.6 89.7,-661.7 c 11.4,-83.1 10.7,-167.4 -1.9,-250.4 -38.2,-251.5 -99,-864.2 -139.7,-1330.2 -28.6,-327.8 -47.3,-583.1 -41.4,-588.9"
         style="fill:#a51256;fill-opacity:1;fill-rule:nonzero;stroke:none"
         id="path170" /><path
         d="m 11826,8280.2 c 0,0 38.8,-384.2 -325.6,-520.3 -144.9,-54.1 -220.4,532.6 82.4,649.8 302.8,117.1 601.4,-22 637.1,-226.8 35.7,-204.8 8.6,-247.5 8.6,-247.5 0,0 -141.8,389.6 -402.5,344.8"
         style="fill:#125452;fill-opacity:1;fill-rule:nonzero;stroke:none"
         id="path172" /><path
         d="m 11604.7,7023.5 c 0,0 167.2,-661.1 173.7,-924 0,0 366.8,-640.6 388.3,-686.2 21.5,-45.6 -132.4,-107.8 -132.4,-107.8 0,0 -460.2,490.7 -548.9,697 -88.7,206.2 -403.3,876.8 -277.4,1077 125.9,200.2 396.7,-56 396.7,-56"
         style="fill:#f79765;fill-opacity:1;fill-rule:nonzero;stroke:none"
         id="path174" /><path
         d="m 12670.9,6171.6 c 0,0 32.9,-450.3 -287.6,-805 0,0 -87.5,105.3 -76.5,138 11.1,32.6 136.5,534.6 228.1,605.9 91.6,71.4 136,61.1 136,61.1"
         style="fill:#f79765;fill-opacity:1;fill-rule:nonzero;stroke:none"
         id="path176" /><path
         d="m 12166.7,5413.3 c 0,0 205.2,1.5 216.6,-46.8 11.4,-48.2 -52.7,-199.1 -202.8,-146.5 -150,52.6 -146.2,85.4 -146.2,85.4 l 132.4,107.9"
         style="fill:#f79765;fill-opacity:1;fill-rule:nonzero;stroke:none"
         id="path178" /><path
         d="m 12306.8,5504.6 c 0,0 -164.8,-76.2 -108.8,-157.3 56,-81.2 168,-32.7 185.3,19.3 17.3,51.9 -76.5,138 -76.5,138"
         style="fill:#f79765;fill-opacity:1;fill-rule:nonzero;stroke:none"
         id="path180" /><path
         d="m 11725.4,6674.7 c 0,0 -215.1,-200.1 -546.8,-169.1 0,0 -163.4,579.3 98.7,650.4 262.1,71.1 478.7,-272.2 448.1,-481.3"
         style="fill:#a51256;fill-opacity:1;fill-rule:nonzero;stroke:none"
         id="path182" /><path
         d="m 12368.1,7128.5 189.6,-324.2 c 0,0 -24.4,-150.4 -166.3,-165.4 -141.8,-14.9 -23.3,489.6 -23.3,489.6"
         style="fill:#7d0f44;fill-opacity:1;fill-rule:nonzero;stroke:none"
         id="path184" /><path
         d="m 11258.2,3245.5 c 39.1,-459.6 164.1,-1116.5 164.1,-1116.5 l 227.6,-52.6 c -8.7,125.7 65.6,598.7 159.4,1127.8 -121.4,-12.7 -345.1,-22.4 -551.1,41.3"
         style="fill:#ffffff;fill-opacity:1;fill-rule:nonzero;stroke:none"
         id="path186" /><path
         d="m 11656.3,2129.3 c 0,0 54.7,-100.4 158.9,-123.7 65.6,-14.7 121.7,-49.2 156.4,-97.4 29.4,-40.7 0.4,-97.5 -49.7,-97.2 l -529.5,3 c -45.1,0.3 -80.1,39.4 -75.3,84.2 4.2,39.2 8.6,84.9 10.5,119.9 4.4,76.4 87.2,145.1 87.2,145.1 0,0 72.7,-41.7 100.7,-46.6 61,-10.7 140.8,12.7 140.8,12.7"
         style="fill:#a51256;fill-opacity:1;fill-rule:nonzero;stroke:none"
         id="path188" /><path
         d="m 15462.2,16779.3 c 163.3,-82.8 478.5,-243.8 808.7,-626.7 238,-276 567.6,-768.5 1031.4,-1287.9 334.5,-374.5 532.5,-592.8 642.7,-713.2 78.4,-85.6 172.5,-155.4 277.2,-205.4 l 2043.8,-975.7 -160.8,-838 -136,-801.2 -13.4,-79 c 0,0 -25.1,13.8 -70.3,38.5 -172.1,95.3 -1037.8,637.7 -1469.4,912.7 l -3.6,-18 -0.1,-0.3 c 0,0 -0.5,0.5 -1.7,1.5 l -0.1,0.2 c -4.8,4.1 -20.2,16.7 -52.5,36.5 l -0.8,0.6 c -119.6,74 -467.8,249.2 -1358.4,483.7 l -0.8,0.1 c -103.2,27.4 -213.5,55.4 -331.7,84 -547.8,133 -1017.1,96.6 -634.8,1589.9 1.6,6.2 -1.5,13.2 -2.3,20.6 -8.3,64.3 -27.4,164.3 -104,324.4 -12.8,26.9 -27.1,55.5 -43.3,85.7 -97.1,181.2 -167.4,347.4 -217.4,499.5 -262.2,794.1 -350.7,1542.8 -202.4,1467.5"
         style="fill:#f79765;fill-opacity:1;fill-rule:nonzero;stroke:none"
         id="path190" /><path
         d="m 16998.9,12707.6 c 890.6,-234.5 1238.8,-409.7 1358.4,-483.7 0.4,-0.3 1301.5,-807.6 1528.2,-933.2 l 694.8,336.7 -475.1,505 -225.6,-139.4 c -19.8,-2.6 -900.7,425.1 -1404.6,506.5 -158,25.5 -327.3,59.2 -482.5,78 -421.2,51.7 -794.1,83.6 -993.6,130.1"
         style="fill:#f68148;fill-opacity:1;fill-rule:nonzero;stroke:none"
         id="path192" /><path
         d="m 14457,17158.1 c -262.1,45.3 -1115.7,77.7 -1115.7,77.7 0,0 -4.2,-187.8 98.2,-284 299.2,-281.4 1005.1,-401.6 1011.8,-392.7 0.1,0.3 544,-472.8 932.7,-631.4 0,0 250.9,-940.4 541.3,-1201.2 17.7,-15.9 35.7,-29.5 53.4,-40.7 69.3,-43.3 170.2,-80.5 285.5,-109.5 409,-101.8 1000.6,-95 1018.9,143.6 4.4,59 -1198.8,1783 -1457.9,1909.7 -61.2,29.7 -1228.4,504.3 -1368.2,528.5"
         style="fill:#f79765;fill-opacity:1;fill-rule:nonzero;stroke:none"
         id="path194" /><path
         d="m 13729.1,17092.6 c -16.9,-3.4 -34.7,-4.1 -52.8,-1.9 0,0 -161.5,20.6 -279.9,36.1 -78.1,10.2 -126.5,74.1 -130.6,104.4 -2.7,19.1 318.2,47.5 594.9,-21.1 -15.5,-62.3 -70.3,-105.1 -131.6,-117.5"
         style="fill:#f9ae86;fill-opacity:1;fill-rule:nonzero;stroke:none"
         id="path196" /><path
         d="m 15384,15927.7 c 14.1,-192.5 500,-1470.3 508.3,-1534.7 143.6,-181.6 403.2,-274.3 450.2,-216.6 63.8,78 35.9,296.5 -56.8,461.9 -124.1,221.6 -336,332.3 -447.5,418.1 -50.1,38.7 -90.6,216.6 -157.4,297.6 -175.5,212.9 -285.4,549.1 -296.8,573.7"
         style="fill:#f68c56;fill-opacity:1;fill-rule:nonzero;stroke:none"
         id="path198" /><path
         d="m 15573.7,13678 c 0,0 -817.7,1712.4 -1078.8,1946.7 0,0 159.7,221.2 528.5,18.7 368.8,-202.4 894.6,-1077.1 1163.4,-1192 1009.9,-431.7 1182.8,-1081.6 1182.8,-1081.6 0,0 -987.4,-1379.6 -1795.9,308.2"
         style="fill:#f79765;fill-opacity:1;fill-rule:nonzero;stroke:none"
         id="path200" /><path
         d="m 14910.9,15418.7 c -7.3,15.6 -17.2,30.4 -29.6,43.7 0,0 -112.1,118.2 -194.5,204.6 -54.3,57 -142.1,66.6 -207.1,22.3 -16,-10.9 -24.3,-17.7 -24.3,-17.7 43.9,-84.3 148.7,-299.6 367.5,-482.3 41.1,49.3 114.2,172.6 88,229.4"
         style="fill:#f9ae86;fill-opacity:1;fill-rule:nonzero;stroke:none"
         id="path202" /><path
         d="m 21434.3,13130.5 c -79.2,-1610.7 -540.3,-2554.6 -889.6,-3250.7 -590.8,176.9 -1100.4,328.4 -1102.5,329 -4.5,1.4 -8.9,2.9 -13.8,4.4 -22.2,6.5 -46.4,12.6 -71.7,18.2 -7.6,1.6 -15.5,3.3 -23.4,4.7 -9.8,2.2 -19.7,4 -29.5,5.4 -9.7,1.9 -19.1,3.3 -28.7,4.6 -8.1,1.3 -16.7,2.5 -25.1,3.5 l -8.6,1.2 c -9.7,1.3 -19.7,2.1 -29.7,3.2 -135.7,13.7 -238.3,37.4 -316,64.3 l -1.3,0.3 c -6.6,2.2 -12.9,4.7 -19.2,7 h -0.3 c -185.5,69.9 -215.5,158 -215.5,158 -152.1,182.2 -215.6,453.6 -220.5,761.6 -3.4,223.4 24.2,466.5 71.3,709 10,51.7 21,103.4 32.6,154.8 0.9,4 1.9,8.1 2.8,12 26.7,116.8 57.4,232.3 90.6,344.4 63.9,215.1 137.5,417.6 211.7,591.3 88.1,206.5 177,372.4 251.1,470.9 41.8,55.5 78.9,89.6 108.6,97.4 102.2,27.4 205.1,-1.3 320.2,-48.5 h 0.3 c 82.4,-33.7 171.9,-77.3 272.5,-116.3 6,-2.2 12.1,-4.6 18.5,-6.8 8.2,-3.5 17.2,-6.8 26.1,-9.8 8.6,-3 17.5,-6.3 26.7,-9.4 17.7,-6.2 36.1,-12 54.8,-17.9 18.2,-5.5 36.9,-10.7 55.7,-15.5 6.7,-1.7 13.4,-3.4 20.1,-5 6.3,-1.7 13.4,-3.2 20.1,-4.7 13.1,-3.2 26.8,-5.8 40.3,-8.5 5.2,-1 10.7,-2.2 15.9,-3 8.3,-1.6 16.9,-3.1 25.5,-4.3 4.9,-0.8 10.1,-1.7 15.1,-2.3 1,-0.2 611.9,-113.5 1314.9,-242.5"
         style="fill:#f8a50d;fill-opacity:1;fill-rule:nonzero;stroke:none"
         id="path204" /><path
         d="m 9836.71,16760.3 c -162.49,-84.3 -476.14,-248.4 -802.61,-634.3 -235.41,-278.3 -560.25,-773.9 -1019.1,-1297.7 -330.9,-377.7 -526.84,-597.9 -635.91,-719.4 -77.56,-86.3 -170.98,-156.9 -275.25,-207.9 l -2034.45,-995.2 168.84,-836.4 143.56,-799.8 14.14,-78.9 c 0,0 25.05,14 69.93,39.1 171.22,97 1031.76,647.6 1460.71,926.7 l 3.75,-18 0.1,-0.3 c 0,0 0.51,0.5 1.73,1.5 l 0.1,0.2 c 4.78,4.1 20.02,16.9 52.08,37 l 0.81,0.7 c 118.92,75 465.43,253.6 1353.74,496.6 l 0.82,0.1 c 102.97,28.3 212.96,57.4 330.91,87.1 546.5,138.2 1016.11,106.3 619.64,1595.9 -1.69,6.2 1.37,13.2 2.03,20.6 7.7,64.4 25.89,164.5 100.92,325.4 12.55,27 26.62,55.7 42.51,86.1 95.36,182.1 164.05,349 212.66,501.6 254.64,796.5 336.01,1546 188.34,1469.3"
         style="fill:#f79765;fill-opacity:1;fill-rule:nonzero;stroke:none"
         id="path206" /><path
         d="m 8338.92,12674.1 c -888.41,-242.9 -1234.84,-421.5 -1353.76,-496.5 l -0.53,-0.4 -1.59,-1 c -1.07,-0.7 -2.66,-1.6 -4.57,-3 l -1.59,-1 c -9.04,-5.6 -25.19,-15.9 -47.3,-29.9 -31.66,-20 -75.66,-47.9 -128.79,-81.4 -339.54,-214.7 -1051.11,-663.1 -1288.94,-804.2 -2.02,-1.3 -4.04,-2.4 -6.06,-3.6 -2.02,-1.2 -3.93,-2.3 -5.84,-3.4 -0.96,-0.6 -2.02,-1.3 -2.98,-1.8 -2.76,-1.6 -5.42,-3.2 -7.97,-4.7 -8.71,-5.1 -16.36,-9.5 -23.17,-13.4 l -84.05,39.8 -359.83,170.1 c 19.45,148.9 32.73,295.5 41.34,440.1 l 174.92,189.6 226.88,-137.2 c 17.75,-2.3 729.96,350.9 1238.88,484.1 56.54,14.9 110.63,27 160.89,35.6 157.71,27.1 326.67,62.4 481.72,82.7 420.72,55.7 793.3,91.1 992.34,139.5"
         style="fill:#f68148;fill-opacity:1;fill-rule:nonzero;stroke:none"
         id="path208" /><path
         d="m 10838.4,17148.7 c 261.6,47.7 1114.8,88.2 1114.8,88.2 0,0 6,-187.7 -95.4,-284.8 -296.6,-284.3 -1001.3,-411.2 -1008.1,-402.3 -0.1,0.3 -539.4,-478.1 -926.61,-640.4 0,0 -241.96,-942.6 -529.89,-1206.2 -17.55,-16 -35.36,-29.9 -53.01,-41.2 -68.9,-44 -169.37,-82.2 -284.42,-112.2 -408.02,-105.7 -999.69,-104.6 -1020.23,133.9 -4.91,58.9 1181.79,1794.3 1439.66,1923.4 60.91,30.3 1223.6,516.1 1363.2,541.6"
         style="fill:#f79765;fill-opacity:1;fill-rule:nonzero;stroke:none"
         id="path210" /><path
         d="m 11566.8,17090.1 c 16.9,-3.2 34.8,-3.7 52.8,-1.4 0,0 161.3,22.1 279.6,38.7 77.9,11 125.7,75.4 129.6,105.7 2.4,19.1 -318.6,44.5 -594.7,-26.8 16.1,-62.1 71.3,-104.4 132.7,-116.2"
         style="fill:#f9ae86;fill-opacity:1;fill-rule:nonzero;stroke:none"
         id="path212" /><path
         d="m 9923.09,15909.4 c -12.25,-192.5 -486.01,-1474.9 -493.71,-1539.3 -141.81,-183 -400.53,-278.2 -448.15,-220.9 -64.51,77.3 -38.7,296.1 52.46,462.3 121.99,222.8 332.77,335.5 443.47,422.4 49.75,39.1 88.55,217.5 154.56,299.1 173.47,214.6 280.22,551.8 291.37,576.4"
         style="fill:#f68c56;fill-opacity:1;fill-rule:nonzero;stroke:none"
         id="path214" /><path
         d="m 9754.77,13658 c 0,0 801.43,1720.2 1060.23,1956.9 0,0 -161.8,219.7 -528.6,13.8 -366.92,-206 -884.37,-1085.7 -1152.07,-1203.1 -1005.74,-441.3 -1172.46,-1092.8 -1172.46,-1092.8 0,0 1000.54,-1370.1 1792.9,325.2"
         style="fill:#f79765;fill-opacity:1;fill-rule:nonzero;stroke:none"
         id="path216" /><path
         d="m 10401,15405 c 7.1,15.7 16.9,30.6 29.2,44 0,0 110.9,119.2 192.5,206.4 53.8,57.5 141.4,68 206.9,24.3 16.1,-10.7 24.4,-17.5 24.4,-17.5 -43,-84.7 -145.7,-301 -362.8,-485.8 -41.6,48.9 -115.9,171.5 -90.2,228.6"
         style="fill:#f9ae86;fill-opacity:1;fill-rule:nonzero;stroke:none"
         id="path218" /><path
         d="m 6912.79,11198 c -1.91,-307.9 -62.7,-579.9 -213.17,-763.6 0,0 -29.12,-88.3 -213.92,-159.9 l -0.32,-0.1 c -6.27,-2.4 -12.54,-4.9 -19.24,-7.1 l -1.27,-0.5 c -77.26,-27.6 -179.81,-52.1 -315.3,-67.2 -9.99,-1.2 -19.98,-2.2 -29.65,-3.5 l -8.61,-1.2 c -8.39,-1.2 -17,-2.5 -25.08,-3.7 -9.67,-1.4 -19.02,-3 -28.58,-4.9 -9.89,-1.6 -19.77,-3.4 -29.54,-5.6 -7.76,-1.6 -15.74,-3.3 -23.28,-5 -25.29,-6 -49.41,-12.3 -71.63,-19.1 -4.78,-1.4 -9.13,-2.9 -13.7,-4.4 -2.55,-0.8 -722.31,-222.2 -1441.97,-445.7 317.43,612 473.01,1187.4 544.42,1733.2 19.45,148.9 32.73,295.5 41.34,440.1 28.9,487.8 4.57,952.1 -12.23,1398.6 102.03,19.9 160.9,31.3 161.22,31.3 4.89,0.7 10.09,1.6 14.98,2.6 8.72,1.2 17.22,2.9 25.5,4.5 5.21,0.8 10.63,2.1 15.84,3.1 13.39,2.8 27.1,5.6 40.28,9 6.69,1.6 13.6,3.2 20.08,4.9 6.69,1.6 13.39,3.4 19.98,5.2 18.81,5 37.41,10.3 55.58,16 18.6,6.1 36.87,12 54.62,18.3 9.14,3.2 17.96,6.6 26.57,9.7 8.92,3.1 17.74,6.6 26.03,10.1 6.38,2.3 12.43,4.6 18.49,7 100.11,39.9 189.16,84.3 271.42,118.8 l 0.21,0.1 c 114.66,48.1 217.21,77.9 319.76,51.5 29.76,-7.5 67.16,-41.3 109.46,-96.4 75.13,-97.7 165.57,-262.8 255.58,-468.4 75.87,-173.1 151.32,-374.8 217.31,-589.4 34.33,-111.6 66.1,-226.7 93.95,-343.2 0.95,-4 1.91,-8.2 2.87,-12.2 12.11,-51.4 23.48,-102.9 34,-154.5 49.52,-242.1 79.38,-484.8 78,-708.4"
         style="fill:#f8a50d;fill-opacity:1;fill-rule:nonzero;stroke:none"
         id="path220" /><path
         d="M 22393.6,1693.3 H 2302.69 c -18.75,0 -34.1,15.4 -34.1,34.1 v 51 c 0,18.7 15.35,34.1 34.1,34.1 H 22393.6 c 18.7,0 34,-15.4 34,-34.1 v -51 c 0,-18.7 -15.3,-34.1 -34,-34.1"
         style="fill:#125452;fill-opacity:1;fill-rule:nonzero;stroke:none"
         id="path222" /></g></g></svg>
