<?xml version="1.0" encoding="UTF-8" standalone="no"?>
<svg
   xmlns:dc="http://purl.org/dc/elements/1.1/"
   xmlns:cc="http://creativecommons.org/ns#"
   xmlns:rdf="http://www.w3.org/1999/02/22-rdf-syntax-ns#"
   xmlns:svg="http://www.w3.org/2000/svg"
   xmlns="http://www.w3.org/2000/svg"
   xmlns:sodipodi="http://sodipodi.sourceforge.net/DTD/sodipodi-0.dtd"
   xmlns:inkscape="http://www.inkscape.org/namespaces/inkscape"
   version="1.1"
   id="svg2"
   xml:space="preserve"
   width="4000"
   height="2666.6667"
   viewBox="0 0 4000 2666.6667"
   sodipodi:docname="Дом.eps"><metadata
     id="metadata8"><rdf:RDF><cc:Work
         rdf:about=""><dc:format>image/svg+xml</dc:format><dc:type
           rdf:resource="http://purl.org/dc/dcmitype/StillImage" /></cc:Work></rdf:RDF></metadata><defs
     id="defs6" /><sodipodi:namedview
     pagecolor="#ffffff"
     bordercolor="#666666"
     borderopacity="1"
     objecttolerance="10"
     gridtolerance="10"
     guidetolerance="10"
     inkscape:pageopacity="0"
     inkscape:pageshadow="2"
     inkscape:window-width="640"
     inkscape:window-height="480"
     id="namedview4" /><g
     id="g10"
     inkscape:groupmode="layer"
     inkscape:label="ink_ext_XXXXXX"
     transform="matrix(1.3333333,0,0,-1.3333333,0,2666.6667)"><g
       id="g12"
       transform="scale(0.1)"><path
         d="M 30000,0 H 0 V 20000 H 30000 V 0"
         style="fill:#ffffff;fill-opacity:1;fill-rule:nonzero;stroke:none"
         id="path14" /><path
         d="m 2247.7,2571.8 c 1.33,-0.9 26033.7,3.1 26033.7,3.1 802.2,1643.6 1225.4,3464.5 773.1,5245.1 -542.4,2135.6 -2363.8,3570.4 -3574,4119.1 -991.8,451.4 -1911.2,510.2 -2724.6,435.4 -628.8,-57.9 -1194.3,-195.7 -1680.7,-294 -343.2,-69.6 -665.1,-122.6 -933.8,-105.1 -446.3,29.1 -796,348.6 -1110.6,681.3 -1114.9,1178 -2391.5,3214.5 -6950.1,3458.2 -1354.7,72 -2921.06,-47.5 -4173.63,-568.8 C 7374.45,15324.6 5367.76,14333.4 4779,12656.7 4593.04,12127.5 4548.43,11530.1 4735.92,10866.9 5399.5,8520.5 4389.16,8228.4 3124.99,7110.2 1437.71,5617.8 894.41,3604.1 2247.7,2571.8"
         style="fill:#ccede2;fill-opacity:1;fill-rule:nonzero;stroke:none"
         id="path16" /><path
         d="M 8943.67,11464 V 8188.5 H 3366.73 l 200,3275.5 h 5376.94"
         style="fill:#40aba3;fill-opacity:1;fill-rule:nonzero;stroke:none"
         id="path18" /><path
         d="m 19406.4,2532 h 6392.8 v 9581.6 H 19406.4 V 2532"
         style="fill:#eec7a3;fill-opacity:1;fill-rule:nonzero;stroke:none"
         id="path20" /><path
         d="m 16591.2,2555.9 h -7648 V 12732 h 7648 V 2555.9"
         style="fill:#eec7a3;fill-opacity:1;fill-rule:nonzero;stroke:none"
         id="path22" /><path
         d="M 19571.1,16144.3 V 11181.1 H 8638.22 v 4963.2 H 19571.1"
         style="fill:#40aba3;fill-opacity:1;fill-rule:nonzero;stroke:none"
         id="path24" /><path
         d="m 14456.3,11822.6 5747.8,5434.3 5747.7,-5434.3 z"
         style="fill:#eec7a3;fill-opacity:1;fill-rule:nonzero;stroke:none"
         id="path26" /><path
         d="m 26417.5,11288.5 c -51.4,0 -102.8,18.5 -143.5,56.2 l -6069.9,5281 C 18270.7,14865.4 16025,13169.9 15957.5,13125 c -96.8,-64.6 -227.9,-38.7 -292.6,58.7 -62.5,93.6 -40.2,218.8 48.6,285.6 139.1,115.1 2672.1,2417.3 4348.5,3943.8 81.2,73.8 205.5,73 285.6,-1.3 L 26561,11654.5 c 85.5,-79.3 90.6,-212.9 11.4,-298.4 -41.6,-44.9 -98.2,-67.6 -154.9,-67.6"
         style="fill:#36938b;fill-opacity:1;fill-rule:nonzero;stroke:none"
         id="path28" /><path
         d="m 20415.2,2555.9 h -7648 V 12732 h 7648 V 2555.9"
         style="fill:#fcd9ba;fill-opacity:1;fill-rule:nonzero;stroke:none"
         id="path30" /><path
         d="m 12767.2,12732 3824,3615.5 3824,-3615.5 -6595.2,-25.1 -1052.8,25.1"
         style="fill:#fcd9ba;fill-opacity:1;fill-rule:nonzero;stroke:none"
         id="path32" /><path
         d="M 17697.6,11533 V 9563.7 H 15451 V 11495 c 0,333.6 142.2,633.4 370.3,841.7 36.5,33.8 76,64.8 116.8,92.9 39.4,29.6 81.6,54.9 125.3,77.4 157.6,83.1 337.8,129.6 529.2,129.6 191.4,0 370.2,-47.9 526.5,-135.2 43.6,-21.1 85.8,-47.9 125.2,-78.8 36.6,-25.4 71.8,-54.9 105.6,-85.9 214,-201.3 347.7,-487 347.7,-803.7"
         style="fill:#ebc09c;fill-opacity:1;fill-rule:nonzero;stroke:none"
         id="path34" /><path
         d="M 15631.3,11969.3 H 17531 c -55.1,117.3 -133.2,225.3 -229.5,316.3 -30.5,28.1 -63.1,55.6 -97.3,79.2 -39.4,30.8 -77.3,54.6 -115.9,73.3 -153.4,85.6 -319.1,128.1 -495.7,128.1 -174,0 -345.6,-41.9 -496.4,-121.4 -45.2,-23.4 -82.9,-46.6 -115.6,-71.5 -41.9,-28.7 -78.6,-57.9 -111.6,-88.4 -98.4,-89.9 -179.3,-197.5 -237.7,-315.6 z m 2103.6,-140.7 h -2312.3 l 35.8,95.1 c 66,175.9 175,336.6 315.5,465 37.6,34.8 79.5,68.1 124.4,98.9 36.7,27.7 80.9,55.2 132.8,82 170.4,89.8 364.8,137.3 561.5,137.3 201,0 389.7,-48.5 560.8,-144 44,-21.3 90.3,-50.5 134.3,-84.8 32.3,-22.3 69.3,-52.3 109.7,-89.5 138.4,-130.7 243.6,-291.8 304.6,-466.4 l 32.9,-93.6"
         style="fill:#f6d3ac;fill-opacity:1;fill-rule:nonzero;stroke:none"
         id="path36" /><path
         d="m 18769.7,9564.2 h -4390.5 v 2334.3 h 4390.5 V 9564.2"
         style="fill:#ebc09c;fill-opacity:1;fill-rule:nonzero;stroke:none"
         id="path38" /><path
         d="m 16504.1,9564.2 v 2334.3 h 140.7 V 9564.2 h -140.7"
         style="fill:#f6d3ac;fill-opacity:1;fill-rule:nonzero;stroke:none"
         id="path40" /><path
         d="m 14431,11181.6 h 4242.6 v -70.4 H 14431 v 70.4"
         style="fill:#f6d3ac;fill-opacity:1;fill-rule:nonzero;stroke:none"
         id="path42" /><path
         d="m 14431,10414.6 h 4242.6 v -70.3 H 14431 v 70.3"
         style="fill:#f6d3ac;fill-opacity:1;fill-rule:nonzero;stroke:none"
         id="path44" /><path
         d="m 15527.6,9564.2 v 2334.3 h 140.7 V 9564.2 h -140.7"
         style="fill:#f6d3ac;fill-opacity:1;fill-rule:nonzero;stroke:none"
         id="path46" /><path
         d="m 17480.6,9564.2 v 2334.3 h 140.8 V 9564.2 h -140.8"
         style="fill:#f6d3ac;fill-opacity:1;fill-rule:nonzero;stroke:none"
         id="path48" /><path
         d="m 18629,9564.2 v 2334.3 h 140.7 V 9564.2 H 18629"
         style="fill:#f6d3ac;fill-opacity:1;fill-rule:nonzero;stroke:none"
         id="path50" /><path
         d="m 14379.2,9564.2 v 2334.3 H 14520 V 9564.2 h -140.8"
         style="fill:#f6d3ac;fill-opacity:1;fill-rule:nonzero;stroke:none"
         id="path52" /><path
         d="M 14379.5,9704.9 H 18770 v -140.8 h -4390.5 v 140.8"
         style="fill:#f6d3ac;fill-opacity:1;fill-rule:nonzero;stroke:none"
         id="path54" /><path
         d="M 14379.5,11898.5 H 18770 v -140.7 h -4390.5 v 140.7"
         style="fill:#f6d3ac;fill-opacity:1;fill-rule:nonzero;stroke:none"
         id="path56" /><path
         d="m 17244.3,12422.6 -663,-702.4 -643.2,709.4 c 39.4,29.6 81.6,54.9 125.3,77.4 l 519.4,-572.9 536.3,567.3 c 43.6,-21.1 85.8,-47.9 125.2,-78.8"
         style="fill:#f6d3ac;fill-opacity:1;fill-rule:nonzero;stroke:none"
         id="path58" /><path
         d="m 18769.7,4881.1 h -4390.5 v 2334.3 h 4390.5 V 4881.1"
         style="fill:#ebc09c;fill-opacity:1;fill-rule:nonzero;stroke:none"
         id="path60" /><path
         d="m 16504.1,4881.1 v 2334.4 h 140.7 V 4881.1 h -140.7"
         style="fill:#f6d3ac;fill-opacity:1;fill-rule:nonzero;stroke:none"
         id="path62" /><path
         d="m 14431,6498.5 h 4242.6 v -70.3 H 14431 v 70.3"
         style="fill:#f6d3ac;fill-opacity:1;fill-rule:nonzero;stroke:none"
         id="path64" /><path
         d="m 14431,5731.6 h 4242.6 v -70.4 H 14431 v 70.4"
         style="fill:#f6d3ac;fill-opacity:1;fill-rule:nonzero;stroke:none"
         id="path66" /><path
         d="m 15527.6,4881.1 v 2334.4 h 140.7 V 4881.1 h -140.7"
         style="fill:#f6d3ac;fill-opacity:1;fill-rule:nonzero;stroke:none"
         id="path68" /><path
         d="m 17480.6,4881.1 v 2334.4 h 140.8 V 4881.1 h -140.8"
         style="fill:#f6d3ac;fill-opacity:1;fill-rule:nonzero;stroke:none"
         id="path70" /><path
         d="m 18629,4881.1 v 2334.4 h 140.7 V 4881.1 H 18629"
         style="fill:#f6d3ac;fill-opacity:1;fill-rule:nonzero;stroke:none"
         id="path72" /><path
         d="M 14379.2,4881.1 V 7215.5 H 14520 V 4881.1 h -140.8"
         style="fill:#f6d3ac;fill-opacity:1;fill-rule:nonzero;stroke:none"
         id="path74" /><path
         d="M 14379.5,5021.8 H 18770 v -140.7 h -4390.5 v 140.7"
         style="fill:#f6d3ac;fill-opacity:1;fill-rule:nonzero;stroke:none"
         id="path76" /><path
         d="M 14379.5,7215.5 H 18770 v -140.8 h -4390.5 v 140.8"
         style="fill:#f6d3ac;fill-opacity:1;fill-rule:nonzero;stroke:none"
         id="path78" /><path
         d="M 11934.3,4881.1 H 9988.43 V 7215.4 H 11934.3 V 4881.1"
         style="fill:#ebc09c;fill-opacity:1;fill-rule:nonzero;stroke:none"
         id="path80" /><path
         d="m 11813.5,4881.1 v 2334.4 h 120.9 V 4881.1 h -120.9"
         style="fill:#f6d3ac;fill-opacity:1;fill-rule:nonzero;stroke:none"
         id="path82" /><path
         d="m 10011.4,6498.5 h 1880.2 v -70.3 h -1880.2 v 70.3"
         style="fill:#f6d3ac;fill-opacity:1;fill-rule:nonzero;stroke:none"
         id="path84" /><path
         d="m 10011.4,5731.6 h 1880.2 v -70.4 h -1880.2 v 70.4"
         style="fill:#f6d3ac;fill-opacity:1;fill-rule:nonzero;stroke:none"
         id="path86" /><path
         d="M 10891.1,4881.1 V 7215.5 H 11012 V 4881.1 h -120.9"
         style="fill:#f6d3ac;fill-opacity:1;fill-rule:nonzero;stroke:none"
         id="path88" /><path
         d="m 9988.43,4881.1 v 2334.4 h 120.87 V 4881.1 h -120.87"
         style="fill:#f6d3ac;fill-opacity:1;fill-rule:nonzero;stroke:none"
         id="path90" /><path
         d="M 9988.54,5021.8 H 11934.4 V 4881.1 H 9988.54 v 140.7"
         style="fill:#f6d3ac;fill-opacity:1;fill-rule:nonzero;stroke:none"
         id="path92" /><path
         d="M 9988.54,7215.5 H 11934.4 V 7074.7 H 9988.54 v 140.8"
         style="fill:#f6d3ac;fill-opacity:1;fill-rule:nonzero;stroke:none"
         id="path94" /><path
         d="M 11934.3,8224 H 9988.43 v 2334.3 H 11934.3 V 8224"
         style="fill:#ebc09c;fill-opacity:1;fill-rule:nonzero;stroke:none"
         id="path96" /><path
         d="m 11813.5,8224 v 2334.3 h 120.9 V 8224 h -120.9"
         style="fill:#f6d3ac;fill-opacity:1;fill-rule:nonzero;stroke:none"
         id="path98" /><path
         d="m 10011.4,9841.4 h 1880.2 V 9771 h -1880.2 v 70.4"
         style="fill:#f6d3ac;fill-opacity:1;fill-rule:nonzero;stroke:none"
         id="path100" /><path
         d="m 10011.4,9074.4 h 1880.2 V 9004 h -1880.2 v 70.4"
         style="fill:#f6d3ac;fill-opacity:1;fill-rule:nonzero;stroke:none"
         id="path102" /><path
         d="m 10891.1,8224 v 2334.3 H 11012 V 8224 h -120.9"
         style="fill:#f6d3ac;fill-opacity:1;fill-rule:nonzero;stroke:none"
         id="path104" /><path
         d="m 9988.43,8224 v 2334.3 h 120.87 V 8224 h -120.87"
         style="fill:#f6d3ac;fill-opacity:1;fill-rule:nonzero;stroke:none"
         id="path106" /><path
         d="M 9988.54,8364.7 H 11934.4 V 8223.9 H 9988.54 v 140.8"
         style="fill:#f6d3ac;fill-opacity:1;fill-rule:nonzero;stroke:none"
         id="path108" /><path
         d="m 9988.54,10558.3 h 1945.86 v -140.7 H 9988.54 v 140.7"
         style="fill:#f6d3ac;fill-opacity:1;fill-rule:nonzero;stroke:none"
         id="path110" /><path
         d="m 24047.2,10014.5 h -1945.8 v 2334.3 h 1945.8 v -2334.3"
         style="fill:#ebc09c;fill-opacity:1;fill-rule:nonzero;stroke:none"
         id="path112" /><path
         d="m 23926.4,10014.5 v 2334.3 h 120.9 v -2334.3 h -120.9"
         style="fill:#f6d3ac;fill-opacity:1;fill-rule:nonzero;stroke:none"
         id="path114" /><path
         d="m 22124.3,11631.9 h 1880.3 v -70.4 h -1880.3 v 70.4"
         style="fill:#f6d3ac;fill-opacity:1;fill-rule:nonzero;stroke:none"
         id="path116" /><path
         d="m 22124.3,10864.9 h 1880.3 v -70.4 h -1880.3 v 70.4"
         style="fill:#f6d3ac;fill-opacity:1;fill-rule:nonzero;stroke:none"
         id="path118" /><path
         d="m 23004,10014.5 v 2334.3 h 120.9 V 10014.5 H 23004"
         style="fill:#f6d3ac;fill-opacity:1;fill-rule:nonzero;stroke:none"
         id="path120" /><path
         d="m 22101.4,10014.5 v 2334.3 h 120.9 v -2334.3 h -120.9"
         style="fill:#f6d3ac;fill-opacity:1;fill-rule:nonzero;stroke:none"
         id="path122" /><path
         d="m 22101.5,10155.2 h 1945.8 v -140.8 h -1945.8 v 140.8"
         style="fill:#f6d3ac;fill-opacity:1;fill-rule:nonzero;stroke:none"
         id="path124" /><path
         d="m 22101.5,12348.8 h 1945.8 V 12208 h -1945.8 v 140.8"
         style="fill:#f6d3ac;fill-opacity:1;fill-rule:nonzero;stroke:none"
         id="path126" /><path
         d="m 12227.8,12180.1 c -68.2,0 -135.2,32.9 -175.9,94.1 -62.4,93.6 -40.1,218.9 48.7,285.7 139.3,115 2672.1,2417.2 4348.5,3943.7 81.1,73.8 205.3,73 285.6,-1.2 l 4269.7,-3956.3 c 85.5,-79.3 90.6,-212.9 11.4,-298.4 -79.4,-85.8 -212.9,-90.6 -298.4,-11.4 l -4173.1,3386.5 c -1811.2,-1556.3 -4132.2,-3362.3 -4199.7,-3407.3 -35.9,-24 -76.6,-35.4 -116.8,-35.4"
         style="fill:#36938b;fill-opacity:1;fill-rule:nonzero;stroke:none"
         id="path128" /><path
         d="M 3678.76,2594.1 H 8943.2 V 8188 H 3678.76 V 2594.1"
         style="fill:#fcd9ba;fill-opacity:1;fill-rule:nonzero;stroke:none"
         id="path130" /><path
         d="M 26065.8,9617.2 V 7370.7 h -5650.1 v 2246.5 h 5650.1"
         style="fill:#36938b;fill-opacity:1;fill-rule:nonzero;stroke:none"
         id="path132" /><path
         d="m 23762.6,3154.1 h -2038.1 v 2475.5 c 0,540.5 438.1,978.6 978.6,978.6 h 92.2 c 534.3,0 967.3,-433.1 967.3,-967.3 V 3154.1"
         style="fill:#d8a881;fill-opacity:1;fill-rule:nonzero;stroke:none"
         id="path134" /><path
         d="m 23568.9,5568.9 v -45 h -1651.2 v 36.6 c 0,437.8 354.8,792.5 792.5,792.5 h 74.6 c 433.6,0 784.1,-350.5 784.1,-784.1"
         style="fill:#c59574;fill-opacity:1;fill-rule:nonzero;stroke:none"
         id="path136" /><path
         d="m 23568.9,4604.5 h -1651.2 v 663.6 h 1651.2 v -663.6"
         style="fill:#c59574;fill-opacity:1;fill-rule:nonzero;stroke:none"
         id="path138" /><path
         d="m 23568.9,3300.7 h -1651.2 v 1084.7 h 1651.2 V 3300.7"
         style="fill:#c59574;fill-opacity:1;fill-rule:nonzero;stroke:none"
         id="path140" /><path
         d="m 24269.9,2971.9 h -3052.7 v 219.9 h 3052.7 v -219.9"
         style="fill:#d8a881;fill-opacity:1;fill-rule:nonzero;stroke:none"
         id="path142" /><path
         d="m 24528.2,2752 h -3569.3 v 219.9 h 3569.3 V 2752"
         style="fill:#d8a881;fill-opacity:1;fill-rule:nonzero;stroke:none"
         id="path144" /><path
         d="m 24740.3,2532 h -3993.5 v 220 h 3993.5 v -220"
         style="fill:#d8a881;fill-opacity:1;fill-rule:nonzero;stroke:none"
         id="path146" /><path
         d="M 7779.25,3969.3 H 5119.04 V 7160.6 H 7779.25 V 3969.3"
         style="fill:#ebc09c;fill-opacity:1;fill-rule:nonzero;stroke:none"
         id="path148" /><path
         d="M 7614.12,3969.3 V 7160.7 H 7779.4 V 3969.3 h -165.28"
         style="fill:#f6d3ac;fill-opacity:1;fill-rule:nonzero;stroke:none"
         id="path150" /><path
         d="m 5150.43,6180.5 h 2570.53 v -96.2 H 5150.43 v 96.2"
         style="fill:#f6d3ac;fill-opacity:1;fill-rule:nonzero;stroke:none"
         id="path152" /><path
         d="m 5150.43,5132 h 2570.53 v -96.2 H 5150.43 v 96.2"
         style="fill:#f6d3ac;fill-opacity:1;fill-rule:nonzero;stroke:none"
         id="path154" /><path
         d="m 6353.06,3969.3 v 3191.4 h 165.28 V 3969.3 h -165.28"
         style="fill:#f6d3ac;fill-opacity:1;fill-rule:nonzero;stroke:none"
         id="path156" /><path
         d="m 5119.04,3969.3 v 3191.4 h 165.29 V 3969.3 h -165.29"
         style="fill:#f6d3ac;fill-opacity:1;fill-rule:nonzero;stroke:none"
         id="path158" /><path
         d="M 5119.2,4161.7 H 7779.4 V 3969.2 H 5119.2 v 192.5"
         style="fill:#f6d3ac;fill-opacity:1;fill-rule:nonzero;stroke:none"
         id="path160" /><path
         d="M 5119.2,7160.7 H 7779.4 V 6968.2 H 5119.2 v 192.5"
         style="fill:#f6d3ac;fill-opacity:1;fill-rule:nonzero;stroke:none"
         id="path162" /><path
         d="M 7148.97,8188.5 H 2766.73 l 800,3275.5 H 5693.51 L 7148.97,8188.5"
         style="fill:#4ec4c0;fill-opacity:1;fill-rule:nonzero;stroke:none"
         id="path164" /><path
         d="M 11615.3,11181.1 H 8638.22 v 4963.2 h 1119.05 c 319.53,-884 1299.23,-3483.8 1858.03,-4963.2"
         style="fill:#4ec4c0;fill-opacity:1;fill-rule:nonzero;stroke:none"
         id="path166" /><path
         d="M 26065.8,9617.2 V 7370.7 h -3738.6 l 1483.6,2246.5 h 2255"
         style="fill:#40aba3;fill-opacity:1;fill-rule:nonzero;stroke:none"
         id="path168" /><path
         d="m 12402.1,15076.4 h -597.5 v 1239.5 c 0,61.3 49.7,110.9 110.9,110.9 h 377.8 c 60.1,0 108.8,-48.7 108.8,-108.8 v -1241.6"
         style="fill:#eec7a3;fill-opacity:1;fill-rule:nonzero;stroke:none"
         id="path170" /><path
         d="m 11664.6,16554.2 h 870.9 l -432.1,411.9 z"
         style="fill:#4ec4c0;fill-opacity:1;fill-rule:nonzero;stroke:none"
         id="path172" /><path
         d="m 11919.5,16426.8 h -38.7 l -5.9,139.1 h 53.1 l -8.5,-139.1"
         style="fill:#40aba3;fill-opacity:1;fill-rule:nonzero;stroke:none"
         id="path174" /><path
         d="m 12318.8,16426.8 h -38.8 l -5.9,139.1 h 53.2 l -8.5,-139.1"
         style="fill:#40aba3;fill-opacity:1;fill-rule:nonzero;stroke:none"
         id="path176" /><path
         d="m 27319.9,2608.6 h -728.5 c -39.1,33.1 27,108.3 96,113.3 30,2.3 67.9,-4 111.2,-13.1 10,133.1 67.3,731.7 283,707.6 242.6,-26.9 0,-263.6 -68.6,-403.7 -50.8,-103.8 -104.4,-252.6 -128.8,-322.8 19.7,-4.3 40,-8.5 60.9,-12.3 32.1,98.7 151.8,430.8 303.9,411.5 178.7,-22.7 106.9,-155.9 -19.8,-234.9 -92.9,-58.1 -206.9,-140.7 -261.1,-180.6 45.9,-7.5 93.8,-12.6 142.5,-11.5 124.7,3 185.7,-33.8 209.3,-53.5"
         style="fill:#599ca9;fill-opacity:1;fill-rule:nonzero;stroke:none"
         id="path178" /><path
         d="M 8943.99,4533.6 V 2591.4 l -4588.94,-1.3 c 0,0 146.76,520.7 724.84,805.2 54.88,28.1 114.85,53.6 178.65,75.3 76.58,26.8 158.24,48.5 246.29,66.4 1.28,0 2.56,0 3.84,1.2 39.56,7.7 77.84,17.9 114.85,30.7 816.71,274.4 853.72,1544.1 3197.96,995.3 42.11,-10.1 82.95,-20.4 122.51,-30.6"
         style="fill:#599ca9;fill-opacity:1;fill-rule:nonzero;stroke:none"
         id="path180" /><path
         d="m 5423.01,3270.5 c 0,0 -687.84,913.7 -995.83,667.3 -307.98,-246.4 995.83,-667.3 995.83,-667.3"
         style="fill:#599ca9;fill-opacity:1;fill-rule:nonzero;stroke:none"
         id="path182" /><path
         d="m 5628.33,3362.9 c 0,41.1 10.27,882.9 -277.18,821.3 -287.46,-61.6 277.18,-821.3 277.18,-821.3"
         style="fill:#599ca9;fill-opacity:1;fill-rule:nonzero;stroke:none"
         id="path184" /><path
         d="m 6346.69,12465.1 c -4.38,24 -60.79,281.3 -458.76,237.4 0,0 198.11,5.1 244.17,-75.7 0,0 -147.94,86.6 -250.98,36.9 -103.05,-49.7 -139.01,-248.1 -130.61,-310.4 8.4,-62.3 97.5,-254.2 168.5,-261.3 26.9,-2.7 56.54,3.4 83.03,11.9 -14.12,-31.1 -27.43,-65.1 -39.42,-102.6 -110.94,-347.4 98.04,-640.7 226.72,-586.3 82.54,34.9 128.07,-107.9 128.07,-107.9 l 735.57,795.7 c 0,0 -398.09,589.1 -706.29,362.3"
         style="fill:#1b494a;fill-opacity:1;fill-rule:nonzero;stroke:none"
         id="path186" /><path
         d="m 7304.98,2880.8 -178.91,-66.6 c 0,0 -777.06,1077.7 -872.73,2025.9 -17.09,169.3 -11.39,333.3 25.56,484.8 0,0 -7.6,43.4 -20.89,120.1 -6.13,35.7 -13.73,78.8 -22.34,128.2 -25.27,144.7 -60.04,342.8 -99.77,568.3 -91.42,519 -209.88,1182.4 -301.9,1670.1 l 48.2,15.5 521.58,168.2 107.8,342.4 388.37,102.2 c 0,0 86.76,-169.7 164.32,-971.4 14.31,-105.2 27.31,-221.2 37.1,-346.9 30.24,-383.9 32.42,-860 -36.95,-1404.4 -17.82,-139.3 -40.31,-283.2 -68.21,-431 -20.45,-108.4 -23.52,-256.1 -14.91,-425.6 39.15,-775.2 323.68,-1979.8 323.68,-1979.8"
         style="fill:#246568;fill-opacity:1;fill-rule:nonzero;stroke:none"
         id="path188" /><path
         d="M 7101.37,7121.6 6258.01,5445 c -6.13,35.7 -13.73,78.8 -22.34,128.2 -25.27,144.7 -60.04,342.8 -99.77,568.3 -91.42,519 -209.88,1182.4 -301.9,1670.1 l 48.2,15.5 521.58,168.2 107.8,342.4 388.37,102.2 c 0,0 86.76,-169.7 164.32,-971.4 14.31,-105.2 27.31,-221.2 37.1,-346.9"
         style="fill:#1b494a;fill-opacity:1;fill-rule:nonzero;stroke:none"
         id="path190" /><path
         d="m 6730.38,8224.7 c 0,0 -0.32,-1.3 -0.92,-3.9 -2.7,-11.1 -10.91,-45 -22.74,-93.6 -56.05,-230.7 -193.02,-790.8 -201.31,-790.4 -75.17,-525.2 -188.28,-1205.8 -328.71,-1728.9 -74.32,-276.7 -156.17,-509.3 -244.4,-651.7 -30.24,-48.9 -63.26,-130.7 -97.67,-234.7 C 5631.7,4108 5382.01,2719.3 5382.01,2719.3 l -113.87,-45.9 c 0,0 -438.81,1247.9 -58.58,2261.1 38.77,103.2 85.99,203.9 143.04,300.7 6.53,11.2 10.98,23.5 9.45,36.3 0,0.1 0,0.2 -0.08,0.4 -4.99,42.2 -17.28,147.9 -31.25,296.4 -38.78,409.8 -75.86,1794.6 -96.14,2120.4 -7.67,123.3 -3.14,233.4 9.45,330.9 24.34,190.2 79.16,332.5 132.67,432.1 67.58,125.6 133.15,183.2 133.15,183.2 0,0 873.93,-329.6 1201.02,-242.7 l 19.51,-167.5"
         style="fill:#246568;fill-opacity:1;fill-rule:nonzero;stroke:none"
         id="path192" /><path
         d="m 6729.38,8142 c -6.99,-5.1 -14.51,-10 -22.66,-14.8 -301.36,-176.1 -1358.65,-114.2 -1462.69,-107.6 24.34,190.2 79.16,332.5 132.67,432.1 452.25,-40.1 1201.8,-121.5 1352.76,-230.9 34.31,-24.9 37.77,-51.3 -0.08,-78.8"
         style="fill:#1b494a;fill-opacity:1;fill-rule:nonzero;stroke:none"
         id="path194" /><path
         d="m 8416.12,8499.2 -53.06,-156.9 c 0,0 -10.65,1.9 -29.07,6.6 -57.9,14.6 -199.03,48.3 -357.13,94.7 -238.18,67.6 -518.3,162.2 -620.16,253.4 -155.34,138.1 -382.96,516.2 -510.66,876.2 -3.9,9 -6.46,17.7 -9.01,26.4 -66.05,190.8 -103.02,374.9 -83.62,513.1 11.14,84.7 33.43,154.9 62.04,214.4 37.54,78.6 86.62,137.1 134.14,179.4 6.78,7.1 13.54,14.1 22.74,19.3 77.64,64.5 132.24,108.2 132.24,108.2 34.38,7.6 79.93,-37.7 108.94,-82.8 0,0 47.13,-89.7 67.2,-153.9 1.09,-1.5 2.19,-3.1 1.95,-4.4 4.49,-13.2 8.77,-27.7 14.12,-43.8 2.18,-3.2 2.8,-7.4 3.64,-10.3 9.14,-33.3 18.02,-67.9 26.68,-103.9 99.53,-386.6 176.58,-959.1 292.76,-1146.4 50.13,-80.6 312.1,-268.2 521.69,-410.5 150.93,-101.5 274.57,-178.8 274.57,-178.8"
         style="fill:#f89f6b;fill-opacity:1;fill-rule:nonzero;stroke:none"
         id="path196" /><path
         d="m 7014.32,10256.7 c -94.77,-61.9 -212.84,-111.8 -360.12,-141.4 -552.07,-111.3 -749.21,358.2 -819.18,678.7 76,40.7 146.65,48.1 187.45,51.8 39.76,3.6 81.55,5.5 116.13,6.3 62.91,45.4 160.14,235.9 188.88,535.1 l 25.6,-7.6 428.96,-130.5 c 0,0 -23.69,-136.9 -37.04,-266.5 -10.38,-101.4 -14.29,-198.5 4.29,-222.8 33.53,-8.3 53.63,-13.7 53.63,-13.7 0,0 0.02,-0.1 0.21,-0.4 5.54,-9.6 125.14,-219.4 211.19,-489"
         style="fill:#f89f6b;fill-opacity:1;fill-rule:nonzero;stroke:none"
         id="path198" /><path
         d="m 7206.51,9911.8 c -2.58,-11.8 -5.63,-23.3 -9.06,-35.1 -96.89,-324 -175.3,-1619.3 -175.3,-1619.3 69.96,-220.7 -1705.43,-202.2 -1739.78,3 -92.82,209.4 134.38,600.4 265.69,799.1 16.44,24.9 30.64,51.2 42.34,78.4 29.62,68.4 43.92,142.8 40.98,217.9 -11.55,296.3 -62.96,568 -84.5,734.7 0,0 0,0 0.01,0 27.34,27.2 53.94,52.4 78.65,76.4 37.74,36.9 70.85,71.1 94.08,104.3 25.6,36.1 39.82,71.4 36.65,108.4 -2.44,28 -7.44,56.4 -14.46,84.4 -3.25,13.3 -6.94,26.5 -10.92,39.6 -42.17,138.1 -119.73,257.6 -119.73,257.6 140.54,82.1 411.31,84.6 411.31,84.6 0,0 1.84,-14.7 5.19,-38.9 13.21,-97.1 50.24,-346 88.15,-388.7 47.4,-53 796.03,-206.9 822.06,-121.8 25.63,83.7 -128.97,436 -134.74,449.3 -0.19,0.3 -0.21,0.4 -0.21,0.4 251.79,-58.9 348.32,-125 348.32,-125 -130.02,-114 123.55,-398.8 55.27,-709.3"
         style="fill:#246568;fill-opacity:1;fill-rule:nonzero;stroke:none"
         id="path200" /><path
         d="m 6782.06,11249 c 0,0 -23.75,-136.8 -37.04,-266.5 -244.21,31.4 -351.3,267.8 -391.95,396.9 l 428.99,-130.4"
         style="fill:#ee8751;fill-opacity:1;fill-rule:nonzero;stroke:none"
         id="path202" /><path
         d="m 6851.55,11117.9 c 0,0 -580.41,48.5 -544.67,409.5 35.74,360.9 -15.11,610.3 356.98,594.6 372.08,-15.6 430.34,-160.5 447.72,-283.9 17.37,-123.4 -108.14,-723.5 -260.03,-720.2"
         style="fill:#f89f6b;fill-opacity:1;fill-rule:nonzero;stroke:none"
         id="path204" /><path
         d="m 7114.44,12040.5 c -78.7,117.6 -148.77,100.5 -189.96,71.7 -299.29,205.8 -657.81,10.5 -657.81,10.5 -64.7,-255.1 -137.64,-426.5 -137.64,-426.5 0,0 99.08,-75.8 348.83,-37.5 76.29,11.6 147.98,57.8 210.85,116.3 -115.07,-155.3 -261.11,-260.9 -261.11,-260.9 304.3,105.3 461.58,498.2 477.5,539.8 32.19,-35.3 95.01,-111.3 109.49,-181.1 19.69,-94.8 13.74,-285.3 69.53,-284.4 0,0 148.35,275.9 30.32,452.1"
         style="fill:#1b494a;fill-opacity:1;fill-rule:nonzero;stroke:none"
         id="path206" /><path
         d="m 6493.37,8612.1 c -342.95,-46.1 -684.52,267.4 -902.97,525.8 29.62,68.4 43.92,142.8 40.98,217.9 -11.55,296.3 -62.96,568 -84.5,734.7 0,0 0,0 0.01,0 27.34,27.2 53.94,52.4 78.65,76.4 37.74,36.9 70.85,71.1 94.08,104.3 349.21,-433.3 1238.74,-1596.7 773.75,-1659.1"
         style="fill:#1b494a;fill-opacity:1;fill-rule:nonzero;stroke:none"
         id="path208" /><path
         d="m 7689.92,8494.6 60.67,-205.9 c 0,0 -153.11,34.8 -249.09,44.2 -28.8,2.9 -45.3,5.5 -45.3,5.5 -76.86,8.3 -169,20.6 -269.28,33.7 l -1.38,-0.1 c -172.15,25.8 -365.17,58 -529.03,98.1 -115.32,29.4 -216.07,62.8 -285.78,98.9 -7.14,3.4 -12.82,7 -20.04,11.9 -167.77,100.9 -384.53,421.8 -561.58,770.6 -24.57,48.2 -47.84,96.5 -70.87,143.4 -83.16,174.9 -152.57,348.3 -198.25,499.2 -28.27,89.9 -48.99,172.4 -57.67,241 -3.46,24.1 -6.76,47 -7.3,68.7 -0.99,12.4 -1.76,24.6 -2.3,36.5 67.8,59.3 224.21,170.2 437.51,158.7 4.44,-7.6 8.83,-15.3 13.28,-23.2 91.98,-167.3 192.41,-385.5 287.39,-602.9 52.52,-119 103.58,-238.3 153.87,-348.1 28.96,-66.8 57.52,-129.5 84.24,-187 51.67,-109.7 97.35,-198.1 136.13,-253.2 24.88,-35.9 91.45,-83.1 178.91,-135.3 151.94,-91.5 371.92,-198.8 562.88,-285.4 79.32,-36.7 154.18,-69.6 216.38,-96.8 100.35,-44.3 166.61,-72.5 166.61,-72.5"
         style="fill:#f89f6b;fill-opacity:1;fill-rule:nonzero;stroke:none"
         id="path210" /><path
         d="m 5903.06,10475.2 c -265.89,49.1 -448.58,-171 -448.58,-171 -30.65,390.8 159.11,461.1 159.11,461.1 75.4,39.2 177.78,-88.4 289.47,-290.1"
         style="fill:#1b494a;fill-opacity:1;fill-rule:nonzero;stroke:none"
         id="path212" /><path
         d="m 5930.15,2580.4 h -901.06 c 0,0 -21.59,137.3 25.47,241.5 45.09,100 115.73,145.4 98.82,266.4 57.25,-58.9 150.57,-125 280.84,-107.4 15.96,-25.9 103.03,-164.4 156.34,-202.7 58.89,-42.3 321.46,-27.2 339.59,-197.8"
         style="fill:#1b494a;fill-opacity:1;fill-rule:nonzero;stroke:none"
         id="path214" /><path
         d="m 7864.86,2580.4 h -901.07 c 0,0 -33.69,143.7 25.47,241.5 52.37,86.6 32.3,135.9 -6.48,207.4 40.82,-16.7 93.62,-31.9 151.76,-28.5 44.9,2.5 92.37,22.9 134,47.1 38.78,-44.2 204.84,-232.4 256.73,-269.7 58.89,-42.3 321.45,-27.2 339.59,-197.8"
         style="fill:#1b494a;fill-opacity:1;fill-rule:nonzero;stroke:none"
         id="path216" /><path
         d="m 6713.12,11326.7 c 0,0 8.12,-47.8 125.72,-47.9 0,0 98.74,-0.1 98.99,51.8 0,0 -93.06,42.8 -224.71,-3.9"
         style="fill:#ffffff;fill-opacity:1;fill-rule:nonzero;stroke:none"
         id="path218" /><path
         d="m 9747.29,9810.6 c -38.09,14.7 -84.97,-146.5 -114.28,-152.3 -29.29,-5.9 -17.58,43.9 -43.78,51.7 -26.2,7.8 -38.26,-130.9 -17.75,-184.3 20.52,-53.4 17.62,-116.8 17.62,-116.8 0,0 -174.33,-673.4 -211.85,-748.7 -37.52,-75.3 -652.02,-623.5 -652.02,-623.5 l 135.15,-436.6 c 0,0 723.83,668.8 785.52,826.1 61.7,157.3 89.63,964.8 89.63,964.8 0,0 54.12,116.4 65.85,233.6 11.72,117.2 -15.99,171.4 -54.09,186"
         style="fill:#ee8751;fill-opacity:1;fill-rule:nonzero;stroke:none"
         id="path220" /><path
         d="m 7868.4,8085.2 c 0,0 -425.97,551.5 -633.28,722.7 0,0 -283.55,699.2 -306.6,745.2 -1.07,2.2 -2.52,4 -4.12,5.6 -3.08,16.1 -12.72,74.6 -2.1,128.5 12.45,63.1 -27.62,214.5 -55.16,200.8 -27.53,-13.7 -4.95,-66.7 -38.55,-65.8 -33.6,0.9 -116.59,170.4 -155.99,146.9 -39.39,-23.6 -59.68,-89 -24.12,-216.7 29.61,-106.2 91.62,-206.1 111.58,-236.6 -1.15,-0.7 -1.79,-1 -1.79,-1 0,0 104.15,-679.7 213.98,-881.2 109.84,-201.5 450.43,-877.7 690.82,-902.8 240.4,-25 205.33,354.4 205.33,354.4"
         style="fill:#ee8751;fill-opacity:1;fill-rule:nonzero;stroke:none"
         id="path222" /><path
         d="m 9154.76,2895.8 c 0,0 48.13,-93.9 154.74,-117.1 67.17,-14.7 124.67,-49.6 160.45,-98.6 30.23,-41.4 0.98,-99.7 -50.3,-99.7 h -541.17 c -46.08,0 -82.05,39.8 -77.44,85.6 4.03,40.1 8.25,86.8 10.08,122.6 4,78.2 82.28,141.1 82.28,141.1 l 261.36,-33.9"
         style="fill:#a81257;fill-opacity:1;fill-rule:nonzero;stroke:none"
         id="path224" /><path
         d="m 9167.8,2872.2 c 0,0 -129.84,-76.7 -349.51,-30.4 0,0 -373.47,955 -395.59,1404.4 -1,18 -1.3,35.2 -1,51.6 7.53,422.7 -382.75,1523.4 -277.49,1748.9 105.28,225.5 955.86,-101.4 955.86,-101.4 l 16.9,-767 50.83,-2306.1"
         style="fill:#246568;fill-opacity:1;fill-rule:nonzero;stroke:none"
         id="path226" /><path
         d="M 9116.97,5178.3 8422.7,4246.2 c -1,18 -1.3,35.2 -1,51.6 7.53,422.7 -382.75,1523.4 -277.49,1748.9 105.28,225.5 955.86,-101.4 955.86,-101.4 l 16.9,-767"
         style="fill:#1b494a;fill-opacity:1;fill-rule:nonzero;stroke:none"
         id="path228" /><path
         d="m 7757.55,2895.8 c 0,0 48.12,-93.9 154.74,-117.1 67.16,-14.7 124.67,-49.6 160.45,-98.6 30.23,-41.4 0.99,-99.7 -50.29,-99.7 h -541.18 c -46.08,0 -82.05,39.8 -77.44,85.6 4.04,40.1 8.25,86.8 10.08,122.6 4.01,78.2 82.29,141.1 82.29,141.1 l 261.35,-33.9"
         style="fill:#a81257;fill-opacity:1;fill-rule:nonzero;stroke:none"
         id="path230" /><path
         d="m 8602.56,5927.1 c 0,0 -751.72,-2805.3 -774.76,-3079.8 0,0 -146.62,-75.2 -384.65,57.6 0,0 -138.2,1257.4 0,1601 138.21,343.6 -27.44,1382.2 324.12,1616.4 351.56,234.3 835.29,-195.2 835.29,-195.2"
         style="fill:#246568;fill-opacity:1;fill-rule:nonzero;stroke:none"
         id="path232" /><path
         d="m 8692.31,8150.3 -461.55,-235.9 -92.49,320.2 c 0,0 58.81,110.8 85.4,292.3 11.12,76.4 16.64,165.2 9.55,263.6 l 376.06,-192.6 c 0,0 -8.96,-34.7 -14.98,-86 -6.39,-55.5 -9.26,-130.2 6.51,-201.3 13.59,-60.9 40.87,-119.1 91.5,-160.3"
         style="fill:#ee8751;fill-opacity:1;fill-rule:nonzero;stroke:none"
         id="path234" /><path
         d="m 9075.86,7743.7 c 2.56,38.3 233.67,194.5 233.67,194.5 48.62,291.8 -137.06,501.9 -137.06,501.9 l -278.32,-198 c -53.75,-3.2 -76.78,-22.8 -76.78,-22.8 -46.08,12.4 -183.48,1.5 -183.48,1.5 2.03,-66.3 -15.59,-128.4 -132.05,-143.6 -154.92,-20.2 -293.44,85.5 -363.57,157.4 0,0 -93.84,8.1 -211.58,-30.3 0,0 -57,29.2 -117.74,31 l -227.82,204.8 c 0,0 -266.9,-77.1 -309.01,-479.3 0,0 299.66,-228.1 321.29,-408.2 v 0 l 8.21,-68.3 29.03,-241.9 51.11,-424.3 -152.17,-845 c -1.3,-7.4 -2.03,-14.8 -2.03,-22.1 0,-56.5 38.63,-107.3 95.4,-120.9 0,0 13.07,-2.2 37.17,-5.5 161.32,-22.7 816.16,-100.8 1329.58,38.6 115.43,31.3 191.53,141.5 181.94,260.9 l -108.64,1363.2 v 0 c 0,0 10.3,218 12.85,256.4"
         style="fill:#a81257;fill-opacity:1;fill-rule:nonzero;stroke:none"
         id="path236" /><path
         d="m 7867.92,6462.6 c -10.17,-294.8 -39.07,-544.7 -207.79,-638 -24.1,3.3 -37.17,5.5 -37.17,5.5 -56.77,13.6 -95.4,64.4 -95.4,120.9 0,7.3 0.73,14.7 2.03,22.1 l 152.17,845 -51.11,424.3 c 2.47,7.4 3.78,11.3 3.78,11.3 0,0 246.4,-413.6 233.49,-791.1"
         style="fill:#7c0f43;fill-opacity:1;fill-rule:nonzero;stroke:none"
         id="path238" /><path
         d="m 8600.81,8310.6 c -213.84,5.7 -377.14,216.3 -377.14,216.3 l 370.63,-15 c -6.39,-55.5 -9.26,-130.2 6.51,-201.3"
         style="fill:#d17c4f;fill-opacity:1;fill-rule:nonzero;stroke:none"
         id="path240" /><path
         d="m 8704.54,8429.8 c 0,0 -426.57,-112.6 -573.7,226.5 -158.79,366.1 15.41,632.8 160.27,650.8 288.85,35.9 456.63,-74.3 507.39,-190.7 50.76,-116.4 141.39,-626.6 -93.96,-686.6"
         style="fill:#ee8751;fill-opacity:1;fill-rule:nonzero;stroke:none"
         id="path242" /><path
         d="m 8535.44,8620.7 c 0,0 17.85,-44 130.37,-19.3 0,0 94.48,20.7 83.76,70.5 0,0 -98.04,21.3 -214.13,-51.2"
         style="fill:#ffffff;fill-opacity:1;fill-rule:nonzero;stroke:none"
         id="path244" /><path
         d="m 8207,8537.7 c 0,0 -50.05,146.8 -44.06,225.2 0,0 -111.31,141.9 -46.45,177 64.86,35.1 99.85,-48.8 114.72,-32.4 14.86,16.5 38.05,295.4 116.82,286.6 78.77,-8.8 370.16,-99.1 497.91,11.1 127.75,110.1 -182.18,540.6 -707.39,374.3 -525.21,-166.2 -417.97,-750.2 68.45,-1041.8"
         style="fill:#1b494a;fill-opacity:1;fill-rule:nonzero;stroke:none"
         id="path246" /><path
         d="m 7879.45,9350.5 c 0,0 -23.8,71 1.75,121.6 0,0 1.26,-69.8 28.67,-100.8 27.42,-31.1 -30.42,-20.8 -30.42,-20.8"
         style="fill:#1b494a;fill-opacity:1;fill-rule:nonzero;stroke:none"
         id="path248" /><path
         d="m 7890.39,9400.1 c 0,0 -64.97,7.4 -95.65,-42.6 0,0 45.76,31 92.03,-1.9 l 3.62,44.5"
         style="fill:#1b494a;fill-opacity:1;fill-rule:nonzero;stroke:none"
         id="path250" /><path
         d="m 7689.92,8494.6 c 0,0 264.48,-54.4 287.81,-82.8 23.34,-28.3 190,-225 113.34,-248.3 -76.67,-23.3 -207,66.7 -248.51,86.7 -41.49,20 -91.97,38.5 -91.97,38.5 l -60.67,205.9"
         style="fill:#f89f6b;fill-opacity:1;fill-rule:nonzero;stroke:none"
         id="path252" /><path
         d="M 28348.8,4354.4 H 25635 v 1597.7 h 2713.8 V 4354.4"
         style="fill:#a81257;fill-opacity:1;fill-rule:nonzero;stroke:none"
         id="path254" /><path
         d="m 28836.7,6112.7 h -4217.5 v 287.2 h 4217.5 v -287.2"
         style="fill:#c59574;fill-opacity:1;fill-rule:nonzero;stroke:none"
         id="path256" /><path
         d="m 25348,2618.4 h -369 v 3494.3 h 369 V 2618.4"
         style="fill:#c59574;fill-opacity:1;fill-rule:nonzero;stroke:none"
         id="path258" /><path
         d="m 25348,5903.3 -369,-221.4 v 430.8 h 369 v -209.4"
         style="fill:#b17d5f;fill-opacity:1;fill-rule:nonzero;stroke:none"
         id="path260" /><path
         d="m 25839,5851.4 h -79.7 v 325.1 h 79.7 v -325.1"
         style="fill:#b17d5f;fill-opacity:1;fill-rule:nonzero;stroke:none"
         id="path262" /><path
         d="m 28204.4,5851.4 h -79.7 v 325.1 h 79.7 v -325.1"
         style="fill:#b17d5f;fill-opacity:1;fill-rule:nonzero;stroke:none"
         id="path264" /><path
         d="m 26332.9,5392.4 c 29.7,0 55.8,-4 78.4,-11.9 22.6,-8 41.4,-18 56.5,-29.9 15,-12 26.4,-25.2 34.2,-39.5 7.7,-14.4 12.1,-28.1 13,-40.9 0.4,-5.3 -1.3,-9.6 -5,-13 -3.8,-3.3 -8.1,-4.9 -13,-4.9 h -46.5 c -7.5,0 -13.2,1.4 -16.9,4.3 -3.8,2.9 -7.2,6.7 -10.3,11.6 -6.7,11.1 -16.7,20.7 -30.2,28.9 -13.5,8.2 -33.6,12.3 -60.2,12.3 -11.5,0 -22.4,-1.2 -32.8,-3.7 -10.5,-2.4 -19.5,-5.9 -27.3,-10.6 -7.7,-4.6 -13.8,-10.3 -18.2,-16.9 -4.5,-6.7 -6.7,-14.2 -6.7,-22.6 0,-10.2 2.1,-18.5 6.3,-24.9 4.2,-6.4 11.3,-12 21.3,-16.6 9.9,-4.7 23.1,-9 39.5,-13 16.4,-4 36.8,-8.6 61.1,-13.9 26.6,-5.8 49.5,-12.6 68.8,-20.3 19.2,-7.7 35,-17 47.1,-27.9 12.2,-10.9 21.3,-23.4 27.3,-37.5 6,-14.2 8.9,-30.4 8.9,-48.5 0,-19.9 -4.4,-38.4 -13.2,-55.5 -8.9,-17 -21.5,-31.7 -37.9,-43.8 -16.4,-12.2 -36.5,-21.8 -60.5,-28.9 -23.9,-7.1 -50.7,-10.6 -80.3,-10.6 -24.8,0 -48.5,2.9 -71.1,8.9 -22.6,6 -42.6,14.6 -60.1,25.9 -17.5,11.3 -31.6,24.9 -42.2,40.9 -10.6,15.9 -16.6,33.6 -17.9,53.1 -0.5,5.3 1.2,9.7 4.9,13 3.8,3.3 8.1,5 13,5 h 46.5 c 7.5,0 13.3,-1.4 17.3,-4 3.9,-2.7 7.3,-6.7 9.9,-12 3.1,-5.7 6.9,-11.5 11.3,-17.3 4.4,-5.7 10.4,-10.8 17.9,-15.2 7.6,-4.5 17,-8.1 28.3,-11 11.3,-2.9 25.3,-4.3 42.2,-4.3 13.3,0 26.1,1 38.5,3 12.4,2 23.2,5.3 32.5,9.9 9.3,4.7 16.9,10.4 22.6,17.3 5.8,6.9 8.7,15.4 8.7,25.6 0,9.7 -3.1,17.7 -9.3,23.9 -6.2,6.2 -15.6,11.5 -28.3,15.9 -12.6,4.5 -28.2,8.7 -46.8,12.7 -18.6,3.9 -40.1,9 -64.4,15.2 -22.2,5.4 -41.6,11.7 -58.2,19 -16.6,7.3 -30.3,16.2 -41.2,26.9 -10.8,10.6 -18.9,23.1 -24.2,37.5 -5.3,14.4 -8,31.6 -8,51.5 0,19.9 4.5,38.3 13.3,55.1 8.9,16.8 21,31.2 36.6,43.2 15.5,12 33.9,21.4 55.4,28.2 21.5,6.9 44.6,10.3 69.4,10.3"
         style="fill:#ffffff;fill-opacity:1;fill-rule:nonzero;stroke:none"
         id="path266" /><path
         d="m 26888.9,5209.1 c -1.7,31.9 -12,56.6 -30.9,74.1 -18.8,17.4 -43.7,26.2 -74.7,26.2 -31,0 -55.9,-8.8 -74.7,-26.2 -18.8,-17.5 -29.1,-42.2 -30.9,-74.1 -0.9,-16.8 -1.3,-35.5 -1.3,-56.1 0,-20.6 0.4,-39.3 1.3,-56.2 1.8,-31.9 12.1,-56.4 30.9,-73.7 18.8,-17.3 43.7,-25.9 74.7,-25.9 31,0 55.9,8.6 74.7,25.9 18.9,17.3 29.2,41.8 30.9,73.7 0.9,16.9 1.4,35.6 1.4,56.2 0,20.6 -0.5,39.3 -1.4,56.1 z m -300.9,3.3 c 1.4,24.8 6.1,48.2 14.3,70.1 8.2,21.9 20.3,40.9 36.2,57.1 16,16.2 35.9,29 59.8,38.5 23.9,9.6 52.2,14.3 85,14.3 32.3,0 60.5,-4.6 84.4,-13.9 23.9,-9.3 43.8,-22.2 59.8,-38.5 15.9,-16.4 28.1,-35.5 36.5,-57.2 8.4,-21.7 13.3,-45.1 14.6,-70.4 0.5,-8.4 0.8,-17.7 1,-27.9 0.2,-10.2 0.4,-20.7 0.4,-31.5 0,-10.9 -0.2,-21.4 -0.4,-31.6 -0.2,-10.2 -0.5,-19.5 -1,-27.9 -1.3,-24.8 -6.1,-48.2 -14.3,-70.1 -8.2,-21.9 -20.2,-40.9 -36.2,-57.1 -15.9,-16.2 -36,-28.9 -60.1,-38.2 -24.1,-9.3 -52.4,-13.9 -84.7,-13.9 -32.8,0 -61.1,4.6 -85,13.9 -23.9,9.3 -43.8,22 -59.8,38.2 -15.9,16.2 -28,35.2 -36.2,57.1 -8.2,21.9 -12.9,45.3 -14.3,70.1 -0.4,8.4 -0.8,17.7 -1,27.9 -0.2,10.2 -0.3,20.7 -0.3,31.6 0,10.8 0.1,21.3 0.3,31.5 0.2,10.2 0.6,19.5 1,27.9"
         style="fill:#ffffff;fill-opacity:1;fill-rule:nonzero;stroke:none"
         id="path268" /><path
         d="m 27375.2,5003.8 c 4.9,0 9.1,-1.7 12.6,-5.3 3.6,-3.5 5.3,-7.7 5.3,-12.6 v -47.2 c 0,-4.9 -1.7,-9.1 -5.3,-12.6 -3.5,-3.5 -7.7,-5.3 -12.6,-5.3 h -291 c -4.8,0 -9,1.8 -12.6,5.3 -3.5,3.5 -5.3,7.7 -5.3,12.6 v 429.2 c 0,4.8 1.8,9 5.3,12.6 3.6,3.5 7.8,5.3 12.6,5.3 h 53.8 c 4.9,0 9.1,-1.8 12.7,-5.3 3.5,-3.6 5.3,-7.8 5.3,-12.6 v -364.1 h 219.2"
         style="fill:#ffffff;fill-opacity:1;fill-rule:nonzero;stroke:none"
         id="path270" /><path
         d="m 27747.9,5202.5 c -0.9,14.1 -3.7,27.3 -8.3,39.5 -4.7,12.2 -11.6,22.8 -20.6,31.9 -9.1,9 -20.5,16.1 -34.3,21.2 -13.7,5.1 -30.1,7.7 -49.1,7.7 h -89 v -299 h 92.3 c 18.2,0 33.9,2.6 47.2,7.7 13.3,5.1 24.3,12 33.2,20.9 8.8,8.8 15.6,19.5 20.3,31.9 4.6,12.4 7.4,25.7 8.3,39.8 1.7,32.8 1.7,65.6 0,98.4 z m -109,183.3 c 32.8,0 61.2,-4.3 85.4,-13 24.1,-8.6 44.3,-20.9 60.4,-36.8 16.2,-16 28.6,-35.2 37.2,-57.8 8.7,-22.6 13.9,-47.9 15.6,-75.7 1.8,-32.8 1.8,-65.6 0,-98.4 -1.7,-27.9 -6.9,-53.1 -15.6,-75.7 -8.6,-22.6 -20.9,-41.8 -36.8,-57.8 -16,-15.9 -35.8,-28.2 -59.5,-36.9 -23.7,-8.6 -51.5,-12.9 -83.4,-12.9 h -167.4 c -4.8,0 -9,1.8 -12.6,5.3 -3.5,3.5 -5.3,7.7 -5.3,12.6 v 429.2 c 0,4.8 1.8,9 5.3,12.6 3.6,3.5 7.8,5.3 12.6,5.3 h 164.1"
         style="fill:#ffffff;fill-opacity:1;fill-rule:nonzero;stroke:none"
         id="path272" /><path
         d="m 12096.1,2613.5 c 0,0 328.5,699.7 1067.7,709.2 739.1,9.4 1147,871.8 1836.2,830.7 689.2,-41.1 771.4,-717 1264.2,-830.7 492.7,-113.8 1847.9,131.1 1930,-751 l -6098.1,41.8"
         style="fill:#599ca9;fill-opacity:1;fill-rule:nonzero;stroke:none"
         id="path274" /><path
         d="m 13687.3,3322.7 c 0,9.4 -533.8,997.8 -728.9,832.1 -195,-165.7 728.9,-832.1 728.9,-832.1"
         style="fill:#599ca9;fill-opacity:1;fill-rule:nonzero;stroke:none"
         id="path276" /><path
         d="m 13492.3,3291 c 0,0 -477.4,292.6 -703.3,220.7 -225.8,-71.8 703.3,-220.7 703.3,-220.7"
         style="fill:#599ca9;fill-opacity:1;fill-rule:nonzero;stroke:none"
         id="path278" /><path
         d="m 14657.5,3891.6 c 5.1,30.8 -10.3,805.9 -266.9,708.4 -256.7,-97.6 266.9,-708.4 266.9,-708.4"
         style="fill:#599ca9;fill-opacity:1;fill-rule:nonzero;stroke:none"
         id="path280" /><path
         d="m 14811.5,4035.3 c 10.2,15.4 164.2,431.2 51.3,431.2 -112.9,0 -41.1,-415.8 -41.1,-415.8 l -10.2,-15.4"
         style="fill:#599ca9;fill-opacity:1;fill-rule:nonzero;stroke:none"
         id="path282" /><path
         d="m 17047,8339.4 c -6.1,1.9 -12.3,4.1 -18.7,6.3 -31.7,11.4 -95.9,94.4 -95.9,94.4 l -121.1,-130.6 83.1,-87.8 c 47.5,-111.1 48.3,-113.1 191.7,-134.7 124.3,-18.7 104.1,-97.8 190.6,-119.6 86.4,-21.8 74.7,100.6 74.7,100.6 -33.4,193.8 -70,219.2 -153.2,236.4 27.6,9.9 46.1,24.4 40.3,42.6 -5.1,16.1 -47.8,-1.4 -132.6,9.2 -12.6,1.5 -37,-7.3 -58.9,-16.8"
         style="fill:#ee8751;fill-opacity:1;fill-rule:nonzero;stroke:none"
         id="path284" /><path
         d="m 16951.9,8268.5 c 45.9,92.5 67.4,200.5 67.4,200.5 0,0 -816.4,536.8 -888,596.6 -71.6,59.9 -813.8,1151 -813.8,1151 l -869.9,-69.7 c 0,0 1160,-1338.8 1344.4,-1486.9 304.7,-244.8 1065.8,-510.1 1065.8,-510.1 0,0 58,45.9 94.1,118.6"
         style="fill:#a81257;fill-opacity:1;fill-rule:nonzero;stroke:none"
         id="path286" /><path
         d="m 16349.4,2581.2 h -893.7 c -43,52.4 -27.2,246 -20.7,309.2 1.3,12.7 2.3,20.2 2.3,20.2 0,0 305.2,244.1 347.1,57.2 1.3,-5.9 2.8,-11.6 4.5,-17.3 52.8,-174.8 289.8,-254.3 426.6,-276.4 88.9,-14.4 121.8,-60.7 133.9,-92.9"
         style="fill:#1b494a;fill-opacity:1;fill-rule:nonzero;stroke:none"
         id="path288" /><path
         d="m 15166.4,2581.2 h -893.8 c -42.9,52.4 -27.1,246 -20.6,309.2 1.3,12.7 2.3,20.2 2.3,20.2 0,0 305.2,244.1 347.1,57.2 1.3,-5.9 2.8,-11.6 4.5,-17.3 52.8,-174.8 289.7,-254.3 426.6,-276.4 88.9,-14.4 121.8,-60.7 133.9,-92.9"
         style="fill:#1b494a;fill-opacity:1;fill-rule:nonzero;stroke:none"
         id="path290" /><path
         d="m 15977,7550.8 c 0,0 0,-544.7 1.7,-1253.9 2.3,-947 -63.4,-2103.9 -72.2,-2323.6 -15.3,-381.5 -76.4,-991.8 -76.4,-991.8 0,0 -144.8,-144.9 -434.8,-83.8 0,0 -258.4,871.1 -332.2,1792.8 -1.1,15.1 -2.3,30.4 -3.4,45.6 -68.7,938.3 -175.5,2914.2 -175.5,2914.2 l 1092.8,-99.5"
         style="fill:#246568;fill-opacity:1;fill-rule:nonzero;stroke:none"
         id="path292" /><path
         d="m 15977,7550.8 c 0,0 0,-524 1.7,-1253.9 l -838.6,-2238 c -1.1,15.1 -79.3,662 -80.4,677.2 -68.7,938.3 -175.5,2914.2 -175.5,2914.2 l 1092.8,-99.5"
         style="fill:#1b494a;fill-opacity:1;fill-rule:nonzero;stroke:none"
         id="path294" /><path
         d="m 15538.4,7736.6 c 0,0 -112.8,-1501.2 -271.9,-2756.2 -202.7,-1095.1 -561.4,-2102.9 -561.4,-2102.9 0,0 -435.9,-41.3 -483.3,35.8 0,0 -87.1,1361.5 110.6,2075.4 89.1,322.1 -57,1196.1 -88.7,1660.4 -41,600.5 89.3,1143.4 89.3,1143.4 l 1205.4,-55.9"
         style="fill:#246568;fill-opacity:1;fill-rule:nonzero;stroke:none"
         id="path296" /><path
         d="m 15510.5,10554.3 c -326.4,-103 -891.2,174.9 -891.2,174.9 0,0 300.9,225.9 285.2,695.6 l 252.4,-203.4 171.4,-138.2 c 0,0 -0.7,-81.4 -19.5,-224.2 -4.9,-37.5 -11,-79.4 -18.8,-125.1 140.1,-76.9 220.5,-179.6 220.5,-179.6"
         style="fill:#ee8751;fill-opacity:1;fill-rule:nonzero;stroke:none"
         id="path298" /><path
         d="m 15328.3,11083.2 c 0,0 -0.7,-81.4 -19.5,-224.2 -189.9,32.6 -405.4,339.7 -405.4,339.7 96.7,27.9 181.4,32.9 253.5,22.7 l 171.4,-138.2"
         style="fill:#d17c4f;fill-opacity:1;fill-rule:nonzero;stroke:none"
         id="path300" /><path
         d="m 15428.1,11090.9 c 0,0 -539.1,-89.5 -589.8,247.1 -50.6,336.7 -154.3,551.8 187.9,623.2 342.1,71.5 428.4,-46.9 472.6,-155.2 44.3,-108.2 68.3,-683.1 -70.7,-715.1"
         style="fill:#ee8751;fill-opacity:1;fill-rule:nonzero;stroke:none"
         id="path302" /><path
         d="m 15995.9,7522.8 c -9.8,-8.2 -21.2,-13.1 -34.3,-13.1 -122.6,1.7 -509.9,-67.2 -812.3,-36.1 -255,24.5 -480.7,100 -723,208.6 -32.2,14.5 -106.3,54 -104.6,90 1.1,39.4 5,96.5 9.9,168.5 17.1,250.1 47,680.4 17.9,1176.8 -5.3,92.4 -8,184.1 -8.3,274.4 -2.5,672.8 130.9,1264.5 398.9,1464.8 22.9,16.4 163.5,-52.3 292.7,-116 119.3,-58.9 238.6,-65.4 351.4,-42.6 l 112.7,-99.7 c 137.4,-127.4 287.7,-300.7 353.1,-563.9 55.6,-223.9 88.3,-627.7 106.3,-1046.2 8.1,-189.6 14.7,-380.9 16.4,-562.3 v -6.5 c 1.6,-18 1.6,-37.7 1.6,-55.6 6.5,-465.9 29.8,-834.5 21.6,-841.1"
         style="fill:#a81257;fill-opacity:1;fill-rule:nonzero;stroke:none"
         id="path304" /><path
         d="m 14837.9,11370.4 c 0,0 55.3,9.3 46.4,85.5 -8.9,76.2 -8.8,175.8 53.2,157.2 61.9,-18.5 65,-68.1 90.5,-39.2 25.4,29 25.9,151.1 210.2,159.6 184.4,8.5 259.3,-55.7 345.1,-18 85.7,37.7 90.2,167.4 90.2,167.4 0,0 -24.3,-46.3 -61.2,-61 0,0 143.1,195.6 -22.5,329.8 -165.6,134.1 -334.5,46.3 -430.4,40.5 -211.1,-12.8 -347.5,-25.5 -416.5,-164.2 -69,-138.8 -40.5,-524 95,-657.6"
         style="fill:#1b494a;fill-opacity:1;fill-rule:nonzero;stroke:none"
         id="path306" /><path
         d="m 20566.6,7460.8 c -2.3,15.7 -14.6,27.6 -29.5,30 -3.5,0.5 -7,0.6 -10.7,0.1 l -53.3,-7.5 -197.5,-28.2 -107.7,-15.4 c -19.4,-2.7 -32.9,-20.8 -30.1,-40.1 l 16,-112.2 428.8,61.1 z m -869.9,-239.9 131.1,18.7 v 0 0 h 0.1 c 0,0 0.1,0 0.1,0.1 9.1,2.2 18.3,4 27.8,5.3 l 239,34 -16,112.3 c -3.6,25 2.9,50.1 18.1,70.4 15.3,20.3 37.6,33.5 62.6,37.1 l 62.3,8.9 251,35.8 45.3,6.4 c 51.8,7.3 100.1,-28.8 107.4,-80.7 l 16,-112.2 412.6,58.8 c 156.8,22.3 303.4,-87.7 325.8,-244.5 l 74.9,-526.3 c 22.4,-156.8 -87.6,-303.4 -244.4,-325.7 l -1198.3,-170.8 c -21.1,-3.1 -42,-3.6 -62.4,-2 l -97.9,-13.9 c -156.3,-22.3 -302.3,87.3 -324.6,243.6 l -74.1,520.2 c -22.3,156.2 87.3,302.3 243.6,324.5"
         style="fill:#1c4f4e;fill-opacity:1;fill-rule:nonzero;stroke:none"
         id="path308" /><path
         d="m 20566.6,7460.8 c -2.3,15.7 -14.6,27.6 -29.5,30 -3.5,0.5 -7,0.6 -10.7,0.1 l -53.3,-7.5 -197.5,-28.2 -107.7,-15.4 c -19.4,-2.7 -32.9,-20.8 -30.1,-40.1 l 16,-112.2 428.8,61.1 z m -869.9,-239.9 131.1,18.7 v 0 0 h 0.1 c 0,0 0.1,0 0.1,0.1 9.1,2.2 18.3,4 27.8,5.3 l 239,34 -16,112.3 c -3.6,25 2.9,50.1 18.1,70.4 15.3,20.3 37.6,33.5 62.6,37.1 l 62.3,8.9 251,35.8 45.3,6.4 c 51.8,7.3 100.1,-28.8 107.4,-80.7 l 16,-112.2 412.6,58.8 c 156.8,22.3 303.4,-87.7 325.8,-244.5 l 74.9,-526.3 c 22.4,-156.8 -87.6,-303.4 -244.4,-325.7 l -1198.3,-170.8 c -21.1,-3.1 -42,-3.6 -62.4,-2 l -97.9,-13.9 c -156.3,-22.3 -302.3,87.3 -324.6,243.6 l -74.1,520.2 c -22.3,156.2 87.3,302.3 243.6,324.5 z"
         style="fill:none;stroke:#040606;stroke-width:10;stroke-linecap:butt;stroke-linejoin:miter;stroke-miterlimit:10;stroke-dasharray:none;stroke-opacity:1"
         id="path310" /><path
         d="m 14332.4,7939.9 c 17.1,250.1 47,680.4 17.9,1176.8 -5.3,92.4 -8,184.1 -8.4,274.4 111.7,270.9 203,467.3 203,467.3 h 281.4 c 0,0 206.4,-1409.5 -493.9,-1918.5"
         style="fill:#7c0f43;fill-opacity:1;fill-rule:nonzero;stroke:none"
         id="path312" /><path
         d="m 13736.7,7754.2 c 0.3,6.4 0.7,12.9 1.2,19.7 2.5,33.5 65.5,117.5 65.5,117.5 l -158,82.1 -62.6,-103.5 c -94.5,-75.2 -96.3,-76.5 -79,-220.5 14.9,-124.8 -66.8,-126.3 -64.8,-215.5 1.9,-89.1 116.8,-45.3 116.8,-45.3 178,83.5 192.7,125.6 187.2,210.4 16.9,-24 35.8,-38 51.9,-27.5 14.1,9.2 -14.1,45.7 -26.4,130.2 -1.8,12.6 -16.8,33.8 -31.8,52.4"
         style="fill:#ee8751;fill-opacity:1;fill-rule:nonzero;stroke:none"
         id="path314" /><path
         d="m 13643.1,7827.1 c 101.3,-19.8 211.2,-11.8 211.2,-11.8 0,0 300.9,929.5 339.7,1014.5 38.7,84.9 893.7,1089.9 893.7,1089.9 l -356.2,891.5 c 0,0 -924.8,-1544.9 -1018.7,-1762 -155.2,-358.7 -209,-1162.9 -209,-1162.9 0,0 59.7,-43.7 139.3,-59.2"
         style="fill:#a81257;fill-opacity:1;fill-rule:nonzero;stroke:none"
         id="path316" /><path
         d="m 20236.3,7686 c 0.8,6.4 1.5,12.9 2.1,19.6 3.1,33.5 -45.1,126.8 -45.1,126.8 l 169.5,54.6 44.5,-112.4 c 80.7,-89.9 83.5,-108.5 94.9,-234.1 11.4,-125.2 -12.5,-106.9 -47.8,-121.4 -42.9,-17.7 -85.3,-28 -116.1,-33.9 -36,-6.8 -73.3,-4.4 -107.4,8.8 -44.7,17.4 -50.4,40.9 -44.5,72.6 3.4,17.8 -11.6,32.3 -29.8,32.1 -3.4,0 -6.5,1.1 -9.3,3.7 -12.4,11.4 22.7,56 48.9,137.3 3.9,12.1 22.2,30.5 40.1,46.3"
         style="fill:#f89f6b;fill-opacity:1;fill-rule:nonzero;stroke:none"
         id="path318" /><path
         d="m 20340.7,7742.3 c -103.2,-2.6 -210.2,23.6 -210.2,23.6 0,0 -142,966.6 -166.1,1056.8 -24,90.2 -699.9,1223.5 -699.9,1223.5 l 614.6,485.2 c 0,0 539.8,-1342.7 596.3,-1572.4 93.3,-379.5 12.5,-1181.5 12.5,-1181.5 0,0 -66.1,-33.2 -147.2,-35.2"
         style="fill:#1b494a;fill-opacity:1;fill-rule:nonzero;stroke:none"
         id="path320" /><path
         d="m 20561.4,2581.2 h 390.8 c 49.2,26.7 93.1,87.9 106.9,179.1 19.1,125.9 160.2,194.5 190.8,297.5 30.4,103 -126,247.9 -126,247.9 l -26.1,33.7 -27.2,35 -259.4,-61.1 c 0,0 -6.5,-61.7 -10.4,-140.4 -2.8,-56.8 -4.3,-122.4 -1.1,-180 7.7,-137.3 -38.4,-285.2 -160.4,-311.9 -90.2,-19.7 -86.2,-73.2 -77.9,-99.8"
         style="fill:#1c4f4e;fill-opacity:1;fill-rule:nonzero;stroke:none"
         id="path322" /><path
         d="m 20561.4,2581.2 h 390.8 c 49.2,26.7 93.1,87.9 106.9,179.1 19.1,125.9 160.2,194.5 190.8,297.5 30.4,103 -126,247.9 -126,247.9 l -26.1,33.7 -27.2,35 -259.4,-61.1 c 0,0 -6.5,-61.7 -10.4,-140.4 -2.8,-56.8 -4.3,-122.4 -1.1,-180 7.7,-137.3 -38.4,-285.2 -160.4,-311.9 -90.2,-19.7 -86.2,-73.2 -77.9,-99.8 z"
         style="fill:none;stroke:#040606;stroke-width:10;stroke-linecap:butt;stroke-linejoin:miter;stroke-miterlimit:10;stroke-dasharray:none;stroke-opacity:1"
         id="path324" /><path
         d="m 18293.2,2581.2 h 893.8 c 43,52.4 27.1,246 20.6,309.2 -1.3,12.7 -2.2,20.2 -2.2,20.2 0,0 -305.2,244.1 -347.2,57.2 -1.2,-5.9 -2.8,-11.6 -4.5,-17.3 -52.8,-174.8 -289.7,-254.3 -426.5,-276.4 -89,-14.4 -121.8,-60.7 -134,-92.9"
         style="fill:#1c4f4e;fill-opacity:1;fill-rule:nonzero;stroke:none"
         id="path326" /><path
         d="m 18293.2,2581.2 h 893.8 c 43,52.4 27.1,246 20.6,309.2 -1.3,12.7 -2.2,20.2 -2.2,20.2 0,0 -305.2,244.1 -347.2,57.2 -1.2,-5.9 -2.8,-11.6 -4.5,-17.3 -52.8,-174.8 -289.7,-254.3 -426.5,-276.4 -89,-14.4 -121.8,-60.7 -134,-92.9 z"
         style="fill:none;stroke:#040606;stroke-width:10;stroke-linecap:butt;stroke-linejoin:miter;stroke-miterlimit:10;stroke-dasharray:none;stroke-opacity:1"
         id="path328" /><path
         d="m 18463.5,7570.2 c 0,0 46.4,-578.2 100.8,-1273.3 74.1,-944.1 163.1,-2103.9 171.9,-2323.6 15.2,-381.5 76.3,-991.8 76.3,-991.8 0,0 144.9,-144.9 434.9,-83.8 0,0 258.3,871.1 332.2,1792.8 1.1,15.1 2.2,30.4 3.4,45.6 68.6,938.3 175.4,2914.2 175.4,2914.2 l -1294.9,-80.1"
         style="fill:#fccf2b;fill-opacity:1;fill-rule:nonzero;stroke:none"
         id="path330" /><path
         d="m 18463.5,7570.2 c 0,0 46.4,-578.2 100.8,-1273.3 l 1015.3,-1606.4 c 1.1,15.1 2.2,30.4 3.4,45.6 68.6,938.3 175.4,2914.2 175.4,2914.2 l -1294.9,-80.1"
         style="fill:#f79432;fill-opacity:1;fill-rule:nonzero;stroke:none"
         id="path332" /><path
         d="m 18675.2,7501.5 c 0,0 835.3,-2094 1384.6,-3078.2 549.2,-984.1 720.9,-1258.7 720.9,-1258.7 0,0 314.7,125.9 343.3,211.7 0,0 -210.1,1899.9 -577.9,2363 -207.9,261.7 -452,1047 -463.5,1321.7 -11.4,274.6 -74.3,818.1 -74.3,818.1 l -1333.1,-377.6"
         style="fill:#fccf2b;fill-opacity:1;fill-rule:nonzero;stroke:none"
         id="path334" /><path
         d="m 18883.1,10554.3 c 326.4,-103 891.2,174.9 891.2,174.9 0,0 -300.9,225.9 -285.2,695.6 l -252.4,-203.4 -171.4,-138.2 c 0,0 0.7,-81.4 19.4,-224.2 5,-37.5 11.1,-79.4 18.9,-125.1 -140.1,-76.9 -220.5,-179.6 -220.5,-179.6"
         style="fill:#f89f6b;fill-opacity:1;fill-rule:nonzero;stroke:none"
         id="path336" /><path
         d="m 19065.3,11083.2 c 0,0 0.7,-81.4 19.4,-224.2 190,32.6 405.5,339.7 405.5,339.7 -96.7,27.9 -181.4,32.9 -253.5,22.7 l -171.4,-138.2"
         style="fill:#ee8650;fill-opacity:1;fill-rule:nonzero;stroke:none"
         id="path338" /><path
         d="m 18965.5,11090.9 c 0,0 539.1,-89.5 589.8,247.1 50.6,336.7 154.3,551.8 -187.9,623.2 -342.1,71.5 -428.4,-46.9 -472.7,-155.2 -44.2,-108.2 -68.2,-683.1 70.8,-715.1"
         style="fill:#f89f6b;fill-opacity:1;fill-rule:nonzero;stroke:none"
         id="path340" /><path
         d="m 18427.5,7522 c 9.8,-8.1 21.2,-13.1 34.3,-13.1 122.6,1.7 480,-66.4 782.5,-35.3 255,24.5 480.7,100 723,208.6 32.2,14.5 106.3,54 104.6,90 -1.1,39.4 -5,96.5 -9.9,168.5 -17.1,250.1 -47,680.4 -17.9,1176.8 5.3,92.4 8,184.1 8.3,274.4 2.5,672.8 -130.9,1264.5 -398.9,1464.8 -22.9,16.4 -163.5,-52.3 -292.7,-116 -119.3,-58.9 -238.6,-65.4 -351.4,-42.6 l -112.7,-99.7 c -137.4,-127.4 -287.8,-300.7 -353.1,-563.9 -55.7,-223.9 -88.3,-627.7 -106.3,-1046.2 -8.1,-189.6 -14.7,-380.9 -16.4,-562.3 v -6.5 c -1.6,-18 -1.6,-37.7 -1.6,-55.6 -6.5,-465.9 0,-835.3 8.2,-841.9"
         style="fill:#246568;fill-opacity:1;fill-rule:nonzero;stroke:none"
         id="path342" /><path
         d="m 17346.6,8339.4 c 6.1,1.9 12.3,4.1 18.7,6.3 31.7,11.4 95.9,94.4 95.9,94.4 l 121.1,-130.6 -83.1,-87.8 c -47.5,-111.1 -48.3,-113.1 -191.7,-134.7 -124.3,-18.7 -104.1,-97.8 -190.6,-119.6 -86.5,-21.8 -74.7,100.6 -74.7,100.6 33.4,193.8 70,219.2 153.2,236.4 -27.6,9.9 -46.1,24.4 -40.3,42.6 5.1,16.1 47.8,-1.4 132.6,9.2 12.6,1.5 37,-7.3 58.9,-16.8"
         style="fill:#f89f6b;fill-opacity:1;fill-rule:nonzero;stroke:none"
         id="path344" /><path
         d="m 17441.7,8268.5 c -45.9,92.5 -67.4,200.5 -67.4,200.5 0,0 816.4,536.8 888,596.6 71.6,59.9 813.8,1151 813.8,1151 l 869.9,-69.7 c 0,0 -1160,-1338.8 -1344.4,-1486.9 -304.7,-244.8 -1065.8,-510.1 -1065.8,-510.1 0,0 -58,45.9 -94.1,118.6"
         style="fill:#246568;fill-opacity:1;fill-rule:nonzero;stroke:none"
         id="path346" /><path
         d="m 19555.7,11370.4 c 0,0 -55.3,9.3 -46.4,85.5 8.9,76.2 8.8,175.8 -53.2,157.2 -61.9,-18.5 -65,-68.1 -90.5,-39.2 -25.4,29 -25.9,151.1 -210.3,159.6 -184.3,8.5 -259.2,-55.7 -345,-18 -85.7,37.7 -90.3,167.4 -90.3,167.4 0,0 24.4,-46.3 61.3,-61 0,0 -143.1,195.6 22.5,329.8 165.6,134.1 334.5,46.3 430.4,40.5 211.1,-12.8 347.5,-25.5 416.5,-164.2 69,-138.8 40.5,-524 -95,-657.6"
         style="fill:#246568;fill-opacity:1;fill-rule:nonzero;stroke:none"
         id="path348" /><path
         d="m 18422.6,8540.5 c 0,0 710.7,235.4 961.6,524.4 254.6,293.4 714.4,830.2 714.4,830.2 l -4.4,17.8 c -36,146.5 -86.2,289.1 -149.8,425.8 v 0 c 0,0 -62.1,-368.9 -253,-623.4 -191,-254.6 -191,-254.6 -191,-254.6 0,0 -314.1,-539.7 -1077.8,-920.2"
         style="fill:#1b494a;fill-opacity:1;fill-rule:nonzero;stroke:none"
         id="path350" /><path
         d="M 29392.9,2532 H 607.086 c -17.981,0 -32.691,14.7 -32.691,32.7 v 11.2 c 0,17.9 14.71,32.7 32.691,32.7 H 29392.9 c 18,0 32.7,-14.8 32.7,-32.7 v -11.2 c 0,-18 -14.7,-32.7 -32.7,-32.7"
         style="fill:#1c4f4e;fill-opacity:1;fill-rule:nonzero;stroke:none"
         id="path352" /><path
         d="M 29392.9,2532 H 607.086 c -17.981,0 -32.691,14.7 -32.691,32.7 v 11.2 c 0,17.9 14.71,32.7 32.691,32.7 H 29392.9 c 18,0 32.7,-14.8 32.7,-32.7 v -11.2 c 0,-18 -14.7,-32.7 -32.7,-32.7 z"
         style="fill:none;stroke:#040606;stroke-width:10;stroke-linecap:butt;stroke-linejoin:miter;stroke-miterlimit:10;stroke-dasharray:none;stroke-opacity:1"
         id="path354" /></g></g></svg>
