<svg xmlns="http://www.w3.org/2000/svg" viewBox="0 0 2695.37 1541.76"><defs><style>.cls-1{isolation:isolate;}.cls-2{fill:#fcedfb;}.cls-3{fill:#f9ddbf;}.cls-4{fill:#fbcf35;}.cls-5{fill:#e5c1a1;}.cls-6{fill:#ffeddc;}.cls-7{fill:#fce0fb;}.cls-8{fill:#f4c9f0;}.cls-9{fill:#dd9ed4;}.cls-10{fill:#c0d8fb;}.cls-11{fill:#ffb93e;}.cls-12{fill:#ffa412;}.cls-13{fill:#ebcea2;mix-blend-mode:multiply;}.cls-14{fill:#8f322a;}.cls-15{fill:#ffb27d;}.cls-16{fill:#233862;}.cls-17{fill:#850c45;}.cls-18{fill:#a71453;}.cls-19{fill:#b5453c;}.cls-20{fill:#ed975d;}.cls-21{fill:#349b86;}.cls-22{fill:#096c6d;}.cls-23{fill:#e0c2a1;}.cls-24{fill:#e2810e;}.cls-25{fill:#2e3552;}.cls-26{fill:#af5ba0;}.cls-27{fill:#efa26f;}.cls-28{fill:#a9453d;}.cls-29{fill:#005453;}.cls-30{fill:#89407f;}</style></defs><g class="cls-1"><g id="Layer_2" data-name="Layer 2"><g id="Layer_1-2" data-name="Layer 1"><path class="cls-2" d="M138.34,1538.72c-138.83-52.82-175.77-210.42-61-392.83,116-184.3-358.51-683,410.73-1020.88C1210-192.12,1616.89,195.4,1788.25,185.11,2231.3,158.5,2588.27,290.5,2669,690.5c96.09,476.23-108.59,749.36-202.53,848.22Z"/><path class="cls-3" d="M2429.24,875.25s-26.69,45.24-51.17,45.87-61.72-21-61.72-21-22.47-60.28-7.23-83.86c0,0,15.29-8.08,31.27,6.18a53.33,53.33,0,0,1,8.28,9.54c3.88,5.61,8.23,8.81,12.85,10.48,17.46,6.4,38.19-8.64,45.95,5.87A96.4,96.4,0,0,0,2421,867.6,63.74,63.74,0,0,0,2429.24,875.25Z"/><path class="cls-3" d="M2046.26,1536.66s-65.55-575.15,299.14-615.54c0,0,274.65,65.4,215.33,591.41a27.2,27.2,0,0,1-27,24.13Z"/><path class="cls-4" d="M2298.87,929.52S2367,947.74,2388,937c0,0,3.17-34.26-25.5-29.45-19.62,3.28-32.41-8.07-39.93-12.67C2311.89,888.39,2296,915.19,2298.87,929.52Z"/><path class="cls-5" d="M2358.12,877.87c-4.36,3.94-17.73-55.4-17.73-55.4a53.33,53.33,0,0,1,8.28,9.54c3.88,5.61,8.23,8.81,12.85,10.48C2361.56,844.22,2362.34,874.05,2358.12,877.87Z"/><path class="cls-5" d="M2421,867.6c-1,.68-32.45,23.38-36.72,23.38s23.22-42.62,23.22-42.62A96.4,96.4,0,0,0,2421,867.6Z"/><path class="cls-6" d="M2267.54,1237.8s18.2,25.61,34.88,26,42-11.87,42-11.87,15.32-34.13,4.93-47.49c0,0-10.42-4.57-21.31,3.5a32.81,32.81,0,0,0-5.64,5.41,17.9,17.9,0,0,1-8.76,5.93c-11.9,3.62-26-4.9-31.31,3.33a56.06,56.06,0,0,1-9.2,10.89A41.25,41.25,0,0,1,2267.54,1237.8Z"/><path class="cls-6" d="M2498.75,1497.71c-14.14-75.07-57.66-232.59-174.07-233.94,0,0-96.33,10.7-111.14,137.55-.79,6.75,7.12,127.92,6.82,135.34h246.09A32.87,32.87,0,0,0,2498.75,1497.71Z"/><path class="cls-4" d="M2356.39,1268.53s-46.4,10.31-60.71,4.25c0,0-2.17-19.4,17.37-16.68,13.37,1.86,22.08-4.56,27.21-7.17C2347.51,1245.24,2358.31,1260.41,2356.39,1268.53Z"/><path class="cls-5" d="M2316,1239.28c3,2.23,12.08-31.37,12.08-31.37a32.81,32.81,0,0,0-5.64,5.41,17.9,17.9,0,0,1-8.76,5.93C2313.66,1220.23,2313.13,1237.12,2316,1239.28Z"/><path class="cls-5" d="M2273.18,1233.47c.66.38,22.11,13.23,25,13.23s-15.82-24.12-15.82-24.12A56.06,56.06,0,0,1,2273.18,1233.47Z"/><path class="cls-3" d="M2447.22,1457.74c0-42.31-48.51-144.92-66-144.9-11.54,0-37.38,23.84-56.1,27s-39.14.17-42.68,20-9.76,99.82-3.79,111.09S2434.7,1478.14,2447.22,1457.74Z"/><rect class="cls-7" x="655.27" y="1468.43" width="1576.57" height="22.79"/><rect class="cls-8" x="639.11" y="1491.22" width="1608.89" height="22.79"/><rect class="cls-7" x="616.93" y="1514.01" width="1653.25" height="22.79"/><rect class="cls-8" x="692.04" y="597.36" width="1474.44" height="871.08"/><polygon class="cls-8" points="2266.58 613.97 604.59 613.97 1450.7 185.11 2266.58 613.97"/><polygon class="cls-9" points="856.87 556.73 2014.31 554.3 1450.13 260.91 856.87 556.73"/><rect class="cls-9" x="647.97" y="613.97" width="1583.33" height="36.72"/><rect class="cls-7" x="765.54" y="613.97" width="155.96" height="55.21"/><rect class="cls-7" x="800.53" y="669.18" width="85.97" height="799.25"/><rect class="cls-7" x="1102.53" y="613.97" width="155.96" height="55.21"/><rect class="cls-7" x="1137.53" y="669.18" width="85.97" height="799.25"/><rect class="cls-7" x="1632.29" y="613.97" width="155.96" height="55.21"/><rect class="cls-7" x="1667.28" y="669.18" width="85.97" height="799.25"/><rect class="cls-7" x="1949.61" y="613.97" width="155.96" height="55.21"/><rect class="cls-7" x="1984.61" y="669.18" width="85.97" height="799.25"/><path class="cls-7" d="M1469,447a19.86,19.86,0,0,0-1-6.94,14.61,14.61,0,0,0-3.55-5.48A27.75,27.75,0,0,0,1458,430a72.36,72.36,0,0,0-9.67-4.16,189.16,189.16,0,0,1-17.82-7.52,59.63,59.63,0,0,1-13.68-9,35.43,35.43,0,0,1-8.75-11.73,39.92,39.92,0,0,1,.09-30.33,33.76,33.76,0,0,1,8.23-11.3,42,42,0,0,1,12.66-7.72,55.84,55.84,0,0,1,16.42-3.65l.29-20,16.12.23-.29,20.31a50.15,50.15,0,0,1,15.65,4.81,37.81,37.81,0,0,1,19.27,22.33,50.24,50.24,0,0,1,2.42,16.93l-29.11-.43q.17-11.22-4.74-16.87t-13.27-5.76a21.83,21.83,0,0,0-7.83,1.15,14.84,14.84,0,0,0-5.44,3.38,13.76,13.76,0,0,0-3.19,5.15,19.83,19.83,0,0,0-1.1,6.45,18.42,18.42,0,0,0,.91,6.28,13.58,13.58,0,0,0,3.4,5.24,27.26,27.26,0,0,0,6.48,4.59,93.48,93.48,0,0,0,10.06,4.5q9.72,3.8,17.68,7.74a61,61,0,0,1,13.62,9.05,35.79,35.79,0,0,1,8.75,11.78A40,40,0,0,1,1495,462a33.11,33.11,0,0,1-8.27,11.21,40.61,40.61,0,0,1-12.76,7.49,60.54,60.54,0,0,1-16.52,3.5l-.27,18.62-16-.23.27-18.53a67.87,67.87,0,0,1-16.12-3.88,43,43,0,0,1-13.73-8.3,38.33,38.33,0,0,1-9.48-13.48q-3.51-8.1-3.34-19.33l29.11.43a28.83,28.83,0,0,0,1.7,11.11,18.63,18.63,0,0,0,4.89,7.19,17.9,17.9,0,0,0,7,3.84,30.82,30.82,0,0,0,8.1,1.2,25.92,25.92,0,0,0,8.33-1.1,17.17,17.17,0,0,0,6-3.28,13.64,13.64,0,0,0,3.7-5.05A16.53,16.53,0,0,0,1469,447Z"/><path class="cls-9" d="M1422.26,1134.27h19a94.57,94.57,0,0,1,94.57,94.57v239.59a0,0,0,0,1,0,0h-214a0,0,0,0,1,0,0V1234.65A100.38,100.38,0,0,1,1422.26,1134.27Z"/><path class="cls-9" d="M1304.73,805h9a44.64,44.64,0,0,1,44.64,44.64v113.1a0,0,0,0,1,0,0h-101a0,0,0,0,1,0,0V852.36A47.38,47.38,0,0,1,1304.73,805Z"/><path class="cls-9" d="M1008.89,805h9a44.64,44.64,0,0,1,44.64,44.64v113.1a0,0,0,0,1,0,0h-101a0,0,0,0,1,0,0V852.36A47.38,47.38,0,0,1,1008.89,805Z"/><path class="cls-9" d="M1008.89,1143.61h9a44.64,44.64,0,0,1,44.64,44.64v113.1a0,0,0,0,1,0,0h-101a0,0,0,0,1,0,0V1191A47.38,47.38,0,0,1,1008.89,1143.61Z"/><path class="cls-9" d="M1865.81,805h9a44.64,44.64,0,0,1,44.64,44.64v113.1a0,0,0,0,1,0,0h-101a0,0,0,0,1,0,0V852.36A47.38,47.38,0,0,1,1865.81,805Z"/><path class="cls-10" d="M1865.81,1143.61h9a44.64,44.64,0,0,1,44.64,44.64v113.1a0,0,0,0,1,0,0h-101a0,0,0,0,1,0,0V1191A47.38,47.38,0,0,1,1865.81,1143.61Z"/><path class="cls-9" d="M1560.13,805h9a44.64,44.64,0,0,1,44.64,44.64v113.1a0,0,0,0,1,0,0h-101a0,0,0,0,1,0,0V852.36A47.38,47.38,0,0,1,1560.13,805Z"/><path class="cls-11" d="M1832.35,1511v18.45a6.31,6.31,0,0,1-1.45,4,8.45,8.45,0,0,1-4,2.67,9.6,9.6,0,0,1-1.54.36,10.59,10.59,0,0,1-1.5.11H1474c-4.51,0-8.23-3-8.45-6.74,0-.12,0-.24,0-.36V1511c0-.12,0-.25,0-.37.22-3.74,3.94-6.74,8.45-6.74h349.89a10.59,10.59,0,0,1,1.5.11,8.65,8.65,0,0,1,1.54.37,8.44,8.44,0,0,1,4,2.66A6.31,6.31,0,0,1,1832.35,1511Z"/><path class="cls-12" d="M1660.53,1536.57H1473.08a7.39,7.39,0,0,1-7.54-6.74c0-.12,0-.24,0-.36V1511c0-.12,0-.25,0-.37a7.39,7.39,0,0,1,7.54-6.74h164.43A57.29,57.29,0,0,0,1660.53,1536.57Z"/><rect class="cls-12" x="1785.8" y="1503.91" width="3.98" height="32.66"/><rect class="cls-12" x="1772.33" y="1503.91" width="3.98" height="32.66"/><rect class="cls-12" x="1756.19" y="1503.91" width="3.98" height="32.66"/><rect class="cls-12" x="1731.45" y="1503.91" width="3.98" height="32.66"/><rect class="cls-12" x="1705.29" y="1503.91" width="3.98" height="32.66"/><rect class="cls-12" x="1665.17" y="1503.91" width="3.98" height="32.66"/><rect class="cls-12" x="1627.62" y="1503.91" width="3.98" height="32.66"/><rect class="cls-12" x="1594.08" y="1503.91" width="3.98" height="32.66"/><rect class="cls-12" x="1798.61" y="1503.91" width="3.98" height="32.66"/><rect class="cls-12" x="1807.07" y="1503.91" width="3.98" height="32.66"/><rect class="cls-12" x="1815.25" y="1503.91" width="3.98" height="32.66"/><path class="cls-12" d="M1825.38,1504v32.44a10.59,10.59,0,0,1-1.5.11h-2.48v-32.66h2.48A10.59,10.59,0,0,1,1825.38,1504Z"/><path class="cls-12" d="M1830.9,1507.05v26.38a8.45,8.45,0,0,1-4,2.67v-31.71A8.44,8.44,0,0,1,1830.9,1507.05Z"/><path class="cls-11" d="M1794.94,1478.35v18.45a6.28,6.28,0,0,1-1.45,4,8.51,8.51,0,0,1-4,2.66,8.65,8.65,0,0,1-1.54.37,10.59,10.59,0,0,1-1.5.11H1436.58c-4.51,0-8.23-3-8.45-6.74,0-.13,0-.25,0-.37v-18.45c0-.12,0-.24,0-.36.22-3.74,3.94-6.75,8.45-6.75h349.89c.23,0,.45,0,.67,0l.29,0,.31,0,.23,0a9.6,9.6,0,0,1,1.54.36l.22.08.22.08.43.17.24.12.21.1.4.21.44.27.33.23h0l.22.17a7.6,7.6,0,0,1,.61.52l.17.17.17.17c.1.12.21.24.31.37A6.25,6.25,0,0,1,1794.94,1478.35Z"/><path class="cls-12" d="M1623.12,1503.91H1435.67a7.39,7.39,0,0,1-7.54-6.74c0-.13,0-.25,0-.37v-18.45c0-.12,0-.24,0-.36a7.4,7.4,0,0,1,7.54-6.75H1600.1c.08.27.15.54.23.81A57.19,57.19,0,0,0,1623.12,1503.91Z"/><rect class="cls-12" x="1748.39" y="1471.25" width="3.98" height="32.66"/><rect class="cls-12" x="1734.93" y="1471.25" width="3.98" height="32.66"/><rect class="cls-12" x="1718.78" y="1471.25" width="3.98" height="32.66"/><rect class="cls-12" x="1694.04" y="1471.25" width="3.98" height="32.66"/><rect class="cls-12" x="1667.88" y="1471.25" width="3.98" height="32.66"/><rect class="cls-12" x="1627.76" y="1471.25" width="3.98" height="32.66"/><rect class="cls-12" x="1590.21" y="1471.25" width="3.98" height="32.66"/><rect class="cls-12" x="1556.67" y="1471.25" width="3.98" height="32.66"/><rect class="cls-12" x="1761.2" y="1471.25" width="3.98" height="32.66"/><rect class="cls-12" x="1769.66" y="1471.25" width="3.98" height="32.66"/><rect class="cls-12" x="1777.84" y="1471.25" width="3.98" height="32.66"/><path class="cls-12" d="M1788,1471.36v32.44a10.59,10.59,0,0,1-1.5.11H1784v-32.67h2.48A9.29,9.29,0,0,1,1788,1471.36Z"/><path class="cls-12" d="M1793.49,1474.38v26.39a8.51,8.51,0,0,1-4,2.66v-31.71A8.51,8.51,0,0,1,1793.49,1474.38Z"/><path class="cls-11" d="M1813,1446.49v18.45a6.33,6.33,0,0,1-1.45,4,8.44,8.44,0,0,1-4,2.66,8.55,8.55,0,0,1-1.55.37,10.34,10.34,0,0,1-1.49.11H1454.66a9.61,9.61,0,0,1-3.9-.81,7.23,7.23,0,0,1-4.53-5.61l0-.32c0-.13,0-.25,0-.37v-18.45c0-.12,0-.24,0-.36.23-3.74,4-6.74,8.46-6.74h349.89a10.34,10.34,0,0,1,1.49.11,8.55,8.55,0,0,1,1.55.37,8.36,8.36,0,0,1,4,2.66A6.31,6.31,0,0,1,1813,1446.49Z"/><path class="cls-12" d="M1641.2,1472.05H1453.75a7.78,7.78,0,0,1-3.48-.81,7.13,7.13,0,0,1-4-5.61l0-.32c0-.13,0-.25,0-.37v-18.45c0-.12,0-.24,0-.36a7.4,7.4,0,0,1,7.55-6.74h164.43a57.35,57.35,0,0,0,21.87,31.85C1640.43,1471.52,1640.81,1471.78,1641.2,1472.05Z"/><rect class="cls-12" x="1766.47" y="1439.39" width="3.98" height="32.66"/><rect class="cls-12" x="1753" y="1439.39" width="3.98" height="32.66"/><rect class="cls-12" x="1736.86" y="1439.39" width="3.98" height="32.66"/><rect class="cls-12" x="1712.12" y="1439.39" width="3.98" height="32.66"/><rect class="cls-12" x="1685.95" y="1439.39" width="3.98" height="32.66"/><rect class="cls-12" x="1645.84" y="1439.39" width="3.98" height="32.66"/><rect class="cls-12" x="1608.29" y="1439.39" width="3.98" height="32.66"/><rect class="cls-12" x="1574.75" y="1439.39" width="3.98" height="32.66"/><rect class="cls-12" x="1779.28" y="1439.39" width="3.98" height="32.66"/><rect class="cls-12" x="1787.74" y="1439.39" width="3.98" height="32.66"/><rect class="cls-12" x="1795.92" y="1439.39" width="3.98" height="32.66"/><path class="cls-12" d="M1806,1439.5v32.44a10.34,10.34,0,0,1-1.49.11h-2.48v-32.66h2.48A10.34,10.34,0,0,1,1806,1439.5Z"/><path class="cls-12" d="M1811.57,1442.53v26.38a8.51,8.51,0,0,1-4,2.66v-31.71A8.45,8.45,0,0,1,1811.57,1442.53Z"/><path class="cls-11" d="M1821.4,1413.83v18.45a6.33,6.33,0,0,1-1.45,4,8.51,8.51,0,0,1-4,2.66,9.6,9.6,0,0,1-1.54.36,9.29,9.29,0,0,1-1.5.12H1463c-4.51,0-8.23-3-8.45-6.75,0-.12,0-.24,0-.36v-18.45c0-.12,0-.24,0-.36.21-3.47,3.4-6.29,7.45-6.7.33,0,.66,0,1,0h349.89a9.29,9.29,0,0,1,1.5.12,8.64,8.64,0,0,1,1.54.36,8.51,8.51,0,0,1,4,2.66A6.33,6.33,0,0,1,1821.4,1413.83Z"/><path class="cls-12" d="M1649.58,1439.39H1462.13a7.4,7.4,0,0,1-7.54-6.75c0-.12,0-.24,0-.36v-18.45c0-.12,0-.24,0-.36a7.34,7.34,0,0,1,6.65-6.7,8.69,8.69,0,0,1,.89,0h164.43s0,0,0,0A57.26,57.26,0,0,0,1649.58,1439.39Z"/><rect class="cls-12" x="1774.85" y="1406.72" width="3.98" height="32.66"/><rect class="cls-12" x="1761.38" y="1406.72" width="3.98" height="32.66"/><rect class="cls-12" x="1745.24" y="1406.72" width="3.98" height="32.66"/><rect class="cls-12" x="1720.5" y="1406.72" width="3.98" height="32.66"/><rect class="cls-12" x="1694.34" y="1406.72" width="3.98" height="32.66"/><rect class="cls-12" x="1654.22" y="1406.72" width="3.98" height="32.66"/><rect class="cls-12" x="1616.67" y="1406.72" width="3.98" height="32.66"/><rect class="cls-12" x="1583.13" y="1406.72" width="3.98" height="32.66"/><rect class="cls-12" x="1787.66" y="1406.72" width="3.98" height="32.66"/><rect class="cls-12" x="1796.12" y="1406.72" width="3.98" height="32.66"/><rect class="cls-12" x="1804.3" y="1406.72" width="3.98" height="32.66"/><path class="cls-12" d="M1814.43,1406.83v32.44a9.3,9.3,0,0,1-1.5.11h-2.48v-32.66h2.48A10.59,10.59,0,0,1,1814.43,1406.83Z"/><path class="cls-12" d="M1820,1409.86v26.38a8.45,8.45,0,0,1-4,2.67V1407.2A8.51,8.51,0,0,1,1820,1409.86Z"/><path class="cls-11" d="M1795.67,1381.22v18.44a6.25,6.25,0,0,1-1.45,4,8.33,8.33,0,0,1-4,2.66,9,9,0,0,1-1.55.37l-.49.06-.28,0H1437.32c-4.51,0-8.23-3-8.46-6.74,0-.12,0-.24,0-.37v-18.44c0-.12,0-.25,0-.37s0-.2,0-.3c.34-3,2.94-5.49,6.35-6.22l.26,0a10,10,0,0,1,1.83-.17h349.89c.26,0,.51,0,.76,0l.33,0h0l.39,0a9,9,0,0,1,1.55.37,8.33,8.33,0,0,1,4,2.66A6.25,6.25,0,0,1,1795.67,1381.22Z"/><path class="cls-12" d="M1623.86,1406.77H1436.41a7.4,7.4,0,0,1-7.55-6.74c0-.12,0-.24,0-.37v-18.44c0-.12,0-.25,0-.37s0-.2,0-.3a7.31,7.31,0,0,1,5.87-6.26l.32-.07a8.45,8.45,0,0,1,1.34-.11h164.43l.06.23a57.26,57.26,0,0,0,22.88,32.38Z"/><rect class="cls-12" x="1749.12" y="1374.11" width="3.98" height="32.66"/><rect class="cls-12" x="1735.66" y="1374.11" width="3.98" height="32.66"/><rect class="cls-12" x="1719.52" y="1374.11" width="3.98" height="32.66"/><rect class="cls-12" x="1694.77" y="1374.11" width="3.98" height="32.66"/><rect class="cls-12" x="1668.61" y="1374.11" width="3.98" height="32.66"/><rect class="cls-12" x="1628.5" y="1374.11" width="3.98" height="32.66"/><rect class="cls-12" x="1590.94" y="1374.11" width="3.98" height="32.66"/><rect class="cls-12" x="1557.41" y="1374.11" width="3.98" height="32.66"/><rect class="cls-12" x="1761.93" y="1374.11" width="3.98" height="32.66"/><rect class="cls-12" x="1770.4" y="1374.11" width="3.98" height="32.66"/><rect class="cls-12" x="1778.57" y="1374.11" width="3.98" height="32.66"/><path class="cls-12" d="M1788.7,1374.22v32.44a10.34,10.34,0,0,1-1.49.11h-2.49v-32.66h2.49A10.34,10.34,0,0,1,1788.7,1374.22Z"/><path class="cls-12" d="M1794.22,1377.25v26.38a8.33,8.33,0,0,1-4,2.66v-31.7A8.33,8.33,0,0,1,1794.22,1377.25Z"/><path class="cls-11" d="M1794.94,1348.78v18.45a6.28,6.28,0,0,1-1.45,4,8.51,8.51,0,0,1-4,2.66,9.17,9.17,0,0,1-1.2.31h0l-.33.06a10.59,10.59,0,0,1-1.5.11H1436.58a9.69,9.69,0,0,1-1.09-.06l-.42-.06c-3.8-.58-6.74-3.31-6.94-6.62,0-.13,0-.25,0-.37v-18.45c0-.12,0-.24,0-.36.22-3.74,3.94-6.74,8.45-6.74h349.89c.23,0,.45,0,.67,0l.29,0,.31,0,.23,0a8.65,8.65,0,0,1,1.54.37l.22.07.22.08.43.17.45.22.4.21.44.27.33.23v0l.22.16a6.09,6.09,0,0,1,.61.53l.17.16c.06.06.11.12.17.17s.21.24.31.37A6.25,6.25,0,0,1,1794.94,1348.78Z"/><path class="cls-12" d="M1623.12,1374.34H1435.23l-.48,0a7.32,7.32,0,0,1-6.62-6.69c0-.13,0-.25,0-.37v-18.45c0-.12,0-.24,0-.36a7.39,7.39,0,0,1,7.54-6.74H1600.1c.08.26.15.53.23.8a57.17,57.17,0,0,0,22.46,31.63Z"/><rect class="cls-12" x="1748.39" y="1341.68" width="3.98" height="32.66"/><rect class="cls-12" x="1734.93" y="1341.68" width="3.98" height="32.66"/><rect class="cls-12" x="1718.78" y="1341.68" width="3.98" height="32.66"/><rect class="cls-12" x="1694.04" y="1341.68" width="3.98" height="32.66"/><rect class="cls-12" x="1667.88" y="1341.68" width="3.98" height="32.66"/><rect class="cls-12" x="1627.76" y="1341.68" width="3.98" height="32.66"/><rect class="cls-12" x="1590.21" y="1341.68" width="3.98" height="32.66"/><rect class="cls-12" x="1556.67" y="1341.68" width="3.98" height="32.66"/><rect class="cls-12" x="1761.2" y="1341.68" width="3.98" height="32.66"/><rect class="cls-12" x="1769.66" y="1341.68" width="3.98" height="32.66"/><rect class="cls-12" x="1777.84" y="1341.68" width="3.98" height="32.66"/><path class="cls-12" d="M1788,1341.79v32.44a10.59,10.59,0,0,1-1.5.11H1784v-32.66h2.48A10.59,10.59,0,0,1,1788,1341.79Z"/><path class="cls-12" d="M1793.49,1344.82v26.38a8.36,8.36,0,0,1-4,2.66v-31.7A8.36,8.36,0,0,1,1793.49,1344.82Z"/><path class="cls-11" d="M1813,1316.93v18.44a6.31,6.31,0,0,1-1.45,4,8.36,8.36,0,0,1-4,2.66,8.55,8.55,0,0,1-1.55.37,10.34,10.34,0,0,1-1.49.11H1454.66a9.78,9.78,0,0,1-3.9-.8,7.26,7.26,0,0,1-4.53-5.62l0-.32c0-.12,0-.25,0-.37v-18.44c0-.12,0-.25,0-.37.23-3.74,4-6.74,8.46-6.74h349.89a10.34,10.34,0,0,1,1.49.11,8.55,8.55,0,0,1,1.55.37,8.36,8.36,0,0,1,4,2.66A6.31,6.31,0,0,1,1813,1316.93Z"/><path class="cls-12" d="M1641.2,1342.48H1453.75a7.91,7.91,0,0,1-3.48-.8,7.16,7.16,0,0,1-4-5.62l0-.32c0-.12,0-.25,0-.37v-18.44c0-.12,0-.25,0-.37a7.4,7.4,0,0,1,7.55-6.74h164.43a57.4,57.4,0,0,0,21.87,31.86Z"/><rect class="cls-12" x="1766.47" y="1309.82" width="3.98" height="32.67"/><rect class="cls-12" x="1753" y="1309.82" width="3.98" height="32.67"/><rect class="cls-12" x="1736.86" y="1309.82" width="3.98" height="32.67"/><rect class="cls-12" x="1712.12" y="1309.82" width="3.98" height="32.67"/><rect class="cls-12" x="1685.95" y="1309.82" width="3.98" height="32.67"/><rect class="cls-12" x="1645.84" y="1309.82" width="3.98" height="32.67"/><rect class="cls-12" x="1608.29" y="1309.82" width="3.98" height="32.67"/><rect class="cls-12" x="1574.75" y="1309.82" width="3.98" height="32.67"/><rect class="cls-12" x="1779.28" y="1309.82" width="3.98" height="32.67"/><rect class="cls-12" x="1787.74" y="1309.82" width="3.98" height="32.67"/><rect class="cls-12" x="1795.92" y="1309.82" width="3.98" height="32.67"/><path class="cls-12" d="M1806,1309.93v32.44a10.34,10.34,0,0,1-1.49.11h-2.48v-32.66h2.48A10.34,10.34,0,0,1,1806,1309.93Z"/><path class="cls-12" d="M1811.57,1313v26.38a8.36,8.36,0,0,1-4,2.66v-31.7A8.36,8.36,0,0,1,1811.57,1313Z"/><path class="cls-11" d="M1841.61,1284.26v18.45a6.28,6.28,0,0,1-1.45,4,8.53,8.53,0,0,1-4,2.66,10,10,0,0,1-1.55.36,9.29,9.29,0,0,1-1.5.12H1483.25c-4.51,0-8.22-3-8.45-6.75,0-.12,0-.24,0-.36v-18.45c0-.12,0-.24,0-.36.21-3.46,3.4-6.29,7.45-6.7.33,0,.67,0,1,0h349.89a9.29,9.29,0,0,1,1.5.12,10,10,0,0,1,1.55.36,8.53,8.53,0,0,1,4,2.66A6.28,6.28,0,0,1,1841.61,1284.26Z"/><path class="cls-12" d="M1669.79,1309.82H1482.35a7.39,7.39,0,0,1-7.55-6.75c0-.12,0-.24,0-.36v-18.45c0-.12,0-.24,0-.36a7.34,7.34,0,0,1,6.65-6.7,8.72,8.72,0,0,1,.9,0h164.43a.07.07,0,0,0,0,0A57.23,57.23,0,0,0,1669.79,1309.82Z"/><rect class="cls-12" x="1795.06" y="1277.15" width="3.98" height="32.66"/><rect class="cls-12" x="1781.6" y="1277.15" width="3.98" height="32.66"/><rect class="cls-12" x="1765.46" y="1277.15" width="3.98" height="32.66"/><rect class="cls-12" x="1740.71" y="1277.15" width="3.98" height="32.66"/><rect class="cls-12" x="1714.55" y="1277.15" width="3.98" height="32.66"/><rect class="cls-12" x="1674.44" y="1277.15" width="3.98" height="32.66"/><rect class="cls-12" x="1636.88" y="1277.15" width="3.98" height="32.66"/><rect class="cls-12" x="1603.35" y="1277.15" width="3.98" height="32.66"/><rect class="cls-12" x="1807.87" y="1277.15" width="3.98" height="32.66"/><rect class="cls-12" x="1816.34" y="1277.15" width="3.98" height="32.66"/><rect class="cls-12" x="1824.51" y="1277.15" width="3.98" height="32.66"/><path class="cls-12" d="M1834.64,1277.27v32.43a9.17,9.17,0,0,1-1.49.12h-2.49v-32.67h2.49A9.17,9.17,0,0,1,1834.64,1277.27Z"/><path class="cls-12" d="M1840.16,1280.29v26.39a8.48,8.48,0,0,1-4,2.66v-31.71A8.48,8.48,0,0,1,1840.16,1280.29Z"/><path class="cls-11" d="M1795.67,1251.65v18.45a6.23,6.23,0,0,1-1.45,4,8.33,8.33,0,0,1-4,2.66,9,9,0,0,1-1.55.37l-.49.06-.39,0-.2,0h-350.3c-4.51,0-8.23-3-8.46-6.74,0-.12,0-.24,0-.36v-18.45c0-.12,0-.25,0-.37.23-3.74,4-6.74,8.46-6.74h350.34c.35,0,.7,0,1,.1a9,9,0,0,1,1.55.37c.25.08.5.17.73.27l.44.2,0,0,.42.22.07,0,.38.23a6.51,6.51,0,0,1,.84.62,1.21,1.21,0,0,1,.24.21l0,0,.14.14,0,0,.25.25c.11.13.23.26.33.39A6.28,6.28,0,0,1,1795.67,1251.65Z"/><path class="cls-12" d="M1623.86,1277.2H1436.41a7.4,7.4,0,0,1-7.55-6.74c0-.12,0-.24,0-.36v-18.45c0-.12,0-.25,0-.37a7.4,7.4,0,0,1,7.55-6.74h164.43a7.08,7.08,0,0,0,.22.75,57.08,57.08,0,0,0,22.72,31.86Z"/><rect class="cls-12" x="1749.12" y="1244.54" width="3.98" height="32.66"/><rect class="cls-12" x="1735.66" y="1244.54" width="3.98" height="32.66"/><rect class="cls-12" x="1719.52" y="1244.54" width="3.98" height="32.66"/><rect class="cls-12" x="1694.77" y="1244.54" width="3.98" height="32.66"/><rect class="cls-12" x="1668.61" y="1244.54" width="3.98" height="32.66"/><rect class="cls-12" x="1628.5" y="1244.54" width="3.98" height="32.66"/><rect class="cls-12" x="1590.94" y="1244.54" width="3.98" height="32.66"/><rect class="cls-12" x="1557.41" y="1244.54" width="3.98" height="32.66"/><rect class="cls-12" x="1761.93" y="1244.54" width="3.98" height="32.66"/><rect class="cls-12" x="1770.4" y="1244.54" width="3.98" height="32.66"/><rect class="cls-12" x="1778.57" y="1244.54" width="3.98" height="32.66"/><path class="cls-12" d="M1788.7,1244.65v32.44a9.09,9.09,0,0,1-1.49.11h-2.49v-32.66h2.49A10.34,10.34,0,0,1,1788.7,1244.65Z"/><path class="cls-12" d="M1794.22,1247.68v26.38a8.33,8.33,0,0,1-4,2.66V1245A8.41,8.41,0,0,1,1794.22,1247.68Z"/><path class="cls-11" d="M1821.4,1219.74v18.44a6.29,6.29,0,0,1-1.45,4,8.36,8.36,0,0,1-4,2.66,8.65,8.65,0,0,1-1.54.37,9.3,9.3,0,0,1-1.5.11H1463a9.73,9.73,0,0,1-3.78-.75,7.26,7.26,0,0,1-4.65-5.7,2.64,2.64,0,0,1,0-.29c0-.12,0-.24,0-.37v-18.44c0-.12,0-.24,0-.37.21-3.46,3.4-6.28,7.45-6.69.33,0,.66,0,1,0h349.89a10.59,10.59,0,0,1,1.5.11,8.65,8.65,0,0,1,1.54.37,8.44,8.44,0,0,1,4,2.66A6.33,6.33,0,0,1,1821.4,1219.74Z"/><path class="cls-12" d="M1649.58,1245.29H1462.13a7.85,7.85,0,0,1-3.37-.75,7.15,7.15,0,0,1-4.15-5.7,2.64,2.64,0,0,1,0-.29c0-.12,0-.24,0-.37v-18.44c0-.12,0-.24,0-.37a7.34,7.34,0,0,1,6.65-6.69,8.69,8.69,0,0,1,.89,0h164.43s0,0,0,0a57.25,57.25,0,0,0,21.93,31.86C1648.86,1244.79,1649.22,1245.05,1649.58,1245.29Z"/><rect class="cls-12" x="1774.85" y="1212.63" width="3.98" height="32.67"/><rect class="cls-12" x="1761.38" y="1212.63" width="3.98" height="32.67"/><rect class="cls-12" x="1745.24" y="1212.63" width="3.98" height="32.67"/><rect class="cls-12" x="1720.5" y="1212.63" width="3.98" height="32.67"/><rect class="cls-12" x="1694.34" y="1212.63" width="3.98" height="32.67"/><rect class="cls-12" x="1654.22" y="1212.63" width="3.98" height="32.67"/><rect class="cls-12" x="1616.67" y="1212.63" width="3.98" height="32.67"/><rect class="cls-12" x="1583.13" y="1212.63" width="3.98" height="32.67"/><rect class="cls-12" x="1787.66" y="1212.63" width="3.98" height="32.67"/><rect class="cls-12" x="1796.12" y="1212.63" width="3.98" height="32.67"/><rect class="cls-12" x="1804.3" y="1212.63" width="3.98" height="32.67"/><path class="cls-12" d="M1814.43,1212.74v32.44a10.59,10.59,0,0,1-1.5.11h-2.48v-32.66h2.48A10.59,10.59,0,0,1,1814.43,1212.74Z"/><path class="cls-12" d="M1820,1215.77v26.38a8.36,8.36,0,0,1-4,2.66v-31.7A8.36,8.36,0,0,1,1820,1215.77Z"/><path class="cls-11" d="M1832.35,1187.12v18.45a6.31,6.31,0,0,1-1.45,4,8.44,8.44,0,0,1-4,2.66,8.65,8.65,0,0,1-1.54.37l-.49.06-.28,0-.28,0H1474c-4.51,0-8.23-3-8.45-6.74,0-.12,0-.25,0-.37v-18.45c0-.12,0-.24,0-.36.22-3.74,3.94-6.74,8.45-6.74h349.89a10.59,10.59,0,0,1,1.5.11,8.65,8.65,0,0,1,1.54.37,8.36,8.36,0,0,1,4,2.66A6.31,6.31,0,0,1,1832.35,1187.12Z"/><path class="cls-12" d="M1660.53,1212.68H1473.08a7.39,7.39,0,0,1-7.54-6.74c0-.12,0-.25,0-.37v-18.45c0-.12,0-.24,0-.36a7.39,7.39,0,0,1,7.54-6.74h164.43a57.33,57.33,0,0,0,23,32.61Z"/><rect class="cls-12" x="1785.8" y="1180.02" width="3.98" height="32.66"/><rect class="cls-12" x="1772.34" y="1180.02" width="3.98" height="32.66"/><rect class="cls-12" x="1756.19" y="1180.02" width="3.98" height="32.66"/><rect class="cls-12" x="1731.45" y="1180.02" width="3.98" height="32.66"/><rect class="cls-12" x="1705.29" y="1180.02" width="3.98" height="32.66"/><rect class="cls-12" x="1665.17" y="1180.02" width="3.98" height="32.66"/><rect class="cls-12" x="1627.62" y="1180.02" width="3.98" height="32.66"/><rect class="cls-12" x="1594.08" y="1180.02" width="3.98" height="32.67"/><rect class="cls-12" x="1798.61" y="1180.02" width="3.98" height="32.66"/><rect class="cls-12" x="1807.07" y="1180.02" width="3.98" height="32.66"/><rect class="cls-12" x="1815.25" y="1180.02" width="3.98" height="32.66"/><path class="cls-12" d="M1825.38,1180.13v32.44a10.59,10.59,0,0,1-1.5.11h-2.48V1180h2.48A10.59,10.59,0,0,1,1825.38,1180.13Z"/><path class="cls-12" d="M1830.9,1183.16v26.38a8.51,8.51,0,0,1-4,2.66v-31.7A8.36,8.36,0,0,1,1830.9,1183.16Z"/><path class="cls-13" d="M1841.61,1284.26a6.23,6.23,0,0,0-1.45-4h0a8.48,8.48,0,0,0-4-2.66h0a10,10,0,0,0-1.55-.36h0a9.17,9.17,0,0,0-1.49-.12h-44.94l.49-.06h0a9,9,0,0,0,1.55-.37h0a8.71,8.71,0,0,0,2.93-1.62,2.23,2.23,0,0,0,.24-.19l0,0a8.39,8.39,0,0,0,.76-.82,6.23,6.23,0,0,0,1.45-4v-18.45a6.28,6.28,0,0,0-1.45-4h0l-.33-.38-.25-.25,0,0-.14-.14,0,0,0,0-.22-.18a3.58,3.58,0,0,0-.39-.29l-.4-.3-.05,0-.38-.23-.07,0-.42-.22,0,0-.06,0-.41-.19h22a9.3,9.3,0,0,0,1.5-.11,8.65,8.65,0,0,0,1.54-.37,8.36,8.36,0,0,0,4-2.66,6.29,6.29,0,0,0,1.45-4v-18.44a6.33,6.33,0,0,0-1.45-4h0a8.36,8.36,0,0,0-4-2.66h0a8.65,8.65,0,0,0-1.54-.37h0l-.54-.06h10.44l.28,0h0l.24,0,.5-.06a9,9,0,0,0,1.55-.37,9.46,9.46,0,0,0,1.49-.65,9.11,9.11,0,0,0,1.68-1.16,8,8,0,0,0,.8-.85h0a6.33,6.33,0,0,0,1.45-4v-18.44a6.31,6.31,0,0,0-1.45-4h0a8.38,8.38,0,0,0-4-2.66h0a9,9,0,0,0-1.55-.37h0a10.59,10.59,0,0,0-1.5-.11h-350.8a7.39,7.39,0,0,0-7.54,6.74c0,.12,0,.24,0,.37v18.44c0,.12,0,.25,0,.37a7.33,7.33,0,0,0,6.68,6.69h-10.09a8.69,8.69,0,0,0-.89,0,7.34,7.34,0,0,0-6.65,6.69c0,.13,0,.25,0,.37v18.44c0,.13,0,.25,0,.37a2.64,2.64,0,0,0,0,.29,7.15,7.15,0,0,0,4.15,5.7h-22.35a7.4,7.4,0,0,0-7.55,6.74c0,.12,0,.25,0,.37v18.45c0,.12,0,.24,0,.36a7.4,7.4,0,0,0,7.55,6.74h45a7.34,7.34,0,0,0-6.65,6.7c0,.12,0,.24,0,.36v18.45c0,.12,0,.24,0,.36a7.39,7.39,0,0,0,7.55,6.75h-28.6a7.4,7.4,0,0,0-7.55,6.74c0,.12,0,.25,0,.37v18.44c0,.12,0,.25,0,.37l0,.32a7.16,7.16,0,0,0,4,5.62h-14.6a7.39,7.39,0,0,0-7.54,6.74c0,.12,0,.24,0,.36v18.45c0,.12,0,.24,0,.37a7.32,7.32,0,0,0,6.62,6.69,7.36,7.36,0,0,0-5.72,5.49,7,7,0,0,0-.15.77c0,.1,0,.2,0,.3s0,.25,0,.37v18.44c0,.13,0,.25,0,.37a7.4,7.4,0,0,0,7.55,6.74h24.83a7.34,7.34,0,0,0-6.65,6.7c0,.12,0,.24,0,.36v18.45c0,.12,0,.24,0,.36a7.4,7.4,0,0,0,7.54,6.75h-8.38a7.4,7.4,0,0,0-7.55,6.74c0,.12,0,.24,0,.37v18.44c0,.12,0,.24,0,.37l0,.32a7.13,7.13,0,0,0,4,5.61h-14.6a7.4,7.4,0,0,0-7.54,6.75c0,.12,0,.24,0,.36v18.45c0,.12,0,.24,0,.37a7.39,7.39,0,0,0,7.54,6.74h37.41a7.39,7.39,0,0,0-7.54,6.74c0,.12,0,.25,0,.37v18.45c0,.12,0,.24,0,.36a7.39,7.39,0,0,0,7.54,6.74h350.8a10.59,10.59,0,0,0,1.5-.11,10,10,0,0,0,1.55-.36,8.47,8.47,0,0,0,4-2.67,6.31,6.31,0,0,0,1.45-4V1511a6.31,6.31,0,0,0-1.45-4,8.46,8.46,0,0,0-4-2.66,9,9,0,0,0-1.55-.37,10.59,10.59,0,0,0-1.5-.11h-37.41a10.59,10.59,0,0,0,1.5-.11,8.65,8.65,0,0,0,1.54-.37,8.51,8.51,0,0,0,4-2.66,6.28,6.28,0,0,0,1.45-4v-18.45a6.23,6.23,0,0,0-1.45-4h0c-.09-.12-.2-.24-.3-.36l-.17-.17-.17-.17-.08-.07-.24-.2a3.23,3.23,0,0,0-.29-.25l-.22-.17h0l-.19-.13-.12-.08,0,0-.44-.27-.4-.21-.1,0-.09,0h0l-.24-.12h14.17a10.34,10.34,0,0,0,1.49-.11,8.55,8.55,0,0,0,1.55-.37h0c.16,0,.3-.12.45-.18a8.32,8.32,0,0,0,3.53-2.48,6.33,6.33,0,0,0,1.45-4V1446.5a6.31,6.31,0,0,0-1.45-4h0a8.45,8.45,0,0,0-4-2.67h0a8.55,8.55,0,0,0-1.55-.37h0a10.34,10.34,0,0,0-1.49-.11h8.38a9.29,9.29,0,0,0,1.5-.12,9.6,9.6,0,0,0,1.54-.36,8.51,8.51,0,0,0,4-2.66,6.33,6.33,0,0,0,1.45-4v-18.45a6.33,6.33,0,0,0-1.45-4h0a8.51,8.51,0,0,0-4-2.66h0a8.64,8.64,0,0,0-1.54-.36h0a10.59,10.59,0,0,0-1.5-.11h-24.72l.49-.06a9,9,0,0,0,1.55-.37,8.33,8.33,0,0,0,4-2.66,6.25,6.25,0,0,0,1.45-4v-18.44a6.25,6.25,0,0,0-1.45-4h0a8.33,8.33,0,0,0-4-2.66h0a9,9,0,0,0-1.55-.37h-.06l-.33,0a9.17,9.17,0,0,0,1.2-.31h0a8.66,8.66,0,0,0,3.18-1.81,8,8,0,0,0,.8-.85,6.28,6.28,0,0,0,1.45-4v-18.45a6.25,6.25,0,0,0-1.45-4c-.1-.13-.21-.25-.31-.37s-.11-.11-.17-.17l-.17-.16-.08-.08-.23-.19a3.73,3.73,0,0,0-.3-.26l-.22-.16v0l-.2-.14-.1-.06,0,0-.44-.27-.4-.21-.1,0-.1-.05-.25-.12h14.17a10.34,10.34,0,0,0,1.49-.11h0a8.55,8.55,0,0,0,1.55-.37h0a8.36,8.36,0,0,0,4-2.66h0a6.31,6.31,0,0,0,1.45-4v-18.44a6.31,6.31,0,0,0-1.45-4,8.15,8.15,0,0,0-2.59-2.07,2.39,2.39,0,0,0-.22-.12l-.06,0a8.27,8.27,0,0,0-1.11-.44h0a8.55,8.55,0,0,0-1.55-.37,10.34,10.34,0,0,0-1.49-.11h28.6a9.17,9.17,0,0,0,1.49-.12h0a10,10,0,0,0,1.55-.36h0a8.48,8.48,0,0,0,4-2.66h0a6.28,6.28,0,0,0,1.45-4Z"/><path class="cls-11" d="M2123,1511v18.45a6.25,6.25,0,0,1-1.45,4,8.42,8.42,0,0,1-4,2.67,9.47,9.47,0,0,1-1.55.36,10.34,10.34,0,0,1-1.49.11H1764.66c-4.51,0-8.23-3-8.46-6.74,0-.12,0-.24,0-.36V1511c0-.12,0-.25,0-.37.23-3.74,4-6.74,8.46-6.74h349.89a10.34,10.34,0,0,1,1.49.11,8.55,8.55,0,0,1,1.55.37,8.41,8.41,0,0,1,4,2.66A6.25,6.25,0,0,1,2123,1511Z"/><path class="cls-12" d="M1951.2,1536.57H1763.75a7.4,7.4,0,0,1-7.55-6.74c0-.12,0-.24,0-.36V1511c0-.12,0-.25,0-.37a7.4,7.4,0,0,1,7.55-6.74h164.43A57.29,57.29,0,0,0,1951.2,1536.57Z"/><rect class="cls-12" x="2076.46" y="1503.91" width="3.98" height="32.66"/><rect class="cls-12" x="2063" y="1503.91" width="3.98" height="32.66"/><rect class="cls-12" x="2046.86" y="1503.91" width="3.98" height="32.66"/><rect class="cls-12" x="2022.12" y="1503.91" width="3.98" height="32.66"/><rect class="cls-12" x="1995.95" y="1503.91" width="3.98" height="32.66"/><rect class="cls-12" x="1955.84" y="1503.91" width="3.98" height="32.66"/><rect class="cls-12" x="1918.28" y="1503.91" width="3.98" height="32.66"/><rect class="cls-12" x="1884.75" y="1503.91" width="3.98" height="32.66"/><rect class="cls-12" x="2089.28" y="1503.91" width="3.98" height="32.66"/><rect class="cls-12" x="2097.74" y="1503.91" width="3.98" height="32.66"/><rect class="cls-12" x="2105.91" y="1503.91" width="3.98" height="32.66"/><path class="cls-12" d="M2116,1504v32.44a10.34,10.34,0,0,1-1.49.11h-2.49v-32.66h2.49A10.34,10.34,0,0,1,2116,1504Z"/><path class="cls-12" d="M2121.56,1507.05v26.38a8.42,8.42,0,0,1-4,2.67v-31.71A8.41,8.41,0,0,1,2121.56,1507.05Z"/><path class="cls-11" d="M2085.6,1478.35v18.45a6.28,6.28,0,0,1-1.45,4,8.43,8.43,0,0,1-4,2.66,8.76,8.76,0,0,1-1.55.37,10.34,10.34,0,0,1-1.49.11H1727.25c-4.51,0-8.23-3-8.46-6.74,0-.13,0-.25,0-.37v-18.45c0-.12,0-.24,0-.36.23-3.74,4-6.75,8.46-6.75h349.89c.22,0,.45,0,.67,0l.28,0,.32,0,.22,0a9.72,9.72,0,0,1,1.55.36l.22.08.22.08.42.17.25.12.21.1.4.21.43.27.33.23h0l.22.17a7.6,7.6,0,0,1,.61.52l.17.17.16.17a3.57,3.57,0,0,1,.31.37A6.25,6.25,0,0,1,2085.6,1478.35Z"/><path class="cls-12" d="M1913.79,1503.91H1726.34a7.4,7.4,0,0,1-7.55-6.74c0-.13,0-.25,0-.37v-18.45c0-.12,0-.24,0-.36a7.41,7.41,0,0,1,7.55-6.75h164.43c.07.27.15.54.23.81A57.14,57.14,0,0,0,1913.79,1503.91Z"/><rect class="cls-12" x="2039.05" y="1471.25" width="3.98" height="32.66"/><rect class="cls-12" x="2025.59" y="1471.25" width="3.98" height="32.66"/><rect class="cls-12" x="2009.45" y="1471.25" width="3.98" height="32.66"/><rect class="cls-12" x="1984.71" y="1471.25" width="3.98" height="32.66"/><rect class="cls-12" x="1958.54" y="1471.25" width="3.98" height="32.66"/><rect class="cls-12" x="1918.43" y="1471.25" width="3.98" height="32.66"/><rect class="cls-12" x="1880.87" y="1471.25" width="3.98" height="32.66"/><rect class="cls-12" x="1847.34" y="1471.25" width="3.98" height="32.66"/><rect class="cls-12" x="2051.87" y="1471.25" width="3.98" height="32.66"/><rect class="cls-12" x="2060.33" y="1471.25" width="3.98" height="32.66"/><rect class="cls-12" x="2068.51" y="1471.25" width="3.98" height="32.66"/><path class="cls-12" d="M2078.63,1471.36v32.44a10.45,10.45,0,0,1-1.49.11h-2.49v-32.67h2.49A9.17,9.17,0,0,1,2078.63,1471.36Z"/><path class="cls-12" d="M2084.15,1474.38v26.39a8.48,8.48,0,0,1-4,2.66v-31.71A8.48,8.48,0,0,1,2084.15,1474.38Z"/><path class="cls-11" d="M2103.68,1446.49v18.45a6.28,6.28,0,0,1-1.45,4,8.41,8.41,0,0,1-4,2.66,9,9,0,0,1-1.55.37,10.45,10.45,0,0,1-1.49.11H1745.33a9.63,9.63,0,0,1-3.91-.81,7.24,7.24,0,0,1-4.52-5.61,1.82,1.82,0,0,1,0-.32c0-.13,0-.25,0-.37v-18.45c0-.12,0-.24,0-.36.23-3.74,3.94-6.74,8.46-6.74h349.89a10.45,10.45,0,0,1,1.49.11,9,9,0,0,1,1.55.37,8.33,8.33,0,0,1,4,2.66A6.25,6.25,0,0,1,2103.68,1446.49Z"/><path class="cls-12" d="M1931.87,1472.05H1744.42a7.75,7.75,0,0,1-3.48-.81,7.1,7.1,0,0,1-4-5.61,1.82,1.82,0,0,1,0-.32c0-.13,0-.25,0-.37v-18.45c0-.12,0-.24,0-.36a7.4,7.4,0,0,1,7.55-6.74h164.43a57.25,57.25,0,0,0,21.87,31.85C1931.1,1471.52,1931.48,1471.78,1931.87,1472.05Z"/><rect class="cls-12" x="2057.13" y="1439.39" width="3.98" height="32.66"/><rect class="cls-12" x="2043.67" y="1439.39" width="3.98" height="32.66"/><rect class="cls-12" x="2027.53" y="1439.39" width="3.98" height="32.66"/><rect class="cls-12" x="2002.78" y="1439.39" width="3.98" height="32.66"/><rect class="cls-12" x="1976.62" y="1439.39" width="3.98" height="32.66"/><rect class="cls-12" x="1936.51" y="1439.39" width="3.98" height="32.66"/><rect class="cls-12" x="1898.95" y="1439.39" width="3.98" height="32.66"/><rect class="cls-12" x="1865.42" y="1439.39" width="3.98" height="32.66"/><rect class="cls-12" x="2069.94" y="1439.39" width="3.98" height="32.66"/><rect class="cls-12" x="2078.41" y="1439.39" width="3.98" height="32.66"/><rect class="cls-12" x="2086.58" y="1439.39" width="3.98" height="32.66"/><path class="cls-12" d="M2096.71,1439.5v32.44a10.45,10.45,0,0,1-1.49.11h-2.49v-32.66h2.49A10.45,10.45,0,0,1,2096.71,1439.5Z"/><path class="cls-12" d="M2102.23,1442.53v26.38a8.48,8.48,0,0,1-4,2.66v-31.71A8.42,8.42,0,0,1,2102.23,1442.53Z"/><path class="cls-11" d="M2112.06,1413.83v18.45a6.28,6.28,0,0,1-1.45,4,8.48,8.48,0,0,1-4,2.66,10,10,0,0,1-1.55.36,9.17,9.17,0,0,1-1.49.12H1753.71c-4.51,0-8.23-3-8.46-6.75,0-.12,0-.24,0-.36v-18.45c0-.12,0-.24,0-.36.21-3.47,3.41-6.29,7.46-6.7.32,0,.66,0,1,0H2103.6a9.17,9.17,0,0,1,1.49.12,9,9,0,0,1,1.55.36,8.48,8.48,0,0,1,4,2.66A6.28,6.28,0,0,1,2112.06,1413.83Z"/><path class="cls-12" d="M1940.25,1439.39H1752.8a7.41,7.41,0,0,1-7.55-6.75c0-.12,0-.24,0-.36v-18.45c0-.12,0-.24,0-.36a7.35,7.35,0,0,1,6.66-6.7,8.69,8.69,0,0,1,.89,0h164.43a.43.43,0,0,0,0,0A57.34,57.34,0,0,0,1940.25,1439.39Z"/><rect class="cls-12" x="2065.51" y="1406.72" width="3.98" height="32.66"/><rect class="cls-12" x="2052.05" y="1406.72" width="3.98" height="32.66"/><rect class="cls-12" x="2035.91" y="1406.72" width="3.98" height="32.66"/><rect class="cls-12" x="2011.17" y="1406.72" width="3.98" height="32.66"/><rect class="cls-12" x="1985" y="1406.72" width="3.98" height="32.66"/><rect class="cls-12" x="1944.89" y="1406.72" width="3.98" height="32.66"/><rect class="cls-12" x="1907.33" y="1406.72" width="3.98" height="32.66"/><rect class="cls-12" x="1873.8" y="1406.72" width="3.98" height="32.66"/><rect class="cls-12" x="2078.33" y="1406.72" width="3.98" height="32.66"/><rect class="cls-12" x="2086.79" y="1406.72" width="3.98" height="32.66"/><rect class="cls-12" x="2094.97" y="1406.72" width="3.98" height="32.66"/><path class="cls-12" d="M2105.09,1406.83v32.44a9.17,9.17,0,0,1-1.49.11h-2.49v-32.66h2.49A10.45,10.45,0,0,1,2105.09,1406.83Z"/><path class="cls-12" d="M2110.61,1409.86v26.38a8.42,8.42,0,0,1-4,2.67V1407.2A8.48,8.48,0,0,1,2110.61,1409.86Z"/><path class="cls-11" d="M2086.34,1381.22v18.44a6.25,6.25,0,0,1-1.45,4,8.33,8.33,0,0,1-4,2.66,9,9,0,0,1-1.55.37l-.49.06-.28,0H1728c-4.51,0-8.22-3-8.45-6.74,0-.12,0-.24,0-.37v-18.44c0-.12,0-.25,0-.37s0-.2,0-.3c.34-3,2.94-5.49,6.35-6.22l.25,0a10,10,0,0,1,1.83-.17h349.89c.26,0,.51,0,.76,0l.34,0h0l.4,0a9,9,0,0,1,1.55.37,8.33,8.33,0,0,1,4,2.66A6.25,6.25,0,0,1,2086.34,1381.22Z"/><path class="cls-12" d="M1914.52,1406.77H1727.08a7.39,7.39,0,0,1-7.55-6.74c0-.12,0-.24,0-.37v-18.44c0-.12,0-.25,0-.37s0-.2,0-.3a7.28,7.28,0,0,1,5.86-6.26l.33-.07a8.36,8.36,0,0,1,1.34-.11h164.43a2,2,0,0,0,.06.23,57.22,57.22,0,0,0,22.88,32.38Z"/><rect class="cls-12" x="2039.79" y="1374.11" width="3.98" height="32.66"/><rect class="cls-12" x="2026.33" y="1374.11" width="3.98" height="32.66"/><rect class="cls-12" x="2010.18" y="1374.11" width="3.98" height="32.66"/><rect class="cls-12" x="1985.44" y="1374.11" width="3.98" height="32.66"/><rect class="cls-12" x="1959.28" y="1374.11" width="3.98" height="32.66"/><rect class="cls-12" x="1919.17" y="1374.11" width="3.98" height="32.66"/><rect class="cls-12" x="1881.61" y="1374.11" width="3.98" height="32.66"/><rect class="cls-12" x="1848.07" y="1374.11" width="3.98" height="32.66"/><rect class="cls-12" x="2052.6" y="1374.11" width="3.98" height="32.66"/><rect class="cls-12" x="2061.07" y="1374.11" width="3.98" height="32.66"/><rect class="cls-12" x="2069.24" y="1374.11" width="3.98" height="32.66"/><path class="cls-12" d="M2079.37,1374.22v32.44a10.59,10.59,0,0,1-1.5.11h-2.48v-32.66h2.48A10.59,10.59,0,0,1,2079.37,1374.22Z"/><path class="cls-12" d="M2084.89,1377.25v26.38a8.33,8.33,0,0,1-4,2.66v-31.7A8.33,8.33,0,0,1,2084.89,1377.25Z"/><path class="cls-11" d="M2085.6,1348.78v18.45a6.28,6.28,0,0,1-1.45,4,8.43,8.43,0,0,1-4,2.66,9.32,9.32,0,0,1-1.21.31h0l-.33.06a10.34,10.34,0,0,1-1.49.11H1727.25a10,10,0,0,1-1.1-.06,2.7,2.7,0,0,1-.41-.06c-3.81-.58-6.75-3.31-7-6.62,0-.13,0-.25,0-.37v-18.45c0-.12,0-.24,0-.36.23-3.74,4-6.74,8.46-6.74h349.89c.22,0,.45,0,.67,0l.28,0,.32,0,.22,0a8.76,8.76,0,0,1,1.55.37l.22.07.22.08.42.17.46.22.4.21.43.27.33.23a0,0,0,0,1,0,0l.22.16a6.09,6.09,0,0,1,.61.53l.17.16a1.29,1.29,0,0,0,.16.17,3.57,3.57,0,0,1,.31.37A6.25,6.25,0,0,1,2085.6,1348.78Z"/><path class="cls-12" d="M1913.79,1374.34H1725.9l-.49,0a7.33,7.33,0,0,1-6.62-6.69c0-.13,0-.25,0-.37v-18.45c0-.12,0-.24,0-.36a7.4,7.4,0,0,1,7.55-6.74h164.43c.07.26.15.53.23.8a57.19,57.19,0,0,0,22.45,31.63Z"/><rect class="cls-12" x="2039.05" y="1341.68" width="3.98" height="32.66"/><rect class="cls-12" x="2025.59" y="1341.68" width="3.98" height="32.66"/><rect class="cls-12" x="2009.45" y="1341.68" width="3.98" height="32.66"/><rect class="cls-12" x="1984.71" y="1341.68" width="3.98" height="32.66"/><rect class="cls-12" x="1958.54" y="1341.68" width="3.98" height="32.66"/><rect class="cls-12" x="1918.43" y="1341.68" width="3.98" height="32.66"/><rect class="cls-12" x="1880.87" y="1341.68" width="3.98" height="32.66"/><rect class="cls-12" x="1847.34" y="1341.68" width="3.98" height="32.66"/><rect class="cls-12" x="2051.87" y="1341.68" width="3.98" height="32.66"/><rect class="cls-12" x="2060.33" y="1341.68" width="3.98" height="32.66"/><rect class="cls-12" x="2068.51" y="1341.68" width="3.98" height="32.66"/><path class="cls-12" d="M2078.63,1341.79v32.44a10.45,10.45,0,0,1-1.49.11h-2.49v-32.66h2.49A10.45,10.45,0,0,1,2078.63,1341.79Z"/><path class="cls-12" d="M2084.15,1344.82v26.38a8.33,8.33,0,0,1-4,2.66v-31.7A8.33,8.33,0,0,1,2084.15,1344.82Z"/><path class="cls-11" d="M2103.68,1316.93v18.44a6.25,6.25,0,0,1-1.45,4,8.33,8.33,0,0,1-4,2.66,9,9,0,0,1-1.55.37,10.45,10.45,0,0,1-1.49.11H1745.33a9.79,9.79,0,0,1-3.91-.8,7.26,7.26,0,0,1-4.52-5.62,1.82,1.82,0,0,1,0-.32c0-.12,0-.25,0-.37v-18.44c0-.12,0-.25,0-.37.23-3.74,3.94-6.74,8.46-6.74h349.89a10.45,10.45,0,0,1,1.49.11,9,9,0,0,1,1.55.37,8.33,8.33,0,0,1,4,2.66A6.25,6.25,0,0,1,2103.68,1316.93Z"/><path class="cls-12" d="M1931.87,1342.48H1744.42a7.88,7.88,0,0,1-3.48-.8,7.14,7.14,0,0,1-4-5.62,1.82,1.82,0,0,1,0-.32c0-.12,0-.25,0-.37v-18.44c0-.12,0-.25,0-.37a7.4,7.4,0,0,1,7.55-6.74h164.43a57.3,57.3,0,0,0,21.87,31.86Z"/><rect class="cls-12" x="2057.13" y="1309.82" width="3.98" height="32.67"/><rect class="cls-12" x="2043.67" y="1309.82" width="3.98" height="32.67"/><rect class="cls-12" x="2027.53" y="1309.82" width="3.98" height="32.67"/><rect class="cls-12" x="2002.78" y="1309.82" width="3.98" height="32.67"/><rect class="cls-12" x="1976.62" y="1309.82" width="3.98" height="32.67"/><rect class="cls-12" x="1936.51" y="1309.82" width="3.98" height="32.67"/><rect class="cls-12" x="1898.95" y="1309.82" width="3.98" height="32.67"/><rect class="cls-12" x="1865.42" y="1309.82" width="3.98" height="32.67"/><rect class="cls-12" x="2069.94" y="1309.82" width="3.98" height="32.67"/><rect class="cls-12" x="2078.41" y="1309.82" width="3.98" height="32.67"/><rect class="cls-12" x="2086.58" y="1309.82" width="3.98" height="32.67"/><path class="cls-12" d="M2096.71,1309.93v32.44a10.45,10.45,0,0,1-1.49.11h-2.49v-32.66h2.49A10.45,10.45,0,0,1,2096.71,1309.93Z"/><path class="cls-12" d="M2102.23,1313v26.38a8.33,8.33,0,0,1-4,2.66v-31.7A8.33,8.33,0,0,1,2102.23,1313Z"/><path class="cls-11" d="M2132.28,1284.26v18.45a6.29,6.29,0,0,1-1.46,4,8.43,8.43,0,0,1-4,2.66,9.47,9.47,0,0,1-1.55.36,9.08,9.08,0,0,1-1.49.12H1773.92c-4.51,0-8.23-3-8.46-6.75,0-.12,0-.24,0-.36v-18.45c0-.12,0-.24,0-.36.21-3.46,3.41-6.29,7.46-6.7.33,0,.66,0,1,0h349.89a9.08,9.08,0,0,1,1.49.12,9.47,9.47,0,0,1,1.55.36,8.43,8.43,0,0,1,4,2.66A6.29,6.29,0,0,1,2132.28,1284.26Z"/><path class="cls-12" d="M1960.46,1309.82H1773a7.41,7.41,0,0,1-7.55-6.75c0-.12,0-.24,0-.36v-18.45c0-.12,0-.24,0-.36a7.36,7.36,0,0,1,6.66-6.7,8.69,8.69,0,0,1,.89,0h164.43s0,0,0,0A57.23,57.23,0,0,0,1960.46,1309.82Z"/><rect class="cls-12" x="2085.72" y="1277.15" width="3.98" height="32.66"/><rect class="cls-12" x="2072.26" y="1277.15" width="3.98" height="32.66"/><rect class="cls-12" x="2056.12" y="1277.15" width="3.98" height="32.66"/><rect class="cls-12" x="2031.38" y="1277.15" width="3.98" height="32.66"/><rect class="cls-12" x="2005.22" y="1277.15" width="3.98" height="32.66"/><rect class="cls-12" x="1965.1" y="1277.15" width="3.98" height="32.66"/><rect class="cls-12" x="1927.55" y="1277.15" width="3.98" height="32.66"/><rect class="cls-12" x="1894.01" y="1277.15" width="3.98" height="32.66"/><rect class="cls-12" x="2098.54" y="1277.15" width="3.98" height="32.66"/><rect class="cls-12" x="2107" y="1277.15" width="3.98" height="32.66"/><rect class="cls-12" x="2115.18" y="1277.15" width="3.98" height="32.66"/><path class="cls-12" d="M2125.3,1277.27v32.43a9.08,9.08,0,0,1-1.49.12h-2.48v-32.67h2.48A9.08,9.08,0,0,1,2125.3,1277.27Z"/><path class="cls-12" d="M2130.83,1280.29v26.39a8.51,8.51,0,0,1-4,2.66v-31.71A8.51,8.51,0,0,1,2130.83,1280.29Z"/><path class="cls-11" d="M2086.34,1251.65v18.45a6.23,6.23,0,0,1-1.45,4,8.33,8.33,0,0,1-4,2.66,9,9,0,0,1-1.55.37l-.49.06-.4,0-.19,0H1728c-4.51,0-8.22-3-8.45-6.74,0-.12,0-.24,0-.36v-18.45c0-.12,0-.25,0-.37.23-3.74,3.94-6.74,8.45-6.74h350.34c.36,0,.7,0,1,.1a9,9,0,0,1,1.55.37c.25.08.5.17.73.27l.44.2a.05.05,0,0,1,0,0l.43.22.07,0,.38.23a6.51,6.51,0,0,1,.84.62,2.25,2.25,0,0,1,.24.21l0,0,.15.14,0,0,.25.25.34.39A6.28,6.28,0,0,1,2086.34,1251.65Z"/><path class="cls-12" d="M1914.52,1277.2H1727.08a7.39,7.39,0,0,1-7.55-6.74c0-.12,0-.24,0-.36v-18.45c0-.12,0-.25,0-.37a7.39,7.39,0,0,1,7.55-6.74h164.43q.09.38.21.75a57.16,57.16,0,0,0,22.73,31.86Z"/><rect class="cls-12" x="2039.79" y="1244.54" width="3.98" height="32.66"/><rect class="cls-12" x="2026.33" y="1244.54" width="3.98" height="32.66"/><rect class="cls-12" x="2010.18" y="1244.54" width="3.98" height="32.66"/><rect class="cls-12" x="1985.44" y="1244.54" width="3.98" height="32.66"/><rect class="cls-12" x="1959.28" y="1244.54" width="3.98" height="32.66"/><rect class="cls-12" x="1919.17" y="1244.54" width="3.98" height="32.66"/><rect class="cls-12" x="1881.61" y="1244.54" width="3.98" height="32.66"/><rect class="cls-12" x="1848.07" y="1244.54" width="3.98" height="32.66"/><rect class="cls-12" x="2052.6" y="1244.54" width="3.98" height="32.66"/><rect class="cls-12" x="2061.07" y="1244.54" width="3.98" height="32.66"/><rect class="cls-12" x="2069.24" y="1244.54" width="3.98" height="32.66"/><path class="cls-12" d="M2079.37,1244.65v32.44a9.3,9.3,0,0,1-1.5.11h-2.48v-32.66h2.48A10.59,10.59,0,0,1,2079.37,1244.65Z"/><path class="cls-12" d="M2084.89,1247.68v26.38a8.33,8.33,0,0,1-4,2.66V1245A8.41,8.41,0,0,1,2084.89,1247.68Z"/><path class="cls-11" d="M2112.06,1219.74v18.44a6.23,6.23,0,0,1-1.45,4,8.33,8.33,0,0,1-4,2.66,9,9,0,0,1-1.55.37,9.17,9.17,0,0,1-1.49.11H1753.71a9.69,9.69,0,0,1-3.78-.75,7.29,7.29,0,0,1-4.66-5.7c0-.09,0-.19,0-.29s0-.24,0-.37v-18.44c0-.12,0-.24,0-.37.21-3.46,3.41-6.28,7.46-6.69.32,0,.66,0,1,0H2103.6a10.45,10.45,0,0,1,1.49.11,9,9,0,0,1,1.55.37,8.41,8.41,0,0,1,4,2.66A6.28,6.28,0,0,1,2112.06,1219.74Z"/><path class="cls-12" d="M1940.25,1245.29H1752.8a7.85,7.85,0,0,1-3.37-.75,7.17,7.17,0,0,1-4.16-5.7c0-.09,0-.19,0-.29s0-.24,0-.37v-18.44c0-.12,0-.24,0-.37a7.35,7.35,0,0,1,6.66-6.69,8.69,8.69,0,0,1,.89,0h164.43a.43.43,0,0,0,0,0,57.35,57.35,0,0,0,21.93,31.86C1939.52,1244.79,1939.88,1245.05,1940.25,1245.29Z"/><rect class="cls-12" x="2065.51" y="1212.63" width="3.98" height="32.67"/><rect class="cls-12" x="2052.05" y="1212.63" width="3.98" height="32.67"/><rect class="cls-12" x="2035.91" y="1212.63" width="3.98" height="32.67"/><rect class="cls-12" x="2011.17" y="1212.63" width="3.98" height="32.67"/><rect class="cls-12" x="1985" y="1212.63" width="3.98" height="32.67"/><rect class="cls-12" x="1944.89" y="1212.63" width="3.98" height="32.67"/><rect class="cls-12" x="1907.33" y="1212.63" width="3.98" height="32.67"/><rect class="cls-12" x="1873.8" y="1212.63" width="3.98" height="32.67"/><rect class="cls-12" x="2078.33" y="1212.63" width="3.98" height="32.67"/><rect class="cls-12" x="2086.79" y="1212.63" width="3.98" height="32.67"/><rect class="cls-12" x="2094.97" y="1212.63" width="3.98" height="32.67"/><path class="cls-12" d="M2105.09,1212.74v32.44a10.45,10.45,0,0,1-1.49.11h-2.49v-32.66h2.49A10.45,10.45,0,0,1,2105.09,1212.74Z"/><path class="cls-12" d="M2110.61,1215.77v26.38a8.33,8.33,0,0,1-4,2.66v-31.7A8.33,8.33,0,0,1,2110.61,1215.77Z"/><path class="cls-11" d="M2123,1187.12v18.45a6.25,6.25,0,0,1-1.45,4,8.41,8.41,0,0,1-4,2.66,8.55,8.55,0,0,1-1.55.37l-.49.06-.28,0-.27,0H1764.66c-4.51,0-8.23-3-8.46-6.74,0-.12,0-.25,0-.37v-18.45c0-.12,0-.24,0-.36.23-3.74,4-6.74,8.46-6.74h349.89a10.34,10.34,0,0,1,1.49.11,8.55,8.55,0,0,1,1.55.37,8.33,8.33,0,0,1,4,2.66A6.25,6.25,0,0,1,2123,1187.12Z"/><path class="cls-12" d="M1951.2,1212.68H1763.75a7.4,7.4,0,0,1-7.55-6.74c0-.12,0-.25,0-.37v-18.45c0-.12,0-.24,0-.36a7.4,7.4,0,0,1,7.55-6.74h164.43a57.24,57.24,0,0,0,23,32.61Z"/><rect class="cls-12" x="2076.46" y="1180.02" width="3.98" height="32.66"/><rect class="cls-12" x="2063" y="1180.02" width="3.98" height="32.66"/><rect class="cls-12" x="2046.86" y="1180.02" width="3.98" height="32.66"/><rect class="cls-12" x="2022.12" y="1180.02" width="3.98" height="32.66"/><rect class="cls-12" x="1995.95" y="1180.02" width="3.98" height="32.66"/><rect class="cls-12" x="1955.84" y="1180.02" width="3.98" height="32.66"/><rect class="cls-12" x="1918.28" y="1180.02" width="3.98" height="32.66"/><rect class="cls-12" x="1884.75" y="1180.02" width="3.98" height="32.67"/><rect class="cls-12" x="2089.28" y="1180.02" width="3.98" height="32.66"/><rect class="cls-12" x="2097.74" y="1180.02" width="3.98" height="32.66"/><rect class="cls-12" x="2105.91" y="1180.02" width="3.98" height="32.66"/><path class="cls-12" d="M2116,1180.13v32.44a10.34,10.34,0,0,1-1.49.11h-2.49V1180h2.49A10.34,10.34,0,0,1,2116,1180.13Z"/><path class="cls-12" d="M2121.56,1183.16v26.38a8.43,8.43,0,0,1-4,2.66v-31.7A8.29,8.29,0,0,1,2121.56,1183.16Z"/><path class="cls-11" d="M2086.34,1155v18.45a6.28,6.28,0,0,1-1.45,4,8.48,8.48,0,0,1-4,2.66,10,10,0,0,1-1.55.36l-.49.07-.4,0H1728c-4.51,0-8.22-3-8.45-6.75,0-.12,0-.24,0-.36V1155c0-.12,0-.24,0-.36.23-3.74,3.94-6.75,8.45-6.75h350.34c.36,0,.7.06,1,.11a10,10,0,0,1,1.55.36c.25.08.5.18.73.28l.44.19s0,0,0,0l.43.22.07,0,.38.23a7.59,7.59,0,0,1,.84.62l.24.21,0,0,.15.13,0,0a3.07,3.07,0,0,1,.25.26c.12.12.23.25.34.38A6.28,6.28,0,0,1,2086.34,1155Z"/><path class="cls-12" d="M1914.52,1180.57H1727.08a7.4,7.4,0,0,1-7.55-6.75c0-.12,0-.24,0-.36V1155c0-.12,0-.24,0-.36a7.4,7.4,0,0,1,7.55-6.75h164.43c.06.25.13.5.21.76a57.19,57.19,0,0,0,22.73,31.86Z"/><rect class="cls-12" x="2039.79" y="1147.9" width="3.98" height="32.66"/><rect class="cls-12" x="2026.33" y="1147.9" width="3.98" height="32.66"/><rect class="cls-12" x="2010.18" y="1147.9" width="3.98" height="32.66"/><rect class="cls-12" x="1985.44" y="1147.9" width="3.98" height="32.66"/><rect class="cls-12" x="1959.28" y="1147.9" width="3.98" height="32.66"/><rect class="cls-12" x="1919.17" y="1147.9" width="3.98" height="32.66"/><rect class="cls-12" x="1881.61" y="1147.9" width="3.98" height="32.66"/><rect class="cls-12" x="1848.07" y="1147.9" width="3.98" height="32.66"/><rect class="cls-12" x="2052.6" y="1147.9" width="3.98" height="32.66"/><rect class="cls-12" x="2061.07" y="1147.9" width="3.98" height="32.66"/><rect class="cls-12" x="2069.24" y="1147.9" width="3.98" height="32.66"/><path class="cls-12" d="M2079.37,1148v32.43a9.29,9.29,0,0,1-1.5.12h-2.48V1147.9h2.48A9.29,9.29,0,0,1,2079.37,1148Z"/><path class="cls-12" d="M2084.89,1151v26.39a8.48,8.48,0,0,1-4,2.66v-31.71A8.48,8.48,0,0,1,2084.89,1151Z"/><path class="cls-11" d="M2112.06,1123.1v18.45a6.28,6.28,0,0,1-1.45,4,8.48,8.48,0,0,1-4,2.66,10,10,0,0,1-1.55.36,9.17,9.17,0,0,1-1.49.12H1753.71a9.52,9.52,0,0,1-3.78-.76,7.28,7.28,0,0,1-4.66-5.7c0-.09,0-.19,0-.29s0-.24,0-.36V1123.1c0-.12,0-.24,0-.36.21-3.47,3.41-6.29,7.46-6.7.32,0,.66,0,1,0H2103.6a9.17,9.17,0,0,1,1.49.12,10,10,0,0,1,1.55.36,8.48,8.48,0,0,1,4,2.66A6.28,6.28,0,0,1,2112.06,1123.1Z"/><path class="cls-12" d="M1940.25,1148.66H1752.8a7.72,7.72,0,0,1-3.37-.76,7.15,7.15,0,0,1-4.16-5.7c0-.09,0-.19,0-.29s0-.24,0-.36V1123.1c0-.12,0-.24,0-.36a7.35,7.35,0,0,1,6.66-6.7,8.69,8.69,0,0,1,.89,0h164.43a.43.43,0,0,0,0,0,57.32,57.32,0,0,0,21.93,31.86C1939.52,1148.16,1939.88,1148.41,1940.25,1148.66Z"/><rect class="cls-12" x="2065.51" y="1115.99" width="3.98" height="32.66"/><rect class="cls-12" x="2052.05" y="1115.99" width="3.98" height="32.66"/><rect class="cls-12" x="2035.91" y="1115.99" width="3.98" height="32.66"/><rect class="cls-12" x="2011.17" y="1115.99" width="3.98" height="32.66"/><rect class="cls-12" x="1985" y="1115.99" width="3.98" height="32.66"/><rect class="cls-12" x="1944.89" y="1115.99" width="3.98" height="32.66"/><rect class="cls-12" x="1907.33" y="1115.99" width="3.98" height="32.66"/><rect class="cls-12" x="1873.8" y="1115.99" width="3.98" height="32.66"/><rect class="cls-12" x="2078.33" y="1115.99" width="3.98" height="32.66"/><rect class="cls-12" x="2086.79" y="1115.99" width="3.98" height="32.66"/><rect class="cls-12" x="2094.97" y="1115.99" width="3.98" height="32.66"/><path class="cls-12" d="M2105.09,1116.11v32.43a9.17,9.17,0,0,1-1.49.12h-2.49V1116h2.49A9.17,9.17,0,0,1,2105.09,1116.11Z"/><path class="cls-12" d="M2110.61,1119.13v26.39a8.48,8.48,0,0,1-4,2.66v-31.71A8.48,8.48,0,0,1,2110.61,1119.13Z"/><path class="cls-11" d="M2123,1090.49v18.44a6.25,6.25,0,0,1-1.45,4,8.33,8.33,0,0,1-4,2.66,8.55,8.55,0,0,1-1.55.37l-.49.06-.28,0H1764.66c-4.51,0-8.23-3-8.46-6.74,0-.12,0-.24,0-.37v-18.44c0-.12,0-.25,0-.37.23-3.74,4-6.74,8.46-6.74h349.89a10.34,10.34,0,0,1,1.49.11,8.55,8.55,0,0,1,1.55.37,8.41,8.41,0,0,1,4,2.66A6.25,6.25,0,0,1,2123,1090.49Z"/><path class="cls-12" d="M1951.2,1116H1763.75a7.4,7.4,0,0,1-7.55-6.74c0-.12,0-.24,0-.37v-18.44c0-.12,0-.25,0-.37a7.4,7.4,0,0,1,7.55-6.74h164.43a57.21,57.21,0,0,0,23,32.61Z"/><rect class="cls-12" x="2076.46" y="1083.38" width="3.98" height="32.66"/><rect class="cls-12" x="2063" y="1083.38" width="3.98" height="32.66"/><rect class="cls-12" x="2046.86" y="1083.38" width="3.98" height="32.66"/><rect class="cls-12" x="2022.12" y="1083.38" width="3.98" height="32.66"/><rect class="cls-12" x="1995.95" y="1083.38" width="3.98" height="32.66"/><rect class="cls-12" x="1955.84" y="1083.38" width="3.98" height="32.66"/><rect class="cls-12" x="1918.28" y="1083.38" width="3.98" height="32.66"/><rect class="cls-12" x="1884.75" y="1083.38" width="3.98" height="32.67"/><rect class="cls-12" x="2089.28" y="1083.38" width="3.98" height="32.66"/><rect class="cls-12" x="2097.74" y="1083.38" width="3.98" height="32.66"/><rect class="cls-12" x="2105.91" y="1083.38" width="3.98" height="32.66"/><path class="cls-12" d="M2116,1083.49v32.44a10.34,10.34,0,0,1-1.49.11h-2.49v-32.66h2.49A10.34,10.34,0,0,1,2116,1083.49Z"/><path class="cls-12" d="M2121.56,1086.52v26.38a8.29,8.29,0,0,1-4,2.66v-31.7A8.36,8.36,0,0,1,2121.56,1086.52Z"/><path class="cls-14" d="M1546.37,1147.43c13.56,23.6,30.61,32.71,30.61,32.71h71S1536,1129.43,1546.37,1147.43Z"/><path class="cls-15" d="M1600.86,1330a6.57,6.57,0,0,1,1.17,7l0,0c-1.69,4.68-7.28,9.9-13.78,15.11-.83.67-1.56,1.28-2.21,1.85-.17.15-.34.29-.49.44l-.39.35c-6.05,5.58-3.77,6.86-14.65,18.19-12.41,12.9-21,13.13-23.38,12-2-1,2.12-7.85,6.75-15.54l.68-1.12c.61-1,1.22-2.07,1.84-3.09,5.42-9.26,4-13.61,2.74-27.39-1-11.2-17.42-62.56-17.42-62.56l23.77-4.1s7.16,40.9,15,47.2c4.22,3.36,8.94,3.4,13,5.89.29.17.57.35.84.53A31.21,31.21,0,0,1,1600.86,1330Z"/><path class="cls-16" d="M1600.86,1330a6.57,6.57,0,0,1,1.17,7l0,0c-2.07,4.67-7.52,9.87-13.8,15.07-.82.68-1.54,1.3-2.19,1.89-.17.15-.34.29-.49.44l-.39.35c-6.05,5.58-3.77,6.86-14.65,18.19-12.41,12.9-21,13.13-23.38,12-2-1,2.12-7.85,6.75-15.54a52.84,52.84,0,0,0,22.11-16.3c7.47-9.53,12.46-21.77,17.54-28.87.29.17.57.35.84.53A31.21,31.21,0,0,1,1600.86,1330Z"/><path class="cls-15" d="M1409.17,1315.17c-1.46,7.34-11.92,6.12-23.61,3.26s-8.91.54-25.54-1.3-21.67-8-22.18-10.52c-.45-2.19,7.77-3,16.58-4,1.11-.12,2.22-.26,3.34-.4,10-1.25,17.24-7.67,26.28-12.94,8.56-5,21.34-25.35,21.34-25.35l22.81,1.81s-12,18.18-16.6,26.08c-2.72,4.65-2.58,10.8-2.24,15.54A29.13,29.13,0,0,1,1409.17,1315.17Z"/><path class="cls-16" d="M1385.56,1318.43c-11.69-2.85-8.91.54-25.54-1.3s-21.67-8-22.18-10.52c-.45-2.19,7.77-3,16.58-4l.08.17a46.91,46.91,0,0,0,23.82,7.4c11.29.28,23.24-3,31-2.83a29.13,29.13,0,0,1-.18,7.8C1407.71,1322.51,1397.25,1321.29,1385.56,1318.43Z"/><path class="cls-17" d="M1496.58,1169.33l21.32,57.37,27.84,74.92a45.1,45.1,0,0,0,14.79-1.35c6.66-1.93,14.3-7,14.3-7s-7.73-80.44-22.15-126.62c-3.69-11.85-7.83-21.43-12.4-26.83C1517.92,1113.44,1496.58,1169.33,1496.58,1169.33Z"/><path class="cls-18" d="M1691,1115.81s-141.25-47.76-172.75-37.6-126.08,198.34-126.08,198.34,2.13,2.84,8,5c5.42,2,18.54,1.9,18.54,1.9s85.35-73.17,95.52-94.51,14.22-41.66,24.38-39.63c6.21,1.25,54.21,30.8,97.19,30.8H1698c26.9-29,19.37-74.88,19.37-74.88Z"/><path class="cls-19" d="M1596,905.57c-2.61-4.47-5.76-12.52-8.14-27.13.3,1.45,4.28,19.79,12.23,29.74,30.78,16.94,91.91,76.78,91.75,89,0,0,17.16-35.07,17.48-35.3,0,0,32.87-49.22-12.43-72.42-23-11.8-24.25-29.13-24.51-44.26s-12.2-79.39-54.89-59c0,0-7.31-2.59-10.44-1.87a8.63,8.63,0,0,1,4,1.55c-5.13.09-12.4,1-18.21,5C1577.47,801.29,1569.43,884.67,1596,905.57Z"/><path class="cls-15" d="M1612.94,906.4c-.13.08,15.15,5.3,25.37.78,9.61-4.25,16.89-20.07,16.75-20.08-4.38-.2-9.17-4-12.87-29.11l-1.86.67L1609,869.93s2.27,10,3.73,19.61C1614,897.57,1614.65,905.26,1612.94,906.4Z"/><path class="cls-20" d="M1609,869.93s2.27,10,3.73,19.61c18-3.24,25-21.16,27.58-30.88Z"/><path class="cls-19" d="M1647.88,850.84s9.57-15.13,11.87-28.06c1.64-9.23-3.06-43.45-37.45-38.52a46.7,46.7,0,0,0-19.38,7.32c-7.47,5-18.24,15.93-6.19,45.79l3.13,10.09Z"/><path class="cls-15" d="M1604.36,879.9s42.83-5.75,38.84-32.37-1.15-45.29-28.67-42.75-31.29,13.5-32.12,22.71S1593.11,880.71,1604.36,879.9Z"/><path class="cls-19" d="M1595,807.07s16.42,29.46,35.07,31.36,25.71-4.08,25.71-4.08a51.41,51.41,0,0,1-21.16-27.52S1601.55,790.88,1595,807.07Z"/><path class="cls-19" d="M1598.26,809.17s-7.69,8.29-8.79,15.39,0,21.2-4.1,21.33c0,0-12-19.89-3.93-33.39C1590,798.18,1598.26,809.17,1598.26,809.17Z"/><path class="cls-21" d="M1724.14,1116.56c-2.33,6.47-9.47,8.13-19.05,7-18.27-2.14-45.4-14.4-64.95-22.88-29.81-12.92-43.36-.78-52.85-9s10.84-26.5-6.77-111.41c-6-28.8,32.23-90.73,32.23-90.73s2.92,18.07,39.14-3.43c1.28-.75,15.54,20.36,29.27,46.38,15.13,28.71,29.63,63.39,25.37,81.26C1698.4,1047.82,1730.92,1097.76,1724.14,1116.56Z"/><path class="cls-22" d="M1724.14,1116.56c-2.33,6.47-9.47,8.13-19.05,7-12.65-5.51-67.26-26.67-66.65-41,.91-21.23,10.5-21.91,3.73-48.11-5.44-21,45-60.15,53.07-68.65,15.13,28.71,15.55,30.07,11.29,47.94C1698.4,1047.82,1730.92,1097.76,1724.14,1116.56Z"/><path class="cls-18" d="M1517.9,1226.7l27.84,74.92a45.1,45.1,0,0,0,14.79-1.35c6.66-1.93,14.3-7,14.3-7s-7.73-80.44-22.15-126.62Z"/><path class="cls-21" d="M1612.75,889.54s-37.26,6.31-41.63,22.36L1541,1022.25s19,3.4,27.7-5.35,30.45-81.18,30.45-81.18Z"/><path class="cls-21" d="M1651.89,886.12s35.22,2.17,47.41,19.17c17.17,23.94,51.21,126,31.7,139.56-22,15.33-100,4-100,4s-2.6-12.14,1-18,62.33-15.36,65-18.06-33.88-52.85-33.88-61S1651.89,886.12,1651.89,886.12Z"/><polygon class="cls-3" points="1650.44 1079.04 1500.03 1079.04 1472.92 984.48 1623.09 984.48 1650.44 1079.04"/><rect class="cls-3" x="1500.55" y="1075.35" width="196.63" height="3.68"/><path class="cls-23" d="M1547.79,1030.23c-1-3.33,1-6,4.29-6a8.63,8.63,0,0,1,7.75,6c1,3.32-1,6-4.3,6A8.62,8.62,0,0,1,1547.79,1030.23Z"/><circle class="cls-24" cx="1791.98" cy="1370.37" r="166.29" transform="translate(-444.14 1668.49) rotate(-45)"/><circle class="cls-11" cx="1777.47" cy="1370.37" r="166.29" transform="translate(-448.39 1658.23) rotate(-45)"/><path class="cls-12" d="M1777.47,1523.84a151.52,151.52,0,1,1,107.13-44.38A150.49,150.49,0,0,1,1777.47,1523.84Zm0-294c-78.56,0-142.47,63.91-142.47,142.47s63.91,142.47,142.47,142.47,142.47-63.91,142.47-142.47S1856,1229.86,1777.47,1229.86Z"/><path class="cls-12" d="M1798.33,1416.3a24.79,24.79,0,0,0-.36-8.79,18.35,18.35,0,0,0-3.72-7.31,34.18,34.18,0,0,0-7.44-6.56,90.92,90.92,0,0,0-11.52-6.46,238.14,238.14,0,0,1-21.29-11.69,75.67,75.67,0,0,1-15.92-13,44.37,44.37,0,0,1-9.4-15.79q-3-8.74-1.62-20.19a45.73,45.73,0,0,1,5.67-17.67,42.09,42.09,0,0,1,11.74-13,52.45,52.45,0,0,1,16.81-8,70.46,70.46,0,0,1,21-2.42l3-25,20.1,2.39-3,25.32a62.92,62.92,0,0,1,18.92,8,47.54,47.54,0,0,1,21.17,30.38,62.94,62.94,0,0,1,.83,21.46l-36.3-4.31q1.66-14-3.73-21.68t-15.82-8.92a27.15,27.15,0,0,0-9.93.42,18.52,18.52,0,0,0-7.23,3.52,17.07,17.07,0,0,0-4.66,6,25.35,25.35,0,0,0-2.22,7.91,23.19,23.19,0,0,0,.33,8,17.11,17.11,0,0,0,3.57,7,35,35,0,0,0,7.5,6.57,117,117,0,0,0,12,6.92q11.64,6,21.07,12a76.13,76.13,0,0,1,15.84,13.06,45.08,45.08,0,0,1,9.39,15.85q3,8.75,1.63,20.07a45.66,45.66,0,0,1-5.77,18,41.44,41.44,0,0,1-11.79,12.92,50.76,50.76,0,0,1-16.9,7.7,75.86,75.86,0,0,1-21.09,2.23l-2.76,23.22-20-2.37,2.74-23.1a85.23,85.23,0,0,1-19.62-6.94,54.1,54.1,0,0,1-16.08-12.15,48.14,48.14,0,0,1-10.08-18.06q-3.33-10.58-1.67-24.57l36.3,4.3a36.09,36.09,0,0,0,.69,14.11,23.21,23.21,0,0,0,5.16,9.6,22.53,22.53,0,0,0,8.3,5.72,38.48,38.48,0,0,0,10,2.54,32.28,32.28,0,0,0,10.54-.28,21.8,21.8,0,0,0,8-3.32,17.17,17.17,0,0,0,5.27-5.82A20.92,20.92,0,0,0,1798.33,1416.3Z"/><path class="cls-25" d="M2692.32,1541.76H3a3.05,3.05,0,0,1-3-3H0a3.05,3.05,0,0,1,3-3H2692.33a3.05,3.05,0,0,1,3,3h0A3.05,3.05,0,0,1,2692.32,1541.76Z"/><path class="cls-3" d="M558.22,970.3c3.62-20.71-4.09-32.09-4.09-32.09-27,5.18-34.19,24.31-34.19,24.31,18.11,12.41,27.93,18.1,27.93,18.1C502,1064.93,492.65,1114,507,1144c12.83,26.76,89.47,35.69,116.89,12.42s23.79-121-62.09-178.88C557.7,973.9,558.22,970.3,558.22,970.3Z"/><path class="cls-26" d="M409.32,906.5s20.6,6.67,26.5,14.12-4,35.63-4,35.63Z"/><path class="cls-27" d="M398.38,915.89s21.37,34.56,9.51,48.3c-18.16,21.06-73.25,37.84-67.32,47.83,2.91,4.9,39.15,65,39.15,65l-10.84,5.47s-54.41-52.84-62.38-70.17C297.8,993.4,398.38,915.89,398.38,915.89Z"/><path class="cls-27" d="M374.75,1070.23s-1.86,2.5-12.13,3.21c0,0,6.14,8.5,6.26,9.07s-1.13,11.06,3.48,15.26,5.55,7,13.9,3.51,8.81-11.27,7.49-13-14-11.21-14-11.21S378.27,1077.11,374.75,1070.23Z"/><path class="cls-22" d="M356.27,1181.48l0,.11c0,.06,0,.14.06.23,2.66,10.33,5.91,21,9.5,31.75,6.08,18.15,13.16,36.38,20.12,53,.83,2,1.68,4.06,2.53,6,13.6,32,26.19,57.25,29.27,63.31v0a4.52,4.52,0,0,1,.26,2.84c-5.62,30.24-1.07,60,7.52,86.26,17.26,52.79,50.81,91.45,50.81,91.45l16.27,4.94s-15.27-35.56-22.33-104a691.41,691.41,0,0,1-3.51-73.74c.12-30.87-.84-110.89-11.72-167.44-1.13-5.86-10.44-58.59-13.51-71.68-1.68-7.1-9.45-7.15-9.45-7.15L398,1105.6l-47.11,11.24C346.77,1132.74,349.74,1156,356.27,1181.48Z"/><path class="cls-28" d="M421.77,802.11S382.17,754.52,361.2,785c0,0-15.64,6.49-21.3,33.11-5.77,27.17,12.29,47.81,21.63,42.71,6-3.27,10.53,7.21,10.53,7.21Z"/><path class="cls-15" d="M409.32,906.5c.15.06-14.55,7.7-25.62,4.68-10.41-2.84-23.6-6.33-23.46-6.36,4.41-.88,12.07-16.94,12-43l2,.39,33.51,6.64s-.76,10.54-.79,20.47C406.91,897.7,407.42,905.6,409.32,906.5Z"/><path class="cls-27" d="M407.72,868.88s-.76,10.54-.79,20.47c-18.75-.52-28.66-17.63-32.72-27.11Z"/><path class="cls-28" d="M370.75,858.6s-9.82-15.53-12.18-28.8c-1.68-9.48,3.14-44.61,38.44-39.55a47.92,47.92,0,0,1,19.89,7.52c7.67,5.18,18.73,16.35,6.36,47l-3.21,10.35Z"/><path class="cls-15" d="M414,878.28s-44.36.74-44.39-26.89-5.78-46.15,22.54-47.79,33.84,8.91,36.09,18.13S425.52,877.38,414,878.28Z"/><path class="cls-28" d="M412.34,802.93s-12.15,32.41-30.79,37.21-26.72-.2-26.72-.2a69.15,69.15,0,0,0,14.26-32.67S403.18,787.5,412.34,802.93Z"/><path class="cls-28" d="M409.33,805.56s9.07,7.24,11.28,14.27,3.2,21.52,7.43,21c0,0,9.15-22-1.14-34.5C416,793.15,409.33,805.56,409.33,805.56Z"/><path class="cls-15" d="M442.83,1102.87a181.23,181.23,0,0,1-7.76-35,123.9,123.9,0,0,1,.2-33.7c.05-.35.1-.7.15-1,2.92-19,9.23-32.37,8-51.44s-9.57-38.76-17.18-53.21a88.22,88.22,0,0,0-16.9-22s-30-3.09-47.78-1.89l-1.22.1c-40.68,15.4-29.34,88.94-25.11,110,.52,2.56.94,4.34,1.14,5.15a2.55,2.55,0,0,0,.08.28,181.4,181.4,0,0,1,4.74,24.64,99.11,99.11,0,0,1,.81,13c-.26,11-7.71,20.84-23.26,55.72C310.13,1132.78,422.36,1101.72,442.83,1102.87Z"/><path class="cls-29" d="M360.65,1116.84l67.69-9.2c2.21.29,11.8,2.69,13.88,3-4.88,17.64-15,45.56-24.14,76.34-16.85,56.44-29.57,85.63-29.57,85.63-.85-2-1.69-4-2.54-6-1.82-4.38-3.66-8.87-5.48-13.44C369.67,1195.35,358.15,1126.56,360.65,1116.84Z"/><path class="cls-22" d="M171.79,1401.52l2.06,13.81s54.92-17,116.46-33.36c19.41-5.15,39.47-10.23,58.68-14.68,19.67-4.56,83.14-269.86,83.14-269.86s-26.13,13.45-69.51,4.1c-14.39-3.1-30.13-15.75-37.58-2.75-46.79,81.62,9.3,214.82-29.84,228.53-6.07,2.12-13.11,2.87-20,5.5C227.82,1350.75,171.79,1401.52,171.79,1401.52Z"/><path class="cls-25" d="M149,1399.65l1.63,9.19c1,3,2.32,5.11,3.29,8.2,1.48,4.68-.09,7.24-.47,7.76l-.07.1,6.91,39.07c1.58.73,4.66-.79,6.89-2.14a5.63,5.63,0,0,0,2.7-4.25c.46-4.35.08-12.71,5.53-21.38,3.06-4.88,10.38-22.8,10.38-22.8v-.08c-.07-.36-.89-2-8.37-8.18-3.86-3.22,2.69-11,2.69-11a9.16,9.16,0,0,0-3.24-1.61,9.85,9.85,0,0,0-6.15.22c-3.41,1.21-10.29.48-15-.24-2.84-.43-4.88-.86-4.88-.86S148.57,1391.56,149,1399.65Z"/><path class="cls-28" d="M176.86,1392.49c-1.16,2.47-3.39,7.64-3.24,10.78.19,4.25,12.15,10.13,12.15,10.13v-.08c-.07-.36-.89-2-8.37-8.18-3.86-3.22,2.69-11,2.69-11A9.16,9.16,0,0,0,176.86,1392.49Z"/><path class="cls-28" d="M149,1399.65l1.63,9.19c1,3,2.32,5.11,3.29,8.2,1.48,4.68-.09,7.24-.47,7.76l-.07.1,6.91,39.07c1.58.73,4.66-.79,6.89-2.14.85-1.37-4.85-.71-5.86-1.2s-6-31.81-5-33.85,2.33-7.84-.81-15.06c-2.73-6.29-.42-16.66.22-19.25-2.84-.43-4.88-.86-4.88-.86S148.57,1391.56,149,1399.65Z"/><path class="cls-28" d="M411,806.65s-8.65,34-32.17,44.82c0,0,23.52-20.85,25.51-43.26S411,806.65,411,806.65Z"/><path class="cls-27" d="M435.07,1067.87a123.9,123.9,0,0,1,.2-33.7c.05-.35.1-.7.15-1-13.5-6.2-25.1-10.69-25.1-10.69l-51.53,4.61S383.55,1060.32,435.07,1067.87Z"/><path class="cls-26" d="M333.17,1025.77c-.07,25.33-22.82,82.91-20.95,87.41,5.06,5.2,42.39,13.18,70.59,16.15,29.6,3.11,59,.11,64.48-5.8,2.06-10.51-12.73-61-9.59-95.81.39-4.37,6-41.1,5.7-46a95.69,95.69,0,0,0-2.91-17.51c-3.37-13.1-14.5-45-31.16-57.7,17.07,28.62-17.82,22.94-30.76,9.77a45.07,45.07,0,0,0-18.25-11.55C312.11,921.39,333.24,1000.44,333.17,1025.77Z"/><path class="cls-30" d="M358.28,986.18c25.3,16.09,50.51,9.38,49.44,5.71,4.23-3.43,4.26-2.56-8.8-18.91-24.71-31-53.48-30.75-53.48-30.75S330,948.79,358.28,986.18Z"/><path class="cls-15" d="M352.61,966.52c6.68,4.83,14.54,10.41,22.88,16.06,29.35,19.92,67.76,30.29,79.33,29.32,45.9-3.89,99.31-24.55,99.31-24.55l-5.71-10.46S516,978.71,460.18,981c-7.8.33-41.12-12.72-58.24-30.38-8.33-8.62-17.06-16.57-25.23-20.59-6.48-3.19-14.82-.45-22.5,4A19.4,19.4,0,0,0,352.61,966.52Z"/><path class="cls-15" d="M541.53,977.6s16.32-20.18,21.16-17,5.84,20.57-.16,24.44c-4.74,3.06-17.55,5.15-17.55,5.15Z"/><path class="cls-26" d="M347.62,963.87c6.71,4.79,14.61,10.31,23,15.9,19.06-12.93,25.92-27.62,27.24-35.4-8.38-8.55-18.14-14.6-26.39-17.15-6.91-2.13-17-3-22.32,1.38C340.06,936,336.21,955.71,347.62,963.87Z"/><path class="cls-25" d="M467.4,1536.56h9.33c3.13-.49,5.44-1.39,8.65-1.81,4.87-.64,7.12,1.35,7.56,1.81l.09.1H532.7c1-1.43,0-4.73-.9-7.16a5.63,5.63,0,0,0-3.71-3.39c-4.21-1.22-12.5-2.31-20.1-9.18-4.27-3.86-20.63-14.2-20.63-14.2l-.09,0c-.36,0-2.07.53-9.51,6.82-3.85,3.24-10.4-4.58-10.4-4.58a9.22,9.22,0,0,0-2.15,2.91,9.9,9.9,0,0,0-.86,6.09c.6,3.58-1.31,10.22-2.84,14.71-.92,2.73-1.7,4.66-1.7,4.66S459.36,1535.56,467.4,1536.56Z"/><path class="cls-28" d="M465.21,1507.86c2.23,1.57,6.93,4.67,10.05,5.07,4.22.56,12.1-10.2,12.1-10.2l-.09,0c-.36,0-2.07.53-9.51,6.82-3.85,3.24-10.4-4.58-10.4-4.58A9.22,9.22,0,0,0,465.21,1507.86Z"/><path class="cls-28" d="M467.4,1536.56h9.33c3.13-.49,5.44-1.39,8.65-1.81,4.87-.64,7.12,1.35,7.56,1.81l.09.1H532.7c1-1.43,0-4.73-.9-7.16-1.2-1.07-1.54,4.65-2.21,5.57s-32.36.33-34.19-1-7.32-3.66-15-1.83c-6.66,1.59-16.48-2.49-18.91-3.58-.92,2.73-1.7,4.66-1.7,4.66S459.36,1535.56,467.4,1536.56Z"/><path class="cls-28" d="M368.28,784.77s-13.73-18.64-35.11-15.4c-35.67,5.42-27.9,55.68-49.19,60.85s-25.89,21.25-25.89,21.25,26.75,42.62,63.57,10.38c19.61-17.16.87-78.23,44-72.09Z"/></g></g></g></svg>