<svg xmlns="http://www.w3.org/2000/svg" viewBox="0 0 3195.56 1563.4"><defs><style>.cls-1{fill:#fbebf9;}.cls-2{fill:#87407f;}.cls-3{fill:#76c4b9;}.cls-4{fill:#339984;}.cls-5{fill:#ffd30b;}.cls-6{fill:#ffa424;}.cls-7{fill:#fc8100;}.cls-8{fill:#a31453;}.cls-9{fill:#850c45;}.cls-10{fill:#ffb27b;}.cls-11{fill:#f99156;}.cls-12{fill:#aa5b9b;}.cls-13{fill:#005453;}.cls-14{fill:#e5f2fd;}.cls-15{fill:#f7cb36;}.cls-16{fill:#fff;}.cls-17{fill:#d2e9f9;}.cls-18{fill:#d89ad0;}.cls-19{fill:#f59a34;}</style></defs><g id="Layer_2" data-name="Layer 2"><g id="Layer_1-2" data-name="Layer 1"><path class="cls-1" d="M245.22,1559.47s-342.33-357.83-57.9-745.24C439.69,470.5,733.93,494,949.81,633.49c92,59.41,435.41,10.72,735.77-281C2005.34,42,2860.65,194.54,2712.25,837.2c-82.62,357.83,286.41,368,92.53,723Z"/><rect class="cls-2" y="1554.92" width="3195.56" height="8.48" rx="0.5"/><polygon class="cls-2" points="3010.01 26.82 2537.47 183.1 2632.33 262.16 2632.33 262.16 2223.44 690.2 1865.03 382.46 434.34 1554.73 446.94 1554.92 803.34 1554.92 1861.52 687.89 2239.37 1012.33 2812.51 412.33 2812.51 412.33 2914.91 497.67 3010.01 26.82"/><path class="cls-3" d="M1334.28,1269.7l-108.56-9.34s6.28-66.92-12.82-156.18c-14.09-65.94-42-144.06-96.53-216.42-93-123.38-369.11-192.4-369.11-192.4v-16l9.93-1.07a39.49,39.49,0,0,0-9.93-4.72V635.84a133.22,133.22,0,0,1,31.38,3.07c-6.46-1.61-20.26-4.78-31.38-5.64V613.42c400,10.7,530.47,252.31,571.35,439.3C1344.79,1172.41,1334.28,1269.7,1334.28,1269.7Z"/><path class="cls-4" d="M1809.35,1234.58l-475.07,35.12c-2.46-73.17-21.56-148.85-40-206.22S1257.91,967,1257.91,967C1115.79,655.62,747.26,613.42,747.26,613.42l409-167.51c197.59,14.87,336.22,109.77,433.18,228.93C1779.37,908.21,1809.35,1234.58,1809.35,1234.58Z"/><path class="cls-3" d="M1809.35,1234.58l-475.07,35.12-108.56-9.34s6.28-66.92-12.82-156.18c22.63-13.63,49.55-27.25,81.35-40.7q12.52-5.3,24.36-10.76c302.48-139.61,274.31-357.08,270.86-377.88C1779.37,908.21,1809.35,1234.58,1809.35,1234.58Z"/><path class="cls-3" d="M1772,1271.16,1348.61,1263l1.49-8.15c.23-1.23,22-125.37-28.79-266.51-29.74-82.68-78.22-155-144.1-215-82.53-75.14-192.82-131.07-327.82-166.23l-20.79-5.41,330.45-131.51,1.27,0c3.57-.08,88.68-1.37,198.09,50.37,64.12,30.33,123.16,72.71,175.47,126,65.27,66.43,120.17,150.06,163.18,248.55,3.4,7.57,83.82,188.12,79.57,296.53v.13Zm-406.78-22,393.5,7.61,3.84-65.88c1.68-43.3-11.3-107.14-37.54-184.61-19.94-58.86-40.63-105.13-40.83-105.59-42.27-96.79-96.08-178.86-160-244-51-52.05-108.62-93.48-171.13-123.15-67.82-32.19-126.95-43.4-161.19-47.3a109.6,109.6,0,0,0-53,7.06l-229,91.15c-11.95,4.75-11.34,21.83.9,25.77,111.37,35.86,204.09,87.17,276.22,152.93,67.59,61.63,117.31,136,147.77,221,27.07,75.56,33.58,145.7,34.27,191.24C1369.59,1210.73,1366.89,1236.75,1365.21,1249.2Z"/><path class="cls-3" d="M1544.18,784.69c0,69.75-40.86,111.89-110.61,111.89s-142-42.14-142-111.89S1330.23,673.23,1400,673.23,1544.18,714.94,1544.18,784.69Z"/><path class="cls-5" d="M2178.33,1497v41.67a15.9,15.9,0,0,1-2.75,9,16.18,16.18,0,0,1-7.54,6,14.75,14.75,0,0,1-2.94.83,15.52,15.52,0,0,1-2.83.26H1498.43a16.12,16.12,0,0,1-16-15.24c0-.28,0-.55,0-.83V1497c0-.28,0-.55,0-.83a16.11,16.11,0,0,1,16-15.23h663.84a16.46,16.46,0,0,1,2.83.25,15.45,15.45,0,0,1,2.94.83,16.18,16.18,0,0,1,7.54,6A15.93,15.93,0,0,1,2178.33,1497Z"/><path class="cls-6" d="M1852.35,1554.74H1496.71c-7.63,0-13.93-6.79-14.32-15.24,0-.28,0-.55,0-.83V1497c0-.28,0-.55,0-.83.39-8.45,6.69-15.23,14.32-15.23h312C1813.66,1502.66,1825.27,1532.71,1852.35,1554.74Z"/><rect class="cls-6" x="2090.01" y="1480.94" width="7.54" height="73.8"/><rect class="cls-6" x="2064.47" y="1480.94" width="7.55" height="73.8"/><rect class="cls-6" x="2033.84" y="1480.94" width="7.54" height="73.8"/><rect class="cls-6" x="1986.9" y="1480.94" width="7.54" height="73.8"/><rect class="cls-6" x="1937.26" y="1480.94" width="7.54" height="73.8"/><rect class="cls-6" x="1861.16" y="1480.94" width="7.54" height="73.8"/><rect class="cls-6" x="1789.9" y="1480.94" width="7.55" height="73.8"/><rect class="cls-6" x="1726.28" y="1480.94" width="7.54" height="73.8"/><rect class="cls-6" x="2114.32" y="1480.94" width="7.54" height="73.8"/><rect class="cls-6" x="2130.38" y="1480.94" width="7.54" height="73.8"/><rect class="cls-6" x="2145.89" y="1480.94" width="7.54" height="73.8"/><path class="cls-6" d="M2165.1,1481.19v73.29a15.52,15.52,0,0,1-2.83.26h-4.72v-73.8h4.72A16.46,16.46,0,0,1,2165.1,1481.19Z"/><path class="cls-6" d="M2175.58,1488v59.61a16.18,16.18,0,0,1-7.54,6V1482A16.18,16.18,0,0,1,2175.58,1488Z"/><path class="cls-5" d="M2107.35,1423.2v41.68a15.87,15.87,0,0,1-2.75,9,16.13,16.13,0,0,1-7.54,6,14.65,14.65,0,0,1-2.93.83,15.71,15.71,0,0,1-2.84.26H1427.46a16.11,16.11,0,0,1-16-15.24c0-.27,0-.55,0-.82V1423.2c0-.27,0-.55,0-.83a16.11,16.11,0,0,1,16-15.23h663.83c.43,0,.86,0,1.27,0a4.69,4.69,0,0,1,.54.06c.2,0,.4,0,.6.07l.43.08a14.63,14.63,0,0,1,2.93.82c.15,0,.28.11.42.17l.41.18.81.39.46.26.41.24q.39.22.75.48c.29.19.56.4.83.61l.62.5s0,0,0,0l.4.36a16.56,16.56,0,0,1,1.17,1.2c.11.13.22.25.32.38l.31.39c.2.26.41.54.59.81A15.93,15.93,0,0,1,2107.35,1423.2Z"/><path class="cls-6" d="M1781.38,1480.94H1425.74c-7.65,0-13.93-6.79-14.32-15.24,0-.27,0-.55,0-.82V1423.2c0-.27,0-.55,0-.83.39-8.45,6.67-15.23,14.32-15.23h312c.15.6.29,1.21.44,1.82C1743.34,1430.52,1755,1459.52,1781.38,1480.94Z"/><rect class="cls-6" x="2019.03" y="1407.14" width="7.54" height="73.8"/><rect class="cls-6" x="1993.49" y="1407.14" width="7.54" height="73.8"/><rect class="cls-6" x="1962.87" y="1407.14" width="7.54" height="73.8"/><rect class="cls-6" x="1915.92" y="1407.14" width="7.54" height="73.8"/><rect class="cls-6" x="1866.28" y="1407.14" width="7.54" height="73.8"/><rect class="cls-6" x="1790.18" y="1407.14" width="7.54" height="73.8"/><rect class="cls-6" x="1718.93" y="1407.14" width="7.54" height="73.8"/><rect class="cls-6" x="1655.3" y="1407.14" width="7.54" height="73.8"/><rect class="cls-6" x="2043.34" y="1407.14" width="7.55" height="73.8"/><rect class="cls-6" x="2059.4" y="1407.14" width="7.54" height="73.8"/><rect class="cls-6" x="2074.91" y="1407.14" width="7.54" height="73.8"/><path class="cls-6" d="M2094.12,1407.39v73.29a15.52,15.52,0,0,1-2.83.26h-4.71v-73.8h4.71A15.52,15.52,0,0,1,2094.12,1407.39Z"/><path class="cls-6" d="M2104.6,1414.23v59.61a16.18,16.18,0,0,1-7.54,6v-71.63A16.18,16.18,0,0,1,2104.6,1414.23Z"/><path class="cls-5" d="M2141.65,1351.22v41.68a15.87,15.87,0,0,1-2.75,9,16.12,16.12,0,0,1-7.54,6,14.56,14.56,0,0,1-2.94.83,15.52,15.52,0,0,1-2.83.26H1461.76a16,16,0,0,1-7.41-1.82,16.12,16.12,0,0,1-8.58-12.7q0-.36-.06-.72c0-.27,0-.55,0-.82v-41.68c0-.27,0-.55,0-.82a16.12,16.12,0,0,1,16-15.24h663.83a15.52,15.52,0,0,1,2.83.26,14.54,14.54,0,0,1,2.94.82,16.18,16.18,0,0,1,7.54,6A15.93,15.93,0,0,1,2141.65,1351.22Z"/><path class="cls-6" d="M1815.68,1409H1460a13,13,0,0,1-6.6-1.82,16.24,16.24,0,0,1-7.66-12.7q0-.36-.06-.72c0-.27,0-.55,0-.82v-41.68c0-.27,0-.55,0-.82.39-8.46,6.69-15.24,14.32-15.24h312c4.85,21.13,16,50.14,41.49,72C1814.21,1407.75,1814.94,1408.35,1815.68,1409Z"/><rect class="cls-6" x="2053.33" y="1335.16" width="7.54" height="73.8"/><rect class="cls-6" x="2027.79" y="1335.16" width="7.54" height="73.8"/><rect class="cls-6" x="1997.17" y="1335.16" width="7.54" height="73.8"/><rect class="cls-6" x="1950.22" y="1335.16" width="7.54" height="73.8"/><rect class="cls-6" x="1900.58" y="1335.16" width="7.54" height="73.8"/><rect class="cls-6" x="1824.48" y="1335.16" width="7.54" height="73.8"/><rect class="cls-6" x="1753.23" y="1335.16" width="7.54" height="73.8"/><rect class="cls-6" x="1689.6" y="1335.16" width="7.54" height="73.8"/><rect class="cls-6" x="2077.64" y="1335.16" width="7.54" height="73.8"/><rect class="cls-6" x="2093.7" y="1335.16" width="7.54" height="73.8"/><rect class="cls-6" x="2109.21" y="1335.16" width="7.54" height="73.8"/><path class="cls-6" d="M2128.42,1335.42v73.28a15.52,15.52,0,0,1-2.83.26h-4.71v-73.8h4.71A15.52,15.52,0,0,1,2128.42,1335.42Z"/><path class="cls-6" d="M2138.9,1342.25v59.61a16.18,16.18,0,0,1-7.54,6v-71.63A16.18,16.18,0,0,1,2138.9,1342.25Z"/><path class="cls-5" d="M2157.55,1277.42v41.68a15.93,15.93,0,0,1-2.75,9,16.24,16.24,0,0,1-7.54,6,14.63,14.63,0,0,1-2.93.82,15.71,15.71,0,0,1-2.84.26H1477.66a16.12,16.12,0,0,1-16.05-15.24c0-.27,0-.55,0-.82v-41.68c0-.27,0-.55,0-.82a16.12,16.12,0,0,1,14.15-15.12,14.8,14.8,0,0,1,1.9-.12h663.83a15.71,15.71,0,0,1,2.84.26,15.33,15.33,0,0,1,2.93.82,16.2,16.2,0,0,1,7.54,6A15.87,15.87,0,0,1,2157.55,1277.42Z"/><path class="cls-6" d="M1831.58,1335.16H1475.94c-7.64,0-13.94-6.78-14.33-15.24,0-.27,0-.55,0-.82v-41.68c0-.27,0-.55,0-.82.36-7.82,5.78-14.21,12.63-15.12a11.83,11.83,0,0,1,1.7-.12h312l0,.12C1792.93,1283.18,1804.54,1313.17,1831.58,1335.16Z"/><rect class="cls-6" x="2069.23" y="1261.36" width="7.55" height="73.8"/><rect class="cls-6" x="2043.69" y="1261.36" width="7.54" height="73.8"/><rect class="cls-6" x="2013.07" y="1261.36" width="7.54" height="73.8"/><rect class="cls-6" x="1966.12" y="1261.36" width="7.54" height="73.8"/><rect class="cls-6" x="1916.48" y="1261.36" width="7.54" height="73.8"/><rect class="cls-6" x="1840.38" y="1261.36" width="7.55" height="73.8"/><rect class="cls-6" x="1769.13" y="1261.36" width="7.54" height="73.8"/><rect class="cls-6" x="1705.5" y="1261.36" width="7.55" height="73.8"/><rect class="cls-6" x="2093.54" y="1261.36" width="7.54" height="73.8"/><rect class="cls-6" x="2109.6" y="1261.36" width="7.54" height="73.8"/><rect class="cls-6" x="2125.11" y="1261.36" width="7.55" height="73.8"/><path class="cls-6" d="M2144.33,1261.61v73.29a15.71,15.71,0,0,1-2.84.26h-4.71v-73.8h4.71A16.66,16.66,0,0,1,2144.33,1261.61Z"/><path class="cls-6" d="M2154.8,1268.45v59.61a16.18,16.18,0,0,1-7.54,6v-71.63A16.18,16.18,0,0,1,2154.8,1268.45Z"/><path class="cls-5" d="M2108.75,1203.74v41.68a15.87,15.87,0,0,1-2.75,9,16.18,16.18,0,0,1-7.54,6,14.75,14.75,0,0,1-2.94.83c-.31,0-.62.11-.93.14l-.53.05-.52,0-.85,0H1428.85a16.11,16.11,0,0,1-16-15.24c0-.27,0-.55,0-.82v-41.68c0-.28,0-.55,0-.83s0-.45,0-.67a16.16,16.16,0,0,1,12-14.06,4.37,4.37,0,0,1,.49-.12,15.9,15.9,0,0,1,3.47-.38h663.84c.49,0,1,0,1.44.06l.63.07h0l.75.13a14.73,14.73,0,0,1,2.94.82,16.18,16.18,0,0,1,7.54,6A15.93,15.93,0,0,1,2108.75,1203.74Z"/><path class="cls-6" d="M1782.77,1261.48H1427.13c-7.64,0-13.93-6.79-14.32-15.24,0-.27,0-.55,0-.82v-41.68c0-.28,0-.55,0-.83s0-.45,0-.67c.58-7,5.17-12.65,11.13-14.16a3.36,3.36,0,0,1,.61-.14,12.58,12.58,0,0,1,2.54-.26h312c0,.18.08.34.12.52,5,21.65,16.65,51.32,43.41,73.16Z"/><rect class="cls-6" x="2020.43" y="1187.68" width="7.54" height="73.8"/><rect class="cls-6" x="1994.89" y="1187.68" width="7.55" height="73.8"/><rect class="cls-6" x="1964.26" y="1187.68" width="7.55" height="73.8"/><rect class="cls-6" x="1917.32" y="1187.68" width="7.54" height="73.8"/><rect class="cls-6" x="1867.68" y="1187.68" width="7.54" height="73.8"/><rect class="cls-6" x="1791.58" y="1187.68" width="7.54" height="73.8"/><rect class="cls-6" x="1720.32" y="1187.68" width="7.54" height="73.8"/><rect class="cls-6" x="1656.7" y="1187.68" width="7.54" height="73.8"/><rect class="cls-6" x="2044.74" y="1187.68" width="7.55" height="73.8"/><rect class="cls-6" x="2060.8" y="1187.68" width="7.54" height="73.8"/><rect class="cls-6" x="2076.31" y="1187.68" width="7.54" height="73.8"/><path class="cls-6" d="M2095.52,1187.93v73.29a15.52,15.52,0,0,1-2.83.25H2088v-73.8h4.72A15.52,15.52,0,0,1,2095.52,1187.93Z"/><path class="cls-6" d="M2106,1194.77v59.61a16.18,16.18,0,0,1-7.54,6v-71.63A16.18,16.18,0,0,1,2106,1194.77Z"/><path class="cls-5" d="M2107.35,1130.46v41.68a15.93,15.93,0,0,1-2.75,9,16.13,16.13,0,0,1-7.54,6,14.77,14.77,0,0,1-2.29.69h0c-.22,0-.42.1-.63.13a15.71,15.71,0,0,1-2.84.26H1427.46a14.35,14.35,0,0,1-2.08-.14c-.27,0-.53-.07-.79-.12a16.11,16.11,0,0,1-13.17-15c0-.28,0-.55,0-.83v-41.68c0-.27,0-.55,0-.82a16.11,16.11,0,0,1,16-15.24h663.83c.43,0,.86,0,1.27.06l.54,0c.2,0,.4,0,.6.08l.43.07a14.65,14.65,0,0,1,2.93.83,3.07,3.07,0,0,1,.42.17l.41.17.81.39c.29.16.58.32.87.5s.51.31.75.48.56.4.83.61.42.33.62.51l0,0,.4.37a14.75,14.75,0,0,1,1.17,1.2c.11.12.22.24.32.37l.31.39c.2.27.41.54.59.82A15.87,15.87,0,0,1,2107.35,1130.46Z"/><path class="cls-6" d="M1781.38,1188.2H1425.74l-.85,0c-.31,0-.61-.06-.91-.1-6.84-.94-12.21-7.32-12.56-15.11,0-.28,0-.55,0-.83v-41.68c0-.27,0-.55,0-.82.39-8.45,6.67-15.24,14.32-15.24h312c.15.61.29,1.21.44,1.82,5.17,21.38,16.72,50.09,42.61,71.46Z"/><rect class="cls-6" x="2019.03" y="1114.41" width="7.54" height="73.8"/><rect class="cls-6" x="1993.49" y="1114.41" width="7.54" height="73.8"/><rect class="cls-6" x="1962.87" y="1114.41" width="7.54" height="73.8"/><rect class="cls-6" x="1915.92" y="1114.41" width="7.54" height="73.8"/><rect class="cls-6" x="1866.28" y="1114.41" width="7.54" height="73.8"/><rect class="cls-6" x="1790.18" y="1114.41" width="7.54" height="73.8"/><rect class="cls-6" x="1718.93" y="1114.41" width="7.54" height="73.8"/><rect class="cls-6" x="1655.3" y="1114.41" width="7.54" height="73.8"/><rect class="cls-6" x="2043.34" y="1114.41" width="7.55" height="73.8"/><rect class="cls-6" x="2059.4" y="1114.41" width="7.54" height="73.8"/><rect class="cls-6" x="2074.91" y="1114.41" width="7.54" height="73.8"/><path class="cls-6" d="M2094.12,1114.66v73.28a15.52,15.52,0,0,1-2.83.26h-4.71v-73.8h4.71A15.52,15.52,0,0,1,2094.12,1114.66Z"/><path class="cls-6" d="M2104.6,1121.5v59.61a16.18,16.18,0,0,1-7.54,6v-71.63A16.18,16.18,0,0,1,2104.6,1121.5Z"/><path class="cls-5" d="M2141.65,1058.48v41.68a15.93,15.93,0,0,1-2.75,9,16.18,16.18,0,0,1-7.54,6,14.54,14.54,0,0,1-2.94.82,15.52,15.52,0,0,1-2.83.26H1461.76a15.84,15.84,0,0,1-7.41-1.82,16.12,16.12,0,0,1-8.58-12.69q0-.36-.06-.72c0-.28,0-.55,0-.83v-41.68c0-.27,0-.55,0-.82a16.13,16.13,0,0,1,16-15.24h663.83a15.52,15.52,0,0,1,2.83.26,14.56,14.56,0,0,1,2.94.83,16.18,16.18,0,0,1,7.54,6A15.87,15.87,0,0,1,2141.65,1058.48Z"/><path class="cls-6" d="M1815.68,1116.22H1460a12.89,12.89,0,0,1-6.6-1.82,16.23,16.23,0,0,1-7.66-12.69q0-.36-.06-.72c0-.28,0-.55,0-.83v-41.68c0-.27,0-.55,0-.82.39-8.45,6.69-15.24,14.32-15.24h312c4.85,21.14,16,50.14,41.49,72C1814.21,1115,1814.94,1115.62,1815.68,1116.22Z"/><rect class="cls-6" x="2053.33" y="1042.43" width="7.54" height="73.8"/><rect class="cls-6" x="2027.79" y="1042.43" width="7.54" height="73.8"/><rect class="cls-6" x="1997.17" y="1042.43" width="7.54" height="73.8"/><rect class="cls-6" x="1950.22" y="1042.43" width="7.54" height="73.8"/><rect class="cls-6" x="1900.58" y="1042.43" width="7.54" height="73.8"/><rect class="cls-6" x="1824.48" y="1042.43" width="7.54" height="73.8"/><rect class="cls-6" x="1753.23" y="1042.43" width="7.54" height="73.8"/><rect class="cls-6" x="1689.6" y="1042.43" width="7.54" height="73.8"/><rect class="cls-6" x="2077.64" y="1042.43" width="7.54" height="73.8"/><rect class="cls-6" x="2093.7" y="1042.43" width="7.54" height="73.8"/><rect class="cls-6" x="2109.21" y="1042.43" width="7.54" height="73.8"/><path class="cls-6" d="M2128.42,1042.68V1116a15.52,15.52,0,0,1-2.83.25h-4.71v-73.8h4.71A15.52,15.52,0,0,1,2128.42,1042.68Z"/><path class="cls-6" d="M2138.9,1049.52v59.61a16.18,16.18,0,0,1-7.54,6v-71.63A16.18,16.18,0,0,1,2138.9,1049.52Z"/><path class="cls-5" d="M2195.9,984.69v41.67a15.93,15.93,0,0,1-2.75,9,16.18,16.18,0,0,1-7.54,6,15.78,15.78,0,0,1-5.77,1.08H1516a16.12,16.12,0,0,1-16-15.23c0-.28,0-.55,0-.83V984.69c0-.28,0-.55,0-.83a16.13,16.13,0,0,1,14.14-15.12,15.15,15.15,0,0,1,1.9-.12h663.84a16.09,16.09,0,0,1,5.77,1.09,16.18,16.18,0,0,1,7.54,6A15.9,15.9,0,0,1,2195.9,984.69Z"/><path class="cls-6" d="M1869.92,1042.42H1514.28c-7.63,0-13.93-6.78-14.32-15.23,0-.28,0-.55,0-.83V984.69c0-.28,0-.55,0-.83.36-7.81,5.77-14.21,12.63-15.12a11.8,11.8,0,0,1,1.69-.12h312l0,.12C1831.28,990.46,1842.89,1020.43,1869.92,1042.42Z"/><rect class="cls-6" x="2107.58" y="968.63" width="7.54" height="73.8"/><rect class="cls-6" x="2082.04" y="968.63" width="7.54" height="73.8"/><rect class="cls-6" x="2051.42" y="968.63" width="7.54" height="73.8"/><rect class="cls-6" x="2004.47" y="968.63" width="7.54" height="73.8"/><rect class="cls-6" x="1954.83" y="968.63" width="7.54" height="73.8"/><rect class="cls-6" x="1878.73" y="968.63" width="7.54" height="73.8"/><rect class="cls-6" x="1807.48" y="968.63" width="7.54" height="73.8"/><rect class="cls-6" x="1743.85" y="968.63" width="7.54" height="73.8"/><rect class="cls-6" x="2131.89" y="968.63" width="7.55" height="73.8"/><rect class="cls-6" x="2147.95" y="968.63" width="7.55" height="73.8"/><rect class="cls-6" x="2163.46" y="968.63" width="7.54" height="73.8"/><path class="cls-6" d="M2182.68,968.88v73.29a16.66,16.66,0,0,1-2.84.25h-4.71v-73.8h4.71A15.71,15.71,0,0,1,2182.68,968.88Z"/><path class="cls-6" d="M2193.15,975.72v59.61a16.13,16.13,0,0,1-7.54,6V969.71A16.13,16.13,0,0,1,2193.15,975.72Z"/><path class="cls-5" d="M2108.75,911v41.68a15.93,15.93,0,0,1-2.75,9,16.18,16.18,0,0,1-7.54,6,15.42,15.42,0,0,1-2.94.82c-.31.06-.62.11-.93.14s-.5.06-.75.08l-.37,0-.78,0H1428.85a16.11,16.11,0,0,1-16-15.24c0-.27,0-.55,0-.82V911c0-.27,0-.55,0-.82a16.11,16.11,0,0,1,16-15.24h663.84l.85,0a14.46,14.46,0,0,1,2,.23,14.75,14.75,0,0,1,2.94.83,12.47,12.47,0,0,1,1.39.62c.29.14.56.28.83.44l.09,0c.27.16.54.33.8.51l.14.09c.25.16.49.34.72.52a14.19,14.19,0,0,1,1.6,1.4c.16.15.31.31.45.47l.08.08a4,4,0,0,1,.27.31l.06.06c.16.19.32.38.47.59s.43.56.64.87A15.87,15.87,0,0,1,2108.75,911Z"/><path class="cls-6" d="M1782.77,968.74H1427.13c-7.64,0-13.93-6.78-14.32-15.24,0-.27,0-.55,0-.82V911c0-.27,0-.55,0-.82.39-8.46,6.68-15.24,14.32-15.24h312c.12.56.25,1.13.41,1.71,5.17,21.53,16.84,50.52,43.12,72Z"/><rect class="cls-6" x="2020.43" y="894.94" width="7.54" height="73.8"/><rect class="cls-6" x="1994.89" y="894.94" width="7.55" height="73.8"/><rect class="cls-6" x="1964.26" y="894.94" width="7.55" height="73.8"/><rect class="cls-6" x="1917.32" y="894.94" width="7.54" height="73.8"/><rect class="cls-6" x="1867.68" y="894.94" width="7.54" height="73.8"/><rect class="cls-6" x="1791.58" y="894.94" width="7.54" height="73.8"/><rect class="cls-6" x="1720.32" y="894.94" width="7.54" height="73.8"/><rect class="cls-6" x="1656.7" y="894.94" width="7.54" height="73.8"/><rect class="cls-6" x="2044.74" y="894.94" width="7.55" height="73.8"/><rect class="cls-6" x="2060.8" y="894.94" width="7.54" height="73.8"/><rect class="cls-6" x="2076.31" y="894.94" width="7.54" height="73.8"/><path class="cls-6" d="M2095.52,895.2v73.28a15.52,15.52,0,0,1-2.83.26H2088v-73.8h4.72A15.52,15.52,0,0,1,2095.52,895.2Z"/><path class="cls-6" d="M2106,902v59.61a16.18,16.18,0,0,1-7.54,6V896A16.12,16.12,0,0,1,2106,902Z"/><path class="cls-5" d="M2157.55,838.91v41.67a15.88,15.88,0,0,1-2.75,9,16.18,16.18,0,0,1-7.54,6,14.65,14.65,0,0,1-2.93.83,15.71,15.71,0,0,1-2.84.26H1477.66a15.9,15.9,0,0,1-7.18-1.71,16.09,16.09,0,0,1-8.82-12.87c0-.21,0-.44-.05-.66s0-.55,0-.83V838.91c0-.28,0-.55,0-.83A16.13,16.13,0,0,1,1475.76,823a14.81,14.81,0,0,1,1.9-.11h663.83a16.66,16.66,0,0,1,2.84.25,15.35,15.35,0,0,1,2.93.83,16.18,16.18,0,0,1,7.54,6A15.93,15.93,0,0,1,2157.55,838.91Z"/><path class="cls-6" d="M1831.58,896.65H1475.94a13,13,0,0,1-6.41-1.71,16.21,16.21,0,0,1-7.87-12.87c0-.21,0-.44-.05-.66s0-.55,0-.83V838.91c0-.28,0-.55,0-.83.36-7.81,5.78-14.2,12.63-15.12a11.84,11.84,0,0,1,1.7-.11h312l0,.11c4.86,21.16,16,50.17,41.6,72C1830.2,895.52,1830.88,896.09,1831.58,896.65Z"/><rect class="cls-6" x="2069.23" y="822.85" width="7.55" height="73.8"/><rect class="cls-6" x="2043.69" y="822.85" width="7.54" height="73.8"/><rect class="cls-6" x="2013.07" y="822.85" width="7.54" height="73.8"/><rect class="cls-6" x="1966.12" y="822.85" width="7.54" height="73.8"/><rect class="cls-6" x="1916.48" y="822.85" width="7.54" height="73.8"/><rect class="cls-6" x="1840.38" y="822.85" width="7.55" height="73.8"/><rect class="cls-6" x="1769.13" y="822.85" width="7.54" height="73.8"/><rect class="cls-6" x="1705.5" y="822.85" width="7.55" height="73.8"/><rect class="cls-6" x="2093.54" y="822.85" width="7.54" height="73.8"/><rect class="cls-6" x="2109.6" y="822.85" width="7.54" height="73.8"/><rect class="cls-6" x="2125.11" y="822.85" width="7.55" height="73.8"/><path class="cls-6" d="M2144.33,823.1v73.29a15.71,15.71,0,0,1-2.84.25h-4.71v-73.8h4.71A15.71,15.71,0,0,1,2144.33,823.1Z"/><path class="cls-6" d="M2154.8,829.94v59.61a16.18,16.18,0,0,1-7.54,6V823.93A16.18,16.18,0,0,1,2154.8,829.94Z"/><path class="cls-5" d="M2108.75,765.23V806.9a15.93,15.93,0,0,1-2.75,9,16.18,16.18,0,0,1-7.54,6,15.45,15.45,0,0,1-2.94.83l-.93.14-.53,0-.52,0-.85,0H1428.85a16.11,16.11,0,0,1-16-15.23c0-.28,0-.55,0-.83V765.23c0-.28,0-.56,0-.83a16.11,16.11,0,0,1,16-15.24h663.84a15.6,15.6,0,0,1,2.83.26,14.75,14.75,0,0,1,2.94.83,16.18,16.18,0,0,1,7.54,6A15.88,15.88,0,0,1,2108.75,765.23Z"/><path class="cls-6" d="M1782.77,823H1427.13c-7.64,0-13.93-6.78-14.32-15.23,0-.28,0-.55,0-.83V765.23c0-.28,0-.56,0-.83.39-8.45,6.68-15.24,14.32-15.24h312c5,21.69,16.55,51.67,43.53,73.69Z"/><rect class="cls-6" x="2020.43" y="749.16" width="7.54" height="73.8"/><rect class="cls-6" x="1994.89" y="749.16" width="7.55" height="73.8"/><rect class="cls-6" x="1964.26" y="749.16" width="7.55" height="73.8"/><rect class="cls-6" x="1917.32" y="749.16" width="7.54" height="73.8"/><rect class="cls-6" x="1867.68" y="749.16" width="7.54" height="73.8"/><rect class="cls-6" x="1791.58" y="749.16" width="7.54" height="73.8"/><rect class="cls-6" x="1720.32" y="749.16" width="7.54" height="73.8"/><rect class="cls-6" x="1656.7" y="749.16" width="7.55" height="73.8"/><rect class="cls-6" x="2044.74" y="749.16" width="7.55" height="73.8"/><rect class="cls-6" x="2060.8" y="749.16" width="7.54" height="73.8"/><rect class="cls-6" x="2076.31" y="749.16" width="7.54" height="73.8"/><path class="cls-6" d="M2095.52,749.42V822.7a15.52,15.52,0,0,1-2.83.26H2088v-73.8h4.72A15.52,15.52,0,0,1,2095.52,749.42Z"/><path class="cls-6" d="M2106,756.26v59.61a16.18,16.18,0,0,1-7.54,6V750.25A16.18,16.18,0,0,1,2106,756.26Z"/><circle class="cls-7" cx="1498.76" cy="1179.22" r="375.7" transform="translate(-394.86 1405.17) rotate(-45)"/><circle class="cls-5" cx="1465.98" cy="1179.22" r="375.7" transform="translate(-404.46 1381.99) rotate(-45)"/><path class="cls-6" d="M1466,1526a342.31,342.31,0,1,1,242-100.26A340.06,340.06,0,0,1,1466,1526Zm0-664.19a321.89,321.89,0,1,0,227.61,94.28A319.77,319.77,0,0,0,1466,861.78Z"/><path class="cls-6" d="M1513.11,1283a56.69,56.69,0,0,0-.81-19.88,41.25,41.25,0,0,0-8.4-16.5,78,78,0,0,0-16.81-14.83,205.29,205.29,0,0,0-26-14.58,538.8,538.8,0,0,1-48.09-26.43q-21.45-13.38-36-29.27a100.16,100.16,0,0,1-21.24-35.67q-6.72-19.77-3.66-45.62,2.67-22.39,12.8-39.92a95.14,95.14,0,0,1,26.52-29.47,118.85,118.85,0,0,1,38-18.09q21.6-6.12,47.42-5.46l6.69-56.42,45.42,5.38-6.79,57.21a142.26,142.26,0,0,1,42.74,18.18,107.37,107.37,0,0,1,47.84,68.64q5,22.11,1.87,48.48l-82-9.74q3.75-31.62-8.44-49t-35.74-20.15q-12.78-1.52-22.42,1a41.53,41.53,0,0,0-16.34,7.94,38.8,38.8,0,0,0-10.54,13.6,57,57,0,0,0-5,17.85,52.08,52.08,0,0,0,.74,18,38.72,38.72,0,0,0,8.05,15.8,78.43,78.43,0,0,0,16.95,14.84,264.32,264.32,0,0,0,27.07,15.64q26.31,13.54,47.59,27a172.14,172.14,0,0,1,35.79,29.51,101.66,101.66,0,0,1,21.22,35.8q6.72,19.79,3.68,45.36-2.75,23.19-13,40.69a93.86,93.86,0,0,1-26.63,29.19,114.7,114.7,0,0,1-38.19,17.4,171.19,171.19,0,0,1-47.65,5l-6.23,52.46-45.12-5.36,6.19-52.2a191.53,191.53,0,0,1-44.33-15.68,121.53,121.53,0,0,1-36.32-27.44q-15.27-16.9-22.79-40.8t-3.77-55.52l82,9.73q-2.22,18.72,1.54,31.86t11.67,21.71a51.37,51.37,0,0,0,18.76,12.92,87.7,87.7,0,0,0,22.49,5.74,73.3,73.3,0,0,0,23.82-.65,48.67,48.67,0,0,0,18-7.49,39,39,0,0,0,11.92-13.15A47.39,47.39,0,0,0,1513.11,1283Z"/><path class="cls-3" d="M2587.73,1300.9s-40.76-47.55-2.52-77.75c0,0,27.94-16.92,50.72-15.54,0,0-32.28,54.12-21.84,59.5s31.62-62.9,31.62-62.9,63.57-6.16,84,3.67c0,0-54.35,44.47-42.9,47.12s70.15-41,70.15-41,59.16,10.06,56,46.16-23.54,47.24-32.5,46.28-61.38-21-62.52-13.63,30.41,31.34,52.5,32.46c0,0-41.71,46-69.43,32.73s-30.1-34.33-47.38-42.22-32-7.87-24.9.18,38.42,15.87,48.3,33.35,18.75,29.27-9.93,25-75.31-25.3-77.36-49.34Z"/><path class="cls-4" d="M2783.92,1261.13s-160.71-6.19-196.19,39.77c0,0-7.85,23.51-32,44.91l-3.76,10.26s27.85-29.36,37.81-31.14C2589.77,1324.93,2574.19,1268,2783.92,1261.13Z"/><path class="cls-4" d="M2555.72,1345.81s-34.49,25.51-36.88,71.09l6.26.56s11-47.13,30.92-65.56S2555.72,1345.81,2555.72,1345.81Z"/><path class="cls-4" d="M2445.22,1241.1s64.84-36.31,34.58-85.58c0,0-24.2-30.26-50.14-38,0,0,13.83,73.48,0,75.21s-9.51-83-9.51-83-68.29-32.85-95.09-30.26c0,0,42.36,71.75,28.53,70s-61.38-74.35-61.38-74.35-70-13-81.26,28.53,6.92,62.24,17.29,64.83,76.94,1.73,75.21,10.38-46.68,22.47-71.75,14.69c0,0,27.66,68.3,64,64.84s47.55-25.93,70-27.66,38.9,4.32,27.66,10.37-49.27,2-67.42,17.42-32.86,24.94.86,31.85S2421,1293,2433.12,1267Z"/><path class="cls-3" d="M2242.94,1116.62s181.53,58.78,202.28,124.48c0,0-.86,29.39,17.29,63.11v13s-19-44.08-29.39-50.14C2433.12,1267,2473.75,1210,2242.94,1116.62Z"/><path class="cls-3" d="M2462.51,1304.21s28,42.51,12,94.26l-7.21-1.93s7-57-7.65-85.67S2462.51,1304.21,2462.51,1304.21Z"/><path class="cls-4" d="M2548.37,1191s-85.47-47.86-45.58-112.82c0,0,31.91-39.88,66.09-50.14,0,0-18.23,96.86,0,99.14s12.54-109.39,12.54-109.39,90-43.31,125.34-39.89c0,0-55.83,94.58-37.6,92.31s80.91-98,80.91-98,92.3-17.1,107.11,37.6-9.11,82.05-22.79,85.47-101.42,2.27-99.14,13.67,61.54,29.63,94.58,19.37c0,0-36.46,90-84.32,85.47s-62.67-34.19-92.3-36.47-51.28,5.7-36.47,13.68,65,2.61,88.88,23,43.31,32.88-1.13,42-124.21,3.42-140.17-30.77Z"/><path class="cls-3" d="M2815,1026.93s-239.3,77.49-266.65,164.1c0,0,1.14,38.74-22.79,83.18v17.1s25.07-58.12,38.74-66.1C2564.32,1225.21,2510.77,1150,2815,1026.93Z"/><path class="cls-3" d="M2525.58,1274.21s-36.9,56-15.87,124.26l9.5-2.55S2510,1320.78,2529.3,1283,2525.58,1274.21,2525.58,1274.21Z"/><path class="cls-8" d="M2545.49,1546.4A167.41,167.41,0,0,0,2712.9,1379H2378.08A167.41,167.41,0,0,0,2545.49,1546.4Z"/><path class="cls-9" d="M2586.69,1545.12A167.54,167.54,0,0,1,2398.48,1379h41.59A167.44,167.44,0,0,0,2586.69,1545.12Z"/><path class="cls-8" d="M2715.21,1554.92H2375.77a20.65,20.65,0,0,1,20.65-20.65h298.14a20.65,20.65,0,0,1,20.65,20.65Z"/><rect class="cls-8" x="2372.57" y="1378.99" width="344.14" height="5.14"/><path class="cls-10" d="M1074.5,223.62l0,10.16s-2.76,31.74,36.33,36.38,71.15,4,70.09-20.46c-3.52-19-9.83-48.41-10.09-64.11a109.82,109.82,0,0,1,1.39-19l-75.75-1.51-22.31,3.65Z"/><path class="cls-11" d="M1074.21,168.72l.29,54.9a63.92,63.92,0,0,0,27.3,6c34.82,0,57.32-25.53,69.08-44.06a109.82,109.82,0,0,1,1.39-19l-75.75-1.51Z"/><path class="cls-10" d="M1178.07,154.39c-8.79,47.3-69.82,45.75-96.19,42.78-7.42-.83-12.09-1.78-12.09-1.78-8.37-2.23-13-15.41-15.21-32.68-4.31-34.17,1.13-84.33,6.9-97.16,8.69-19.31,25.06-40.19,86.52-25.12S1189.35,93.79,1178.07,154.39Z"/><path class="cls-2" d="M1228,1554.77h-86.48a207.84,207.84,0,0,1,6.9-31,87.72,87.72,0,0,1,4.89-12.45c8.41-16.79,61.84-6.11,61.84-6.11s5,4.25,8.83,20.49A171.86,171.86,0,0,1,1228,1554.77Z"/><path class="cls-2" d="M966.67,1527.47c-.23,11.77-1.72,22.9-6,27.3H789.63c2.17-6.19,8.33-15.5,25.89-18.35,20-3.23,51.06-12.84,69.22-32a51.49,51.49,0,0,0,13.4-24.27c8.05-35.83,66.55,11,66.55,11A289.8,289.8,0,0,1,966.67,1527.47Z"/><path class="cls-12" d="M1080.45,1140.15c-2.38,13.12-3.89,23.88-4.29,31.6-5.44,106.07-89.29,348.6-104.29,354.26-23.21,8.75-59.75-9.86-78.87-16-7.92-2.53-13.27-10.52-11.51-18.63,41.53-190.9,56.79-465.78,62.34-628.52,2.81-82,16.88-138.6,16.88-138.6s204.51-54.57,205.72,14.46C1167.51,799.85,1098.69,1039.39,1080.45,1140.15Z"/><path class="cls-2" d="M1080.45,1140.15,943.83,862.91c2.81-82,16.88-138.6,16.88-138.6s204.51-54.57,205.72,14.46C1167.51,799.85,1098.69,1039.39,1080.45,1140.15Z"/><path class="cls-12" d="M1035,739l108.11,783.56s47.48,11.45,84.4,2.29c0,0,31.65-416.74,29-517.48s22.71-269.59-5.79-288.21S1035,739,1035,739Z"/><path class="cls-13" d="M1042.62,20.52s27.05-2.08,59-15.95c25.9-11.26,58.57,1.14,69.18,6.73a15.7,15.7,0,0,0-2.59-6.38s4.77,3.37,5.47,8.09c.49.37.71.61.58.7s5.4-1,8.87.57c0,0-2.43-.35-3.3,1.22a1.57,1.57,0,0,1-.39.43c40.4,19.52,44.13,83.36,31.13,98.13-15.64,17.78-34.39,57.81-34.39,57.81s-6.84-9.46-4-25.1-10.66-15.64-27.73-22.75-2.84-27-17.77-39.1-69.67-5-69-14.22C1037.36,63.29,1042.62,22.61,1042.62,20.52Z"/><path class="cls-14" d="M1190.19,263.31,1165.3,797.38s-207.75,3.4-201.82-43.62,74.88-474.1,74.88-474.1l151.83-16.35Z"/><path class="cls-15" d="M1264.36,566c-12.36,37.07,10.94,161.49,19.25,203.64,1.82,8.91,3,14.18,3,14.18-28.77,46.8-134.14,46.2-134.14,46.2-20.26-89.56-30.8-232.21-30.8-232.21l80.85-354.4,101.72,94s-7.7,57.35-17.23,115.7C1279.56,499.37,1271.05,546.38,1264.36,566Z"/><path class="cls-16" d="M1091.47,162.17s-2,6.11-17.37,3.88c0,0-12.93-1.87-12-8.67C1062.13,157.38,1075.12,153.54,1091.47,162.17Z"/><path class="cls-15" d="M974.7,270.92s0,.09,0,.23c-4.92,4.76-143.6,139.41-170.47,192.15-27.36,53.5,125,160.08,125,160.08s9.81,3.87,16.61,2.36c-7.18,59.15-15.25,113.73-10.47,137,8.64,42.11,47.58,56.25,47.58,53,0-1,10-153.53,22-232.31,26.51-174.84,58.13-338.93,58.13-338.93C1017.7,249.24,974.7,270.92,974.7,270.92ZM892.13,486.4a1.23,1.23,0,0,1-.2-.81c0-7.7,29.38-24.72,61.19-44.78l.61-.61.06,0c-.56,16.39-.5,32.47.47,47.43,1.81,27.77-.21,60.95-3.57,94.73C935.54,558.67,895.09,495.12,892.13,486.4Z"/><path class="cls-17" d="M1196.08,242.81c.25-5.1-23.89-12.14-23.89-12.14s-27.63,38.31-73.16,39c0,0,13,25.25,28.26,31.79C1127.29,301.43,1194.57,273.08,1196.08,242.81Z"/><path class="cls-18" d="M1035.09,630.61a50.42,50.42,0,0,0,16.06,32.58l14.48,13.35a8.5,8.5,0,0,0,12.42-1L1096,652.75a30.19,30.19,0,0,0,6.34-21.58c-1.68-17.25-4.8-50.47-7.31-82.54-2-26-3.67-51.22-3.79-66.57-.4-49,9.33-205.37,9.33-205.37l-11.75.61s-29.19,60.69-44.48,143.26a546.07,546.07,0,0,0-8.12,64.37S1030.08,574.23,1035.09,630.61Z"/><path class="cls-12" d="M1035.09,630.61a50.42,50.42,0,0,0,16.06,32.58l14.48,13.35a8.5,8.5,0,0,0,12.42-1L1096,652.75a30.19,30.19,0,0,0,6.34-21.58c-1.68-17.25-4.8-50.47-7.31-82.54-32.48-36.49-45.64-86.92-50.69-128.07a546.07,546.07,0,0,0-8.12,64.37S1030.08,574.23,1035.09,630.61Z"/><path class="cls-17" d="M1099,268.75s-24.12-14.3-24.2-29.8c0,0-15.58-1.95-22.38,5.61,0,0-5.72,26.56,1.87,42C1054.32,286.55,1089.05,281.26,1099,268.75Z"/><path class="cls-12" d="M1115.4,266.45l-32.7-7.84s-4.27.37-4.16,5.7,9.21,20.89,13.24,22.14S1123.14,277.23,1115.4,266.45Z"/><path class="cls-14" d="M1192.27,240.18c.25-5.1-16.09-15.6-16.09-15.6s-31.62,37-77.15,37.63c0,0,13,25.25,28.26,31.78C1127.29,294,1190.76,270.45,1192.27,240.18Z"/><path class="cls-14" d="M1099,262.21s-24.39-12.93-24.48-28.43c0,0-14.72,6.47-21.52,14,0,0-6.3,16.76,1.29,32.19C1054.32,280,1089.05,274.71,1099,262.21Z"/><path class="cls-10" d="M919.5,632.05c0-13.61,12-24.54,25.43-22.5a13.92,13.92,0,0,1,9.44,5.22c9.26,12.33,18.07,48.2,1.66,49.88-6.68.68-15.26-4-21.87-9s-14.66-13.09-14.66-21.53Z"/><path class="cls-19" d="M1283.61,769.68c-29.79-31-81.26-92-79.43-142,2.43-70.11,82.87-174.46,82.87-174.46-7.49,46.2-16,93.21-22.69,112.87C1252,603.11,1275.3,727.53,1283.61,769.68Z"/><path class="cls-10" d="M1282.67,647.73s-21.41,10.71-34.41,5.35-28.3-9.37-42.82,7.17-17.59,28-14.54,34.13,36.94,3.82,42.56,0,14.51-13.24,20.15-11.6c15.56,4.53,28.67-7.35,36-16.8C1294,660.28,1282.1,657.51,1282.67,647.73Z"/><path class="cls-15" d="M1202.56,243.45s85.28,9.44,105.4,46.58,124.7,187.66,121.28,250.21-142.67,132.7-142.67,132.7-30.85-13-31.31-27.05,96.27-97.82,90.41-113.46S1233.29,393.1,1223,352.31,1202.56,243.45,1202.56,243.45Z"/><path class="cls-19" d="M953.73,440.2l-.61.61c-31.81,20.06-61.19,37.08-61.19,44.78C887.67,472,929,415.28,942.38,403.73,956,392,953.73,440.2,953.73,440.2Z"/><path class="cls-19" d="M1176.18,224.58s-64.75,271.19-54.44,373.34c0,0,23.8-109.16,81.09-198.58,0,0-20.91-18.39-19.77-25.17,0,0,15.52-4.6,30.58-1.5,0,0-1.67-116.9-11.06-129.24S1176.18,224.58,1176.18,224.58Z"/><path class="cls-19" d="M1074.55,233.78c.88.41-64.16,265-69.63,349.68,0,0,6.49-151.13,5.85-194.68,0,0,26.89-14.24,26.89-19.23S1009,351,1009,351s18.17-93.06,28.08-103.32S1074.55,233.78,1074.55,233.78Z"/><path class="cls-3" d="M1823.62,749.22l177.31-.2a42.08,42.08,0,0,0,41.9-42l-.09-76.83a42.07,42.07,0,0,0-42-41.91l-177.31.21a42.06,42.06,0,0,0-41.9,42l.09,76.84A42.07,42.07,0,0,0,1823.62,749.22Z"/><path class="cls-3" d="M2013.78,608.29h0a42.26,42.26,0,0,0-32.39-21h-.05a39.89,39.89,0,0,0-4.12-.2l-35.3,0,0-16.59A13.91,13.91,0,0,0,1928,556.66h-9.21l-37.07.05H1875a13.9,13.9,0,0,0-13.87,13.91l0,16.58-60.94.07a42.24,42.24,0,0,0-42.07,42.16l.1,77.73a42.22,42.22,0,0,0,42.16,42.05l177-.19a41.31,41.31,0,0,0,9.09-1h0a41.43,41.43,0,0,0,13-5.36,42.21,42.21,0,0,0,19.9-35.79l-.09-77.73A41.75,41.75,0,0,0,2013.78,608.29Zm-143.94-37.67a5.25,5.25,0,0,1,5.19-5.2h7.87l29.18,0H1928a5.19,5.19,0,0,1,5.2,5.17l0,16.58-63.33.07Z"/></g></g></svg>