<svg xmlns="http://www.w3.org/2000/svg" viewBox="0 0 2470.11 1371.81"><defs><style>.cls-1{fill:#f8e8f3;}.cls-2{opacity:0.5;}.cls-3{fill:#efd4f0;}.cls-4{fill:#d09ece;}.cls-5{fill:#fff;}.cls-6{fill:#f0ca56;}.cls-7{fill:#505cb3;}.cls-8{fill:#8d9ded;}.cls-9{fill:#7f457c;}.cls-10{fill:#562850;}.cls-11{fill:#e89c4b;}.cls-12{fill:#e0b4e2;}.cls-13{fill:#a0609a;}.cls-14{fill:#f3b484;}.cls-15{fill:#972753;}.cls-16{fill:#7a1d44;}.cls-17{fill:#439782;}.cls-18{fill:#2c6a6c;}.cls-19{fill:#e19a69;}.cls-20{fill:#225654;}.cls-21{fill:#e19967;}.cls-22{fill:#87417f;}.cls-23{fill:#f7ebf7;}.cls-24{fill:#f3ecf7;}.cls-25{fill:#efa775;}.cls-26{fill:#d7b7f2;}</style></defs><g id="Layer_2" data-name="Layer 2"><g id="_лой_1" data-name="‘лой_1"><path class="cls-1" d="M2360.24,1368.44c-133.63,0-2139.89.48-2141-3L219,1365a2.37,2.37,0,0,1-.19-.64c-.75-1.75-386.33-157.06-132.16-504.46,133.2-182.07-104.6-460.82,178.53-706.78,443.67-385.44,867.07,89.31,1046.54,0C1462.61,78,1705-29.54,1951.1,66.93c67.61,26.5,214,159.45,92.44,383-60.75,111.72,208.83,124.69,307.45,243.4C2565.74,951.86,2440.16,1368.44,2360.24,1368.44Z"/><g class="cls-2"><path class="cls-3" d="M1611.53,565.09S1585.76,361,1657.82,217.42c9.57-19.08,37.9-15.52,42.63,5.31.08.34.15.69.23,1.05C1708.18,259.46,1631.67,436.93,1611.53,565.09Z"/></g><g class="cls-2"><path class="cls-3" d="M1613.33,624.9S1652.75,352,1798.27,199.31c8.87-9.31,23.75-10.44,33.38-1.92,6.27,5.55,10.95,15.5,9.86,33.12C1838.6,277.51,1682.41,472.24,1613.33,624.9Z"/></g><rect class="cls-4" x="295.68" y="306.51" width="113.85" height="390.87" rx="13.76" transform="translate(705.2 1003.89) rotate(180)"/><path class="cls-3" d="M379.28,613.08a26.68,26.68,0,1,0-26.68,26.68A26.67,26.67,0,0,0,379.28,613.08Z"/><path class="cls-5" d="M352.6,642.74a29.51,29.51,0,1,1,29.51-29.51A29.55,29.55,0,0,1,352.6,642.74Zm0-53.36a23.86,23.86,0,1,0,23.86,23.85A23.88,23.88,0,0,0,352.6,589.38Z"/><rect class="cls-3" x="319.25" y="324.4" width="66.67" height="219.71" rx="5.08" transform="translate(705.17 868.51) rotate(180)"/><rect class="cls-6" x="327.06" y="332.35" width="49.69" height="8.81" rx="4.05" transform="translate(703.81 673.51) rotate(180)"/><path class="cls-4" d="M361.1,472.76v45.29a2.21,2.21,0,0,0,2.2,2.2h0a2.21,2.21,0,0,0,2.21-2.2V472.76a2.21,2.21,0,0,0-2.21-2.2h0A2.21,2.21,0,0,0,361.1,472.76Z"/><path class="cls-4" d="M361.1,410.46v45.28a2.21,2.21,0,0,0,2.2,2.21h0a2.21,2.21,0,0,0,2.21-2.21V410.46a2.2,2.2,0,0,0-2.21-2.2h0A2.2,2.2,0,0,0,361.1,410.46Z"/><path class="cls-4" d="M335.84,472.76v45.29a2.2,2.2,0,0,0,2.2,2.2h0a2.2,2.2,0,0,0,2.2-2.2V472.76a2.2,2.2,0,0,0-2.2-2.2h0A2.2,2.2,0,0,0,335.84,472.76Z"/><path class="cls-4" d="M335.84,410.46v45.28A2.2,2.2,0,0,0,338,458h0a2.2,2.2,0,0,0,2.2-2.21V410.46a2.19,2.19,0,0,0-2.2-2.2h0A2.19,2.19,0,0,0,335.84,410.46Z"/><path class="cls-4" d="M349,460v58.07a2.2,2.2,0,0,0,2.21,2.2h0a2.2,2.2,0,0,0,2.2-2.2V460a2.21,2.21,0,0,0-2.2-2.2h0A2.21,2.21,0,0,0,349,460Z"/><path class="cls-4" d="M349,381.65v58.07a2.2,2.2,0,0,0,2.21,2.2h0a2.2,2.2,0,0,0,2.2-2.2V381.65a2.21,2.21,0,0,0-2.2-2.2h0A2.21,2.21,0,0,0,349,381.65Z"/><rect class="cls-4" x="437.66" y="306.51" width="113.85" height="390.87" rx="13.76" transform="translate(989.16 1003.89) rotate(180)"/><path class="cls-3" d="M521.26,613.08a26.68,26.68,0,1,0-26.68,26.68A26.67,26.67,0,0,0,521.26,613.08Z"/><path class="cls-5" d="M494.58,642.74a29.51,29.51,0,1,1,29.51-29.51A29.55,29.55,0,0,1,494.58,642.74Zm0-53.36a23.86,23.86,0,1,0,23.86,23.85A23.88,23.88,0,0,0,494.58,589.38Z"/><rect class="cls-3" x="461.23" y="324.4" width="66.67" height="219.71" rx="5.08" transform="translate(989.13 868.51) rotate(180)"/><rect class="cls-6" x="469.04" y="332.35" width="49.69" height="8.81" rx="4.05" transform="translate(987.77 673.51) rotate(180)"/><path class="cls-4" d="M503.08,472.76v45.29a2.21,2.21,0,0,0,2.21,2.2h0a2.21,2.21,0,0,0,2.2-2.2V472.76a2.21,2.21,0,0,0-2.2-2.2h0A2.21,2.21,0,0,0,503.08,472.76Z"/><path class="cls-4" d="M503.08,410.46v45.28a2.21,2.21,0,0,0,2.21,2.21h0a2.21,2.21,0,0,0,2.2-2.21V410.46a2.2,2.2,0,0,0-2.2-2.2h0A2.2,2.2,0,0,0,503.08,410.46Z"/><path class="cls-4" d="M477.82,472.76v45.29a2.2,2.2,0,0,0,2.2,2.2h0a2.2,2.2,0,0,0,2.2-2.2V472.76a2.2,2.2,0,0,0-2.2-2.2h0A2.2,2.2,0,0,0,477.82,472.76Z"/><path class="cls-4" d="M477.82,410.46v45.28A2.2,2.2,0,0,0,480,458h0a2.2,2.2,0,0,0,2.2-2.21V410.46a2.19,2.19,0,0,0-2.2-2.2h0A2.19,2.19,0,0,0,477.82,410.46Z"/><path class="cls-4" d="M491,460v58.07a2.2,2.2,0,0,0,2.21,2.2h0a2.2,2.2,0,0,0,2.2-2.2V460a2.21,2.21,0,0,0-2.2-2.2h0A2.21,2.21,0,0,0,491,460Z"/><path class="cls-4" d="M491,381.65v58.07a2.2,2.2,0,0,0,2.21,2.2h0a2.2,2.2,0,0,0,2.2-2.2V381.65a2.21,2.21,0,0,0-2.2-2.2h0A2.21,2.21,0,0,0,491,381.65Z"/><rect class="cls-4" x="582.35" y="306.51" width="113.85" height="390.87" rx="13.76" transform="translate(1278.54 1003.89) rotate(180)"/><path class="cls-3" d="M666,613.08a26.69,26.69,0,1,0-26.69,26.68A26.68,26.68,0,0,0,666,613.08Z"/><path class="cls-5" d="M639.27,642.74a29.51,29.51,0,1,1,29.51-29.51A29.55,29.55,0,0,1,639.27,642.74Zm0-53.36a23.86,23.86,0,1,0,23.86,23.85A23.89,23.89,0,0,0,639.27,589.38Z"/><rect class="cls-3" x="605.92" y="324.4" width="66.67" height="219.71" rx="5.08" transform="translate(1278.51 868.51) rotate(180)"/><rect class="cls-6" x="613.74" y="332.35" width="49.69" height="8.81" rx="4.05" transform="translate(1277.16 673.51) rotate(180)"/><path class="cls-4" d="M647.78,472.76v45.29a2.2,2.2,0,0,0,2.2,2.2h0a2.21,2.21,0,0,0,2.2-2.2V472.76a2.21,2.21,0,0,0-2.2-2.2h0A2.2,2.2,0,0,0,647.78,472.76Z"/><path class="cls-4" d="M647.78,410.46v45.28A2.2,2.2,0,0,0,650,458h0a2.21,2.21,0,0,0,2.2-2.21V410.46a2.2,2.2,0,0,0-2.2-2.2h0A2.19,2.19,0,0,0,647.78,410.46Z"/><path class="cls-4" d="M622.51,472.76v45.29a2.21,2.21,0,0,0,2.2,2.2h0a2.21,2.21,0,0,0,2.21-2.2V472.76a2.21,2.21,0,0,0-2.21-2.2h0A2.21,2.21,0,0,0,622.51,472.76Z"/><path class="cls-4" d="M622.51,410.46v45.28a2.21,2.21,0,0,0,2.2,2.21h0a2.21,2.21,0,0,0,2.21-2.21V410.46a2.2,2.2,0,0,0-2.21-2.2h0A2.2,2.2,0,0,0,622.51,410.46Z"/><path class="cls-4" d="M635.66,460v58.07a2.19,2.19,0,0,0,2.2,2.2h0a2.19,2.19,0,0,0,2.2-2.2V460a2.2,2.2,0,0,0-2.2-2.2h0A2.2,2.2,0,0,0,635.66,460Z"/><path class="cls-4" d="M635.66,381.65v58.07a2.19,2.19,0,0,0,2.2,2.2h0a2.19,2.19,0,0,0,2.2-2.2V381.65a2.2,2.2,0,0,0-2.2-2.2h0A2.2,2.2,0,0,0,635.66,381.65Z"/><path class="cls-4" d="M745.11,306.51h86.34a13.75,13.75,0,0,1,13.75,13.75V683.63a13.75,13.75,0,0,1-13.75,13.75H745.11a13.76,13.76,0,0,1-13.76-13.76V320.27A13.76,13.76,0,0,1,745.11,306.51Z" transform="translate(1576.56 1003.89) rotate(180)"/><rect class="cls-3" x="754.93" y="324.4" width="66.67" height="219.71" rx="5.08" transform="translate(1576.53 868.51) rotate(180)"/><rect class="cls-6" x="762.74" y="332.35" width="49.69" height="8.81" rx="4.05" transform="translate(1575.18 673.51) rotate(180)"/><rect class="cls-4" x="875.16" y="306.51" width="113.85" height="390.87" rx="13.76" transform="translate(1864.16 1003.89) rotate(180)"/><rect class="cls-4" x="898.73" y="324.4" width="66.67" height="219.71" rx="5.08" transform="translate(1864.13 868.51) rotate(180)"/><rect class="cls-4" x="906.54" y="332.35" width="49.69" height="8.81" rx="4.05" transform="translate(1862.78 673.51) rotate(180)"/><path class="cls-4" d="M309.43,748.62h86.34a13.76,13.76,0,0,1,13.76,13.76v363.36a13.76,13.76,0,0,1-13.76,13.76H309.43a13.75,13.75,0,0,1-13.75-13.75V762.38A13.76,13.76,0,0,1,309.43,748.62Z" transform="translate(705.2 1888.11) rotate(180)"/><circle class="cls-3" cx="352.6" cy="1055.19" r="26.68"/><path class="cls-5" d="M352.6,1084.85a29.51,29.51,0,1,1,29.51-29.51A29.55,29.55,0,0,1,352.6,1084.85Zm0-53.37a23.86,23.86,0,1,0,23.86,23.86A23.89,23.89,0,0,0,352.6,1031.48Z"/><rect class="cls-3" x="319.25" y="766.51" width="66.67" height="219.71" rx="5.08" transform="translate(705.17 1752.72) rotate(180)"/><rect class="cls-6" x="327.06" y="774.46" width="49.69" height="8.81" rx="4.05" transform="translate(703.81 1557.72) rotate(180)"/><path class="cls-4" d="M361.1,914.87v45.28a2.21,2.21,0,0,0,2.2,2.21h0a2.21,2.21,0,0,0,2.21-2.21V914.87a2.2,2.2,0,0,0-2.21-2.2h0A2.2,2.2,0,0,0,361.1,914.87Z"/><path class="cls-4" d="M361.1,852.57v45.28a2.2,2.2,0,0,0,2.2,2.2h0a2.2,2.2,0,0,0,2.21-2.2V852.57a2.21,2.21,0,0,0-2.21-2.21h0A2.21,2.21,0,0,0,361.1,852.57Z"/><path class="cls-4" d="M335.84,914.87v45.28a2.2,2.2,0,0,0,2.2,2.21h0a2.2,2.2,0,0,0,2.2-2.21V914.87a2.19,2.19,0,0,0-2.2-2.2h0A2.19,2.19,0,0,0,335.84,914.87Z"/><path class="cls-4" d="M335.84,852.57v45.28a2.19,2.19,0,0,0,2.2,2.2h0a2.19,2.19,0,0,0,2.2-2.2V852.57a2.2,2.2,0,0,0-2.2-2.21h0A2.2,2.2,0,0,0,335.84,852.57Z"/><path class="cls-4" d="M349,902.09v58.06a2.21,2.21,0,0,0,2.21,2.21h0a2.21,2.21,0,0,0,2.2-2.21V902.09a2.2,2.2,0,0,0-2.2-2.2h0A2.2,2.2,0,0,0,349,902.09Z"/><path class="cls-4" d="M349,823.76v58.07a2.21,2.21,0,0,0,2.21,2.2h0a2.21,2.21,0,0,0,2.2-2.2V823.76a2.2,2.2,0,0,0-2.2-2.2h0A2.2,2.2,0,0,0,349,823.76Z"/><path class="cls-4" d="M451.41,748.62h86.34a13.76,13.76,0,0,1,13.76,13.76v363.36a13.75,13.75,0,0,1-13.75,13.75H451.41a13.76,13.76,0,0,1-13.76-13.76V762.38A13.76,13.76,0,0,1,451.41,748.62Z" transform="translate(989.16 1888.11) rotate(180)"/><path class="cls-7" d="M521.26,1055.19a26.68,26.68,0,1,0-26.68,26.68A26.68,26.68,0,0,0,521.26,1055.19Z"/><path class="cls-5" d="M494.58,1084.85a29.51,29.51,0,1,1,29.51-29.51A29.55,29.55,0,0,1,494.58,1084.85Zm0-53.37a23.86,23.86,0,1,0,23.86,23.86A23.89,23.89,0,0,0,494.58,1031.48Z"/><rect class="cls-3" x="461.23" y="766.51" width="66.67" height="219.71" rx="5.08" transform="translate(989.13 1752.72) rotate(180)"/><rect class="cls-6" x="469.04" y="774.46" width="49.69" height="8.81" rx="4.05" transform="translate(987.77 1557.72) rotate(180)"/><path class="cls-4" d="M503.08,914.87v45.28a2.21,2.21,0,0,0,2.21,2.21h0a2.21,2.21,0,0,0,2.2-2.21V914.87a2.2,2.2,0,0,0-2.2-2.2h0A2.2,2.2,0,0,0,503.08,914.87Z"/><path class="cls-4" d="M503.08,852.57v45.28a2.2,2.2,0,0,0,2.21,2.2h0a2.2,2.2,0,0,0,2.2-2.2V852.57a2.21,2.21,0,0,0-2.2-2.21h0A2.21,2.21,0,0,0,503.08,852.57Z"/><path class="cls-4" d="M477.82,914.87v45.28a2.2,2.2,0,0,0,2.2,2.21h0a2.2,2.2,0,0,0,2.2-2.21V914.87a2.19,2.19,0,0,0-2.2-2.2h0A2.19,2.19,0,0,0,477.82,914.87Z"/><path class="cls-4" d="M477.82,852.57v45.28a2.19,2.19,0,0,0,2.2,2.2h0a2.19,2.19,0,0,0,2.2-2.2V852.57a2.2,2.2,0,0,0-2.2-2.21h0A2.2,2.2,0,0,0,477.82,852.57Z"/><path class="cls-4" d="M491,902.09v58.06a2.21,2.21,0,0,0,2.21,2.21h0a2.21,2.21,0,0,0,2.2-2.21V902.09a2.2,2.2,0,0,0-2.2-2.2h0A2.2,2.2,0,0,0,491,902.09Z"/><path class="cls-4" d="M491,823.76v58.07a2.21,2.21,0,0,0,2.21,2.2h0a2.21,2.21,0,0,0,2.2-2.2V823.76a2.2,2.2,0,0,0-2.2-2.2h0A2.2,2.2,0,0,0,491,823.76Z"/><path class="cls-4" d="M596.1,748.62h86.34a13.76,13.76,0,0,1,13.76,13.76v363.36a13.75,13.75,0,0,1-13.75,13.75H596.1a13.76,13.76,0,0,1-13.76-13.76V762.38A13.76,13.76,0,0,1,596.1,748.62Z" transform="translate(1278.54 1888.11) rotate(180)"/><path class="cls-4" d="M745.11,748.62h86.34a13.75,13.75,0,0,1,13.75,13.75v363.36a13.75,13.75,0,0,1-13.75,13.75H745.11a13.76,13.76,0,0,1-13.76-13.76V762.38A13.76,13.76,0,0,1,745.11,748.62Z" transform="translate(1576.56 1888.11) rotate(180)"/><path class="cls-8" d="M888.91,748.62h86.33A13.76,13.76,0,0,1,989,762.38v363.36a13.75,13.75,0,0,1-13.75,13.75H888.91a13.76,13.76,0,0,1-13.76-13.76V762.38A13.76,13.76,0,0,1,888.91,748.62Z" transform="translate(1864.16 1888.11) rotate(180)"/><path class="cls-3" d="M265.22,1368.46h0a13.69,13.69,0,0,1-13.69-13.69V266.06a13.69,13.69,0,0,1,13.69-13.69h0a13.69,13.69,0,0,1,13.69,13.69V1354.77A13.69,13.69,0,0,1,265.22,1368.46Z"/><rect class="cls-3" x="251.53" y="697.43" width="790.84" height="10.99" transform="translate(1293.91 1405.86) rotate(180)"/><rect class="cls-3" x="251.53" y="1139.31" width="839.94" height="10.99" transform="translate(1343.01 2289.62) rotate(180)"/><path class="cls-3" d="M1932.23,629.48S1857,694.75,1870.05,708s78.54-78.76,78.54-78.76,98.45,22.16,124.28,47c0,0-103.54,39.88-87.67,49.51s125.53-26.87,125.53-26.87,83.82,44.36,61.25,97-58.68,59.26-71.65,53.39-81.75-61.8-87.09-51.35S2043.39,860,2076,872.56c0,0-85.34,48.42-120.38,14.8s-28.19-66.39-50.22-86.77-44.19-27.65-37.46-12,49.8,42.8,56,73.92,13.67,53.2-27.24,32.54-100.51-75.19-91.7-112.27c.39-1.61.75-3.16,1.1-4.63a18.08,18.08,0,0,0-1.1,4.63c-9.49-1.35-33.53,9-51.26,17.5-2.83,1.6-6.94,3.66-12.71,6.29h0c-2.51,1.28-4.54,2.34-6,3.08-37,21.21-72.87,80-72.87,80l-9.12-3.93c26.12-67.22,90.5-88.45,90.5-88.45,46.82-20.19,70.22-51.59,70.22-51.59s-37.66-91.5,34.66-117.92C1848.45,627.74,1898.73,616.17,1932.23,629.48Z"/><rect class="cls-9" x="2204.58" y="958.81" width="64.67" height="208.62" transform="translate(4473.83 2126.23) rotate(180)"/><rect class="cls-10" x="2048.63" y="958.81" width="155.95" height="208.62" transform="translate(4253.21 2126.23) rotate(180)"/><path class="cls-1" d="M2247.71,984.86a10.8,10.8,0,1,0-10.8,10.8A10.79,10.79,0,0,0,2247.71,984.86Z"/><path class="cls-4" d="M2244.55,984.86a7.64,7.64,0,1,0-7.64,7.63A7.64,7.64,0,0,0,2244.55,984.86Z"/><rect class="cls-4" x="2221.47" y="1010.87" width="30.42" height="54.95" transform="translate(4473.36 2076.68) rotate(180)"/><rect class="cls-9" x="2083.94" y="958.81" width="64.67" height="208.62" transform="translate(4232.55 2126.23) rotate(180)"/><rect class="cls-10" x="1927.99" y="958.81" width="155.95" height="208.62" transform="translate(4011.94 2126.23) rotate(180)"/><path class="cls-1" d="M2127.07,984.86a10.8,10.8,0,1,0-10.79,10.8A10.79,10.79,0,0,0,2127.07,984.86Z"/><path class="cls-4" d="M2123.91,984.86a7.63,7.63,0,1,0-7.63,7.63A7.64,7.64,0,0,0,2123.91,984.86Z"/><rect class="cls-4" x="2100.83" y="1010.87" width="30.42" height="54.95" transform="translate(4232.08 2076.68) rotate(180)"/><rect class="cls-9" x="1973.64" y="958.81" width="64.67" height="208.62" transform="translate(4011.94 2126.23) rotate(180)"/><rect class="cls-10" x="1817.69" y="958.81" width="155.95" height="208.62" transform="translate(3791.32 2126.23) rotate(180)"/><path class="cls-1" d="M2016.76,984.86a10.8,10.8,0,1,0-10.79,10.8A10.79,10.79,0,0,0,2016.76,984.86Z"/><path class="cls-4" d="M2013.6,984.86a7.63,7.63,0,1,0-7.63,7.63A7.64,7.64,0,0,0,2013.6,984.86Z"/><rect class="cls-4" x="1990.52" y="1010.87" width="30.42" height="54.95" transform="translate(4011.46 2076.68) rotate(180)"/><rect class="cls-11" x="1807.97" y="1094.66" width="365.37" height="269.95" transform="translate(3981.31 2459.27) rotate(180)"/><rect class="cls-6" x="2003.77" y="1094.66" width="289.69" height="269.95" transform="translate(4297.22 2459.27) rotate(180)"/><rect class="cls-10" x="2119.16" y="1120.74" width="91.93" height="17.99" rx="8.45" transform="translate(4330.25 2259.48) rotate(180)"/><path class="cls-9" d="M1257.61,741.85l-49.41,587.5S1203,1365,1229.51,1365c43.56.1,216.79,0,216.79,0s-32.78-7.42-32.38-24.1c.47-19.66,57.75-604.63,57.75-604.63Z"/><path class="cls-4" d="M1462.61,1354.35c-8.57,0-176.28.31-218.69-.24-18.49-.23-21.73-16.43-21.88-26.92a52.24,52.24,0,0,1,.56-8.75l1.28-15.27,3.28-38.92,2.89-34.38,3.72-44.18,3.13-37.3L1272,730.94l214-5.56s-24.12,244.81-41.19,423c-1.9,19.86-3.71,38.89-5.39,56.67q-.81,8.51-1.57,16.62c-1.59,16.86-3,32.34-4.29,46-.66,7.21-1.28,13.9-1.83,20-2.18,24-3.45,39.38-3.47,42.3a24.66,24.66,0,0,0,.42,4.76C1432.25,1353.5,1459.39,1354.35,1462.61,1354.35Z"/><polygon class="cls-12" points="737.76 421.91 858.12 905.34 874.6 971.55 930.65 1196.72 1972.06 1196.72 1765.45 421.91 737.76 421.91"/><polygon class="cls-10" points="737.76 421.91 721.08 427.47 908.48 1213.54 930.65 1196.72 737.76 421.91"/><polygon class="cls-9" points="908.48 1213.54 1943.48 1213.54 1972.06 1196.72 930.65 1196.72 908.48 1213.54"/><rect class="cls-4" x="1271.94" y="1354.35" width="224.09" height="10.65" transform="translate(2767.97 2719.34) rotate(180)"/><polygon class="cls-9" points="1439.06 1213.54 1437.91 1221.68 1227.16 1264.25 1230.05 1229.87 1231.43 1213.54 1439.06 1213.54"/><path class="cls-13" d="M1462.61,1354.35c-8.57,0-176.28.31-218.69-.24-18.49-.23-21.73-16.43-21.88-26.92l209.75-39.47c-2.18,24-3.45,39.38-3.47,42.3a24.66,24.66,0,0,0,.42,4.76C1432.25,1353.5,1459.39,1354.35,1462.61,1354.35Z"/><polygon class="cls-13" points="737.76 421.91 1765.45 421.91 1932.19 1044.61 892.78 1044.61 737.76 421.91"/><polygon class="cls-9" points="1883.72 1017.63 921.5 1017.63 887.11 880.65 873.81 827.65 868.38 806.04 833.04 665.27 831.21 657.94 812.53 583.53 804.17 550.24 797.04 521.84 791.22 498.67 780.33 455.27 1728.69 455.27 1740.66 498.67 1747.04 521.84 1754.87 550.24 1764.05 583.53 1824.52 802.87 1824.52 802.88 1829.63 821.46 1832.02 830.09 1873.77 981.51 1883.72 1017.63"/><path class="cls-10" d="M680.39,756.44s2.5-27.36-28.06-27.36c0,0,9.26,2.51,14,7.54,0,0-19.49-11.44-40.7,6.14s-8,61.68-14.48,70-31.57,10.05-28.5,37.12,79.72,61,74.8,83.38c0,0,30-44.15,8.56-64.3,0,0,10.47,9.86,11.53,21.58,0,0,2.85-22.89-11.72-30.21C653,853.9,642.43,830.21,643.54,826S680.39,756.44,680.39,756.44Z"/><path class="cls-14" d="M650.3,887.76s22.83,94.45,45.24,113.33c13.47,11.35,53.53,37.4,53.53,37.4l-16.66,6s-55.56-18.76-68-33.38-46.49-87.9-46.49-87.9Z"/><path class="cls-6" d="M782.12,1073l-5.36-13.29a37.7,37.7,0,0,0-35-23.57h-99v330.92h409.43V1099H820.58A41.47,41.47,0,0,1,782.12,1073Z"/><path class="cls-15" d="M435.72,1053.7c.2.36.42.73.63,1.1,5,8.69,16.46,30,29.08,53.25,6,11,12.23,22.55,18.16,33.37,10.22,18.67,19.51,35.31,24.94,44.09,5.51,8.94,9.57,15.22,11.22,17.73h0a4.19,4.19,0,0,1,.53,2.6,135.33,135.33,0,0,0,.37,23.41c7.61,75.76,58.69,116.35,58.69,116.35l15.19,2.25s-21.49-79.63-27.83-124.65c-1.06-7.63-1.53-13.81-1.16-17.85,1.12-11.72-1-28.94-4.9-48.71-7-35.13-19.88-78.25-31.06-112.77-.71-2.21-22.07-79.47-22.07-79.47-17.92,15.67-83.31,22.13-83.31,22.13S413.12,1013.5,435.72,1053.7Z"/><path class="cls-16" d="M626.42,1367.07H563s-1.52-9.66,1.79-17c3.17-7,7.69-7.25.58-18.28,4,4.15,17,5.86,26.14,4.63,1.12,1.82,7.24,14,11,16.73C606.67,1356.14,625.14,1355.08,626.42,1367.07Z"/><path class="cls-16" d="M435.72,1053.7c.2.36.42.73.63,1.1,5,8.69,32,58.59,44.64,81.88-14.63-60.18-4.45-120.36-4.45-120.36Z"/><path class="cls-10" d="M671.74,752.59c.42-1.67-36.2,16.55-38.06,18.61-17.18,19-12.28,43.91-2.45,44.15,6.3.15,5.08,10.63,5.08,10.63l70.21-29.7S698.07,747,671.74,752.59Z"/><path class="cls-17" d="M648.15,873.57s10.68,21.35,9.35,38.67c0,0-12.89,20.34-46.3,25.49C611.2,937.73,639.93,873.56,648.15,873.57Z"/><path class="cls-15" d="M485.14,991.26l.22-11.85c-23.63,3-81.45-28.23-81.45-28.23s-24.71,16.44-28.1,63.38c-1.65,22.91-12.09,119.8-13.25,148.73-.42,10.49-.56,18-.61,21v0a4.17,4.17,0,0,1-1,2.44,135.24,135.24,0,0,0-12.8,19.62c-36,67.06-17.19,158.19-17.19,158.19l8.37-2.13s30.47-94.47,50.39-135.33c3.38-6.93,6.45-12.32,9-15.44,7.49-9.1,15.39-24.54,23.18-43.13C436.63,1133.35,485.14,991.26,485.14,991.26Z"/><path class="cls-16" d="M381.37,1367.07H318s-1.52-9.66,1.79-17c3.17-7,8.14-10.23,7-18.74,4,4.15,10.59,8.8,19.76,7.56,1.12,1.82,7.25,11.57,11,14.26C361.62,1356.14,380.09,1355.08,381.37,1367.07Z"/><path class="cls-17" d="M606.92,951.34c-8.51,1.45,1.39,8.22-10.32,9.49-16.67,1.82-33.88,3.07-42.89,6.66-3.29,1.31-5.49,2.93-6.18,5-3.9,11.75-28.65,31.94-28.65,31.94-110.38-5-117.49-54.22-117.49-54.22C473,880.64,534,842.72,584.34,838c12.26-1.14,28.78.39,36.54,3.84,17.61,7.85,27.27,31.71,27.27,31.71S639.27,945.82,606.92,951.34Z"/><path class="cls-18" d="M596.6,960.83c-16.67,1.82-33.88,3.07-42.89,6.66C550,912.44,576,871,576,871S593,940,596.6,960.83Z"/><path class="cls-14" d="M611,861.72s-41.92-2.29-49.36,24,14,131.36,18.58,142.2c8.41,19.74,50.79,78.53,50.79,78.53l13.58-7s-27.28-86.06-33.37-94.57C601.64,991.49,623.53,873.16,611,861.72Z"/><path class="cls-14" d="M644.57,1099.43a62,62,0,0,1,6.33,6.49c2.82,3.45.34,4.69,8.43,20.29,0,0-.41,2.17-2.17,1.77s-7.87-6.44-11-6c0,0-2.24,1.85-2.49,8-.23,5.72-.25,18.37-1.24,20.75s-8.27-10-11.85-18.88c-3.14-7.82-.08-34.2-.08-34.2Z"/><path class="cls-17" d="M553.35,920.93c.11.62,39.67,7.28,64.41-5.28,0,0,20.67-64.75-8.87-61.65s-47,12.4-47.77,26.54S553.35,920.93,553.35,920.93Z"/><path class="cls-14" d="M619.93,846.4c.43,5.24,1.1,11.38,8,18.44,5.25,5.41,12.84,9.63,18.18,4.3a57.81,57.81,0,0,0,8.25-10c4.61-7.92,10.1-16,10.1-16l-23.73-20.79-1.41-1.24a60.56,60.56,0,0,1-17.68,20.06C620,842.39,619.77,844.39,619.93,846.4Z"/><path class="cls-19" d="M664.41,843.17s-5.48,8.07-10.09,16c-14.75-9.1-14.76-27.35-13.63-36.81Z"/><path class="cls-14" d="M665.07,853.58s-35.8-19.92-23.05-42,16.71-39.56,40.11-27.78,22.94,22.76,20.48,31.18S674.71,858.19,665.07,853.58Z"/><path class="cls-10" d="M708.66,802.05C707,792.24,702,791.3,698.55,792c-13.22-21.87-34.82-13.34-34.82-13.34a48.75,48.75,0,0,1-28.22,17s4.15,7.74,21.27,12.52c5.23,1.46,11.17.58,16.89-1.35a95.75,95.75,0,0,1-24.3,9.16c22.56,2.06,44-18.56,46.25-20.77,1,3.2,2.87,9.89,1.78,14.78-1.49,6.65-7.39,18.69-3.79,20.25C693.61,830.16,711.12,816.77,708.66,802.05Z"/><path class="cls-14" d="M755.62,1038.53s-10,7.5-2.46,12.39,21,6.23,21,3C774.37,1043.15,769,1035.47,755.62,1038.53Z"/><rect class="cls-10" x="108.46" y="1365.07" width="2336.66" height="6.73" rx="2.76"/><path class="cls-6" d="M994.87,620.82,986,607.71c-9.52-14.05-25.67-23.25-40.82-23.25H847.55l16.94,61.94,67.22,245.79a25.34,25.34,0,0,0,24.44,18.65h351.26a25.34,25.34,0,0,0,24.45-32L1268.3,646.4H1039.79C1023.11,646.4,1005.34,636.28,994.87,620.82Z"/><path class="cls-14" d="M1005,547.09a5.41,5.41,0,0,0-1,5.81s0,0,0,0c1.4,3.88,6,8.2,11.4,12.52q1,.82,1.83,1.53l.41.36.32.29c5,4.62,3.12,5.68,12.13,15.06,10.26,10.69,17.33,10.89,19.34,9.91,1.7-.83-1.75-6.49-5.58-12.87l-.56-.92-1.52-2.56c-4.49-7.67-3.33-11.27-2.26-22.67.86-9.27,14.44-51.79,14.44-51.79l-19.68-3.4s-5.94,33.86-12.47,39.07c-3.49,2.78-7.4,2.81-10.76,4.87-.24.14-.47.29-.7.44A25.76,25.76,0,0,0,1005,547.09Z"/><path class="cls-20" d="M1005,547.09a5.41,5.41,0,0,0-1,5.81s0,0,0,0c1.71,3.87,6.22,8.18,11.42,12.48.68.56,1.28,1.08,1.81,1.57l.41.36.32.29c5,4.62,3.12,5.68,12.13,15.06,10.26,10.69,17.33,10.89,19.34,9.91,1.7-.83-1.75-6.49-5.58-12.87a43.68,43.68,0,0,1-18.3-13.49c-6-7.61-10-17.3-14-23.25l-1.16-.22A25.76,25.76,0,0,0,1005,547.09Z"/><path class="cls-14" d="M1163.69,534.85c1.21,6.08,9.87,5.07,19.55,2.71s7.37.44,21.14-1.08,17.94-6.65,18.36-8.69c.38-1.82-6.42-2.46-13.72-3.31l-2.76-.33c-8.24-1-14.27-6.35-21.76-10.72-7.08-4.14-17.65-21-17.65-21L1148,493.93s9.91,15.05,13.74,21.59c2.25,3.85,2.13,8.94,1.85,12.87A24.11,24.11,0,0,0,1163.69,534.85Z"/><path class="cls-20" d="M1183.24,537.56c9.67-2.37,7.37.44,21.14-1.08s17.94-6.65,18.36-8.69c.38-1.82-6.42-2.46-13.72-3.31l-.07.14a38.78,38.78,0,0,1-19.72,6.13c-9.34.22-19.23-2.46-25.68-2.36a24.11,24.11,0,0,0,.14,6.46C1164.9,540.93,1173.56,539.92,1183.24,537.56Z"/><path class="cls-11" d="M1091.37,414.09l-17.67,47.49-23.07,62a37.42,37.42,0,0,1-12.24-1.12c-5.51-1.6-11.84-5.77-11.84-5.77s6.42-66.59,18.37-104.81c3.07-9.81,6.5-17.74,10.28-22.21C1073.72,367.82,1091.37,414.09,1091.37,414.09Z"/><path class="cls-6" d="M1073.45,338.65c-10-3.25-36.27-.06-64.7,5.07a19.3,19.3,0,0,1-19.92-9h0l-71.56-5.61s-23.63,52.36-10.72,85.73c1.9,4.91,6.07,8,12.51,8.08h0l57.07.08c35.59,0,75.33-24.44,80.47-25.47,8.41-1.68,11.77,15.15,20.18,32.82s79,78.26,79,78.26,10.86.11,15.35-1.57c4.82-1.81,6.59-4.16,6.59-4.16S1099.52,347.07,1073.45,338.65Z"/><path class="cls-10" d="M981.3,124.57A25.33,25.33,0,0,0,967.63,121a38.37,38.37,0,0,1-6.6-.4c-27.31-4-43.77,35.65-44.74,47.64-1.78,22-13.42,25.36-29.81,39.13-32.87,27.63-23.25,59.75-5.28,71.68,10.78,7.17,29.78,0,29.78,0,.27.19,52-28.88,77.47-42.9C1026.65,230.75,996.65,133.71,981.3,124.57Z"/><path class="cls-14" d="M967.09,224.22c.11.07-12.54,4.38-21,.64-8-3.52-14-16.62-13.86-16.63,3.62-.16,7.6-3.33,10.66-24.09l1.54.55L970.35,194s-1.88,8.31-3.1,16.23C966.23,216.91,965.67,223.28,967.09,224.22Z"/><path class="cls-21" d="M970.35,194s-1,4.48-2.55,12.87c-14.88-2.69-21.27-14.16-23.37-22.21Z"/><path class="cls-14" d="M974.21,202.28s-35.46-4.77-32.15-26.81S943,138,965.8,140.1s25.91,11.18,26.59,18.8S983.52,203,974.21,202.28Z"/><path class="cls-10" d="M991.1,146.82S968.4,166.38,953,168s-21.29-3.39-21.29-3.39a60.27,60.27,0,0,0,14.58-19.74,10.86,10.86,0,0,1,9-6.4C966.23,137.47,987.13,137,991.1,146.82Z"/><path class="cls-10" d="M976.91,145.07s7.6,7.34,10,12.79c2.3,5.25,3,17.82,1.15,22.82,0,0,11.84-23,5.15-34.19C986.1,134.64,976.91,145.07,976.91,145.07Z"/><path class="cls-17" d="M996.93,276.46c-1.1,71.79-.31,56.79-8.17,63.6-1.89,1.63-7.21,2.61-14.21,3.07-22,1.45-60.7-2.19-62.17-6.25-5.07-14.08-1.49-18.45-5.72-40-.44-2.29-1-4.77-1.62-7.48-3.53-14.8-7-19.83,5.57-43.61,11.37-21.53,23.18-39,24.25-38.37,30,17.8,32.39,2.84,32.39,2.84S997.47,241.45,996.93,276.46Z"/><path class="cls-6" d="M1073.7,461.58l-23.07,62a37.42,37.42,0,0,1-12.24-1.12c-5.51-1.6-11.84-5.77-11.84-5.77s6.42-66.59,18.37-104.81Z"/><path class="cls-17" d="M967.25,210.26s30.85,5.24,34.46,18.52,15.52,93.9,15.52,93.9-8.7,8.49-15.94,1.25-22.78-75.43-22.78-75.43Z"/><path class="cls-18" d="M974.55,343.13c-22,1.45-60.7-2.19-62.17-6.25-5.07-14.08-1.49-18.45-5.72-40L917.29,267s-1.77,33.29,8.05,42.05,40.19,16.91,45,24.23A26.74,26.74,0,0,1,974.55,343.13Z"/><path class="cls-14" d="M949.34,329.12s21.71-4.83,25.22-2.9,12.06,8.95,13.13,11.39-7.8-1.85-10.68-2.63c-1.87-.5-6.79,1.21-9.23,2-10.25,3.41-16.53,1.65-16.53,1.65Z"/><path class="cls-17" d="M934.84,207.4s-29.16,1.79-39.26,15.86c-14.21,19.81-42.43,104.26-26.28,115.53,18.19,12.69,82.79,3.35,82.79,3.35s2.16-10.05-.83-14.91-51.6-12.73-53.84-15,28.06-43.74,28.06-50.47S934.84,207.4,934.84,207.4Z"/><path class="cls-14" d="M975.61,332.27s4.54,5.87,6,6.57a4.4,4.4,0,0,0,2.45.52L981,333.84Z"/><path class="cls-14" d="M974.56,326.22l13.22,6.43a2.34,2.34,0,0,1-2.19.84,31.16,31.16,0,0,1-5.73-1.57Z"/><polygon class="cls-22" points="1087.51 341.36 949.33 341.31 949.33 344.36 1086.29 344.41 1087.51 341.36"/><polygon class="cls-22" points="981.64 344.38 1086.29 344.41 1117.79 266.14 1013.31 266.11 981.64 344.38"/><path class="cls-5" d="M1059.88,305.26c.79-2.75-.8-5-3.55-5a7.14,7.14,0,0,0-6.41,5c-.79,2.75.8,5,3.55,5A7.14,7.14,0,0,0,1059.88,305.26Z"/><polygon class="cls-4" points="1576.03 603.16 1547.09 566.19 1545.72 564.45 1544.09 564.14 1410.51 539.57 1365.56 783.9 1538.73 815.76 1577.18 606.75 1577.5 605.04 1576.03 603.16"/><polygon class="cls-23" points="1489.14 527.35 1489.21 529.09 1497.45 741.45 1321.5 748.28 1311.87 500.03 1447.59 494.77 1449.25 494.7 1450.96 496.11 1487.3 525.85 1489.14 527.35"/><path class="cls-22" d="M1373.4,588.16l-293.62,16.37a1.07,1.07,0,0,0-1,1.13l21.43,384.5a1.08,1.08,0,0,0,1.14,1l293.2-16.35a1.07,1.07,0,0,0,1-1.13l-21.46-384.92A.66.66,0,0,0,1373.4,588.16Z"/><path class="cls-24" d="M1372.86,962.69,1124.15,978.3a13.54,13.54,0,0,1-14.36-12.66l-21.2-337.95a13.54,13.54,0,0,1,12.66-14.36L1350,597.73a13.54,13.54,0,0,1,14.36,12.66l21.2,338A13.52,13.52,0,0,1,1372.86,962.69Z"/><path class="cls-4" d="M1274.71,653.47l-156.46,9.82a.15.15,0,0,1-.15-.14l-.25-3.91a.14.14,0,0,1,.14-.15l156.45-9.82a.16.16,0,0,1,.16.14l.24,3.91A.14.14,0,0,1,1274.71,653.47Z"/><path class="cls-4" d="M1276.82,687.06l-156.46,9.82a.16.16,0,0,1-.16-.14l-.24-3.91a.14.14,0,0,1,.13-.15l156.46-9.82a.15.15,0,0,1,.15.14l.25,3.91A.13.13,0,0,1,1276.82,687.06Z"/><path class="cls-4" d="M1335.54,666.51,1119.3,680.08a.13.13,0,0,1-.15-.13l-.25-3.91a.16.16,0,0,1,.14-.16l216.23-13.56a.15.15,0,0,1,.16.13l.24,3.91A.13.13,0,0,1,1335.54,666.51Z"/><path class="cls-4" d="M1239,793.85l-106.45,6.68a.12.12,0,0,1-.12-.11l-.25-4a.12.12,0,0,1,.11-.13l106.45-6.68a.13.13,0,0,1,.13.11l.25,4A.12.12,0,0,1,1239,793.85Z"/><path class="cls-4" d="M1278.64,774.5l-147.14,9.23a.12.12,0,0,1-.13-.11l-.25-4a.12.12,0,0,1,.12-.12l147.13-9.24a.12.12,0,0,1,.13.11l.25,4A.12.12,0,0,1,1278.64,774.5Z"/><path class="cls-4" d="M1289.48,809.45,1133,819.27a.14.14,0,0,1-.15-.13l-.25-3.91a.16.16,0,0,1,.14-.16l156.46-9.82a.15.15,0,0,1,.15.14l.25,3.91A.15.15,0,0,1,1289.48,809.45Z"/><path class="cls-4" d="M1308,825.15l-174,10.92a.14.14,0,0,1-.14-.12l-.24-3.94a.12.12,0,0,1,.12-.14l174-10.92a.13.13,0,0,1,.14.12l.25,3.94A.13.13,0,0,1,1308,825.15Z"/><path class="cls-4" d="M1248.83,858.47l-112,7a.13.13,0,0,1-.13-.11l-.25-4a.13.13,0,0,1,.12-.13l112-7a.14.14,0,0,1,.13.12l.25,4A.12.12,0,0,1,1248.83,858.47Z"/><path class="cls-4" d="M1250.94,892.07l-112,7a.11.11,0,0,1-.13-.11l-.25-4a.14.14,0,0,1,.12-.13l112-7a.12.12,0,0,1,.13.11l.24,4A.12.12,0,0,1,1250.94,892.07Z"/><path class="cls-4" d="M1292.68,872.59l-154.76,9.71a.12.12,0,0,1-.13-.12l-.25-3.95a.11.11,0,0,1,.11-.13l154.76-9.71a.11.11,0,0,1,.13.11l.25,4A.12.12,0,0,1,1292.68,872.59Z"/><path class="cls-6" d="M1293.41,571.41,1156.48,579c-9,.51-16,7.71-15.5,16.09l1.15,20.7a3.66,3.66,0,0,0,4,3.3l162.07-9a3.65,3.65,0,0,0,3.58-3.72l-1.15-20.69C1310.13,577.3,1302.43,570.91,1293.41,571.41Z"/><path class="cls-14" d="M1540.8,737.61s-2.84-6.41-4.69-9.44-9.71-11.91-11-9.9-6.71,15.55-3.86,19.34-.18,10.38,14,14.37Z"/><path class="cls-6" d="M1698.22,697.19s-72.51,60.53-100.79,54.93c-22.1-4.39-57.06-15.47-57.06-15.47s-9.22,8.77-6.62,19.29c0,0,44.54,41.9,76.26,42.17,49.6.43,73-24.57,73-24.57Z"/><path class="cls-20" d="M1825.4,1335.66s-2.11,34-8.68,34.44c-.87.07-33.32.07-33.32.07l-41.42-.24s.27-10,12.38-12.09,32.37-10.62,39.71-26.62C1801.78,1314.38,1825.4,1335.66,1825.4,1335.66Z"/><path class="cls-17" d="M1827.79,1338s-12.59,4.21-22.42,4.21a82.31,82.31,0,0,1-20.94-3s-2.37-22.92-15.41-73.44c-6.84-26.47-16.61-60.51-30.51-102.81-38.42-116.91-50.1-185.3-51.17-191.78,0-.34-.08-.51-.08-.51l.13-.05,118.12-51.87s-14.6,161.13,4,223a263.67,263.67,0,0,1,6.76,29.63C1828.06,1238.56,1827.79,1338,1827.79,1338Z"/><path class="cls-18" d="M1769,1265.8c-6.84-26.47-16.61-60.51-30.51-102.81-38.42-116.91-50.1-185.3-51.17-191.78,0-.19,0-.37.05-.56l118.12-51.87s-14.6,161.13,4,223C1812.14,1150.4,1769,1265.8,1769,1265.8Z"/><path class="cls-20" d="M1733.14,1335.66s-2.1,34-8.67,34.44c-.88.07-33.32.07-33.32.07l-41.42-.24s.27-10,12.37-12.09,32.38-10.62,39.71-26.62C1709.53,1314.38,1733.14,1335.66,1733.14,1335.66Z"/><path class="cls-17" d="M1666.17,922.58s-1.53,104.41,16.53,232.61,11.94,182.61,11.94,182.61,12.42,4,17.42,4.43c12.77,1,25.85-3,25.85-3s25.86-128.25,18.44-192.41,35.41-220.18,35.41-220.18Z"/><path class="cls-14" d="M1749.93,678.25l-23.06,15.12-21-5.94c-3.84-5.48-4.86-16-4.91-25.18a156.19,156.19,0,0,1,.82-16.77l31.11-13.73,11.61-5.12c0,.19-.91,9.53-1,10.9C1741.3,661.77,1749.93,678.25,1749.93,678.25Z"/><path class="cls-6" d="M1665.64,951.61c28.7,27.71,137.32,23,144-7.48s-7.3-259.89-56.32-274.3c-10.18-3-64.56,14.59-64.56,14.59a344.36,344.36,0,0,0-14.14,50.75c-1.08,5.53-4.25,64.14-6.62,119-1.11,25.64-2,50.47-2.53,68.64C1665.05,939.82,1665,951,1665.64,951.61Z"/><path class="cls-25" d="M1741.14,638c-6.31,10.67-28.45,20-40.18,24.29a156.19,156.19,0,0,1,.82-16.77l31.11-13.73C1739.77,631.66,1744,633.19,1741.14,638Z"/><path class="cls-14" d="M1690.05,643.59s50.12,15.63,59.38-15.73,22-50.47-9.65-61.78-41.39-1.18-47,8.53S1677.25,638.71,1690.05,643.59Z"/><path class="cls-16" d="M1694.72,571.59s3.2,36.5,10.74,34.91,15.86-5,14.76,6,7.33,29.86,18.22,29.82c23.34-.1,48.7-60,42.31-71.35C1762.32,538.22,1668.07,531.61,1694.72,571.59Z"/><path class="cls-11" d="M1702.09,670.62c.65-.27,37.32-16.72,41.6-15.3s9.64,14.51,9.64,14.51l-64.57,14.6S1693.85,674.09,1702.09,670.62Z"/><path class="cls-10" d="M1473.82,848.25l205.54,193.52c4,3.79,9.11,5,11.29,2.68l6.94-7.37c2.18-2.31.66-7.31-3.36-11.11L1488.69,832.46c-4-3.8-9.11-5-11.29-2.69l-6.94,7.37C1468.28,839.46,1469.79,844.46,1473.82,848.25Z"/><path class="cls-4" d="M1589.16,956.85l90.2,84.92c4,3.79,9.11,5,11.29,2.68l6.94-7.37c2.18-2.31.66-7.31-3.36-11.11L1604,941.06Z"/><path class="cls-10" d="M1484.28,617.78a161.09,161.09,0,0,0-227.71-6.93c-.85.8-1.7,1.61-2.53,2.44a161.1,161.1,0,1,0,230.24,4.49Zm-15.65,218.47A148.39,148.39,0,1,1,1475,626.5,148.22,148.22,0,0,1,1468.63,836.25Z"/><g class="cls-2"><path class="cls-26" d="M1258.88,829.84a148.4,148.4,0,1,0,6.4-209.73A147.74,147.74,0,0,0,1258.88,829.84Z"/></g><path class="cls-11" d="M1665.48,922.79c113.26-80.7,103.84-188.39,103.84-188.39-41.39,23.35-82.47,75-101.31,119.75C1666.9,879.79,1666,904.62,1665.48,922.79Z"/><path class="cls-14" d="M1553.71,886c-8-1.84-13.35-7.88-14.47-8.94,0,0-3.4.24.56,7.5.33.61,1.07,2.17,1.62,3.27a.71.71,0,0,1-.59,1c-4.61.35-9.24-1.47-18.12.38-1.22.25-1.58,3.19-1.53,4.44.08,2.11-.08,4.49,2.38,7.73,1.43,1.89,5.43,3.92,14.31,7.5,3.39,1.36,13.07.33,22.15-2.79l7.25-3.35L1565,889.32l-1.82.38C1560.3,890.31,1556.72,886.78,1553.71,886Z"/><path class="cls-6" d="M1734.17,684.43s101.76,19.37-29.94,166.73c-21.06,23.57-134.86,54.26-134.86,54.26s-11.54-9.82-5.72-17.77c0,0,78.35-56.9,95.59-65.95,7.76-4.07,30.1-90.81,42.74-111.7S1734.17,684.43,1734.17,684.43Z"/><path class="cls-14" d="M1538,739.39s-3.32-6.36-4-9.71-4.84-13.15-6.57-14.87c-.69-.69-3,.2-3.24,3.17-.12,1.29.52,3.64,1.63,6.44,1.82,4.55,1.52,10.73,2.16,12.79C1529.62,742.33,1538,739.39,1538,739.39Z"/></g></g></svg>