<svg xmlns="http://www.w3.org/2000/svg" viewBox="0 0 2568.99 1606.82"><defs><style>.cls-1{fill:#f5d4e6;}.cls-2{fill:#00898c;}.cls-3{fill:#b5629f;}.cls-4{fill:#449bac;}.cls-5{fill:#006569;}.cls-6{fill:#d1edea;}.cls-7{fill:#962752;}.cls-8{fill:#7b1d44;}.cls-9{fill:#914580;}.cls-10{fill:#fdeaf2;}.cls-11{fill:#ffb684;}.cls-12{fill:#ffa948;}.cls-13{fill:#562850;}.cls-14{fill:#7f457c;}.cls-15{fill:#ffd44b;}.cls-16{fill:#f79d68;}.cls-17{fill:#00265b;}</style></defs><g id="Layer_2" data-name="Layer 2"><g id="_лой_1" data-name="‘лой_1"><path class="cls-1" d="M2216.61,1601.28s184.5,43.74,275.32-154.49c117.83-257.17-47.55-501.47-332.83-519.06-411.46-25.38-183.43-682.3-832.7-504.06C1143.83,473.79,746.74,215.07,513,653.45,473.23,728,354.41,724.33,196.1,851.5c-279.26,224.32-178.73,752.16,56.57,754.56S2216.61,1601.28,2216.61,1601.28Z"/><path class="cls-2" d="M293.8,1605.1s8.58-56.2,118-71.31S623,1397.44,803.48,1415s330.24,128,535.67,94.16,334.07,9.29,380.15,43.29,236.78-8,250.87,54.33Z"/><path class="cls-3" d="M743.66,266s-123.52-6-58,370.4c0,0,44.08,127.78-11.57,210.14h819.13V266Z"/><path class="cls-4" d="M827.79,1244.69s-57.23-66.77-3.53-109.17c0,0,39.22-23.75,71.21-21.82,0,0-45.32,76-30.66,83.55s44.39-88.32,44.39-88.32,89.26-8.65,118,5.15c0,0-76.3,62.44-60.23,66.16s98.49-57.57,98.49-57.57,83.07,14.14,78.64,64.82-33,66.32-45.63,65-86.18-29.44-87.78-19.13,42.69,44,73.72,45.57c0,0-58.57,64.6-97.5,45.95s-42.25-48.19-66.51-59.27-45-11-35,.25,53.93,22.29,67.81,46.83,26.32,41.1-14,35-105.73-35.53-108.61-69.27Z"/><path class="cls-4" d="M1103.25,1188.85s-225.63-8.69-275.46,55.84c0,0-11,33-44.93,63l-5.29,14.41s39.1-41.23,53.09-43.72C830.66,1278.43,808.78,1198.49,1103.25,1188.85Z"/><path class="cls-4" d="M782.86,1307.74s-48.43,35.82-51.79,99.82l8.78.78s15.47-66.17,43.43-92S782.86,1307.74,782.86,1307.74Z"/><path class="cls-5" d="M627.71,1160.73s91-51,48.55-120.17c0,0-34-42.48-70.4-53.4,0,0,19.42,103.17,0,105.59s-13.35-116.52-13.35-116.52S496.62,930.11,459,933.75c0,0,59.47,100.74,40.05,98.32s-86.18-104.39-86.18-104.39-98.31-18.2-114.09,40.06,9.71,87.39,24.27,91,108,2.43,105.6,14.56-65.54,31.56-100.74,20.64c0,0,38.84,95.89,89.82,91s66.75-36.41,98.31-38.84,54.62,6.07,38.84,14.57-69.18,2.78-94.67,24.45-46.12,35,1.21,44.73,132.3,3.64,149.3-32.77Z"/><path class="cls-4" d="M343.69,985.94s254.89,82.54,284,174.79c0,0-1.22,41.26,24.27,88.6v18.21s-26.7-61.9-41.26-70.4C610.72,1197.14,667.76,1117,343.69,985.94Z"/><path class="cls-4" d="M652,1249.33s39.31,59.69,16.9,132.35L658.77,1379s9.81-80-10.75-120.29S652,1249.33,652,1249.33Z"/><path class="cls-6" d="M772.53,1090.42s-120-67.2-64-158.4c0,0,44.8-56,92.8-70.39,0,0-25.6,136,0,139.19s17.6-153.59,17.6-153.59,126.4-60.8,176-56c0,0-78.4,132.79-52.8,129.59s113.6-137.59,113.6-137.59,129.59-24,150.39,52.8-12.8,115.19-32,120-142.39,3.2-139.19,19.2,86.39,41.6,132.79,27.2c0,0-51.2,126.4-118.39,120s-88-48-129.6-51.2-72,8-51.2,19.2,91.2,3.67,124.8,32.23,60.8,46.17-1.6,59-174.4,4.8-196.8-43.2Z"/><path class="cls-5" d="M1146.92,860s-336,108.79-374.39,230.39c0,0,1.6,54.4-32,116.8v24s35.2-81.6,54.4-92.8C794.93,1138.42,719.73,1032.82,1146.92,860Z"/><path class="cls-5" d="M740.53,1207.22s-51.81,78.68-22.27,174.46l13.33-3.58s-12.94-105.5,14.17-158.55S740.53,1207.22,740.53,1207.22Z"/><path class="cls-7" d="M768.49,1589.39c129.82,0,235-105.24,235-235.06H533.43C533.43,1484.15,638.67,1589.39,768.49,1589.39Z"/><path class="cls-8" d="M826.33,1587.59a236.38,236.38,0,0,1-29.2,1.8c-129.82,0-235-105.24-235-235.06h58.4C620.48,1474.26,710.29,1573.21,826.33,1587.59Z"/><path class="cls-7" d="M1006.79,1601.35H530.19a29,29,0,0,1,29-29h418.6a29,29,0,0,1,29,29Z"/><rect class="cls-7" x="525.7" y="1354.33" width="483.19" height="7.21"/><path class="cls-4" d="M1619.05,460.59s-41.17-77.69,20.52-107.28c0,0,43.48-14.55,74.26-5.65,0,0-60.89,64.19-48.25,74.78s62.7-76.42,62.7-76.42,89,11.15,114,30.92c0,0-88.15,44.17-73.29,51.32s108.73-34.55,108.73-34.55,77.94,32,62.5,80.5-46.81,57.45-58.79,53.38S1803.78,480,1800,489.66s32,52.29,61.91,60.64c0,0-71.31,50.16-105.2,23.43s-30.64-56.29-51.88-72.43-41.45-20.66-34.16-7.43,47.72,33.58,55.87,60.57,16.67,45.88-21.29,31.13-95.36-57.87-90.76-91.42Z"/><path class="cls-4" d="M1900.06,466.58s-218.23-58-281-6c0,0-18,29.79-57.67,51.66l-8.32,12.9s47.19-31.64,61.39-31C1614.45,494.15,1610.65,411.35,1900.06,466.58Z"/><path class="cls-4" d="M1561.38,512.25s-55.11,24.32-72.44,86l8.4,2.7s29.62-61.16,62.57-80.27S1561.38,512.25,1561.38,512.25Z"/><path class="cls-6" d="M1347.93,320.46S1226,256.86,1279.25,164c0,0,43.11-57.31,90.66-73.13,0,0-21.54,136.69,4.14,139.13s13-154,13-154,124.53-64.54,174.25-61.21c0,0-74.41,135.07-48.92,131.11S1621.85,5,1621.85,5s128.83-27.85,151.91,48.3-9.37,115.52-28.42,120.89-142.23,7.44-138.56,23.34,87.6,39,133.55,23.23c0,0-47.42,127.87-114.78,123.47s-89.38-45.36-131.06-47.32-71.73,10.14-50.6,20.72,91.26.95,125.7,28.5,62.14,44.34.15,59-174.17,10-198-37.32Z"/><path class="cls-6" d="M1715.3,79s-332.61,118.75-367.37,241.44c0,0,3.22,54.32-28.51,117.7l.72,24s32.75-82.61,51.61-94.37C1371.75,367.77,1293.44,264.46,1715.3,79Z"/><path class="cls-6" d="M1319.42,438.16s-49.45,80.19-17.07,175.05l13.22-4s-16.08-105.07,9.44-158.91S1319.42,438.16,1319.42,438.16Z"/><rect class="cls-9" x="795.6" y="488.79" width="855.2" height="1115.3"/><rect class="cls-10" x="823.56" y="488.79" width="840.82" height="1115.3"/><path class="cls-2" d="M2257.26,1601.36H2087.83c-9.08-7.7,6.28-25.19,22.33-26.37,7-.53,15.79.93,25.86,3.06,2.33-31,15.65-170.18,65.83-164.59,56.42,6.26,0,61.31-15.95,93.9-11.82,24.14-24.28,58.75-30,75.09,4.58,1,9.33,2,14.17,2.86,7.48-23,35.31-100.21,70.69-95.71,41.55,5.27,24.85,36.24-4.6,54.62-21.6,13.52-48.13,32.74-60.74,42a179.75,179.75,0,0,0,33.14,2.65C2237.6,1588.2,2251.77,1596.76,2257.26,1601.36Z"/><path class="cls-10" d="M1664.39,488.78H823.55c4.66-63.58-2.35-109.75-13.58-143C788.41,282,751.24,266,751.24,266h793c67.68,0,120.16,40.78,134.44,94.9q.81,3,1.46,6.09C1693.69,428.88,1665,487.65,1664.39,488.78Z"/><path class="cls-1" d="M1664.39,488.78H823.55c4.66-63.58-2.35-109.75-13.58-143,85.93,15.74,298.75,49.27,526.55,43.62,147.37-3.66,263.82-13.52,343.6-22.49C1693.69,428.88,1665,487.65,1664.39,488.78Z"/><rect class="cls-3" x="988.05" y="725.05" width="462.55" height="20.92" rx="1.57"/><rect class="cls-3" x="988.05" y="760.24" width="288.21" height="20.92" rx="1.57"/><path class="cls-3" d="M945.1,777.77V735.05h-5.64q-5.13,0-5.13-4.27c0-2,1.34-3.51,4-4.36a29.63,29.63,0,0,1,6.54-1c3-.23,5.39-.34,7.22-.34s2.87.36,3.33,1.07.68,2.52.68,5.42v46.23h5.81q5.64,0,5.64,4.87,0,5.13-5.64,5.13H938.52a6.4,6.4,0,0,1-4.14-1.33,4.47,4.47,0,0,1-1.67-3.71q0-5,5.72-5Z"/><rect class="cls-3" x="988.05" y="945.32" width="462.55" height="20.92" rx="1.57"/><rect class="cls-3" x="988.05" y="980.51" width="288.21" height="20.92" rx="1.57"/><path class="cls-3" d="M968.45,997.16q0,4.26-6,4.26H937.72q-5.36,0-5.36-4.3a5.49,5.49,0,0,1,1.43-3.17q2.12-2.41,6.2-7.25,6.18-7.77,10.34-13.44,1.44-1.89,4.08-5.74A13.87,13.87,0,0,0,956.6,961a6.65,6.65,0,0,0-1.89-4.87,6.46,6.46,0,0,0-4.83-1.93,7.41,7.41,0,0,0-5,1.81,8.66,8.66,0,0,0-2.26,4.53q-1.07,4.3-1.36,5a3.83,3.83,0,0,1-3.7,2.41,4.24,4.24,0,0,1-3.55-1.66,5.62,5.62,0,0,1-1.21-3.77,18.51,18.51,0,0,1,.83-5.37,16.17,16.17,0,0,1,6.42-8.91,18.67,18.67,0,0,1,10.65-2.94,16.52,16.52,0,0,1,11.48,4.16,14.55,14.55,0,0,1,4.75,11.19,19.49,19.49,0,0,1-3.4,10.44q-1.87,3-7.77,10.44-3,3.86-9.52,11.19h16.31Q968.46,992.74,968.45,997.16Z"/><rect class="cls-3" x="988.05" y="1129.06" width="462.55" height="20.92" rx="1.57"/><rect class="cls-3" x="988.05" y="1164.25" width="288.21" height="20.92" rx="1.57"/><path class="cls-3" d="M968.45,1167.65a16.2,16.2,0,0,1-5.63,12.89q-5.33,4.64-13.51,4.63a18.86,18.86,0,0,1-10.8-3q-7.11-4.79-7.11-11.5a4.85,4.85,0,0,1,1.24-3.32,4,4,0,0,1,3.16-1.39q2,0,3.79,2.7a57.07,57.07,0,0,0,3.32,4.94,8.6,8.6,0,0,0,6.56,2.7c3.6,0,6.17-1.33,7.71-4a10.7,10.7,0,0,0,1.09-5.1q0-7.56-8.88-8.41-5-.46-5-4.24a4,4,0,0,1,2.92-3.94q5.43-2,5.51-2.08,2.93-1.93,2.92-6.72a6,6,0,0,0-1.69-4.51,6.21,6.21,0,0,0-4.54-1.66,8.3,8.3,0,0,0-5.54,1.69,11.17,11.17,0,0,0-2.85,5,3.51,3.51,0,0,1-3.53,2.7,3.61,3.61,0,0,1-3-1.62,5.83,5.83,0,0,1-1.2-3.55,9.81,9.81,0,0,1,1.32-4.78,14.82,14.82,0,0,1,6.63-6.26,19.47,19.47,0,0,1,9-2.08,15.56,15.56,0,0,1,10.92,4,13.45,13.45,0,0,1,4.36,10.45,14.32,14.32,0,0,1-6.48,12.35Q968.45,1157.3,968.45,1167.65Z"/><rect class="cls-3" x="1103.91" y="538.57" width="295.07" height="24.3" rx="1.82"/><rect class="cls-3" x="1029.52" y="576.04" width="443.85" height="24.3" rx="1.82"/><path class="cls-9" d="M1218.87,858.75c-91.6,0-178.52-11.5-243.32-27.92C910.08,814.23,874.82,787.1,874.82,763c0-21.81,28.74-41.87,83.11-58h0c-52.11,15.47-80,38.18-80,58,0,22,36.12,43.78,99.09,59.74,64.58,16.37,150.45,25.39,241.81,25.39s177.24-9,241.81-25.39c63-16,99.1-37.74,99.1-59.74,0-23.3-38-52.26-99.26-75.57-69.61-26.51-155.43-36.34-241.64-36.34C1057,651.13,990.38,670,932.58,693.7h0C990.64,669.92,1056.44,643,1218.86,643c86.56,0,172.75,14.66,242.69,41.29,62.52,23.81,101.36,54,101.36,78.78,0,24.06-36.05,46.45-101.52,63.05C1396.59,842.52,1310.46,858.75,1218.87,858.75Z"/><path class="cls-11" d="M1775.09,1073.48s-3,29.32-6.32,34.87-17.4,23.27-23.41,26.74,3.67-23.35,2.45-28.57-4.94,9.53-7.59,9.87-2-12.92-2.06-17.75,12.87-16.76,17.45-27.05S1775.09,1073.48,1775.09,1073.48Z"/><path class="cls-11" d="M1414.83,803l-6.74-12.72s3.35-22.66-25-37c0,0-10.38-4.23-16.24,4.24-5.39,7.79,10.28,6.38,9.44,19.72s5.49,21.16,14.3,25.5l7.29,8.44Z"/><path class="cls-12" d="M1683.14,772.63s-24.38,119.66-158.55,158.76c-41.88,12.21-137-125.68-137-125.68s3.34-12.71,24.3-9.79c0,0,92.65,61.33,104.31,68,10.35,5.91,78.41-76,109.44-89.22S1683.14,772.63,1683.14,772.63Z"/><rect class="cls-5" x="1373.99" y="708.02" width="25.06" height="126.06" transform="translate(413.92 2024.44) rotate(-81.27)"/><polygon class="cls-11" points="1295.25 757.03 1322.32 773.86 1326.12 749.09 1295.25 757.03"/><path class="cls-11" d="M1463.94,778.67l-1.2,7.83a8.83,8.83,0,0,1-10.06,7.39l-5.77-.89,3.81-24.77,6.26,1A8.32,8.32,0,0,1,1463.94,778.67Z"/><path class="cls-13" d="M1843.32,1524.89s16.65,15.19,13.4,26-18.27,18-20.3,31.17-10.14,20.39-17.45,20.39h-34.84s-5.38-9.28,7.61-12.08,17.89-18.3,17.08-32.69,1.22-33.58,1.22-33.58l27.6-6.39Z"/><path class="cls-13" d="M1639.12,1564.18s3,34.57-4.32,38.17l-93.51-.19s0-10.8,15-13.2,41.4-11.19,45.87-30.78S1639.12,1564.18,1639.12,1564.18Z"/><path class="cls-14" d="M1560.17,1075.86s4.93,60.59,10.73,133.43c7.88,99,17.35,220.49,18.29,243.51,1.62,40,8.13,103.94,8.13,103.94s15.41,15.19,46.28,8.79c0,0,27.5-91.29,35.35-187.89.12-1.58.24-3.18.37-4.77,7.3-98.34,18.67-305.41,18.67-305.41Z"/><path class="cls-13" d="M1560.17,1075.86s4.93,60.59,10.73,133.43l108,168.35c.12-1.58.24-3.18.37-4.77,7.3-98.34,18.67-305.41,18.67-305.41Z"/><path class="cls-14" d="M1582.69,1083.05s88.91,219.46,147.37,322.59,76.73,131.91,76.73,131.91,33.49-13.19,36.53-22.18c0,0-22.35-199.1-61.5-247.64-22.12-27.42-48.11-109.73-49.32-138.51s-7.92-85.74-7.92-85.74Z"/><path class="cls-11" d="M1699.67,744.85s-60.15,29-94.84,18.26a81.83,81.83,0,0,1,23.48-18.78c-1.2-7-2.13-13-2.67-18.12a168.39,168.39,0,0,1-1.46-18.52l23.2-18.26,22-17.47C1667.66,721.08,1699.67,744.85,1699.67,744.85Z"/><path class="cls-15" d="M1731.37,1054.72c.13,3.68-7.74,7.88-11.2,9.46-25.75,11.29-49.76,19.17-77,21.8-32.14,3.28-70.15-3.94-83.23-3.68a5.45,5.45,0,0,1-3.6-1.44c-.93-.66-1.6-39.41-.93-88.13,0-2,0-3.94.13-5.91v-.66c.27-19,.94-39,1.87-59,1.87-43.86,5.33-86.15,11.2-109.53,7.07-27.58,23.08-45.84,37.62-59.1l12-10.51c12,2.36,24.68,1.71,37.35-4.46,13.87-6.7,28.81-13.93,31.21-12.09,18.14,13.27,30.41,43.08,37,81.17a423,423,0,0,1,5.47,72.23c0,9.46-.27,19.18-.8,28.77-3.2,52,0,97.18,1.86,123.32C1730.84,1044.61,1731.24,1050.52,1731.37,1054.72Z"/><path class="cls-12" d="M1730.3,1052.33c-210.65-.42-38.85-228.58-38.85-228.58l34.13-11.08a662.06,662.06,0,0,1,4,77.17c0,10.11-.19,20.49-.58,30.73C1726.64,976.14,1729,1024.41,1730.3,1052.33Z"/><path class="cls-16" d="M1669.79,690.74s-15.2,27.72-44.15,35.47a168.39,168.39,0,0,1-1.46-18.52l23.2-18.26Z"/><path class="cls-11" d="M1613.59,706.89s57.39,9.38,62.78-25.9,16.42-57.82-20-65.31-45.61,4.92-50.31,16.27S1598.8,703.54,1613.59,706.89Z"/><path class="cls-17" d="M1697.22,611.46c.52-.6,1.73-1.08,4.4-1.23a10.9,10.9,0,0,0-5-1.4c-.56-3.72-2.53-10.3-8.93-11.9a8,8,0,0,1,3.89,5.78c-7.42-7.61-23.3-13.15-67.28-9.68-58,4.58-38.86,41.69-31.35,46.11s26.39-7.7,40.37-6.59,16.64,21.31,21.38,24.08,2.88-2.13,9.3-5,7,7.73,5.17,14.65,7,16,7,16l8.91-9.6c8.91-9.59,17.31-50.24,13.26-58.9C1697.94,613,1697.59,612.24,1697.22,611.46Z"/><path class="cls-15" d="M1686.8,731.21s36.3,17.19,53.71,43.63c27,41,58.31,190.42,58.89,204.26s-22.85,111.53-22.85,111.53-23.76-1.57-29.89-13.56c0,0,4.75-100.37,1.74-106.82s-99-134.64-88.24-162S1686.8,731.21,1686.8,731.21Z"/><path class="cls-11" d="M1408,789.71s2-7.8-3.43-11.31-10.39-13-12.67-11.75c-4.73,2.68,2.58,11,1.24,21.38C1392.65,791.66,1401.11,801.18,1408,789.71Z"/><path class="cls-2" d="M525.7,1528.32s-85.28-218.39-145.1-183.62S525.7,1528.32,525.7,1528.32Z"/><path class="cls-2" d="M483.54,1528.32S370.86,1431,319.4,1449,483.54,1528.32,483.54,1528.32Z"/><path class="cls-2" d="M1676.56,1559.78s26-90.29,56.42-79.63S1676.56,1559.78,1676.56,1559.78Z"/><path class="cls-2" d="M1700.25,1554.85s66.28-43.51,80.85-30.06S1700.25,1554.85,1700.25,1554.85Z"/><path class="cls-3" d="M1473.74,1361.54h-517a6.31,6.31,0,0,1-6.29-6.29h0a6.31,6.31,0,0,1,6.29-6.29h517a6.31,6.31,0,0,1,6.29,6.29h0A6.31,6.31,0,0,1,1473.74,1361.54Z"/><path class="cls-3" d="M1473.74,1386.73h-517a6.31,6.31,0,0,1-6.29-6.29h0a6.31,6.31,0,0,1,6.29-6.3h517a6.31,6.31,0,0,1,6.29,6.3h0A6.31,6.31,0,0,1,1473.74,1386.73Z"/><path class="cls-3" d="M1473.74,1414.64h-517a6.31,6.31,0,0,1-6.29-6.3h0a6.31,6.31,0,0,1,6.29-6.29h517a6.31,6.31,0,0,1,6.29,6.29h0A6.31,6.31,0,0,1,1473.74,1414.64Z"/><rect class="cls-3" x="950.41" y="1429.96" width="461.32" height="12.58" rx="0.94"/><rect class="cls-13" y="1601.36" width="2568.99" height="5.46" rx="0.41"/></g></g></svg>